<?xml version="1.0" encoding="UTF-8" standalone="no"?>
<!-- Created with Inkscape (http://www.inkscape.org/) -->

<svg
   width="56.768574"
   height="56.768574"
   viewBox="0 0 15.020018 15.020018"
   version="1.1"
   id="svg1"
   xml:space="preserve"
   xmlns:inkscape="http://www.inkscape.org/namespaces/inkscape"
   xmlns:sodipodi="http://sodipodi.sourceforge.net/DTD/sodipodi-0.dtd"
   xmlns="http://www.w3.org/2000/svg"
   xmlns:svg="http://www.w3.org/2000/svg"><sodipodi:namedview
     id="namedview1"
     pagecolor="#ffffff"
     bordercolor="#000000"
     borderopacity="0.25"
     inkscape:showpageshadow="2"
     inkscape:pageopacity="0.0"
     inkscape:pagecheckerboard="0"
     inkscape:deskcolor="#d1d1d1"
     inkscape:document-units="mm"
     showgrid="true"><inkscape:grid
       id="grid1"
       units="mm"
       originx="15.475622"
       originy="-0.71812598"
       spacingx="16"
       spacingy="16"
       empcolor="#0099e5"
       empopacity="0.30196078"
       color="#0099e5"
       opacity="0.14901961"
       empspacing="5"
       dotted="false"
       gridanglex="30"
       gridanglez="30"
       visible="true" /></sodipodi:namedview><defs
     id="defs1" /><g
     inkscape:label="Layer 1"
     inkscape:groupmode="layer"
     id="layer1"
     transform="translate(15.475622,-0.718126)"><rect
       style="fill:#bdca31;fill-opacity:0;stroke:none;stroke-width:0.97998"
       id="rect1"
       width="15.02002"
       height="15.02002"
       x="-15.475622"
       y="0.718126"
       inkscape:export-filename="CutIcon.svg"
       inkscape:export-xdpi="185.29192"
       inkscape:export-ydpi="185.29192" /><g
       id="g1"
       transform="matrix(1,0,0,-1,0,16.456272)"><path
         style="fill:#6a677f;fill-opacity:1;stroke:#9593a7;stroke-width:0.0714208;stroke-dasharray:none;stroke-opacity:0"
         d="m -10.428467,9.2806192 c 0.314996,-0.455707 8.5803401,-4.9538616 8.5803401,-4.9538616 L -0.80099291,3.8743255 -8.3266229,10.075285 -9.6777409,9.7904152 Z"
         id="path31"
         inkscape:export-filename="CutIcon.svg"
         inkscape:export-xdpi="96"
         inkscape:export-ydpi="96" /><path
         style="fill:#f4f4f6;fill-opacity:1;stroke:#6d6b83;stroke-width:0.0698277;stroke-dasharray:none;stroke-opacity:1"
         d="m -11.134646,6.8016402 4.6963991,0.486112 -1.166531,1.695612 -3.5552921,-1.261795 z"
         id="path29"
         sodipodi:nodetypes="ccccc" /><path
         id="path27"
         style="fill:#fffaf9;fill-opacity:1;stroke:#6a677f;stroke-width:0.0492449;stroke-dasharray:none;stroke-opacity:1"
         d="m -12.346227,5.6463336 a 2.2097227,2.2097227 0 0 0 -2.706281,1.5624726 2.2097227,2.2097227 0 0 0 1.562456,2.706352 2.2097227,2.2097227 0 0 0 2.706367,-1.562524 2.2097227,2.2097227 0 0 0 -1.562542,-2.7063006 z m -0.258206,0.3878026 a 1.6937619,1.6937619 0 0 1 1.19768,2.07444 1.6937619,1.6937619 0 0 1 -2.074439,1.197678 1.6937619,1.6937619 0 0 1 -1.197681,-2.074439 1.6937619,1.6937619 0 0 1 2.07444,-1.197679 z" /><path
         style="fill:#f6f6f8;fill-opacity:1;stroke:#6b6880;stroke-width:0.0714208;stroke-dasharray:none;stroke-opacity:1"
         d="m -10.620276,9.2837852 c 0.315006,-0.455708 8.5803401,-4.9538623 8.5803401,-4.9538623 L -0.99280191,3.8774909 -8.5184319,10.07845 -9.8695389,9.7935802 Z"
         id="path30" /><path
         id="path28"
         style="fill:#f6f6f8;fill-opacity:1;stroke:#6a677f;stroke-width:0.0506012;stroke-dasharray:none;stroke-opacity:1"
         d="m -11.836534,9.2673022 c -1.705213,0.456929 -2.900657,1.5247658 -2.670176,2.3851248 0.230524,0.860367 1.799753,1.187443 3.50501,0.730544 1.7052881,-0.456922 2.9008081,-1.524822 2.6702621,-2.3852038 -0.230589,-0.860354 -1.7998611,-1.187393 -3.5050961,-0.730465 z m -0.02557,0.644369 c 1.307106,-0.350243 1.8884191,-0.227515 2.0651191,0.4319748 0.17671,0.659485 -0.191981,1.161824 -1.4990871,1.512059 -1.307095,0.35024 -2.535359,0.266343 -2.712069,-0.393142 -0.176722,-0.659482 0.838931,-1.200657 2.146037,-1.5508918 z"
         sodipodi:nodetypes="cccccccccc" /></g></g></svg>
