<?xml version="1.0" encoding="UTF-8" standalone="no"?>
<!-- Created with Inkscape (http://www.inkscape.org/) -->

<svg
   width="1257.2595"
   height="116.10028"
   viewBox="0 0 332.64991 30.718199"
   version="1.1"
   id="svg1"
   inkscape:version="1.3.2 (091e20e, 2023-11-25, custom)"
   sodipodi:docname="TestScene.svg"
   xmlns:inkscape="http://www.inkscape.org/namespaces/inkscape"
   xmlns:sodipodi="http://sodipodi.sourceforge.net/DTD/sodipodi-0.dtd"
   xmlns="http://www.w3.org/2000/svg"
   xmlns:svg="http://www.w3.org/2000/svg">
  <sodipodi:namedview
     id="namedview1"
     pagecolor="#ffffff"
     bordercolor="#000000"
     borderopacity="0.25"
     inkscape:showpageshadow="2"
     inkscape:pageopacity="0.0"
     inkscape:pagecheckerboard="0"
     inkscape:deskcolor="#d1d1d1"
     inkscape:document-units="mm"
     inkscape:zoom="0.25354609"
     inkscape:cx="1417.8882"
     inkscape:cy="865.72031"
     inkscape:window-width="1920"
     inkscape:window-height="1001"
     inkscape:window-x="-7"
     inkscape:window-y="-7"
     inkscape:window-maximized="1"
     inkscape:current-layer="layer1" />
  <defs
     id="defs1" />
  <g
     inkscape:label="Layer 1"
     inkscape:groupmode="layer"
     id="layer1"
     transform="translate(-131.72611,-5.5621943)">
    <path
       style="font-size:25.4px;font-family:'Times New Roman';-inkscape-font-specification:'Times New Roman, ';fill:#30bebd;stroke:#30bebd;stroke-width:1.51376"
       d="m 144.15716,10.872975 v 10.006654 h 4.63723 q 1.59581,0 2.328,-0.694645 0.75097,-0.71342 0.99503,-2.797359 h 0.69465 v 8.617363 h -0.69465 q -0.0188,-1.483162 -0.39426,-2.177808 -0.3567,-0.694645 -1.0138,-1.032582 -0.63832,-0.356709 -1.91497,-0.356709 h -4.63723 v 7.997813 q 0,1.933744 0.24406,2.553293 0.18774,0.469356 0.78852,0.807291 0.82606,0.450581 1.72722,0.450581 h 0.91995 v 0.694646 h -10.92659 v -0.694646 h 0.90116 q 1.57702,0 2.29044,-0.919937 0.45059,-0.600774 0.45059,-2.891228 V 13.989493 q 0,-1.933743 -0.24406,-2.553291 -0.18774,-0.469356 -0.76975,-0.807291 -0.80729,-0.450581 -1.72722,-0.450581 h -0.90116 V 9.4836838 h 18.94317 l 0.24407,5.5947142 h -0.6571 q -0.48813,-1.783549 -1.14522,-2.609616 -0.63832,-0.844839 -1.59581,-1.220323 -0.93871,-0.375484 -2.92878,-0.375484 z m 35.55836,17.028209 0.61955,0.131425 -2.17782,6.90891 h -19.71292 v -0.694646 h 0.95748 q 1.61458,0 2.30923,-1.051355 0.39426,-0.600775 0.39426,-2.778584 V 13.989493 q 0,-2.384323 -0.52568,-2.985098 -0.73219,-0.826065 -2.17781,-0.826065 h -0.95748 V 9.4836838 H 169.9717 V 10.17833 q -2.02761,-0.01877 -2.85368,0.375483 -0.80728,0.394259 -1.10768,0.995034 -0.30039,0.600775 -0.30039,2.872453 v 15.995628 q 0,1.558259 0.30039,2.14026 0.2253,0.394258 0.69464,0.582001 0.46936,0.187741 2.92878,0.187741 h 1.85865 q 2.92878,0 4.11156,-0.431807 1.18276,-0.431807 2.15903,-1.520711 0.97626,-1.107678 1.95252,-3.473228 z m 15.5075,-18.9995012 q 4.95638,0 8.57981,3.7736162 3.64219,3.754842 3.64219,9.387105 0,5.801231 -3.66097,9.63117 -3.66096,3.829939 -8.86142,3.829939 -5.25679,0 -8.84266,-3.736068 -3.5671,-3.736067 -3.5671,-9.668718 0,-6.06407 4.13032,-9.894009 3.58588,-3.3230352 8.57983,-3.3230352 z M 194.8663,10.2722 q -3.41691,0 -5.48206,2.534519 -2.57207,3.154066 -2.57207,9.236912 0,6.233037 2.66594,9.59362 2.04638,2.553293 5.40696,2.553293 3.58588,0 5.91388,-2.797357 2.34677,-2.797357 2.34677,-8.823879 0,-6.533425 -2.57206,-9.743815 Q 198.50851,10.2722 194.8663,10.2722 Z M 244.91835,9.4836838 V 10.17833 q -0.99504,0 -1.61459,0.356709 -0.61954,0.356711 -1.18277,1.332968 -0.37549,0.657099 -1.18278,3.135294 l -7.09666,20.520212 h -0.75096 l -5.80122,-16.277241 -5.76369,16.277241 h -0.67588 l -7.566,-21.13976 q -0.84484,-2.365552 -1.07014,-2.797359 -0.37547,-0.713419 -1.03258,-1.051355 -0.63832,-0.356709 -1.74599,-0.356709 V 9.4836838 h 9.42465 V 10.17833 h -0.45058 q -0.99504,0 -1.52071,0.450581 -0.52568,0.45058 -0.52568,1.088904 0,0.657097 0.82606,3.022647 l 5.01272,14.287174 4.2242,-12.146914 -0.75098,-2.14026 -0.60076,-1.708453 q -0.39426,-0.93871 -0.88239,-1.65213 -0.24407,-0.35671 -0.60078,-0.600774 -0.46936,-0.337937 -0.9387,-0.48813 -0.35672,-0.112639 -1.12646,-0.112639 V 9.4836898 h 9.91278 v 0.6946462 h -0.67587 q -1.05135,0 -1.53948,0.450581 -0.48813,0.45058 -0.48813,1.220323 0,0.957485 0.84483,3.341809 l 4.8813,13.836593 4.84374,-14.024334 q 0.82607,-2.328003 0.82607,-3.229165 0,-0.431807 -0.28162,-0.807291 -0.26283,-0.375484 -0.67586,-0.525678 -0.71342,-0.262838 -1.85865,-0.262838 V 9.4836898 Z m 8.33575,1.3892912 v 10.062976 h 5.59472 q 2.1778,0 2.90999,-0.657097 0.97626,-0.863613 1.08891,-3.041421 h 0.69464 v 8.861427 h -0.69464 q -0.26285,-1.858647 -0.52568,-2.384326 -0.33793,-0.657097 -1.10768,-1.032581 -0.76973,-0.375485 -2.36554,-0.375485 h -5.59472 v 8.392073 q 0,1.689679 0.15016,2.065163 0.15017,0.35671 0.52567,0.582002 0.37549,0.206515 1.42685,0.206515 h 4.31807 q 2.15903,0 3.13529,-0.300387 0.97625,-0.300388 1.87743,-1.182776 1.16399,-1.164 2.38431,-3.510777 h 0.75098 l -2.19659,6.383232 h -19.61905 v -0.694646 h 0.90117 q 0.90116,0 1.70845,-0.431807 0.60076,-0.300387 0.80729,-0.901161 0.22529,-0.600775 0.22529,-2.459422 v -16.54008 q 0,-2.421873 -0.48813,-2.9851 -0.67588,-0.750967 -2.2529,-0.750967 h -0.90117 V 9.4836838 h 19.61905 l 0.28162,5.5759402 h -0.7322 q -0.39425,-2.008841 -0.88238,-2.75981 -0.46936,-0.750967 -1.40807,-1.145227 -0.75097,-0.281612 -2.64717,-0.281612 z m 41.43468,24.068538 h -6.79625 l -8.61737,-11.90285 q -0.95749,0.03756 -1.55826,0.03756 -0.24407,0 -0.52568,0 -0.28162,-0.01877 -0.582,-0.03756 v 7.397039 q 0,2.403099 0.52567,2.9851 0.71342,0.826065 2.14027,0.826065 h 0.99502 v 0.694646 h -10.90781 v -0.694646 h 0.95749 q 1.61458,0 2.30923,-1.051356 0.39426,-0.582001 0.39426,-2.759809 V 13.989493 q 0,-2.403099 -0.52569,-2.985098 -0.73219,-0.826065 -2.1778,-0.826065 h -0.95749 V 9.4836838 h 9.27446 q 4.05524,0 5.97021,0.6007742 1.93374,0.582 3.2667,2.177809 1.35175,1.577034 1.35175,3.773616 0,2.346777 -1.53949,4.074003 -1.52071,1.727228 -4.7311,2.440648 l 5.25679,7.303168 q 1.80231,2.515744 3.09773,3.341809 1.29542,0.826066 3.37936,1.051356 z M 276.60922,21.855888 q 0.35671,0 0.61954,0.01877 0.26285,0 0.43182,0 3.64219,0 5.48206,-1.577034 1.85864,-1.577033 1.85864,-4.017681 0,-2.384324 -1.50192,-3.867488 -1.48317,-1.501936 -3.9426,-1.501936 -1.08889,0 -2.94754,0.356709 z m 50.95319,-12.9542052 0.6571,8.0353622 h -0.6571 q -0.99502,-3.003874 -2.57206,-4.524585 -2.27167,-2.196583 -5.83878,-2.196583 -4.86253,0 -7.39704,3.848714 -2.12149,3.247938 -2.12149,7.734974 0,3.642197 1.40807,6.646071 1.40806,3.003874 3.67975,4.41194 2.29044,1.389291 4.69354,1.389291 1.40808,0 2.72226,-0.356711 1.31421,-0.356709 2.53453,-1.051355 v -7.35949 q 0,-1.914969 -0.30039,-2.49697 -0.28161,-0.600775 -0.90116,-0.901163 -0.60077,-0.31916 -2.14027,-0.31916 v -0.713422 h 9.85646 v 0.713422 h -0.46934 q -1.4644,0 -2.00885,0.976257 -0.37548,0.694647 -0.37548,2.741036 v 7.791297 q -2.15903,1.164 -4.26174,1.708452 -2.10272,0.544453 -4.67479,0.544453 -7.37826,0 -11.2082,-4.7311 -2.87246,-3.548326 -2.87246,-8.185557 0,-3.360584 1.6146,-6.439554 1.91495,-3.660971 5.25677,-5.632263 2.79735,-1.6333562 6.60853,-1.6333562 1.38928,0 2.51573,0.22529 1.14523,0.22529 3.22916,0.9950342 1.05137,0.394258 1.40807,0.394258 0.35671,0 0.60077,-0.319161 0.26285,-0.3379362 0.31916,-1.2954212 z m 21.75932,17.5163392 h -9.85646 l -1.72722,4.01768 q -0.63832,1.483162 -0.63832,2.215357 0,0.582 0.54444,1.032582 0.56324,0.431807 2.4031,0.563226 v 0.694646 h -8.01659 v -0.694646 q 1.59581,-0.281613 2.06517,-0.732194 0.95748,-0.901163 2.12149,-3.660971 l 8.95529,-20.9520192 h 0.65711 l 8.86141,21.1773102 q 1.07014,2.553291 1.93375,3.323035 0.88238,0.750967 2.44065,0.844839 v 0.694646 h -10.04421 v -0.694646 q 1.52071,-0.0751 2.04639,-0.506903 0.54446,-0.431807 0.54446,-1.051357 0,-0.826065 -0.75098,-2.609614 z m -0.52567,-1.389293 -4.31807,-10.288267 -4.43072,10.288267 z m 36.68479,9.912784 h -6.79625 l -8.61737,-11.90285 q -0.95748,0.03756 -1.55826,0.03756 -0.24407,0 -0.52567,0 -0.28162,-0.01877 -0.582,-0.03756 v 7.397039 q 0,2.403099 0.52567,2.9851 0.71342,0.826065 2.14026,0.826065 h 0.99503 v 0.694646 h -10.90781 v -0.694646 h 0.95748 q 1.61458,0 2.30923,-1.051356 0.39426,-0.582001 0.39426,-2.759809 V 13.989493 q 0,-2.403099 -0.52568,-2.985098 -0.73219,-0.826065 -2.17781,-0.826065 h -0.95748 V 9.4836838 h 9.27446 q 4.05523,0 5.97019,0.6007742 1.93376,0.582 3.26672,2.177809 1.35174,1.577034 1.35174,3.773616 0,2.346777 -1.53948,4.074003 -1.52071,1.727228 -4.7311,2.440648 l 5.25677,7.303168 q 1.80233,2.515744 3.09775,3.341809 1.29542,0.826066 3.37935,1.051356 z M 367.4013,21.855888 q 0.3567,0 0.61954,0.01877 0.26285,0 0.43181,0 3.64219,0 5.48207,-1.577034 1.85864,-1.577033 1.85864,-4.017681 0,-2.384324 -1.50193,-3.867488 -1.48317,-1.501936 -3.94259,-1.501936 -1.0889,0 -2.94754,0.356709 z m 18.39873,13.085625 v -0.694646 h 0.95749 q 1.61458,0 2.29044,-1.032582 0.41303,-0.619548 0.41303,-2.778583 V 13.989493 q 0,-2.384323 -0.52567,-2.985098 -0.73219,-0.826065 -2.1778,-0.826065 h -0.95749 V 9.4836838 h 10.36336 q 5.70736,0 8.67368,1.2954212 2.98511,1.295419 4.78743,4.318068 1.8211,3.022647 1.8211,6.984005 0,5.313103 -3.22917,8.880202 -3.62342,3.980133 -11.03923,3.980133 z m 7.26561,-1.839873 q 2.38433,0.525678 3.99891,0.525678 4.35562,0 7.22807,-3.060196 2.87245,-3.060196 2.87245,-8.298201 0,-5.275554 -2.87245,-8.316975 -2.87245,-3.041423 -7.37827,-3.041423 -1.68968,0 -3.84871,0.544453 z m 27.8797,-22.228665 v 10.062976 h 5.59472 q 2.1778,0 2.91,-0.657097 0.97625,-0.863613 1.08891,-3.041421 h 0.69465 v 8.861427 h -0.69465 q -0.26284,-1.858647 -0.52569,-2.384326 -0.33793,-0.657097 -1.10768,-1.032581 -0.76973,-0.375485 -2.36554,-0.375485 h -5.59472 v 8.392073 q 0,1.689679 0.15017,2.065163 0.15016,0.35671 0.52568,0.582002 0.37548,0.206515 1.42683,0.206515 h 4.31807 q 2.15903,0 3.13529,-0.300387 0.97627,-0.300388 1.87743,-1.182776 1.16399,-1.164 2.38433,-3.510777 h 0.75096 l -2.19658,6.383232 h -19.61905 v -0.694646 h 0.90116 q 0.90116,0 1.70845,-0.431807 0.60078,-0.300387 0.80729,-0.901161 0.22529,-0.600775 0.22529,-2.459422 v -16.54008 q 0,-2.421873 -0.48812,-2.9851 -0.67587,-0.750967 -2.25291,-0.750967 h -0.90116 V 9.4836838 h 19.61905 l 0.28161,5.5759402 h -0.73219 q -0.39426,-2.008841 -0.88239,-2.75981 -0.46936,-0.750967 -1.40807,-1.145227 -0.75096,-0.281612 -2.64716,-0.281612 z m 14.94428,-1.3892912 h 6.90891 L 458.36234,28.577055 V 13.895623 q 0,-2.346776 -0.52567,-2.928777 -0.69465,-0.788516 -2.19657,-0.788516 h -0.88241 V 9.4836838 h 8.86144 V 10.17833 h -0.90116 q -1.61458,0 -2.29046,0.976257 -0.41303,0.600775 -0.41303,2.741036 v 21.458922 h -0.67587 L 442.55446,14.853107 v 15.676466 q 0,2.346777 0.5069,2.928778 0.71342,0.788516 2.19659,0.788516 h 0.90116 v 0.694646 h -8.86142 v -0.694646 h 0.88239 q 1.63335,0 2.30922,-0.976259 0.41304,-0.600775 0.41304,-2.741035 v -17.70408 q -1.10768,-1.295421 -1.68969,-1.708453 -0.56323,-0.413033 -1.67089,-0.769742 -0.54446,-0.168968 -1.65214,-0.168968 z"
       id="text16"
       aria-label="FLOWER GARDEN"
       inkscape:export-filename="Title.svg"
       inkscape:export-xdpi="96"
       inkscape:export-ydpi="96" />
    <path
       style="font-size:25.4px;font-family:'Times New Roman';-inkscape-font-specification:'Times New Roman, ';fill:#ffffff;stroke:#ffffff;stroke-width:1.51376"
       d="M 140.83667,8.6593105 V 18.665964 h 4.63723 q 1.59581,0 2.328,-0.694645 0.75097,-0.71342 0.99503,-2.797359 h 0.69465 v 8.617363 h -0.69465 q -0.0188,-1.483162 -0.39426,-2.177808 -0.3567,-0.694645 -1.0138,-1.032582 -0.63832,-0.356709 -1.91497,-0.356709 h -4.63723 v 7.997813 q 0,1.933744 0.24406,2.553293 0.18774,0.469356 0.78852,0.807291 0.82606,0.450581 1.72722,0.450581 h 0.91995 v 0.694646 h -10.92659 v -0.694646 h 0.90116 q 1.57702,0 2.29044,-0.919937 0.45059,-0.600774 0.45059,-2.891228 V 11.775828 q 0,-1.9337425 -0.24406,-2.5532905 -0.18774,-0.469356 -0.76975,-0.807291 -0.80729,-0.450581 -1.72722,-0.450581 h -0.90116 V 7.2700195 H 152.533 l 0.24407,5.5947135 h -0.6571 q -0.48813,-1.783549 -1.14522,-2.609616 -0.63832,-0.8448385 -1.59581,-1.2203225 -0.93871,-0.375484 -2.92878,-0.375484 z m 35.55836,17.0282085 0.61955,0.131425 -2.17782,6.90891 h -19.71292 v -0.694646 h 0.95748 q 1.61458,0 2.30923,-1.051355 0.39426,-0.600775 0.39426,-2.778584 V 11.775828 q 0,-2.3843225 -0.52568,-2.9850975 -0.73219,-0.826065 -2.17781,-0.826065 h -0.95748 v -0.694646 h 11.52737 v 0.694646 q -2.02761,-0.01877 -2.85368,0.375483 -0.80728,0.394259 -1.10768,0.995034 -0.30039,0.600775 -0.30039,2.8724525 v 15.995628 q 0,1.558259 0.30039,2.14026 0.2253,0.394258 0.69464,0.582001 0.46936,0.187741 2.92878,0.187741 h 1.85865 q 2.92878,0 4.11156,-0.431807 1.18276,-0.431807 2.15903,-1.520711 0.97626,-1.107678 1.95252,-3.473228 z m 15.5075,-18.9995005 q 4.95638,0 8.57981,3.7736155 3.64219,3.754842 3.64219,9.387105 0,5.801231 -3.66097,9.63117 -3.66096,3.829939 -8.86142,3.829939 -5.25679,0 -8.84266,-3.736068 -3.5671,-3.736067 -3.5671,-9.668718 0,-6.06407 4.13032,-9.894009 3.58588,-3.3230345 8.57983,-3.3230345 z m -0.35672,1.370517 q -3.41691,0 -5.48206,2.5345185 -2.57207,3.154066 -2.57207,9.236912 0,6.233037 2.66594,9.59362 2.04638,2.553293 5.40696,2.553293 3.58588,0 5.91388,-2.797357 2.34677,-2.797357 2.34677,-8.823879 0,-6.533425 -2.57206,-9.743815 -2.06515,-2.5532925 -5.70736,-2.5532925 z m 50.05205,-0.788516 v 0.694646 q -0.99504,0 -1.61459,0.356709 -0.61954,0.356711 -1.18277,1.332968 -0.37549,0.6570985 -1.18278,3.1352935 l -7.09666,20.520212 h -0.75096 l -5.80122,-16.277241 -5.76369,16.277241 h -0.67588 l -7.566,-21.13976 q -0.84484,-2.3655515 -1.07014,-2.7973585 -0.37547,-0.713419 -1.03258,-1.051355 -0.63832,-0.356709 -1.74599,-0.356709 v -0.694646 h 9.42465 v 0.694646 h -0.45058 q -0.99504,0 -1.52071,0.450581 -0.52568,0.45058 -0.52568,1.088904 0,0.6570965 0.82606,3.0226465 l 5.01272,14.287174 4.2242,-12.146914 -0.75098,-2.14026 -0.60076,-1.708453 q -0.39426,-0.9387095 -0.88239,-1.6521295 -0.24407,-0.35671 -0.60078,-0.600774 -0.46936,-0.337937 -0.9387,-0.48813 -0.35672,-0.112639 -1.12646,-0.112639 v -0.694646 h 9.91278 v 0.694646 h -0.67587 q -1.05135,0 -1.53948,0.450581 -0.48813,0.45058 -0.48813,1.220323 0,0.9574845 0.84483,3.3418085 l 4.8813,13.836593 4.84374,-14.024334 q 0.82607,-2.328003 0.82607,-3.2291645 0,-0.431807 -0.28162,-0.807291 -0.26283,-0.375484 -0.67586,-0.525678 -0.71342,-0.262838 -1.85865,-0.262838 v -0.694646 z m 8.33575,1.389291 V 18.722286 h 5.59472 q 2.1778,0 2.90999,-0.657097 0.97626,-0.863613 1.08891,-3.041421 h 0.69464 v 8.861427 h -0.69464 q -0.26285,-1.858647 -0.52568,-2.384326 -0.33793,-0.657097 -1.10768,-1.032581 -0.76973,-0.375485 -2.36554,-0.375485 h -5.59472 v 8.392073 q 0,1.689679 0.15016,2.065163 0.15017,0.35671 0.52567,0.582002 0.37549,0.206515 1.42685,0.206515 h 4.31807 q 2.15903,0 3.13529,-0.300387 0.97625,-0.300388 1.87743,-1.182776 1.16399,-1.164 2.38431,-3.510777 h 0.75098 l -2.19659,6.383232 h -19.61905 v -0.694646 h 0.90117 q 0.90116,0 1.70845,-0.431807 0.60076,-0.300387 0.80729,-0.901161 0.22529,-0.600775 0.22529,-2.459422 v -16.54008 q 0,-2.4218725 -0.48813,-2.9850995 -0.67588,-0.750967 -2.2529,-0.750967 h -0.90117 v -0.694646 h 19.61905 l 0.28162,5.5759395 h -0.7322 q -0.39425,-2.008841 -0.88238,-2.75981 -0.46936,-0.7509665 -1.40807,-1.1452265 -0.75097,-0.281612 -2.64717,-0.281612 z m 41.43468,24.0685375 h -6.79625 l -8.61737,-11.90285 q -0.95749,0.03756 -1.55826,0.03756 -0.24407,0 -0.52568,0 -0.28162,-0.01877 -0.582,-0.03756 v 7.397039 q 0,2.403099 0.52567,2.9851 0.71342,0.826065 2.14027,0.826065 h 0.99502 v 0.694646 h -10.90781 v -0.694646 h 0.95749 q 1.61458,0 2.30923,-1.051356 0.39426,-0.582001 0.39426,-2.759809 V 11.775828 q 0,-2.4030985 -0.52569,-2.9850975 -0.73219,-0.826065 -2.1778,-0.826065 h -0.95749 v -0.694646 h 9.27446 q 4.05524,0 5.97021,0.600774 1.93374,0.582 3.2667,2.1778085 1.35175,1.577034 1.35175,3.773616 0,2.346777 -1.53949,4.074003 -1.52071,1.727228 -4.7311,2.440648 l 5.25679,7.303168 q 1.80231,2.515744 3.09773,3.341809 1.29542,0.826066 3.37936,1.051356 z M 273.28873,19.642223 q 0.35671,0 0.61954,0.01877 0.26285,0 0.43182,0 3.64219,0 5.48206,-1.577034 1.85864,-1.577033 1.85864,-4.017681 0,-2.384324 -1.50192,-3.867488 -1.48317,-1.5019355 -3.9426,-1.5019355 -1.08889,0 -2.94754,0.356709 z m 50.95319,-12.9542045 0.6571,8.0353615 h -0.6571 q -0.99502,-3.003874 -2.57206,-4.524585 -2.27167,-2.1965825 -5.83878,-2.1965825 -4.86253,0 -7.39704,3.8487135 -2.12149,3.247938 -2.12149,7.734974 0,3.642197 1.40807,6.646071 1.40806,3.003874 3.67975,4.41194 2.29044,1.389291 4.69354,1.389291 1.40808,0 2.72226,-0.356711 1.31421,-0.356709 2.53453,-1.051355 v -7.35949 q 0,-1.914969 -0.30039,-2.49697 -0.28161,-0.600775 -0.90116,-0.901163 -0.60077,-0.31916 -2.14027,-0.31916 v -0.713422 h 9.85646 v 0.713422 H 327.396 q -1.4644,0 -2.00885,0.976257 -0.37548,0.694647 -0.37548,2.741036 v 7.791297 q -2.15903,1.164 -4.26174,1.708452 -2.10272,0.544453 -4.67479,0.544453 -7.37826,0 -11.2082,-4.7311 -2.87246,-3.548326 -2.87246,-8.185557 0,-3.360584 1.6146,-6.439554 1.91495,-3.660971 5.25677,-5.6322625 2.79735,-1.633356 6.60853,-1.633356 1.38928,0 2.51573,0.22529 1.14523,0.22529 3.22916,0.995034 1.05137,0.394258 1.40807,0.394258 0.35671,0 0.60077,-0.319161 0.26285,-0.337936 0.31916,-1.295421 z m 21.75932,17.5163385 h -9.85646 l -1.72722,4.01768 q -0.63832,1.483162 -0.63832,2.215357 0,0.582 0.54444,1.032582 0.56324,0.431807 2.4031,0.563226 v 0.694646 h -8.01659 v -0.694646 q 1.59581,-0.281613 2.06517,-0.732194 0.95748,-0.901163 2.12149,-3.660971 l 8.95529,-20.9520185 h 0.65711 l 8.86141,21.1773095 q 1.07014,2.553291 1.93375,3.323035 0.88238,0.750967 2.44065,0.844839 v 0.694646 h -10.04421 v -0.694646 q 1.52071,-0.0751 2.04639,-0.506903 0.54446,-0.431807 0.54446,-1.051357 0,-0.826065 -0.75098,-2.609614 z m -0.52567,-1.389293 -4.31807,-10.288267 -4.43072,10.288267 z m 36.68479,9.912784 h -6.79625 l -8.61737,-11.90285 q -0.95748,0.03756 -1.55826,0.03756 -0.24407,0 -0.52567,0 -0.28162,-0.01877 -0.582,-0.03756 v 7.397039 q 0,2.403099 0.52567,2.9851 0.71342,0.826065 2.14026,0.826065 h 0.99503 v 0.694646 h -10.90781 v -0.694646 h 0.95748 q 1.61458,0 2.30923,-1.051356 0.39426,-0.582001 0.39426,-2.759809 V 11.775828 q 0,-2.4030985 -0.52568,-2.9850975 -0.73219,-0.826065 -2.17781,-0.826065 h -0.95748 v -0.694646 h 9.27446 q 4.05523,0 5.97019,0.600774 1.93376,0.582 3.26672,2.1778085 1.35174,1.577034 1.35174,3.773616 0,2.346777 -1.53948,4.074003 -1.52071,1.727228 -4.7311,2.440648 l 5.25677,7.303168 q 1.80233,2.515744 3.09775,3.341809 1.29542,0.826066 3.37935,1.051356 z M 364.08081,19.642223 q 0.3567,0 0.61954,0.01877 0.26285,0 0.43181,0 3.64219,0 5.48207,-1.577034 1.85864,-1.577033 1.85864,-4.017681 0,-2.384324 -1.50193,-3.867488 -1.48317,-1.5019355 -3.94259,-1.5019355 -1.0889,0 -2.94754,0.356709 z m 18.39873,13.085625 v -0.694646 h 0.95749 q 1.61458,0 2.29044,-1.032582 0.41303,-0.619548 0.41303,-2.778583 V 11.775828 q 0,-2.3843225 -0.52567,-2.9850975 -0.73219,-0.826065 -2.1778,-0.826065 h -0.95749 v -0.694646 h 10.36336 q 5.70736,0 8.67368,1.295421 2.98511,1.295419 4.78743,4.3180675 1.8211,3.022647 1.8211,6.984005 0,5.313103 -3.22917,8.880202 -3.62342,3.980133 -11.03923,3.980133 z m 7.26561,-1.839873 q 2.38433,0.525678 3.99891,0.525678 4.35562,0 7.22807,-3.060196 2.87245,-3.060196 2.87245,-8.298201 0,-5.275554 -2.87245,-8.316975 -2.87245,-3.0414225 -7.37827,-3.0414225 -1.68968,0 -3.84871,0.544453 z M 417.62485,8.6593105 V 18.722286 h 5.59472 q 2.1778,0 2.91,-0.657097 0.97625,-0.863613 1.08891,-3.041421 h 0.69465 v 8.861427 h -0.69465 q -0.26284,-1.858647 -0.52569,-2.384326 -0.33793,-0.657097 -1.10768,-1.032581 -0.76973,-0.375485 -2.36554,-0.375485 h -5.59472 v 8.392073 q 0,1.689679 0.15017,2.065163 0.15016,0.35671 0.52568,0.582002 0.37548,0.206515 1.42683,0.206515 h 4.31807 q 2.15903,0 3.13529,-0.300387 0.97627,-0.300388 1.87743,-1.182776 1.16399,-1.164 2.38433,-3.510777 h 0.75096 l -2.19658,6.383232 h -19.61905 v -0.694646 h 0.90116 q 0.90116,0 1.70845,-0.431807 0.60078,-0.300387 0.80729,-0.901161 0.22529,-0.600775 0.22529,-2.459422 v -16.54008 q 0,-2.4218725 -0.48812,-2.9850995 -0.67587,-0.750967 -2.25291,-0.750967 h -0.90116 v -0.694646 h 19.61905 l 0.28161,5.5759395 h -0.73219 q -0.39426,-2.008841 -0.88239,-2.75981 -0.46936,-0.7509665 -1.40807,-1.1452265 -0.75096,-0.281612 -2.64716,-0.281612 z m 14.94428,-1.389291 h 6.90891 L 455.04185,26.36339 V 11.681958 q 0,-2.3467755 -0.52567,-2.9287765 -0.69465,-0.788516 -2.19657,-0.788516 h -0.88241 v -0.694646 h 8.86144 v 0.694646 h -0.90116 q -1.61458,0 -2.29046,0.976257 -0.41303,0.600775 -0.41303,2.7410355 V 33.14088 h -0.67587 L 439.23397,12.639442 v 15.676466 q 0,2.346777 0.5069,2.928778 0.71342,0.788516 2.19659,0.788516 h 0.90116 v 0.694646 h -8.86142 v -0.694646 h 0.88239 q 1.63335,0 2.30922,-0.976259 0.41304,-0.600775 0.41304,-2.741035 v -17.70408 q -1.10768,-1.2954205 -1.68969,-1.7084525 -0.56323,-0.413033 -1.67089,-0.769742 -0.54446,-0.168968 -1.65214,-0.168968 z"
       id="path23"
       aria-label="FLOWER GARDEN"
       inkscape:export-filename="Title.svg"
       inkscape:export-xdpi="96"
       inkscape:export-ydpi="96" />
    <path
       style="font-size:25.4px;font-family:'Times New Roman';-inkscape-font-specification:'Times New Roman, ';fill:#90bfa2;stroke:#90bfa2;stroke-width:1.51376"
       d="M 139.72984,8.2903664 V 18.29702 h 4.63723 q 1.59581,0 2.328,-0.694645 0.75097,-0.71342 0.99503,-2.797359 h 0.69465 v 8.617363 h -0.69465 q -0.0188,-1.483162 -0.39426,-2.177808 -0.3567,-0.694645 -1.0138,-1.032582 -0.63832,-0.356709 -1.91497,-0.356709 h -4.63723 v 7.997813 q 0,1.933744 0.24406,2.553293 0.18774,0.469356 0.78852,0.807291 0.82606,0.450581 1.72722,0.450581 h 0.91995 v 0.694646 H 132.483 v -0.694646 h 0.90116 q 1.57702,0 2.29044,-0.919937 0.45059,-0.600774 0.45059,-2.891228 V 11.406884 q 0,-1.9337426 -0.24406,-2.5532906 -0.18774,-0.469356 -0.76975,-0.807291 -0.80729,-0.450581 -1.72722,-0.450581 H 132.483 v -0.694646 h 18.94317 l 0.24407,5.5947136 h -0.6571 q -0.48813,-1.783549 -1.14522,-2.6096161 -0.63832,-0.8448385 -1.59581,-1.2203225 -0.93871,-0.375484 -2.92878,-0.375484 z m 35.55836,17.0282086 0.61955,0.131425 -2.17782,6.90891 h -19.71292 v -0.694646 h 0.95748 q 1.61458,0 2.30923,-1.051355 0.39426,-0.600775 0.39426,-2.778584 V 11.406884 q 0,-2.3843226 -0.52568,-2.9850976 -0.73219,-0.826065 -2.17781,-0.826065 h -0.95748 v -0.694646 h 11.52737 v 0.694646 q -2.02761,-0.01877 -2.85368,0.375483 -0.80728,0.394259 -1.10768,0.995034 -0.30039,0.600775 -0.30039,2.8724526 v 15.995628 q 0,1.558259 0.30039,2.14026 0.2253,0.394258 0.69464,0.582001 0.46936,0.187741 2.92878,0.187741 h 1.85865 q 2.92878,0 4.11156,-0.431807 1.18276,-0.431807 2.15903,-1.520711 0.97626,-1.107678 1.95252,-3.473228 z M 190.7957,6.3190744 q 4.95638,0 8.57981,3.7736156 3.64219,3.754842 3.64219,9.387105 0,5.801231 -3.66097,9.63117 -3.66096,3.829939 -8.86142,3.829939 -5.25679,0 -8.84266,-3.736068 -3.5671,-3.736067 -3.5671,-9.668718 0,-6.06407 4.13032,-9.8940091 3.58588,-3.3230345 8.57983,-3.3230345 z m -0.35672,1.370517 q -3.41691,0 -5.48206,2.5345186 -2.57207,3.154066 -2.57207,9.236912 0,6.233037 2.66594,9.59362 2.04638,2.553293 5.40696,2.553293 3.58588,0 5.91388,-2.797357 2.34677,-2.797357 2.34677,-8.823879 0,-6.533425 -2.57206,-9.743815 -2.06515,-2.5532926 -5.70736,-2.5532926 z m 50.05205,-0.788516 v 0.694646 q -0.99504,0 -1.61459,0.356709 -0.61954,0.356711 -1.18277,1.332968 -0.37549,0.6570985 -1.18278,3.1352936 l -7.09666,20.520212 h -0.75096 l -5.80122,-16.277241 -5.76369,16.277241 h -0.67588 l -7.566,-21.13976 q -0.84484,-2.3655516 -1.07014,-2.7973586 -0.37547,-0.713419 -1.03258,-1.051355 -0.63832,-0.356709 -1.74599,-0.356709 v -0.694646 h 9.42465 v 0.694646 h -0.45058 q -0.99504,0 -1.52071,0.450581 -0.52568,0.45058 -0.52568,1.088904 0,0.6570965 0.82606,3.0226466 l 5.01272,14.287174 4.2242,-12.146914 -0.75098,-2.14026 -0.60076,-1.708453 q -0.39426,-0.9387096 -0.88239,-1.6521296 -0.24407,-0.35671 -0.60078,-0.600774 -0.46936,-0.337937 -0.9387,-0.48813 -0.35672,-0.112639 -1.12646,-0.112639 v -0.694646 h 9.91278 v 0.694646 h -0.67587 q -1.05135,0 -1.53948,0.450581 -0.48813,0.45058 -0.48813,1.220323 0,0.9574846 0.84483,3.3418086 l 4.8813,13.836593 4.84374,-14.024334 q 0.82607,-2.328003 0.82607,-3.2291646 0,-0.431807 -0.28162,-0.807291 -0.26283,-0.375484 -0.67586,-0.525678 -0.71342,-0.262838 -1.85865,-0.262838 v -0.694646 z m 8.33575,1.389291 V 18.353342 h 5.59472 q 2.1778,0 2.90999,-0.657097 0.97626,-0.863613 1.08891,-3.041421 h 0.69464 v 8.861427 h -0.69464 q -0.26285,-1.858647 -0.52568,-2.384326 -0.33793,-0.657097 -1.10768,-1.032581 -0.76973,-0.375485 -2.36554,-0.375485 h -5.59472 v 8.392073 q 0,1.689679 0.15016,2.065163 0.15017,0.35671 0.52567,0.582002 0.37549,0.206515 1.42685,0.206515 h 4.31807 q 2.15903,0 3.13529,-0.300387 0.97625,-0.300388 1.87743,-1.182776 1.16399,-1.164 2.38431,-3.510777 h 0.75098 l -2.19659,6.383232 H 241.5799 v -0.694646 h 0.90117 q 0.90116,0 1.70845,-0.431807 0.60076,-0.300387 0.80729,-0.901161 0.22529,-0.600775 0.22529,-2.459422 v -16.54008 q 0,-2.4218726 -0.48813,-2.9850996 -0.67588,-0.750967 -2.2529,-0.750967 h -0.90117 v -0.694646 h 19.61905 l 0.28162,5.5759396 h -0.7322 q -0.39425,-2.008841 -0.88238,-2.7598101 -0.46936,-0.7509665 -1.40807,-1.1452265 -0.75097,-0.281612 -2.64717,-0.281612 z m 41.43468,24.0685376 h -6.79625 l -8.61737,-11.90285 q -0.95749,0.03756 -1.55826,0.03756 -0.24407,0 -0.52568,0 -0.28162,-0.01877 -0.582,-0.03756 v 7.397039 q 0,2.403099 0.52567,2.9851 0.71342,0.826065 2.14027,0.826065 h 0.99502 v 0.694646 h -10.90781 v -0.694646 h 0.95749 q 1.61458,0 2.30923,-1.051356 0.39426,-0.582001 0.39426,-2.759809 V 11.406884 q 0,-2.4030986 -0.52569,-2.9850976 -0.73219,-0.826065 -2.1778,-0.826065 h -0.95749 v -0.694646 h 9.27446 q 4.05524,0 5.97021,0.600774 1.93374,0.582 3.2667,2.1778085 1.35175,1.5770341 1.35175,3.7736161 0,2.346777 -1.53949,4.074003 -1.52071,1.727228 -4.7311,2.440648 l 5.25679,7.303168 q 1.80231,2.515744 3.09773,3.341809 1.29542,0.826066 3.37936,1.051356 z M 272.1819,19.273279 q 0.35671,0 0.61954,0.01877 0.26285,0 0.43182,0 3.64219,0 5.48206,-1.577034 1.85864,-1.577033 1.85864,-4.017681 0,-2.384324 -1.50192,-3.8674881 -1.48317,-1.5019355 -3.9426,-1.5019355 -1.08889,0 -2.94754,0.356709 z m 50.95319,-12.9542046 0.6571,8.0353616 h -0.6571 q -0.99502,-3.003874 -2.57206,-4.5245851 -2.27167,-2.1965825 -5.83878,-2.1965825 -4.86253,0 -7.39704,3.8487136 -2.12149,3.247938 -2.12149,7.734974 0,3.642197 1.40807,6.646071 1.40806,3.003874 3.67975,4.41194 2.29044,1.389291 4.69354,1.389291 1.40808,0 2.72226,-0.356711 1.31421,-0.356709 2.53453,-1.051355 v -7.35949 q 0,-1.914969 -0.30039,-2.49697 -0.28161,-0.600775 -0.90116,-0.901163 -0.60077,-0.31916 -2.14027,-0.31916 v -0.713422 h 9.85646 v 0.713422 h -0.46934 q -1.4644,0 -2.00885,0.976257 -0.37548,0.694647 -0.37548,2.741036 v 7.791297 q -2.15903,1.164 -4.26174,1.708452 -2.10272,0.544453 -4.67479,0.544453 -7.37826,0 -11.2082,-4.7311 -2.87246,-3.548326 -2.87246,-8.185557 0,-3.360584 1.6146,-6.439554 1.91495,-3.6609711 5.25677,-5.6322626 2.79735,-1.633356 6.60853,-1.633356 1.38928,0 2.51573,0.22529 1.14523,0.22529 3.22916,0.995034 1.05137,0.394258 1.40807,0.394258 0.35671,0 0.60077,-0.319161 0.26285,-0.337936 0.31916,-1.295421 z m 21.75932,17.5163386 h -9.85646 l -1.72722,4.01768 q -0.63832,1.483162 -0.63832,2.215357 0,0.582 0.54444,1.032582 0.56324,0.431807 2.4031,0.563226 v 0.694646 h -8.01659 v -0.694646 q 1.59581,-0.281613 2.06517,-0.732194 0.95748,-0.901163 2.12149,-3.660971 l 8.95529,-20.9520186 h 0.65711 l 8.86141,21.1773096 q 1.07014,2.553291 1.93375,3.323035 0.88238,0.750967 2.44065,0.844839 v 0.694646 h -10.04421 v -0.694646 q 1.52071,-0.0751 2.04639,-0.506903 0.54446,-0.431807 0.54446,-1.051357 0,-0.826065 -0.75098,-2.609614 z m -0.52567,-1.389293 -4.31807,-10.288267 -4.43072,10.288267 z m 36.68479,9.912784 h -6.79625 l -8.61737,-11.90285 q -0.95748,0.03756 -1.55826,0.03756 -0.24407,0 -0.52567,0 -0.28162,-0.01877 -0.582,-0.03756 v 7.397039 q 0,2.403099 0.52567,2.9851 0.71342,0.826065 2.14026,0.826065 h 0.99503 v 0.694646 h -10.90781 v -0.694646 h 0.95748 q 1.61458,0 2.30923,-1.051356 0.39426,-0.582001 0.39426,-2.759809 V 11.406884 q 0,-2.4030986 -0.52568,-2.9850976 -0.73219,-0.826065 -2.17781,-0.826065 h -0.95748 v -0.694646 h 9.27446 q 4.05523,0 5.97019,0.600774 1.93376,0.582 3.26672,2.1778085 1.35174,1.5770341 1.35174,3.7736161 0,2.346777 -1.53948,4.074003 -1.52071,1.727228 -4.7311,2.440648 l 5.25677,7.303168 q 1.80233,2.515744 3.09775,3.341809 1.29542,0.826066 3.37935,1.051356 z M 362.97398,19.273279 q 0.3567,0 0.61954,0.01877 0.26285,0 0.43181,0 3.64219,0 5.48207,-1.577034 1.85864,-1.577033 1.85864,-4.017681 0,-2.384324 -1.50193,-3.8674881 -1.48317,-1.5019355 -3.94259,-1.5019355 -1.0889,0 -2.94754,0.356709 z m 18.39873,13.085625 v -0.694646 h 0.95749 q 1.61458,0 2.29044,-1.032582 0.41303,-0.619548 0.41303,-2.778583 V 11.406884 q 0,-2.3843226 -0.52567,-2.9850976 -0.73219,-0.826065 -2.1778,-0.826065 h -0.95749 v -0.694646 h 10.36336 q 5.70736,0 8.67368,1.295421 2.98511,1.295419 4.78743,4.3180676 1.8211,3.022647 1.8211,6.984005 0,5.313103 -3.22917,8.880202 -3.62342,3.980133 -11.03923,3.980133 z m 7.26561,-1.839873 q 2.38433,0.525678 3.99891,0.525678 4.35562,0 7.22807,-3.060196 2.87245,-3.060196 2.87245,-8.298201 0,-5.275554 -2.87245,-8.316975 -2.87245,-3.0414226 -7.37827,-3.0414226 -1.68968,0 -3.84871,0.544453 z M 416.51802,8.2903664 V 18.353342 h 5.59472 q 2.1778,0 2.91,-0.657097 0.97625,-0.863613 1.08891,-3.041421 h 0.69465 v 8.861427 h -0.69465 q -0.26284,-1.858647 -0.52569,-2.384326 -0.33793,-0.657097 -1.10768,-1.032581 -0.76973,-0.375485 -2.36554,-0.375485 h -5.59472 v 8.392073 q 0,1.689679 0.15017,2.065163 0.15016,0.35671 0.52568,0.582002 0.37548,0.206515 1.42683,0.206515 h 4.31807 q 2.15903,0 3.13529,-0.300387 0.97627,-0.300388 1.87743,-1.182776 1.16399,-1.164 2.38433,-3.510777 h 0.75096 l -2.19658,6.383232 h -19.61905 v -0.694646 h 0.90116 q 0.90116,0 1.70845,-0.431807 0.60078,-0.300387 0.80729,-0.901161 0.22529,-0.600775 0.22529,-2.459422 v -16.54008 q 0,-2.4218726 -0.48812,-2.9850996 -0.67587,-0.750967 -2.25291,-0.750967 h -0.90116 v -0.694646 h 19.61905 l 0.28161,5.5759396 h -0.73219 q -0.39426,-2.008841 -0.88239,-2.7598101 -0.46936,-0.7509665 -1.40807,-1.1452265 -0.75096,-0.281612 -2.64716,-0.281612 z m 14.94428,-1.389291 h 6.90891 L 453.93502,25.994446 V 11.313014 q 0,-2.3467756 -0.52567,-2.9287766 -0.69465,-0.788516 -2.19657,-0.788516 h -0.88241 v -0.694646 h 8.86144 v 0.694646 h -0.90116 q -1.61458,0 -2.29046,0.976257 -0.41303,0.600775 -0.41303,2.7410356 v 21.458922 h -0.67587 L 438.12714,12.270498 v 15.676466 q 0,2.346777 0.5069,2.928778 0.71342,0.788516 2.19659,0.788516 h 0.90116 v 0.694646 h -8.86142 v -0.694646 h 0.88239 q 1.63335,0 2.30922,-0.976259 0.41304,-0.600775 0.41304,-2.741035 v -17.70408 q -1.10768,-1.2954206 -1.68969,-1.7084526 -0.56323,-0.413033 -1.67089,-0.769742 -0.54446,-0.168968 -1.65214,-0.168968 z"
       id="path24"
       aria-label="FLOWER GARDEN"
       inkscape:export-filename="Title.svg"
       inkscape:export-xdpi="96"
       inkscape:export-ydpi="96" />
  </g>
</svg>
