<?xml version="1.0" encoding="UTF-8" standalone="no"?>
<!-- Created with Inkscape (http://www.inkscape.org/) -->

<svg
   width="56.768574"
   height="56.768574"
   viewBox="0 0 15.020018 15.020018"
   version="1.1"
   id="svg1"
   xml:space="preserve"
   xmlns:inkscape="http://www.inkscape.org/namespaces/inkscape"
   xmlns:sodipodi="http://sodipodi.sourceforge.net/DTD/sodipodi-0.dtd"
   xmlns="http://www.w3.org/2000/svg"
   xmlns:svg="http://www.w3.org/2000/svg"><sodipodi:namedview
     id="namedview1"
     pagecolor="#ffffff"
     bordercolor="#000000"
     borderopacity="0.25"
     inkscape:showpageshadow="2"
     inkscape:pageopacity="0.0"
     inkscape:pagecheckerboard="0"
     inkscape:deskcolor="#d1d1d1"
     inkscape:document-units="mm"
     showgrid="true"><inkscape:grid
       id="grid1"
       units="mm"
       originx="47.534892"
       originy="0.075891552"
       spacingx="16"
       spacingy="16"
       empcolor="#0099e5"
       empopacity="0.30196078"
       color="#0099e5"
       opacity="0.14901961"
       empspacing="5"
       dotted="false"
       gridanglex="30"
       gridanglez="30"
       visible="true" /></sodipodi:namedview><defs
     id="defs1"><inkscape:path-effect
       effect="bspline"
       id="path-effect5"
       is_visible="true"
       lpeversion="1.3"
       weight="33.333333"
       steps="2"
       helper_size="0"
       apply_no_weight="true"
       apply_with_weight="true"
       only_selected="false"
       uniform="false" /></defs><g
     inkscape:label="Layer 1"
     inkscape:groupmode="layer"
     id="layer1"
     transform="translate(47.534894,0.07589155)"><rect
       style="fill:#6e9202;fill-opacity:0;stroke:none;stroke-width:0.97998"
       id="rect9"
       width="15.02002"
       height="15.02002"
       x="-47.534893"
       y="-0.075891554"
       inkscape:export-filename="CutIcon.svg"
       inkscape:export-xdpi="185.29192"
       inkscape:export-ydpi="185.29192" /><g
       id="g9"
       transform="matrix(0.76969421,0.44438316,-0.44438316,0.76969421,-5.2161518,19.547553)"><path
         style="opacity:1;fill:#f6f6f8;fill-opacity:1;stroke:#6c6981;stroke-width:0.2;stroke-dasharray:none;stroke-opacity:1"
         d="m -45.654502,11.207093 c -0.608727,-0.771778 -1.674,-2.4022964 -2.174024,-3.8915161 -0.500025,-1.4892196 -0.434806,-2.8370877 0.04349,-3.8154046 0.478294,-0.978317 1.369625,-1.5870311 2.130541,-1.9131352 0.760915,-0.3261041 1.391369,-0.3695837 2.065323,-0.3695833 0.673955,4e-7 1.391368,0.04348 2.097933,0.3913304 0.706564,0.3478503 1.402238,1.0000446 1.815303,1.6848694 0.413066,0.6848247 0.543505,1.4022384 0.586985,1.913137 0.04348,0.5108985 2e-6,0.8152557 -0.239145,1.0435298 -0.239147,0.2282742 -0.673944,0.3804531 -0.879242,0.084485 -0.205298,-0.2959681 -0.181092,-1.0400401 -0.321173,-1.7055977 -0.140082,-0.6655577 -0.444433,-1.2525205 -1.043535,-1.5991378 -0.599102,-0.3466173 -1.492883,-0.4528474 -2.298521,-0.43951 -0.805637,0.013337 -1.523052,0.1462433 -2.033951,0.332271 -0.510898,0.1860277 -0.815256,0.4251659 -1.021789,0.8273659 -0.206533,0.4021999 -0.315232,0.967435 -0.29349,1.5544274 0.02174,0.5869925 0.173921,1.1957076 0.510899,1.8479217 0.336979,0.652214 0.858734,1.3478883 1.21745,1.891398 0.358716,0.5435097 0.554374,0.9348262 0.706557,1.2391911 0.152183,0.304366 0.260881,0.521764 0.26088,0.760909 0,0.239144 -0.108699,0.500023 -0.239141,0.673945 -0.130443,0.173923 -0.282622,0.260883 -0.891349,-0.510896 z"
         id="path5"
         inkscape:path-effect="#path-effect5"
         inkscape:original-d="m -45.197958,12.065833 c -1.065271,-1.630518 -2.130544,-3.2610361 -3.195815,-4.8915541 0.06522,-1.3479217 0.130443,-2.6957896 0.195662,-4.0436845 0.891368,-0.6087388 1.782699,-1.2174534 2.674049,-1.82618 0.630481,-0.043481 1.260935,-0.086961 1.891403,-0.1304415 0.717441,0.043481 1.434854,0.086961 2.152282,0.1304415 0.695701,0.6522202 1.391375,1.3044143 2.087062,1.9566214 0.130445,0.7174423 0.260885,1.4348558 0.391324,2.1522838 -0.04348,0.3043696 -0.08696,0.6087266 -0.130439,0.9130901 -0.434814,0.1521846 -0.869611,0.3043634 -1.304414,0.4565449 0.02421,-0.7441172 0.04841,-1.4881894 0.07262,-2.2323062 -0.30437,-0.5869981 -0.608721,-1.173961 -0.91309,-1.7609593 -0.893835,-0.1062364 -1.787616,-0.2124665 -2.681449,-0.3187028 -0.717442,0.132911 -1.434857,0.2658169 -2.152285,0.3987252 -0.304369,0.2391474 -0.608727,0.4782855 -0.913091,0.7174281 -0.108701,0.5652574 -0.2174,1.1304923 -0.326101,1.6957386 0.152183,0.6087388 0.304363,1.2174535 0.456544,1.8261801 0.521776,0.6957015 1.043532,1.3913752 1.565296,2.0870629 0.195667,0.3913323 0.391326,0.7826486 0.586988,1.1739728 0.108702,0.217407 0.217401,0.434805 0.326102,0.652207 -0.108701,0.260888 -0.2174,0.521766 -0.326102,0.782649 -0.152185,0.08696 -0.304363,0.173922 -0.456546,0.260883 z"
         transform="translate(0.65220719,0.19566216)"
         sodipodi:nodetypes="ccccccccccccccccccsccc" /><path
         style="opacity:1;fill:#f6f6f8;fill-opacity:1;stroke:#6a6780;stroke-width:0.2;stroke-dasharray:none;stroke-opacity:0.94902"
         d="m -45.067517,6.0655269 c 0.417539,1.5582733 -0.652206,8.6091341 0,8.6091341 0.652208,0 7.043838,0 7.043838,0 V 5.804644 Z"
         id="path1" /><path
         style="opacity:1;fill:#f6f6f8;fill-opacity:1;stroke:#6c6981;stroke-width:0.2;stroke-dasharray:none;stroke-opacity:1"
         d="m -38.324067,7.701708 0.138353,2.398137 0.368943,0.09224 0.461182,-2.5364909 -0.599535,-0.4150622 z"
         id="path6" /><path
         style="opacity:1;fill:#f6f6f8;fill-opacity:1;stroke:#6c6981;stroke-width:0.2;stroke-dasharray:none;stroke-opacity:1"
         d="m -37.862888,10.007609 4.335092,-0.092237 c 0,0 0.230592,-1.2451863 0.04612,-1.2451863 -0.184473,0 -4.012269,-1.1068323 -4.012269,-1.1068323 z"
         id="path7" /><path
         style="opacity:1;fill:#f6f6f8;fill-opacity:1;stroke:#6c6981;stroke-width:0.2;stroke-dasharray:none;stroke-opacity:1"
         d="m -33.573913,8.5779503 -0.322826,1.3374222 0.184473,0.6917705 0.784005,-0.8301246 c 0,0 0.507299,-0.876242 0.507299,-1.1529502 0,-0.2767081 -0.04612,-0.9684781 -0.04612,-0.9684781 h -0.830123 z"
         id="path8" /><path
         style="opacity:1;fill:#838195;fill-opacity:1;stroke:#838195;stroke-width:0.2;stroke-dasharray:none;stroke-opacity:1"
         d="m -42.843632,6.3642856 c -0.276709,0.092236 -0.184473,0 -0.691772,0.092236 -0.507299,0.092236 -0.968478,0.7378882 -0.968478,0.7378882 0,0 -0.368943,0.5995342 0.23059,0.737888 0.599535,0.1383541 1.42966,0.1383541 1.84472,-0.092236 0.415062,-0.2305902 1.291307,-0.8762423 1.291307,-0.8762423 0,0 0.691769,-0.4150622 0.138353,-0.4150622 -0.553416,0 -1.84472,-0.184472 -1.84472,-0.1844717 z"
         id="path9" /></g></g></svg>
