<?xml version="1.0" encoding="UTF-8" standalone="no"?>
<!-- Created with Inkscape (http://www.inkscape.org/) -->

<svg
   width="293.66626"
   height="280.27759"
   viewBox="0 0 77.699196 74.156778"
   version="1.1"
   id="svg1"
   inkscape:version="1.3.2 (091e20e, 2023-11-25, custom)"
   sodipodi:docname="TestSceneGame.svg"
   xmlns:inkscape="http://www.inkscape.org/namespaces/inkscape"
   xmlns:sodipodi="http://sodipodi.sourceforge.net/DTD/sodipodi-0.dtd"
   xmlns="http://www.w3.org/2000/svg"
   xmlns:svg="http://www.w3.org/2000/svg">
  <sodipodi:namedview
     id="namedview1"
     pagecolor="#ffffff"
     bordercolor="#000000"
     borderopacity="0.25"
     inkscape:showpageshadow="2"
     inkscape:pageopacity="0.0"
     inkscape:pagecheckerboard="0"
     inkscape:deskcolor="#d1d1d1"
     inkscape:document-units="mm"
     inkscape:zoom="0.35856832"
     inkscape:cx="548.01272"
     inkscape:cy="835.2662"
     inkscape:window-width="1920"
     inkscape:window-height="1001"
     inkscape:window-x="-7"
     inkscape:window-y="-7"
     inkscape:window-maximized="1"
     inkscape:current-layer="layer1" />
  <defs
     id="defs1" />
  <g
     inkscape:label="Layer 1"
     inkscape:groupmode="layer"
     id="layer1"
     transform="translate(-23.318257,-179.80772)">
    <path
       id="rect3"
       style="fill:#ba824a;stroke:#a46935"
       d="m 36.601456,180.30773 c -7.081919,0 -12.783199,5.70127 -12.783199,12.7832 0,6.54797 4.877387,11.9056 11.210168,12.67778 -0.589927,1.47329 -0.922424,3.07976 -0.922424,4.7687 v 30.14389 c 0,7.08192 5.701797,12.7832 12.783717,12.7832 h 30.1439 c 7.08191,0 12.78319,-5.70128 12.78319,-12.7832 v -30.14389 c 0,-1.67148 -0.3275,-3.26134 -0.90588,-4.72219 6.52562,-0.59092 11.606522,-6.03964 11.606522,-12.72429 0,-7.08193 -5.701282,-12.7832 -12.783202,-12.7832 z" />
    <rect
       style="fill:#63342f;fill-opacity:1;stroke:#a46935;stroke-width:0.811316"
       id="rect4"
       width="48.297489"
       height="8.3054543"
       x="38.019108"
       y="180.29506"
       ry="4.1527271" />
  </g>
</svg>
