<?xml version="1.0" encoding="UTF-8" standalone="no"?>
<!-- Created with Inkscape (http://www.inkscape.org/) -->

<svg
   width="1920"
   height="1080"
   viewBox="0 0 507.99999 285.75"
   version="1.1"
   id="svg1"
   inkscape:version="1.3.2 (091e20e, 2023-11-25, custom)"
   sodipodi:docname="TestSceneGame.svg"
   xmlns:inkscape="http://www.inkscape.org/namespaces/inkscape"
   xmlns:sodipodi="http://sodipodi.sourceforge.net/DTD/sodipodi-0.dtd"
   xmlns="http://www.w3.org/2000/svg"
   xmlns:svg="http://www.w3.org/2000/svg">
  <sodipodi:namedview
     id="namedview1"
     pagecolor="#ffffff"
     bordercolor="#000000"
     borderopacity="0.25"
     inkscape:showpageshadow="2"
     inkscape:pageopacity="0.0"
     inkscape:pagecheckerboard="0"
     inkscape:deskcolor="#d1d1d1"
     inkscape:document-units="mm"
     inkscape:zoom="0.50709219"
     inkscape:cx="-354.96504"
     inkscape:cy="462.44057"
     inkscape:window-width="1920"
     inkscape:window-height="1001"
     inkscape:window-x="-7"
     inkscape:window-y="-7"
     inkscape:window-maximized="1"
     inkscape:current-layer="g7" />
  <defs
     id="defs1">
    <inkscape:path-effect
       effect="mirror_symmetry"
       start_point="594.37242,41.009127"
       end_point="594.37242,102.22201"
       center_point="594.37242,71.615568"
       id="path-effect19"
       is_visible="true"
       lpeversion="1.2"
       lpesatellites=""
       mode="free"
       discard_orig_path="false"
       fuse_paths="true"
       oposite_fuse="false"
       split_items="false"
       split_open="false"
       link_styles="false" />
    <inkscape:path-effect
       effect="mirror_symmetry"
       start_point="593.99531,47.054586"
       end_point="593.99531,108.26837"
       center_point="593.99531,77.661478"
       id="path-effect18"
       is_visible="true"
       lpeversion="1.2"
       lpesatellites=""
       mode="free"
       discard_orig_path="false"
       fuse_paths="true"
       oposite_fuse="false"
       split_items="false"
       split_open="false"
       link_styles="false" />
    <inkscape:path-effect
       effect="mirror_symmetry"
       start_point="593.61745,47.054604"
       end_point="593.61745,108.26835"
       center_point="593.61745,77.661477"
       id="path-effect17"
       is_visible="true"
       lpeversion="1.2"
       lpesatellites=""
       mode="free"
       discard_orig_path="false"
       fuse_paths="false"
       oposite_fuse="false"
       split_items="false"
       split_open="false"
       link_styles="false" />
    <inkscape:path-effect
       effect="tiling"
       id="path-effect14"
       is_visible="true"
       lpeversion="1"
       unit="px"
       seed="1;1"
       lpesatellites=""
       num_rows="8"
       num_cols="7"
       gapx="0"
       gapy="0"
       offset="0"
       offset_type="false"
       scale="0"
       rotate="0"
       mirrorrowsx="false"
       mirrorrowsy="false"
       mirrorcolsx="false"
       mirrorcolsy="false"
       mirrortrans="false"
       shrink_interp="false"
       split_items="false"
       link_styles="false"
       interpolate_scalex="false"
       interpolate_scaley="true"
       interpolate_rotatex="false"
       interpolate_rotatey="true"
       random_scale="false"
       random_rotate="false"
       random_gap_y="false"
       random_gap_x="false"
       transformorigin="translate(394.97667,94.961367)" />
    <inkscape:path-effect
       effect="construct_grid"
       id="path-effect13"
       is_visible="true"
       lpeversion="1"
       nr_x="2"
       nr_y="1" />
    <inkscape:path-effect
       effect="tiling"
       id="path-effect11"
       is_visible="true"
       lpeversion="1"
       unit="px"
       seed="1;1"
       lpesatellites=""
       num_rows="10"
       num_cols="20"
       gapx="0"
       gapy="0"
       offset="0"
       offset_type="false"
       scale="0"
       rotate="0"
       mirrorrowsx="false"
       mirrorrowsy="false"
       mirrorcolsx="false"
       mirrorcolsy="false"
       mirrortrans="false"
       shrink_interp="false"
       split_items="false"
       link_styles="false"
       interpolate_scalex="false"
       interpolate_scaley="true"
       interpolate_rotatex="false"
       interpolate_rotatey="true"
       random_scale="false"
       random_rotate="false"
       random_gap_y="false"
       random_gap_x="false"
       transformorigin="matrix(0.47486905,0,0,0.40459213,170.27523,-2.20708)" />
    <inkscape:path-effect
       effect="bspline"
       id="path-effect3"
       is_visible="true"
       lpeversion="1.3"
       weight="33.333333"
       steps="2"
       helper_size="0"
       apply_no_weight="true"
       apply_with_weight="true"
       only_selected="false"
       uniform="false" />
    <inkscape:path-effect
       effect="bspline"
       id="path-effect1"
       is_visible="true"
       lpeversion="1.3"
       weight="33.333333"
       steps="2"
       helper_size="0"
       apply_no_weight="true"
       apply_with_weight="true"
       only_selected="false"
       uniform="false" />
  </defs>
  <g
     inkscape:label="Layer 1"
     inkscape:groupmode="layer"
     id="layer1">
    <path
       style="fill:#7e8c7a;fill-opacity:1;stroke:#dfc986;stroke-width:1"
       id="rect11"
       width="63.133656"
       height="63.133656"
       x="322.45123"
       y="26.610054"
       ry="4.0583849"
       inkscape:path-effect="#path-effect11"
       sodipodi:type="rect"
       d="m 326.50962,26.610054 h 55.01688 c 2.24835,0 4.05839,1.81004 4.05839,4.058385 v 55.016886 c 0,2.248345 -1.81004,4.058385 -4.05839,4.058385 h -55.01688 c -2.24835,0 -4.05839,-1.81004 -4.05839,-4.058385 V 30.668439 c 0,-2.248345 1.81004,-4.058385 4.05839,-4.058385 z m 63.13365,0 h 55.01689 c 2.24834,0 4.05838,1.81004 4.05838,4.058385 v 55.016886 c 0,2.248345 -1.81004,4.058385 -4.05838,4.058385 h -55.01689 c -2.24834,0 -4.05838,-1.81004 -4.05838,-4.058385 V 30.668439 c 0,-2.248345 1.81004,-4.058385 4.05838,-4.058385 z m 63.13366,0 h 55.01688 c 2.24835,0 4.05839,1.81004 4.05839,4.058385 v 55.016886 c 0,2.248345 -1.81004,4.058385 -4.05839,4.058385 h -55.01688 c -2.24835,0 -4.05839,-1.81004 -4.05839,-4.058385 V 30.668439 c 0,-2.248345 1.81004,-4.058385 4.05839,-4.058385 z m 63.13365,0 h 55.01689 c 2.24835,0 4.05839,1.81004 4.05839,4.058385 v 55.016886 c 0,2.248345 -1.81004,4.058385 -4.05839,4.058385 h -55.01689 c -2.24834,0 -4.05838,-1.81004 -4.05838,-4.058385 V 30.668439 c 0,-2.248345 1.81004,-4.058385 4.05838,-4.058385 z m 63.13366,0 h 55.01689 c 2.24834,0 4.05838,1.81004 4.05838,4.058385 v 55.016886 c 0,2.248345 -1.81004,4.058385 -4.05838,4.058385 h -55.01689 c -2.24835,0 -4.05838,-1.81004 -4.05838,-4.058385 V 30.668439 c 0,-2.248345 1.81003,-4.058385 4.05838,-4.058385 z m 63.13366,0 h 55.01688 c 2.24835,0 4.05839,1.81004 4.05839,4.058385 v 55.016886 c 0,2.248345 -1.81004,4.058385 -4.05839,4.058385 H 642.1779 c -2.24835,0 -4.05839,-1.81004 -4.05839,-4.058385 V 30.668439 c 0,-2.248345 1.81004,-4.058385 4.05839,-4.058385 z m 63.13365,0 h 55.01689 c 2.24834,0 4.05838,1.81004 4.05838,4.058385 v 55.016886 c 0,2.248345 -1.81004,4.058385 -4.05838,4.058385 h -55.01689 c -2.24834,0 -4.05838,-1.81004 -4.05838,-4.058385 V 30.668439 c 0,-2.248345 1.81004,-4.058385 4.05838,-4.058385 z m 63.13366,0 h 55.01688 c 2.24835,0 4.05839,1.81004 4.05839,4.058385 v 55.016886 c 0,2.248345 -1.81004,4.058385 -4.05839,4.058385 h -55.01688 c -2.24835,0 -4.05839,-1.81004 -4.05839,-4.058385 V 30.668439 c 0,-2.248345 1.81004,-4.058385 4.05839,-4.058385 z m 63.13365,0 h 55.01689 c 2.24834,0 4.05838,1.81004 4.05838,4.058385 v 55.016886 c 0,2.248345 -1.81004,4.058385 -4.05838,4.058385 h -55.01689 c -2.24834,0 -4.05838,-1.81004 -4.05838,-4.058385 V 30.668439 c 0,-2.248345 1.81004,-4.058385 4.05838,-4.058385 z m 63.13366,0 h 55.01688 c 2.24835,0 4.05839,1.81004 4.05839,4.058385 v 55.016886 c 0,2.248345 -1.81004,4.058385 -4.05839,4.058385 h -55.01688 c -2.24835,0 -4.05839,-1.81004 -4.05839,-4.058385 V 30.668439 c 0,-2.248345 1.81004,-4.058385 4.05839,-4.058385 z m 63.13365,0 h 55.01693 c 2.2483,0 4.0583,1.81004 4.0583,4.058385 v 55.016886 c 0,2.248345 -1.81,4.058385 -4.0583,4.058385 h -55.01693 c -2.24834,0 -4.05838,-1.81004 -4.05838,-4.058385 V 30.668439 c 0,-2.248345 1.81004,-4.058385 4.05838,-4.058385 z m 63.13363,0 h 55.0169 c 2.2484,0 4.0584,1.81004 4.0584,4.058385 v 55.016886 c 0,2.248345 -1.81,4.058385 -4.0584,4.058385 h -55.0169 c -2.2483,0 -4.0584,-1.81004 -4.0584,-4.058385 V 30.668439 c 0,-2.248345 1.8101,-4.058385 4.0584,-4.058385 z m 63.1337,0 h 55.0169 c 2.2483,0 4.0584,1.81004 4.0584,4.058385 v 55.016886 c 0,2.248345 -1.8101,4.058385 -4.0584,4.058385 h -55.0169 c -2.2484,0 -4.0584,-1.81004 -4.0584,-4.058385 V 30.668439 c 0,-2.248345 1.81,-4.058385 4.0584,-4.058385 z m 63.1336,0 h 55.0169 c 2.2484,0 4.0584,1.81004 4.0584,4.058385 v 55.016886 c 0,2.248345 -1.81,4.058385 -4.0584,4.058385 h -55.0169 c -2.2483,0 -4.0583,-1.81004 -4.0583,-4.058385 V 30.668439 c 0,-2.248345 1.81,-4.058385 4.0583,-4.058385 z m 63.1337,0 h 55.0169 c 2.2483,0 4.0584,1.81004 4.0584,4.058385 v 55.016886 c 0,2.248345 -1.8101,4.058385 -4.0584,4.058385 h -55.0169 c -2.2483,0 -4.0584,-1.81004 -4.0584,-4.058385 V 30.668439 c 0,-2.248345 1.8101,-4.058385 4.0584,-4.058385 z m 63.1337,0 h 55.0168 c 2.2484,0 4.0584,1.81004 4.0584,4.058385 v 55.016886 c 0,2.248345 -1.81,4.058385 -4.0584,4.058385 h -55.0168 c -2.2484,0 -4.0584,-1.81004 -4.0584,-4.058385 V 30.668439 c 0,-2.248345 1.81,-4.058385 4.0584,-4.058385 z m 63.1336,0 h 55.0169 c 2.2483,0 4.0584,1.81004 4.0584,4.058385 v 55.016886 c 0,2.248345 -1.8101,4.058385 -4.0584,4.058385 h -55.0169 c -2.2483,0 -4.0584,-1.81004 -4.0584,-4.058385 V 30.668439 c 0,-2.248345 1.8101,-4.058385 4.0584,-4.058385 z m 63.1337,0 h 55.0168 c 2.2484,0 4.0584,1.81004 4.0584,4.058385 v 55.016886 c 0,2.248345 -1.81,4.058385 -4.0584,4.058385 h -55.0168 c -2.2484,0 -4.0584,-1.81004 -4.0584,-4.058385 V 30.668439 c 0,-2.248345 1.81,-4.058385 4.0584,-4.058385 z m 63.1336,0 h 55.0169 c 2.2483,0 4.0584,1.81004 4.0584,4.058385 v 55.016886 c 0,2.248345 -1.8101,4.058385 -4.0584,4.058385 h -55.0169 c -2.2483,0 -4.0584,-1.81004 -4.0584,-4.058385 V 30.668439 c 0,-2.248345 1.8101,-4.058385 4.0584,-4.058385 z m 63.1337,0 h 55.0169 c 2.2483,0 4.0583,1.81004 4.0583,4.058385 v 55.016886 c 0,2.248345 -1.81,4.058385 -4.0583,4.058385 h -55.0169 c -2.2484,0 -4.0584,-1.81004 -4.0584,-4.058385 V 30.668439 c 0,-2.248345 1.81,-4.058385 4.0584,-4.058385 z M 326.50962,89.74371 h 55.01688 c 2.24835,0 4.05839,1.810039 4.05839,4.058384 v 55.016886 c 0,2.24835 -1.81004,4.05839 -4.05839,4.05839 h -55.01688 c -2.24835,0 -4.05839,-1.81004 -4.05839,-4.05839 V 93.802094 c 0,-2.248345 1.81004,-4.058384 4.05839,-4.058384 z m 63.13365,0 h 55.01689 c 2.24834,0 4.05838,1.810039 4.05838,4.058384 v 55.016886 c 0,2.24835 -1.81004,4.05839 -4.05838,4.05839 h -55.01689 c -2.24834,0 -4.05838,-1.81004 -4.05838,-4.05839 V 93.802094 c 0,-2.248345 1.81004,-4.058384 4.05838,-4.058384 z m 63.13366,0 h 55.01688 c 2.24835,0 4.05839,1.810039 4.05839,4.058384 v 55.016886 c 0,2.24835 -1.81004,4.05839 -4.05839,4.05839 h -55.01688 c -2.24835,0 -4.05839,-1.81004 -4.05839,-4.05839 V 93.802094 c 0,-2.248345 1.81004,-4.058384 4.05839,-4.058384 z m 63.13365,0 h 55.01689 c 2.24835,0 4.05839,1.810039 4.05839,4.058384 v 55.016886 c 0,2.24835 -1.81004,4.05839 -4.05839,4.05839 h -55.01689 c -2.24834,0 -4.05838,-1.81004 -4.05838,-4.05839 V 93.802094 c 0,-2.248345 1.81004,-4.058384 4.05838,-4.058384 z m 63.13366,0 h 55.01689 c 2.24834,0 4.05838,1.810039 4.05838,4.058384 v 55.016886 c 0,2.24835 -1.81004,4.05839 -4.05838,4.05839 h -55.01689 c -2.24835,0 -4.05838,-1.81004 -4.05838,-4.05839 V 93.802094 c 0,-2.248345 1.81003,-4.058384 4.05838,-4.058384 z m 63.13366,0 h 55.01688 c 2.24835,0 4.05839,1.810039 4.05839,4.058384 v 55.016886 c 0,2.24835 -1.81004,4.05839 -4.05839,4.05839 H 642.1779 c -2.24835,0 -4.05839,-1.81004 -4.05839,-4.05839 V 93.802094 c 0,-2.248345 1.81004,-4.058384 4.05839,-4.058384 z m 63.13365,0 h 55.01689 c 2.24834,0 4.05838,1.810039 4.05838,4.058384 v 55.016886 c 0,2.24835 -1.81004,4.05839 -4.05838,4.05839 h -55.01689 c -2.24834,0 -4.05838,-1.81004 -4.05838,-4.05839 V 93.802094 c 0,-2.248345 1.81004,-4.058384 4.05838,-4.058384 z m 63.13366,0 h 55.01688 c 2.24835,0 4.05839,1.810039 4.05839,4.058384 v 55.016886 c 0,2.24835 -1.81004,4.05839 -4.05839,4.05839 h -55.01688 c -2.24835,0 -4.05839,-1.81004 -4.05839,-4.05839 V 93.802094 c 0,-2.248345 1.81004,-4.058384 4.05839,-4.058384 z m 63.13365,0 h 55.01689 c 2.24834,0 4.05838,1.810039 4.05838,4.058384 v 55.016886 c 0,2.24835 -1.81004,4.05839 -4.05838,4.05839 h -55.01689 c -2.24834,0 -4.05838,-1.81004 -4.05838,-4.05839 V 93.802094 c 0,-2.248345 1.81004,-4.058384 4.05838,-4.058384 z m 63.13366,0 h 55.01688 c 2.24835,0 4.05839,1.810039 4.05839,4.058384 v 55.016886 c 0,2.24835 -1.81004,4.05839 -4.05839,4.05839 h -55.01688 c -2.24835,0 -4.05839,-1.81004 -4.05839,-4.05839 V 93.802094 c 0,-2.248345 1.81004,-4.058384 4.05839,-4.058384 z m 63.13365,0 h 55.01693 c 2.2483,0 4.0583,1.810039 4.0583,4.058384 v 55.016886 c 0,2.24835 -1.81,4.05839 -4.0583,4.05839 h -55.01693 c -2.24834,0 -4.05838,-1.81004 -4.05838,-4.05839 V 93.802094 c 0,-2.248345 1.81004,-4.058384 4.05838,-4.058384 z m 63.13363,0 h 55.0169 c 2.2484,0 4.0584,1.810039 4.0584,4.058384 v 55.016886 c 0,2.24835 -1.81,4.05839 -4.0584,4.05839 h -55.0169 c -2.2483,0 -4.0584,-1.81004 -4.0584,-4.05839 V 93.802094 c 0,-2.248345 1.8101,-4.058384 4.0584,-4.058384 z m 63.1337,0 h 55.0169 c 2.2483,0 4.0584,1.810039 4.0584,4.058384 v 55.016886 c 0,2.24835 -1.8101,4.05839 -4.0584,4.05839 h -55.0169 c -2.2484,0 -4.0584,-1.81004 -4.0584,-4.05839 V 93.802094 c 0,-2.248345 1.81,-4.058384 4.0584,-4.058384 z m 63.1336,0 h 55.0169 c 2.2484,0 4.0584,1.810039 4.0584,4.058384 v 55.016886 c 0,2.24835 -1.81,4.05839 -4.0584,4.05839 h -55.0169 c -2.2483,0 -4.0583,-1.81004 -4.0583,-4.05839 V 93.802094 c 0,-2.248345 1.81,-4.058384 4.0583,-4.058384 z m 63.1337,0 h 55.0169 c 2.2483,0 4.0584,1.810039 4.0584,4.058384 v 55.016886 c 0,2.24835 -1.8101,4.05839 -4.0584,4.05839 h -55.0169 c -2.2483,0 -4.0584,-1.81004 -4.0584,-4.05839 V 93.802094 c 0,-2.248345 1.8101,-4.058384 4.0584,-4.058384 z m 63.1337,0 h 55.0168 c 2.2484,0 4.0584,1.810039 4.0584,4.058384 v 55.016886 c 0,2.24835 -1.81,4.05839 -4.0584,4.05839 h -55.0168 c -2.2484,0 -4.0584,-1.81004 -4.0584,-4.05839 V 93.802094 c 0,-2.248345 1.81,-4.058384 4.0584,-4.058384 z m 63.1336,0 h 55.0169 c 2.2483,0 4.0584,1.810039 4.0584,4.058384 v 55.016886 c 0,2.24835 -1.8101,4.05839 -4.0584,4.05839 h -55.0169 c -2.2483,0 -4.0584,-1.81004 -4.0584,-4.05839 V 93.802094 c 0,-2.248345 1.8101,-4.058384 4.0584,-4.058384 z m 63.1337,0 h 55.0168 c 2.2484,0 4.0584,1.810039 4.0584,4.058384 v 55.016886 c 0,2.24835 -1.81,4.05839 -4.0584,4.05839 h -55.0168 c -2.2484,0 -4.0584,-1.81004 -4.0584,-4.05839 V 93.802094 c 0,-2.248345 1.81,-4.058384 4.0584,-4.058384 z m 63.1336,0 h 55.0169 c 2.2483,0 4.0584,1.810039 4.0584,4.058384 v 55.016886 c 0,2.24835 -1.8101,4.05839 -4.0584,4.05839 h -55.0169 c -2.2483,0 -4.0584,-1.81004 -4.0584,-4.05839 V 93.802094 c 0,-2.248345 1.8101,-4.058384 4.0584,-4.058384 z m 63.1337,0 h 55.0169 c 2.2483,0 4.0583,1.810039 4.0583,4.058384 v 55.016886 c 0,2.24835 -1.81,4.05839 -4.0583,4.05839 h -55.0169 c -2.2484,0 -4.0584,-1.81004 -4.0584,-4.05839 V 93.802094 c 0,-2.248345 1.81,-4.058384 4.0584,-4.058384 z M 326.50962,152.87737 h 55.01688 c 2.24835,0 4.05839,1.81003 4.05839,4.05838 v 55.01689 c 0,2.24834 -1.81004,4.05838 -4.05839,4.05838 h -55.01688 c -2.24835,0 -4.05839,-1.81004 -4.05839,-4.05838 v -55.01689 c 0,-2.24835 1.81004,-4.05838 4.05839,-4.05838 z m 63.13365,0 h 55.01689 c 2.24834,0 4.05838,1.81003 4.05838,4.05838 v 55.01689 c 0,2.24834 -1.81004,4.05838 -4.05838,4.05838 h -55.01689 c -2.24834,0 -4.05838,-1.81004 -4.05838,-4.05838 v -55.01689 c 0,-2.24835 1.81004,-4.05838 4.05838,-4.05838 z m 63.13366,0 h 55.01688 c 2.24835,0 4.05839,1.81003 4.05839,4.05838 v 55.01689 c 0,2.24834 -1.81004,4.05838 -4.05839,4.05838 h -55.01688 c -2.24835,0 -4.05839,-1.81004 -4.05839,-4.05838 v -55.01689 c 0,-2.24835 1.81004,-4.05838 4.05839,-4.05838 z m 63.13365,0 h 55.01689 c 2.24835,0 4.05839,1.81003 4.05839,4.05838 v 55.01689 c 0,2.24834 -1.81004,4.05838 -4.05839,4.05838 h -55.01689 c -2.24834,0 -4.05838,-1.81004 -4.05838,-4.05838 v -55.01689 c 0,-2.24835 1.81004,-4.05838 4.05838,-4.05838 z m 63.13366,0 h 55.01689 c 2.24834,0 4.05838,1.81003 4.05838,4.05838 v 55.01689 c 0,2.24834 -1.81004,4.05838 -4.05838,4.05838 h -55.01689 c -2.24835,0 -4.05838,-1.81004 -4.05838,-4.05838 v -55.01689 c 0,-2.24835 1.81003,-4.05838 4.05838,-4.05838 z m 63.13366,0 h 55.01688 c 2.24835,0 4.05839,1.81003 4.05839,4.05838 v 55.01689 c 0,2.24834 -1.81004,4.05838 -4.05839,4.05838 H 642.1779 c -2.24835,0 -4.05839,-1.81004 -4.05839,-4.05838 v -55.01689 c 0,-2.24835 1.81004,-4.05838 4.05839,-4.05838 z m 63.13365,0 h 55.01689 c 2.24834,0 4.05838,1.81003 4.05838,4.05838 v 55.01689 c 0,2.24834 -1.81004,4.05838 -4.05838,4.05838 h -55.01689 c -2.24834,0 -4.05838,-1.81004 -4.05838,-4.05838 v -55.01689 c 0,-2.24835 1.81004,-4.05838 4.05838,-4.05838 z m 63.13366,0 h 55.01688 c 2.24835,0 4.05839,1.81003 4.05839,4.05838 v 55.01689 c 0,2.24834 -1.81004,4.05838 -4.05839,4.05838 h -55.01688 c -2.24835,0 -4.05839,-1.81004 -4.05839,-4.05838 v -55.01689 c 0,-2.24835 1.81004,-4.05838 4.05839,-4.05838 z m 63.13365,0 h 55.01689 c 2.24834,0 4.05838,1.81003 4.05838,4.05838 v 55.01689 c 0,2.24834 -1.81004,4.05838 -4.05838,4.05838 h -55.01689 c -2.24834,0 -4.05838,-1.81004 -4.05838,-4.05838 v -55.01689 c 0,-2.24835 1.81004,-4.05838 4.05838,-4.05838 z m 63.13366,0 h 55.01688 c 2.24835,0 4.05839,1.81003 4.05839,4.05838 v 55.01689 c 0,2.24834 -1.81004,4.05838 -4.05839,4.05838 h -55.01688 c -2.24835,0 -4.05839,-1.81004 -4.05839,-4.05838 v -55.01689 c 0,-2.24835 1.81004,-4.05838 4.05839,-4.05838 z m 63.13365,0 h 55.01693 c 2.2483,0 4.0583,1.81003 4.0583,4.05838 v 55.01689 c 0,2.24834 -1.81,4.05838 -4.0583,4.05838 h -55.01693 c -2.24834,0 -4.05838,-1.81004 -4.05838,-4.05838 v -55.01689 c 0,-2.24835 1.81004,-4.05838 4.05838,-4.05838 z m 63.13363,0 h 55.0169 c 2.2484,0 4.0584,1.81003 4.0584,4.05838 v 55.01689 c 0,2.24834 -1.81,4.05838 -4.0584,4.05838 h -55.0169 c -2.2483,0 -4.0584,-1.81004 -4.0584,-4.05838 v -55.01689 c 0,-2.24835 1.8101,-4.05838 4.0584,-4.05838 z m 63.1337,0 h 55.0169 c 2.2483,0 4.0584,1.81003 4.0584,4.05838 v 55.01689 c 0,2.24834 -1.8101,4.05838 -4.0584,4.05838 h -55.0169 c -2.2484,0 -4.0584,-1.81004 -4.0584,-4.05838 v -55.01689 c 0,-2.24835 1.81,-4.05838 4.0584,-4.05838 z m 63.1336,0 h 55.0169 c 2.2484,0 4.0584,1.81003 4.0584,4.05838 v 55.01689 c 0,2.24834 -1.81,4.05838 -4.0584,4.05838 h -55.0169 c -2.2483,0 -4.0583,-1.81004 -4.0583,-4.05838 v -55.01689 c 0,-2.24835 1.81,-4.05838 4.0583,-4.05838 z m 63.1337,0 h 55.0169 c 2.2483,0 4.0584,1.81003 4.0584,4.05838 v 55.01689 c 0,2.24834 -1.8101,4.05838 -4.0584,4.05838 h -55.0169 c -2.2483,0 -4.0584,-1.81004 -4.0584,-4.05838 v -55.01689 c 0,-2.24835 1.8101,-4.05838 4.0584,-4.05838 z m 63.1337,0 h 55.0168 c 2.2484,0 4.0584,1.81003 4.0584,4.05838 v 55.01689 c 0,2.24834 -1.81,4.05838 -4.0584,4.05838 h -55.0168 c -2.2484,0 -4.0584,-1.81004 -4.0584,-4.05838 v -55.01689 c 0,-2.24835 1.81,-4.05838 4.0584,-4.05838 z m 63.1336,0 h 55.0169 c 2.2483,0 4.0584,1.81003 4.0584,4.05838 v 55.01689 c 0,2.24834 -1.8101,4.05838 -4.0584,4.05838 h -55.0169 c -2.2483,0 -4.0584,-1.81004 -4.0584,-4.05838 v -55.01689 c 0,-2.24835 1.8101,-4.05838 4.0584,-4.05838 z m 63.1337,0 h 55.0168 c 2.2484,0 4.0584,1.81003 4.0584,4.05838 v 55.01689 c 0,2.24834 -1.81,4.05838 -4.0584,4.05838 h -55.0168 c -2.2484,0 -4.0584,-1.81004 -4.0584,-4.05838 v -55.01689 c 0,-2.24835 1.81,-4.05838 4.0584,-4.05838 z m 63.1336,0 h 55.0169 c 2.2483,0 4.0584,1.81003 4.0584,4.05838 v 55.01689 c 0,2.24834 -1.8101,4.05838 -4.0584,4.05838 h -55.0169 c -2.2483,0 -4.0584,-1.81004 -4.0584,-4.05838 v -55.01689 c 0,-2.24835 1.8101,-4.05838 4.0584,-4.05838 z m 63.1337,0 h 55.0169 c 2.2483,0 4.0583,1.81003 4.0583,4.05838 v 55.01689 c 0,2.24834 -1.81,4.05838 -4.0583,4.05838 h -55.0169 c -2.2484,0 -4.0584,-1.81004 -4.0584,-4.05838 v -55.01689 c 0,-2.24835 1.81,-4.05838 4.0584,-4.05838 z M 326.50962,216.01102 h 55.01688 c 2.24835,0 4.05839,1.81004 4.05839,4.05839 v 55.01688 c 0,2.24835 -1.81004,4.05839 -4.05839,4.05839 h -55.01688 c -2.24835,0 -4.05839,-1.81004 -4.05839,-4.05839 v -55.01688 c 0,-2.24835 1.81004,-4.05839 4.05839,-4.05839 z m 63.13365,0 h 55.01689 c 2.24834,0 4.05838,1.81004 4.05838,4.05839 v 55.01688 c 0,2.24835 -1.81004,4.05839 -4.05838,4.05839 h -55.01689 c -2.24834,0 -4.05838,-1.81004 -4.05838,-4.05839 v -55.01688 c 0,-2.24835 1.81004,-4.05839 4.05838,-4.05839 z m 63.13366,0 h 55.01688 c 2.24835,0 4.05839,1.81004 4.05839,4.05839 v 55.01688 c 0,2.24835 -1.81004,4.05839 -4.05839,4.05839 h -55.01688 c -2.24835,0 -4.05839,-1.81004 -4.05839,-4.05839 v -55.01688 c 0,-2.24835 1.81004,-4.05839 4.05839,-4.05839 z m 63.13365,0 h 55.01689 c 2.24835,0 4.05839,1.81004 4.05839,4.05839 v 55.01688 c 0,2.24835 -1.81004,4.05839 -4.05839,4.05839 h -55.01689 c -2.24834,0 -4.05838,-1.81004 -4.05838,-4.05839 v -55.01688 c 0,-2.24835 1.81004,-4.05839 4.05838,-4.05839 z m 63.13366,0 h 55.01689 c 2.24834,0 4.05838,1.81004 4.05838,4.05839 v 55.01688 c 0,2.24835 -1.81004,4.05839 -4.05838,4.05839 h -55.01689 c -2.24835,0 -4.05838,-1.81004 -4.05838,-4.05839 v -55.01688 c 0,-2.24835 1.81003,-4.05839 4.05838,-4.05839 z m 63.13366,0 h 55.01688 c 2.24835,0 4.05839,1.81004 4.05839,4.05839 v 55.01688 c 0,2.24835 -1.81004,4.05839 -4.05839,4.05839 H 642.1779 c -2.24835,0 -4.05839,-1.81004 -4.05839,-4.05839 v -55.01688 c 0,-2.24835 1.81004,-4.05839 4.05839,-4.05839 z m 63.13365,0 h 55.01689 c 2.24834,0 4.05838,1.81004 4.05838,4.05839 v 55.01688 c 0,2.24835 -1.81004,4.05839 -4.05838,4.05839 h -55.01689 c -2.24834,0 -4.05838,-1.81004 -4.05838,-4.05839 v -55.01688 c 0,-2.24835 1.81004,-4.05839 4.05838,-4.05839 z m 63.13366,0 h 55.01688 c 2.24835,0 4.05839,1.81004 4.05839,4.05839 v 55.01688 c 0,2.24835 -1.81004,4.05839 -4.05839,4.05839 h -55.01688 c -2.24835,0 -4.05839,-1.81004 -4.05839,-4.05839 v -55.01688 c 0,-2.24835 1.81004,-4.05839 4.05839,-4.05839 z m 63.13365,0 h 55.01689 c 2.24834,0 4.05838,1.81004 4.05838,4.05839 v 55.01688 c 0,2.24835 -1.81004,4.05839 -4.05838,4.05839 h -55.01689 c -2.24834,0 -4.05838,-1.81004 -4.05838,-4.05839 v -55.01688 c 0,-2.24835 1.81004,-4.05839 4.05838,-4.05839 z m 63.13366,0 h 55.01688 c 2.24835,0 4.05839,1.81004 4.05839,4.05839 v 55.01688 c 0,2.24835 -1.81004,4.05839 -4.05839,4.05839 h -55.01688 c -2.24835,0 -4.05839,-1.81004 -4.05839,-4.05839 v -55.01688 c 0,-2.24835 1.81004,-4.05839 4.05839,-4.05839 z m 63.13365,0 h 55.01693 c 2.2483,0 4.0583,1.81004 4.0583,4.05839 v 55.01688 c 0,2.24835 -1.81,4.05839 -4.0583,4.05839 h -55.01693 c -2.24834,0 -4.05838,-1.81004 -4.05838,-4.05839 v -55.01688 c 0,-2.24835 1.81004,-4.05839 4.05838,-4.05839 z m 63.13363,0 h 55.0169 c 2.2484,0 4.0584,1.81004 4.0584,4.05839 v 55.01688 c 0,2.24835 -1.81,4.05839 -4.0584,4.05839 h -55.0169 c -2.2483,0 -4.0584,-1.81004 -4.0584,-4.05839 v -55.01688 c 0,-2.24835 1.8101,-4.05839 4.0584,-4.05839 z m 63.1337,0 h 55.0169 c 2.2483,0 4.0584,1.81004 4.0584,4.05839 v 55.01688 c 0,2.24835 -1.8101,4.05839 -4.0584,4.05839 h -55.0169 c -2.2484,0 -4.0584,-1.81004 -4.0584,-4.05839 v -55.01688 c 0,-2.24835 1.81,-4.05839 4.0584,-4.05839 z m 63.1336,0 h 55.0169 c 2.2484,0 4.0584,1.81004 4.0584,4.05839 v 55.01688 c 0,2.24835 -1.81,4.05839 -4.0584,4.05839 h -55.0169 c -2.2483,0 -4.0583,-1.81004 -4.0583,-4.05839 v -55.01688 c 0,-2.24835 1.81,-4.05839 4.0583,-4.05839 z m 63.1337,0 h 55.0169 c 2.2483,0 4.0584,1.81004 4.0584,4.05839 v 55.01688 c 0,2.24835 -1.8101,4.05839 -4.0584,4.05839 h -55.0169 c -2.2483,0 -4.0584,-1.81004 -4.0584,-4.05839 v -55.01688 c 0,-2.24835 1.8101,-4.05839 4.0584,-4.05839 z m 63.1337,0 h 55.0168 c 2.2484,0 4.0584,1.81004 4.0584,4.05839 v 55.01688 c 0,2.24835 -1.81,4.05839 -4.0584,4.05839 h -55.0168 c -2.2484,0 -4.0584,-1.81004 -4.0584,-4.05839 v -55.01688 c 0,-2.24835 1.81,-4.05839 4.0584,-4.05839 z m 63.1336,0 h 55.0169 c 2.2483,0 4.0584,1.81004 4.0584,4.05839 v 55.01688 c 0,2.24835 -1.8101,4.05839 -4.0584,4.05839 h -55.0169 c -2.2483,0 -4.0584,-1.81004 -4.0584,-4.05839 v -55.01688 c 0,-2.24835 1.8101,-4.05839 4.0584,-4.05839 z m 63.1337,0 h 55.0168 c 2.2484,0 4.0584,1.81004 4.0584,4.05839 v 55.01688 c 0,2.24835 -1.81,4.05839 -4.0584,4.05839 h -55.0168 c -2.2484,0 -4.0584,-1.81004 -4.0584,-4.05839 v -55.01688 c 0,-2.24835 1.81,-4.05839 4.0584,-4.05839 z m 63.1336,0 h 55.0169 c 2.2483,0 4.0584,1.81004 4.0584,4.05839 v 55.01688 c 0,2.24835 -1.8101,4.05839 -4.0584,4.05839 h -55.0169 c -2.2483,0 -4.0584,-1.81004 -4.0584,-4.05839 v -55.01688 c 0,-2.24835 1.8101,-4.05839 4.0584,-4.05839 z m 63.1337,0 h 55.0169 c 2.2483,0 4.0583,1.81004 4.0583,4.05839 v 55.01688 c 0,2.24835 -1.81,4.05839 -4.0583,4.05839 h -55.0169 c -2.2484,0 -4.0584,-1.81004 -4.0584,-4.05839 v -55.01688 c 0,-2.24835 1.81,-4.05839 4.0584,-4.05839 z M 326.50962,279.14468 h 55.01688 c 2.24835,0 4.05839,1.81004 4.05839,4.05838 v 55.01689 c 0,2.24834 -1.81004,4.05838 -4.05839,4.05838 h -55.01688 c -2.24835,0 -4.05839,-1.81004 -4.05839,-4.05838 v -55.01689 c 0,-2.24834 1.81004,-4.05838 4.05839,-4.05838 z m 63.13365,0 h 55.01689 c 2.24834,0 4.05838,1.81004 4.05838,4.05838 v 55.01689 c 0,2.24834 -1.81004,4.05838 -4.05838,4.05838 h -55.01689 c -2.24834,0 -4.05838,-1.81004 -4.05838,-4.05838 v -55.01689 c 0,-2.24834 1.81004,-4.05838 4.05838,-4.05838 z m 63.13366,0 h 55.01688 c 2.24835,0 4.05839,1.81004 4.05839,4.05838 v 55.01689 c 0,2.24834 -1.81004,4.05838 -4.05839,4.05838 h -55.01688 c -2.24835,0 -4.05839,-1.81004 -4.05839,-4.05838 v -55.01689 c 0,-2.24834 1.81004,-4.05838 4.05839,-4.05838 z m 63.13365,0 h 55.01689 c 2.24835,0 4.05839,1.81004 4.05839,4.05838 v 55.01689 c 0,2.24834 -1.81004,4.05838 -4.05839,4.05838 h -55.01689 c -2.24834,0 -4.05838,-1.81004 -4.05838,-4.05838 v -55.01689 c 0,-2.24834 1.81004,-4.05838 4.05838,-4.05838 z m 63.13366,0 h 55.01689 c 2.24834,0 4.05838,1.81004 4.05838,4.05838 v 55.01689 c 0,2.24834 -1.81004,4.05838 -4.05838,4.05838 h -55.01689 c -2.24835,0 -4.05838,-1.81004 -4.05838,-4.05838 v -55.01689 c 0,-2.24834 1.81003,-4.05838 4.05838,-4.05838 z m 63.13366,0 h 55.01688 c 2.24835,0 4.05839,1.81004 4.05839,4.05838 v 55.01689 c 0,2.24834 -1.81004,4.05838 -4.05839,4.05838 H 642.1779 c -2.24835,0 -4.05839,-1.81004 -4.05839,-4.05838 v -55.01689 c 0,-2.24834 1.81004,-4.05838 4.05839,-4.05838 z m 63.13365,0 h 55.01689 c 2.24834,0 4.05838,1.81004 4.05838,4.05838 v 55.01689 c 0,2.24834 -1.81004,4.05838 -4.05838,4.05838 h -55.01689 c -2.24834,0 -4.05838,-1.81004 -4.05838,-4.05838 v -55.01689 c 0,-2.24834 1.81004,-4.05838 4.05838,-4.05838 z m 63.13366,0 h 55.01688 c 2.24835,0 4.05839,1.81004 4.05839,4.05838 v 55.01689 c 0,2.24834 -1.81004,4.05838 -4.05839,4.05838 h -55.01688 c -2.24835,0 -4.05839,-1.81004 -4.05839,-4.05838 v -55.01689 c 0,-2.24834 1.81004,-4.05838 4.05839,-4.05838 z m 63.13365,0 h 55.01689 c 2.24834,0 4.05838,1.81004 4.05838,4.05838 v 55.01689 c 0,2.24834 -1.81004,4.05838 -4.05838,4.05838 h -55.01689 c -2.24834,0 -4.05838,-1.81004 -4.05838,-4.05838 v -55.01689 c 0,-2.24834 1.81004,-4.05838 4.05838,-4.05838 z m 63.13366,0 h 55.01688 c 2.24835,0 4.05839,1.81004 4.05839,4.05838 v 55.01689 c 0,2.24834 -1.81004,4.05838 -4.05839,4.05838 h -55.01688 c -2.24835,0 -4.05839,-1.81004 -4.05839,-4.05838 v -55.01689 c 0,-2.24834 1.81004,-4.05838 4.05839,-4.05838 z m 63.13365,0 h 55.01693 c 2.2483,0 4.0583,1.81004 4.0583,4.05838 v 55.01689 c 0,2.24834 -1.81,4.05838 -4.0583,4.05838 h -55.01693 c -2.24834,0 -4.05838,-1.81004 -4.05838,-4.05838 v -55.01689 c 0,-2.24834 1.81004,-4.05838 4.05838,-4.05838 z m 63.13363,0 h 55.0169 c 2.2484,0 4.0584,1.81004 4.0584,4.05838 v 55.01689 c 0,2.24834 -1.81,4.05838 -4.0584,4.05838 h -55.0169 c -2.2483,0 -4.0584,-1.81004 -4.0584,-4.05838 v -55.01689 c 0,-2.24834 1.8101,-4.05838 4.0584,-4.05838 z m 63.1337,0 h 55.0169 c 2.2483,0 4.0584,1.81004 4.0584,4.05838 v 55.01689 c 0,2.24834 -1.8101,4.05838 -4.0584,4.05838 h -55.0169 c -2.2484,0 -4.0584,-1.81004 -4.0584,-4.05838 v -55.01689 c 0,-2.24834 1.81,-4.05838 4.0584,-4.05838 z m 63.1336,0 h 55.0169 c 2.2484,0 4.0584,1.81004 4.0584,4.05838 v 55.01689 c 0,2.24834 -1.81,4.05838 -4.0584,4.05838 h -55.0169 c -2.2483,0 -4.0583,-1.81004 -4.0583,-4.05838 v -55.01689 c 0,-2.24834 1.81,-4.05838 4.0583,-4.05838 z m 63.1337,0 h 55.0169 c 2.2483,0 4.0584,1.81004 4.0584,4.05838 v 55.01689 c 0,2.24834 -1.8101,4.05838 -4.0584,4.05838 h -55.0169 c -2.2483,0 -4.0584,-1.81004 -4.0584,-4.05838 v -55.01689 c 0,-2.24834 1.8101,-4.05838 4.0584,-4.05838 z m 63.1337,0 h 55.0168 c 2.2484,0 4.0584,1.81004 4.0584,4.05838 v 55.01689 c 0,2.24834 -1.81,4.05838 -4.0584,4.05838 h -55.0168 c -2.2484,0 -4.0584,-1.81004 -4.0584,-4.05838 v -55.01689 c 0,-2.24834 1.81,-4.05838 4.0584,-4.05838 z m 63.1336,0 h 55.0169 c 2.2483,0 4.0584,1.81004 4.0584,4.05838 v 55.01689 c 0,2.24834 -1.8101,4.05838 -4.0584,4.05838 h -55.0169 c -2.2483,0 -4.0584,-1.81004 -4.0584,-4.05838 v -55.01689 c 0,-2.24834 1.8101,-4.05838 4.0584,-4.05838 z m 63.1337,0 h 55.0168 c 2.2484,0 4.0584,1.81004 4.0584,4.05838 v 55.01689 c 0,2.24834 -1.81,4.05838 -4.0584,4.05838 h -55.0168 c -2.2484,0 -4.0584,-1.81004 -4.0584,-4.05838 v -55.01689 c 0,-2.24834 1.81,-4.05838 4.0584,-4.05838 z m 63.1336,0 h 55.0169 c 2.2483,0 4.0584,1.81004 4.0584,4.05838 v 55.01689 c 0,2.24834 -1.8101,4.05838 -4.0584,4.05838 h -55.0169 c -2.2483,0 -4.0584,-1.81004 -4.0584,-4.05838 v -55.01689 c 0,-2.24834 1.8101,-4.05838 4.0584,-4.05838 z m 63.1337,0 h 55.0169 c 2.2483,0 4.0583,1.81004 4.0583,4.05838 v 55.01689 c 0,2.24834 -1.81,4.05838 -4.0583,4.05838 h -55.0169 c -2.2484,0 -4.0584,-1.81004 -4.0584,-4.05838 v -55.01689 c 0,-2.24834 1.81,-4.05838 4.0584,-4.05838 z M 326.50962,342.27833 h 55.01688 c 2.24835,0 4.05839,1.81004 4.05839,4.05839 v 55.01688 c 0,2.24835 -1.81004,4.05839 -4.05839,4.05839 h -55.01688 c -2.24835,0 -4.05839,-1.81004 -4.05839,-4.05839 v -55.01688 c 0,-2.24835 1.81004,-4.05839 4.05839,-4.05839 z m 63.13365,0 h 55.01689 c 2.24834,0 4.05838,1.81004 4.05838,4.05839 v 55.01688 c 0,2.24835 -1.81004,4.05839 -4.05838,4.05839 h -55.01689 c -2.24834,0 -4.05838,-1.81004 -4.05838,-4.05839 v -55.01688 c 0,-2.24835 1.81004,-4.05839 4.05838,-4.05839 z m 63.13366,0 h 55.01688 c 2.24835,0 4.05839,1.81004 4.05839,4.05839 v 55.01688 c 0,2.24835 -1.81004,4.05839 -4.05839,4.05839 h -55.01688 c -2.24835,0 -4.05839,-1.81004 -4.05839,-4.05839 v -55.01688 c 0,-2.24835 1.81004,-4.05839 4.05839,-4.05839 z m 63.13365,0 h 55.01689 c 2.24835,0 4.05839,1.81004 4.05839,4.05839 v 55.01688 c 0,2.24835 -1.81004,4.05839 -4.05839,4.05839 h -55.01689 c -2.24834,0 -4.05838,-1.81004 -4.05838,-4.05839 v -55.01688 c 0,-2.24835 1.81004,-4.05839 4.05838,-4.05839 z m 63.13366,0 h 55.01689 c 2.24834,0 4.05838,1.81004 4.05838,4.05839 v 55.01688 c 0,2.24835 -1.81004,4.05839 -4.05838,4.05839 h -55.01689 c -2.24835,0 -4.05838,-1.81004 -4.05838,-4.05839 v -55.01688 c 0,-2.24835 1.81003,-4.05839 4.05838,-4.05839 z m 63.13366,0 h 55.01688 c 2.24835,0 4.05839,1.81004 4.05839,4.05839 v 55.01688 c 0,2.24835 -1.81004,4.05839 -4.05839,4.05839 H 642.1779 c -2.24835,0 -4.05839,-1.81004 -4.05839,-4.05839 v -55.01688 c 0,-2.24835 1.81004,-4.05839 4.05839,-4.05839 z m 63.13365,0 h 55.01689 c 2.24834,0 4.05838,1.81004 4.05838,4.05839 v 55.01688 c 0,2.24835 -1.81004,4.05839 -4.05838,4.05839 h -55.01689 c -2.24834,0 -4.05838,-1.81004 -4.05838,-4.05839 v -55.01688 c 0,-2.24835 1.81004,-4.05839 4.05838,-4.05839 z m 63.13366,0 h 55.01688 c 2.24835,0 4.05839,1.81004 4.05839,4.05839 v 55.01688 c 0,2.24835 -1.81004,4.05839 -4.05839,4.05839 h -55.01688 c -2.24835,0 -4.05839,-1.81004 -4.05839,-4.05839 v -55.01688 c 0,-2.24835 1.81004,-4.05839 4.05839,-4.05839 z m 63.13365,0 h 55.01689 c 2.24834,0 4.05838,1.81004 4.05838,4.05839 v 55.01688 c 0,2.24835 -1.81004,4.05839 -4.05838,4.05839 h -55.01689 c -2.24834,0 -4.05838,-1.81004 -4.05838,-4.05839 v -55.01688 c 0,-2.24835 1.81004,-4.05839 4.05838,-4.05839 z m 63.13366,0 h 55.01688 c 2.24835,0 4.05839,1.81004 4.05839,4.05839 v 55.01688 c 0,2.24835 -1.81004,4.05839 -4.05839,4.05839 h -55.01688 c -2.24835,0 -4.05839,-1.81004 -4.05839,-4.05839 v -55.01688 c 0,-2.24835 1.81004,-4.05839 4.05839,-4.05839 z m 63.13365,0 h 55.01693 c 2.2483,0 4.0583,1.81004 4.0583,4.05839 v 55.01688 c 0,2.24835 -1.81,4.05839 -4.0583,4.05839 h -55.01693 c -2.24834,0 -4.05838,-1.81004 -4.05838,-4.05839 v -55.01688 c 0,-2.24835 1.81004,-4.05839 4.05838,-4.05839 z m 63.13363,0 h 55.0169 c 2.2484,0 4.0584,1.81004 4.0584,4.05839 v 55.01688 c 0,2.24835 -1.81,4.05839 -4.0584,4.05839 h -55.0169 c -2.2483,0 -4.0584,-1.81004 -4.0584,-4.05839 v -55.01688 c 0,-2.24835 1.8101,-4.05839 4.0584,-4.05839 z m 63.1337,0 h 55.0169 c 2.2483,0 4.0584,1.81004 4.0584,4.05839 v 55.01688 c 0,2.24835 -1.8101,4.05839 -4.0584,4.05839 h -55.0169 c -2.2484,0 -4.0584,-1.81004 -4.0584,-4.05839 v -55.01688 c 0,-2.24835 1.81,-4.05839 4.0584,-4.05839 z m 63.1336,0 h 55.0169 c 2.2484,0 4.0584,1.81004 4.0584,4.05839 v 55.01688 c 0,2.24835 -1.81,4.05839 -4.0584,4.05839 h -55.0169 c -2.2483,0 -4.0583,-1.81004 -4.0583,-4.05839 v -55.01688 c 0,-2.24835 1.81,-4.05839 4.0583,-4.05839 z m 63.1337,0 h 55.0169 c 2.2483,0 4.0584,1.81004 4.0584,4.05839 v 55.01688 c 0,2.24835 -1.8101,4.05839 -4.0584,4.05839 h -55.0169 c -2.2483,0 -4.0584,-1.81004 -4.0584,-4.05839 v -55.01688 c 0,-2.24835 1.8101,-4.05839 4.0584,-4.05839 z m 63.1337,0 h 55.0168 c 2.2484,0 4.0584,1.81004 4.0584,4.05839 v 55.01688 c 0,2.24835 -1.81,4.05839 -4.0584,4.05839 h -55.0168 c -2.2484,0 -4.0584,-1.81004 -4.0584,-4.05839 v -55.01688 c 0,-2.24835 1.81,-4.05839 4.0584,-4.05839 z m 63.1336,0 h 55.0169 c 2.2483,0 4.0584,1.81004 4.0584,4.05839 v 55.01688 c 0,2.24835 -1.8101,4.05839 -4.0584,4.05839 h -55.0169 c -2.2483,0 -4.0584,-1.81004 -4.0584,-4.05839 v -55.01688 c 0,-2.24835 1.8101,-4.05839 4.0584,-4.05839 z m 63.1337,0 h 55.0168 c 2.2484,0 4.0584,1.81004 4.0584,4.05839 v 55.01688 c 0,2.24835 -1.81,4.05839 -4.0584,4.05839 h -55.0168 c -2.2484,0 -4.0584,-1.81004 -4.0584,-4.05839 v -55.01688 c 0,-2.24835 1.81,-4.05839 4.0584,-4.05839 z m 63.1336,0 h 55.0169 c 2.2483,0 4.0584,1.81004 4.0584,4.05839 v 55.01688 c 0,2.24835 -1.8101,4.05839 -4.0584,4.05839 h -55.0169 c -2.2483,0 -4.0584,-1.81004 -4.0584,-4.05839 v -55.01688 c 0,-2.24835 1.8101,-4.05839 4.0584,-4.05839 z m 63.1337,0 h 55.0169 c 2.2483,0 4.0583,1.81004 4.0583,4.05839 v 55.01688 c 0,2.24835 -1.81,4.05839 -4.0583,4.05839 h -55.0169 c -2.2484,0 -4.0584,-1.81004 -4.0584,-4.05839 v -55.01688 c 0,-2.24835 1.81,-4.05839 4.0584,-4.05839 z M 326.50962,405.41199 h 55.01688 c 2.24835,0 4.05839,1.81004 4.05839,4.05838 v 55.01689 c 0,2.24834 -1.81004,4.05838 -4.05839,4.05838 h -55.01688 c -2.24835,0 -4.05839,-1.81004 -4.05839,-4.05838 v -55.01689 c 0,-2.24834 1.81004,-4.05838 4.05839,-4.05838 z m 63.13365,0 h 55.01689 c 2.24834,0 4.05838,1.81004 4.05838,4.05838 v 55.01689 c 0,2.24834 -1.81004,4.05838 -4.05838,4.05838 h -55.01689 c -2.24834,0 -4.05838,-1.81004 -4.05838,-4.05838 v -55.01689 c 0,-2.24834 1.81004,-4.05838 4.05838,-4.05838 z m 63.13366,0 h 55.01688 c 2.24835,0 4.05839,1.81004 4.05839,4.05838 v 55.01689 c 0,2.24834 -1.81004,4.05838 -4.05839,4.05838 h -55.01688 c -2.24835,0 -4.05839,-1.81004 -4.05839,-4.05838 v -55.01689 c 0,-2.24834 1.81004,-4.05838 4.05839,-4.05838 z m 63.13365,0 h 55.01689 c 2.24835,0 4.05839,1.81004 4.05839,4.05838 v 55.01689 c 0,2.24834 -1.81004,4.05838 -4.05839,4.05838 h -55.01689 c -2.24834,0 -4.05838,-1.81004 -4.05838,-4.05838 v -55.01689 c 0,-2.24834 1.81004,-4.05838 4.05838,-4.05838 z m 63.13366,0 h 55.01689 c 2.24834,0 4.05838,1.81004 4.05838,4.05838 v 55.01689 c 0,2.24834 -1.81004,4.05838 -4.05838,4.05838 h -55.01689 c -2.24835,0 -4.05838,-1.81004 -4.05838,-4.05838 v -55.01689 c 0,-2.24834 1.81003,-4.05838 4.05838,-4.05838 z m 63.13366,0 h 55.01688 c 2.24835,0 4.05839,1.81004 4.05839,4.05838 v 55.01689 c 0,2.24834 -1.81004,4.05838 -4.05839,4.05838 H 642.1779 c -2.24835,0 -4.05839,-1.81004 -4.05839,-4.05838 v -55.01689 c 0,-2.24834 1.81004,-4.05838 4.05839,-4.05838 z m 63.13365,0 h 55.01689 c 2.24834,0 4.05838,1.81004 4.05838,4.05838 v 55.01689 c 0,2.24834 -1.81004,4.05838 -4.05838,4.05838 h -55.01689 c -2.24834,0 -4.05838,-1.81004 -4.05838,-4.05838 v -55.01689 c 0,-2.24834 1.81004,-4.05838 4.05838,-4.05838 z m 63.13366,0 h 55.01688 c 2.24835,0 4.05839,1.81004 4.05839,4.05838 v 55.01689 c 0,2.24834 -1.81004,4.05838 -4.05839,4.05838 h -55.01688 c -2.24835,0 -4.05839,-1.81004 -4.05839,-4.05838 v -55.01689 c 0,-2.24834 1.81004,-4.05838 4.05839,-4.05838 z m 63.13365,0 h 55.01689 c 2.24834,0 4.05838,1.81004 4.05838,4.05838 v 55.01689 c 0,2.24834 -1.81004,4.05838 -4.05838,4.05838 h -55.01689 c -2.24834,0 -4.05838,-1.81004 -4.05838,-4.05838 v -55.01689 c 0,-2.24834 1.81004,-4.05838 4.05838,-4.05838 z m 63.13366,0 h 55.01688 c 2.24835,0 4.05839,1.81004 4.05839,4.05838 v 55.01689 c 0,2.24834 -1.81004,4.05838 -4.05839,4.05838 h -55.01688 c -2.24835,0 -4.05839,-1.81004 -4.05839,-4.05838 v -55.01689 c 0,-2.24834 1.81004,-4.05838 4.05839,-4.05838 z m 63.13365,0 h 55.01693 c 2.2483,0 4.0583,1.81004 4.0583,4.05838 v 55.01689 c 0,2.24834 -1.81,4.05838 -4.0583,4.05838 h -55.01693 c -2.24834,0 -4.05838,-1.81004 -4.05838,-4.05838 v -55.01689 c 0,-2.24834 1.81004,-4.05838 4.05838,-4.05838 z m 63.13363,0 h 55.0169 c 2.2484,0 4.0584,1.81004 4.0584,4.05838 v 55.01689 c 0,2.24834 -1.81,4.05838 -4.0584,4.05838 h -55.0169 c -2.2483,0 -4.0584,-1.81004 -4.0584,-4.05838 v -55.01689 c 0,-2.24834 1.8101,-4.05838 4.0584,-4.05838 z m 63.1337,0 h 55.0169 c 2.2483,0 4.0584,1.81004 4.0584,4.05838 v 55.01689 c 0,2.24834 -1.8101,4.05838 -4.0584,4.05838 h -55.0169 c -2.2484,0 -4.0584,-1.81004 -4.0584,-4.05838 v -55.01689 c 0,-2.24834 1.81,-4.05838 4.0584,-4.05838 z m 63.1336,0 h 55.0169 c 2.2484,0 4.0584,1.81004 4.0584,4.05838 v 55.01689 c 0,2.24834 -1.81,4.05838 -4.0584,4.05838 h -55.0169 c -2.2483,0 -4.0583,-1.81004 -4.0583,-4.05838 v -55.01689 c 0,-2.24834 1.81,-4.05838 4.0583,-4.05838 z m 63.1337,0 h 55.0169 c 2.2483,0 4.0584,1.81004 4.0584,4.05838 v 55.01689 c 0,2.24834 -1.8101,4.05838 -4.0584,4.05838 h -55.0169 c -2.2483,0 -4.0584,-1.81004 -4.0584,-4.05838 v -55.01689 c 0,-2.24834 1.8101,-4.05838 4.0584,-4.05838 z m 63.1337,0 h 55.0168 c 2.2484,0 4.0584,1.81004 4.0584,4.05838 v 55.01689 c 0,2.24834 -1.81,4.05838 -4.0584,4.05838 h -55.0168 c -2.2484,0 -4.0584,-1.81004 -4.0584,-4.05838 v -55.01689 c 0,-2.24834 1.81,-4.05838 4.0584,-4.05838 z m 63.1336,0 h 55.0169 c 2.2483,0 4.0584,1.81004 4.0584,4.05838 v 55.01689 c 0,2.24834 -1.8101,4.05838 -4.0584,4.05838 h -55.0169 c -2.2483,0 -4.0584,-1.81004 -4.0584,-4.05838 v -55.01689 c 0,-2.24834 1.8101,-4.05838 4.0584,-4.05838 z m 63.1337,0 h 55.0168 c 2.2484,0 4.0584,1.81004 4.0584,4.05838 v 55.01689 c 0,2.24834 -1.81,4.05838 -4.0584,4.05838 h -55.0168 c -2.2484,0 -4.0584,-1.81004 -4.0584,-4.05838 v -55.01689 c 0,-2.24834 1.81,-4.05838 4.0584,-4.05838 z m 63.1336,0 h 55.0169 c 2.2483,0 4.0584,1.81004 4.0584,4.05838 v 55.01689 c 0,2.24834 -1.8101,4.05838 -4.0584,4.05838 h -55.0169 c -2.2483,0 -4.0584,-1.81004 -4.0584,-4.05838 v -55.01689 c 0,-2.24834 1.8101,-4.05838 4.0584,-4.05838 z m 63.1337,0 h 55.0169 c 2.2483,0 4.0583,1.81004 4.0583,4.05838 v 55.01689 c 0,2.24834 -1.81,4.05838 -4.0583,4.05838 h -55.0169 c -2.2484,0 -4.0584,-1.81004 -4.0584,-4.05838 v -55.01689 c 0,-2.24834 1.81,-4.05838 4.0584,-4.05838 z M 326.50962,468.54564 h 55.01688 c 2.24835,0 4.05839,1.81004 4.05839,4.05839 v 55.01688 c 0,2.24835 -1.81004,4.05839 -4.05839,4.05839 h -55.01688 c -2.24835,0 -4.05839,-1.81004 -4.05839,-4.05839 v -55.01688 c 0,-2.24835 1.81004,-4.05839 4.05839,-4.05839 z m 63.13365,0 h 55.01689 c 2.24834,0 4.05838,1.81004 4.05838,4.05839 v 55.01688 c 0,2.24835 -1.81004,4.05839 -4.05838,4.05839 h -55.01689 c -2.24834,0 -4.05838,-1.81004 -4.05838,-4.05839 v -55.01688 c 0,-2.24835 1.81004,-4.05839 4.05838,-4.05839 z m 63.13366,0 h 55.01688 c 2.24835,0 4.05839,1.81004 4.05839,4.05839 v 55.01688 c 0,2.24835 -1.81004,4.05839 -4.05839,4.05839 h -55.01688 c -2.24835,0 -4.05839,-1.81004 -4.05839,-4.05839 v -55.01688 c 0,-2.24835 1.81004,-4.05839 4.05839,-4.05839 z m 63.13365,0 h 55.01689 c 2.24835,0 4.05839,1.81004 4.05839,4.05839 v 55.01688 c 0,2.24835 -1.81004,4.05839 -4.05839,4.05839 h -55.01689 c -2.24834,0 -4.05838,-1.81004 -4.05838,-4.05839 v -55.01688 c 0,-2.24835 1.81004,-4.05839 4.05838,-4.05839 z m 63.13366,0 h 55.01689 c 2.24834,0 4.05838,1.81004 4.05838,4.05839 v 55.01688 c 0,2.24835 -1.81004,4.05839 -4.05838,4.05839 h -55.01689 c -2.24835,0 -4.05838,-1.81004 -4.05838,-4.05839 v -55.01688 c 0,-2.24835 1.81003,-4.05839 4.05838,-4.05839 z m 63.13366,0 h 55.01688 c 2.24835,0 4.05839,1.81004 4.05839,4.05839 v 55.01688 c 0,2.24835 -1.81004,4.05839 -4.05839,4.05839 H 642.1779 c -2.24835,0 -4.05839,-1.81004 -4.05839,-4.05839 v -55.01688 c 0,-2.24835 1.81004,-4.05839 4.05839,-4.05839 z m 63.13365,0 h 55.01689 c 2.24834,0 4.05838,1.81004 4.05838,4.05839 v 55.01688 c 0,2.24835 -1.81004,4.05839 -4.05838,4.05839 h -55.01689 c -2.24834,0 -4.05838,-1.81004 -4.05838,-4.05839 v -55.01688 c 0,-2.24835 1.81004,-4.05839 4.05838,-4.05839 z m 63.13366,0 h 55.01688 c 2.24835,0 4.05839,1.81004 4.05839,4.05839 v 55.01688 c 0,2.24835 -1.81004,4.05839 -4.05839,4.05839 h -55.01688 c -2.24835,0 -4.05839,-1.81004 -4.05839,-4.05839 v -55.01688 c 0,-2.24835 1.81004,-4.05839 4.05839,-4.05839 z m 63.13365,0 h 55.01689 c 2.24834,0 4.05838,1.81004 4.05838,4.05839 v 55.01688 c 0,2.24835 -1.81004,4.05839 -4.05838,4.05839 h -55.01689 c -2.24834,0 -4.05838,-1.81004 -4.05838,-4.05839 v -55.01688 c 0,-2.24835 1.81004,-4.05839 4.05838,-4.05839 z m 63.13366,0 h 55.01688 c 2.24835,0 4.05839,1.81004 4.05839,4.05839 v 55.01688 c 0,2.24835 -1.81004,4.05839 -4.05839,4.05839 h -55.01688 c -2.24835,0 -4.05839,-1.81004 -4.05839,-4.05839 v -55.01688 c 0,-2.24835 1.81004,-4.05839 4.05839,-4.05839 z m 63.13365,0 h 55.01693 c 2.2483,0 4.0583,1.81004 4.0583,4.05839 v 55.01688 c 0,2.24835 -1.81,4.05839 -4.0583,4.05839 h -55.01693 c -2.24834,0 -4.05838,-1.81004 -4.05838,-4.05839 v -55.01688 c 0,-2.24835 1.81004,-4.05839 4.05838,-4.05839 z m 63.13363,0 h 55.0169 c 2.2484,0 4.0584,1.81004 4.0584,4.05839 v 55.01688 c 0,2.24835 -1.81,4.05839 -4.0584,4.05839 h -55.0169 c -2.2483,0 -4.0584,-1.81004 -4.0584,-4.05839 v -55.01688 c 0,-2.24835 1.8101,-4.05839 4.0584,-4.05839 z m 63.1337,0 h 55.0169 c 2.2483,0 4.0584,1.81004 4.0584,4.05839 v 55.01688 c 0,2.24835 -1.8101,4.05839 -4.0584,4.05839 h -55.0169 c -2.2484,0 -4.0584,-1.81004 -4.0584,-4.05839 v -55.01688 c 0,-2.24835 1.81,-4.05839 4.0584,-4.05839 z m 63.1336,0 h 55.0169 c 2.2484,0 4.0584,1.81004 4.0584,4.05839 v 55.01688 c 0,2.24835 -1.81,4.05839 -4.0584,4.05839 h -55.0169 c -2.2483,0 -4.0583,-1.81004 -4.0583,-4.05839 v -55.01688 c 0,-2.24835 1.81,-4.05839 4.0583,-4.05839 z m 63.1337,0 h 55.0169 c 2.2483,0 4.0584,1.81004 4.0584,4.05839 v 55.01688 c 0,2.24835 -1.8101,4.05839 -4.0584,4.05839 h -55.0169 c -2.2483,0 -4.0584,-1.81004 -4.0584,-4.05839 v -55.01688 c 0,-2.24835 1.8101,-4.05839 4.0584,-4.05839 z m 63.1337,0 h 55.0168 c 2.2484,0 4.0584,1.81004 4.0584,4.05839 v 55.01688 c 0,2.24835 -1.81,4.05839 -4.0584,4.05839 h -55.0168 c -2.2484,0 -4.0584,-1.81004 -4.0584,-4.05839 v -55.01688 c 0,-2.24835 1.81,-4.05839 4.0584,-4.05839 z m 63.1336,0 h 55.0169 c 2.2483,0 4.0584,1.81004 4.0584,4.05839 v 55.01688 c 0,2.24835 -1.8101,4.05839 -4.0584,4.05839 h -55.0169 c -2.2483,0 -4.0584,-1.81004 -4.0584,-4.05839 v -55.01688 c 0,-2.24835 1.8101,-4.05839 4.0584,-4.05839 z m 63.1337,0 h 55.0168 c 2.2484,0 4.0584,1.81004 4.0584,4.05839 v 55.01688 c 0,2.24835 -1.81,4.05839 -4.0584,4.05839 h -55.0168 c -2.2484,0 -4.0584,-1.81004 -4.0584,-4.05839 v -55.01688 c 0,-2.24835 1.81,-4.05839 4.0584,-4.05839 z m 63.1336,0 h 55.0169 c 2.2483,0 4.0584,1.81004 4.0584,4.05839 v 55.01688 c 0,2.24835 -1.8101,4.05839 -4.0584,4.05839 h -55.0169 c -2.2483,0 -4.0584,-1.81004 -4.0584,-4.05839 v -55.01688 c 0,-2.24835 1.8101,-4.05839 4.0584,-4.05839 z m 63.1337,0 h 55.0169 c 2.2483,0 4.0583,1.81004 4.0583,4.05839 v 55.01688 c 0,2.24835 -1.81,4.05839 -4.0583,4.05839 h -55.0169 c -2.2484,0 -4.0584,-1.81004 -4.0584,-4.05839 v -55.01688 c 0,-2.24835 1.81,-4.05839 4.0584,-4.05839 z M 326.50962,531.6793 h 55.01688 c 2.24835,0 4.05839,1.81004 4.05839,4.05838 v 55.01689 c 0,2.24834 -1.81004,4.05838 -4.05839,4.05838 h -55.01688 c -2.24835,0 -4.05839,-1.81004 -4.05839,-4.05838 v -55.01689 c 0,-2.24834 1.81004,-4.05838 4.05839,-4.05838 z m 63.13365,0 h 55.01689 c 2.24834,0 4.05838,1.81004 4.05838,4.05838 v 55.01689 c 0,2.24834 -1.81004,4.05838 -4.05838,4.05838 h -55.01689 c -2.24834,0 -4.05838,-1.81004 -4.05838,-4.05838 v -55.01689 c 0,-2.24834 1.81004,-4.05838 4.05838,-4.05838 z m 63.13366,0 h 55.01688 c 2.24835,0 4.05839,1.81004 4.05839,4.05838 v 55.01689 c 0,2.24834 -1.81004,4.05838 -4.05839,4.05838 h -55.01688 c -2.24835,0 -4.05839,-1.81004 -4.05839,-4.05838 v -55.01689 c 0,-2.24834 1.81004,-4.05838 4.05839,-4.05838 z m 63.13365,0 h 55.01689 c 2.24835,0 4.05839,1.81004 4.05839,4.05838 v 55.01689 c 0,2.24834 -1.81004,4.05838 -4.05839,4.05838 h -55.01689 c -2.24834,0 -4.05838,-1.81004 -4.05838,-4.05838 v -55.01689 c 0,-2.24834 1.81004,-4.05838 4.05838,-4.05838 z m 63.13366,0 h 55.01689 c 2.24834,0 4.05838,1.81004 4.05838,4.05838 v 55.01689 c 0,2.24834 -1.81004,4.05838 -4.05838,4.05838 h -55.01689 c -2.24835,0 -4.05838,-1.81004 -4.05838,-4.05838 v -55.01689 c 0,-2.24834 1.81003,-4.05838 4.05838,-4.05838 z m 63.13366,0 h 55.01688 c 2.24835,0 4.05839,1.81004 4.05839,4.05838 v 55.01689 c 0,2.24834 -1.81004,4.05838 -4.05839,4.05838 H 642.1779 c -2.24835,0 -4.05839,-1.81004 -4.05839,-4.05838 v -55.01689 c 0,-2.24834 1.81004,-4.05838 4.05839,-4.05838 z m 63.13365,0 h 55.01689 c 2.24834,0 4.05838,1.81004 4.05838,4.05838 v 55.01689 c 0,2.24834 -1.81004,4.05838 -4.05838,4.05838 h -55.01689 c -2.24834,0 -4.05838,-1.81004 -4.05838,-4.05838 v -55.01689 c 0,-2.24834 1.81004,-4.05838 4.05838,-4.05838 z m 63.13366,0 h 55.01688 c 2.24835,0 4.05839,1.81004 4.05839,4.05838 v 55.01689 c 0,2.24834 -1.81004,4.05838 -4.05839,4.05838 h -55.01688 c -2.24835,0 -4.05839,-1.81004 -4.05839,-4.05838 v -55.01689 c 0,-2.24834 1.81004,-4.05838 4.05839,-4.05838 z m 63.13365,0 h 55.01689 c 2.24834,0 4.05838,1.81004 4.05838,4.05838 v 55.01689 c 0,2.24834 -1.81004,4.05838 -4.05838,4.05838 h -55.01689 c -2.24834,0 -4.05838,-1.81004 -4.05838,-4.05838 v -55.01689 c 0,-2.24834 1.81004,-4.05838 4.05838,-4.05838 z m 63.13366,0 h 55.01688 c 2.24835,0 4.05839,1.81004 4.05839,4.05838 v 55.01689 c 0,2.24834 -1.81004,4.05838 -4.05839,4.05838 h -55.01688 c -2.24835,0 -4.05839,-1.81004 -4.05839,-4.05838 v -55.01689 c 0,-2.24834 1.81004,-4.05838 4.05839,-4.05838 z m 63.13365,0 h 55.01693 c 2.2483,0 4.0583,1.81004 4.0583,4.05838 v 55.01689 c 0,2.24834 -1.81,4.05838 -4.0583,4.05838 h -55.01693 c -2.24834,0 -4.05838,-1.81004 -4.05838,-4.05838 v -55.01689 c 0,-2.24834 1.81004,-4.05838 4.05838,-4.05838 z m 63.13363,0 h 55.0169 c 2.2484,0 4.0584,1.81004 4.0584,4.05838 v 55.01689 c 0,2.24834 -1.81,4.05838 -4.0584,4.05838 h -55.0169 c -2.2483,0 -4.0584,-1.81004 -4.0584,-4.05838 v -55.01689 c 0,-2.24834 1.8101,-4.05838 4.0584,-4.05838 z m 63.1337,0 h 55.0169 c 2.2483,0 4.0584,1.81004 4.0584,4.05838 v 55.01689 c 0,2.24834 -1.8101,4.05838 -4.0584,4.05838 h -55.0169 c -2.2484,0 -4.0584,-1.81004 -4.0584,-4.05838 v -55.01689 c 0,-2.24834 1.81,-4.05838 4.0584,-4.05838 z m 63.1336,0 h 55.0169 c 2.2484,0 4.0584,1.81004 4.0584,4.05838 v 55.01689 c 0,2.24834 -1.81,4.05838 -4.0584,4.05838 h -55.0169 c -2.2483,0 -4.0583,-1.81004 -4.0583,-4.05838 v -55.01689 c 0,-2.24834 1.81,-4.05838 4.0583,-4.05838 z m 63.1337,0 h 55.0169 c 2.2483,0 4.0584,1.81004 4.0584,4.05838 v 55.01689 c 0,2.24834 -1.8101,4.05838 -4.0584,4.05838 h -55.0169 c -2.2483,0 -4.0584,-1.81004 -4.0584,-4.05838 v -55.01689 c 0,-2.24834 1.8101,-4.05838 4.0584,-4.05838 z m 63.1337,0 h 55.0168 c 2.2484,0 4.0584,1.81004 4.0584,4.05838 v 55.01689 c 0,2.24834 -1.81,4.05838 -4.0584,4.05838 h -55.0168 c -2.2484,0 -4.0584,-1.81004 -4.0584,-4.05838 v -55.01689 c 0,-2.24834 1.81,-4.05838 4.0584,-4.05838 z m 63.1336,0 h 55.0169 c 2.2483,0 4.0584,1.81004 4.0584,4.05838 v 55.01689 c 0,2.24834 -1.8101,4.05838 -4.0584,4.05838 h -55.0169 c -2.2483,0 -4.0584,-1.81004 -4.0584,-4.05838 v -55.01689 c 0,-2.24834 1.8101,-4.05838 4.0584,-4.05838 z m 63.1337,0 h 55.0168 c 2.2484,0 4.0584,1.81004 4.0584,4.05838 v 55.01689 c 0,2.24834 -1.81,4.05838 -4.0584,4.05838 h -55.0168 c -2.2484,0 -4.0584,-1.81004 -4.0584,-4.05838 v -55.01689 c 0,-2.24834 1.81,-4.05838 4.0584,-4.05838 z m 63.1336,0 h 55.0169 c 2.2483,0 4.0584,1.81004 4.0584,4.05838 v 55.01689 c 0,2.24834 -1.8101,4.05838 -4.0584,4.05838 h -55.0169 c -2.2483,0 -4.0584,-1.81004 -4.0584,-4.05838 v -55.01689 c 0,-2.24834 1.8101,-4.05838 4.0584,-4.05838 z m 63.1337,0 h 55.0169 c 2.2483,0 4.0583,1.81004 4.0583,4.05838 v 55.01689 c 0,2.24834 -1.81,4.05838 -4.0583,4.05838 h -55.0169 c -2.2484,0 -4.0584,-1.81004 -4.0584,-4.05838 v -55.01689 c 0,-2.24834 1.81,-4.05838 4.0584,-4.05838 z M 326.50962,594.81295 h 55.01688 c 2.24835,0 4.05839,1.81004 4.05839,4.05839 v 55.01688 c 0,2.24835 -1.81004,4.05839 -4.05839,4.05839 h -55.01688 c -2.24835,0 -4.05839,-1.81004 -4.05839,-4.05839 v -55.01688 c 0,-2.24835 1.81004,-4.05839 4.05839,-4.05839 z m 63.13365,0 h 55.01689 c 2.24834,0 4.05838,1.81004 4.05838,4.05839 v 55.01688 c 0,2.24835 -1.81004,4.05839 -4.05838,4.05839 h -55.01689 c -2.24834,0 -4.05838,-1.81004 -4.05838,-4.05839 v -55.01688 c 0,-2.24835 1.81004,-4.05839 4.05838,-4.05839 z m 63.13366,0 h 55.01688 c 2.24835,0 4.05839,1.81004 4.05839,4.05839 v 55.01688 c 0,2.24835 -1.81004,4.05839 -4.05839,4.05839 h -55.01688 c -2.24835,0 -4.05839,-1.81004 -4.05839,-4.05839 v -55.01688 c 0,-2.24835 1.81004,-4.05839 4.05839,-4.05839 z m 63.13365,0 h 55.01689 c 2.24835,0 4.05839,1.81004 4.05839,4.05839 v 55.01688 c 0,2.24835 -1.81004,4.05839 -4.05839,4.05839 h -55.01689 c -2.24834,0 -4.05838,-1.81004 -4.05838,-4.05839 v -55.01688 c 0,-2.24835 1.81004,-4.05839 4.05838,-4.05839 z m 63.13366,0 h 55.01689 c 2.24834,0 4.05838,1.81004 4.05838,4.05839 v 55.01688 c 0,2.24835 -1.81004,4.05839 -4.05838,4.05839 h -55.01689 c -2.24835,0 -4.05838,-1.81004 -4.05838,-4.05839 v -55.01688 c 0,-2.24835 1.81003,-4.05839 4.05838,-4.05839 z m 63.13366,0 h 55.01688 c 2.24835,0 4.05839,1.81004 4.05839,4.05839 v 55.01688 c 0,2.24835 -1.81004,4.05839 -4.05839,4.05839 H 642.1779 c -2.24835,0 -4.05839,-1.81004 -4.05839,-4.05839 v -55.01688 c 0,-2.24835 1.81004,-4.05839 4.05839,-4.05839 z m 63.13365,0 h 55.01689 c 2.24834,0 4.05838,1.81004 4.05838,4.05839 v 55.01688 c 0,2.24835 -1.81004,4.05839 -4.05838,4.05839 h -55.01689 c -2.24834,0 -4.05838,-1.81004 -4.05838,-4.05839 v -55.01688 c 0,-2.24835 1.81004,-4.05839 4.05838,-4.05839 z m 63.13366,0 h 55.01688 c 2.24835,0 4.05839,1.81004 4.05839,4.05839 v 55.01688 c 0,2.24835 -1.81004,4.05839 -4.05839,4.05839 h -55.01688 c -2.24835,0 -4.05839,-1.81004 -4.05839,-4.05839 v -55.01688 c 0,-2.24835 1.81004,-4.05839 4.05839,-4.05839 z m 63.13365,0 h 55.01689 c 2.24834,0 4.05838,1.81004 4.05838,4.05839 v 55.01688 c 0,2.24835 -1.81004,4.05839 -4.05838,4.05839 h -55.01689 c -2.24834,0 -4.05838,-1.81004 -4.05838,-4.05839 v -55.01688 c 0,-2.24835 1.81004,-4.05839 4.05838,-4.05839 z m 63.13366,0 h 55.01688 c 2.24835,0 4.05839,1.81004 4.05839,4.05839 v 55.01688 c 0,2.24835 -1.81004,4.05839 -4.05839,4.05839 h -55.01688 c -2.24835,0 -4.05839,-1.81004 -4.05839,-4.05839 v -55.01688 c 0,-2.24835 1.81004,-4.05839 4.05839,-4.05839 z m 63.13365,0 h 55.01693 c 2.2483,0 4.0583,1.81004 4.0583,4.05839 v 55.01688 c 0,2.24835 -1.81,4.05839 -4.0583,4.05839 h -55.01693 c -2.24834,0 -4.05838,-1.81004 -4.05838,-4.05839 v -55.01688 c 0,-2.24835 1.81004,-4.05839 4.05838,-4.05839 z m 63.13363,0 h 55.0169 c 2.2484,0 4.0584,1.81004 4.0584,4.05839 v 55.01688 c 0,2.24835 -1.81,4.05839 -4.0584,4.05839 h -55.0169 c -2.2483,0 -4.0584,-1.81004 -4.0584,-4.05839 v -55.01688 c 0,-2.24835 1.8101,-4.05839 4.0584,-4.05839 z m 63.1337,0 h 55.0169 c 2.2483,0 4.0584,1.81004 4.0584,4.05839 v 55.01688 c 0,2.24835 -1.8101,4.05839 -4.0584,4.05839 h -55.0169 c -2.2484,0 -4.0584,-1.81004 -4.0584,-4.05839 v -55.01688 c 0,-2.24835 1.81,-4.05839 4.0584,-4.05839 z m 63.1336,0 h 55.0169 c 2.2484,0 4.0584,1.81004 4.0584,4.05839 v 55.01688 c 0,2.24835 -1.81,4.05839 -4.0584,4.05839 h -55.0169 c -2.2483,0 -4.0583,-1.81004 -4.0583,-4.05839 v -55.01688 c 0,-2.24835 1.81,-4.05839 4.0583,-4.05839 z m 63.1337,0 h 55.0169 c 2.2483,0 4.0584,1.81004 4.0584,4.05839 v 55.01688 c 0,2.24835 -1.8101,4.05839 -4.0584,4.05839 h -55.0169 c -2.2483,0 -4.0584,-1.81004 -4.0584,-4.05839 v -55.01688 c 0,-2.24835 1.8101,-4.05839 4.0584,-4.05839 z m 63.1337,0 h 55.0168 c 2.2484,0 4.0584,1.81004 4.0584,4.05839 v 55.01688 c 0,2.24835 -1.81,4.05839 -4.0584,4.05839 h -55.0168 c -2.2484,0 -4.0584,-1.81004 -4.0584,-4.05839 v -55.01688 c 0,-2.24835 1.81,-4.05839 4.0584,-4.05839 z m 63.1336,0 h 55.0169 c 2.2483,0 4.0584,1.81004 4.0584,4.05839 v 55.01688 c 0,2.24835 -1.8101,4.05839 -4.0584,4.05839 h -55.0169 c -2.2483,0 -4.0584,-1.81004 -4.0584,-4.05839 v -55.01688 c 0,-2.24835 1.8101,-4.05839 4.0584,-4.05839 z m 63.1337,0 h 55.0168 c 2.2484,0 4.0584,1.81004 4.0584,4.05839 v 55.01688 c 0,2.24835 -1.81,4.05839 -4.0584,4.05839 h -55.0168 c -2.2484,0 -4.0584,-1.81004 -4.0584,-4.05839 v -55.01688 c 0,-2.24835 1.81,-4.05839 4.0584,-4.05839 z m 63.1336,0 h 55.0169 c 2.2483,0 4.0584,1.81004 4.0584,4.05839 v 55.01688 c 0,2.24835 -1.8101,4.05839 -4.0584,4.05839 h -55.0169 c -2.2483,0 -4.0584,-1.81004 -4.0584,-4.05839 v -55.01688 c 0,-2.24835 1.8101,-4.05839 4.0584,-4.05839 z m 63.1337,0 h 55.0169 c 2.2483,0 4.0583,1.81004 4.0583,4.05839 v 55.01688 c 0,2.24835 -1.81,4.05839 -4.0583,4.05839 h -55.0169 c -2.2484,0 -4.0584,-1.81004 -4.0584,-4.05839 v -55.01688 c 0,-2.24835 1.81,-4.05839 4.0584,-4.05839 z"
       transform="matrix(0.47486905,0,0,0.40459213,-196.85301,-362.77376)"
       inkscape:export-filename="Ground.svg"
       inkscape:export-xdpi="96"
       inkscape:export-ydpi="96" />
    <path
       style="fill:#d7d6ce;stroke:#d7d6ce;stroke-width:1;fill-opacity:0.8637681"
       d="m 31.385554,45.472201 c 1.132138,8.872001 5.610079,25.583904 8.479263,31.58787 2.869184,6.003967 4.129559,1.300182 6.50684,-7.571949 2.37728,-8.872131 5.871301,-21.911994 4.108891,-28.432054 -1.762409,-6.520061 -8.781035,-6.520061 -13.397274,-6.004002 -4.616238,0.516058 -6.829858,1.548134 -5.69772,10.420135 z"
       id="path1"
       inkscape:path-effect="#path-effect1"
       inkscape:original-d="m 28.03975,37.632298 c 4.477943,16.711904 8.955884,33.423807 13.433825,50.135713 1.260424,-4.703974 2.520801,-9.407758 3.781202,-14.111637 3.494159,-13.040383 6.98818,-26.080246 10.482271,-39.120367 -7.018909,0 -14.037535,0 -21.056304,0 -2.213708,1.032118 -4.427328,2.064194 -6.640994,3.096291 z"
       transform="matrix(0.41030958,0,0,0.25692406,37.299941,70.429241)"
       inkscape:export-filename="FlowerHolder.svg"
       inkscape:export-xdpi="96"
       inkscape:export-ydpi="96" />
    <path
       style="fill:#d7d6ce;fill-opacity:0.863768;stroke:#d7d6ce;stroke-width:1"
       d="m 31.385554,45.472201 c 1.132138,8.872001 5.610079,25.583904 8.479263,31.58787 2.869184,6.003967 4.129559,1.300182 6.50684,-7.571949 2.37728,-8.872131 5.871301,-21.911994 4.108891,-28.432054 -1.762409,-6.520061 -8.781035,-6.520061 -13.397274,-6.004002 -4.616238,0.516058 -6.829858,1.548134 -5.69772,10.420135 z"
       id="path2"
       inkscape:path-effect="#path-effect3"
       inkscape:original-d="m 28.03975,37.632298 c 4.477943,16.711904 8.955884,33.423807 13.433825,50.135713 1.260424,-4.703974 2.520801,-9.407758 3.781202,-14.111637 3.494159,-13.040383 6.98818,-26.080246 10.482271,-39.120367 -7.018909,0 -14.037535,0 -21.056304,0 -2.213708,1.032118 -4.427328,2.064194 -6.640994,3.096291 z"
       transform="matrix(1.277264,0,0,0.799786,-31.481591,27.781608)"
       inkscape:export-filename="FlowerHolderBig.svg"
       inkscape:export-xdpi="96"
       inkscape:export-ydpi="96" />
    <g
       id="g7"
       transform="matrix(0.69041676,0,0,0.69041676,3.6559463,13.688996)"
       inkscape:export-filename="Planter.svg"
       inkscape:export-xdpi="96"
       inkscape:export-ydpi="96">
      <path
         id="rect3"
         style="fill:#63342f;stroke:#63342f;stroke-opacity:1"
         d="m 36.601456,180.30773 c -7.081919,0 -12.783199,5.70127 -12.783199,12.7832 0,6.54797 4.877387,11.9056 11.210168,12.67778 -0.589927,1.47329 -0.922424,3.07976 -0.922424,4.7687 v 30.14389 c 0,7.08192 5.701797,12.7832 12.783717,12.7832 h 30.1439 c 7.08191,0 12.78319,-5.70128 12.78319,-12.7832 v -30.14389 c 0,-1.67148 -0.3275,-3.26134 -0.90588,-4.72219 6.52562,-0.59092 11.606522,-6.03964 11.606522,-12.72429 0,-7.08193 -5.701282,-12.7832 -12.783202,-12.7832 z"
         inkscape:export-filename="Planter.svg"
         inkscape:export-xdpi="96"
         inkscape:export-ydpi="96" />
      <rect
         style="fill:#211f21;fill-opacity:1;stroke:#211f21;stroke-width:0.811316"
         id="rect4"
         width="48.297489"
         height="8.3054543"
         x="38.019108"
         y="180.29506"
         ry="4.1527271" />
      <rect
         style="fill:#bfbdc9;fill-opacity:1;stroke:#bfbdc9;stroke-width:1.79573;stroke-opacity:1"
         id="rect1"
         width="263.6358"
         height="18.35593"
         x="305.35251"
         y="255.01723"
         inkscape:export-filename="Shelf.svg"
         inkscape:export-xdpi="96"
         inkscape:export-ydpi="96" />
      <rect
         style="fill:#bfbdc9;fill-opacity:1;stroke:#bfbdc9;stroke-width:1.79573;stroke-opacity:1"
         id="rect2"
         width="263.6358"
         height="18.35593"
         x="305.35251"
         y="362.42737" />
      <rect
         style="fill:#bfbdc9;fill-opacity:1;stroke:#bfbdc9;stroke-width:1.4484;stroke-opacity:1"
         id="rect14"
         width="5.3437881"
         height="110.08204"
         x="311.05698"
         y="263.39365" />
      <rect
         style="fill:#bfbdc9;fill-opacity:1;stroke:#bfbdc9;stroke-width:1.4484;stroke-opacity:1"
         id="rect15"
         width="5.3437881"
         height="110.08204"
         x="557.40564"
         y="263.39365" />
      <path
         id="rect17"
         d="m 558.47656,42.898437 14.73633,24.939454 -14.73633,36.273439 h 35.51953 0.37696 0.375 35.51953 L 615.53125,67.837891 630.26758,42.898437 h -35.51953 -0.375 -0.37696 z"
         style="fill:#ffec8c;fill-opacity:1;stroke:#ffcc5d;stroke-width:2.8968;stroke-dasharray:none;stroke-opacity:1"
         inkscape:path-effect="#path-effect19"
         inkscape:original-d="m 558.47656,42.898437 14.73665,24.938604 -14.73665,36.274289 h 35.51953 35.51758 V 42.898437 h -35.51758 z"
         sodipodi:nodetypes="cccccccc"
         transform="translate(-29.095447,21.160316)"
         inkscape:export-filename="Light.svg"
         inkscape:export-xdpi="96"
         inkscape:export-ydpi="96" />
      <circle
         style="fill:#ffffff;fill-opacity:1;stroke:#ffffff;stroke-width:2.8968;stroke-dasharray:none;stroke-opacity:1"
         id="path19"
         cx="914.80084"
         cy="158.90199"
         r="85.774879"
         inkscape:export-filename="LightRadius.svg"
         inkscape:export-xdpi="96"
         inkscape:export-ydpi="96" />
    </g>
    <g
       id="g8"
       transform="translate(-137.98509,23.612422)">
      <rect
         style="fill:#f0eabb;fill-opacity:1;stroke:#a46935;stroke-width:1.11225"
         id="rect5"
         width="92.784332"
         height="78.841797"
         x="147.81599"
         y="175.30457"
         ry="4.0526152"
         rx="0" />
      <rect
         style="fill:#63342f;fill-opacity:1;stroke:#a46935;stroke-width:1"
         id="rect6"
         width="94.08075"
         height="8.8546591"
         x="147.16779"
         y="166.02484"
         ry="4.0583849"
         rx="0" />
      <rect
         style="fill:#dfc986;fill-opacity:1;stroke:#dfc986;stroke-width:1"
         id="rect7"
         width="76.740372"
         height="68.254662"
         x="154.58757"
         y="180.41367"
         ry="4.0583849" />
    </g>
    <g
       id="g10"
       transform="translate(-32.857743,22.568891)"
       inkscape:export-filename="Counter.svg"
       inkscape:export-xdpi="96"
       inkscape:export-ydpi="96">
      <rect
         style="fill:#f0eabb;fill-opacity:1;stroke:#a46935;stroke-width:1.11225"
         id="rect8"
         width="92.784332"
         height="78.841797"
         x="147.81599"
         y="175.30457"
         ry="4.0526152"
         rx="0" />
      <rect
         style="fill:#63342f;fill-opacity:1;stroke:#a46935;stroke-width:1"
         id="rect9"
         width="94.08075"
         height="8.8546591"
         x="147.16779"
         y="166.02484"
         ry="4.0583849"
         rx="0" />
      <rect
         style="fill:#dfc986;fill-opacity:1;stroke:#dfc986;stroke-width:1"
         id="rect10"
         width="76.740372"
         height="68.254662"
         x="154.58757"
         y="180.41367"
         ry="4.0583849" />
    </g>
    <rect
       style="fill:#ffffff;fill-opacity:1;stroke:#dfc986;stroke-width:1.07816"
       id="rect12"
       width="601.51776"
       height="11.400683"
       x="-44.832771"
       y="-101.18346"
       ry="4.0307498"
       inkscape:export-filename="Wall.svg"
       inkscape:export-xdpi="96"
       inkscape:export-ydpi="96" />
    <path
       style="fill:#ba824a;fill-opacity:1;stroke:#a46935;stroke-width:1"
       id="rect13"
       width="88.546577"
       height="14.757764"
       x="-10.330435"
       y="-72.313042"
       ry="0"
       sodipodi:type="rect"
       transform="translate(-47.480684,-16.696504)"
       inkscape:path-effect="#path-effect14"
       d="m -10.330435,-72.313042 h 88.546578 v 14.757764 h -88.546578 z m 88.546578,0 h 88.546577 v 14.757764 H 78.216143 Z m 88.546577,0 h 88.54658 v 14.757764 h -88.54658 z m 88.54658,0 h 88.54658 v 14.757764 H 255.3093 Z m 88.54658,0 h 88.54657 v 14.757764 h -88.54657 z m 88.54657,0 h 88.54658 v 14.757764 h -88.54658 z m 88.54658,0 h 88.54658 v 14.757764 h -88.54658 z m -531.279465,14.757764 h 88.546578 v 14.757764 h -88.546578 z m 88.546578,0 h 88.546577 v 14.757764 H 78.216143 Z m 88.546577,0 h 88.54658 v 14.757764 h -88.54658 z m 88.54658,0 h 88.54658 v 14.757764 H 255.3093 Z m 88.54658,0 h 88.54657 v 14.757764 h -88.54657 z m 88.54657,0 h 88.54658 v 14.757764 h -88.54658 z m 88.54658,0 h 88.54658 v 14.757764 h -88.54658 z m -531.279465,14.757764 h 88.546578 v 14.757764 h -88.546578 z m 88.546578,0 H 166.76272 V -28.03975 H 78.216143 Z m 88.546577,0 h 88.54658 v 14.757764 h -88.54658 z m 88.54658,0 h 88.54658 V -28.03975 H 255.3093 Z m 88.54658,0 h 88.54657 v 14.757764 h -88.54657 z m 88.54657,0 h 88.54658 v 14.757764 h -88.54658 z m 88.54658,0 h 88.54658 V -28.03975 H 520.94903 Z M -10.330435,-28.03975 h 88.546578 v 14.757764 h -88.546578 z m 88.546578,0 h 88.546577 v 14.757764 H 78.216143 Z m 88.546577,0 h 88.54658 v 14.757764 h -88.54658 z m 88.54658,0 h 88.54658 v 14.757764 H 255.3093 Z m 88.54658,0 h 88.54657 v 14.757764 h -88.54657 z m 88.54657,0 h 88.54658 v 14.757764 h -88.54658 z m 88.54658,0 h 88.54658 v 14.757764 H 520.94903 Z M -10.330435,-13.281986 H 78.216143 V 1.4757776 h -88.546578 z m 88.546578,0 H 166.76272 V 1.4757776 H 78.216143 Z m 88.546577,0 H 255.3093 V 1.4757776 h -88.54658 z m 88.54658,0 h 88.54658 V 1.4757776 H 255.3093 Z m 88.54658,0 h 88.54657 V 1.4757776 h -88.54657 z m 88.54657,0 h 88.54658 V 1.4757776 h -88.54658 z m 88.54658,0 h 88.54658 V 1.4757776 H 520.94903 Z M -10.330435,1.4757776 H 78.216143 V 16.233541 h -88.546578 z m 88.546578,0 H 166.76272 V 16.233541 H 78.216143 Z m 88.546577,0 H 255.3093 V 16.233541 h -88.54658 z m 88.54658,0 h 88.54658 V 16.233541 H 255.3093 Z m 88.54658,0 h 88.54657 V 16.233541 h -88.54657 z m 88.54657,0 h 88.54658 V 16.233541 h -88.54658 z m 88.54658,0 h 88.54658 V 16.233541 H 520.94903 Z M -10.330435,16.233541 h 88.546578 v 14.757764 h -88.546578 z m 88.546578,0 H 166.76272 V 30.991305 H 78.216143 Z m 88.546577,0 h 88.54658 v 14.757764 h -88.54658 z m 88.54658,0 h 88.54658 V 30.991305 H 255.3093 Z m 88.54658,0 h 88.54657 v 14.757764 h -88.54657 z m 88.54657,0 h 88.54658 v 14.757764 h -88.54658 z m 88.54658,0 h 88.54658 V 30.991305 H 520.94903 Z M -10.330435,30.991305 h 88.546578 v 14.757764 h -88.546578 z m 88.546578,0 H 166.76272 V 45.749069 H 78.216143 Z m 88.546577,0 h 88.54658 v 14.757764 h -88.54658 z m 88.54658,0 h 88.54658 V 45.749069 H 255.3093 Z m 88.54658,0 h 88.54657 v 14.757764 h -88.54657 z m 88.54657,0 h 88.54658 v 14.757764 h -88.54658 z m 88.54658,0 h 88.54658 v 14.757764 h -88.54658 z"
       inkscape:export-filename="Ground.svg"
       inkscape:export-xdpi="96"
       inkscape:export-ydpi="96" />
  </g>
</svg>
