<?xml version="1.0" encoding="UTF-8" standalone="no"?>
<!-- Created with Inkscape (http://www.inkscape.org/) -->

<svg
   width="819.49829"
   height="70.248276"
   viewBox="0 0 216.82559 18.586523"
   version="1.1"
   id="svg1"
   inkscape:version="1.3.2 (091e20e, 2023-11-25, custom)"
   sodipodi:docname="TestScene.svg"
   xmlns:inkscape="http://www.inkscape.org/namespaces/inkscape"
   xmlns:sodipodi="http://sodipodi.sourceforge.net/DTD/sodipodi-0.dtd"
   xmlns="http://www.w3.org/2000/svg"
   xmlns:svg="http://www.w3.org/2000/svg">
  <sodipodi:namedview
     id="namedview1"
     pagecolor="#ffffff"
     bordercolor="#000000"
     borderopacity="0.25"
     inkscape:showpageshadow="2"
     inkscape:pageopacity="0.0"
     inkscape:pagecheckerboard="0"
     inkscape:deskcolor="#d1d1d1"
     inkscape:document-units="mm"
     inkscape:zoom="0.50709218"
     inkscape:cx="902.20283"
     inkscape:cy="421.02799"
     inkscape:window-width="1920"
     inkscape:window-height="1001"
     inkscape:window-x="-7"
     inkscape:window-y="-7"
     inkscape:window-maximized="1"
     inkscape:current-layer="layer1" />
  <defs
     id="defs1" />
  <g
     inkscape:label="Layer 1"
     inkscape:groupmode="layer"
     id="layer1"
     transform="translate(-135.56838,-38.126884)">
    <path
       style="font-size:25.4px;font-family:'Times New Roman';-inkscape-font-specification:'Times New Roman, ';fill:#30bebd;stroke:#30bebd"
       d="m 140.85567,39.929129 v 6.610449 h 3.06338 q 1.0542,0 1.53789,-0.458886 0.49609,-0.471289 0.65732,-1.84795 h 0.45889 v 5.692676 h -0.45889 q -0.0124,-0.979785 -0.26045,-1.438672 -0.23564,-0.458886 -0.66972,-0.682129 -0.42168,-0.235644 -1.26504,-0.235644 h -3.06338 v 5.283398 q 0,1.277442 0.16123,1.686719 0.12402,0.310059 0.5209,0.533301 0.5457,0.297656 1.14101,0.297656 h 0.60772 v 0.458887 h -7.21816 v -0.458887 h 0.59531 q 1.04179,0 1.51308,-0.607715 0.29766,-0.396875 0.29766,-1.909961 V 41.987918 q 0,-1.277441 -0.16123,-1.686718 -0.12402,-0.310059 -0.5085,-0.533301 -0.5333,-0.297656 -1.14101,-0.297656 h -0.59531 v -0.458887 h 12.51396 l 0.16123,3.695898 h -0.43408 q -0.32246,-1.178222 -0.75654,-1.723926 -0.42168,-0.558105 -1.0542,-0.806152 -0.62012,-0.248047 -1.93477,-0.248047 z m 23.49004,11.248926 0.40928,0.08682 -1.43868,4.564063 h -13.02246 v -0.458887 h 0.63252 q 1.0666,0 1.52549,-0.694531 0.26045,-0.396875 0.26045,-1.835547 V 41.987918 q 0,-1.575097 -0.34727,-1.971972 -0.48369,-0.545703 -1.43867,-0.545703 h -0.63252 v -0.458887 h 7.61504 v 0.458887 q -1.33945,-0.0124 -1.88515,0.248046 -0.5333,0.26045 -0.73174,0.657325 -0.19844,0.396875 -0.19844,1.897558 v 10.566797 q 0,1.029394 0.19844,1.413867 0.14883,0.260449 0.45888,0.384473 0.31006,0.124023 1.93477,0.124023 h 1.22783 q 1.93477,0 2.71612,-0.285254 0.78134,-0.285254 1.42627,-1.00459 0.64492,-0.731738 1.28984,-2.294433 z m 10.24434,-12.551172 q 3.27421,0 5.66787,2.492871 2.40605,2.480469 2.40605,6.201172 0,3.832324 -2.41846,6.362402 -2.41845,2.530078 -5.8539,2.530078 -3.47266,0 -5.84151,-2.468066 -2.35644,-2.468066 -2.35644,-6.387207 0,-4.005957 2.72851,-6.536035 2.36885,-2.195215 5.66788,-2.195215 z m -0.23565,0.905371 q -2.25723,0 -3.62148,1.674317 -1.69912,2.083593 -1.69912,6.101953 0,4.117578 1.76113,6.337597 1.35185,1.686719 3.57187,1.686719 2.36885,0 3.90674,-1.847949 1.55029,-1.847949 1.55029,-5.829102 0,-4.316015 -1.69912,-6.436816 -1.36425,-1.686719 -3.77031,-1.686719 z m 33.06465,-0.520898 v 0.458887 q -0.65733,0 -1.06661,0.235644 -0.40927,0.235645 -0.78134,0.880566 -0.24805,0.434083 -0.78135,2.071192 l -4.68809,13.555761 h -0.49609 l -3.83232,-10.752832 -3.80752,10.752832 h -0.44649 L 186.5211,42.248368 q -0.55811,-1.562696 -0.70694,-1.84795 -0.24804,-0.471289 -0.68213,-0.694531 -0.42168,-0.235644 -1.15341,-0.235644 v -0.458887 h 6.22597 v 0.458887 h -0.29765 q -0.65733,0 -1.00459,0.297656 -0.34727,0.297656 -0.34727,0.719336 0,0.434082 0.5457,1.996777 l 3.31143,9.438183 2.79053,-8.024316 -0.4961,-1.413867 -0.39687,-1.128613 q -0.26045,-0.620117 -0.58291,-1.091406 -0.16123,-0.235645 -0.39688,-0.396875 -0.31006,-0.223243 -0.62011,-0.322461 -0.23565,-0.07441 -0.74414,-0.07441 V 39.01136 h 6.54843 v 0.458887 h -0.44648 q -0.69453,0 -1.01699,0.297656 -0.32246,0.297656 -0.32246,0.806152 0,0.63252 0.5581,2.207617 l 3.22461,9.140527 3.1998,-9.26455 q 0.54571,-1.537891 0.54571,-2.133203 0,-0.285254 -0.18604,-0.533301 -0.17363,-0.248047 -0.44648,-0.347266 -0.47129,-0.173632 -1.22783,-0.173632 V 39.01136 Z m 5.50664,0.917773 v 6.647656 h 3.6959 q 1.43867,0 1.92236,-0.434082 0.64492,-0.570507 0.71934,-2.009179 h 0.45888 v 5.853906 h -0.45888 q -0.17364,-1.227832 -0.34727,-1.575098 -0.22324,-0.434082 -0.73174,-0.682129 -0.50849,-0.248047 -1.56269,-0.248047 h -3.6959 v 5.543848 q 0,1.116211 0.0992,1.364258 0.0992,0.235644 0.34726,0.384473 0.24805,0.136425 0.94258,0.136425 h 2.85254 q 1.42627,0 2.07119,-0.198437 0.64492,-0.198438 1.24024,-0.781348 0.76894,-0.768945 1.57509,-2.319238 h 0.4961 l -1.45108,4.216797 h -12.96045 v -0.458887 h 0.59532 q 0.59531,0 1.12861,-0.285254 0.39687,-0.198437 0.5333,-0.595312 0.14883,-0.396875 0.14883,-1.624707 V 41.938309 q 0,-1.599902 -0.32246,-1.971973 -0.44649,-0.496093 -1.48828,-0.496093 h -0.59532 v -0.458887 h 12.96045 l 0.18604,3.683496 h -0.48369 q -0.26045,-1.327051 -0.58291,-1.823145 -0.31006,-0.496093 -0.93018,-0.756543 -0.49609,-0.186035 -1.74873,-0.186035 z m 27.37197,15.899805 h -4.48964 l -5.69268,-7.863086 q -0.63252,0.02481 -1.02939,0.02481 -0.16124,0 -0.34727,0 -0.18604,-0.0124 -0.38447,-0.02481 v 4.886523 q 0,1.5875 0.34726,1.971973 0.47129,0.545703 1.41387,0.545703 h 0.65732 v 0.458887 h -7.20576 v -0.458887 h 0.63252 q 1.0666,0 1.52549,-0.694531 0.26045,-0.384473 0.26045,-1.823145 V 41.987918 q 0,-1.5875 -0.34727,-1.971972 -0.48369,-0.545703 -1.43867,-0.545703 h -0.63252 v -0.458887 h 6.12676 q 2.67891,0 3.94395,0.396875 1.27744,0.384472 2.158,1.438672 0.89297,1.041797 0.89297,2.492871 0,1.550293 -1.01699,2.691308 -1.00459,1.141016 -3.12539,1.612305 l 3.47266,4.824512 q 1.19062,1.661914 2.04638,2.207617 0.85576,0.545703 2.23242,0.694531 z M 228.35421,47.1845 q 0.23564,0 0.40927,0.0124 0.17364,0 0.28526,0 2.40605,0 3.62148,-1.041797 1.22783,-1.041797 1.22783,-2.654102 0,-1.575097 -0.99218,-2.554883 -0.97979,-0.992187 -2.6045,-0.992187 -0.71933,0 -1.94716,0.235644 z m 33.65995,-8.557617 0.43408,5.308203 h -0.43408 q -0.65732,-1.984375 -1.69912,-2.988965 -1.50068,-1.451074 -3.85713,-1.451074 -3.21221,0 -4.88652,2.542481 -1.40147,2.145605 -1.40147,5.109765 0,2.406055 0.93018,4.39043 0.93017,1.984375 2.43086,2.914551 1.51308,0.917773 3.10058,0.917773 0.93018,0 1.79834,-0.235645 0.86817,-0.235644 1.67432,-0.694531 v -4.861718 q 0,-1.265039 -0.19844,-1.649512 -0.18603,-0.396875 -0.59531,-0.595313 -0.39687,-0.210839 -1.41387,-0.210839 v -0.47129 h 6.51123 v 0.47129 h -0.31005 q -0.96739,0 -1.32706,0.644921 -0.24804,0.458887 -0.24804,1.810743 v 5.146972 q -1.42627,0.768945 -2.81533,1.128613 -1.38907,0.359668 -3.08819,0.359668 -4.87412,0 -7.4042,-3.12539 -1.89756,-2.344043 -1.89756,-5.407422 0,-2.22002 1.06661,-4.254004 1.26503,-2.418457 3.47265,-3.720703 1.84795,-1.079004 4.36563,-1.079004 0.91777,0 1.66191,0.148828 0.75654,0.148828 2.1332,0.657325 0.69454,0.260449 0.93018,0.260449 0.23564,0 0.39687,-0.21084 0.17364,-0.223242 0.21084,-0.855762 z m 14.37432,11.571387 h -6.51123 l -1.14101,2.654101 q -0.42168,0.979785 -0.42168,1.463477 0,0.384472 0.35966,0.682129 0.37208,0.285254 1.5875,0.37207 v 0.458887 h -5.2958 v -0.458887 q 1.0542,-0.186035 1.36426,-0.483691 0.63252,-0.595313 1.40147,-2.418457 l 5.91591,-13.841016 h 0.43409 l 5.8539,13.989844 q 0.70694,1.686718 1.27744,2.195215 0.58291,0.496093 1.61231,0.558105 v 0.458887 h -6.63526 v -0.458887 q 1.00459,-0.04961 1.35186,-0.334863 0.35967,-0.285254 0.35967,-0.694532 0,-0.545703 -0.4961,-1.723925 z m -0.34726,-0.917774 -2.85254,-6.796484 -2.92696,6.796484 z m 24.23417,6.548438 h -4.48964 l -5.69268,-7.863086 q -0.63252,0.02481 -1.0294,0.02481 -0.16123,0 -0.34726,0 -0.18604,-0.0124 -0.38447,-0.02481 v 4.886523 q 0,1.5875 0.34726,1.971973 0.47129,0.545703 1.41387,0.545703 h 0.65732 v 0.458887 h -7.20576 v -0.458887 h 0.63252 q 1.0666,0 1.52549,-0.694531 0.26045,-0.384473 0.26045,-1.823145 V 41.987918 q 0,-1.5875 -0.34727,-1.971972 -0.48369,-0.545703 -1.43867,-0.545703 h -0.63252 v -0.458887 h 6.12676 q 2.67891,0 3.94394,0.396875 1.27745,0.384472 2.15801,1.438672 0.89297,1.041797 0.89297,2.492871 0,1.550293 -1.01699,2.691308 -1.00459,1.141016 -3.12539,1.612305 l 3.47265,4.824512 q 1.19063,1.661914 2.04639,2.207617 0.85576,0.545703 2.23242,0.694531 z M 288.33194,47.1845 q 0.23564,0 0.40927,0.0124 0.17364,0 0.28526,0 2.40605,0 3.62148,-1.041797 1.22783,-1.041797 1.22783,-2.654102 0,-1.575097 -0.99218,-2.554883 -0.97979,-0.992187 -2.6045,-0.992187 -0.71933,0 -1.94716,0.235644 z m 12.1543,8.644434 v -0.458887 h 0.63252 q 1.0666,0 1.51308,-0.682129 0.27285,-0.409277 0.27285,-1.835547 V 41.987918 q 0,-1.575097 -0.34726,-1.971972 -0.48369,-0.545703 -1.43867,-0.545703 h -0.63252 v -0.458887 h 6.84609 q 3.77031,0 5.72988,0.855762 1.97198,0.855761 3.1626,2.852539 1.20303,1.996777 1.20303,4.613671 0,3.509864 -2.13321,5.866309 -2.39365,2.629297 -7.29257,2.629297 z m 4.7997,-1.21543 q 1.5751,0.347266 2.6417,0.347266 2.87735,0 4.7749,-2.021582 1.89756,-2.021582 1.89756,-5.481836 0,-3.485059 -1.89756,-5.494238 -1.89755,-2.00918 -4.87412,-2.00918 -1.11621,0 -2.54248,0.359668 z m 18.41748,-14.684375 v 6.647656 h 3.6959 q 1.43867,0 1.92236,-0.434082 0.64492,-0.570507 0.71934,-2.009179 h 0.45889 v 5.853906 h -0.45889 q -0.17363,-1.227832 -0.34727,-1.575098 -0.22324,-0.434082 -0.73174,-0.682129 -0.50849,-0.248047 -1.56269,-0.248047 h -3.6959 v 5.543848 q 0,1.116211 0.0992,1.364258 0.0992,0.235644 0.34727,0.384473 0.24804,0.136425 0.94257,0.136425 h 2.85254 q 1.42627,0 2.07119,-0.198437 0.64493,-0.198438 1.24024,-0.781348 0.76894,-0.768945 1.5751,-2.319238 h 0.49609 l -1.45107,4.216797 H 318.9161 v -0.458887 h 0.59531 q 0.59531,0 1.12861,-0.285254 0.39688,-0.198437 0.5333,-0.595312 0.14883,-0.396875 0.14883,-1.624707 V 41.938309 q 0,-1.599902 -0.32246,-1.971973 -0.44648,-0.496093 -1.48828,-0.496093 h -0.59531 v -0.458887 h 12.96045 l 0.18603,3.683496 h -0.48369 q -0.26045,-1.327051 -0.58291,-1.823145 -0.31006,-0.496093 -0.93018,-0.756543 -0.49609,-0.186035 -1.74873,-0.186035 z m 9.87227,-0.917773 h 4.56406 l 10.28154,12.613183 v -9.698632 q 0,-1.550293 -0.34726,-1.934766 -0.45889,-0.520898 -1.45107,-0.520898 h -0.58292 v -0.458887 h 5.85391 v 0.458887 h -0.59531 q -1.0666,0 -1.51309,0.644921 -0.27285,0.396875 -0.27285,1.810743 v 14.175878 h -0.44648 l -11.0877,-13.543359 v 10.355957 q 0,1.550293 0.33486,1.934766 0.47129,0.520898 1.45108,0.520898 h 0.59531 v 0.458887 h -5.8539 v -0.458887 h 0.58291 q 1.079,0 1.52548,-0.644922 0.27286,-0.396875 0.27286,-1.810742 v -11.69541 q -0.73174,-0.855762 -1.11622,-1.128613 -0.37207,-0.272852 -1.1038,-0.508496 -0.35967,-0.111621 -1.09141,-0.111621 z"
       id="text16"
       aria-label="FLOWER GARDEN"
       inkscape:export-filename="Title.svg"
       inkscape:export-xdpi="96"
       inkscape:export-ydpi="96" />
  </g>
</svg>
