<?xml version="1.0" encoding="UTF-8" standalone="no"?>
<!-- Created with Inkscape (http://www.inkscape.org/) -->

<svg
   width="127.99999"
   height="32.000004"
   viewBox="0 0 33.866664 8.4666677"
   version="1.1"
   id="svg1"
   inkscape:version="1.3.2 (091e20e, 2023-11-25, custom)"
   sodipodi:docname="Aloe_Vera_Scene.svg"
   xmlns:inkscape="http://www.inkscape.org/namespaces/inkscape"
   xmlns:sodipodi="http://sodipodi.sourceforge.net/DTD/sodipodi-0.dtd"
   xmlns="http://www.w3.org/2000/svg"
   xmlns:svg="http://www.w3.org/2000/svg">
  <sodipodi:namedview
     id="namedview1"
     pagecolor="#ffffff"
     bordercolor="#000000"
     borderopacity="0.25"
     inkscape:showpageshadow="2"
     inkscape:pageopacity="0.0"
     inkscape:pagecheckerboard="0"
     inkscape:deskcolor="#d1d1d1"
     inkscape:document-units="mm"
     showgrid="true"
     inkscape:zoom="8"
     inkscape:cx="72.75"
     inkscape:cy="49.9375"
     inkscape:window-width="1920"
     inkscape:window-height="1001"
     inkscape:window-x="-7"
     inkscape:window-y="-7"
     inkscape:window-maximized="1"
     inkscape:current-layer="g202">
    <inkscape:grid
       id="grid1"
       units="px"
       originx="4.9484431e-08"
       originy="-9.2932053e-09"
       spacingx="8.4666666"
       spacingy="8.4666666"
       empcolor="#0099e5"
       empopacity="0.30196078"
       color="#0099e5"
       opacity="0.14901961"
       empspacing="5"
       dotted="false"
       gridanglex="30"
       gridanglez="30"
       visible="true" />
  </sodipodi:namedview>
  <defs
     id="defs1">
    <inkscape:path-effect
       effect="bspline"
       id="path-effect215"
       is_visible="true"
       lpeversion="1.3"
       weight="33.333333"
       steps="2"
       helper_size="0"
       apply_no_weight="true"
       apply_with_weight="true"
       only_selected="false"
       uniform="false" />
    <inkscape:path-effect
       effect="bspline"
       id="path-effect213"
       is_visible="true"
       lpeversion="1.3"
       weight="33.333333"
       steps="2"
       helper_size="0"
       apply_no_weight="true"
       apply_with_weight="true"
       only_selected="false"
       uniform="false" />
    <inkscape:path-effect
       effect="bspline"
       id="path-effect211"
       is_visible="true"
       lpeversion="1.3"
       weight="33.333333"
       steps="2"
       helper_size="0"
       apply_no_weight="true"
       apply_with_weight="true"
       only_selected="false"
       uniform="false" />
    <inkscape:path-effect
       effect="bspline"
       id="path-effect209"
       is_visible="true"
       lpeversion="1.3"
       weight="33.333333"
       steps="2"
       helper_size="0"
       apply_no_weight="true"
       apply_with_weight="true"
       only_selected="false"
       uniform="false" />
    <inkscape:path-effect
       effect="bspline"
       id="path-effect207"
       is_visible="true"
       lpeversion="1.3"
       weight="33.333333"
       steps="2"
       helper_size="0"
       apply_no_weight="true"
       apply_with_weight="true"
       only_selected="false"
       uniform="false" />
    <inkscape:path-effect
       effect="bspline"
       id="path-effect205"
       is_visible="true"
       lpeversion="1.3"
       weight="33.333333"
       steps="2"
       helper_size="0"
       apply_no_weight="true"
       apply_with_weight="true"
       only_selected="false"
       uniform="false" />
    <inkscape:path-effect
       effect="bspline"
       id="path-effect203"
       is_visible="true"
       lpeversion="1.3"
       weight="33.333333"
       steps="2"
       helper_size="0"
       apply_no_weight="true"
       apply_with_weight="true"
       only_selected="false"
       uniform="false" />
    <inkscape:path-effect
       effect="bspline"
       id="path-effect196"
       is_visible="true"
       lpeversion="1.3"
       weight="33.333333"
       steps="2"
       helper_size="0"
       apply_no_weight="true"
       apply_with_weight="true"
       only_selected="false"
       uniform="false" />
    <inkscape:path-effect
       effect="bspline"
       id="path-effect195"
       is_visible="true"
       lpeversion="1.3"
       weight="33.333333"
       steps="2"
       helper_size="0"
       apply_no_weight="true"
       apply_with_weight="true"
       only_selected="false"
       uniform="false" />
    <inkscape:path-effect
       effect="bspline"
       id="path-effect194"
       is_visible="true"
       lpeversion="1.3"
       weight="33.333333"
       steps="2"
       helper_size="0"
       apply_no_weight="true"
       apply_with_weight="true"
       only_selected="false"
       uniform="false" />
    <inkscape:path-effect
       effect="bspline"
       id="path-effect192"
       is_visible="true"
       lpeversion="1.3"
       weight="33.333333"
       steps="2"
       helper_size="0"
       apply_no_weight="true"
       apply_with_weight="true"
       only_selected="false"
       uniform="false" />
    <inkscape:path-effect
       effect="bspline"
       id="path-effect190"
       is_visible="true"
       lpeversion="1.3"
       weight="33.333333"
       steps="2"
       helper_size="0"
       apply_no_weight="true"
       apply_with_weight="true"
       only_selected="false"
       uniform="false" />
    <inkscape:path-effect
       effect="bspline"
       id="path-effect188"
       is_visible="true"
       lpeversion="1.3"
       weight="33.333333"
       steps="2"
       helper_size="0"
       apply_no_weight="true"
       apply_with_weight="true"
       only_selected="false"
       uniform="false" />
    <inkscape:path-effect
       effect="bspline"
       id="path-effect186"
       is_visible="true"
       lpeversion="1.3"
       weight="33.333333"
       steps="2"
       helper_size="0"
       apply_no_weight="true"
       apply_with_weight="true"
       only_selected="false"
       uniform="false" />
    <inkscape:path-effect
       effect="bspline"
       id="path-effect181"
       is_visible="true"
       lpeversion="1.3"
       weight="33.333333"
       steps="2"
       helper_size="0"
       apply_no_weight="true"
       apply_with_weight="true"
       only_selected="false"
       uniform="false" />
    <inkscape:path-effect
       effect="bspline"
       id="path-effect180"
       is_visible="true"
       lpeversion="1.3"
       weight="33.333333"
       steps="2"
       helper_size="0"
       apply_no_weight="true"
       apply_with_weight="true"
       only_selected="false"
       uniform="false" />
    <inkscape:path-effect
       effect="bspline"
       id="path-effect179"
       is_visible="true"
       lpeversion="1.3"
       weight="33.333333"
       steps="2"
       helper_size="0"
       apply_no_weight="true"
       apply_with_weight="true"
       only_selected="false"
       uniform="false" />
    <inkscape:path-effect
       effect="bspline"
       id="path-effect177"
       is_visible="true"
       lpeversion="1.3"
       weight="33.333333"
       steps="2"
       helper_size="0"
       apply_no_weight="true"
       apply_with_weight="true"
       only_selected="false"
       uniform="false" />
    <inkscape:path-effect
       effect="bspline"
       id="path-effect175"
       is_visible="true"
       lpeversion="1.3"
       weight="33.333333"
       steps="2"
       helper_size="0"
       apply_no_weight="true"
       apply_with_weight="true"
       only_selected="false"
       uniform="false" />
    <inkscape:path-effect
       effect="bspline"
       id="path-effect172"
       is_visible="true"
       lpeversion="1.3"
       weight="33.333333"
       steps="2"
       helper_size="0"
       apply_no_weight="true"
       apply_with_weight="true"
       only_selected="false"
       uniform="false" />
    <inkscape:path-effect
       effect="bspline"
       id="path-effect171"
       is_visible="true"
       lpeversion="1.3"
       weight="33.333333"
       steps="2"
       helper_size="0"
       apply_no_weight="true"
       apply_with_weight="true"
       only_selected="false"
       uniform="false" />
    <inkscape:path-effect
       effect="bspline"
       id="path-effect170"
       is_visible="true"
       lpeversion="1.3"
       weight="33.333333"
       steps="2"
       helper_size="0"
       apply_no_weight="true"
       apply_with_weight="true"
       only_selected="false"
       uniform="false" />
  </defs>
  <g
     inkscape:label="Layer 1 copy 1"
     inkscape:groupmode="layer"
     id="g75"
     transform="matrix(-1.0624885,0,0,1.0624885,8.7312013,-0.26453462)">
    <rect
       style="fill:#bdca31;fill-opacity:0;stroke:none;stroke-width:0.497953"
       id="rect74"
       width="7.9687138"
       height="7.9687138"
       x="0.24897645"
       y="0.24897645"
       inkscape:export-filename="Spider_Plant.svg"
       inkscape:export-xdpi="44.636486"
       inkscape:export-ydpi="44.636486" />
    <path
       style="fill:#6e9202;stroke:none;stroke-width:0.188237;stroke-dasharray:none"
       d="M 4.710626,7.493969 C 4.8558891,7.4031797 5.0582198,7.1645332 5.1749493,7.0166757 5.2916788,6.8688181 5.3228059,6.8117516 5.3539337,6.754684 5.1827309,6.749496 5.0115281,6.744308 4.8870163,6.7598722 4.7625045,6.7754364 4.6846861,6.8117516 4.612054,6.8947604 4.5394218,6.9777691 4.4719797,7.1074656 4.4356639,7.2112257 c -0.036316,0.10376 -0.041504,0.181578 9e-7,0.249022 0.041505,0.067444 0.1296982,0.1245106 0.2749612,0.033721 z"
       id="path169"
       inkscape:path-effect="#path-effect170"
       inkscape:original-d="M 4.6535585,7.641826 C 4.8558891,7.4031797 5.0582198,7.1645332 5.2605504,6.9258869 5.2916789,6.8688182 5.3539337,6.754684 5.3539337,6.754684 c 0,0 -0.3424056,-0.010377 -0.5136084,-0.015564 -0.077821,0.036316 -0.155639,0.072632 -0.2334585,0.1089473 -0.067445,0.1297018 -0.1348871,0.2593983 -0.2023306,0.3890973 -0.00519,0.077821 -0.010377,0.155639 -0.015564,0.2334584 0.088197,0.057069 0.1763908,0.1141352 0.2645863,0.171203 z"
       sodipodi:nodetypes="cccccccc" />
    <path
       style="fill:#6e9202;stroke:none;stroke-width:0.188237;stroke-dasharray:none"
       d="M 4.3941599,7.3097963 C 4.3163409,7.1541574 4.1191982,6.8532554 3.9739344,6.6898342 3.8286706,6.526413 3.7352888,6.5004734 3.6419054,6.4745334 c -0.010376,0.1815788 -0.020752,0.3631574 0.041505,0.5058276 0.062257,0.1426701 0.1971411,0.2464272 0.3268416,0.3242473 0.1297004,0.07782 0.254209,0.1296986 0.3372172,0.1504504 0.083008,0.020752 0.1245098,0.010376 0.046691,-0.1452624 z"
       id="path170"
       inkscape:path-effect="#path-effect171"
       inkscape:original-d="M 4.5134835,7.4550593 C 4.3163408,7.1541574 4.1191983,6.8532553 3.9220555,6.5523534 c -0.093385,-0.02594 -0.2801501,-0.07782 -0.2801501,-0.07782 0,0 -0.020751,0.3631575 -0.031128,0.5447363 0.1348899,0.1037614 0.269774,0.2075185 0.4046612,0.3112779 0.1245136,0.051881 0.2490223,0.1037594 0.3735334,0.1556389 0.041505,-0.010377 0.083007,-0.020751 0.1245115,-0.031127 z"
       sodipodi:nodetypes="ccccccc" />
    <path
       style="fill:#6e9202;stroke:none;stroke-width:0.188237;stroke-dasharray:none"
       d="m 4.4731252,7.2878045 c 0.046773,-0.010089 0.046773,-0.024762 0.046773,-0.1210599 0,-0.096298 0,-0.2742141 -0.032099,-0.3961905 C 4.4556989,6.6485777 4.3915023,6.5825468 4.3273045,6.5165148 4.2686093,6.5788784 4.2099142,6.6412419 4.1805666,6.7467112 4.151219,6.8521805 4.151219,7.0007496 4.165893,7.1016321 c 0.014674,0.1008825 0.044021,0.1540742 0.1054685,0.177919 0.061447,0.023845 0.1549911,0.018342 0.2017637,0.00825 z"
       id="path171"
       inkscape:path-effect="#path-effect172"
       inkscape:original-d="m 4.5198978,7.2923907 c 0,-0.014675 0,-0.029348 0,-0.044021 0,-0.1779232 0,-0.3558392 0,-0.5337589 -0.064199,-0.066033 -0.1925933,-0.198096 -0.1925933,-0.198096 0,0 -0.1173904,0.1247271 -0.1760855,0.1870907 0,0.148575 0,0.2971441 0,0.4457161 0.029348,0.053193 0.058695,0.1063848 0.088043,0.1595772 0.093547,-0.0055 0.1870907,-0.011004 0.2806358,-0.016508 z"
       sodipodi:nodetypes="cscccccc" />
  </g>
  <g
     inkscape:label="Layer 1 copy 1"
     inkscape:groupmode="layer"
     id="g174"
     transform="matrix(-1.0624885,0,0,1.0624885,17.197868,-0.26453462)">
    <rect
       style="fill:#bdca31;fill-opacity:0;stroke:none;stroke-width:0.497953"
       id="rect172"
       width="7.9687138"
       height="7.9687138"
       x="0.24897645"
       y="0.24897645"
       inkscape:export-filename="Spider_Plant.svg"
       inkscape:export-xdpi="44.636486"
       inkscape:export-ydpi="44.636486" />
    <path
       style="fill:#6e9202;stroke:none;stroke-width:0.188237;stroke-dasharray:none"
       d="M 4.710626,7.493969 C 4.8558891,7.4031797 5.0582198,7.1645332 5.2501763,6.9142114 5.4421327,6.6638895 5.6237079,6.4019024 5.8052866,6.1399102 5.4836328,6.3396468 5.161979,6.5393834 4.9622417,6.6574099 4.7625045,6.7754364 4.6846861,6.8117516 4.612054,6.8947604 4.5394218,6.9777691 4.4719797,7.1074656 4.4356639,7.2112257 c -0.036316,0.10376 -0.041504,0.181578 9e-7,0.249022 0.041505,0.067444 0.1296982,0.1245106 0.2749612,0.033721 z"
       id="path172"
       inkscape:path-effect="#path-effect175"
       inkscape:original-d="M 4.6535585,7.641826 C 4.8558891,7.4031797 5.0582198,7.1645332 5.2605504,6.9258869 5.4421327,6.6638895 5.8052866,6.1399102 5.8052866,6.1399102 c 0,0 -0.6433076,0.3994732 -0.9649613,0.5992098 -0.077821,0.036316 -0.155639,0.072632 -0.2334585,0.1089473 -0.067445,0.1297018 -0.1348871,0.2593983 -0.2023306,0.3890973 -0.00519,0.077821 -0.010377,0.155639 -0.015564,0.2334584 0.088197,0.057069 0.1763908,0.1141352 0.2645863,0.171203 z"
       sodipodi:nodetypes="cccccccc" />
    <path
       style="fill:#6e9202;stroke:none;stroke-width:0.188237;stroke-dasharray:none"
       d="M 4.3941599,7.3097963 C 4.3163409,7.1541574 4.1191982,6.8532554 3.8870346,6.6107164 3.654871,6.3681775 3.3876952,6.1840075 3.120515,5.9998346 c 0.1634208,0.3398117 0.3268415,0.6796232 0.4759969,0.9014099 0.1491554,0.2217866 0.2840395,0.3255437 0.41374,0.4033638 0.1297004,0.07782 0.254209,0.1296986 0.3372172,0.1504504 0.083008,0.020752 0.1245098,0.010376 0.046691,-0.1452624 z"
       id="path173"
       inkscape:path-effect="#path-effect177"
       inkscape:original-d="M 4.5134835,7.4550593 C 4.3163408,7.1541574 4.1191983,6.8532553 3.9220555,6.5523534 3.654871,6.3681775 3.120515,5.9998346 3.120515,5.9998346 c 0,0 0.3268415,0.6796232 0.4902624,1.0194351 0.1348899,0.1037614 0.269774,0.2075185 0.4046612,0.3112779 0.1245136,0.051881 0.2490223,0.1037594 0.3735334,0.1556389 0.041505,-0.010377 0.083007,-0.020751 0.1245115,-0.031127 z"
       sodipodi:nodetypes="ccccccc" />
    <path
       style="fill:#6e9202;stroke:none;stroke-width:0.188237;stroke-dasharray:none"
       d="m 4.4731252,7.2878045 c 0.046773,-0.010089 0.046773,-0.024762 0.046773,-0.1210599 0,-0.096298 0,-0.2742141 -0.032099,-0.4545561 C 4.4556989,6.5318465 4.3915023,6.3490884 4.3273045,6.1663272 4.2686093,6.34542 4.2099142,6.5245128 4.1805666,6.6883466 4.151219,6.8521805 4.151219,7.0007496 4.165893,7.1016321 c 0.014674,0.1008825 0.044021,0.1540742 0.1054685,0.177919 0.061447,0.023845 0.1549911,0.018342 0.2017637,0.00825 z"
       id="path174"
       inkscape:path-effect="#path-effect179"
       inkscape:original-d="m 4.5198978,7.2923907 c 0,-0.014675 0,-0.029348 0,-0.044021 0,-0.1779232 0,-0.3558392 0,-0.5337589 C 4.4556989,6.5318465 4.3273045,6.1663272 4.3273045,6.1663272 c 0,0 -0.1173903,0.3581856 -0.1760855,0.5372783 0,0.148575 0,0.2971441 0,0.4457161 0.029348,0.053193 0.058695,0.1063848 0.088043,0.1595772 0.093547,-0.0055 0.1870907,-0.011004 0.2806358,-0.016508 z"
       sodipodi:nodetypes="cscccccc" />
    <path
       style="fill:#6e9202;stroke:none;stroke-width:0.188237;stroke-dasharray:none"
       d="m 4.5173746,7.2799654 c 0.029831,0.00649 0.063553,-0.029831 0.120621,-0.1348888 0.057068,-0.1050581 0.1374802,-0.2788512 0.1543406,-0.3968781 0.01686,-0.1180269 -0.02983,-0.1802812 -0.076522,-0.2425368 -0.077819,0.05188 -0.1556389,0.1037593 -0.2023308,0.1893619 -0.046692,0.085603 -0.062256,0.2049234 -0.070038,0.2905255 -0.00778,0.085602 -0.00778,0.1374805 0.00519,0.1880637 0.01297,0.050583 0.03891,0.099868 0.068741,0.1063526 z"
       id="path179"
       inkscape:path-effect="#path-effect180"
       inkscape:original-d="M 4.5134837,7.3227662 C 4.5472055,7.2864505 4.5809271,7.2501346 4.614649,7.2138189 4.695064,7.0400185 4.7754758,6.8662254 4.8558893,6.6924285 4.8091967,6.6301716 4.7158143,6.5056617 4.7158143,6.5056617 c 0,0 -0.1556389,0.1037594 -0.2334584,0.155639 -0.015564,0.1193255 -0.031128,0.2386463 -0.046692,0.3579695 0,0.051881 0,0.1037594 0,0.155639 0.02594,0.049287 0.05188,0.098571 0.07782,0.147857 z"
       sodipodi:nodetypes="cccccccc" />
    <path
       style="fill:#6e9202;stroke:none;stroke-width:0.188237;stroke-dasharray:none"
       d="m 4.2501943,7.0387251 c 0.0013,-0.084304 -0.019455,-0.2269734 -0.059662,-0.2918228 -0.040207,-0.06485 -0.099868,-0.05188 -0.1595294,-0.03891 -0.023346,0.054474 -0.046692,0.1089472 -0.036316,0.1712036 0.010376,0.062256 0.054473,0.1322921 0.09468,0.1828749 0.040207,0.050583 0.076522,0.08171 0.1063534,0.084304 0.029831,0.00259 0.053177,-0.023346 0.054474,-0.1076502 z"
       id="path180"
       inkscape:path-effect="#path-effect181"
       inkscape:original-d="m 4.2722433,7.0970897 c -0.020751,-0.1426691 -0.041504,-0.285338 -0.062256,-0.4280071 -0.059663,0.012969 -0.1789848,0.03891 -0.1789848,0.03891 0,0 -0.046692,0.1089472 -0.070038,0.1634208 0.044099,0.070039 0.088195,0.1400751 0.1322931,0.2101126 0.036316,0.031128 0.072631,0.062256 0.1089472,0.093383 0.023346,-0.02594 0.046692,-0.05188 0.070039,-0.077819 z"
       sodipodi:nodetypes="ccccccc" />
  </g>
  <g
     inkscape:label="Layer 1 copy 1"
     inkscape:groupmode="layer"
     id="g185"
     transform="matrix(-1.0624885,0,0,1.0624885,25.664535,-0.26453462)">
    <rect
       style="fill:#bdca31;fill-opacity:0;stroke:none;stroke-width:0.497953"
       id="rect181"
       width="7.9687138"
       height="7.9687138"
       x="0.24897645"
       y="0.24897645"
       inkscape:export-filename="Spider_Plant.svg"
       inkscape:export-xdpi="44.636486"
       inkscape:export-ydpi="44.636486" />
    <path
       style="fill:#6e9202;stroke:none;stroke-width:0.188237;stroke-dasharray:none"
       d="M 4.710626,7.493969 C 4.8558891,7.4031797 5.0582198,7.1645332 5.2703531,6.8857804 5.4824864,6.6070275 5.7044137,6.2881806 5.9263453,5.9693275 5.5643386,6.225925 5.2023319,6.4825225 4.9824182,6.6289795 4.7625045,6.7754364 4.6846861,6.8117516 4.612054,6.8947604 4.5394218,6.9777691 4.4719797,7.1074656 4.4356639,7.2112257 c -0.036316,0.10376 -0.041504,0.181578 9e-7,0.249022 0.041505,0.067444 0.1296982,0.1245106 0.2749612,0.033721 z"
       id="path181"
       inkscape:path-effect="#path-effect186"
       inkscape:original-d="M 4.6535585,7.641826 C 4.8558891,7.4031797 5.0582198,7.1645332 5.2605504,6.9258869 5.4824864,6.6070275 5.9263453,5.9693275 5.9263453,5.9693275 c 0,0 -0.7240134,0.513195 -1.08602,0.7697925 -0.077821,0.036316 -0.155639,0.072632 -0.2334585,0.1089473 -0.067445,0.1297018 -0.1348871,0.2593983 -0.2023306,0.3890973 -0.00519,0.077821 -0.010377,0.155639 -0.015564,0.2334584 0.088197,0.057069 0.1763908,0.1141352 0.2645863,0.171203 z"
       sodipodi:nodetypes="cccccccc" />
    <path
       style="fill:#6e9202;stroke:none;stroke-width:0.188237;stroke-dasharray:none"
       d="M 4.3941599,7.3097963 C 4.3163409,7.1541574 4.1191982,6.8532554 3.8668578,6.563943 3.6145175,6.2746306 3.3069894,5.9969169 2.9994563,5.7191986 3.20323,6.1525556 3.4070036,6.5859124 3.5763354,6.8544718 c 0.1693319,0.2685593 0.304216,0.3723164 0.4339165,0.4501365 0.1297004,0.07782 0.254209,0.1296986 0.3372172,0.1504504 0.083008,0.020752 0.1245098,0.010376 0.046691,-0.1452624 z"
       id="path182"
       inkscape:path-effect="#path-effect188"
       inkscape:original-d="M 4.5134835,7.4550593 C 4.3163408,7.1541574 4.1191983,6.8532553 3.9220555,6.5523534 3.6145175,6.2746306 2.9994563,5.7191986 2.9994563,5.7191986 c 0,0 0.4075473,0.8667138 0.6113211,1.3000711 0.1348899,0.1037614 0.269774,0.2075185 0.4046612,0.3112779 0.1245136,0.051881 0.2490223,0.1037594 0.3735334,0.1556389 0.041505,-0.010377 0.083007,-0.020751 0.1245115,-0.031127 z"
       sodipodi:nodetypes="ccccccc" />
    <path
       style="fill:#6e9202;stroke:none;stroke-width:0.188237;stroke-dasharray:none"
       d="m 4.4731252,7.2878045 c 0.046773,-0.010089 0.046773,-0.024762 0.046773,-0.1210599 0,-0.096298 0,-0.2742141 -0.032099,-0.4930755 C 4.4556989,6.4548078 4.3915023,6.1950137 4.3273045,5.9352152 4.2686093,6.1913453 4.2099141,6.4474755 4.1805666,6.649828 4.151219,6.8521805 4.151219,7.0007496 4.165893,7.1016321 c 0.014674,0.1008825 0.044021,0.1540742 0.1054685,0.177919 0.061447,0.023845 0.1549911,0.018342 0.2017637,0.00825 z"
       id="path183"
       inkscape:path-effect="#path-effect190"
       inkscape:original-d="m 4.5198978,7.2923907 c 0,-0.014675 0,-0.029348 0,-0.044021 0,-0.1779232 0,-0.3558392 0,-0.5337589 -0.064199,-0.259803 -0.1925933,-0.7793956 -0.1925933,-0.7793956 0,0 -0.1173903,0.5122603 -0.1760855,0.7683903 0,0.148575 0,0.2971441 0,0.4457161 0.029348,0.053193 0.058695,0.1063848 0.088043,0.1595772 0.093547,-0.0055 0.1870907,-0.011004 0.2806358,-0.016508 z"
       sodipodi:nodetypes="cscccccc" />
    <path
       style="fill:#6e9202;stroke:none;stroke-width:0.188237;stroke-dasharray:none"
       d="m 4.5173746,7.2799654 c 0.029831,0.00649 0.063553,-0.029831 0.120621,-0.1348888 C 4.6950641,7.0400185 4.7754758,6.8662254 4.8226015,6.6574027 4.8697272,6.4485799 4.8835646,6.2047412 4.8974023,5.9608976 4.7590535,6.1943653 4.6207047,6.4278331 4.5437481,6.6042296 4.4667916,6.7806262 4.4512279,6.899947 4.4434459,6.9855491 c -0.00778,0.085602 -0.00778,0.1374805 0.00519,0.1880637 0.01297,0.050583 0.03891,0.099868 0.068741,0.1063526 z"
       id="path184"
       inkscape:path-effect="#path-effect192"
       inkscape:original-d="M 4.5134837,7.3227662 C 4.5472055,7.2864505 4.5809271,7.2501346 4.614649,7.2138189 4.695064,7.0400185 4.7754758,6.8662254 4.8558893,6.6924285 c 0.013838,-0.2438486 0.041513,-0.7315309 0.041513,-0.7315309 0,0 -0.2766976,0.4669355 -0.4150464,0.7004031 -0.015564,0.1193255 -0.031128,0.2386463 -0.046692,0.3579695 0,0.051881 0,0.1037594 0,0.155639 0.02594,0.049287 0.05188,0.098571 0.07782,0.147857 z"
       sodipodi:nodetypes="cccccccc" />
    <path
       style="fill:#6e9202;stroke:none;stroke-width:0.188237;stroke-dasharray:none"
       d="M 4.2501943,7.0387251 C 4.2514913,6.9544207 4.2307393,6.8117517 4.1602667,6.6937088 4.0897941,6.5756659 3.9696054,6.4822528 3.8494145,6.3888379 c 0.037183,0.1608585 0.074367,0.3217171 0.1150077,0.4371659 0.040641,0.1154488 0.084738,0.1854845 0.1249445,0.2360673 0.040207,0.050583 0.076522,0.08171 0.1063534,0.084304 0.029831,0.00259 0.053177,-0.023346 0.054474,-0.1076502 z"
       id="path185"
       inkscape:path-effect="#path-effect194"
       inkscape:original-d="M 4.2722433,7.0970897 C 4.2514923,6.9544206 4.2307393,6.8117517 4.2099873,6.6690826 4.0897941,6.5756659 3.8494145,6.3888379 3.8494145,6.3888379 c 0,0 0.074367,0.321717 0.11155,0.4825755 0.044099,0.070039 0.088195,0.1400751 0.1322931,0.2101126 0.036316,0.031128 0.072631,0.062256 0.1089472,0.093383 0.023346,-0.02594 0.046692,-0.05188 0.070039,-0.077819 z"
       sodipodi:nodetypes="ccccccc" />
    <path
       style="fill:#6e9202;stroke:none;stroke-width:0.188237;stroke-dasharray:none"
       d="m 4.8664347,6.8696023 c 0.00917,-0.015591 0.027513,-0.046773 0.046886,-0.1108198 0.019373,-0.064047 0.042991,-0.1762364 0.065002,-0.280787 -0.066032,0.08254 -0.132064,0.1650801 -0.1724171,0.2301957 -0.040353,0.065116 -0.055026,0.1128035 -0.048606,0.1403174 0.00642,0.027514 0.033933,0.034851 0.05411,0.037602 0.020177,0.00275 0.033015,9.185e-4 0.039435,1.9e-6 0.00642,-9.167e-4 0.00642,-9.193e-4 0.01559,-0.01651 z"
       id="path194"
       inkscape:path-effect="#path-effect195"
       inkscape:original-d="m 4.8572634,6.8851934 c 0.018343,-0.031182 0.036684,-0.062364 0.055027,-0.093546 0.070976,-0.086265 0.066032,-0.3136519 0.066032,-0.3136519 0,0 -0.132064,0.1650801 -0.198096,0.24762 -0.014675,0.047691 -0.029348,0.095379 -0.044021,0.1430695 0.027514,0.00734 0.055027,0.014675 0.08254,0.022011 0.01284,-0.00184 0.025679,-0.00367 0.038519,-0.0055 z"
       sodipodi:nodetypes="scccccss" />
    <path
       style="fill:#6e9202;stroke:none;stroke-width:0.188237;stroke-dasharray:none"
       d="m 4.544528,6.7586316 c 9.166e-4,-0.044022 0.00275,-0.1320637 -9.189e-4,-0.1916759 -0.00367,-0.059612 -0.01284,-0.090794 -0.022011,-0.1219755 -0.042187,0.071535 -0.084374,0.1430692 -0.1082192,0.2026819 -0.023845,0.059613 -0.029348,0.1073009 -0.025679,0.1366493 0.00367,0.029348 0.016507,0.040353 0.044021,0.040353 0.027514,-4e-7 0.069699,-0.011005 0.090793,-0.016508 0.021094,-0.0055 0.021097,-0.0055 0.022013,-0.049524 z"
       id="path195"
       inkscape:path-effect="#path-effect196"
       inkscape:original-d="m 4.5436113,6.8026532 c 0.00184,-0.088043 0.00367,-0.1760852 0.0055,-0.264128 -0.00917,-0.031182 -0.027513,-0.093545 -0.027513,-0.093545 0,0 -0.084374,0.1430693 -0.1265614,0.2146039 -0.0055,0.047691 -0.011004,0.095379 -0.016508,0.1430693 0.01284,0.011007 0.025679,0.022011 0.038518,0.033016 0.042188,-0.011007 0.084374,-0.022011 0.1265614,-0.033016 z"
       sodipodi:nodetypes="scccccss" />
  </g>
  <g
     inkscape:label="Layer 1 copy 1"
     inkscape:groupmode="layer"
     id="g202"
     transform="matrix(-1.0624885,0,0,1.0624885,34.131201,-0.26453462)">
    <rect
       style="fill:#bdca31;fill-opacity:0;stroke:none;stroke-width:0.497953"
       id="rect196"
       width="7.9687138"
       height="7.9687138"
       x="0.24897645"
       y="0.24897645"
       inkscape:export-filename="Spider_Plant.svg"
       inkscape:export-xdpi="44.636486"
       inkscape:export-ydpi="44.636486" />
    <path
       style="fill:#6e9202;stroke:none;stroke-width:0.188237;stroke-dasharray:none"
       d="M 4.710626,7.493969 C 4.8558891,7.4031797 5.0582198,7.1645332 5.2790658,6.8646864 5.4999118,6.5648396 5.7392639,6.2038064 5.9786206,5.8427661 5.5991888,6.1415507 5.219757,6.4403354 4.9911307,6.6078859 4.7625045,6.7754364 4.6846861,6.8117516 4.612054,6.8947604 4.5394218,6.9777691 4.4719797,7.1074656 4.4356639,7.2112257 c -0.036316,0.10376 -0.041504,0.181578 9e-7,0.249022 0.041505,0.067444 0.1296982,0.1245106 0.2749612,0.033721 z"
       id="path196"
       inkscape:path-effect="#path-effect203"
       inkscape:original-d="M 4.6535585,7.641826 C 4.8558891,7.4031797 5.0582198,7.1645332 5.2605504,6.9258869 5.4999119,6.5648396 5.9786206,5.8427661 5.9786206,5.8427661 c 0,0 -0.7588636,0.5975693 -1.1382953,0.8963539 -0.077821,0.036316 -0.155639,0.072632 -0.2334585,0.1089473 -0.067445,0.1297018 -0.1348871,0.2593983 -0.2023306,0.3890973 -0.00519,0.077821 -0.010377,0.155639 -0.015564,0.2334584 0.088197,0.057069 0.1763908,0.1141352 0.2645863,0.171203 z"
       sodipodi:nodetypes="cccccccc" />
    <path
       style="fill:#6e9202;stroke:none;stroke-width:0.188237;stroke-dasharray:none"
       d="M 4.3941599,7.3097963 C 4.3163409,7.1541574 4.1191982,6.8532554 3.8466811,6.5290922 3.5741639,6.2049291 3.2262836,5.8575159 2.8783976,5.5100972 3.1225242,6.0131547 3.3666507,6.5162119 3.556159,6.8196215 c 0.1895083,0.3034096 0.3243924,0.4071667 0.4540929,0.4849868 0.1297004,0.07782 0.254209,0.1296986 0.3372172,0.1504504 0.083008,0.020752 0.1245098,0.010376 0.046691,-0.1452624 z"
       id="path197"
       inkscape:path-effect="#path-effect205"
       inkscape:original-d="M 4.5134835,7.4550593 C 4.3163408,7.1541574 4.1191983,6.8532553 3.9220555,6.5523534 3.5741639,6.2049291 2.8783976,5.5100972 2.8783976,5.5100972 c 0,0 0.4882531,1.0061147 0.7323798,1.5091725 0.1348899,0.1037614 0.269774,0.2075185 0.4046612,0.3112779 0.1245136,0.051881 0.2490223,0.1037594 0.3735334,0.1556389 0.041505,-0.010377 0.083007,-0.020751 0.1245115,-0.031127 z"
       sodipodi:nodetypes="ccccccc" />
    <path
       style="fill:#6e9202;stroke:none;stroke-width:0.188237;stroke-dasharray:none"
       d="m 4.4731252,7.2878045 c 0.046773,-0.010089 0.046773,-0.024762 0.046773,-0.1210599 0,-0.096298 0,-0.2742141 -0.042188,-0.5334291 C 4.4355221,6.3741005 4.3511494,6.0336021 4.2667752,5.6930978 4.2282565,6.0299337 4.1897377,6.3667696 4.1704784,6.6094751 4.151219,6.8521805 4.151219,7.0007496 4.165893,7.1016321 c 0.014674,0.1008825 0.044021,0.1540742 0.1054685,0.177919 0.061447,0.023845 0.1549911,0.018342 0.2017637,0.00825 z"
       id="path198"
       inkscape:path-effect="#path-effect207"
       inkscape:original-d="m 4.5198978,7.2923907 c 0,-0.014675 0,-0.029348 0,-0.044021 0,-0.1779232 0,-0.3558392 0,-0.5337589 -0.084376,-0.3405102 -0.2531226,-1.021513 -0.2531226,-1.021513 0,0 -0.077037,0.6736719 -0.1155562,1.0105077 0,0.148575 0,0.2971441 0,0.4457161 0.029348,0.053193 0.058695,0.1063848 0.088043,0.1595772 0.093547,-0.0055 0.1870907,-0.011004 0.2806358,-0.016508 z"
       sodipodi:nodetypes="cscccccc" />
    <path
       style="fill:#6e9202;stroke:none;stroke-width:0.188237;stroke-dasharray:none"
       d="m 4.5173746,7.2799654 c 0.029831,0.00649 0.063553,-0.029831 0.120621,-0.1348888 C 4.6950641,7.0400185 4.7754758,6.8662254 4.8336071,6.6239274 4.8917384,6.3816294 4.927586,6.070843 4.9634343,5.7600502 4.8030748,6.060467 4.6427153,6.360884 4.5547534,6.5707551 4.4667916,6.7806262 4.4512279,6.899947 4.4434459,6.9855491 c -0.00778,0.085602 -0.00778,0.1374805 0.00519,0.1880637 0.01297,0.050583 0.03891,0.099868 0.068741,0.1063526 z"
       id="path199"
       inkscape:path-effect="#path-effect209"
       inkscape:original-d="M 4.5134837,7.3227662 C 4.5472055,7.2864505 4.5809271,7.2501346 4.614649,7.2138189 4.695064,7.0400185 4.7754758,6.8662254 4.8558893,6.6924285 c 0.035849,-0.3107991 0.107545,-0.9323783 0.107545,-0.9323783 0,0 -0.320719,0.6008338 -0.4810784,0.9012505 -0.015564,0.1193255 -0.031128,0.2386463 -0.046692,0.3579695 0,0.051881 0,0.1037594 0,0.155639 0.02594,0.049287 0.05188,0.098571 0.07782,0.147857 z"
       sodipodi:nodetypes="cccccccc" />
    <path
       style="fill:#6e9202;stroke:none;stroke-width:0.188237;stroke-dasharray:none"
       d="M 4.2501943,7.0387251 C 4.2514913,6.9544207 4.2307393,6.8117517 4.1373385,6.6395982 4.0439376,6.4674447 3.8778943,6.2658145 3.7118478,6.0641805 c 0.083039,0.2690776 0.1660778,0.5381554 0.2296466,0.7077137 0.063569,0.1695584 0.1076654,0.2395941 0.1478723,0.2901769 0.040207,0.050583 0.076522,0.08171 0.1063534,0.084304 0.029831,0.00259 0.053177,-0.023346 0.054474,-0.1076502 z"
       id="path200"
       inkscape:path-effect="#path-effect211"
       inkscape:original-d="M 4.2722433,7.0970897 C 4.2514923,6.9544206 4.2307393,6.8117517 4.2099873,6.6690826 4.0439376,6.4674447 3.7118478,6.0641805 3.7118478,6.0641805 c 0,0 0.1660778,0.5381554 0.2491167,0.8072329 0.044099,0.070039 0.088195,0.1400751 0.1322931,0.2101126 0.036316,0.031128 0.072631,0.062256 0.1089472,0.093383 0.023346,-0.02594 0.046692,-0.05188 0.070039,-0.077819 z"
       sodipodi:nodetypes="ccccccc" />
    <path
       style="fill:#6e9202;stroke:none;stroke-width:0.188237;stroke-dasharray:none"
       d="m 4.8664347,6.8696023 c 0.00917,-0.015591 0.027513,-0.046773 0.062188,-0.1443989 0.034674,-0.097626 0.093721,-0.2875609 0.1487481,-0.4645633 -0.099048,0.1549918 -0.1980961,0.3099837 -0.2549571,0.4113252 -0.056861,0.1013415 -0.071534,0.1490294 -0.065114,0.1765433 0.00642,0.027514 0.033933,0.034851 0.05411,0.037602 0.020177,0.00275 0.033015,9.185e-4 0.039435,1.9e-6 0.00642,-9.167e-4 0.00642,-9.193e-4 0.01559,-0.01651 z"
       id="path201"
       inkscape:path-effect="#path-effect213"
       inkscape:original-d="m 4.8572634,6.8851934 c 0.018343,-0.031182 0.036684,-0.062364 0.055027,-0.093546 0.051006,-0.1640704 0.16508,-0.5310073 0.16508,-0.5310073 0,0 -0.1980961,0.3099837 -0.297144,0.4649754 -0.014675,0.047691 -0.029348,0.095379 -0.044021,0.1430695 0.027514,0.00734 0.055027,0.014675 0.08254,0.022011 0.01284,-0.00184 0.025679,-0.00367 0.038519,-0.0055 z"
       sodipodi:nodetypes="scccccss" />
    <path
       style="fill:#6e9202;stroke:none;stroke-width:0.188237;stroke-dasharray:none"
       d="m 4.544528,6.7586316 c 9.166e-4,-0.044022 0.00275,-0.1320637 0.00137,-0.2283605 -0.00138,-0.096297 -0.00596,-0.200847 -0.010547,-0.3053976 -0.046773,0.1449035 -0.093545,0.2898068 -0.1196831,0.386104 -0.026138,0.096297 -0.03164,0.1439855 -0.027971,0.1733339 0.00367,0.029348 0.016507,0.040353 0.044021,0.040353 0.027514,-4e-7 0.069699,-0.011005 0.090793,-0.016508 0.021094,-0.0055 0.021096,-0.0055 0.022013,-0.049524 z"
       id="path202"
       inkscape:path-effect="#path-effect215"
       inkscape:original-d="m 4.5436113,6.8026532 c 0.00184,-0.088043 0.00367,-0.1760852 0.0055,-0.264128 -0.00459,-0.1045507 -0.013756,-0.3136517 -0.013756,-0.3136517 0,0 -0.093545,0.2898069 -0.1403181,0.4347106 -0.0055,0.047691 -0.011004,0.095379 -0.016508,0.1430693 0.01284,0.011007 0.025679,0.022011 0.038518,0.033016 0.042188,-0.011007 0.084374,-0.022011 0.1265614,-0.033016 z"
       sodipodi:nodetypes="scccccss" />
  </g>
</svg>
