<?xml version="1.0" encoding="UTF-8" standalone="no"?>
<!-- Created with Inkscape (http://www.inkscape.org/) -->

<svg
   width="64.000008"
   height="64.000008"
   viewBox="0 0 16.933335 16.933335"
   version="1.1"
   id="svg1"
   inkscape:version="1.3.2 (091e20e, 2023-11-25, custom)"
   sodipodi:docname="Aloe_Vera_Scene.svg"
   xmlns:inkscape="http://www.inkscape.org/namespaces/inkscape"
   xmlns:sodipodi="http://sodipodi.sourceforge.net/DTD/sodipodi-0.dtd"
   xmlns="http://www.w3.org/2000/svg"
   xmlns:svg="http://www.w3.org/2000/svg">
  <sodipodi:namedview
     id="namedview1"
     pagecolor="#ffffff"
     bordercolor="#000000"
     borderopacity="0.25"
     inkscape:showpageshadow="2"
     inkscape:pageopacity="0.0"
     inkscape:pagecheckerboard="0"
     inkscape:deskcolor="#d1d1d1"
     inkscape:document-units="mm"
     showgrid="true"
     inkscape:zoom="8"
     inkscape:cx="72.75"
     inkscape:cy="49.9375"
     inkscape:window-width="1920"
     inkscape:window-height="1001"
     inkscape:window-x="-7"
     inkscape:window-y="-7"
     inkscape:window-maximized="1"
     inkscape:current-layer="g202">
    <inkscape:grid
       id="grid1"
       units="px"
       originx="-16.945568"
       originy="-11.801772"
       spacingx="8.4666666"
       spacingy="8.4666666"
       empcolor="#0099e5"
       empopacity="0.30196078"
       color="#0099e5"
       opacity="0.14901961"
       empspacing="5"
       dotted="false"
       gridanglex="30"
       gridanglez="30"
       visible="true" />
  </sodipodi:namedview>
  <defs
     id="defs1">
    <inkscape:path-effect
       effect="bspline"
       id="path-effect227"
       is_visible="true"
       lpeversion="1.3"
       weight="33.333333"
       steps="2"
       helper_size="0"
       apply_no_weight="true"
       apply_with_weight="true"
       only_selected="false"
       uniform="false" />
    <inkscape:path-effect
       effect="bspline"
       id="path-effect226"
       is_visible="true"
       lpeversion="1.3"
       weight="33.333333"
       steps="2"
       helper_size="0"
       apply_no_weight="true"
       apply_with_weight="true"
       only_selected="false"
       uniform="false" />
    <inkscape:path-effect
       effect="bspline"
       id="path-effect218"
       is_visible="true"
       lpeversion="1.3"
       weight="33.333333"
       steps="2"
       helper_size="0"
       apply_no_weight="true"
       apply_with_weight="true"
       only_selected="false"
       uniform="false" />
    <inkscape:path-effect
       effect="bspline"
       id="path-effect217"
       is_visible="true"
       lpeversion="1.3"
       weight="33.333333"
       steps="2"
       helper_size="0"
       apply_no_weight="true"
       apply_with_weight="true"
       only_selected="false"
       uniform="false" />
    <inkscape:path-effect
       effect="bspline"
       id="path-effect216"
       is_visible="true"
       lpeversion="1.3"
       weight="33.333333"
       steps="2"
       helper_size="0"
       apply_no_weight="true"
       apply_with_weight="true"
       only_selected="false"
       uniform="false" />
  </defs>
  <g
     inkscape:groupmode="layer"
     id="g32"
     inkscape:label="Layer 2"
     transform="translate(-8.478902,-11.801772)">
    <rect
       style="fill:none;fill-opacity:0.921569;stroke:none;stroke-width:4.36359"
       id="rect225"
       width="15.937428"
       height="15.937428"
       x="7.7312517"
       y="11.356647"
       transform="matrix(1.0624885,0,0,1.0624885,0.26453492,-0.26453461)"
       inkscape:export-filename="Spider_Plant_Full.svg"
       inkscape:export-xdpi="44.636486"
       inkscape:export-ydpi="44.636486" />
  </g>
  <g
     inkscape:label="Layer 1 copy 1"
     inkscape:groupmode="layer"
     id="g202"
     transform="matrix(-1.0624885,0,0,1.0624885,17.185633,-12.066307)">
    <path
       style="fill:#6e9202;stroke:none;stroke-width:0.188237;stroke-dasharray:none"
       d="m 8.9172482,21.881796 c 0.1687485,-0.392523 0.3741815,-1.27295 0.5209202,-2.050667 0.1467387,-0.777717 0.2347797,-1.452698 0.3301603,-1.973621 0.095381,-0.520922 0.198095,-0.88776 0.4658953,-1.192243 0.267801,-0.304483 0.700669,-0.546596 1.005151,-0.645643 0.304483,-0.09905 0.480566,-0.05503 0.656651,-0.01101 -0.205433,-0.205433 -0.410866,-0.410866 -0.796058,-0.429206 -0.385193,-0.01834 -0.950122,0.150404 -1.3499847,0.410867 -0.3998628,0.260463 -0.6346388,0.612627 -0.8070569,1.078526 -0.172418,0.465898 -0.282469,1.0455 -0.3778495,1.669142 -0.09538,0.623643 -0.1760846,1.291287 -0.2091005,1.768188 -0.033016,0.4769 -0.018343,0.763033 0.011005,0.994147 0.029348,0.231113 0.073368,0.407195 0.1614122,0.542928 0.088044,0.135734 0.2201058,0.231112 0.3888543,-0.161412 z"
       id="path215"
       inkscape:path-effect="#path-effect216"
       inkscape:original-d="m 8.8805639,22.369699 c 0.2054329,-0.880426 0.4108659,-1.760853 0.6162988,-2.64128 0.088044,-0.675007 0.1760854,-1.349988 0.264128,-2.024981 0.1027185,-0.366852 0.205433,-0.73369 0.3081493,-1.100534 0.432885,-0.242122 0.865753,-0.484235 1.29863,-0.726352 0.176088,0.04402 0.528256,0.132064 0.528256,0.132064 0,0 -0.410866,-0.410866 -0.616299,-0.616299 -0.564952,0.168752 -1.129881,0.337497 -1.6948217,0.506246 -0.2347852,0.352177 -0.4695609,0.704341 -0.7043414,1.056512 -0.1100554,0.579626 -0.2201066,1.159228 -0.33016,1.738843 -0.080707,0.66767 -0.1614115,1.335314 -0.2421174,2.002971 0.014675,0.286144 0.029348,0.572277 0.044021,0.858416 0.044022,0.176088 0.088043,0.35217 0.132064,0.528256 0.1320668,0.09538 0.264128,0.190759 0.3961924,0.286138 z"
       sodipodi:nodetypes="cccccccccccccc" />
    <path
       style="fill:#6e9202;stroke:none;stroke-width:0.188237;stroke-dasharray:none"
       d="m 8.4807033,21.84878 c -0.00367,-0.03669 -0.011005,-0.110053 0.011006,-0.726364 0.022011,-0.61631 0.073368,-1.775515 0.1540752,-2.619263 0.080707,-0.843748 0.190758,-1.371993 0.3374975,-1.962619 0.1467396,-0.590626 0.3301582,-1.243596 0.5717954,-1.654057 0.2416372,-0.410461 0.5414709,-0.578388 0.7469079,-0.725129 0.205437,-0.146741 0.316455,-0.27228 0.427475,-0.397821 -0.440214,0.0073 -0.8804272,0.01467 -1.2692857,0.154077 -0.3888584,0.139403 -0.7263485,0.410862 -0.9061026,0.792386 -0.1797541,0.381523 -0.2017643,0.873084 -0.2384493,1.621457 -0.036685,0.748373 -0.088042,1.753507 -0.1430693,2.608261 -0.055027,0.854755 -0.1137213,1.559083 -0.1394003,2.006635 -0.025679,0.447552 -0.018342,0.638307 0.062366,0.75203 0.080708,0.113722 0.2347786,0.150406 0.3118159,0.168748 0.077037,0.01834 0.077037,0.01834 0.073369,-0.01834 z"
       id="path216"
       inkscape:path-effect="#path-effect217"
       inkscape:original-d="m 8.4843719,21.885465 c -0.00734,-0.07337 -0.014675,-0.146738 -0.022011,-0.220107 0.051359,-1.159252 0.1027163,-2.318457 0.1540746,-3.477686 0.1100557,-0.528267 0.2201066,-1.056512 0.33016,-1.584768 0.1834258,-0.652996 0.3668445,-1.305966 0.5502668,-1.95895 0.2998519,-0.167938 0.5996857,-0.335865 0.8995377,-0.503803 0.111022,-0.125544 0.33306,-0.376624 0.33306,-0.376624 0,0 -0.8804271,0.01468 -1.3206405,0.02201 -0.3375037,0.27147 -0.6749939,0.542929 -1.0124908,0.814394 -0.022011,0.491582 -0.044021,0.983143 -0.066032,1.474715 -0.051359,1.005174 -0.1027165,2.010308 -0.1540746,3.015462 -0.058696,0.704355 -0.1173903,1.408683 -0.1760854,2.113024 0.00734,0.190763 0.014675,0.381518 0.022011,0.572278 0.1540775,0.03669 0.3081491,0.07337 0.462224,0.110053 z"
       sodipodi:nodetypes="sccccccccccccss" />
    <path
       style="fill:#6e9202;stroke:none;stroke-width:0.188237;stroke-dasharray:none"
       d="m 7.9964683,21.430577 c 0.040353,-0.0587 -0.033016,-0.220106 -0.099048,-0.770382 -0.066033,-0.550276 -0.1247266,-1.48938 -0.1210574,-2.311118 0.00367,-0.821739 0.0697,-1.526066 0.2017657,-2.237752 0.1320659,-0.711685 0.3301579,-1.430686 0.5722781,-1.980957 0.2421202,-0.55027 0.5282535,-0.931781 0.8143922,-1.313299 -0.3154863,0.132064 -0.6309727,0.264128 -0.9134454,0.45489 -0.2824727,0.190761 -0.5319219,0.44021 -0.7300195,0.986817 -0.1980976,0.546607 -0.3448324,1.390332 -0.4585548,2.289111 -0.1137225,0.898778 -0.1944264,1.852555 -0.1870886,2.578912 0.00734,0.726357 0.1027154,1.225256 0.2127699,1.566423 0.1100544,0.341167 0.2347792,0.524586 0.3741812,0.638308 0.139402,0.113722 0.2934737,0.157742 0.3338268,0.09905 z"
       id="path217"
       inkscape:path-effect="#path-effect218"
       inkscape:original-d="M 8.1101905,21.533294 C 8.0368216,21.371882 7.9634526,21.210471 7.8900837,21.049059 7.8313874,20.109919 7.7726936,19.170815 7.7139985,18.231694 c 0.066033,-0.704356 0.132064,-1.408683 0.198096,-2.113025 0.1981,-0.719029 0.396192,-1.43803 0.594288,-2.157046 0.2861446,-0.381525 0.8584162,-1.144554 0.8584162,-1.144554 0,0 -0.6309727,0.264128 -0.9464588,0.396192 -0.2494593,0.249459 -0.4989084,0.498908 -0.7483628,0.748362 -0.1467406,0.84376 -0.2934755,1.687485 -0.4402134,2.531227 -0.080708,0.953815 -0.161411,1.907592 -0.2421167,2.861388 0.095381,0.498918 0.1907586,0.997817 0.2861381,1.496725 0.1247296,0.183426 0.2494541,0.366845 0.3741814,0.550267 0.1540776,0.04402 0.3081494,0.08804 0.462224,0.132064 z"
       transform="translate(0.15407469,0.06603201)"
       sodipodi:nodetypes="ccccccccccccc" />
    <path
       style="fill:#6e9202;stroke:none;stroke-width:0.188237;stroke-dasharray:none"
       d="M 7.6699772,20.21999 C 7.6259558,19.522986 7.5379132,18.128977 7.4792177,17.233872 7.4205223,16.338768 7.3911753,15.942584 7.2150866,15.458343 7.038998,14.974103 6.7161811,14.401837 6.3860181,13.965289 6.0558552,13.528741 5.7183646,13.227934 5.380868,12.927122 c -0.058695,0.161412 -0.1173908,0.322823 -0.011003,0.506248 0.106388,0.183424 0.3778475,0.388853 0.5942868,0.652984 0.2164393,0.264131 0.3778476,0.586948 0.5099126,1.107875 0.1320649,0.520926 0.2347795,1.239926 0.3008118,1.863567 0.066032,0.623641 0.095379,1.151887 0.1283958,1.720502 0.033017,0.568615 0.069701,1.177565 0.1467393,1.548079 0.077038,0.370514 0.1944264,0.502576 0.3118175,0.561271 0.1173911,0.0587 0.2347798,0.04402 0.2934748,0.03669 0.058695,-0.0073 0.058695,-0.0073 0.014673,-0.704344 z"
       id="path218"
       inkscape:path-effect="#path-effect226"
       inkscape:original-d="M 7.7139985,20.916995 C 7.6259557,19.522986 7.5379131,18.128977 7.4498705,16.734968 7.4205223,16.338768 7.3911752,15.942584 7.3618277,15.546392 7.0389979,14.974103 6.7161804,14.401837 6.3933578,13.829559 6.0558554,13.528741 5.380868,12.927122 5.380868,12.927122 c 0,0 -0.1173916,0.322823 -0.1760862,0.484235 0.2714717,0.205437 0.5429309,0.410866 0.8143951,0.616298 0.1614138,0.32283 0.3228226,0.645647 0.4842338,0.96847 0.1027192,0.71903 0.2054335,1.43803 0.3081502,2.157046 0.029347,0.528266 0.058694,1.056512 0.088042,1.584768 0.036686,0.608974 0.07337,1.217924 0.1100554,1.826886 0.1173916,0.132066 0.2347795,0.264128 0.3521696,0.396192 0.1173926,-0.01467 0.2347805,-0.02935 0.3521708,-0.04402 z"
       sodipodi:nodetypes="scccccccccccss" />
    <path
       style="fill:#6e9202;stroke:none;stroke-width:0.188237;stroke-dasharray:none"
       d="M 7.0977003,20.546482 C 7.0756895,20.462108 7.0316683,20.29336 6.8225631,19.475282 6.6134579,18.657204 6.2392835,17.189855 5.8650985,16.232386 5.4909135,15.274918 5.1167403,14.827377 4.6911959,14.478872 4.2656515,14.130367 3.7887618,13.880917 3.3668869,13.803881 2.945012,13.726845 2.578176,13.822222 2.2113321,13.917602 c 0.1614113,0.124727 0.3228222,0.249454 0.5722791,0.388857 0.249457,0.139402 0.5869492,0.293475 0.9464603,0.546601 0.3595111,0.253126 0.7410211,0.605289 1.0638474,1.122546 0.3228262,0.517258 0.586949,1.199575 0.8217314,1.88925 0.2347825,0.689675 0.4402107,1.386665 0.6529825,1.859897 0.2127718,0.473232 0.4328744,0.722682 0.5759442,0.836404 0.1430697,0.113722 0.2091009,0.09171 0.2421174,0.08071 0.033017,-0.01101 0.033017,-0.01101 0.011006,-0.09538 z"
       id="path226"
       inkscape:path-effect="#path-effect227"
       inkscape:original-d="M 7.119711,20.630857 C 7.0756889,20.462108 7.0316667,20.29336 6.987647,20.124611 6.6134587,18.657204 6.2392827,17.189855 5.8651018,15.722477 5.4909134,15.274918 5.11674,14.827377 4.7425591,14.379826 4.2656515,14.130367 3.7887614,13.880918 3.3118637,13.631463 c -0.3668521,0.09538 -1.1005316,0.286139 -1.1005316,0.286139 0,0 0.3228225,0.249454 0.4842338,0.374182 0.3375024,0.154077 0.6749949,0.308149 1.0124898,0.462224 0.3815271,0.352178 0.7630367,0.704341 1.1445563,1.056512 0.264133,0.682344 0.528256,1.364661 0.792384,2.046992 0.2054359,0.697019 0.4108644,1.394009 0.6162978,2.091014 0.2201108,0.249459 0.4402142,0.498908 0.66032,0.748363 0.066033,-0.02201 0.132064,-0.04402 0.1980972,-0.06603 z"
       transform="translate(0.41820273,0.37418139)"
       sodipodi:nodetypes="scccccccccccss" />
  </g>
</svg>
