<?xml version="1.0" encoding="UTF-8" standalone="no"?>
<!-- Created with Inkscape (http://www.inkscape.org/) -->

<svg
   width="127.99999"
   height="32.000004"
   viewBox="0 0 33.866664 8.4666677"
   version="1.1"
   id="svg1"
   xmlns="http://www.w3.org/2000/svg"
   xmlns:svg="http://www.w3.org/2000/svg">
  <defs
     id="defs1" />
  <g
     id="g75"
     transform="matrix(-1.0624885,0,0,1.0624885,8.7312013,-0.26453462)">
    <rect
       style="fill:#bdca31;fill-opacity:0;stroke:none;stroke-width:0.497953"
       id="rect74"
       width="7.9687138"
       height="7.9687138"
       x="0.24897645"
       y="0.24897645" />
    <path
       style="fill:none;stroke:#457b47;stroke-width:0.2;stroke-dasharray:none"
       d="m 4.2994791,7.2098957 c 0.00551,-0.082682 0.011024,-0.1653646 0.011024,-0.2508036 -1e-7,-0.085439 -0.00551,-0.1736323 -0.019293,-0.2563155 -0.013781,-0.082683 -0.035829,-0.1598514 -0.057877,-0.2370215"
       id="path1"
       transform="matrix(-0.94118667,0,0,0.94118667,8.2176902,0.24897645)" />
    <ellipse
       style="fill:#a0bf43;stroke:none;stroke-width:0.461038;stroke-dasharray:none"
       id="path136"
       cx="-4.192812"
       cy="6.1570048"
       rx="0.25291327"
       ry="0.43764371"
       transform="scale(-1,1)" />
    <path
       style="fill:#457b47;fill-opacity:1;stroke:none;stroke-width:0.0470592;stroke-dasharray:none;stroke-opacity:1"
       d="M 4.1256832,6.6029362 C 4.1191983,6.5834814 4.1062283,6.5445715 4.073803,6.484909 4.0413777,6.4252466 3.9894991,6.3448349 3.9194608,6.3033314 3.8494225,6.261828 3.7612284,6.2592347 3.7028636,6.2786904 c -0.058365,0.019456 -0.086898,0.060959 -0.032423,0.1361854 0.054475,0.075226 0.1919535,0.1841713 0.2827437,0.2334568 0.09079,0.049285 0.1348858,0.03891 0.1569349,0.024642 0.022049,-0.014268 0.022049,-0.032425 0.022049,-0.041504 0,-0.00908 -4e-7,-0.00908 -0.00649,-0.028535 z"
       id="path805"
       transform="translate(0.02334584,0.14785699)" />
  </g>
  <g
     id="g811"
     transform="matrix(-1.0624885,0,0,1.0624885,17.197868,-0.26453462)">
    <rect
       style="fill:#bdca31;fill-opacity:0;stroke:none;stroke-width:0.497953"
       id="rect810"
       width="7.9687138"
       height="7.9687138"
       x="0.24897645"
       y="0.24897645" />
    <path
       style="fill:none;stroke:#457b47;stroke-width:0.2;stroke-dasharray:none"
       d="m 4.2994791,7.2098957 c 0.00551,-0.082682 0.011024,-0.1653646 0.011024,-0.2508036 -1e-7,-0.085439 -0.00551,-0.1736298 -0.01616,-0.412279 C 4.283695,6.3081639 4.2679117,5.919082 4.2530803,5.5920334 4.238249,5.2649847 4.2243698,4.9999777 4.1549768,4.8480213 4.0855837,4.6960649 3.9606767,4.6571597 3.8357696,4.6182545"
       id="path810"
       transform="matrix(-0.94118667,0,0,0.94118667,8.2176902,0.24897645)" />
    <ellipse
       style="fill:#a0bf43;stroke:none;stroke-width:0.461038;stroke-dasharray:none"
       id="ellipse810"
       cx="0.25773907"
       cy="-6.7454495"
       rx="0.25291327"
       ry="0.43764371"
       transform="matrix(0.73160941,-0.68172405,-0.68172405,-0.73160941,0,0)" />
    <path
       style="fill:#457b47;fill-opacity:1;stroke:none;stroke-width:0.0470592;stroke-dasharray:none;stroke-opacity:1"
       d="M 4.1256832,6.6029362 C 4.1191983,6.5834814 4.1062283,6.5445715 4.073803,6.484909 4.0413777,6.4252466 3.9894991,6.3448349 3.9194608,6.3033314 3.8494225,6.261828 3.7612284,6.2592347 3.7028636,6.2786904 c -0.058365,0.019456 -0.086898,0.060959 -0.032423,0.1361854 0.054475,0.075226 0.1919535,0.1841713 0.2827437,0.2334568 0.09079,0.049285 0.1348858,0.03891 0.1569349,0.024642 0.022049,-0.014268 0.022049,-0.032425 0.022049,-0.041504 0,-0.00908 -4e-7,-0.00908 -0.00649,-0.028535 z"
       id="path811"
       transform="translate(0.02334584,0.14785699)" />
    <path
       style="fill:#457b47;fill-opacity:1;stroke:none;stroke-width:0.0470592;stroke-dasharray:none;stroke-opacity:1"
       d="M 4.1256832,6.6029362 C 4.1191983,6.5834814 4.1062283,6.5445715 4.073803,6.484909 4.0413777,6.4252466 3.9894991,6.3448349 3.9194608,6.3033314 3.8494225,6.261828 3.7612284,6.2592347 3.7028636,6.2786904 c -0.058365,0.019456 -0.086898,0.060959 -0.032423,0.1361854 0.054475,0.075226 0.1919535,0.1841713 0.2827437,0.2334568 0.09079,0.049285 0.1348858,0.03891 0.1569349,0.024642 0.022049,-0.014268 0.022049,-0.032425 0.022049,-0.041504 0,-0.00908 -4e-7,-0.00908 -0.00649,-0.028535 z"
       id="path847"
       transform="translate(0.54059659,-0.4464311)" />
    <path
       style="fill:#457b47;fill-opacity:1;stroke:none;stroke-width:0.0470592;stroke-dasharray:none;stroke-opacity:1"
       d="M 4.1256832,6.6029362 C 4.1191983,6.5834814 4.1062283,6.5445715 4.073803,6.484909 4.0413777,6.4252466 3.9894991,6.3448349 3.9194608,6.3033314 3.8494225,6.261828 3.7612284,6.2592347 3.7028636,6.2786904 c -0.058365,0.019456 -0.086898,0.060959 -0.032423,0.1361854 0.054475,0.075226 0.1919535,0.1841713 0.2827437,0.2334568 0.09079,0.049285 0.1348858,0.03891 0.1569349,0.024642 0.022049,-0.014268 0.022049,-0.032425 0.022049,-0.041504 0,-0.00908 -4e-7,-0.00908 -0.00649,-0.028535 z"
       id="path853"
       transform="translate(0.04535651,-0.87563917)" />
    <path
       style="fill:#457b47;fill-opacity:1;stroke:none;stroke-width:0.0470592;stroke-dasharray:none;stroke-opacity:1"
       d="M 4.1256832,6.6029362 C 4.1191983,6.5834814 4.1062283,6.5445715 4.073803,6.484909 4.0413777,6.4252466 3.9894991,6.3448349 3.9194608,6.3033314 3.8494225,6.261828 3.7612284,6.2592347 3.7028636,6.2786904 c -0.058365,0.019456 -0.086898,0.060959 -0.032423,0.1361854 0.054475,0.075226 0.1919535,0.1841713 0.2827437,0.2334568 0.09079,0.049285 0.1348858,0.03891 0.1569349,0.024642 0.022049,-0.014268 0.022049,-0.032425 0.022049,-0.041504 0,-0.00908 -4e-7,-0.00908 -0.00649,-0.028535 z"
       id="path856"
       transform="translate(0.57361259,-1.3598739)" />
    <path
       style="fill:#457b47;fill-opacity:1;stroke:none;stroke-width:0.0470592;stroke-dasharray:none;stroke-opacity:1"
       d="M 4.1256832,6.6029362 C 4.1191983,6.5834814 4.1062283,6.5445715 4.073803,6.484909 4.0413777,6.4252466 3.9894991,6.3448349 3.9194608,6.3033314 3.8494225,6.261828 3.7612284,6.2592347 3.7028636,6.2786904 c -0.058365,0.019456 -0.086898,0.060959 -0.032423,0.1361854 0.054475,0.075226 0.1919535,0.1841713 0.2827437,0.2334568 0.09079,0.049285 0.1348858,0.03891 0.1569349,0.024642 0.022049,-0.014268 0.022049,-0.032425 0.022049,-0.041504 0,-0.00908 -4e-7,-0.00908 -0.00649,-0.028535 z"
       id="path861"
       transform="translate(0.08937785,-1.4038952)" />
    <path
       style="fill:#ffec8c;fill-opacity:1;stroke:none;stroke-width:0.0470592;stroke-dasharray:none;stroke-opacity:1"
       d="m 12.806446,4.8247619 c 0.02854,0.031128 0.0856,0.093382 0.121917,0.1426677 0.03632,0.049285 0.05188,0.085604 0.02075,0.145265 -0.03113,0.059661 -0.108947,0.1426679 -0.07782,0.1660132 0.03113,0.023345 0.171202,-0.01297 0.259398,-0.072633 0.0882,-0.059663 0.12451,-0.1426669 0.108945,-0.2230828 -0.01557,-0.080416 -0.08301,-0.1582313 -0.142667,-0.1971409 -0.05966,-0.03891 -0.111542,-0.03891 -0.163421,-0.031128 -0.05188,0.00778 -0.10376,0.023346 -0.129699,0.031128 -0.02594,0.00778 -0.02594,0.00778 0.0026,0.03891 z"
       id="path908"
       transform="translate(-7.9687139)" />
  </g>
  <g
     id="g871"
     transform="matrix(-1.0624885,0,0,1.0624885,25.664535,-0.26453462)">
    <rect
       style="fill:#bdca31;fill-opacity:0;stroke:none;stroke-width:0.497953"
       id="rect866"
       width="7.9687138"
       height="7.9687138"
       x="0.24897645"
       y="0.24897645" />
    <path
       style="fill:none;stroke:#457b47;stroke-width:0.2;stroke-dasharray:none"
       d="m 4.2994791,7.2098957 c 0.00551,-0.082682 0.011024,-0.1653646 0.011024,-0.2508036 -1e-7,-0.085439 -0.00551,-0.1736298 -0.01616,-0.412279 C 4.283695,6.3081639 4.2679117,5.919082 4.2530803,5.5920334 4.238249,5.2649847 4.2243698,4.9999777 4.0915871,4.8480213 3.9588043,4.6960649 3.7071178,4.6571597 3.4554311,4.6182545"
       id="path866"
       transform="matrix(-0.94118667,0,0,0.94118667,8.2176902,0.24897645)" />
    <ellipse
       style="fill:#a0bf43;stroke:none;stroke-width:0.461038;stroke-dasharray:none"
       id="ellipse866"
       cx="0.45752409"
       cy="-7.1018"
       rx="0.25291327"
       ry="0.43764371"
       transform="matrix(0.73160941,-0.68172405,-0.68172405,-0.73160941,0,0)" />
    <path
       style="fill:#457b47;fill-opacity:1;stroke:none;stroke-width:0.0470592;stroke-dasharray:none;stroke-opacity:1"
       d="M 4.1256832,6.6029362 C 4.1191983,6.5834814 4.1062283,6.5445715 4.073803,6.484909 4.0413777,6.4252466 3.9894991,6.3448349 3.9194608,6.3033314 3.8494225,6.261828 3.7612284,6.2592347 3.7028636,6.2786904 c -0.058365,0.019456 -0.086898,0.060959 -0.032423,0.1361854 0.054475,0.075226 0.1919535,0.1841713 0.2827437,0.2334568 0.09079,0.049285 0.1348858,0.03891 0.1569349,0.024642 0.022049,-0.014268 0.022049,-0.032425 0.022049,-0.041504 0,-0.00908 -4e-7,-0.00908 -0.00649,-0.028535 z"
       id="path867"
       transform="translate(0.02334584,0.14785699)" />
    <path
       style="fill:#457b47;fill-opacity:1;stroke:none;stroke-width:0.0470592;stroke-dasharray:none;stroke-opacity:1"
       d="M 4.1256832,6.6029362 C 4.1191983,6.5834814 4.1062283,6.5445715 4.073803,6.484909 4.0413777,6.4252466 3.9894991,6.3448349 3.9194608,6.3033314 3.8494225,6.261828 3.7612284,6.2592347 3.7028636,6.2786904 c -0.058365,0.019456 -0.086898,0.060959 -0.032423,0.1361854 0.054475,0.075226 0.1919535,0.1841713 0.2827437,0.2334568 0.09079,0.049285 0.1348858,0.03891 0.1569349,0.024642 0.022049,-0.014268 0.022049,-0.032425 0.022049,-0.041504 0,-0.00908 -4e-7,-0.00908 -0.00649,-0.028535 z"
       id="path868"
       transform="translate(0.54059659,-0.4464311)" />
    <path
       style="fill:#457b47;fill-opacity:1;stroke:none;stroke-width:0.0470592;stroke-dasharray:none;stroke-opacity:1"
       d="M 4.1256832,6.6029362 C 4.1191983,6.5834814 4.1062283,6.5445715 4.073803,6.484909 4.0413777,6.4252466 3.9894991,6.3448349 3.9194608,6.3033314 3.8494225,6.261828 3.7612284,6.2592347 3.7028636,6.2786904 c -0.058365,0.019456 -0.086898,0.060959 -0.032423,0.1361854 0.054475,0.075226 0.1919535,0.1841713 0.2827437,0.2334568 0.09079,0.049285 0.1348858,0.03891 0.1569349,0.024642 0.022049,-0.014268 0.022049,-0.032425 0.022049,-0.041504 0,-0.00908 -4e-7,-0.00908 -0.00649,-0.028535 z"
       id="path869"
       transform="translate(0.04535651,-0.87563917)" />
    <path
       style="fill:#457b47;fill-opacity:1;stroke:none;stroke-width:0.0470592;stroke-dasharray:none;stroke-opacity:1"
       d="M 4.1256832,6.6029362 C 4.1191983,6.5834814 4.1062283,6.5445715 4.073803,6.484909 4.0413777,6.4252466 3.9894991,6.3448349 3.9194608,6.3033314 3.8494225,6.261828 3.7612284,6.2592347 3.7028636,6.2786904 c -0.058365,0.019456 -0.086898,0.060959 -0.032423,0.1361854 0.054475,0.075226 0.1919535,0.1841713 0.2827437,0.2334568 0.09079,0.049285 0.1348858,0.03891 0.1569349,0.024642 0.022049,-0.014268 0.022049,-0.032425 0.022049,-0.041504 0,-0.00908 -4e-7,-0.00908 -0.00649,-0.028535 z"
       id="path870"
       transform="translate(0.57361259,-1.3598739)" />
    <path
       style="fill:#457b47;fill-opacity:1;stroke:none;stroke-width:0.0470592;stroke-dasharray:none;stroke-opacity:1"
       d="M 4.1256832,6.6029362 C 4.1191983,6.5834814 4.1062283,6.5445715 4.073803,6.484909 4.0413777,6.4252466 3.9894991,6.3448349 3.9194608,6.3033314 3.8494225,6.261828 3.7612284,6.2592347 3.7028636,6.2786904 c -0.058365,0.019456 -0.086898,0.060959 -0.032423,0.1361854 0.054475,0.075226 0.1919535,0.1841713 0.2827437,0.2334568 0.09079,0.049285 0.1348858,0.03891 0.1569349,0.024642 0.022049,-0.014268 0.022049,-0.032425 0.022049,-0.041504 0,-0.00908 -4e-7,-0.00908 -0.00649,-0.028535 z"
       id="path871"
       transform="translate(0.08937785,-1.4038952)" />
    <path
       style="fill:#ffec8c;fill-opacity:1;stroke:none;stroke-width:0.0470592;stroke-dasharray:none;stroke-opacity:1"
       d="m 5.2605507,4.8325432 c 0.054474,0.046692 0.1089471,0.093383 0.1556394,0.1309963 0.046692,0.037613 0.085602,0.066146 0.1543431,0.072631 0.068741,0.00648 0.1673104,-0.00908 0.2451304,-0.033722 0.07782,-0.024643 0.1348863,-0.058364 0.1815785,-0.047988 0.046692,0.010377 0.083007,0.064849 0.070036,0.1322935 C 6.0543079,5.1541983 5.9920535,5.2346105 5.9181243,5.3163218 5.844195,5.398033 5.7585953,5.4810388 5.672993,5.5368097 5.5873908,5.5925806 5.5017911,5.6211138 5.427862,5.6379747 5.353933,5.6548357 5.2916784,5.6600235 5.2475805,5.6094398 5.2034826,5.558856 5.1775434,5.4525051 5.1982959,5.3591209 5.2190484,5.2657366 5.2864906,5.1853248 5.3007571,5.1191777 5.3150236,5.0530307 5.2761147,5.0011521 5.246283,4.9700239 5.2164514,4.9388956 5.1957016,4.9285207 5.1749493,4.9181446"
       id="path910" />
  </g>
  <g
     id="g964"
     transform="matrix(-1.0624885,0,0,1.0624885,34.131201,-0.26453462)">
    <rect
       style="fill:#bdca31;fill-opacity:0;stroke:none;stroke-width:0.497953"
       id="rect958"
       width="7.9687138"
       height="7.9687138"
       x="0.24897645"
       y="0.24897645" />
    <path
       style="fill:none;stroke:#457b47;stroke-width:0.2;stroke-dasharray:none"
       d="m 4.2994791,7.2098957 c 0.00551,-0.082682 0.011024,-0.1653646 0.011024,-0.2508036 -1e-7,-0.085439 -0.00551,-0.1736298 -0.01616,-0.412279 C 4.283695,6.3081639 4.2679117,5.919082 4.2530803,5.5920334 4.238249,5.2649847 4.2243698,4.9999769 4.2026908,4.6969417 4.1810118,4.3939065 4.1515329,4.0528425 4.1192747,3.7379245 4.0870165,3.4230064 4.0519791,3.134234 3.8544526,3.0943367 3.6569262,3.0544395 3.2969108,3.2634174 2.9368953,3.4723954"
       id="path958"
       transform="matrix(-0.94118667,0,0,0.94118667,8.2176902,0.24897645)" />
    <ellipse
       style="fill:#a0bf43;stroke:none;stroke-width:0.461038;stroke-dasharray:none"
       id="ellipse958"
       cx="4.3641429"
       cy="-5.1346126"
       rx="0.25291327"
       ry="0.43764371"
       transform="matrix(0.96462749,-0.26361677,-0.26361677,-0.96462749,0,0)" />
    <path
       style="fill:#457b47;fill-opacity:1;stroke:none;stroke-width:0.0470592;stroke-dasharray:none;stroke-opacity:1"
       d="M 4.1256832,6.6029362 C 4.1191983,6.5834814 4.1062283,6.5445715 4.073803,6.484909 4.0413777,6.4252466 3.9894991,6.3448349 3.9194608,6.3033314 3.8494225,6.261828 3.7612284,6.2592347 3.7028636,6.2786904 c -0.058365,0.019456 -0.086898,0.060959 -0.032423,0.1361854 0.054475,0.075226 0.1919535,0.1841713 0.2827437,0.2334568 0.09079,0.049285 0.1348858,0.03891 0.1569349,0.024642 0.022049,-0.014268 0.022049,-0.032425 0.022049,-0.041504 0,-0.00908 -4e-7,-0.00908 -0.00649,-0.028535 z"
       id="path959"
       transform="translate(0.02334584,0.14785699)" />
    <path
       style="fill:#457b47;fill-opacity:1;stroke:none;stroke-width:0.0470592;stroke-dasharray:none;stroke-opacity:1"
       d="M 4.1256832,6.6029362 C 4.1191983,6.5834814 4.1062283,6.5445715 4.073803,6.484909 4.0413777,6.4252466 3.9894991,6.3448349 3.9194608,6.3033314 3.8494225,6.261828 3.7612284,6.2592347 3.7028636,6.2786904 c -0.058365,0.019456 -0.086898,0.060959 -0.032423,0.1361854 0.054475,0.075226 0.1919535,0.1841713 0.2827437,0.2334568 0.09079,0.049285 0.1348858,0.03891 0.1569349,0.024642 0.022049,-0.014268 0.022049,-0.032425 0.022049,-0.041504 0,-0.00908 -4e-7,-0.00908 -0.00649,-0.028535 z"
       id="path960"
       transform="translate(0.54059659,-0.4464311)" />
    <path
       style="fill:#457b47;fill-opacity:1;stroke:none;stroke-width:0.0470592;stroke-dasharray:none;stroke-opacity:1"
       d="M 4.1256832,6.6029362 C 4.1191983,6.5834814 4.1062283,6.5445715 4.073803,6.484909 4.0413777,6.4252466 3.9894991,6.3448349 3.9194608,6.3033314 3.8494225,6.261828 3.7612284,6.2592347 3.7028636,6.2786904 c -0.058365,0.019456 -0.086898,0.060959 -0.032423,0.1361854 0.054475,0.075226 0.1919535,0.1841713 0.2827437,0.2334568 0.09079,0.049285 0.1348858,0.03891 0.1569349,0.024642 0.022049,-0.014268 0.022049,-0.032425 0.022049,-0.041504 0,-0.00908 -4e-7,-0.00908 -0.00649,-0.028535 z"
       id="path961"
       transform="translate(0.04535651,-0.87563917)" />
    <path
       style="fill:#457b47;fill-opacity:1;stroke:none;stroke-width:0.0470592;stroke-dasharray:none;stroke-opacity:1"
       d="M 4.1256832,6.6029362 C 4.1191983,6.5834814 4.1062283,6.5445715 4.073803,6.484909 4.0413777,6.4252466 3.9894991,6.3448349 3.9194608,6.3033314 3.8494225,6.261828 3.7612284,6.2592347 3.7028636,6.2786904 c -0.058365,0.019456 -0.086898,0.060959 -0.032423,0.1361854 0.054475,0.075226 0.1919535,0.1841713 0.2827437,0.2334568 0.09079,0.049285 0.1348858,0.03891 0.1569349,0.024642 0.022049,-0.014268 0.022049,-0.032425 0.022049,-0.041504 0,-0.00908 -4e-7,-0.00908 -0.00649,-0.028535 z"
       id="path962"
       transform="translate(0.57361259,-1.3598739)" />
    <path
       style="fill:#457b47;fill-opacity:1;stroke:none;stroke-width:0.0470592;stroke-dasharray:none;stroke-opacity:1"
       d="M 4.1256832,6.6029362 C 4.1191983,6.5834814 4.1062283,6.5445715 4.073803,6.484909 4.0413777,6.4252466 3.9894991,6.3448349 3.9194608,6.3033314 3.8494225,6.261828 3.7612284,6.2592347 3.7028636,6.2786904 c -0.058365,0.019456 -0.086898,0.060959 -0.032423,0.1361854 0.054475,0.075226 0.1919535,0.1841713 0.2827437,0.2334568 0.09079,0.049285 0.1348858,0.03891 0.1569349,0.024642 0.022049,-0.014268 0.022049,-0.032425 0.022049,-0.041504 0,-0.00908 -4e-7,-0.00908 -0.00649,-0.028535 z"
       id="path963"
       transform="translate(0.08937785,-1.4038952)" />
    <path
       style="fill:#ffec8c;fill-opacity:1;stroke:none;stroke-width:0.0470592;stroke-dasharray:none;stroke-opacity:1"
       d="m 5.2605507,4.8325432 c 0.054474,0.046692 0.1089471,0.093383 0.1556394,0.1309963 0.046692,0.037613 0.085602,0.066146 0.1543431,0.072631 0.068741,0.00648 0.1673104,-0.00908 0.2451304,-0.033722 0.07782,-0.024643 0.1348863,-0.058364 0.1815785,-0.047988 0.046692,0.010377 0.083007,0.064849 0.070036,0.1322935 C 6.0543079,5.1541983 5.9920535,5.2346105 5.9181243,5.3163218 5.844195,5.398033 5.7585953,5.4810388 5.672993,5.5368097 5.5873908,5.5925806 5.5017911,5.6211138 5.427862,5.6379747 5.353933,5.6548357 5.2916784,5.6600235 5.2475805,5.6094398 5.2034826,5.558856 5.1775434,5.4525051 5.1982959,5.3591209 5.2190484,5.2657366 5.2864906,5.1853248 5.3007571,5.1191777 5.3150236,5.0530307 5.2761147,5.0011521 5.246283,4.9700239 5.2164514,4.9388956 5.1957016,4.9285207 5.1749493,4.9181446"
       id="path964"
       transform="matrix(1.1626079,0.61022064,-0.61022064,1.1626079,2.5185578,-5.0196853)" />
    <path
       style="fill:#ffec8c;fill-opacity:1;stroke:none;stroke-width:0.0470592;stroke-dasharray:none;stroke-opacity:1"
       d="m 6.2968443,5.2099674 c 0.00129,-0.027237 0.00389,-0.08171 -0.0052,-0.1841735 -0.00908,-0.1024633 -0.029833,-0.2529124 -0.066149,-0.3514844 -0.036317,-0.098572 -0.088195,-0.1452627 -0.060957,-0.13748 0.027238,0.00778 0.1335901,0.070038 0.2062216,0.1504516 0.072631,0.080414 0.1115405,0.1789837 0.119323,0.2580987 0.00778,0.079115 -0.015565,0.1387797 -0.04799,0.1815805 -0.032425,0.042801 -0.073928,0.06874 -0.099872,0.084306 -0.025944,0.015566 -0.036306,0.020747 -0.041497,0.023343 -0.00519,0.0026 -0.00518,0.00259 -0.00388,-0.024642 z"
       id="path1010"
       transform="rotate(27.693736,7.5631775,5.1284965)" />
    <path
       style="fill:#ffec8c;fill-opacity:1;stroke:none;stroke-width:0.0470592;stroke-dasharray:none;stroke-opacity:1"
       d="M 5.4343468,5.7689706 C 5.366903,5.7404367 5.2320173,5.6833696 5.1295535,5.630192 5.0270897,5.5770144 4.9570546,5.5277305 4.9324117,5.5445911 c -0.024643,0.016861 -0.00389,0.099869 0.029831,0.1673126 0.033722,0.067444 0.080413,0.1193225 0.1322928,0.1465591 0.05188,0.027236 0.1089465,0.02983 0.1647176,0.031127 0.055771,0.0013 0.1102444,0.0013 0.1504514,-0.014268 0.040207,-0.015564 0.066146,-0.046691 0.079116,-0.062255 0.01297,-0.015564 0.01297,-0.015562 -0.054474,-0.044096 z"
       id="path1012"
       transform="rotate(27.693736,7.5984178,5.0534602)" />
  </g>
</svg>
