<?xml version="1.0" encoding="UTF-8" standalone="no"?>
<!-- Created with Inkscape (http://www.inkscape.org/) -->

<svg
   width="64.000008"
   height="64.000008"
   viewBox="0 0 16.933335 16.933335"
   version="1.1"
   id="svg1"
   xmlns="http://www.w3.org/2000/svg"
   xmlns:svg="http://www.w3.org/2000/svg">
  <defs
     id="defs1" />
  <g
     id="g32"
     transform="translate(-8.478902,-11.801772)">
    <rect
       style="fill:none;fill-opacity:0.921569;stroke:none;stroke-width:4.36359"
       id="rect225"
       width="15.937428"
       height="15.937428"
       x="7.7312517"
       y="11.356647"
       transform="matrix(1.0624885,0,0,1.0624885,0.26453492,-0.26453461)" />
    <g
       id="g1073"
       transform="translate(2.2918362,3.1805074)">
      <path
         style="fill:#6e9202;fill-opacity:1;stroke:none;stroke-width:0.1;stroke-dasharray:none;stroke-opacity:1"
         d="m 17.29438,17.815277 c 0.146072,-0.126779 0.438216,-0.380338 0.719337,-0.556728 0.281122,-0.176389 0.551214,-0.275606 0.77997,-0.162604 0.228756,0.113003 0.416166,0.438213 0.350016,0.691774 -0.06615,0.253561 -0.385848,0.435458 -0.68075,0.529165 -0.294902,0.09371 -0.564993,0.09922 -0.746894,0.06064 -0.181901,-0.03859 -0.275607,-0.121267 -0.355534,-0.201194 -0.07993,-0.07993 -0.146072,-0.157096 -0.179144,-0.195681 -0.03307,-0.03858 -0.03307,-0.03859 0.112999,-0.165368 z"
         id="path1049"
         transform="translate(-0.13229167,-0.13229167)" />
      <path
         style="fill:none;fill-opacity:1;stroke:#457b47;stroke-width:0.3;stroke-dasharray:none;stroke-opacity:1"
         d="m 16.801042,24.077083 c -0.02205,-0.286632 -0.0441,-0.573264 0.03307,-2.171817 0.07717,-1.598553 0.253557,-4.508912 0.08819,-6.162562 -0.165369,-1.65365 -0.672478,-2.050517 -1.311895,-2.050513 -0.639417,4e-6 -1.411103,0.396871 -1.833256,0.70733 -0.422154,0.310459 -0.494754,0.534489 -0.498652,0.850974 -0.0039,0.316485 0.06091,0.725385 0.125717,1.134298"
         id="path1013" />
      <g
         id="g1019">
        <path
           style="fill:#ffec8c;fill-opacity:1;stroke:none;stroke-width:0.3;stroke-dasharray:none;stroke-opacity:1"
           d="m 14.645791,18.259007 c -0.02205,-0.03032 -0.06615,-0.09095 -0.259077,-0.435469 -0.192927,-0.344514 -0.534674,-0.972887 -0.77592,-1.238362 -0.241247,-0.265475 -0.530455,-0.06525 -0.500794,0.180121 0.02966,0.245375 0.09095,0.752403 0.107814,1.050023 0.01686,0.297619 -0.01069,0.385808 -0.26977,0.372027 -0.259076,-0.01378 -0.749648,-0.129535 -1.044549,-0.129534 -0.294901,2e-6 -0.394118,0.115755 -0.223236,0.308683 0.170881,0.192928 0.611844,0.463018 1.050065,0.611846 0.43822,0.148828 0.873671,0.176387 1.229208,0.190167 0.355536,0.01378 0.631139,0.01378 0.934311,-0.04134 0.303171,-0.05512 0.633894,-0.165363 0.777209,-0.350023 0.143316,-0.18466 0.09922,-0.443725 -0.02205,-0.559481 -0.121269,-0.115756 -0.319703,-0.0882 -0.4768,-0.06339 -0.157098,0.0248 -0.272851,0.04685 -0.350023,0.06891 -0.07717,0.02205 -0.115753,0.0441 -0.135045,0.05512 -0.01929,0.01103 -0.01929,0.01102 -0.04134,-0.01929 z"
           id="path1016"
           transform="translate(0.06614583,-0.24804688)" />
        <path
           style="fill:#ffec8c;fill-opacity:1;stroke:none;stroke-width:0.3;stroke-dasharray:none;stroke-opacity:1"
           d="m 11.82908,17.79323 c -0.0441,-0.115755 -0.132291,-0.347266 -0.209462,-0.372069 -0.07717,-0.0248 -0.143315,0.157094 -0.115753,0.303167 0.02756,0.146073 0.148826,0.256314 0.225998,0.281117 0.07717,0.0248 0.110243,-0.03583 0.12678,-0.06615 0.01654,-0.03032 0.01653,-0.03032 -0.02756,-0.14607 z"
           id="path1017" />
        <path
           style="fill:#ffec8c;fill-opacity:1;stroke:none;stroke-width:0.3;stroke-dasharray:none;stroke-opacity:1"
           d="m 15.624198,18.068837 c 0.04685,-0.137805 0.14056,-0.413412 0.225998,-0.4768 0.08544,-0.06339 0.162608,0.08544 0.198436,0.23151 0.03583,0.146073 0.03031,0.289387 -2e-6,0.396874 -0.03032,0.107487 -0.08544,0.179145 -0.13505,0.223243 -0.04961,0.0441 -0.0937,0.06063 -0.148826,0.01653 -0.05513,-0.0441 -0.121269,-0.148826 -0.154341,-0.201191 -0.03307,-0.05237 -0.03307,-0.05237 0.01379,-0.19017 z"
           id="path1018" />
      </g>
      <path
         style="fill:none;fill-opacity:1;stroke:#457b47;stroke-width:0.1;stroke-dasharray:none;stroke-opacity:1"
         d="m 13.329164,15.668676 c -0.288429,0.124726 -0.576857,0.249451 -0.876982,0.409258 -0.300124,0.159807 -0.611933,0.354687 -0.830204,0.580755 -0.218271,0.226068 -0.342994,0.48331 -0.389767,0.724968 -0.04677,0.241659 -0.01559,0.46772 -3e-6,0.619733 0.01559,0.152013 0.01559,0.22996 0.01559,0.307913"
         id="path1041" />
      <path
         style="fill:none;fill-opacity:1;stroke:#457b47;stroke-width:0.1;stroke-dasharray:none;stroke-opacity:1"
         d="m 13.305777,15.64529 c 0.95883,0.226065 1.917659,0.452131 2.482825,0.771745 0.565166,0.319614 0.73666,0.73276 0.837998,0.978312 0.101339,0.245553 0.13252,0.323509 0.1637,0.401463"
         id="path1043" />
      <g
         id="g1021"
         transform="matrix(0.75469072,0,0,0.95696046,1.1600296,2.4750694)">
        <path
           style="fill:#ffec8c;fill-opacity:1;stroke:none;stroke-width:0.3;stroke-dasharray:none;stroke-opacity:1"
           d="m 14.645791,18.259007 c -0.02205,-0.03032 -0.06615,-0.09095 -0.259077,-0.435469 -0.192927,-0.344514 -0.534674,-0.972887 -0.77592,-1.238362 -0.241247,-0.265475 -0.530455,-0.06525 -0.500794,0.180121 0.02966,0.245375 0.09095,0.752403 0.107814,1.050023 0.01686,0.297619 -0.01069,0.385808 -0.26977,0.372027 -0.259076,-0.01378 -0.749648,-0.129535 -1.044549,-0.129534 -0.294901,2e-6 -0.394118,0.115755 -0.223236,0.308683 0.170881,0.192928 0.611844,0.463018 1.050065,0.611846 0.43822,0.148828 0.873671,0.176387 1.229208,0.190167 0.355536,0.01378 0.631139,0.01378 0.934311,-0.04134 0.303171,-0.05512 0.633894,-0.165363 0.777209,-0.350023 0.143316,-0.18466 0.09922,-0.443725 -0.02205,-0.559481 -0.121269,-0.115756 -0.319703,-0.0882 -0.4768,-0.06339 -0.157098,0.0248 -0.272851,0.04685 -0.350023,0.06891 -0.07717,0.02205 -0.115753,0.0441 -0.135045,0.05512 -0.01929,0.01103 -0.01929,0.01102 -0.04134,-0.01929 z"
           id="path1019"
           transform="translate(0.06614583,-0.24804688)" />
        <path
           style="fill:#ffec8c;fill-opacity:1;stroke:none;stroke-width:0.3;stroke-dasharray:none;stroke-opacity:1"
           d="m 11.82908,17.79323 c -0.0441,-0.115755 -0.132291,-0.347266 -0.209462,-0.372069 -0.07717,-0.0248 -0.143315,0.157094 -0.115753,0.303167 0.02756,0.146073 0.148826,0.256314 0.225998,0.281117 0.07717,0.0248 0.110243,-0.03583 0.12678,-0.06615 0.01654,-0.03032 0.01653,-0.03032 -0.02756,-0.14607 z"
           id="path1020" />
        <path
           style="fill:#ffec8c;fill-opacity:1;stroke:none;stroke-width:0.3;stroke-dasharray:none;stroke-opacity:1"
           d="m 15.624198,18.068837 c 0.04685,-0.137805 0.14056,-0.413412 0.225998,-0.4768 0.08544,-0.06339 0.162608,0.08544 0.198436,0.23151 0.03583,0.146073 0.03031,0.289387 -2e-6,0.396874 -0.03032,0.107487 -0.08544,0.179145 -0.13505,0.223243 -0.04961,0.0441 -0.0937,0.06063 -0.148826,0.01653 -0.05513,-0.0441 -0.121269,-0.148826 -0.154341,-0.201191 -0.03307,-0.05237 -0.03307,-0.05237 0.01379,-0.19017 z"
           id="path1021" />
      </g>
      <g
         id="g1031"
         transform="matrix(0.61174809,-0.00506427,0.00320878,0.96549388,8.4345129,1.9222631)">
        <path
           style="fill:#ffec8c;fill-opacity:1;stroke:none;stroke-width:0.3;stroke-dasharray:none;stroke-opacity:1"
           d="m 14.645791,18.259007 c -0.02205,-0.03032 -0.06615,-0.09095 -0.259077,-0.435469 -0.192927,-0.344514 -0.534674,-0.972887 -0.77592,-1.238362 -0.241247,-0.265475 -0.530455,-0.06525 -0.500794,0.180121 0.02966,0.245375 0.09095,0.752403 0.107814,1.050023 0.01686,0.297619 -0.01069,0.385808 -0.26977,0.372027 -0.259076,-0.01378 -0.749648,-0.129535 -1.044549,-0.129534 -0.294901,2e-6 -0.394118,0.115755 -0.223236,0.308683 0.170881,0.192928 0.611844,0.463018 1.050065,0.611846 0.43822,0.148828 0.873671,0.176387 1.229208,0.190167 0.355536,0.01378 0.631139,0.01378 0.934311,-0.04134 0.303171,-0.05512 0.633894,-0.165363 0.777209,-0.350023 0.143316,-0.18466 0.09922,-0.443725 -0.02205,-0.559481 -0.121269,-0.115756 -0.319703,-0.0882 -0.4768,-0.06339 -0.157098,0.0248 -0.272851,0.04685 -0.350023,0.06891 -0.07717,0.02205 -0.115753,0.0441 -0.135045,0.05512 -0.01929,0.01103 -0.01929,0.01102 -0.04134,-0.01929 z"
           id="path1029"
           transform="translate(0.06614583,-0.24804688)" />
        <path
           style="fill:#ffec8c;fill-opacity:1;stroke:none;stroke-width:0.3;stroke-dasharray:none;stroke-opacity:1"
           d="m 11.82908,17.79323 c -0.0441,-0.115755 -0.132291,-0.347266 -0.209462,-0.372069 -0.07717,-0.0248 -0.143315,0.157094 -0.115753,0.303167 0.02756,0.146073 0.148826,0.256314 0.225998,0.281117 0.07717,0.0248 0.110243,-0.03583 0.12678,-0.06615 0.01654,-0.03032 0.01653,-0.03032 -0.02756,-0.14607 z"
           id="path1030" />
        <path
           style="fill:#ffec8c;fill-opacity:1;stroke:none;stroke-width:0.3;stroke-dasharray:none;stroke-opacity:1"
           d="m 15.624198,18.068837 c 0.04685,-0.137805 0.14056,-0.413412 0.225998,-0.4768 0.08544,-0.06339 0.162608,0.08544 0.198436,0.23151 0.03583,0.146073 0.03031,0.289387 -2e-6,0.396874 -0.03032,0.107487 -0.08544,0.179145 -0.13505,0.223243 -0.04961,0.0441 -0.0937,0.06063 -0.148826,0.01653 -0.05513,-0.0441 -0.121269,-0.148826 -0.154341,-0.201191 -0.03307,-0.05237 -0.03307,-0.05237 0.01379,-0.19017 z"
           id="path1031" />
      </g>
      <path
         style="fill:#6e9202;fill-opacity:1;stroke:none;stroke-width:0.1;stroke-dasharray:none;stroke-opacity:1"
         d="m 16.657729,20.472137 c -0.04409,-0.03307 -0.132295,-0.09922 -0.374833,-0.132293 -0.242539,-0.03307 -0.639406,-0.03307 -0.892966,0.05512 -0.25356,0.0882 -0.363801,0.264582 -0.26458,0.474046 0.09922,0.209464 0.407897,0.451994 0.733117,0.551213 0.32522,0.09922 0.666968,0.05512 0.843356,-0.110246 0.176389,-0.165368 0.187412,-0.451994 0.159849,-0.606336 -0.02756,-0.154341 -0.09371,-0.17639 -0.126779,-0.187415 -0.03307,-0.01103 -0.03307,-0.01102 -0.07716,-0.04409 z"
         id="path1045" />
      <path
         style="fill:#6e9202;fill-opacity:1;stroke:none;stroke-width:0.1;stroke-dasharray:none;stroke-opacity:1"
         d="m 16.891994,17.536914 c -0.04134,0.0083 -0.124024,0.02481 -0.24805,0.0689 -0.124025,0.0441 -0.289386,0.115755 -0.592559,0.121266 -0.303174,0.0055 -0.744136,-0.05512 -0.972891,-0.17639 -0.228755,-0.121269 -0.245291,-0.303166 -0.07992,-0.523654 0.165368,-0.220489 0.512626,-0.479555 0.813041,-0.598067 0.300415,-0.118512 0.55397,-0.09647 0.755164,0.05236 0.201195,0.14883 0.35002,0.424433 0.418922,0.600822 0.0689,0.176389 0.05788,0.253558 0.03583,0.311437 -0.02205,0.05788 -0.05512,0.09646 -0.07166,0.115755 -0.01654,0.01929 -0.01654,0.0193 -0.05788,0.02756 z"
         id="path1053" />
      <path
         style="fill:#6e9202;fill-opacity:1;stroke:none;stroke-width:0.1;stroke-dasharray:none;stroke-opacity:1"
         d="m 17.010503,16.470313 c 0.02756,0 0.08268,0 0.372076,-0.09095 0.289393,-0.09095 0.813036,-0.27285 1.129987,-0.509876 0.31695,-0.237026 0.427191,-0.529164 0.212211,-0.686261 -0.21498,-0.157097 -0.755159,-0.179147 -1.107938,-0.06339 -0.35278,0.115757 -0.518141,0.369311 -0.60358,0.570506 -0.08544,0.201195 -0.09095,0.350021 -0.08268,0.47129 0.0083,0.121269 0.03032,0.214972 0.04134,0.261826 0.01103,0.04685 0.01102,0.04686 0.03858,0.04686 z"
         id="path1057" />
      <path
         style="fill:#6e9202;fill-opacity:1;stroke:none;stroke-width:0.1;stroke-dasharray:none;stroke-opacity:1"
         d="m 16.682528,14.84974 c -0.01929,0 -0.05788,0 -0.239779,0.07442 -0.181905,0.07442 -0.507115,0.22324 -0.779969,0.234263 -0.272854,0.01102 -0.493335,-0.115754 -0.512626,-0.278365 -0.01929,-0.16261 0.162607,-0.361044 0.4079,-0.463019 0.245294,-0.101975 0.553969,-0.107489 0.755163,-0.03307 0.201195,0.07442 0.294899,0.228752 0.341753,0.319702 0.04685,0.09095 0.04685,0.11851 0.04685,0.13229 0,0.01378 0,0.01379 -0.01929,0.01379 z"
         id="path1061" />
      <path
         style="fill:#6e9202;fill-opacity:1;stroke:none;stroke-width:0.1;stroke-dasharray:none;stroke-opacity:1"
         d="m 16.313214,14.09182 c 0.04134,-0.03031 0.124026,-0.09095 0.374833,-0.259076 0.250807,-0.168123 0.669722,-0.443725 1.000454,-0.518138 0.330733,-0.07441 0.57326,0.05236 0.589795,0.272853 0.01653,0.22049 -0.192923,0.534677 -0.457509,0.741383 -0.264587,0.206707 -0.584285,0.305923 -0.826822,0.292142 -0.242536,-0.01378 -0.407897,-0.140559 -0.53468,-0.237023 -0.126782,-0.09646 -0.214971,-0.162607 -0.239772,-0.201193 -0.0248,-0.03858 0.01378,-0.04961 0.03307,-0.05512 0.01929,-0.0055 0.01929,-0.0055 0.06063,-0.03583 z"
         id="path1065"
         transform="translate(0.13229167,-0.04960938)" />
      <path
         style="fill:#6e9202;fill-opacity:1;stroke:none;stroke-width:0.1;stroke-dasharray:none;stroke-opacity:1"
         d="m 13.355945,15.423005 c -0.02205,0.01103 -0.06615,0.03308 -0.137806,0.148833 -0.07166,0.115757 -0.170874,0.325215 -0.223239,0.52641 -0.05237,0.201196 -0.05788,0.394117 -0.02756,0.474043 0.03032,0.07993 0.09646,0.04685 0.143314,-0.03859 0.04685,-0.08544 0.07441,-0.223241 0.203949,-0.217727 0.129538,0.0055 0.361044,0.154339 0.496093,0.253559 0.135049,0.09922 0.173633,0.148827 0.214974,0.0689 0.04134,-0.07993 0.08544,-0.289386 0.05788,-0.454752 -0.02756,-0.165366 -0.126779,-0.286631 -0.206703,-0.37758 -0.07993,-0.09095 -0.140562,-0.151586 -0.220488,-0.21222 -0.07993,-0.06063 -0.179145,-0.121267 -0.228754,-0.151584 -0.04961,-0.03032 -0.0496,-0.03032 -0.07165,-0.01929 z"
         id="path1069" />
      <path
         style="fill:#6e9202;fill-opacity:1;stroke:none;stroke-width:0.1;stroke-dasharray:none;stroke-opacity:1"
         d="m 11.148329,17.33572 c -0.01378,0.0055 -0.04134,0.01654 -0.115755,0.112999 -0.07441,0.09646 -0.195678,0.278361 -0.206702,0.446483 -0.01102,0.168122 0.08819,0.32246 0.157096,0.366557 0.0689,0.0441 0.107487,-0.02205 0.126779,-0.08544 0.01929,-0.06339 0.01929,-0.124026 0.10749,-0.121269 0.0882,0.0028 0.26458,0.0689 0.377579,0.129535 0.112999,0.06063 0.162609,0.115755 0.146072,0.02756 -0.01654,-0.0882 -0.09922,-0.319703 -0.176389,-0.509874 -0.07717,-0.190171 -0.148827,-0.338996 -0.217731,-0.421679 -0.06891,-0.08268 -0.135045,-0.09922 -0.165362,-0.07993 -0.03032,0.01929 -0.0248,0.07441 -0.02205,0.101976 0.0028,0.02756 0.0028,0.02756 -0.01103,0.03308 z"
         id="path1071" />
    </g>
  </g>
</svg>
