<?xml version="1.0" encoding="UTF-8" standalone="no"?>
<!-- Created with Inkscape (http://www.inkscape.org/) -->

<svg
   width="96"
   height="32.000004"
   viewBox="0 0 25.4 8.4666677"
   version="1.1"
   id="svg1"
   xmlns="http://www.w3.org/2000/svg"
   xmlns:svg="http://www.w3.org/2000/svg">
  <defs
     id="defs1" />
  <g
     id="g75"
     transform="matrix(-1.0624885,0,0,1.0624885,8.7312013,-0.26453462)">
    <rect
       style="fill:#bdca31;fill-opacity:0;stroke:none;stroke-width:0.497953"
       id="rect74"
       width="7.9687138"
       height="7.9687138"
       x="0.24897645"
       y="0.24897645" />
    <ellipse
       style="fill:#bdca31;stroke:#bdca31;stroke-width:0.470592;stroke-dasharray:none"
       id="path28"
       cx="-4.4745736"
       cy="6.7702479"
       transform="scale(-1,1)"
       rx="0.25680426"
       ry="0.54473627" />
    <rect
       style="fill:#bdca31;stroke:#bdca31;stroke-width:0.941187"
       id="rect1"
       width="0.74706692"
       height="1.3696227"
       x="-4.8247609"
       y="5.9453616"
       transform="scale(-1,1)" />
    <rect
       style="fill:#457b47;stroke:none;stroke-width:1.92294"
       id="rect2"
       width="1.6872131"
       height="0.28047407"
       x="-5.291678"
       y="5.9925113"
       transform="scale(-1,1)" />
    <rect
       style="fill:#457b47;stroke:none;stroke-width:1.92294"
       id="rect3"
       width="1.6872131"
       height="0.28047407"
       x="-5.2834768"
       y="7.126061"
       transform="scale(-1,1)" />
  </g>
  <g
     id="g7"
     transform="matrix(-1.0624885,0,0,1.0624885,25.664535,-0.26453462)">
    <rect
       style="fill:#bdca31;fill-opacity:0;stroke:none;stroke-width:0.497953"
       id="rect4"
       width="7.9687138"
       height="7.9687138"
       x="0.24897645"
       y="0.24897645" />
    <ellipse
       style="fill:#bdca31;stroke:#bdca31;stroke-width:0.470592;stroke-dasharray:none"
       id="ellipse4"
       cx="-4.4745736"
       cy="6.7702479"
       transform="scale(-1,1)"
       rx="0.25680426"
       ry="0.54473627" />
    <rect
       style="fill:#bdca31;stroke:#bdca31;stroke-width:0.941187"
       id="rect5"
       width="0.74706692"
       height="1.3696227"
       x="-4.8247609"
       y="5.9453616"
       transform="scale(-1,1)" />
    <rect
       style="fill:#457b47;stroke:none;stroke-width:1.92294"
       id="rect6"
       width="1.6872131"
       height="0.28047407"
       x="-5.291678"
       y="5.9925113"
       transform="scale(-1,1)" />
    <rect
       style="fill:#457b47;stroke:none;stroke-width:1.92294"
       id="rect7"
       width="1.6872131"
       height="0.28047407"
       x="-5.2834768"
       y="7.126061"
       transform="scale(-1,1)" />
    <ellipse
       style="fill:#bdca31;stroke:#bdca31;stroke-width:0.470592;stroke-dasharray:none"
       id="ellipse7"
       cx="-4.4745736"
       cy="4.6224308"
       transform="scale(-1,1)"
       rx="0.25680426"
       ry="0.54473627" />
    <rect
       style="fill:#bdca31;stroke:#bdca31;stroke-width:0.941187"
       id="rect8"
       width="0.74706692"
       height="1.3696227"
       x="-4.8247609"
       y="3.7975442"
       transform="scale(-1,1)" />
    <rect
       style="fill:#457b47;stroke:none;stroke-width:1.92294"
       id="rect9"
       width="1.6872131"
       height="0.28047407"
       x="-5.291678"
       y="3.8446939"
       transform="scale(-1,1)" />
    <rect
       style="fill:#457b47;stroke:none;stroke-width:1.92294"
       id="rect10"
       width="1.6872131"
       height="0.28047407"
       x="-5.2834768"
       y="4.9782438"
       transform="scale(-1,1)" />
    <ellipse
       style="fill:#bdca31;stroke:#bdca31;stroke-width:0.470592;stroke-dasharray:none"
       id="ellipse17"
       cx="-4.4745736"
       cy="2.3189745"
       transform="scale(-1,1)"
       rx="0.25680426"
       ry="0.54473627" />
    <rect
       style="fill:#bdca31;stroke:#bdca31;stroke-width:0.941187"
       id="rect18"
       width="0.74706692"
       height="1.3696227"
       x="-4.8247609"
       y="1.4940879"
       transform="scale(-1,1)" />
    <rect
       style="fill:#457b47;stroke:none;stroke-width:1.92294"
       id="rect19"
       width="1.6872131"
       height="0.28047407"
       x="-5.291678"
       y="1.5412376"
       transform="scale(-1,1)" />
    <rect
       style="fill:#457b47;stroke:none;stroke-width:1.92294"
       id="rect20"
       width="1.6872131"
       height="0.28047407"
       x="-5.2834768"
       y="2.6747875"
       transform="scale(-1,1)" />
  </g>
  <g
     id="g17"
     transform="matrix(-1.0624885,0,0,1.0624885,17.197868,-0.26453462)">
    <rect
       style="fill:#bdca31;fill-opacity:0;stroke:none;stroke-width:0.497953"
       id="rect11"
       width="7.9687138"
       height="7.9687138"
       x="0.24897645"
       y="0.24897645" />
    <ellipse
       style="fill:#bdca31;stroke:#bdca31;stroke-width:0.470592;stroke-dasharray:none"
       id="ellipse11"
       cx="-4.4745736"
       cy="6.7702479"
       transform="scale(-1,1)"
       rx="0.25680426"
       ry="0.54473627" />
    <rect
       style="fill:#bdca31;stroke:#bdca31;stroke-width:0.941187"
       id="rect12"
       width="0.74706692"
       height="1.3696227"
       x="-4.8247609"
       y="5.9453616"
       transform="scale(-1,1)" />
    <rect
       style="fill:#457b47;stroke:none;stroke-width:1.92294"
       id="rect13"
       width="1.6872131"
       height="0.28047407"
       x="-5.291678"
       y="5.9925113"
       transform="scale(-1,1)" />
    <rect
       style="fill:#457b47;stroke:none;stroke-width:1.92294"
       id="rect14"
       width="1.6872131"
       height="0.28047407"
       x="-5.2834768"
       y="7.126061"
       transform="scale(-1,1)" />
    <ellipse
       style="fill:#bdca31;stroke:#bdca31;stroke-width:0.470592;stroke-dasharray:none"
       id="ellipse14"
       cx="-4.4745736"
       cy="4.6224308"
       transform="scale(-1,1)"
       rx="0.25680426"
       ry="0.54473627" />
    <rect
       style="fill:#bdca31;stroke:#bdca31;stroke-width:0.941187"
       id="rect15"
       width="0.74706692"
       height="1.3696227"
       x="-4.8247609"
       y="3.7975442"
       transform="scale(-1,1)" />
    <rect
       style="fill:#457b47;stroke:none;stroke-width:1.92294"
       id="rect16"
       width="1.6872131"
       height="0.28047407"
       x="-5.291678"
       y="3.8446939"
       transform="scale(-1,1)" />
    <rect
       style="fill:#457b47;stroke:none;stroke-width:1.92294"
       id="rect17"
       width="1.6872131"
       height="0.28047407"
       x="-5.2834768"
       y="4.9782438"
       transform="scale(-1,1)" />
  </g>
</svg>
