<?xml version="1.0" encoding="UTF-8" standalone="no"?>
<!-- Created with Inkscape (http://www.inkscape.org/) -->

<svg
   width="127.99999"
   height="32.000004"
   viewBox="0 0 33.866664 8.4666677"
   version="1.1"
   id="svg1"
   xmlns="http://www.w3.org/2000/svg"
   xmlns:svg="http://www.w3.org/2000/svg">
  <defs
     id="defs1" />
  <g
     id="g75"
     transform="matrix(-1.0624885,0,0,1.0624885,8.7312013,-0.26453462)">
    <rect
       style="fill:#bdca31;fill-opacity:0;stroke:none;stroke-width:0.497953"
       id="rect74"
       width="7.9687138"
       height="7.9687138"
       x="0.24897645"
       y="0.24897645" />
    <path
       style="fill:none;stroke:#d6d753;stroke-width:0.2;stroke-dasharray:none"
       d="m 4.2994791,7.2098957 c 0.00551,-0.082682 0.011024,-0.1653646 0.011024,-0.2508036 -1e-7,-0.085439 -0.00551,-0.1736323 -0.019293,-0.2563155 -0.013781,-0.082683 -0.035829,-0.1598514 -0.057877,-0.2370215"
       id="path1"
       transform="matrix(-0.94118667,0,0,0.94118667,8.2176902,0.24897645)" />
    <ellipse
       style="fill:#a0bf43;stroke:none;stroke-width:0.4;stroke-dasharray:none"
       id="path136"
       cx="4.2126627"
       cy="6.3541341"
       rx="0.26871744"
       ry="0.31005859"
       transform="matrix(-0.94118667,0,0,0.94118667,8.2176902,0.24897645)" />
  </g>
  <g
     id="g137"
     transform="matrix(-1.0624885,0,0,1.0624885,17.197868,-0.26453462)">
    <rect
       style="fill:#bdca31;fill-opacity:0;stroke:none;stroke-width:0.497953"
       id="rect136"
       width="7.9687138"
       height="7.9687138"
       x="0.24897645"
       y="0.24897645" />
    <path
       style="fill:none;stroke:#d6d753;stroke-width:0.2;stroke-dasharray:none"
       d="m 4.2994791,7.2098957 c 0.00551,-0.082682 0.011024,-0.1653646 0.011024,-0.2508036 -1e-7,-0.085439 -0.00551,-0.1736323 -0.02319,-0.484336 C 4.2696343,6.1640524 4.239791,5.6308677 4.209947,5.0976692"
       id="path137"
       transform="matrix(-0.94118667,0,0,0.94118667,8.2176902,0.24897645)" />
    <ellipse
       style="fill:#a0bf43;stroke:none;stroke-width:0.376475;stroke-dasharray:none"
       id="ellipse137"
       cx="-4.2747989"
       cy="4.9968052"
       rx="0.25291327"
       ry="0.29182303"
       transform="scale(-1,1)" />
    <path
       style="fill:none;stroke:#a0bf43;stroke-width:0.188237;stroke-dasharray:none"
       d="m 4.3776796,4.9592597 c 0.1650802,-0.04769 0.3301604,-0.09538 0.4585568,-0.1540754 0.1283964,-0.058696 0.2201058,-0.1283948 0.3063148,-0.163245 0.086209,-0.03485 0.1669136,-0.03485 0.2476192,-0.03485"
       id="path174" />
    <path
       style="fill:none;stroke:#a0bf43;stroke-width:0.188237;stroke-dasharray:none"
       d="M 4.1245569,4.9372491 C 3.8971134,4.8638802 3.6696699,4.7905114 3.449561,4.6694509 3.2294522,4.5483905 3.0166867,4.3796455 2.8846222,4.2916027 2.7525577,4.2035599 2.7012004,4.196223 2.6498421,4.188886"
       id="path202" />
    <ellipse
       style="fill:#bdca31;stroke:none;stroke-width:0.188237;stroke-dasharray:none"
       id="path212"
       cx="-5.3241391"
       cy="4.5520625"
       transform="scale(-1,1)"
       rx="0.20910136"
       ry="0.25312272" />
    <ellipse
       style="fill:#bdca31;stroke:none;stroke-width:0.188237;stroke-dasharray:none"
       id="ellipse212"
       cx="-2.6828587"
       cy="4.1888866"
       transform="scale(-1,1)"
       rx="0.20910136"
       ry="0.25312272" />
    <path
       style="fill:none;stroke:#a0bf43;stroke-width:0.188237;stroke-dasharray:none;stroke-opacity:1"
       d="m 4.3116476,4.9042332 c 0,-0.029348 0,-0.058695 0.0055,-0.1540763 0.0055,-0.095381 0.016508,-0.2567896 0.00734,-0.4420483 C 4.3153155,4.12285 4.2859685,3.913753 4.2566209,3.7046517"
       id="path213" />
    <ellipse
       style="fill:#bdca31;stroke:none;stroke-width:0.188237;stroke-dasharray:none"
       id="ellipse234"
       cx="-4.2896376"
       cy="3.5835931"
       transform="scale(-1,1)"
       rx="0.20910136"
       ry="0.25312272" />
  </g>
  <g
     id="g238"
     transform="matrix(-1.0624885,0,0,1.0624885,25.664535,-0.26453462)">
    <rect
       style="fill:#bdca31;fill-opacity:0;stroke:none;stroke-width:0.497953"
       id="rect234"
       width="7.9687138"
       height="7.9687138"
       x="0.24897645"
       y="0.24897645" />
    <path
       style="fill:none;stroke:#d6d753;stroke-width:0.2;stroke-dasharray:none"
       d="m 4.2994791,7.2098957 c 0.00551,-0.082682 0.011024,-0.1653646 0.011024,-0.2508036 -1e-7,-0.085439 -0.00551,-0.1736323 -0.02319,-0.484336 C 4.2696343,6.1640524 4.239791,5.6308677 4.209947,5.0976692"
       id="path234"
       transform="matrix(-0.94118667,0,0,0.94118667,8.2176902,0.24897645)" />
    <ellipse
       style="fill:#a0bf43;stroke:none;stroke-width:0.376475;stroke-dasharray:none"
       id="ellipse235"
       cx="-4.2747989"
       cy="4.9968052"
       rx="0.25291327"
       ry="0.29182303"
       transform="scale(-1,1)" />
    <path
       style="fill:none;stroke:#a0bf43;stroke-width:0.188237;stroke-dasharray:none"
       d="m 4.3776796,4.9592597 c 0.1650802,-0.04769 0.3301604,-0.09538 0.4585568,-0.1540754 0.1283964,-0.058696 0.2201058,-0.1283948 0.3063148,-0.163245 0.086209,-0.03485 0.1669136,-0.03485 0.2476192,-0.03485"
       id="path235" />
    <path
       style="fill:none;stroke:#a0bf43;stroke-width:0.188237;stroke-dasharray:none"
       d="M 4.1245569,4.9372491 C 3.8971134,4.8638802 3.6696699,4.7905114 3.449561,4.6694509 3.2294522,4.5483905 3.0166867,4.3796455 2.8846222,4.2916027 2.7525577,4.2035599 2.7012004,4.196223 2.6498421,4.188886"
       id="path236" />
    <ellipse
       style="fill:#bdca31;stroke:none;stroke-width:0.188237;stroke-dasharray:none"
       id="ellipse236"
       cx="-5.3241391"
       cy="4.5520625"
       transform="scale(-1,1)"
       rx="0.20910136"
       ry="0.25312272" />
    <ellipse
       style="fill:#bdca31;stroke:none;stroke-width:0.188237;stroke-dasharray:none"
       id="ellipse237"
       cx="-2.6828587"
       cy="4.1888866"
       transform="scale(-1,1)"
       rx="0.20910136"
       ry="0.25312272" />
    <path
       style="fill:none;stroke:#a0bf43;stroke-width:0.188237;stroke-dasharray:none;stroke-opacity:1"
       d="m 4.3116476,4.9042332 c 0,-0.029348 0,-0.058695 0.0055,-0.1540763 0.0055,-0.095381 0.016508,-0.2567896 0.00734,-0.4420483 C 4.3153155,4.12285 4.2859685,3.913753 4.2566209,3.7046517"
       id="path237" />
    <ellipse
       style="fill:#bdca31;stroke:none;stroke-width:0.188237;stroke-dasharray:none"
       id="ellipse238"
       cx="-4.2896376"
       cy="3.5835931"
       transform="scale(-1,1)"
       rx="0.20910136"
       ry="0.25312272" />
    <path
       style="fill:#9f6093;stroke:none;stroke-width:0.188237;stroke-dasharray:none;stroke-opacity:1"
       d="m 5.3359955,4.3869826 c 0,-0.02201 0,-0.066032 -0.011006,-0.122894 -0.011006,-0.056862 -0.033016,-0.1265604 -0.082541,-0.099046 -0.049525,0.027515 -0.1265605,0.1522391 -0.1559078,0.3026471 -0.029347,0.150408 -0.011005,0.3264898 0.034851,0.4016927 0.045856,0.075203 0.1192236,0.049524 0.1614109,-0.018343 0.042187,-0.067868 0.053193,-0.1779185 0.064198,-0.2549564 0.011006,-0.077038 0.022011,-0.1210586 0.020175,-0.1467381 -0.00184,-0.025679 -0.016508,-0.033016 -0.023844,-0.036684 -0.00734,-0.00367 -0.00734,-0.00367 -0.00734,-0.025678 z"
       id="path269" />
    <path
       style="fill:#9f6093;stroke:none;stroke-width:0.188237;stroke-dasharray:none;stroke-opacity:1"
       d="m 4.2125822,3.6963789 c 0.046692,-0.06485 0.1037592,-0.1997365 0.1089467,-0.3190608 0.00519,-0.1193243 -0.041503,-0.2230814 -0.1297,-0.2178923 -0.088197,0.00519 -0.2178932,0.119322 -0.2905248,0.2153001 -0.072632,0.095978 -0.088195,0.173796 -0.057067,0.2308639 0.031128,0.057068 0.1089467,0.093383 0.1582331,0.1141352 0.049286,0.020752 0.070036,0.025939 0.098571,0.031128 0.028535,0.00519 0.064849,0.010376 0.111541,-0.054474 z"
       id="path271" />
    <path
       style="fill:#9f6093;stroke:none;stroke-width:0.188237;stroke-dasharray:none;stroke-opacity:1"
       d="m 2.4512678,4.3760021 c 0.044098,-0.01297 0.095978,-0.03891 0.1374816,-0.1141366 0.041504,-0.075227 0.072631,-0.1997358 0.080413,-0.2749612 0.00778,-0.075226 -0.00778,-0.1011655 -0.072633,-0.1089474 -0.064851,-0.00778 -0.1789836,0.00259 -0.2593975,0.080415 -0.080414,0.077821 -0.1271047,0.223081 -0.121916,0.3060888 0.00519,0.083008 0.062255,0.1037592 0.1089467,0.1141353 0.046692,0.010376 0.083007,0.010376 0.1271052,-0.00259 z"
       id="path273" />
  </g>
  <g
     id="g281"
     transform="matrix(-1.0624885,0,0,1.0624885,34.131201,-0.26453462)">
    <rect
       style="fill:#bdca31;fill-opacity:0;stroke:none;stroke-width:0.497953"
       id="rect275"
       width="7.9687138"
       height="7.9687138"
       x="0.24897645"
       y="0.24897645" />
    <path
       style="fill:none;stroke:#d6d753;stroke-width:0.2;stroke-dasharray:none"
       d="m 4.2994791,7.2098957 c 0.00551,-0.082682 0.011024,-0.1653646 0.011024,-0.2508036 -1e-7,-0.085439 -0.00551,-0.1736323 -0.02319,-0.484336 C 4.2696343,6.1640524 4.239791,5.6308677 4.209947,5.0976692"
       id="path275"
       transform="matrix(-0.94118667,0,0,0.94118667,8.2176902,0.24897645)" />
    <ellipse
       style="fill:#a0bf43;stroke:none;stroke-width:0.376475;stroke-dasharray:none"
       id="ellipse275"
       cx="-4.2747989"
       cy="4.9968052"
       rx="0.25291327"
       ry="0.29182303"
       transform="scale(-1,1)" />
    <path
       style="fill:none;stroke:#a0bf43;stroke-width:0.188237;stroke-dasharray:none"
       d="m 4.3776796,4.9592597 c 0.1650802,-0.04769 0.3301604,-0.09538 0.4585568,-0.1540754 0.1283964,-0.058696 0.2201058,-0.1283948 0.3063148,-0.163245 0.086209,-0.03485 0.1669136,-0.03485 0.2476192,-0.03485"
       id="path276" />
    <path
       style="fill:none;stroke:#a0bf43;stroke-width:0.188237;stroke-dasharray:none"
       d="M 4.1245569,4.9372491 C 3.8971134,4.8638802 3.6696699,4.7905114 3.449561,4.6694509 3.2294522,4.5483905 3.0166867,4.3796455 2.8846222,4.2916027 2.7525577,4.2035599 2.7012004,4.196223 2.6498421,4.188886"
       id="path277" />
    <ellipse
       style="fill:#bdca31;stroke:none;stroke-width:0.188237;stroke-dasharray:none"
       id="ellipse277"
       cx="-5.3241391"
       cy="4.5520625"
       transform="scale(-1,1)"
       rx="0.20910136"
       ry="0.25312272" />
    <ellipse
       style="fill:#bdca31;stroke:none;stroke-width:0.188237;stroke-dasharray:none"
       id="ellipse278"
       cx="-2.6828587"
       cy="4.1888866"
       transform="scale(-1,1)"
       rx="0.20910136"
       ry="0.25312272" />
    <path
       style="fill:none;stroke:#a0bf43;stroke-width:0.188237;stroke-dasharray:none;stroke-opacity:1"
       d="m 4.3116476,4.9042332 c 0,-0.029348 0,-0.058695 0.0055,-0.1540763 0.0055,-0.095381 0.016508,-0.2567896 0.00734,-0.4420483 C 4.3153155,4.12285 4.2859685,3.913753 4.2566209,3.7046517"
       id="path278" />
    <ellipse
       style="fill:#bdca31;stroke:none;stroke-width:0.188237;stroke-dasharray:none"
       id="ellipse279"
       cx="-4.2896376"
       cy="3.5835931"
       transform="scale(-1,1)"
       rx="0.20910136"
       ry="0.25312272" />
    <path
       style="fill:#9f6093;stroke:none;stroke-width:0.188237;stroke-dasharray:none;stroke-opacity:1"
       d="m 5.3359955,4.3869826 c 0,-0.02201 0,-0.066032 -0.011006,-0.122894 -0.011006,-0.056862 -0.033016,-0.1265604 -0.082541,-0.099046 -0.049525,0.027515 -0.1265605,0.1522391 -0.1559078,0.3026471 -0.029347,0.150408 -0.011005,0.3264898 0.034851,0.4016927 0.045856,0.075203 0.1192236,0.049524 0.1614109,-0.018343 0.042187,-0.067868 0.053193,-0.1779185 0.064198,-0.2549564 0.011006,-0.077038 0.022011,-0.1210586 0.020175,-0.1467381 -0.00184,-0.025679 -0.016508,-0.033016 -0.023844,-0.036684 -0.00734,-0.00367 -0.00734,-0.00367 -0.00734,-0.025678 z"
       id="path279" />
    <path
       style="fill:#9f6093;stroke:none;stroke-width:0.188237;stroke-dasharray:none;stroke-opacity:1"
       d="m 4.2125822,3.6963789 c 0.046692,-0.06485 0.1037592,-0.1997365 0.1089467,-0.3190608 0.00519,-0.1193243 -0.041503,-0.2230814 -0.1297,-0.2178923 -0.088197,0.00519 -0.2178932,0.119322 -0.2905248,0.2153001 -0.072632,0.095978 -0.088195,0.173796 -0.057067,0.2308639 0.031128,0.057068 0.1089467,0.093383 0.1582331,0.1141352 0.049286,0.020752 0.070036,0.025939 0.098571,0.031128 0.028535,0.00519 0.064849,0.010376 0.111541,-0.054474 z"
       id="path280" />
    <path
       style="fill:#9f6093;stroke:none;stroke-width:0.188237;stroke-dasharray:none;stroke-opacity:1"
       d="m 2.4512678,4.3760021 c 0.044098,-0.01297 0.095978,-0.03891 0.1374816,-0.1141366 0.041504,-0.075227 0.072631,-0.1997358 0.080413,-0.2749612 0.00778,-0.075226 -0.00778,-0.1011655 -0.072633,-0.1089474 -0.064851,-0.00778 -0.1789836,0.00259 -0.2593975,0.080415 -0.080414,0.077821 -0.1271047,0.223081 -0.121916,0.3060888 0.00519,0.083008 0.062255,0.1037592 0.1089467,0.1141353 0.046692,0.010376 0.083007,0.010376 0.1271052,-0.00259 z"
       id="path281" />
    <path
       style="fill:#9f6093;stroke:none;stroke-width:0.188237;stroke-dasharray:none;stroke-opacity:1"
       d="m 5.3357763,4.3448741 c 0.020752,-0.020752 0.062255,-0.062255 0.1309957,-0.079116 0.068741,-0.016861 0.164717,-0.00908 0.207518,0.04799 0.042801,0.057069 0.032425,0.1634187 -0.0013,0.2645852 -0.033722,0.1011665 -0.090789,0.1971418 -0.1582335,0.2373484 -0.067445,0.040207 -0.145262,0.024643 -0.1880606,-0.019455 -0.042799,-0.044098 -0.050577,-0.1167298 -0.050577,-0.1828761 0,-0.066146 0.00778,-0.1258088 0.015555,-0.1660142 0.00778,-0.040205 0.015557,-0.060962 0.019445,-0.071336 0.00389,-0.010375 0.0039,-0.010374 0.024654,-0.031126 z"
       id="path317" />
    <path
       style="fill:#9f6093;stroke:none;stroke-width:0.188237;stroke-dasharray:none;stroke-opacity:1"
       d="m 4.267055,3.399368 c 0.02594,-0.016861 0.07782,-0.050583 0.1517488,-0.081711 0.073929,-0.031128 0.1699046,-0.059661 0.2230817,-0.014265 0.053177,0.045396 0.063553,0.1647156 0.014266,0.2684762 -0.049287,0.1037606 -0.1582317,0.1919541 -0.2542099,0.2386459 -0.095978,0.046692 -0.1789849,0.05188 -0.2165992,-0.00259 -0.037614,-0.054474 -0.029837,-0.1686087 -0.020759,-0.2373504 0.00908,-0.068742 0.019451,-0.092082 0.032421,-0.1102406 0.01297,-0.018159 0.028535,-0.031129 0.036317,-0.037614 0.00778,-0.00649 0.00779,-0.00649 0.033734,-0.023347 z"
       id="path319" />
    <path
       style="fill:#9f6093;stroke:none;stroke-width:0.188237;stroke-dasharray:none;stroke-opacity:1"
       d="m 2.6289556,4.1023365 c 0.00649,-0.02205 0.019455,-0.066147 0.083008,-0.1024622 0.063553,-0.036316 0.1776878,-0.064849 0.245131,-0.023345 0.067443,0.041504 0.088195,0.1530447 0.084304,0.2490229 -0.00389,0.095978 -0.032425,0.1763899 -0.098573,0.2269727 -0.066148,0.050583 -0.1699033,0.071334 -0.2451295,0.045394 -0.075226,-0.02594 -0.1219173,-0.098571 -0.1387778,-0.1595305 -0.016861,-0.06096 -0.00389,-0.1102431 0.00389,-0.138776 0.00778,-0.028533 0.01037,-0.036317 0.019448,-0.045396 0.00908,-0.00908 0.02464,-0.019455 0.032423,-0.024643 0.00778,-0.00519 0.00779,-0.00519 0.014279,-0.027237 z"
       id="path330" />
    <path
       style="fill:#fdfad0;stroke:none;stroke-width:0.188237;stroke-dasharray:none;stroke-opacity:1"
       d="m 5.2579774,4.4759439 c -0.00733,-0.00458 -0.022013,-0.013758 -0.04127,-0.00551 -0.019257,0.00825 -0.043107,0.033937 -0.055946,0.055025 -0.012838,0.021089 -0.014673,0.037606 9.193e-4,0.048612 0.015592,0.011006 0.048608,0.016508 0.0697,0.011008 0.021092,-0.0055 0.030269,-0.022018 0.033937,-0.041271 0.00367,-0.019254 0.00183,-0.041271 9.175e-4,-0.052276 -9.167e-4,-0.011006 -9.237e-4,-0.011007 -0.00826,-0.015591 z"
       id="path332" />
    <path
       style="fill:#fdfad0;stroke:none;stroke-width:0.188237;stroke-dasharray:none;stroke-opacity:1"
       d="m 5.2579774,4.4759439 c -0.00733,-0.00458 -0.022013,-0.013758 -0.04127,-0.00551 -0.019257,0.00825 -0.043107,0.033937 -0.055946,0.055025 -0.012838,0.021089 -0.014673,0.037606 9.193e-4,0.048612 0.015592,0.011006 0.048608,0.016508 0.0697,0.011008 0.021092,-0.0055 0.030269,-0.022018 0.033937,-0.041271 0.00367,-0.019254 0.00183,-0.041271 9.175e-4,-0.052276 -9.167e-4,-0.011006 -9.237e-4,-0.011007 -0.00826,-0.015591 z"
       id="path334"
       transform="translate(0.11555602)" />
    <path
       style="fill:#fdfad0;stroke:none;stroke-width:0.188237;stroke-dasharray:none;stroke-opacity:1"
       d="m 5.2579774,4.4759439 c -0.00733,-0.00458 -0.022013,-0.013758 -0.04127,-0.00551 -0.019257,0.00825 -0.043107,0.033937 -0.055946,0.055025 -0.012838,0.021089 -0.014673,0.037606 9.193e-4,0.048612 0.015592,0.011006 0.048608,0.016508 0.0697,0.011008 0.021092,-0.0055 0.030269,-0.022018 0.033937,-0.041271 0.00367,-0.019254 0.00183,-0.041271 9.175e-4,-0.052276 -9.167e-4,-0.011006 -9.237e-4,-0.011007 -0.00826,-0.015591 z"
       id="path340"
       transform="translate(-0.87492413,-1.0179935)" />
    <path
       style="fill:#fdfad0;stroke:none;stroke-width:0.188237;stroke-dasharray:none;stroke-opacity:1"
       d="m 5.2579774,4.4759439 c -0.00733,-0.00458 -0.022013,-0.013758 -0.04127,-0.00551 -0.019257,0.00825 -0.043107,0.033937 -0.055946,0.055025 -0.012838,0.021089 -0.014673,0.037606 9.193e-4,0.048612 0.015592,0.011006 0.048608,0.016508 0.0697,0.011008 0.021092,-0.0055 0.030269,-0.022018 0.033937,-0.041271 0.00367,-0.019254 0.00183,-0.041271 9.175e-4,-0.052276 -9.167e-4,-0.011006 -9.237e-4,-0.011007 -0.00826,-0.015591 z"
       id="path349"
       transform="translate(-0.99048015,-1.0345015)" />
    <path
       style="fill:#fdfad0;stroke:none;stroke-width:0.188237;stroke-dasharray:none;stroke-opacity:1"
       d="m 5.2579774,4.4759439 c -0.00733,-0.00458 -0.022013,-0.013758 -0.04127,-0.00551 -0.019257,0.00825 -0.043107,0.033937 -0.055946,0.055025 -0.012838,0.021089 -0.014673,0.037606 9.193e-4,0.048612 0.015592,0.011006 0.048608,0.016508 0.0697,0.011008 0.021092,-0.0055 0.030269,-0.022018 0.033937,-0.041271 0.00367,-0.019254 0.00183,-0.041271 9.175e-4,-0.052276 -9.167e-4,-0.011006 -9.237e-4,-0.011007 -0.00826,-0.015591 z"
       id="path354"
       transform="translate(-2.498211,-0.35217073)" />
    <path
       style="fill:#fdfad0;stroke:none;stroke-width:0.188237;stroke-dasharray:none;stroke-opacity:1"
       d="m 5.2579774,4.4759439 c -0.00733,-0.00458 -0.022013,-0.013758 -0.04127,-0.00551 -0.019257,0.00825 -0.043107,0.033937 -0.055946,0.055025 -0.012838,0.021089 -0.014673,0.037606 9.193e-4,0.048612 0.015592,0.011006 0.048608,0.016508 0.0697,0.011008 0.021092,-0.0055 0.030269,-0.022018 0.033937,-0.041271 0.00367,-0.019254 0.00183,-0.041271 9.175e-4,-0.052276 -9.167e-4,-0.011006 -9.237e-4,-0.011007 -0.00826,-0.015591 z"
       id="path358"
       transform="translate(-2.6082643,-0.38518673)" />
  </g>
</svg>
