<?xml version="1.0" encoding="UTF-8" standalone="no"?>
<!-- Created with Inkscape (http://www.inkscape.org/) -->

<svg
   width="64.000008"
   height="64.000008"
   viewBox="0 0 16.933335 16.933335"
   version="1.1"
   id="svg1"
   xmlns="http://www.w3.org/2000/svg"
   xmlns:svg="http://www.w3.org/2000/svg">
  <defs
     id="defs1" />
  <g
     id="g32"
     transform="translate(-8.478902,-11.801772)">
    <rect
       style="fill:none;fill-opacity:0.921569;stroke:none;stroke-width:4.36359"
       id="rect225"
       width="15.937428"
       height="15.937428"
       x="7.7312517"
       y="11.356647"
       transform="matrix(1.0624885,0,0,1.0624885,0.26453492,-0.26453461)" />
    <g
       id="g597"
       transform="matrix(1.302445,0,0,1.302445,-5.3331372,-3.9749559)">
      <path
         style="fill:none;stroke:#d0b06e;stroke-width:0.2;stroke-dasharray:none;stroke-opacity:1"
         d="M 16.66168,20.205576 C 16.64609,20.123726 16.6305,20.041873 16.357658,19.716411 16.084815,19.39095 15.554741,18.8219 15.219539,18.535421 14.884337,18.248941 14.744023,18.245045 14.603707,18.241148"
         id="path478" />
      <path
         style="fill:none;stroke:#d0b06e;stroke-width:0.2;stroke-dasharray:none;stroke-opacity:1"
         d="m 16.649987,23.760261 c -0.04677,-0.63922 -0.09354,-1.27844 -0.07016,-1.761756 0.02339,-0.483316 0.116929,-0.810713 0.171497,-0.990006 0.05457,-0.179293 0.07016,-0.210473 0.09354,-0.278683 0.02339,-0.06821 0.05457,-0.173445 0.231918,-0.442391 0.177349,-0.268946 0.50085,-0.70158 0.875031,-1.038731 0.374182,-0.337152 0.79902,-0.578803 1.223868,-0.82046"
         id="path365" />
      <path
         style="fill:#a0bf43;stroke:none;stroke-width:0.2;stroke-dasharray:none;stroke-opacity:1"
         d="m 16.641189,20.769793 c 0.0055,0.03308 0.01654,0.09922 0.110242,0.231511 0.09371,0.132293 0.270094,0.330727 0.490583,0.3197 0.220488,-0.01103 0.485066,-0.231508 0.496088,-0.435459 0.01102,-0.203952 -0.231508,-0.391361 -0.429947,-0.496093 -0.198439,-0.104731 -0.352776,-0.126781 -0.435458,-0.104731 -0.08268,0.02205 -0.0937,0.08819 -0.121265,0.170875 -0.02756,0.08268 -0.07166,0.181902 -0.09371,0.23151 -0.02205,0.04961 -0.02205,0.04961 -0.01654,0.08269 z"
         id="path369" />
      <path
         style="fill:#a0bf43;stroke:none;stroke-width:0.2;stroke-dasharray:none;stroke-opacity:1"
         d="m 16.641189,20.769793 c 0.0055,0.03308 0.01654,0.09922 0.110242,0.231511 0.09371,0.132293 0.270094,0.330727 0.490583,0.3197 0.220488,-0.01103 0.485066,-0.231508 0.496088,-0.435459 0.01102,-0.203952 -0.231508,-0.391361 -0.429947,-0.496093 -0.198439,-0.104731 -0.352776,-0.126781 -0.435458,-0.104731 -0.08268,0.02205 -0.0937,0.08819 -0.121265,0.170875 -0.02756,0.08268 -0.07166,0.181902 -0.09371,0.23151 -0.02205,0.04961 -0.02205,0.04961 -0.01654,0.08269 z"
         id="path373"
         transform="translate(-0.88867118,-0.12862346)" />
      <path
         style="fill:#a0bf43;stroke:none;stroke-width:0.2;stroke-dasharray:none;stroke-opacity:1"
         d="m 16.641189,20.769793 c 0.0055,0.03308 0.01654,0.09922 0.110242,0.231511 0.09371,0.132293 0.270094,0.330727 0.490583,0.3197 0.220488,-0.01103 0.485066,-0.231508 0.496088,-0.435459 0.01102,-0.203952 -0.231508,-0.391361 -0.429947,-0.496093 -0.198439,-0.104731 -0.352776,-0.126781 -0.435458,-0.104731 -0.08268,0.02205 -0.0937,0.08819 -0.121265,0.170875 -0.02756,0.08268 -0.07166,0.181902 -0.09371,0.23151 -0.02205,0.04961 -0.02205,0.04961 -0.01654,0.08269 z"
         id="path381"
         transform="translate(-0.38587038,-0.81851293)" />
      <path
         style="fill:#a0bf43;stroke:none;stroke-width:0.2;stroke-dasharray:none;stroke-opacity:1"
         d="m 16.641189,20.769793 c 0.0055,0.03308 0.01654,0.09922 0.110242,0.231511 0.09371,0.132293 0.270094,0.330727 0.490583,0.3197 0.220488,-0.01103 0.485066,-0.231508 0.496088,-0.435459 0.01102,-0.203952 -0.231508,-0.391361 -0.429947,-0.496093 -0.198439,-0.104731 -0.352776,-0.126781 -0.435458,-0.104731 -0.08268,0.02205 -0.0937,0.08819 -0.121265,0.170875 -0.02756,0.08268 -0.07166,0.181902 -0.09371,0.23151 -0.02205,0.04961 -0.02205,0.04961 -0.01654,0.08269 z"
         id="path389"
         transform="translate(0.57295905,-0.66650339)" />
      <path
         style="fill:#a0bf43;stroke:none;stroke-width:0.2;stroke-dasharray:none;stroke-opacity:1"
         d="m 16.641189,20.769793 c 0.0055,0.03308 0.01654,0.09922 0.110242,0.231511 0.09371,0.132293 0.270094,0.330727 0.490583,0.3197 0.220488,-0.01103 0.485066,-0.231508 0.496088,-0.435459 0.01102,-0.203952 -0.231508,-0.391361 -0.429947,-0.496093 -0.198439,-0.104731 -0.352776,-0.126781 -0.435458,-0.104731 -0.08268,0.02205 -0.0937,0.08819 -0.121265,0.170875 -0.02756,0.08268 -0.07166,0.181902 -0.09371,0.23151 -0.02205,0.04961 -0.02205,0.04961 -0.01654,0.08269 z"
         id="path397"
         transform="translate(-1.2277694,-0.80681989)" />
      <path
         style="fill:#a0bf43;stroke:none;stroke-width:0.2;stroke-dasharray:none;stroke-opacity:1"
         d="m 16.641189,20.769793 c 0.0055,0.03308 0.01654,0.09922 0.110242,0.231511 0.09371,0.132293 0.270094,0.330727 0.490583,0.3197 0.220488,-0.01103 0.485066,-0.231508 0.496088,-0.435459 0.01102,-0.203952 -0.231508,-0.391361 -0.429947,-0.496093 -0.198439,-0.104731 -0.352776,-0.126781 -0.435458,-0.104731 -0.08268,0.02205 -0.0937,0.08819 -0.121265,0.170875 -0.02756,0.08268 -0.07166,0.181902 -0.09371,0.23151 -0.02205,0.04961 -0.02205,0.04961 -0.01654,0.08269 z"
         id="path402"
         transform="translate(0.25724692,-1.3797789)" />
      <path
         style="fill:#a0bf43;stroke:none;stroke-width:0.2;stroke-dasharray:none;stroke-opacity:1"
         d="m 16.641189,20.769793 c 0.0055,0.03308 0.01654,0.09922 0.110242,0.231511 0.09371,0.132293 0.270094,0.330727 0.490583,0.3197 0.220488,-0.01103 0.485066,-0.231508 0.496088,-0.435459 0.01102,-0.203952 -0.231508,-0.391361 -0.429947,-0.496093 -0.198439,-0.104731 -0.352776,-0.126781 -0.435458,-0.104731 -0.08268,0.02205 -0.0937,0.08819 -0.121265,0.170875 -0.02756,0.08268 -0.07166,0.181902 -0.09371,0.23151 -0.02205,0.04961 -0.02205,0.04961 -0.01654,0.08269 z"
         id="path406"
         transform="translate(-0.85359206,-1.3096206)" />
      <path
         style="fill:#a0bf43;stroke:none;stroke-width:0.2;stroke-dasharray:none;stroke-opacity:1"
         d="m 16.641189,20.769793 c 0.0055,0.03308 0.01654,0.09922 0.110242,0.231511 0.09371,0.132293 0.270094,0.330727 0.490583,0.3197 0.220488,-0.01103 0.485066,-0.231508 0.496088,-0.435459 0.01102,-0.203952 -0.231508,-0.391361 -0.429947,-0.496093 -0.198439,-0.104731 -0.352776,-0.126781 -0.435458,-0.104731 -0.08268,0.02205 -0.0937,0.08819 -0.121265,0.170875 -0.02756,0.08268 -0.07166,0.181902 -0.09371,0.23151 -0.02205,0.04961 -0.02205,0.04961 -0.01654,0.08269 z"
         id="path410"
         transform="translate(-2.221678,-1.8708866)" />
      <path
         style="fill:#a0bf43;stroke:none;stroke-width:0.2;stroke-dasharray:none;stroke-opacity:1"
         d="m 16.641189,20.769793 c 0.0055,0.03308 0.01654,0.09922 0.110242,0.231511 0.09371,0.132293 0.270094,0.330727 0.490583,0.3197 0.220488,-0.01103 0.485066,-0.231508 0.496088,-0.435459 0.01102,-0.203952 -0.231508,-0.391361 -0.429947,-0.496093 -0.198439,-0.104731 -0.352776,-0.126781 -0.435458,-0.104731 -0.08268,0.02205 -0.0937,0.08819 -0.121265,0.170875 -0.02756,0.08268 -0.07166,0.181902 -0.09371,0.23151 -0.02205,0.04961 -0.02205,0.04961 -0.01654,0.08269 z"
         id="path414"
         transform="translate(-2.8881814,-1.7539562)" />
      <path
         style="fill:#a0bf43;stroke:none;stroke-width:0.2;stroke-dasharray:none;stroke-opacity:1"
         d="m 16.641189,20.769793 c 0.0055,0.03308 0.01654,0.09922 0.110242,0.231511 0.09371,0.132293 0.270094,0.330727 0.490583,0.3197 0.220488,-0.01103 0.485066,-0.231508 0.496088,-0.435459 0.01102,-0.203952 -0.231508,-0.391361 -0.429947,-0.496093 -0.198439,-0.104731 -0.352776,-0.126781 -0.435458,-0.104731 -0.08268,0.02205 -0.0937,0.08819 -0.121265,0.170875 -0.02756,0.08268 -0.07166,0.181902 -0.09371,0.23151 -0.02205,0.04961 -0.02205,0.04961 -0.01654,0.08269 z"
         id="path424"
         transform="translate(-2.8531023,-2.53739)" />
      <path
         style="fill:#a0bf43;stroke:none;stroke-width:0.2;stroke-dasharray:none;stroke-opacity:1"
         d="m 16.641189,20.769793 c 0.0055,0.03308 0.01654,0.09922 0.110242,0.231511 0.09371,0.132293 0.270094,0.330727 0.490583,0.3197 0.220488,-0.01103 0.485066,-0.231508 0.496088,-0.435459 0.01102,-0.203952 -0.231508,-0.391361 -0.429947,-0.496093 -0.198439,-0.104731 -0.352776,-0.126781 -0.435458,-0.104731 -0.08268,0.02205 -0.0937,0.08819 -0.121265,0.170875 -0.02756,0.08268 -0.07166,0.181902 -0.09371,0.23151 -0.02205,0.04961 -0.02205,0.04961 -0.01654,0.08269 z"
         id="path430"
         transform="translate(-2.0930546,-2.525697)" />
      <path
         style="fill:#a0bf43;stroke:none;stroke-width:0.2;stroke-dasharray:none;stroke-opacity:1"
         d="m 16.641189,20.769793 c 0.0055,0.03308 0.01654,0.09922 0.110242,0.231511 0.09371,0.132293 0.270094,0.330727 0.490583,0.3197 0.220488,-0.01103 0.485066,-0.231508 0.496088,-0.435459 0.01102,-0.203952 -0.231508,-0.391361 -0.429947,-0.496093 -0.198439,-0.104731 -0.352776,-0.126781 -0.435458,-0.104731 -0.08268,0.02205 -0.0937,0.08819 -0.121265,0.170875 -0.02756,0.08268 -0.07166,0.181902 -0.09371,0.23151 -0.02205,0.04961 -0.02205,0.04961 -0.01654,0.08269 z"
         id="path438"
         transform="translate(3.0051117,-2.8297161)" />
      <path
         style="fill:#a0bf43;stroke:none;stroke-width:0.2;stroke-dasharray:none;stroke-opacity:1"
         d="m 16.641189,20.769793 c 0.0055,0.03308 0.01654,0.09922 0.110242,0.231511 0.09371,0.132293 0.270094,0.330727 0.490583,0.3197 0.220488,-0.01103 0.485066,-0.231508 0.496088,-0.435459 0.01102,-0.203952 -0.231508,-0.391361 -0.429947,-0.496093 -0.198439,-0.104731 -0.352776,-0.126781 -0.435458,-0.104731 -0.08268,0.02205 -0.0937,0.08819 -0.121265,0.170875 -0.02756,0.08268 -0.07166,0.181902 -0.09371,0.23151 -0.02205,0.04961 -0.02205,0.04961 -0.01654,0.08269 z"
         id="path446"
         transform="translate(2.2684501,-2.3035292)" />
      <path
         style="fill:#a0bf43;stroke:none;stroke-width:0.2;stroke-dasharray:none;stroke-opacity:1"
         d="m 16.641189,20.769793 c 0.0055,0.03308 0.01654,0.09922 0.110242,0.231511 0.09371,0.132293 0.270094,0.330727 0.490583,0.3197 0.220488,-0.01103 0.485066,-0.231508 0.496088,-0.435459 0.01102,-0.203952 -0.231508,-0.391361 -0.429947,-0.496093 -0.198439,-0.104731 -0.352776,-0.126781 -0.435458,-0.104731 -0.08268,0.02205 -0.0937,0.08819 -0.121265,0.170875 -0.02756,0.08268 -0.07166,0.181902 -0.09371,0.23151 -0.02205,0.04961 -0.02205,0.04961 -0.01654,0.08269 z"
         id="path454"
         transform="translate(3.0051117,-2.0462823)" />
      <path
         style="fill:#a0bf43;stroke:none;stroke-width:0.2;stroke-dasharray:none;stroke-opacity:1"
         d="m 16.641189,20.769793 c 0.0055,0.03308 0.01654,0.09922 0.110242,0.231511 0.09371,0.132293 0.270094,0.330727 0.490583,0.3197 0.220488,-0.01103 0.485066,-0.231508 0.496088,-0.435459 0.01102,-0.203952 -0.231508,-0.391361 -0.429947,-0.496093 -0.198439,-0.104731 -0.352776,-0.126781 -0.435458,-0.104731 -0.08268,0.02205 -0.0937,0.08819 -0.121265,0.170875 -0.02756,0.08268 -0.07166,0.181902 -0.09371,0.23151 -0.02205,0.04961 -0.02205,0.04961 -0.01654,0.08269 z"
         id="path462"
         transform="translate(2.3152222,-2.9115674)" />
      <path
         style="fill:#a0bf43;stroke:none;stroke-width:0.2;stroke-dasharray:none;stroke-opacity:1"
         d="m 16.641189,20.769793 c 0.0055,0.03308 0.01654,0.09922 0.110242,0.231511 0.09371,0.132293 0.270094,0.330727 0.490583,0.3197 0.220488,-0.01103 0.485066,-0.231508 0.496088,-0.435459 0.01102,-0.203952 -0.231508,-0.391361 -0.429947,-0.496093 -0.198439,-0.104731 -0.352776,-0.126781 -0.435458,-0.104731 -0.08268,0.02205 -0.0937,0.08819 -0.121265,0.170875 -0.02756,0.08268 -0.07166,0.181902 -0.09371,0.23151 -0.02205,0.04961 -0.02205,0.04961 -0.01654,0.08269 z"
         id="path468"
         transform="translate(2.4321526,-3.3091309)" />
      <path
         style="fill:#a0bf43;stroke:none;stroke-width:0.2;stroke-dasharray:none;stroke-opacity:1"
         d="m 16.641189,20.769793 c 0.0055,0.03308 0.01654,0.09922 0.110242,0.231511 0.09371,0.132293 0.270094,0.330727 0.490583,0.3197 0.220488,-0.01103 0.485066,-0.231508 0.496088,-0.435459 0.01102,-0.203952 -0.231508,-0.391361 -0.429947,-0.496093 -0.198439,-0.104731 -0.352776,-0.126781 -0.435458,-0.104731 -0.08268,0.02205 -0.0937,0.08819 -0.121265,0.170875 -0.02756,0.08268 -0.07166,0.181902 -0.09371,0.23151 -0.02205,0.04961 -0.02205,0.04961 -0.01654,0.08269 z"
         id="path472"
         transform="translate(3.5429916,-2.3853806)" />
      <path
         style="fill:none;stroke:none;stroke-width:0.2;stroke-dasharray:none;stroke-opacity:1"
         d="m 16.860462,20.509595 c -0.01169,-0.03118 -0.02339,-0.06236 -0.200735,-0.30597 -0.177348,-0.243608 -0.520337,-0.699627 -0.828257,-0.972466 -0.307919,-0.272839 -0.580751,-0.362483 -0.740555,-0.415101 -0.159804,-0.05262 -0.206574,-0.06821 -0.25335,-0.0838"
         id="path476" />
      <path
         style="fill:#9f6093;fill-opacity:1;stroke:none;stroke-width:0.2;stroke-dasharray:none;stroke-opacity:1"
         d="m 14.888235,17.798758 c -0.01949,-0.05652 -0.05846,-0.169548 -0.02533,-0.302071 0.03313,-0.132523 0.138367,-0.284529 0.278685,-0.323505 0.140319,-0.03898 0.31571,0.03508 0.498903,0.06236 0.183193,0.02728 0.374175,0.0078 0.46577,0.05652 0.0916,0.04872 0.0838,0.165649 0.05261,0.270889 -0.03118,0.105241 -0.08575,0.198779 -0.128622,0.337148 -0.04287,0.13837 -0.07405,0.321558 -0.206576,0.428744 -0.132523,0.107186 -0.36638,0.138365 -0.578806,0.134466 -0.212425,-0.0039 -0.403406,-0.04287 -0.471615,-0.126676 -0.06821,-0.0838 -0.01364,-0.212422 0.03118,-0.286479 0.04482,-0.07406 0.0799,-0.09355 0.09549,-0.116933 0.01559,-0.02338 0.01169,-0.05067 0.0097,-0.06431 -0.0019,-0.01364 -0.002,-0.01363 -0.02144,-0.07015 z"
         id="path480" />
      <path
         style="fill:#9f6093;fill-opacity:1;stroke:none;stroke-width:0.2;stroke-dasharray:none;stroke-opacity:1"
         d="m 14.888235,17.798758 c -0.01949,-0.05652 -0.05846,-0.169548 -0.02533,-0.302071 0.03313,-0.132523 0.138367,-0.284529 0.278685,-0.323505 0.140319,-0.03898 0.31571,0.03508 0.498903,0.06236 0.183193,0.02728 0.374175,0.0078 0.46577,0.05652 0.0916,0.04872 0.0838,0.165649 0.05261,0.270889 -0.03118,0.105241 -0.08575,0.198779 -0.128622,0.337148 -0.04287,0.13837 -0.07405,0.321558 -0.206576,0.428744 -0.132523,0.107186 -0.36638,0.138365 -0.578806,0.134466 -0.212425,-0.0039 -0.403406,-0.04287 -0.471615,-0.126676 -0.06821,-0.0838 -0.01364,-0.212422 0.03118,-0.286479 0.04482,-0.07406 0.0799,-0.09355 0.09549,-0.116933 0.01559,-0.02338 0.01169,-0.05067 0.0097,-0.06431 -0.0019,-0.01364 -0.002,-0.01363 -0.02144,-0.07015 z"
         id="path481"
         transform="translate(-1.9016927,0.56223958)" />
      <path
         style="fill:#9f6093;fill-opacity:1;stroke:none;stroke-width:0.2;stroke-dasharray:none;stroke-opacity:1"
         d="m 14.888235,17.798758 c -0.01949,-0.05652 -0.05846,-0.169548 -0.02533,-0.302071 0.03313,-0.132523 0.138367,-0.284529 0.278685,-0.323505 0.140319,-0.03898 0.31571,0.03508 0.498903,0.06236 0.183193,0.02728 0.374175,0.0078 0.46577,0.05652 0.0916,0.04872 0.0838,0.165649 0.05261,0.270889 -0.03118,0.105241 -0.08575,0.198779 -0.128622,0.337148 -0.04287,0.13837 -0.07405,0.321558 -0.206576,0.428744 -0.132523,0.107186 -0.36638,0.138365 -0.578806,0.134466 -0.212425,-0.0039 -0.403406,-0.04287 -0.471615,-0.126676 -0.06821,-0.0838 -0.01364,-0.212422 0.03118,-0.286479 0.04482,-0.07406 0.0799,-0.09355 0.09549,-0.116933 0.01559,-0.02338 0.01169,-0.05067 0.0097,-0.06431 -0.0019,-0.01364 -0.002,-0.01363 -0.02144,-0.07015 z"
         id="path483"
         transform="rotate(-76.775277,16.013884,19.15147)" />
      <path
         style="fill:#9f6093;fill-opacity:1;stroke:none;stroke-width:0.2;stroke-dasharray:none;stroke-opacity:1"
         d="m 14.888235,17.798758 c -0.01949,-0.05652 -0.05846,-0.169548 -0.02533,-0.302071 0.03313,-0.132523 0.138367,-0.284529 0.278685,-0.323505 0.140319,-0.03898 0.31571,0.03508 0.498903,0.06236 0.183193,0.02728 0.374175,0.0078 0.46577,0.05652 0.0916,0.04872 0.0838,0.165649 0.05261,0.270889 -0.03118,0.105241 -0.08575,0.198779 -0.128622,0.337148 -0.04287,0.13837 -0.07405,0.321558 -0.206576,0.428744 -0.132523,0.107186 -0.36638,0.138365 -0.578806,0.134466 -0.212425,-0.0039 -0.403406,-0.04287 -0.471615,-0.126676 -0.06821,-0.0838 -0.01364,-0.212422 0.03118,-0.286479 0.04482,-0.07406 0.0799,-0.09355 0.09549,-0.116933 0.01559,-0.02338 0.01169,-0.05067 0.0097,-0.06431 -0.0019,-0.01364 -0.002,-0.01363 -0.02144,-0.07015 z"
         id="path485"
         transform="rotate(-76.775277,17.410666,17.710013)" />
      <path
         style="fill:#9f6093;fill-opacity:1;stroke:none;stroke-width:0.2;stroke-dasharray:none;stroke-opacity:1"
         d="m 14.888235,17.798758 c -0.01949,-0.05652 -0.05846,-0.169548 -0.02533,-0.302071 0.03313,-0.132523 0.138367,-0.284529 0.278685,-0.323505 0.140319,-0.03898 0.31571,0.03508 0.498903,0.06236 0.183193,0.02728 0.374175,0.0078 0.46577,0.05652 0.0916,0.04872 0.0838,0.165649 0.05261,0.270889 -0.03118,0.105241 -0.08575,0.198779 -0.128622,0.337148 -0.04287,0.13837 -0.07405,0.321558 -0.206576,0.428744 -0.132523,0.107186 -0.36638,0.138365 -0.578806,0.134466 -0.212425,-0.0039 -0.403406,-0.04287 -0.471615,-0.126676 -0.06821,-0.0838 -0.01364,-0.212422 0.03118,-0.286479 0.04482,-0.07406 0.0799,-0.09355 0.09549,-0.116933 0.01559,-0.02338 0.01169,-0.05067 0.0097,-0.06431 -0.0019,-0.01364 -0.002,-0.01363 -0.02144,-0.07015 z"
         id="path487"
         transform="rotate(-76.775277,17.586704,19.310354)" />
      <path
         style="fill:#9f6093;fill-opacity:1;stroke:none;stroke-width:0.2;stroke-dasharray:none;stroke-opacity:1"
         d="m 14.888235,17.798758 c -0.01949,-0.05652 -0.05846,-0.169548 -0.02533,-0.302071 0.03313,-0.132523 0.138367,-0.284529 0.278685,-0.323505 0.140319,-0.03898 0.31571,0.03508 0.498903,0.06236 0.183193,0.02728 0.374175,0.0078 0.46577,0.05652 0.0916,0.04872 0.0838,0.165649 0.05261,0.270889 -0.03118,0.105241 -0.08575,0.198779 -0.128622,0.337148 -0.04287,0.13837 -0.07405,0.321558 -0.206576,0.428744 -0.132523,0.107186 -0.36638,0.138365 -0.578806,0.134466 -0.212425,-0.0039 -0.403406,-0.04287 -0.471615,-0.126676 -0.06821,-0.0838 -0.01364,-0.212422 0.03118,-0.286479 0.04482,-0.07406 0.0799,-0.09355 0.09549,-0.116933 0.01559,-0.02338 0.01169,-0.05067 0.0097,-0.06431 -0.0019,-0.01364 -0.002,-0.01363 -0.02144,-0.07015 z"
         id="path489"
         transform="rotate(-76.775277,18.099671,15.232192)" />
      <path
         style="fill:#9f6093;fill-opacity:1;stroke:none;stroke-width:0.2;stroke-dasharray:none;stroke-opacity:1"
         d="m 14.888235,17.798758 c -0.01949,-0.05652 -0.05846,-0.169548 -0.02533,-0.302071 0.03313,-0.132523 0.138367,-0.284529 0.278685,-0.323505 0.140319,-0.03898 0.31571,0.03508 0.498903,0.06236 0.183193,0.02728 0.374175,0.0078 0.46577,0.05652 0.0916,0.04872 0.0838,0.165649 0.05261,0.270889 -0.03118,0.105241 -0.08575,0.198779 -0.128622,0.337148 -0.04287,0.13837 -0.07405,0.321558 -0.206576,0.428744 -0.132523,0.107186 -0.36638,0.138365 -0.578806,0.134466 -0.212425,-0.0039 -0.403406,-0.04287 -0.471615,-0.126676 -0.06821,-0.0838 -0.01364,-0.212422 0.03118,-0.286479 0.04482,-0.07406 0.0799,-0.09355 0.09549,-0.116933 0.01559,-0.02338 0.01169,-0.05067 0.0097,-0.06431 -0.0019,-0.01364 -0.002,-0.01363 -0.02144,-0.07015 z"
         id="path493"
         transform="rotate(-76.775277,18.875931,14.48822)" />
      <path
         style="fill:#9f6093;fill-opacity:1;stroke:none;stroke-width:0.2;stroke-dasharray:none;stroke-opacity:1"
         d="m 14.888235,17.798758 c -0.01949,-0.05652 -0.05846,-0.169548 -0.02533,-0.302071 0.03313,-0.132523 0.138367,-0.284529 0.278685,-0.323505 0.140319,-0.03898 0.31571,0.03508 0.498903,0.06236 0.183193,0.02728 0.374175,0.0078 0.46577,0.05652 0.0916,0.04872 0.0838,0.165649 0.05261,0.270889 -0.03118,0.105241 -0.08575,0.198779 -0.128622,0.337148 -0.04287,0.13837 -0.07405,0.321558 -0.206576,0.428744 -0.132523,0.107186 -0.36638,0.138365 -0.578806,0.134466 -0.212425,-0.0039 -0.403406,-0.04287 -0.471615,-0.126676 -0.06821,-0.0838 -0.01364,-0.212422 0.03118,-0.286479 0.04482,-0.07406 0.0799,-0.09355 0.09549,-0.116933 0.01559,-0.02338 0.01169,-0.05067 0.0097,-0.06431 -0.0019,-0.01364 -0.002,-0.01363 -0.02144,-0.07015 z"
         id="path497"
         transform="rotate(-27.413055,15.624599,9.8593517)" />
      <path
         style="fill:#ffffff;fill-opacity:1;stroke:none;stroke-width:0.2;stroke-dasharray:none;stroke-opacity:1"
         d="m 13.669228,18.251863 c 9.66e-4,-0.02436 0.0029,-0.07308 0.0292,-0.100364 0.0263,-0.02728 0.07697,-0.03313 0.105232,0.02046 0.02826,0.05359 0.03411,0.166626 0.0117,0.226065 -0.02241,0.05944 -0.07308,0.06529 -0.11596,0.038 -0.04288,-0.02729 -0.07795,-0.0877 -0.09062,-0.128615 -0.01267,-0.04092 -0.0029,-0.06237 0.01072,-0.06432 0.01364,-0.0019 0.03118,0.01559 0.03995,0.02436 0.0088,0.0088 0.0088,0.0088 0.0098,-0.01559 z"
         id="path503"
         transform="translate(-0.15785607,0.02338608)" />
      <path
         style="fill:#ffffff;fill-opacity:1;stroke:none;stroke-width:0.2;stroke-dasharray:none;stroke-opacity:1"
         d="m 13.669228,18.251863 c 9.66e-4,-0.02436 0.0029,-0.07308 0.0292,-0.100364 0.0263,-0.02728 0.07697,-0.03313 0.105232,0.02046 0.02826,0.05359 0.03411,0.166626 0.0117,0.226065 -0.02241,0.05944 -0.07308,0.06529 -0.11596,0.038 -0.04288,-0.02729 -0.07795,-0.0877 -0.09062,-0.128615 -0.01267,-0.04092 -0.0029,-0.06237 0.01072,-0.06432 0.01364,-0.0019 0.03118,0.01559 0.03995,0.02436 0.0088,0.0088 0.0088,0.0088 0.0098,-0.01559 z"
         id="path507"
         transform="translate(-0.29817257,0.19878171)" />
      <path
         style="fill:#ffffff;fill-opacity:1;stroke:none;stroke-width:0.2;stroke-dasharray:none;stroke-opacity:1"
         d="m 13.669228,18.251863 c 9.66e-4,-0.02436 0.0029,-0.07308 0.0292,-0.100364 0.0263,-0.02728 0.07697,-0.03313 0.105232,0.02046 0.02826,0.05359 0.03411,0.166626 0.0117,0.226065 -0.02241,0.05944 -0.07308,0.06529 -0.11596,0.038 -0.04288,-0.02729 -0.07795,-0.0877 -0.09062,-0.128615 -0.01267,-0.04092 -0.0029,-0.06237 0.01072,-0.06432 0.01364,-0.0019 0.03118,0.01559 0.03995,0.02436 0.0088,0.0088 0.0088,0.0088 0.0098,-0.01559 z"
         id="path515"
         transform="translate(1.6862024,-0.47094485)" />
      <path
         style="fill:#ffffff;fill-opacity:1;stroke:none;stroke-width:0.2;stroke-dasharray:none;stroke-opacity:1"
         d="m 13.669228,18.251863 c 9.66e-4,-0.02436 0.0029,-0.07308 0.0292,-0.100364 0.0263,-0.02728 0.07697,-0.03313 0.105232,0.02046 0.02826,0.05359 0.03411,0.166626 0.0117,0.226065 -0.02241,0.05944 -0.07308,0.06529 -0.11596,0.038 -0.04288,-0.02729 -0.07795,-0.0877 -0.09062,-0.128615 -0.01267,-0.04092 -0.0029,-0.06237 0.01072,-0.06432 0.01364,-0.0019 0.03118,0.01559 0.03995,0.02436 0.0088,0.0088 0.0088,0.0088 0.0098,-0.01559 z"
         id="path523"
         transform="translate(1.8681034,-0.34692141)" />
      <path
         style="fill:#ffffff;fill-opacity:1;stroke:none;stroke-width:0.2;stroke-dasharray:none;stroke-opacity:1"
         d="m 13.669228,18.251863 c 9.66e-4,-0.02436 0.0029,-0.07308 0.0292,-0.100364 0.0263,-0.02728 0.07697,-0.03313 0.105232,0.02046 0.02826,0.05359 0.03411,0.166626 0.0117,0.226065 -0.02241,0.05944 -0.07308,0.06529 -0.11596,0.038 -0.04288,-0.02729 -0.07795,-0.0877 -0.09062,-0.128615 -0.01267,-0.04092 -0.0029,-0.06237 0.01072,-0.06432 0.01364,-0.0019 0.03118,0.01559 0.03995,0.02436 0.0088,0.0088 0.0088,0.0088 0.0098,-0.01559 z"
         id="path532"
         transform="rotate(34.22526,12.504825,19.89822)" />
      <path
         style="fill:#ffffff;fill-opacity:1;stroke:none;stroke-width:0.2;stroke-dasharray:none;stroke-opacity:1"
         d="m 13.669228,18.251863 c 9.66e-4,-0.02436 0.0029,-0.07308 0.0292,-0.100364 0.0263,-0.02728 0.07697,-0.03313 0.105232,0.02046 0.02826,0.05359 0.03411,0.166626 0.0117,0.226065 -0.02241,0.05944 -0.07308,0.06529 -0.11596,0.038 -0.04288,-0.02729 -0.07795,-0.0877 -0.09062,-0.128615 -0.01267,-0.04092 -0.0029,-0.06237 0.01072,-0.06432 0.01364,-0.0019 0.03118,0.01559 0.03995,0.02436 0.0088,0.0088 0.0088,0.0088 0.0098,-0.01559 z"
         id="path550"
         transform="rotate(34.22526,12.524503,20.200871)" />
      <path
         style="fill:#ffffff;fill-opacity:1;stroke:none;stroke-width:0.2;stroke-dasharray:none;stroke-opacity:1"
         d="m 13.669228,18.251863 c 9.66e-4,-0.02436 0.0029,-0.07308 0.0292,-0.100364 0.0263,-0.02728 0.07697,-0.03313 0.105232,0.02046 0.02826,0.05359 0.03411,0.166626 0.0117,0.226065 -0.02241,0.05944 -0.07308,0.06529 -0.11596,0.038 -0.04288,-0.02729 -0.07795,-0.0877 -0.09062,-0.128615 -0.01267,-0.04092 -0.0029,-0.06237 0.01072,-0.06432 0.01364,-0.0019 0.03118,0.01559 0.03995,0.02436 0.0088,0.0088 0.0088,0.0088 0.0098,-0.01559 z"
         id="path554"
         transform="rotate(-47.091028,17.780516,17.505895)" />
      <path
         style="fill:#ffffff;fill-opacity:1;stroke:none;stroke-width:0.2;stroke-dasharray:none;stroke-opacity:1"
         d="m 13.669228,18.251863 c 9.66e-4,-0.02436 0.0029,-0.07308 0.0292,-0.100364 0.0263,-0.02728 0.07697,-0.03313 0.105232,0.02046 0.02826,0.05359 0.03411,0.166626 0.0117,0.226065 -0.02241,0.05944 -0.07308,0.06529 -0.11596,0.038 -0.04288,-0.02729 -0.07795,-0.0877 -0.09062,-0.128615 -0.01267,-0.04092 -0.0029,-0.06237 0.01072,-0.06432 0.01364,-0.0019 0.03118,0.01559 0.03995,0.02436 0.0088,0.0088 0.0088,0.0088 0.0098,-0.01559 z"
         id="path558"
         transform="rotate(-47.091028,17.678807,17.24709)" />
      <path
         style="fill:#ffffff;fill-opacity:1;stroke:none;stroke-width:0.2;stroke-dasharray:none;stroke-opacity:1"
         d="m 13.669228,18.251863 c 9.66e-4,-0.02436 0.0029,-0.07308 0.0292,-0.100364 0.0263,-0.02728 0.07697,-0.03313 0.105232,0.02046 0.02826,0.05359 0.03411,0.166626 0.0117,0.226065 -0.02241,0.05944 -0.07308,0.06529 -0.11596,0.038 -0.04288,-0.02729 -0.07795,-0.0877 -0.09062,-0.128615 -0.01267,-0.04092 -0.0029,-0.06237 0.01072,-0.06432 0.01364,-0.0019 0.03118,0.01559 0.03995,0.02436 0.0088,0.0088 0.0088,0.0088 0.0098,-0.01559 z"
         id="path563"
         transform="rotate(-47.091028,16.973632,15.212639)" />
      <path
         style="fill:#ffffff;fill-opacity:1;stroke:none;stroke-width:0.2;stroke-dasharray:none;stroke-opacity:1"
         d="m 13.669228,18.251863 c 9.66e-4,-0.02436 0.0029,-0.07308 0.0292,-0.100364 0.0263,-0.02728 0.07697,-0.03313 0.105232,0.02046 0.02826,0.05359 0.03411,0.166626 0.0117,0.226065 -0.02241,0.05944 -0.07308,0.06529 -0.11596,0.038 -0.04288,-0.02729 -0.07795,-0.0877 -0.09062,-0.128615 -0.01267,-0.04092 -0.0029,-0.06237 0.01072,-0.06432 0.01364,-0.0019 0.03118,0.01559 0.03995,0.02436 0.0088,0.0088 0.0088,0.0088 0.0098,-0.01559 z"
         id="path571"
         transform="rotate(-47.091028,16.885068,15.027294)" />
      <path
         style="fill:#ffffff;fill-opacity:1;stroke:none;stroke-width:0.2;stroke-dasharray:none;stroke-opacity:1"
         d="m 13.669228,18.251863 c 9.66e-4,-0.02436 0.0029,-0.07308 0.0292,-0.100364 0.0263,-0.02728 0.07697,-0.03313 0.105232,0.02046 0.02826,0.05359 0.03411,0.166626 0.0117,0.226065 -0.02241,0.05944 -0.07308,0.06529 -0.11596,0.038 -0.04288,-0.02729 -0.07795,-0.0877 -0.09062,-0.128615 -0.01267,-0.04092 -0.0029,-0.06237 0.01072,-0.06432 0.01364,-0.0019 0.03118,0.01559 0.03995,0.02436 0.0088,0.0088 0.0088,0.0088 0.0098,-0.01559 z"
         id="path579"
         transform="rotate(-47.091028,15.087755,11.354203)" />
      <path
         style="fill:#ffffff;fill-opacity:1;stroke:none;stroke-width:0.2;stroke-dasharray:none;stroke-opacity:1"
         d="m 13.669228,18.251863 c 9.66e-4,-0.02436 0.0029,-0.07308 0.0292,-0.100364 0.0263,-0.02728 0.07697,-0.03313 0.105232,0.02046 0.02826,0.05359 0.03411,0.166626 0.0117,0.226065 -0.02241,0.05944 -0.07308,0.06529 -0.11596,0.038 -0.04288,-0.02729 -0.07795,-0.0877 -0.09062,-0.128615 -0.01267,-0.04092 -0.0029,-0.06237 0.01072,-0.06432 0.01364,-0.0019 0.03118,0.01559 0.03995,0.02436 0.0088,0.0088 0.0088,0.0088 0.0098,-0.01559 z"
         id="path582"
         transform="rotate(-47.091028,14.870027,11.180306)" />
      <path
         style="fill:#ffffff;fill-opacity:1;stroke:none;stroke-width:0.2;stroke-dasharray:none;stroke-opacity:1"
         d="m 13.669228,18.251863 c 9.66e-4,-0.02436 0.0029,-0.07308 0.0292,-0.100364 0.0263,-0.02728 0.07697,-0.03313 0.105232,0.02046 0.02826,0.05359 0.03411,0.166626 0.0117,0.226065 -0.02241,0.05944 -0.07308,0.06529 -0.11596,0.038 -0.04288,-0.02729 -0.07795,-0.0877 -0.09062,-0.128615 -0.01267,-0.04092 -0.0029,-0.06237 0.01072,-0.06432 0.01364,-0.0019 0.03118,0.01559 0.03995,0.02436 0.0088,0.0088 0.0088,0.0088 0.0098,-0.01559 z"
         id="path584"
         transform="rotate(-122.37936,16.937583,16.63628)" />
      <path
         style="fill:#ffffff;fill-opacity:1;stroke:none;stroke-width:0.2;stroke-dasharray:none;stroke-opacity:1"
         d="m 13.669228,18.251863 c 9.66e-4,-0.02436 0.0029,-0.07308 0.0292,-0.100364 0.0263,-0.02728 0.07697,-0.03313 0.105232,0.02046 0.02826,0.05359 0.03411,0.166626 0.0117,0.226065 -0.02241,0.05944 -0.07308,0.06529 -0.11596,0.038 -0.04288,-0.02729 -0.07795,-0.0877 -0.09062,-0.128615 -0.01267,-0.04092 -0.0029,-0.06237 0.01072,-0.06432 0.01364,-0.0019 0.03118,0.01559 0.03995,0.02436 0.0088,0.0088 0.0088,0.0088 0.0098,-0.01559 z"
         id="path586"
         transform="rotate(-122.37936,16.858415,16.609821)" />
      <path
         style="fill:#ffffff;fill-opacity:1;stroke:none;stroke-width:0.2;stroke-dasharray:none;stroke-opacity:1"
         d="m 13.669228,18.251863 c 9.66e-4,-0.02436 0.0029,-0.07308 0.0292,-0.100364 0.0263,-0.02728 0.07697,-0.03313 0.105232,0.02046 0.02826,0.05359 0.03411,0.166626 0.0117,0.226065 -0.02241,0.05944 -0.07308,0.06529 -0.11596,0.038 -0.04288,-0.02729 -0.07795,-0.0877 -0.09062,-0.128615 -0.01267,-0.04092 -0.0029,-0.06237 0.01072,-0.06432 0.01364,-0.0019 0.03118,0.01559 0.03995,0.02436 0.0088,0.0088 0.0088,0.0088 0.0098,-0.01559 z"
         id="path589"
         transform="rotate(-122.37936,17.607722,16.386173)" />
      <path
         style="fill:#ffffff;fill-opacity:1;stroke:none;stroke-width:0.2;stroke-dasharray:none;stroke-opacity:1"
         d="m 13.669228,18.251863 c 9.66e-4,-0.02436 0.0029,-0.07308 0.0292,-0.100364 0.0263,-0.02728 0.07697,-0.03313 0.105232,0.02046 0.02826,0.05359 0.03411,0.166626 0.0117,0.226065 -0.02241,0.05944 -0.07308,0.06529 -0.11596,0.038 -0.04288,-0.02729 -0.07795,-0.0877 -0.09062,-0.128615 -0.01267,-0.04092 -0.0029,-0.06237 0.01072,-0.06432 0.01364,-0.0019 0.03118,0.01559 0.03995,0.02436 0.0088,0.0088 0.0088,0.0088 0.0098,-0.01559 z"
         id="path593"
         transform="rotate(-122.37936,17.735052,16.402297)" />
    </g>
  </g>
</svg>
