<?xml version="1.0" encoding="UTF-8" standalone="no"?>
<!-- Created with Inkscape (http://www.inkscape.org/) -->

<svg
   width="64.000008"
   height="64.000008"
   viewBox="0 0 16.933335 16.933335"
   version="1.1"
   id="svg1"
   inkscape:version="1.3.2 (091e20e, 2023-11-25, custom)"
   sodipodi:docname="Chrysanthemum_Scene.svg"
   xmlns:inkscape="http://www.inkscape.org/namespaces/inkscape"
   xmlns:sodipodi="http://sodipodi.sourceforge.net/DTD/sodipodi-0.dtd"
   xmlns="http://www.w3.org/2000/svg"
   xmlns:svg="http://www.w3.org/2000/svg">
  <sodipodi:namedview
     id="namedview1"
     pagecolor="#ffffff"
     bordercolor="#000000"
     borderopacity="0.25"
     inkscape:showpageshadow="2"
     inkscape:pageopacity="0.0"
     inkscape:pagecheckerboard="0"
     inkscape:deskcolor="#d1d1d1"
     inkscape:document-units="mm"
     showgrid="true"
     inkscape:zoom="11.313708"
     inkscape:cx="21.566757"
     inkscape:cy="28.770407"
     inkscape:window-width="1920"
     inkscape:window-height="1001"
     inkscape:window-x="-7"
     inkscape:window-y="-7"
     inkscape:window-maximized="1"
     inkscape:current-layer="g75">
    <inkscape:grid
       id="grid1"
       units="px"
       originx="-16.945568"
       originy="-11.801772"
       spacingx="8.4666666"
       spacingy="8.4666666"
       empcolor="#0099e5"
       empopacity="0.30196078"
       color="#0099e5"
       opacity="0.14901961"
       empspacing="5"
       dotted="false"
       gridanglex="30"
       gridanglez="30"
       visible="true" />
  </sodipodi:namedview>
  <defs
     id="defs1">
    <inkscape:path-effect
       effect="bspline"
       id="path-effect1099"
       is_visible="true"
       lpeversion="1.3"
       weight="33.333333"
       steps="2"
       helper_size="0"
       apply_no_weight="true"
       apply_with_weight="true"
       only_selected="false"
       uniform="false" />
    <inkscape:path-effect
       effect="bspline"
       id="path-effect1097"
       is_visible="true"
       lpeversion="1.3"
       weight="33.333333"
       steps="2"
       helper_size="0"
       apply_no_weight="true"
       apply_with_weight="true"
       only_selected="false"
       uniform="false" />
    <inkscape:path-effect
       effect="bspline"
       id="path-effect1095"
       is_visible="true"
       lpeversion="1.3"
       weight="33.333333"
       steps="2"
       helper_size="0"
       apply_no_weight="true"
       apply_with_weight="true"
       only_selected="false"
       uniform="false" />
    <inkscape:path-effect
       effect="bspline"
       id="path-effect1093"
       is_visible="true"
       lpeversion="1.3"
       weight="33.333333"
       steps="2"
       helper_size="0"
       apply_no_weight="true"
       apply_with_weight="true"
       only_selected="false"
       uniform="false" />
    <inkscape:path-effect
       effect="bspline"
       id="path-effect1091"
       is_visible="true"
       lpeversion="1.3"
       weight="33.333333"
       steps="2"
       helper_size="0"
       apply_no_weight="true"
       apply_with_weight="true"
       only_selected="false"
       uniform="false" />
    <inkscape:path-effect
       effect="bspline"
       id="path-effect1089"
       is_visible="true"
       lpeversion="1.3"
       weight="33.333333"
       steps="2"
       helper_size="0"
       apply_no_weight="true"
       apply_with_weight="true"
       only_selected="false"
       uniform="false" />
    <inkscape:path-effect
       effect="bspline"
       id="path-effect1087"
       is_visible="true"
       lpeversion="1.3"
       weight="33.333333"
       steps="2"
       helper_size="0"
       apply_no_weight="true"
       apply_with_weight="true"
       only_selected="false"
       uniform="false" />
    <inkscape:path-effect
       effect="bspline"
       id="path-effect1085"
       is_visible="true"
       lpeversion="1.3"
       weight="33.333333"
       steps="2"
       helper_size="0"
       apply_no_weight="true"
       apply_with_weight="true"
       only_selected="false"
       uniform="false" />
    <inkscape:path-effect
       effect="bspline"
       id="path-effect1083"
       is_visible="true"
       lpeversion="1.3"
       weight="33.333333"
       steps="2"
       helper_size="0"
       apply_no_weight="true"
       apply_with_weight="true"
       only_selected="false"
       uniform="false" />
    <inkscape:path-effect
       effect="bspline"
       id="path-effect1081"
       is_visible="true"
       lpeversion="1.3"
       weight="33.333333"
       steps="2"
       helper_size="0"
       apply_no_weight="true"
       apply_with_weight="true"
       only_selected="false"
       uniform="false" />
    <inkscape:path-effect
       effect="bspline"
       id="path-effect1079"
       is_visible="true"
       lpeversion="1.3"
       weight="33.333333"
       steps="2"
       helper_size="0"
       apply_no_weight="true"
       apply_with_weight="true"
       only_selected="false"
       uniform="false" />
    <inkscape:path-effect
       effect="bspline"
       id="path-effect1077"
       is_visible="true"
       lpeversion="1.3"
       weight="33.333333"
       steps="2"
       helper_size="0"
       apply_no_weight="true"
       apply_with_weight="true"
       only_selected="false"
       uniform="false" />
    <inkscape:path-effect
       effect="bspline"
       id="path-effect1075"
       is_visible="true"
       lpeversion="1.3"
       weight="33.333333"
       steps="2"
       helper_size="0"
       apply_no_weight="true"
       apply_with_weight="true"
       only_selected="false"
       uniform="false" />
    <inkscape:path-effect
       effect="bspline"
       id="path-effect1039"
       is_visible="true"
       lpeversion="1.3"
       weight="33.333333"
       steps="2"
       helper_size="0"
       apply_no_weight="true"
       apply_with_weight="true"
       only_selected="false"
       uniform="false" />
    <inkscape:path-effect
       effect="bspline"
       id="path-effect1035"
       is_visible="true"
       lpeversion="1.3"
       weight="33.333333"
       steps="2"
       helper_size="0"
       apply_no_weight="true"
       apply_with_weight="true"
       only_selected="false"
       uniform="false" />
    <inkscape:path-effect
       effect="bspline"
       id="path-effect1031"
       is_visible="true"
       lpeversion="1.3"
       weight="33.333333"
       steps="2"
       helper_size="0"
       apply_no_weight="true"
       apply_with_weight="true"
       only_selected="false"
       uniform="false" />
    <inkscape:path-effect
       effect="bspline"
       id="path-effect1027"
       is_visible="true"
       lpeversion="1.3"
       weight="33.333333"
       steps="2"
       helper_size="0"
       apply_no_weight="true"
       apply_with_weight="true"
       only_selected="false"
       uniform="false" />
    <inkscape:path-effect
       effect="bspline"
       id="path-effect1023"
       is_visible="true"
       lpeversion="1.3"
       weight="33.333333"
       steps="2"
       helper_size="0"
       apply_no_weight="true"
       apply_with_weight="true"
       only_selected="false"
       uniform="false" />
    <inkscape:path-effect
       effect="bspline"
       id="path-effect1021"
       is_visible="true"
       lpeversion="1.3"
       weight="33.333333"
       steps="2"
       helper_size="0"
       apply_no_weight="true"
       apply_with_weight="true"
       only_selected="false"
       uniform="false" />
    <inkscape:path-effect
       effect="bspline"
       id="path-effect1020"
       is_visible="true"
       lpeversion="1.3"
       weight="33.333333"
       steps="2"
       helper_size="0"
       apply_no_weight="true"
       apply_with_weight="true"
       only_selected="false"
       uniform="false" />
    <inkscape:path-effect
       effect="bspline"
       id="path-effect1008"
       is_visible="true"
       lpeversion="1.3"
       weight="33.333333"
       steps="2"
       helper_size="0"
       apply_no_weight="true"
       apply_with_weight="true"
       only_selected="false"
       uniform="false" />
    <inkscape:path-effect
       effect="bspline"
       id="path-effect1004"
       is_visible="true"
       lpeversion="1.3"
       weight="33.333333"
       steps="2"
       helper_size="0"
       apply_no_weight="true"
       apply_with_weight="true"
       only_selected="false"
       uniform="false" />
    <inkscape:path-effect
       effect="bspline"
       id="path-effect998"
       is_visible="true"
       lpeversion="1.3"
       weight="33.333333"
       steps="2"
       helper_size="0"
       apply_no_weight="true"
       apply_with_weight="true"
       only_selected="false"
       uniform="false" />
    <inkscape:path-effect
       effect="bspline"
       id="path-effect990"
       is_visible="true"
       lpeversion="1.3"
       weight="33.333333"
       steps="2"
       helper_size="0"
       apply_no_weight="true"
       apply_with_weight="true"
       only_selected="false"
       uniform="false" />
    <inkscape:path-effect
       effect="bspline"
       id="path-effect982"
       is_visible="true"
       lpeversion="1.3"
       weight="33.333333"
       steps="2"
       helper_size="0"
       apply_no_weight="true"
       apply_with_weight="true"
       only_selected="false"
       uniform="false" />
    <inkscape:path-effect
       effect="bspline"
       id="path-effect974"
       is_visible="true"
       lpeversion="1.3"
       weight="33.333333"
       steps="2"
       helper_size="0"
       apply_no_weight="true"
       apply_with_weight="true"
       only_selected="false"
       uniform="false" />
    <inkscape:path-effect
       effect="bspline"
       id="path-effect966"
       is_visible="true"
       lpeversion="1.3"
       weight="33.333333"
       steps="2"
       helper_size="0"
       apply_no_weight="true"
       apply_with_weight="true"
       only_selected="false"
       uniform="false" />
    <inkscape:path-effect
       effect="bspline"
       id="path-effect962"
       is_visible="true"
       lpeversion="1.3"
       weight="33.333333"
       steps="2"
       helper_size="0"
       apply_no_weight="true"
       apply_with_weight="true"
       only_selected="false"
       uniform="false" />
    <inkscape:path-effect
       effect="bspline"
       id="path-effect958"
       is_visible="true"
       lpeversion="1.3"
       weight="33.333333"
       steps="2"
       helper_size="0"
       apply_no_weight="true"
       apply_with_weight="true"
       only_selected="false"
       uniform="false" />
  </defs>
  <g
     inkscape:groupmode="layer"
     id="g32"
     inkscape:label="Layer 2"
     transform="translate(-8.478902,-11.801772)">
    <rect
       style="fill:none;fill-opacity:0.921569;stroke:none;stroke-width:4.36359"
       id="rect225"
       width="15.937428"
       height="15.937428"
       x="7.7312517"
       y="11.356647"
       inkscape:export-filename="Spider_Lily_Full.svg"
       inkscape:export-xdpi="44.636486"
       inkscape:export-ydpi="44.636486"
       transform="matrix(1.0624885,0,0,1.0624885,0.26453492,-0.26453461)" />
    <path
       style="fill:none;stroke:#457b47;stroke-width:0.4;stroke-dasharray:none"
       d="m 16.743532,28.390704 c 0.04677,-0.68599 0.09354,-1.371981 -3e-6,-2.042389 -0.09355,-0.670408 -0.327402,-1.325206 -0.420946,-2.08916 -0.09354,-0.763954 -0.04677,-1.637017 0.02728,-2.64259 0.07405,-1.005573 0.17541,-2.143883 0.276738,-3.281876"
       id="path955"
       inkscape:path-effect="#path-effect958"
       inkscape:original-d="m 16.743532,28.390704 c 0.04677,-0.68599 0.09354,-1.371981 0.140316,-2.057974 -0.233865,-0.654823 -0.467721,-1.309621 -0.701582,-1.964431 0.04677,-0.873098 0.09354,-1.746161 0.140316,-2.619241 0.101335,-1.138066 0.202691,-2.276376 0.304019,-3.414369"
       sodipodi:nodetypes="ccccc" />
    <path
       style="fill:#457b47;stroke:#457b47;stroke-width:0.4;stroke-dasharray:none"
       d="m 16.98129,27.392899 c 0.07406,-0.226065 0.222168,-0.678195 0.366383,-1.157616 0.144216,-0.47942 0.28453,-0.986108 0.432643,-1.375879 0.148114,-0.389771 0.304017,-0.662603 0.530085,-0.912057 0.226069,-0.249454 0.522288,-0.475515 0.748355,-0.569059 0.226068,-0.09354 0.381969,-0.05457 0.572959,0.113036 0.190989,0.167604 0.41705,0.463821 0.654811,0.510591 0.237761,0.04677 0.487208,-0.155905 0.654809,-0.08574 0.167601,0.07016 0.253348,0.413151 0.171494,0.767844 -0.08185,0.354692 -0.331301,0.721067 -0.783438,1.09135 -0.452137,0.370284 -1.106936,0.744455 -1.53958,0.990009 -0.432644,0.245555 -0.643114,0.362483 -0.876977,0.479415 -0.233864,0.116931 -0.491106,0.233859 -0.662605,0.296222 -0.171498,0.06236 -0.257245,0.07016 -0.30012,0.07406 -0.04288,0.0039 -0.04288,0.0039 0.03118,-0.222171 z"
       id="path958"
       inkscape:path-effect="#path-effect962"
       inkscape:original-d="m 16.907234,27.618965 c 0.148112,-0.452131 0.296224,-0.904261 0.444336,-1.356393 0.140319,-0.506709 0.280633,-1.013397 0.420949,-1.520095 0.155911,-0.272844 0.311815,-0.545676 0.467721,-0.818514 0.29623,-0.226069 0.59245,-0.45213 0.888672,-0.678196 0.155911,0.03898 0.311814,0.07795 0.467722,0.11693 0.226071,0.29623 0.452131,0.592448 0.678196,0.888672 0.249457,-0.202684 0.498904,-0.405359 0.748356,-0.608039 0.08575,0.343003 0.171497,0.685992 0.257246,1.028988 -0.249457,0.366389 -0.498904,0.732764 -0.748355,1.099146 -0.654823,0.374185 -1.309622,0.748356 -1.964431,1.122532 -0.210479,0.116933 -0.420949,0.23386 -0.631424,0.350792 -0.257252,0.116933 -0.514494,0.23386 -0.771741,0.35079 -0.08575,0.0078 -0.171498,0.01558 -0.257247,0.02339 z" />
    <path
       style="fill:#457b47;stroke:#457b47;stroke-width:0.4;stroke-dasharray:none"
       d="m 16.283606,24.625546 c -0.01559,0 -0.04677,0 -0.226066,-0.358594 -0.179296,-0.358593 -0.506694,-1.075752 -0.814614,-1.562965 -0.30792,-0.487213 -0.596342,-0.744455 -0.853592,-0.724963 -0.257249,0.01949 -0.48331,0.315709 -0.600241,0.619732 -0.116931,0.304022 -0.124727,0.61583 -0.163705,0.92375 -0.03898,0.307919 -0.109135,0.611932 -0.06626,0.954932 0.04288,0.343 0.19878,0.724965 0.401462,0.986111 0.202681,0.261145 0.452128,0.401459 0.763946,0.549572 0.311818,0.148114 0.685988,0.304018 0.978316,0.35079 0.292328,0.04677 0.502799,-0.01559 0.650912,-0.06626 0.148113,-0.05067 0.233859,-0.08965 0.241654,-0.23776 0.0078,-0.148115 -0.06236,-0.405357 -0.109134,-0.608038 -0.04677,-0.202681 -0.07016,-0.350789 -0.09744,-0.479414 -0.02728,-0.128625 -0.05846,-0.237758 -0.07405,-0.292325 -0.01559,-0.05457 -0.01559,-0.05457 -0.03118,-0.05457 z"
       id="path962"
       inkscape:path-effect="#path-effect966"
       inkscape:original-d="m 16.299196,24.625546 c -0.03118,0 -0.06236,0 -0.09354,0 -0.327412,-0.717187 -0.654811,-1.434346 -0.982216,-2.15152 -0.288434,-0.257252 -0.576856,-0.514494 -0.865285,-0.771741 -0.22607,0.29623 -0.452131,0.592448 -0.678196,0.888672 -0.0078,0.311821 -0.01559,0.623629 -0.02339,0.935443 -0.07016,0.304025 -0.140316,0.608038 -0.210474,0.912057 0.15591,0.381981 0.311814,0.763946 0.467721,1.145918 0.249456,0.14032 0.498903,0.280633 0.748355,0.42095 0.374184,0.15591 0.748354,0.311814 1.122532,0.467721 0.210479,-0.06236 0.420949,-0.124725 0.631424,-0.187088 0.08575,-0.03898 0.171498,-0.07795 0.257247,-0.11693 -0.07016,-0.257252 -0.140316,-0.514494 -0.210475,-0.771741 -0.02339,-0.148115 -0.04677,-0.296224 -0.07016,-0.444336 -0.03118,-0.109137 -0.06236,-0.21827 -0.09354,-0.327405 z" />
    <path
       style="fill:#e084a8;stroke:none;stroke-width:0.4;stroke-dasharray:none"
       d="m 16.112107,16.853571 c -0.04677,0.07016 -0.04677,0.155907 0.01559,0.487215 0.06236,0.331309 0.187088,0.908155 0.393668,1.309618 0.20658,0.401463 0.495002,0.627524 0.701581,0.549566 0.206578,-0.07796 0.331301,-0.459922 0.323504,-0.802921 -0.0078,-0.342999 -0.14811,-0.647012 -0.276735,-0.873078 -0.128624,-0.226067 -0.245552,-0.374176 -0.397564,-0.502801 -0.152011,-0.128624 -0.339096,-0.237757 -0.479415,-0.26504 -0.14032,-0.02728 -0.233858,0.02728 -0.280631,0.09744 z"
       id="path966"
       inkscape:path-effect="#path-effect974"
       inkscape:original-d="m 16.065335,16.83798 c 0,0.08575 0,0.171498 0,0.257247 0.124728,0.576868 0.249452,1.153714 0.374178,1.73057 0.288434,0.22607 0.576856,0.452131 0.865285,0.678197 0.124728,-0.381981 0.249451,-0.763946 0.374177,-1.145918 -0.140319,-0.304026 -0.280633,-0.608039 -0.42095,-0.912058 -0.116932,-0.148114 -0.23386,-0.296223 -0.350791,-0.444335 -0.187092,-0.109138 -0.374177,-0.21827 -0.561266,-0.327406 -0.09355,0.05457 -0.187088,0.109136 -0.280633,0.163703 z"
       transform="matrix(0.79349486,0,0,0.79349486,3.2677069,3.6447974)" />
    <path
       style="fill:#e084a8;stroke:none;stroke-width:0.4;stroke-dasharray:none"
       d="m 16.509671,16.951014 c 0,0.01949 0,0.05846 0.02728,0.339101 0.02729,0.28064 0.08185,0.802918 0.09744,1.134223 0.01559,0.331304 -0.0078,0.471617 -0.159809,0.530082 -0.152012,0.05847 -0.43264,0.03508 -0.631423,-0.21048 -0.198783,-0.245559 -0.315711,-0.713271 -0.284527,-1.079656 0.03118,-0.366385 0.210473,-0.631422 0.327405,-0.783433 0.116932,-0.15201 0.171494,-0.190984 0.265041,-0.163699 0.09355,0.02728 0.226065,0.120826 0.292326,0.167598 0.06626,0.04677 0.06626,0.04677 0.06626,0.06626 z"
       id="path974"
       inkscape:path-effect="#path-effect982"
       inkscape:original-d="m 16.509671,16.931524 c 0,0.03898 0,0.07795 0,0.116931 0.05457,0.5223 0.109135,1.044578 0.163703,1.566867 -0.02339,0.14032 -0.04677,0.280634 -0.07016,0.42095 -0.280638,-0.02339 -0.561266,-0.04677 -0.841899,-0.07016 -0.116933,-0.467731 -0.233861,-0.935443 -0.350791,-1.403165 0.179297,-0.265048 0.358587,-0.530085 0.53788,-0.795127 0.05457,-0.03898 0.109135,-0.07795 0.163702,-0.116931 0.132524,0.09355 0.265043,0.187089 0.397564,0.280633 z"
       transform="matrix(0.79349486,0,0,0.79349486,3.2677069,3.6447974)" />
    <path
       style="fill:#e084a8;stroke:none;stroke-width:0.4;stroke-dasharray:none"
       d="m 16.954006,17.387553 c 0.02339,0.03508 0.07016,0.105236 0.22217,0.268942 0.152013,0.163706 0.409255,0.420948 0.6743,0.483309 0.265045,0.06236 0.537878,-0.07016 0.63142,-0.436545 0.09354,-0.366388 0.0078,-0.966618 -0.249455,-1.286228 -0.257251,-0.319611 -0.685987,-0.358587 -0.95103,-0.249449 -0.265044,0.109137 -0.366381,0.366379 -0.42095,0.56906 -0.05457,0.202681 -0.06236,0.35079 -0.04288,0.444334 0.01949,0.09354 0.06625,0.132518 0.08964,0.152008 0.02339,0.01949 0.02339,0.01949 0.04678,0.05457 z"
       id="path982"
       inkscape:path-effect="#path-effect990"
       inkscape:original-d="m 16.93062,17.352474 c 0.04677,0.07016 0.09354,0.140317 0.140317,0.210475 0.257252,0.257252 0.514494,0.514494 0.771741,0.77174 0.272843,-0.132523 0.545676,-0.265042 0.818511,-0.397563 -0.08575,-0.600255 -0.171497,-1.200485 -0.257246,-1.800728 -0.428753,-0.03898 -0.857489,-0.07795 -1.286234,-0.116931 -0.101342,0.257252 -0.202679,0.514494 -0.304019,0.771741 -0.0078,0.148115 -0.01559,0.296224 -0.02339,0.444336 0.04677,0.03898 0.09354,0.07795 0.140316,0.11693 z"
       transform="matrix(0.79349486,0,0,0.79349486,3.2677069,3.6447974)" />
    <path
       style="fill:#e084a8;stroke:none;stroke-width:0.4;stroke-dasharray:none"
       d="m 16.848769,16.463802 c -0.09744,-0.163703 -0.136418,-0.304017 -0.280635,-0.428745 -0.144217,-0.124727 -0.393664,-0.23386 -0.666504,-0.175392 -0.272841,0.05847 -0.569059,0.284529 -0.522283,0.662609 0.04678,0.37808 0.436537,0.908154 0.77174,1.122525 0.335203,0.214372 0.615831,0.113034 0.791227,-0.04677 0.175396,-0.159807 0.245553,-0.378073 0.202677,-0.580754 -0.04288,-0.202682 -0.19878,-0.389767 -0.296222,-0.55347 z"
       id="path990"
       inkscape:path-effect="#path-effect998"
       inkscape:original-d="m 16.790304,16.440417 c -0.03898,-0.140317 -0.07795,-0.280633 -0.11693,-0.42095 -0.249457,-0.109137 -0.498904,-0.21827 -0.748355,-0.327405 -0.29623,0.22607 -0.592448,0.452131 -0.888671,0.678197 0.389775,0.530095 0.779536,1.060169 1.169304,1.590253 0.280638,-0.101341 0.561266,-0.202679 0.841899,-0.304019 0.07016,-0.218274 0.140316,-0.43654 0.210474,-0.65481 -0.15591,-0.187093 -0.311814,-0.374178 -0.467721,-0.561266 z"
       transform="matrix(0.79349486,0,0,0.79349486,3.2677069,3.6447974)" />
    <path
       style="fill:#e084a8;stroke:none;stroke-width:0.4;stroke-dasharray:none"
       d="m 15.792498,16.740539 c -0.187089,-0.25335 -0.389767,-0.300122 -0.615836,-0.187087 -0.226068,0.113036 -0.475515,0.385868 -0.350784,0.732766 0.124731,0.346898 0.623624,0.767839 0.93544,0.884767 0.311815,0.116929 0.436538,-0.07016 0.41315,-0.393668 -0.02339,-0.323512 -0.194882,-0.783429 -0.38197,-1.036778 z"
       id="path998"
       inkscape:path-effect="#path-effect1004"
       inkscape:original-d="m 15.808088,16.533961 c -0.202679,-0.04677 -0.405358,-0.09354 -0.608038,-0.140316 -0.249456,0.272843 -0.498903,0.545675 -0.748355,0.818512 0.498914,0.420959 0.997807,0.8419 1.49671,1.262849 0.124728,-0.187092 0.249451,-0.374177 0.374177,-0.561266 -0.171501,-0.459935 -0.342996,-0.919852 -0.514494,-1.379779 z"
       transform="matrix(0.79349486,0,0,0.79349486,3.2677069,3.6447974)" />
    <path
       style="fill:#e084a8;stroke:none;stroke-width:0.4;stroke-dasharray:none"
       d="m 17.441217,18.015079 c 0.136418,0.05457 0.409256,0.163703 0.721074,0.113031 0.311817,-0.05067 0.662601,-0.261142 0.919851,-0.366379 0.257249,-0.105238 0.420946,-0.105238 0.487207,0.04677 0.06626,0.152013 0.03508,0.456026 -0.124725,0.63532 -0.159806,0.179294 -0.448231,0.23386 -0.795128,0.241655 -0.346896,0.0078 -0.752248,-0.03118 -0.982212,-0.13642 -0.229964,-0.105239 -0.28453,-0.276733 -0.315711,-0.385867 -0.03118,-0.109135 -0.03898,-0.155913 -0.04288,-0.179297 -0.0039,-0.02338 -0.0039,-0.02338 0.132522,0.03118 z"
       id="path1004"
       inkscape:path-effect="#path-effect1008"
       inkscape:original-d="m 17.304798,17.960512 c 0.272837,0.109135 0.545675,0.21827 0.818512,0.327405 0.350798,-0.210479 0.701582,-0.420949 1.052375,-0.631424 0.163706,0 0.327403,0 0.491106,0 -0.03118,0.304025 -0.06236,0.608038 -0.09354,0.912057 -0.288433,0.05457 -0.576858,0.109136 -0.865286,0.163703 -0.405365,-0.03898 -0.810717,-0.07795 -1.216076,-0.116931 -0.05457,-0.171501 -0.109135,-0.342995 -0.163702,-0.514493 -0.0078,-0.04677 -0.01559,-0.09355 -0.02339,-0.140317 z"
       transform="matrix(0.79349486,0,0,0.79349486,3.2677069,3.6447974)" />
    <path
       style="fill:#e084a8;stroke:none;stroke-width:0.4;stroke-dasharray:none"
       d="m 15.921121,17.79681 c -0.05067,0 -0.152009,0 -0.393669,-0.04288 -0.241661,-0.04288 -0.623626,-0.128623 -0.927647,-0.265044 -0.304021,-0.136421 -0.530082,-0.323505 -0.68599,-0.342993 -0.155908,-0.01949 -0.241655,0.128622 -0.237757,0.370283 0.0039,0.24166 0.09744,0.576852 0.346896,0.787328 0.249456,0.210476 0.654807,0.296223 1.02509,0.276733 0.370283,-0.01949 0.705477,-0.144213 0.880872,-0.265042 0.175395,-0.120829 0.190985,-0.237757 0.171495,-0.323507 -0.01949,-0.08575 -0.07406,-0.140316 -0.101339,-0.167599 -0.02728,-0.02728 -0.02728,-0.02728 -0.07795,-0.02728 z"
       id="path1008"
       inkscape:path-effect="#path-effect1020"
       inkscape:original-d="m 15.971791,17.79681 c -0.10134,0 -0.202679,0 -0.304019,0 -0.381981,-0.08575 -0.763946,-0.171498 -1.145918,-0.257247 -0.22607,-0.187093 -0.452131,-0.374178 -0.678197,-0.561266 -0.08575,0.148114 -0.171498,0.296223 -0.257246,0.444335 0.09355,0.335208 0.187088,0.670401 0.280632,1.005602 0.405367,0.08575 0.810718,0.171498 1.216077,0.257247 0.335207,-0.124729 0.670401,-0.249452 1.005601,-0.374178 0.01559,-0.116932 0.03118,-0.23386 0.04677,-0.350791 -0.05457,-0.05457 -0.109135,-0.109135 -0.163703,-0.163702 z"
       transform="matrix(0.79349486,0,0,0.79349486,3.2677069,3.6447974)" />
    <path
       style="fill:#e084a8;stroke:none;stroke-width:0.4;stroke-dasharray:none"
       d="m 17.866062,17.469406 c 0.04677,-0.02339 0.140316,-0.07016 0.343,-0.265047 0.202683,-0.194888 0.514492,-0.537877 0.91206,-0.740557 0.397568,-0.20268 0.88087,-0.265041 1.106935,-0.109131 0.226065,0.155911 0.194882,0.53008 -0.02339,0.787329 -0.218274,0.257249 -0.623627,0.397563 -1.06407,0.479415 -0.440442,0.08185 -0.915948,0.105237 -1.142013,0.07406 -0.226066,-0.03118 -0.20268,-0.116928 -0.190986,-0.159803 0.01169,-0.04287 0.0117,-0.04288 0.05847,-0.06626 z"
       id="path1020"
       inkscape:path-effect="#path-effect1021"
       inkscape:original-d="m 17.819292,17.492791 c 0.09354,-0.04677 0.187088,-0.09354 0.280632,-0.140317 0.311822,-0.343003 0.62363,-0.685992 0.935444,-1.028988 0.483323,-0.06236 0.966624,-0.124725 1.449938,-0.187088 -0.03118,0.374184 -0.06236,0.748354 -0.09355,1.122532 -0.405365,0.140319 -0.810718,0.280633 -1.216075,0.420949 -0.475528,0.02339 -0.951034,0.04677 -1.426552,0.07016 0.02339,-0.08575 0.04677,-0.171498 0.07016,-0.257246 z"
       transform="matrix(0.79349486,0,0,0.79349486,3.2677069,3.6447974)" />
    <path
       style="fill:#e084a8;stroke:none;stroke-width:0.4;stroke-dasharray:none"
       d="m 15.164971,17.165386 c -0.152009,-0.210475 -0.456029,-0.631425 -0.74446,-0.904264 -0.288431,-0.272839 -0.561263,-0.397562 -0.756148,-0.370277 -0.194885,0.02729 -0.311813,0.206576 -0.300119,0.444337 0.0117,0.237762 0.152009,0.53398 0.378077,0.77174 0.226068,0.23776 0.537876,0.417049 0.830205,0.471617 0.292329,0.05457 0.565161,-0.01559 0.685988,-0.07016 0.120828,-0.05457 0.08965,-0.09354 0.07405,-0.11303 -0.01559,-0.01949 -0.01559,-0.01949 -0.167598,-0.229965 z"
       id="path1021"
       inkscape:path-effect="#path-effect1023"
       inkscape:original-d="m 15.31698,17.37586 c -0.304018,-0.420949 -0.608038,-0.841899 -0.912057,-1.262848 -0.272843,-0.124729 -0.545675,-0.249452 -0.818512,-0.374178 -0.116933,0.179297 -0.233861,0.358587 -0.350792,0.53788 0.140319,0.29623 0.280633,0.592448 0.42095,0.888671 0.31182,0.179297 0.623628,0.358587 0.935443,0.53788 0.272843,-0.07016 0.545675,-0.140316 0.818513,-0.210474 -0.03118,-0.03898 -0.06236,-0.07795 -0.09355,-0.116931 z"
       transform="matrix(0.79349486,0,0,0.79349486,3.2677069,3.6447974)" />
    <path
       style="fill:#e084a8;stroke:none;stroke-width:0.4;stroke-dasharray:none"
       d="m 17.43342,18.564652 c -0.01949,-0.04288 0.04287,0.0039 0.459934,0.04677 0.417061,0.04288 1.188785,0.08185 1.796828,-0.113036 0.608043,-0.194888 1.052371,-0.623625 1.371981,-0.806816 0.319611,-0.18319 0.514491,-0.120828 0.463819,0.128627 -0.05067,0.249456 -0.34689,0.685989 -0.779539,0.951032 -0.432649,0.265044 -1.001698,0.358586 -1.446036,0.36638 -0.444338,0.0078 -0.763942,-0.07016 -1.017294,-0.128623 -0.253352,-0.05847 -0.440434,-0.09744 -0.58465,-0.183192 -0.144215,-0.08575 -0.245553,-0.218269 -0.265043,-0.261144 z"
       id="path1023"
       inkscape:path-effect="#path-effect1027"
       inkscape:original-d="m 17.35157,18.475006 c 0.06236,0.04677 0.124726,0.09354 0.187088,0.140316 0.771757,0.03898 1.543481,0.07795 2.315223,0.116931 0.444344,-0.428753 0.888672,-0.85749 1.333008,-1.286235 0.194886,0.06236 0.389765,0.124726 0.584649,0.187089 -0.296227,0.436549 -0.592447,0.87308 -0.888669,1.309621 -0.569074,0.09355 -1.138124,0.187088 -1.707184,0.280633 -0.319617,-0.07795 -0.63922,-0.155907 -0.958829,-0.233861 -0.187095,-0.03898 -0.374178,-0.07795 -0.561267,-0.116931 -0.101342,-0.132523 -0.202679,-0.265042 -0.304019,-0.397563 z"
       transform="matrix(0.79349486,0,0,0.79349486,3.2677069,3.6447974)" />
    <path
       style="fill:#e084a8;stroke:none;stroke-width:0.4;stroke-dasharray:none"
       d="m 15.180562,17.894252 c -0.159805,0.05067 -0.479415,0.152009 -1.048484,0.120826 -0.56907,-0.03118 -1.387567,-0.194882 -1.878676,-0.284529 -0.491109,-0.08965 -0.654809,-0.105236 -0.358577,0.136425 0.296231,0.241662 1.052366,0.740555 1.648716,0.923745 0.596349,0.183189 1.03288,0.05067 1.313515,-0.105238 0.280634,-0.155909 0.405357,-0.335199 0.459925,-0.479414 0.05457,-0.144215 0.03898,-0.253348 0.03118,-0.307916 -0.0078,-0.05457 -0.0078,-0.05457 -0.167602,-0.0039 z"
       id="path1027"
       inkscape:path-effect="#path-effect1031"
       inkscape:original-d="m 15.340367,17.843582 c -0.31961,0.101339 -0.63922,0.202679 -0.95883,0.304019 -0.818529,-0.163706 -1.637026,-0.327405 -2.455538,-0.491108 -0.163706,-0.01559 -0.327406,-0.03118 -0.491108,-0.04677 0.756165,0.498913 1.5123,0.997806 2.26845,1.496709 0.436549,-0.132524 0.87308,-0.265042 1.309621,-0.397563 0.124728,-0.179297 0.249451,-0.358587 0.374177,-0.53788 -0.01559,-0.109137 -0.03118,-0.21827 -0.04677,-0.327405 z"
       transform="matrix(0.79349486,0,0,0.79349486,3.2677069,3.6447974)" />
    <path
       style="fill:#e084a8;stroke:none;stroke-width:0.4;stroke-dasharray:none"
       d="m 17.180072,17.804605 c 0.179293,0.0078 0.53788,0.02339 1.216087,-0.190992 0.678206,-0.214378 1.675992,-0.658704 2.272339,-1.005601 0.596346,-0.346896 0.791226,-0.596342 0.978317,-0.584646 0.18709,0.0117 0.36638,0.284528 0.261139,0.572959 -0.105241,0.288431 -0.495,0.592444 -0.904261,0.841898 -0.409261,0.249454 -0.837998,0.444334 -1.496715,0.56906 -0.658718,0.124727 -1.54737,0.179293 -2.042377,0.155905 -0.495006,-0.02339 -0.596343,-0.124725 -0.608038,-0.198779 -0.01169,-0.07406 0.06626,-0.120828 0.105238,-0.144215 0.03898,-0.02339 0.03898,-0.02338 0.218271,-0.01559 z"
       id="path1031"
       inkscape:path-effect="#path-effect1035"
       inkscape:original-d="m 17.000778,17.79681 c 0.358587,0.01559 0.717174,0.03118 1.075762,0.04677 0.997825,-0.444345 1.995611,-0.888671 2.993416,-1.333007 0.194889,-0.249457 0.389768,-0.498903 0.584652,-0.748355 0.179298,0.272843 0.358588,0.545676 0.53788,0.818513 -0.389774,0.304026 -0.779534,0.608038 -1.169302,0.912058 -0.428755,0.194887 -0.857491,0.389768 -1.286235,0.584652 -0.888691,0.05457 -1.777343,0.109135 -2.666014,0.163702 -0.101342,-0.101342 -0.20268,-0.202679 -0.304019,-0.304019 0.07795,-0.04677 0.155907,-0.09354 0.23386,-0.140316 z"
       transform="matrix(0.79349486,0,0,0.79349486,3.2677069,3.6447974)" />
    <path
       style="fill:#e084a8;stroke:none;stroke-width:0.4;stroke-dasharray:none"
       d="m 14.447798,17.512279 c -0.120828,-0.0039 -0.362484,-0.01169 -0.59245,-0.09745 -0.229965,-0.08575 -0.448231,-0.24945 -0.65481,-0.541781 -0.206579,-0.29233 -0.401459,-0.713271 -0.647016,-0.822404 -0.245557,-0.109133 -0.541774,0.09354 -0.366372,0.54568 0.175402,0.452138 0.822404,1.153707 1.297924,1.438236 0.47552,0.284529 0.779533,0.152011 0.954929,0.0078 0.175396,-0.144215 0.222166,-0.300119 0.222167,-0.389767 0,-0.08965 -0.04677,-0.113032 -0.07016,-0.124727 -0.02339,-0.01169 -0.02339,-0.01169 -0.144216,-0.01559 z"
       id="path1035"
       inkscape:path-effect="#path-effect1039"
       inkscape:original-d="m 14.568626,17.516177 c -0.241656,-0.0078 -0.483312,-0.01559 -0.724969,-0.02339 -0.218274,-0.163706 -0.43654,-0.327405 -0.65481,-0.491108 -0.194888,-0.420958 -0.389768,-0.841899 -0.584652,-1.262848 -0.29623,0.202683 -0.592448,0.405358 -0.888671,0.608038 0.647028,0.701596 1.29403,1.403165 1.941045,2.104747 0.304025,-0.132523 0.608038,-0.265042 0.912057,-0.397563 0.04677,-0.15591 0.09354,-0.311814 0.140316,-0.467722 -0.04677,-0.02339 -0.09354,-0.04677 -0.140316,-0.07016 z"
       transform="matrix(0.79349486,0,0,0.79349486,3.2677069,3.6447974)" />
    <path
       style="fill:#e084a8;stroke:none;stroke-width:0.4;stroke-dasharray:none"
       d="m 17.901143,16.865263 c 0.26894,-0.06626 0.806819,-0.198781 1.227772,-0.467725 0.420952,-0.268944 0.724966,-0.674294 1.056272,-1.032884 0.331306,-0.35859 0.689885,-0.670398 0.873077,-0.549564 0.183192,0.120833 0.190988,0.674293 -0.14032,1.106938 -0.331309,0.432646 -1.001697,0.744454 -1.559069,0.908157 -0.557373,0.163702 -1.001699,0.179292 -1.282333,0.194882 -0.280635,0.01559 -0.397563,0.03118 -0.444335,0.01559 -0.04677,-0.01559 -0.02339,-0.06236 -0.01169,-0.08575 0.01169,-0.02339 0.01169,-0.02339 0.28063,-0.08965 z"
       id="path1039"
       inkscape:path-effect="#path-effect1075"
       inkscape:original-d="m 17.632203,16.931524 c 0.53788,-0.132521 1.075759,-0.265042 1.613639,-0.397563 0.304025,-0.405367 0.608039,-0.810717 0.912058,-1.216076 0.358593,-0.311821 0.717172,-0.623629 1.075759,-0.935444 0.0078,0.553482 0.01558,1.106942 0.02339,1.660412 -0.670414,0.311821 -1.340802,0.623629 -2.011203,0.935444 -0.444344,0.01559 -0.88867,0.03118 -1.333007,0.04677 -0.116932,0.01559 -0.23386,0.03118 -0.350791,0.04677 0.02339,-0.04677 0.04677,-0.09354 0.07016,-0.140317 z"
       transform="matrix(0.79349486,0,0,0.79349486,3.2677069,3.6447974)" />
    <path
       style="fill:#e084a8;stroke:none;stroke-width:0.4;stroke-dasharray:none"
       d="m 16.092617,16.670378 c -0.01949,-0.0039 -0.05846,-0.01169 -0.249451,-0.21048 -0.190992,-0.198787 -0.533981,-0.588547 -0.810718,-0.869182 -0.276738,-0.280634 -0.487208,-0.452129 -0.615832,-0.385866 -0.128624,0.06626 -0.175395,0.370276 0.02339,0.693788 0.198786,0.323511 0.643113,0.6665 0.974418,0.849692 0.331305,0.183191 0.54957,0.206577 0.647012,0.167599 0.09744,-0.03898 0.07406,-0.140313 0.06236,-0.190984 -0.01169,-0.05067 -0.01169,-0.05067 -0.03118,-0.05457 z"
       id="path1075"
       inkscape:path-effect="#path-effect1077"
       inkscape:original-d="m 16.112107,16.674277 c -0.03898,-0.0078 -0.07795,-0.01559 -0.11693,-0.02339 -0.343003,-0.389776 -0.685992,-0.779536 -1.028988,-1.169304 -0.210479,-0.171501 -0.420949,-0.342996 -0.631424,-0.514494 -0.04677,0.304025 -0.09354,0.608038 -0.140316,0.912057 0.444344,0.343003 0.888671,0.685992 1.333006,1.028988 0.218275,0.02339 0.43654,0.04677 0.654811,0.07016 -0.02339,-0.101342 -0.04677,-0.202679 -0.07016,-0.304019 z"
       transform="matrix(0.79349486,0,0,0.79349486,3.2677069,3.6447974)" />
    <path
       style="fill:#e084a8;stroke:none;stroke-width:0.4;stroke-dasharray:none"
       d="m 17.417831,16.45211 c 0.113032,-0.01169 0.339098,-0.03508 0.654814,-0.21048 0.315717,-0.175399 0.721067,-0.502797 0.98611,-0.73666 0.265044,-0.233862 0.389767,-0.374176 0.545676,-0.378073 0.155909,-0.0039 0.342994,0.128622 0.378072,0.350793 0.03508,0.222172 -0.08185,0.533979 -0.32351,0.728864 -0.24166,0.194885 -0.608035,0.272837 -0.954932,0.319609 -0.346896,0.04677 -0.674294,0.06236 -0.904259,0.07016 -0.229965,0.0078 -0.362483,0.0078 -0.428744,-0.01559 -0.06626,-0.02338 -0.06626,-0.07015 -0.06626,-0.09354 0,-0.02339 0,-0.02338 0.113033,-0.03508 z"
       id="path1077"
       inkscape:path-effect="#path-effect1079"
       inkscape:original-d="m 17.304798,16.463803 c 0.226065,-0.02339 0.452131,-0.04677 0.678196,-0.07016 0.405368,-0.327412 0.810717,-0.654811 1.216077,-0.982216 0.124728,-0.140319 0.249452,-0.280633 0.374177,-0.42095 0.187092,0.132524 0.374176,0.265043 0.561266,0.397564 -0.116933,0.311821 -0.23386,0.623629 -0.350793,0.935443 -0.366387,0.07796 -0.732763,0.155908 -1.099145,0.233861 -0.327411,0.01559 -0.654809,0.03118 -0.982215,0.04677 -0.132524,0 -0.265042,0 -0.397563,0 0,-0.04677 0,-0.09354 0,-0.140316 z"
       transform="matrix(0.79349486,0,0,0.79349486,3.2677069,3.6447974)" />
    <path
       style="fill:#e084a8;stroke:none;stroke-width:0.4;stroke-dasharray:none"
       d="m 16.712847,16.564019 c 0.07717,-0.0055 0.231511,-0.01653 0.479561,-0.214975 0.24805,-0.198441 0.589797,-0.584284 0.870919,-0.920528 0.281121,-0.336244 0.501604,-0.622871 0.650433,-0.677991 0.148828,-0.05512 0.225997,0.121266 0.154336,0.319706 -0.07166,0.19844 -0.292141,0.418922 -0.51263,0.633897 -0.220488,0.214976 -0.440969,0.424434 -0.655945,0.584288 -0.214977,0.159853 -0.424434,0.270094 -0.600824,0.308679 -0.17639,0.03858 -0.319705,0.0055 -0.391362,-0.01103 -0.07166,-0.01654 -0.07166,-0.01654 0.0055,-0.02205 z"
       id="path1079"
       inkscape:path-effect="#path-effect1081"
       inkscape:original-d="m 16.635677,16.569531 c 0.15434,-0.01103 0.308681,-0.02205 0.463021,-0.03307 0.34176,-0.385858 0.683507,-0.771701 1.02526,-1.157552 0.220491,-0.286637 0.440973,-0.573264 0.661459,-0.859896 0.07717,0.176393 0.154339,0.352778 0.23151,0.529167 -0.220491,0.220491 -0.440973,0.440972 -0.661458,0.661458 -0.220491,0.209466 -0.440972,0.418924 -0.661458,0.628386 -0.209467,0.110245 -0.418924,0.220486 -0.628386,0.330729 -0.143319,-0.03307 -0.286632,-0.06615 -0.429948,-0.09922 z"
       transform="matrix(0.79349486,0,0,0.79349486,3.2677069,3.6447974)" />
    <path
       style="fill:#e084a8;stroke:none;stroke-width:0.4;stroke-dasharray:none"
       d="m 16.525433,16.47031 c -0.01103,-0.03308 -0.03307,-0.09922 -0.132295,-0.369317 -0.09922,-0.2701 -0.275607,-0.744135 -0.50712,-1.041793 -0.231514,-0.297657 -0.51814,-0.418922 -0.595309,-0.286627 -0.07717,0.132296 0.05512,0.518139 0.231512,0.854383 0.176391,0.336244 0.396872,0.62287 0.573262,0.782723 0.17639,0.159853 0.308681,0.192926 0.374826,0.187412 0.06615,-0.0055 0.06615,-0.0496 0.06615,-0.07165 0,-0.02205 4e-6,-0.02205 -0.01102,-0.05513 z"
       id="path1081"
       inkscape:path-effect="#path-effect1083"
       inkscape:original-d="m 16.536459,16.503385 c -0.02205,-0.06615 -0.0441,-0.132291 -0.06615,-0.198437 -0.176393,-0.474055 -0.352778,-0.94809 -0.529167,-1.422135 -0.286638,-0.12127 -0.573264,-0.242535 -0.859896,-0.363803 0.132295,0.385859 0.264584,0.771702 0.396875,1.157553 0.220491,0.286637 0.440972,0.573263 0.661459,0.859895 0.132294,0.03307 0.264583,0.06615 0.396875,0.09922 0,-0.0441 0,-0.08819 0,-0.132292 z"
       transform="matrix(0.79349486,0,0,0.79349486,3.2677069,3.6447974)" />
    <path
       style="fill:#e084a8;stroke:none;stroke-width:0.4;stroke-dasharray:none"
       d="m 16.353763,16.352718 c 0.03118,0.01754 0.09355,0.05262 0.222171,0.0078 0.128625,-0.04482 0.323505,-0.169548 0.475516,-0.399514 0.15201,-0.229967 0.261143,-0.565161 0.356635,-0.71912 0.09549,-0.153958 0.177347,-0.126674 0.161754,0.06042 -0.01559,0.187092 -0.128622,0.533978 -0.266992,0.777585 -0.138369,0.243606 -0.302068,0.38392 -0.463824,0.43264 -0.161756,0.04872 -0.321557,0.0058 -0.407306,-0.03898 -0.08575,-0.04482 -0.09744,-0.09159 -0.103289,-0.114981 -0.0058,-0.02339 -0.0058,-0.02339 0.02534,-0.0058 z"
       id="path1083"
       inkscape:path-effect="#path-effect1085"
       inkscape:original-d="m 16.322582,16.335179 c 0.06236,0.03508 0.124726,0.07016 0.187089,0.105238 0.194888,-0.124729 0.389768,-0.249452 0.584652,-0.374178 0.109137,-0.335207 0.21827,-0.670401 0.327405,-1.005601 0.08185,0.02728 0.163703,0.05457 0.245554,0.08185 -0.113035,0.346901 -0.226065,0.693787 -0.339098,1.040681 -0.163706,0.140319 -0.327405,0.280633 -0.491108,0.420949 -0.159808,-0.04288 -0.31961,-0.08575 -0.479415,-0.128623 -0.01169,-0.04677 -0.02339,-0.09354 -0.03508,-0.140317 z"
       transform="matrix(0.79349486,0,0,0.79349486,3.3326555,3.6169623)" />
    <path
       style="fill:#e084a8;stroke:none;stroke-width:0.4;stroke-dasharray:none"
       d="m 17.267768,16.40339 c -0.03703,-0.0019 -0.111082,-0.0058 -0.247503,-0.122778 -0.136421,-0.116932 -0.335198,-0.346891 -0.477464,-0.557367 -0.142267,-0.210477 -0.228014,-0.401459 -0.261143,-0.325451 -0.03313,0.07601 -0.01364,0.418997 0.06042,0.648961 0.07406,0.229964 0.202679,0.346893 0.335202,0.417051 0.132522,0.07016 0.268937,0.09354 0.36638,0.0838 0.09744,-0.0097 0.155908,-0.05262 0.192935,-0.08185 0.03703,-0.02923 0.05262,-0.04482 0.06041,-0.05262 0.0078,-0.0078 0.0078,-0.0078 -0.02924,-0.0097 z"
       id="path1085"
       inkscape:path-effect="#path-effect1087"
       inkscape:original-d="m 17.304798,16.405338 c -0.07406,-0.0039 -0.148112,-0.0078 -0.222168,-0.01169 -0.198786,-0.229968 -0.397563,-0.459927 -0.596345,-0.68989 -0.08575,-0.19099 -0.171498,-0.381972 -0.257247,-0.572959 0.01949,0.343003 0.03898,0.685992 0.05847,1.028988 0.128626,0.116932 0.257247,0.233861 0.385871,0.350791 0.136421,0.02339 0.272837,0.04677 0.409256,0.07016 0.05847,-0.04287 0.11693,-0.08575 0.175395,-0.128623 0.01559,-0.01559 0.03118,-0.03118 0.04677,-0.04677 z"
       transform="matrix(0.79349486,0,0,0.79349486,3.2677069,3.6447974)" />
    <path
       style="fill:#e084a8;stroke:none;stroke-width:0.4;stroke-dasharray:none"
       d="m 17.324697,16.134071 c 0.170876,-0.28112 0.600824,-0.766189 0.959117,-1.361509 0.358293,-0.595319 0.644919,-1.300861 0.843357,-1.6812 0.198439,-0.380339 0.308679,-0.435459 0.402387,-0.154333 0.09371,0.281126 0.170876,0.898474 0.05512,1.466231 -0.115759,0.567757 -0.424433,1.085889 -0.832337,1.438668 -0.407903,0.35278 -0.915012,0.54019 -1.21267,0.59531 -0.297658,0.05512 -0.385849,-0.02205 -0.214972,-0.303167 z"
       id="path1087"
       inkscape:path-effect="#path-effect1089"
       inkscape:original-d="m 17.065625,16.338021 c 0.429948,-0.48507 0.859896,-0.970139 1.289844,-1.455208 0.286639,-0.70557 0.573264,-1.411112 0.859896,-2.116667 0.110246,-0.05512 0.220485,-0.110243 0.330729,-0.165365 0.07717,0.617374 0.154339,1.234722 0.23151,1.852083 -0.308687,0.518153 -0.61736,1.036285 -0.926042,1.554428 -0.507126,0.187417 -1.014235,0.374826 -1.521353,0.562239 -0.0882,-0.07717 -0.176389,-0.15434 -0.264584,-0.23151 z"
       transform="matrix(0.79349486,0,0,0.79349486,3.2677069,3.6447974)" />
    <path
       style="fill:#e084a8;stroke:none;stroke-width:0.4;stroke-dasharray:none"
       d="m 16.100998,16.112023 c -0.137804,-0.259072 -0.413411,-0.777214 -0.73312,-1.477266 -0.319708,-0.700053 -0.683503,-1.581979 -0.992186,-1.863096 -0.308684,-0.281116 -0.562232,0.03857 -0.518134,0.551216 0.0441,0.51264 0.385839,1.218168 0.672476,1.752858 0.286638,0.534689 0.518138,0.898476 0.689018,1.096918 0.17088,0.198442 0.28112,0.231514 0.440976,0.237026 0.159855,0.0055 0.369312,-0.01654 0.474043,-0.02756 0.104731,-0.01103 0.104731,-0.01102 -0.03307,-0.270093 z"
       id="path1089"
       inkscape:path-effect="#path-effect1091"
       inkscape:original-d="m 16.238802,16.371094 c -0.275607,-0.518143 -0.551215,-1.036285 -0.826823,-1.554427 -0.363809,-0.881963 -0.727604,-1.763889 -1.091406,-2.645834 -0.253564,0.319712 -0.507113,0.639403 -0.760677,0.959114 0.341761,0.70557 0.683501,1.411098 1.025261,2.116668 0.231515,0.363809 0.463015,0.727596 0.694531,1.091406 0.110245,0.03307 0.220486,0.06614 0.330729,0.09922 0.209466,-0.02205 0.418923,-0.0441 0.628385,-0.06615 z"
       sodipodi:nodetypes="ccccccccc"
       transform="matrix(0.79349486,0,0,0.79349486,3.2677069,3.6447974)" />
    <path
       style="fill:#e084a8;stroke:none;stroke-width:0.4;stroke-dasharray:none"
       d="m 17.931034,16.078949 c -0.01654,-0.08268 0.237022,-0.192925 0.678,-0.52366 0.440979,-0.330734 1.069351,-0.881938 1.47174,-1.311889 0.402389,-0.429951 0.578774,-0.738626 0.771702,-0.810282 0.192927,-0.07166 0.402385,0.0937 0.451993,0.424439 0.04961,0.330734 -0.06063,0.826818 -0.248048,1.18511 -0.187416,0.358292 -0.451994,0.578774 -0.88746,0.760677 -0.435466,0.181902 -1.04179,0.325215 -1.488277,0.369312 -0.446487,0.0441 -0.733114,-0.01102 -0.74965,-0.09371 z"
       id="path1091"
       inkscape:path-effect="#path-effect1093"
       inkscape:original-d="m 17.660938,16.10651 c 0.253559,-0.110243 0.507118,-0.220486 0.760677,-0.330729 0.628398,-0.551226 1.25677,-1.10243 1.885156,-1.653646 0.176392,-0.308686 0.352777,-0.617361 0.529166,-0.926041 0.209466,0.165368 0.418923,0.330729 0.628386,0.496093 -0.110244,0.496104 -0.220485,0.992188 -0.330729,1.488282 -0.264589,0.22049 -0.529167,0.440972 -0.79375,0.661458 -0.606349,0.143319 -1.212673,0.286632 -1.819011,0.429948 -0.286636,-0.05512 -0.573263,-0.110243 -0.859895,-0.165365 z"
       transform="matrix(0.79349486,0,0,0.79349486,3.2677069,3.6447974)" />
    <path
       style="fill:#e084a8;stroke:none;stroke-width:0.4;stroke-dasharray:none"
       d="m 15.593881,16.360069 c -0.08268,-0.01103 -0.248047,-0.03308 -0.584293,-0.341762 -0.336247,-0.308687 -0.843355,-0.903988 -1.190622,-1.317402 -0.347268,-0.413414 -0.534678,-0.64492 -0.66697,-0.523648 -0.132293,0.121273 -0.209461,0.595308 -0.01653,1.058334 0.19293,0.463025 0.655942,0.915013 1.036283,1.185109 0.380342,0.270097 0.677992,0.358289 0.915016,0.319703 0.237024,-0.03859 0.41341,-0.203949 0.501605,-0.286631 0.08819,-0.08268 0.08819,-0.08268 0.0055,-0.0937 z"
       id="path1093"
       inkscape:path-effect="#path-effect1095"
       inkscape:original-d="m 15.676563,16.371094 c -0.165365,-0.02205 -0.330729,-0.0441 -0.496094,-0.06615 -0.507128,-0.595324 -1.014236,-1.190625 -1.521354,-1.785938 -0.187417,-0.231515 -0.374827,-0.463021 -0.56224,-0.694531 -0.07717,0.474055 -0.15434,0.94809 -0.23151,1.422136 0.46303,0.452005 0.926042,0.903993 1.389062,1.355989 0.297662,0.0882 0.595313,0.176389 0.892969,0.264584 0.176392,-0.165368 0.352778,-0.33073 0.529167,-0.496094 z"
       transform="matrix(0.79349486,0,0,0.79349486,3.2677069,3.6447974)" />
    <path
       style="fill:#e084a8;stroke:none;stroke-width:0.4;stroke-dasharray:none"
       d="m 16.481337,16.167144 c -0.01102,-0.03859 0.187412,-0.08268 0.402389,-0.496101 0.214977,-0.41342 0.446483,-1.19613 0.694532,-1.449686 0.24805,-0.253556 0.512628,0.02205 0.562235,0.341754 0.04961,0.319709 -0.115753,0.683504 -0.352779,0.97565 -0.237026,0.292147 -0.5457,0.512628 -0.810285,0.606334 -0.264585,0.09371 -0.485069,0.06063 -0.496092,0.02205 z"
       id="path1095"
       inkscape:path-effect="#path-effect1097"
       inkscape:original-d="m 16.271875,16.172656 c 0.198438,-0.0441 0.396875,-0.08819 0.595313,-0.132291 0.231515,-0.782742 0.463021,-1.565452 0.694531,-2.348178 0.264589,0.275614 0.529166,0.551216 0.79375,0.826823 -0.165368,0.36381 -0.330729,0.727605 -0.496094,1.091407 -0.308687,0.22049 -0.617361,0.440972 -0.926041,0.661458 -0.220491,-0.03307 -0.440973,-0.06615 -0.661459,-0.09922 z"
       transform="matrix(0.79349486,0,0,0.79349486,3.2677069,3.6447974)" />
    <path
       style="fill:#e084a8;stroke:none;stroke-width:0.4;stroke-dasharray:none"
       d="m 17.010504,16.790018 c 0.07717,-0.02205 -0.165365,-0.121268 -0.40239,-0.523662 -0.237025,-0.402394 -0.468531,-1.107936 -0.755166,-1.372518 -0.286635,-0.264581 -0.628382,-0.0882 -0.733111,0.203952 -0.10473,0.292149 0.02756,0.70004 0.237024,0.986673 0.209464,0.286634 0.49609,0.451995 0.837847,0.562239 0.341758,0.110244 0.738626,0.165364 0.815796,0.143316 z"
       id="path1097"
       inkscape:path-effect="#path-effect1099"
       inkscape:original-d="m 17.330209,16.867188 c -0.242535,-0.09922 -0.48507,-0.198438 -0.727605,-0.297657 -0.231515,-0.705569 -0.46302,-1.411111 -0.694531,-2.116667 -0.34176,0.176393 -0.683507,0.352778 -1.02526,0.529167 0.132294,0.407908 0.264583,0.815799 0.396875,1.223698 0.286637,0.165368 0.573263,0.330729 0.859896,0.496094 0.396882,0.05512 0.79375,0.110243 1.190625,0.165365 z"
       transform="matrix(0.79349486,0,0,0.79349486,3.2677069,3.6447974)" />
  </g>
</svg>
