<?xml version="1.0" encoding="UTF-8" standalone="no"?>
<!-- Created with Inkscape (http://www.inkscape.org/) -->

<svg
   width="192"
   height="32.000004"
   viewBox="0 0 50.799999 8.4666677"
   version="1.1"
   id="svg1"
   inkscape:version="1.3.2 (091e20e, 2023-11-25, custom)"
   sodipodi:docname="Daffodil_Scene.svg"
   xmlns:inkscape="http://www.inkscape.org/namespaces/inkscape"
   xmlns:sodipodi="http://sodipodi.sourceforge.net/DTD/sodipodi-0.dtd"
   xmlns="http://www.w3.org/2000/svg"
   xmlns:svg="http://www.w3.org/2000/svg">
  <sodipodi:namedview
     id="namedview1"
     pagecolor="#ffffff"
     bordercolor="#000000"
     borderopacity="0.25"
     inkscape:showpageshadow="2"
     inkscape:pageopacity="0.0"
     inkscape:pagecheckerboard="0"
     inkscape:deskcolor="#d1d1d1"
     inkscape:document-units="mm"
     showgrid="true"
     inkscape:zoom="4.0567374"
     inkscape:cx="67.788465"
     inkscape:cy="40.549827"
     inkscape:window-width="1920"
     inkscape:window-height="1001"
     inkscape:window-x="-7"
     inkscape:window-y="-7"
     inkscape:window-maximized="1"
     inkscape:current-layer="layer1">
    <inkscape:grid
       id="grid1"
       units="px"
       originx="8.4666662"
       originy="-9.2932053e-09"
       spacingx="8.4666666"
       spacingy="8.4666666"
       empcolor="#0099e5"
       empopacity="0.30196078"
       color="#0099e5"
       opacity="0.14901961"
       empspacing="5"
       dotted="false"
       gridanglex="30"
       gridanglez="30"
       visible="true" />
  </sodipodi:namedview>
  <defs
     id="defs1">
    <inkscape:path-effect
       effect="bspline"
       id="path-effect74"
       is_visible="true"
       lpeversion="1.3"
       weight="33.333333"
       steps="2"
       helper_size="0"
       apply_no_weight="true"
       apply_with_weight="true"
       only_selected="false"
       uniform="false" />
    <inkscape:path-effect
       effect="bspline"
       id="path-effect73"
       is_visible="true"
       lpeversion="1.3"
       weight="33.333333"
       steps="2"
       helper_size="0"
       apply_no_weight="true"
       apply_with_weight="true"
       only_selected="false"
       uniform="false" />
    <inkscape:path-effect
       effect="bspline"
       id="path-effect72"
       is_visible="true"
       lpeversion="1.3"
       weight="33.333333"
       steps="2"
       helper_size="0"
       apply_no_weight="true"
       apply_with_weight="true"
       only_selected="false"
       uniform="false" />
    <inkscape:path-effect
       effect="bspline"
       id="path-effect71"
       is_visible="true"
       lpeversion="1.3"
       weight="33.333333"
       steps="2"
       helper_size="0"
       apply_no_weight="true"
       apply_with_weight="true"
       only_selected="false"
       uniform="false" />
    <inkscape:path-effect
       effect="bspline"
       id="path-effect70"
       is_visible="true"
       lpeversion="1.3"
       weight="33.333333"
       steps="2"
       helper_size="0"
       apply_no_weight="true"
       apply_with_weight="true"
       only_selected="false"
       uniform="false" />
    <inkscape:path-effect
       effect="bspline"
       id="path-effect67"
       is_visible="true"
       lpeversion="1.3"
       weight="33.333333"
       steps="2"
       helper_size="0"
       apply_no_weight="true"
       apply_with_weight="true"
       only_selected="false"
       uniform="false" />
    <inkscape:path-effect
       effect="bspline"
       id="path-effect66"
       is_visible="true"
       lpeversion="1.3"
       weight="33.333333"
       steps="2"
       helper_size="0"
       apply_no_weight="true"
       apply_with_weight="true"
       only_selected="false"
       uniform="false" />
    <inkscape:path-effect
       effect="bspline"
       id="path-effect63"
       is_visible="true"
       lpeversion="1.3"
       weight="33.333333"
       steps="2"
       helper_size="0"
       apply_no_weight="true"
       apply_with_weight="true"
       only_selected="false"
       uniform="false" />
    <inkscape:path-effect
       effect="bspline"
       id="path-effect59"
       is_visible="true"
       lpeversion="1.3"
       weight="33.333333"
       steps="2"
       helper_size="0"
       apply_no_weight="true"
       apply_with_weight="true"
       only_selected="false"
       uniform="false" />
    <inkscape:path-effect
       effect="bspline"
       id="path-effect56"
       is_visible="true"
       lpeversion="1.3"
       weight="33.333333"
       steps="2"
       helper_size="0"
       apply_no_weight="true"
       apply_with_weight="true"
       only_selected="false"
       uniform="false" />
    <inkscape:path-effect
       effect="bspline"
       id="path-effect53"
       is_visible="true"
       lpeversion="1.3"
       weight="33.333333"
       steps="2"
       helper_size="0"
       apply_no_weight="true"
       apply_with_weight="true"
       only_selected="false"
       uniform="false" />
    <inkscape:path-effect
       effect="bspline"
       id="path-effect44"
       is_visible="true"
       lpeversion="1.3"
       weight="33.333333"
       steps="2"
       helper_size="0"
       apply_no_weight="true"
       apply_with_weight="true"
       only_selected="false"
       uniform="false" />
    <inkscape:path-effect
       effect="bspline"
       id="path-effect43"
       is_visible="true"
       lpeversion="1.3"
       weight="33.333333"
       steps="2"
       helper_size="0"
       apply_no_weight="true"
       apply_with_weight="true"
       only_selected="false"
       uniform="false" />
    <inkscape:path-effect
       effect="bspline"
       id="path-effect41"
       is_visible="true"
       lpeversion="1.3"
       weight="33.333333"
       steps="2"
       helper_size="0"
       apply_no_weight="true"
       apply_with_weight="true"
       only_selected="false"
       uniform="false" />
    <inkscape:path-effect
       effect="bspline"
       id="path-effect35"
       is_visible="true"
       lpeversion="1.3"
       weight="33.333333"
       steps="2"
       helper_size="0"
       apply_no_weight="true"
       apply_with_weight="true"
       only_selected="false"
       uniform="false" />
    <inkscape:path-effect
       effect="bspline"
       id="path-effect30"
       is_visible="true"
       lpeversion="1.3"
       weight="33.333333"
       steps="2"
       helper_size="0"
       apply_no_weight="true"
       apply_with_weight="true"
       only_selected="false"
       uniform="false" />
    <inkscape:path-effect
       effect="bspline"
       id="path-effect24"
       is_visible="true"
       lpeversion="1.3"
       weight="33.333333"
       steps="2"
       helper_size="0"
       apply_no_weight="true"
       apply_with_weight="true"
       only_selected="false"
       uniform="false" />
    <inkscape:path-effect
       effect="bspline"
       id="path-effect18"
       is_visible="true"
       lpeversion="1.3"
       weight="33.333333"
       steps="2"
       helper_size="0"
       apply_no_weight="true"
       apply_with_weight="true"
       only_selected="false"
       uniform="false" />
    <inkscape:path-effect
       effect="bspline"
       id="path-effect16"
       is_visible="true"
       lpeversion="1.3"
       weight="33.333333"
       steps="2"
       helper_size="0"
       apply_no_weight="true"
       apply_with_weight="true"
       only_selected="false"
       uniform="false" />
    <inkscape:path-effect
       effect="bspline"
       id="path-effect8"
       is_visible="true"
       lpeversion="1.3"
       weight="33.333333"
       steps="2"
       helper_size="0"
       apply_no_weight="true"
       apply_with_weight="true"
       only_selected="false"
       uniform="false" />
  </defs>
  <g
     inkscape:label="Layer 1"
     inkscape:groupmode="layer"
     id="g74"
     transform="matrix(-1.0624885,0,0,1.0624885,8.7312011,-0.26453462)">
    <path
       id="rect1"
       style="fill:none;stroke:#457b47;stroke-width:0.246978"
       d="m 4.636163,7.3806086 h -0.00206 v 0.6430415 h 0.00206 z"
       sodipodi:nodetypes="ccccc" />
    <ellipse
       style="fill:#6e9202;stroke:none;stroke-width:2.26799"
       id="path1"
       cx="-4.6530004"
       cy="6.9388733"
       transform="scale(-1,1)"
       rx="0.33096814"
       ry="0.53714502" />
    <rect
       style="fill:#bdca31;fill-opacity:0;stroke:none;stroke-width:0.497953"
       id="rect2"
       width="7.9687138"
       height="7.9687138"
       x="0.24897645"
       y="0.24897645"
       inkscape:export-filename="Daisy_Blue.svg"
       inkscape:export-xdpi="44.636486"
       inkscape:export-ydpi="44.636486" />
  </g>
  <g
     inkscape:label="Layer 1 copy 1"
     inkscape:groupmode="layer"
     id="g75"
     transform="matrix(-1.0624885,0,0,1.0624885,17.197868,-0.26453462)">
    <path
       id="path74"
       style="fill:none;stroke:#457b47;stroke-width:0.246978"
       d="m 4.636163,6.3845194 h -0.00206 v 1.6391307 h 0.00206 z" />
    <ellipse
       style="fill:#6e9202;stroke:none;stroke-width:2.26799"
       id="ellipse74"
       cx="-4.6530004"
       cy="5.8537316"
       transform="scale(-1,1)"
       rx="0.33096814"
       ry="0.53714502" />
    <rect
       style="fill:#bdca31;fill-opacity:0;stroke:none;stroke-width:0.497953"
       id="rect74"
       width="7.9687138"
       height="7.9687138"
       x="0.24897645"
       y="0.24897645"
       inkscape:export-filename="Daisy_Blue.svg"
       inkscape:export-xdpi="44.636486"
       inkscape:export-ydpi="44.636486" />
  </g>
  <g
     inkscape:label="Layer 1 copy"
     inkscape:groupmode="layer"
     id="g4"
     transform="matrix(-1.0624885,0,0,1.0624885,25.664534,-0.26453462)">
    <path
       id="path3"
       style="fill:none;stroke:#457b47;stroke-width:0.246978"
       d="M 4.636163,6.3845194 4.634103,5.6632472 v 2.3604029 h 0.00206 z"
       sodipodi:nodetypes="ccccc" />
    <ellipse
       style="fill:#6e9202;stroke:none;stroke-width:2.26799"
       id="ellipse3"
       cx="-4.6530004"
       cy="5.255229"
       transform="scale(-1,1)"
       rx="0.33096814"
       ry="0.53714502" />
    <rect
       style="fill:#bdca31;fill-opacity:0;stroke:none;stroke-width:0.497953"
       id="rect4"
       width="7.9687138"
       height="7.9687138"
       x="0.24897645"
       y="0.24897645"
       inkscape:export-filename="Daisy_Blue.svg"
       inkscape:export-xdpi="44.636486"
       inkscape:export-ydpi="44.636486" />
    <path
       style="fill:#ffec8c;stroke:none;stroke-width:0.941187"
       d="m 4.8455492,4.5766097 c 0,0 0,0 0,0 C 4.804626,4.7454181 4.7637027,4.9142266 4.7176636,5.0446702 4.6716245,5.1751139 4.6204713,5.2671896 4.57699,5.2288224 4.5335086,5.1904551 4.4977015,5.0216501 4.484913,4.8784177 4.4721246,4.7351853 4.482355,4.617533 4.5488565,4.5587059 c 0.066501,-0.058827 0.1892687,-0.058827 0.2480958,-0.046039 0.058827,0.012788 0.053711,0.038366 0.051153,0.051154 -0.00256,0.012789 -0.00256,0.012789 -0.00256,0.012789 z"
       id="path4"
       inkscape:path-effect="#path-effect8"
       inkscape:original-d="m 4.8455492,4.5766097 c 0,0 0,0 0,0 0,0 -0.081846,0.337617 -0.1227697,0.5064252 -0.051155,0.092079 -0.1023081,0.1841548 -0.1534623,0.276232 -0.035809,-0.1688117 -0.071616,-0.3376167 -0.1074235,-0.5064252 0.01023,-0.1176565 0.020462,-0.2353086 0.030692,-0.3529629 0.1227723,0 0.2455395,0 0.3683092,0 -0.00511,0.025577 -0.01023,0.051154 -0.015347,0.076731 z" />
  </g>
  <g
     inkscape:label="Layer 1 copy"
     inkscape:groupmode="layer"
     id="g9"
     transform="matrix(-1.0624885,0,0,1.0624885,34.131201,-0.26453462)">
    <path
       id="path8"
       style="fill:none;stroke:#457b47;stroke-width:0.246978"
       d="M 4.636163,6.3845194 4.634103,5.6632472 v 2.3604029 h 0.00206 z"
       sodipodi:nodetypes="ccccc" />
    <ellipse
       style="fill:#6e9202;stroke:none;stroke-width:2.26799"
       id="ellipse8"
       cx="-7.1620555"
       cy="1.0713923"
       transform="matrix(-0.77434729,-0.63276083,-0.63276083,0.77434729,0,0)"
       rx="0.33096814"
       ry="0.53714502" />
    <rect
       style="fill:#bdca31;fill-opacity:0;stroke:none;stroke-width:0.497953"
       id="rect8"
       width="7.9687138"
       height="7.9687138"
       x="0.24897645"
       y="0.24897645"
       inkscape:export-filename="Daisy_Blue.svg"
       inkscape:export-xdpi="44.636486"
       inkscape:export-ydpi="44.636486" />
    <path
       style="fill:#ffec8c;stroke:none;stroke-width:0.941187"
       d="m 4.8455492,4.5766097 c 0,0 0,0 0,0 C 4.804626,4.7454181 4.7637027,4.9142266 4.7176636,5.0446702 4.6716245,5.1751139 4.6204713,5.2671896 4.57699,5.2288224 4.5335086,5.1904551 4.4977015,5.0216501 4.484913,4.8784177 4.4721246,4.7351853 4.482355,4.617533 4.5488565,4.5587059 c 0.066501,-0.058827 0.1892687,-0.058827 0.2480958,-0.046039 0.058827,0.012788 0.053711,0.038366 0.051153,0.051154 -0.00256,0.012789 -0.00256,0.012789 -0.00256,0.012789 z"
       id="path9"
       inkscape:path-effect="#path-effect16"
       inkscape:original-d="m 4.8455492,4.5766097 c 0,0 0,0 0,0 0,0 -0.081846,0.337617 -0.1227697,0.5064252 -0.051155,0.092079 -0.1023081,0.1841548 -0.1534623,0.276232 -0.035809,-0.1688117 -0.071616,-0.3376167 -0.1074235,-0.5064252 0.01023,-0.1176565 0.020462,-0.2353086 0.030692,-0.3529629 0.1227723,0 0.2455395,0 0.3683092,0 -0.00511,0.025577 -0.01023,0.051154 -0.015347,0.076731 z"
       transform="rotate(39.254107,4.6114958,5.6097839)" />
    <path
       style="fill:#ffcc5d;stroke:none;stroke-width:0.941187"
       d="m 5.074714,5.1809443 c 0.028937,-0.016277 0.086811,-0.048831 0.1428771,-0.07596 0.056066,-0.027129 0.1103227,-0.048832 0.188092,-0.030746 0.077769,0.018086 0.1790474,0.075959 0.231496,0.1338342 0.052449,0.057875 0.056066,0.1157475 -0.00543,0.1681967 C 5.57026,5.4287185 5.4436626,5.4757405 5.3224873,5.5010605 5.2013121,5.5263806 5.0855662,5.5299979 5.0114145,5.511912 4.9372628,5.4938261 4.9047092,5.4540385 4.8848149,5.3889292 c -0.019894,-0.065109 -0.027128,-0.1555365 0.00181,-0.1917077 0.028938,-0.036171 0.094045,-0.018086 0.126599,-0.00904 0.032554,0.00904 0.032553,0.00904 0.06149,-0.00723 z"
       id="path16"
       inkscape:path-effect="#path-effect18"
       inkscape:original-d="m 5.045777,5.1972214 c 0.057874,-0.032554 0.1157483,-0.065108 0.1736226,-0.097663 0.054258,-0.021702 0.1085142,-0.043406 0.1627711,-0.065109 0.1012819,0.057875 0.2025598,0.1157485 0.3038396,0.1736228 0.00362,0.057875 0.00723,0.1157483 0.010852,0.1736226 -0.1266022,0.047024 -0.2531996,0.094046 -0.3797993,0.1410684 -0.1157508,0.00362 -0.2314969,0.00723 -0.3472454,0.010852 -0.032555,-0.039789 -0.065108,-0.079577 -0.097663,-0.1193656 -0.00723,-0.09043 -0.014468,-0.1808569 -0.021702,-0.2712854 0.06511,0.018087 0.1302167,0.036172 0.1953254,0.054257 z" />
    <path
       style="fill:#ffcc5d;stroke:none;stroke-width:0.941187"
       d="m 4.8631117,5.1791358 c 0.00181,-0.018086 0.00543,-0.054257 0.028938,-0.1266008 0.023512,-0.072344 0.066917,-0.1808559 0.1139399,-0.2568162 0.047023,-0.07596 0.097662,-0.119365 0.1012791,-0.1519195 0.00362,-0.032555 -0.039788,-0.054257 -0.1012804,-0.05064 -0.061492,0.00362 -0.1410676,0.032554 -0.2043679,0.07596 -0.0633,0.043406 -0.1103224,0.1012794 -0.1501112,0.1844746 -0.039789,0.083195 -0.072343,0.1917069 -0.08862,0.2513901 -0.016277,0.059683 -0.016277,0.070533 0.00181,0.094045 0.018086,0.023512 0.054257,0.059683 0.086812,0.083195 0.032555,0.023511 0.06149,0.034362 0.095853,0.018085 0.034363,-0.016277 0.074151,-0.059682 0.094045,-0.081385 0.019894,-0.021703 0.019894,-0.021702 0.021703,-0.039787 z"
       id="path18"
       inkscape:path-effect="#path-effect24"
       inkscape:original-d="M 4.861303,5.1972214 C 4.864923,5.1610504 4.868533,5.1248784 4.872155,5.0887074 4.915561,4.980191 4.958966,4.871679 5.002372,4.7631648 5.053013,4.7197588 5.1036518,4.6763538 5.1542918,4.6329481 c -0.043407,-0.021702 -0.086811,-0.043406 -0.130217,-0.065109 -0.079579,0.028938 -0.1591542,0.057874 -0.2387312,0.086811 -0.047024,0.057875 -0.094046,0.1157483 -0.1410684,0.1736226 -0.032555,0.1085162 -0.065108,0.2170282 -0.097663,0.3255424 0,0.010852 0,0.021702 0,0.032554 0.036172,0.036172 0.072343,0.072343 0.1085142,0.1085142 0.028938,0.010852 0.057874,0.021702 0.086811,0.032554 0.039789,-0.043406 0.079577,-0.086811 0.1193656,-0.130217 z"
       transform="translate(0.15191981,-0.01085141)" />
  </g>
  <g
     inkscape:label="Layer 1 copy"
     inkscape:groupmode="layer"
     id="g27"
     transform="matrix(-1.0624885,0,0,1.0624885,42.597867,-0.26453462)">
    <path
       id="path24"
       style="fill:none;stroke:#457b47;stroke-width:0.246978"
       d="M 4.636163,6.3845194 4.634103,5.6632472 v 2.3604029 h 0.00206 z"
       sodipodi:nodetypes="ccccc" />
    <ellipse
       style="fill:#6e9202;stroke:none;stroke-width:2.26799"
       id="ellipse24"
       cx="-7.1620555"
       cy="1.0713923"
       transform="matrix(-0.77434729,-0.63276083,-0.63276083,0.77434729,0,0)"
       rx="0.33096814"
       ry="0.53714502" />
    <rect
       style="fill:#bdca31;fill-opacity:0;stroke:none;stroke-width:0.497953"
       id="rect24"
       width="7.9687138"
       height="7.9687138"
       x="0.24897645"
       y="0.24897645"
       inkscape:export-filename="Daisy_Blue.svg"
       inkscape:export-xdpi="44.636486"
       inkscape:export-ydpi="44.636486" />
    <path
       style="fill:#ffec8c;stroke:none;stroke-width:0.941187"
       d="m 4.8455492,4.5766097 c 0,0 0,0 0,0 C 4.804626,4.7454181 4.7637027,4.9142266 4.7176636,5.0446702 4.6716245,5.1751139 4.6204713,5.2671896 4.57699,5.2288224 4.5335086,5.1904551 4.4977015,5.0216501 4.484913,4.8784177 4.4721246,4.7351853 4.482355,4.617533 4.5488565,4.5587059 c 0.066501,-0.058827 0.1892687,-0.058827 0.2480958,-0.046039 0.058827,0.012788 0.053711,0.038366 0.051153,0.051154 -0.00256,0.012789 -0.00256,0.012789 -0.00256,0.012789 z"
       id="path25"
       inkscape:path-effect="#path-effect30"
       inkscape:original-d="m 4.8455492,4.5766097 c 0,0 0,0 0,0 0,0 -0.081846,0.337617 -0.1227697,0.5064252 -0.051155,0.092079 -0.1023081,0.1841548 -0.1534623,0.276232 -0.035809,-0.1688117 -0.071616,-0.3376167 -0.1074235,-0.5064252 0.01023,-0.1176565 0.020462,-0.2353086 0.030692,-0.3529629 0.1227723,0 0.2455395,0 0.3683092,0 -0.00511,0.025577 -0.01023,0.051154 -0.015347,0.076731 z"
       transform="rotate(39.254107,4.6114958,5.6097839)" />
    <path
       style="fill:#ffcc5d;stroke:none;stroke-width:0.941187"
       d="m 5.074714,5.1809443 c 0.028937,-0.016277 0.086811,-0.048831 0.1428771,-0.07596 0.056066,-0.027129 0.1103227,-0.048832 0.188092,-0.030746 0.077769,0.018086 0.1790474,0.075959 0.231496,0.1338342 0.052449,0.057875 0.056066,0.1157475 -0.00543,0.1681967 C 5.57026,5.4287185 5.4436626,5.4757405 5.3224873,5.5010605 5.2013121,5.5263806 5.0855662,5.5299979 5.0114145,5.511912 4.9372628,5.4938261 4.9047092,5.4540385 4.8848149,5.3889292 c -0.019894,-0.065109 -0.027128,-0.1555365 0.00181,-0.1917077 0.028938,-0.036171 0.094045,-0.018086 0.126599,-0.00904 0.032554,0.00904 0.032553,0.00904 0.06149,-0.00723 z"
       id="path26"
       inkscape:path-effect="#path-effect35"
       inkscape:original-d="m 5.045777,5.1972214 c 0.057874,-0.032554 0.1157483,-0.065108 0.1736226,-0.097663 0.054258,-0.021702 0.1085142,-0.043406 0.1627711,-0.065109 0.1012819,0.057875 0.2025598,0.1157485 0.3038396,0.1736228 0.00362,0.057875 0.00723,0.1157483 0.010852,0.1736226 -0.1266022,0.047024 -0.2531996,0.094046 -0.3797993,0.1410684 -0.1157508,0.00362 -0.2314969,0.00723 -0.3472454,0.010852 -0.032555,-0.039789 -0.065108,-0.079577 -0.097663,-0.1193656 -0.00723,-0.09043 -0.014468,-0.1808569 -0.021702,-0.2712854 0.06511,0.018087 0.1302167,0.036172 0.1953254,0.054257 z"
       transform="translate(0,0.17362264)" />
    <path
       style="fill:#ffcc5d;stroke:none;stroke-width:0.941187"
       d="m 4.8631117,5.1791358 c 0.00181,-0.018086 0.00543,-0.054257 0.028938,-0.1266008 0.023512,-0.072344 0.066917,-0.1808559 0.1139399,-0.2568162 0.047023,-0.07596 0.097662,-0.119365 0.1012791,-0.1519195 0.00362,-0.032555 -0.039788,-0.054257 -0.1012804,-0.05064 -0.061492,0.00362 -0.1410676,0.032554 -0.2043679,0.07596 -0.0633,0.043406 -0.1103224,0.1012794 -0.1501112,0.1844746 -0.039789,0.083195 -0.072343,0.1917069 -0.08862,0.2513901 -0.016277,0.059683 -0.016277,0.070533 0.00181,0.094045 0.018086,0.023512 0.054257,0.059683 0.086812,0.083195 0.032555,0.023511 0.06149,0.034362 0.095853,0.018085 0.034363,-0.016277 0.074151,-0.059682 0.094045,-0.081385 0.019894,-0.021703 0.019894,-0.021702 0.021703,-0.039787 z"
       id="path27"
       inkscape:path-effect="#path-effect41"
       inkscape:original-d="M 4.861303,5.1972214 C 4.864923,5.1610504 4.868533,5.1248784 4.872155,5.0887074 4.915561,4.980191 4.958966,4.871679 5.002372,4.7631648 5.053013,4.7197588 5.1036518,4.6763538 5.1542918,4.6329481 c -0.043407,-0.021702 -0.086811,-0.043406 -0.130217,-0.065109 -0.079579,0.028938 -0.1591542,0.057874 -0.2387312,0.086811 -0.047024,0.057875 -0.094046,0.1157483 -0.1410684,0.1736226 -0.032555,0.1085162 -0.065108,0.2170282 -0.097663,0.3255424 0,0.010852 0,0.021702 0,0.032554 0.036172,0.036172 0.072343,0.072343 0.1085142,0.1085142 0.028938,0.010852 0.057874,0.021702 0.086811,0.032554 0.039789,-0.043406 0.079577,-0.086811 0.1193656,-0.130217 z"
       transform="translate(-0.06510848)" />
    <path
       style="fill:#ffcc5d;stroke:none;stroke-width:0.941187"
       d="m 5.1381722,5.4088243 c 0.045214,-0.027128 0.1356416,-0.081385 0.215219,-0.1265998 0.079578,-0.045215 0.1483024,-0.081386 0.1284067,-0.1030887 -0.019896,-0.021703 -0.128407,-0.028937 -0.2007505,-0.027128 -0.072344,0.00181 -0.1085133,0.01266 -0.1519194,0.036171 -0.043406,0.023512 -0.094045,0.059682 -0.1103243,0.088617 -0.016279,0.028935 0.00181,0.050643 0.014464,0.061494 0.012653,0.010851 0.019901,0.010851 0.028938,0.025321 0.00904,0.01447 0.019889,0.043408 0.025315,0.057875 0.00543,0.014467 0.00544,0.014466 0.050651,-0.012662 z"
       id="path41"
       inkscape:path-effect="#path-effect43"
       inkscape:original-d="M 5.0929584,5.4359526 C 5.1833858,5.3816956 5.2738133,5.3274384 5.3642433,5.2731814 5.4329684,5.2370094 5.5016936,5.2008387 5.5704188,5.1646672 5.4619023,5.1574331 5.3533909,5.150199 5.2448769,5.1429649 c -0.036173,0.010852 -0.072343,0.021702 -0.1085139,0.032554 -0.050641,0.036172 -0.1012799,0.072343 -0.1519211,0.1085142 0.018079,0.021702 0.036173,0.043406 0.054259,0.065109 0.00722,0 0.014468,0 0.02169,0 0.010857,0.028938 0.021715,0.057874 0.032555,0.086811 z"
       transform="translate(-0.10851415,0.02170283)" />
    <path
       style="fill:#ffcc5d;stroke:none;stroke-width:0.941187"
       d="M 4.8488006,5.144773 C 4.9012492,5.095942 4.969975,4.9729596 4.9916774,4.9024248 c 0.021702,-0.070535 -0.00362,-0.08862 -0.047023,-0.086812 -0.043406,0.00181 -0.1048972,0.023511 -0.1446854,0.066917 -0.039788,0.043405 -0.057874,0.1085139 -0.066917,0.1555372 -0.00904,0.047023 -0.00904,0.075959 0.00904,0.1030885 0.018086,0.027129 0.054256,0.052448 0.106705,0.00362 z"
       id="path43"
       inkscape:path-effect="#path-effect44"
       inkscape:original-d="m 4.8325234,5.2189244 c 0.068725,-0.1229829 0.1374503,-0.2459655 0.206178,-0.3689482 -0.025321,-0.018087 -0.050641,-0.036172 -0.075962,-0.054257 -0.061491,0.021702 -0.1229821,0.043406 -0.1844732,0.065108 -0.018079,0.06511 -0.03617,0.130217 -0.054257,0.1953254 0,0.028938 0,0.057874 0,0.086811 0.036173,0.025321 0.072343,0.05064 0.1085142,0.075961 z"
       transform="translate(0,0.15191981)" />
  </g>
  <g
     inkscape:label="Layer 1 copy"
     inkscape:groupmode="layer"
     id="g49"
     transform="matrix(-1.0624885,0,0,1.0624885,51.064534,-0.26453462)">
    <path
       style="fill:#fdfad0;stroke:none;stroke-width:0.941187"
       d="m 5.2830152,4.9440219 c 0.066917,-0.039789 0.11394,-0.083194 0.1573462,-0.141069 0.043406,-0.057875 0.083194,-0.1302166 0.095855,-0.1736219 0.01266,-0.043405 -0.00181,-0.057875 -0.054259,-0.012659 -0.052449,0.045216 -0.1428751,0.1501096 -0.2170273,0.2278789 -0.074152,0.077769 -0.1320252,0.128408 -0.16639,0.1591558 -0.034365,0.030748 -0.045218,0.041602 -0.00723,0.028938 0.037984,-0.012663 0.1247929,-0.048834 0.1917102,-0.088623 z"
       id="path70"
       inkscape:path-effect="#path-effect71"
       inkscape:original-d="M 5.3029095,4.947639 C 5.3499324,4.9042332 5.3969552,4.8608276 5.4439781,4.817422 5.4837669,4.7450778 5.5235557,4.6727363 5.5633445,4.6003936 5.5488763,4.5859254 5.5344056,4.5714565 5.5199374,4.556988 5.4295074,4.6618872 5.3390825,4.7667821 5.2486525,4.871679 5.1907772,4.9223199 5.1329044,4.9729589 5.0750292,5.0235988 5.0641718,5.0344512 5.0533144,5.0453011 5.042477,5.056153 5.1292886,5.019981 5.2160978,4.9838103 5.3029095,4.947639 Z"
       transform="translate(-0.00767311,0.00959139)" />
    <path
       id="path44"
       style="fill:none;stroke:#457b47;stroke-width:0.246978"
       d="M 4.636163,6.3845194 4.634103,5.6632472 v 2.3604029 h 0.00206 z"
       sodipodi:nodetypes="ccccc" />
    <ellipse
       style="fill:#6e9202;stroke:none;stroke-width:2.26799"
       id="ellipse44"
       cx="-7.1620555"
       cy="1.0713923"
       transform="matrix(-0.77434729,-0.63276083,-0.63276083,0.77434729,0,0)"
       rx="0.33096814"
       ry="0.53714502" />
    <rect
       style="fill:#bdca31;fill-opacity:0;stroke:none;stroke-width:0.497953"
       id="rect44"
       width="7.9687138"
       height="7.9687138"
       x="0.24897645"
       y="0.24897645"
       inkscape:export-filename="Daisy_Blue.svg"
       inkscape:export-xdpi="44.636486"
       inkscape:export-ydpi="44.636486" />
    <path
       style="fill:#ffec8c;stroke:none;stroke-width:0.941187"
       d="m 4.8455492,4.5766097 c 0,0 0,0 0,0 C 4.804626,4.7454181 4.7637027,4.9142266 4.7176636,5.0446702 4.6716245,5.1751139 4.6204713,5.2671896 4.57699,5.2288224 4.5335086,5.1904551 4.4977015,5.0216501 4.484913,4.8784177 4.4721246,4.7351853 4.482355,4.617533 4.5488565,4.5587059 c 0.066501,-0.058827 0.1892687,-0.058827 0.2480958,-0.046039 0.058827,0.012788 0.053711,0.038366 0.051153,0.051154 -0.00256,0.012789 -0.00256,0.012789 -0.00256,0.012789 z"
       id="path45"
       inkscape:path-effect="#path-effect53"
       inkscape:original-d="m 4.8455492,4.5766097 c 0,0 0,0 0,0 0,0 -0.081846,0.337617 -0.1227697,0.5064252 -0.051155,0.092079 -0.1023081,0.1841548 -0.1534623,0.276232 -0.035809,-0.1688117 -0.071616,-0.3376167 -0.1074235,-0.5064252 0.01023,-0.1176565 0.020462,-0.2353086 0.030692,-0.3529629 0.1227723,0 0.2455395,0 0.3683092,0 -0.00511,0.025577 -0.01023,0.051154 -0.015347,0.076731 z"
       transform="rotate(39.254107,4.6114958,5.6097839)" />
    <path
       style="fill:#ffcc5d;stroke:none;stroke-width:0.941187"
       d="m 5.074714,5.1809443 c 0.028937,-0.016277 0.086811,-0.048831 0.1428771,-0.07596 0.056066,-0.027129 0.1103227,-0.048832 0.188092,-0.030746 0.077769,0.018086 0.1790474,0.075959 0.231496,0.1338342 0.052449,0.057875 0.056066,0.1157475 -0.00543,0.1681967 C 5.57026,5.4287185 5.4436626,5.4757405 5.3224873,5.5010605 5.2013121,5.5263806 5.0855662,5.5299979 5.0114145,5.511912 4.9372628,5.4938261 4.9047092,5.4540385 4.8848149,5.3889292 c -0.019894,-0.065109 -0.027128,-0.1555365 0.00181,-0.1917077 0.028938,-0.036171 0.094045,-0.018086 0.126599,-0.00904 0.032554,0.00904 0.032553,0.00904 0.06149,-0.00723 z"
       id="path46"
       inkscape:path-effect="#path-effect56"
       inkscape:original-d="m 5.045777,5.1972214 c 0.057874,-0.032554 0.1157483,-0.065108 0.1736226,-0.097663 0.054258,-0.021702 0.1085142,-0.043406 0.1627711,-0.065109 0.1012819,0.057875 0.2025598,0.1157485 0.3038396,0.1736228 0.00362,0.057875 0.00723,0.1157483 0.010852,0.1736226 -0.1266022,0.047024 -0.2531996,0.094046 -0.3797993,0.1410684 -0.1157508,0.00362 -0.2314969,0.00723 -0.3472454,0.010852 -0.032555,-0.039789 -0.065108,-0.079577 -0.097663,-0.1193656 -0.00723,-0.09043 -0.014468,-0.1808569 -0.021702,-0.2712854 0.06511,0.018087 0.1302167,0.036172 0.1953254,0.054257 z"
       transform="rotate(19.3862,4.4304008,5.323623)" />
    <path
       style="fill:#ffcc5d;stroke:none;stroke-width:0.941187"
       d="m 4.8631117,5.1791358 c 0.00181,-0.018086 0.00543,-0.054257 0.028938,-0.1266008 0.023512,-0.072344 0.066917,-0.1808559 0.1139399,-0.2568162 0.047023,-0.07596 0.097662,-0.119365 0.1012791,-0.1519195 0.00362,-0.032555 -0.039788,-0.054257 -0.1012804,-0.05064 -0.061492,0.00362 -0.1410676,0.032554 -0.2043679,0.07596 -0.0633,0.043406 -0.1103224,0.1012794 -0.1501112,0.1844746 -0.039789,0.083195 -0.072343,0.1917069 -0.08862,0.2513901 -0.016277,0.059683 -0.016277,0.070533 0.00181,0.094045 0.018086,0.023512 0.054257,0.059683 0.086812,0.083195 0.032555,0.023511 0.06149,0.034362 0.095853,0.018085 0.034363,-0.016277 0.074151,-0.059682 0.094045,-0.081385 0.019894,-0.021703 0.019894,-0.021702 0.021703,-0.039787 z"
       id="path47"
       inkscape:path-effect="#path-effect59"
       inkscape:original-d="M 4.861303,5.1972214 C 4.864923,5.1610504 4.868533,5.1248784 4.872155,5.0887074 4.915561,4.980191 4.958966,4.871679 5.002372,4.7631648 5.053013,4.7197588 5.1036518,4.6763538 5.1542918,4.6329481 c -0.043407,-0.021702 -0.086811,-0.043406 -0.130217,-0.065109 -0.079579,0.028938 -0.1591542,0.057874 -0.2387312,0.086811 -0.047024,0.057875 -0.094046,0.1157483 -0.1410684,0.1736226 -0.032555,0.1085162 -0.065108,0.2170282 -0.097663,0.3255424 0,0.010852 0,0.021702 0,0.032554 0.036172,0.036172 0.072343,0.072343 0.1085142,0.1085142 0.028938,0.010852 0.057874,0.021702 0.086811,0.032554 0.039789,-0.043406 0.079577,-0.086811 0.1193656,-0.130217 z"
       transform="rotate(-21.110614,4.6232238,5.3697701)" />
    <path
       style="fill:#ffcc5d;stroke:none;stroke-width:0.941187"
       d="m 5.1381722,5.4088243 c 0.045214,-0.027128 0.1356416,-0.081385 0.215219,-0.1265998 0.079578,-0.045215 0.1483024,-0.081386 0.1284067,-0.1030887 -0.019896,-0.021703 -0.128407,-0.028937 -0.2007505,-0.027128 -0.072344,0.00181 -0.1085133,0.01266 -0.1519194,0.036171 -0.043406,0.023512 -0.094045,0.059682 -0.1103243,0.088617 -0.016279,0.028935 0.00181,0.050643 0.014464,0.061494 0.012653,0.010851 0.019901,0.010851 0.028938,0.025321 0.00904,0.01447 0.019889,0.043408 0.025315,0.057875 0.00543,0.014467 0.00544,0.014466 0.050651,-0.012662 z"
       id="path48"
       inkscape:path-effect="#path-effect63"
       inkscape:original-d="M 5.0929584,5.4359526 C 5.1833858,5.3816956 5.2738133,5.3274384 5.3642433,5.2731814 5.4329684,5.2370094 5.5016936,5.2008387 5.5704188,5.1646672 5.4619023,5.1574331 5.3533909,5.150199 5.2448769,5.1429649 c -0.036173,0.010852 -0.072343,0.021702 -0.1085139,0.032554 -0.050641,0.036172 -0.1012799,0.072343 -0.1519211,0.1085142 0.018079,0.021702 0.036173,0.043406 0.054259,0.065109 0.00722,0 0.014468,0 0.02169,0 0.010857,0.028938 0.021715,0.057874 0.032555,0.086811 z"
       transform="translate(-0.0624755,0.09076081)" />
    <path
       style="fill:#ffcc5d;stroke:none;stroke-width:0.941187"
       d="M 4.8488006,5.144773 C 4.9012492,5.095942 4.969975,4.9729596 4.9916774,4.9024248 c 0.021702,-0.070535 -0.00362,-0.08862 -0.047023,-0.086812 -0.043406,0.00181 -0.1048972,0.023511 -0.1446854,0.066917 -0.039788,0.043405 -0.057874,0.1085139 -0.066917,0.1555372 -0.00904,0.047023 -0.00904,0.075959 0.00904,0.1030885 0.018086,0.027129 0.054256,0.052448 0.106705,0.00362 z"
       id="path49"
       inkscape:path-effect="#path-effect66"
       inkscape:original-d="m 4.8325234,5.2189244 c 0.068725,-0.1229829 0.1374503,-0.2459655 0.206178,-0.3689482 -0.025321,-0.018087 -0.050641,-0.036172 -0.075962,-0.054257 -0.061491,0.021702 -0.1229821,0.043406 -0.1844732,0.065108 -0.018079,0.06511 -0.03617,0.130217 -0.054257,0.1953254 0,0.028938 0,0.057874 0,0.086811 0.036173,0.025321 0.072343,0.05064 0.1085142,0.075961 z"
       transform="translate(-0.0844042,0.12890048)" />
    <path
       style="fill:#ffec8c;stroke:none;stroke-width:0.941187"
       d="m 5.0149284,5.3183438 c 0.024298,-5e-7 0.052434,-0.010231 0.099751,-0.034529 0.047317,-0.024298 0.1138165,-0.062664 0.1227676,-0.089519 0.00895,-0.026856 -0.039643,-0.042201 -0.075448,-0.043482 -0.035805,-0.00128 -0.058831,0.011512 -0.092082,0.033253 -0.033251,0.021741 -0.076731,0.052432 -0.098471,0.072894 -0.021741,0.020461 -0.021741,0.030693 -0.011507,0.040925 0.010234,0.010232 0.03069,0.02046 0.054988,0.020459 z"
       id="path66"
       inkscape:path-effect="#path-effect67"
       inkscape:original-d="m 5.0110902,5.3285744 c 0.028137,-0.01023 0.056272,-0.020462 0.084406,-0.030692 0.066501,-0.038366 0.1330003,-0.076731 0.1994993,-0.1150969 -0.048597,-0.015347 -0.097191,-0.030692 -0.1457877,-0.046038 -0.02301,0.01279 -0.046039,0.025577 -0.069059,0.038366 -0.043482,0.030693 -0.086961,0.061385 -0.1304429,0.092077 0,0.01023 0,0.020462 0,0.030692 0.02047,0.01023 0.040924,0.020462 0.061384,0.030692 z" />
    <path
       style="fill:#ffec8c;stroke:none;stroke-width:0.941187"
       d="m 4.8218219,5.2249873 c 0.033251,-0.026856 0.09975,-0.080567 0.1074223,-0.1150966 0.00767,-0.03453 -0.043479,-0.049875 -0.080564,-0.04732 -0.037084,0.00256 -0.060109,0.023021 -0.075454,0.051157 -0.015345,0.028135 -0.023015,0.063942 -0.019178,0.088239 0.00384,0.024297 0.019185,0.037088 0.026859,0.043482 0.00767,0.00639 0.00766,0.00639 0.040915,-0.020462 z"
       id="path67"
       inkscape:path-effect="#path-effect70"
       inkscape:original-d="M 4.7885714,5.2518434 C 4.8550728,5.1981316 4.9215717,5.1444199 4.9880731,5.0907081 4.9369164,5.0753608 4.8857648,5.0600156 4.8346106,5.0446696 c -0.02301,0.020462 -0.046039,0.040923 -0.069059,0.061385 -0.00767,0.035809 -0.01534,0.071616 -0.02301,0.1074235 0.01534,0.01279 0.030692,0.025577 0.046039,0.038366 z" />
    <path
       style="fill:#ffcc5d;fill-opacity:1;stroke:none;stroke-width:0.941187"
       d="m 5.0361452,5.4079198 c 0.015373,-0.011756 0.046119,-0.035267 0.1003768,-0.081386 0.054258,-0.046119 0.1320254,-0.1148433 0.1645821,-0.157342 0.032557,-0.042499 0.019892,-0.058782 -0.02261,-0.049739 -0.042502,0.00904 -0.1148434,0.043405 -0.1663885,0.075056 -0.051545,0.03165 -0.082289,0.060586 -0.1021841,0.094949 -0.019894,0.034363 -0.028937,0.07415 -0.025315,0.096759 0.00362,0.022609 0.019891,0.028032 0.028028,0.030744 0.00814,0.00271 0.00814,0.00271 0.02351,-0.00904 z"
       id="path71"
       inkscape:path-effect="#path-effect72"
       inkscape:original-d="m 5.0207722,5.4196755 c 0.030747,-0.02351 0.061491,-0.047023 0.092238,-0.070534 0.07777,-0.068727 0.1555368,-0.1374513 0.2333065,-0.206177 -0.01265,-0.016276 -0.025321,-0.032554 -0.037981,-0.048831 -0.072343,0.034363 -0.1446845,0.068726 -0.2170279,0.1030883 -0.030747,0.028938 -0.061491,0.057874 -0.092238,0.086811 -0.00904,0.039789 -0.018079,0.079577 -0.027128,0.1193656 0.016286,0.00543 0.032555,0.010852 0.048831,0.016276 z" />
    <path
       style="fill:#ffcc5d;fill-opacity:1;stroke:none;stroke-width:0.941187"
       d="m 4.836299,5.2786071 c 0,0 0,0 0,0 0.043405,-0.072343 0.086811,-0.1446859 0.1139398,-0.1998482 0.027129,-0.055162 0.037981,-0.093143 0.027128,-0.1094187 -0.010853,-0.016276 -0.043404,-0.010851 -0.082289,0.030747 -0.038885,0.041598 -0.084099,0.1193653 -0.1085149,0.170909 -0.024416,0.051544 -0.028036,0.076866 -0.023517,0.09766 0.00452,0.020795 0.017183,0.037078 0.030747,0.037982 0.013564,9.043e-4 0.028032,-0.013564 0.035267,-0.020799 0.00723,-0.00723 0.00724,-0.00723 0.00724,-0.00723 z"
       id="path72"
       inkscape:path-effect="#path-effect73"
       inkscape:original-d="m 4.836299,5.2786071 c 0,0 0,0 0,0 0,0 0.086812,-0.1446854 0.1302162,-0.2170282 0.010857,-0.037981 0.021715,-0.07596 0.032555,-0.1139399 -0.032555,0.00543 -0.065107,0.010852 -0.097662,0.016276 -0.045215,0.07777 -0.09043,0.1555369 -0.1356424,0.2333053 -0.00361,0.025321 -0.00725,0.05064 -0.010857,0.07596 0.01265,0.016276 0.025321,0.032554 0.037981,0.048831 0.014468,-0.014468 0.028936,-0.028937 0.043405,-0.043406 z" />
    <path
       style="fill:#ffcc5d;fill-opacity:1;stroke:none;stroke-width:0.941187"
       d="m 4.9086412,5.3337688 c 0.045214,-0.03165 0.1356434,-0.094951 0.1745284,-0.1401631 0.038885,-0.045212 0.026224,-0.072345 0.00181,-0.083196 -0.024416,-0.010851 -0.060586,-0.00543 -0.096758,0.013564 -0.036172,0.01899 -0.072342,0.051543 -0.096476,0.085099 -0.024134,0.033556 -0.050017,0.1075129 -0.049009,0.1097797 0.00101,0.00227 0.00503,0.011322 0.012871,0.028944 0.00784,0.017622 0.00782,0.017622 0.053036,-0.014027 z"
       id="path73"
       inkscape:path-effect="#path-effect74"
       inkscape:original-d="m 4.8634275,5.3654185 c 0.090427,-0.0633 0.1808574,-0.1265999 0.2712848,-0.1898999 -0.01265,-0.027129 -0.025321,-0.054257 -0.037978,-0.081386 -0.036173,0.00543 -0.072343,0.010852 -0.108514,0.016276 -0.036173,0.032555 -0.072343,0.065108 -0.1085164,0.097663 -0.01265,0.034363 -0.050639,0.1428768 -0.037978,0.108514 0,0.00543 0,0.016276 0.021715,0.048832 z" />
  </g>
</svg>
