<?xml version="1.0" encoding="UTF-8" standalone="no"?>
<!-- Created with Inkscape (http://www.inkscape.org/) -->

<svg
   width="64.000008"
   height="64.000008"
   viewBox="0 0 16.933335 16.933335"
   version="1.1"
   id="svg1"
   inkscape:version="1.3.2 (091e20e, 2023-11-25, custom)"
   sodipodi:docname="Daffodil_Scene.svg"
   xmlns:inkscape="http://www.inkscape.org/namespaces/inkscape"
   xmlns:sodipodi="http://sodipodi.sourceforge.net/DTD/sodipodi-0.dtd"
   xmlns="http://www.w3.org/2000/svg"
   xmlns:svg="http://www.w3.org/2000/svg">
  <sodipodi:namedview
     id="namedview1"
     pagecolor="#ffffff"
     bordercolor="#000000"
     borderopacity="0.25"
     inkscape:showpageshadow="2"
     inkscape:pageopacity="0.0"
     inkscape:pagecheckerboard="0"
     inkscape:deskcolor="#d1d1d1"
     inkscape:document-units="mm"
     showgrid="true"
     inkscape:zoom="4.0567374"
     inkscape:cx="67.788465"
     inkscape:cy="40.549827"
     inkscape:window-width="1920"
     inkscape:window-height="1001"
     inkscape:window-x="-7"
     inkscape:window-y="-7"
     inkscape:window-maximized="1"
     inkscape:current-layer="layer1">
    <inkscape:grid
       id="grid1"
       units="px"
       originx="-16.945568"
       originy="-11.801772"
       spacingx="8.4666666"
       spacingy="8.4666666"
       empcolor="#0099e5"
       empopacity="0.30196078"
       color="#0099e5"
       opacity="0.14901961"
       empspacing="5"
       dotted="false"
       gridanglex="30"
       gridanglez="30"
       visible="true" />
  </sodipodi:namedview>
  <defs
     id="defs1">
    <inkscape:path-effect
       effect="bspline"
       id="path-effect85"
       is_visible="true"
       lpeversion="1.3"
       weight="33.333333"
       steps="2"
       helper_size="0"
       apply_no_weight="true"
       apply_with_weight="true"
       only_selected="false"
       uniform="false" />
    <inkscape:path-effect
       effect="bspline"
       id="path-effect84"
       is_visible="true"
       lpeversion="1.3"
       weight="33.333333"
       steps="2"
       helper_size="0"
       apply_no_weight="true"
       apply_with_weight="true"
       only_selected="false"
       uniform="false" />
    <inkscape:path-effect
       effect="bspline"
       id="path-effect83"
       is_visible="true"
       lpeversion="1.3"
       weight="33.333333"
       steps="2"
       helper_size="0"
       apply_no_weight="true"
       apply_with_weight="true"
       only_selected="false"
       uniform="false" />
    <inkscape:path-effect
       effect="bspline"
       id="path-effect82"
       is_visible="true"
       lpeversion="1.3"
       weight="33.333333"
       steps="2"
       helper_size="0"
       apply_no_weight="true"
       apply_with_weight="true"
       only_selected="false"
       uniform="false" />
    <inkscape:path-effect
       effect="bspline"
       id="path-effect81"
       is_visible="true"
       lpeversion="1.3"
       weight="33.333333"
       steps="2"
       helper_size="0"
       apply_no_weight="true"
       apply_with_weight="true"
       only_selected="false"
       uniform="false" />
    <inkscape:path-effect
       effect="bspline"
       id="path-effect80"
       is_visible="true"
       lpeversion="1.3"
       weight="33.333333"
       steps="2"
       helper_size="0"
       apply_no_weight="true"
       apply_with_weight="true"
       only_selected="false"
       uniform="false" />
    <inkscape:path-effect
       effect="bspline"
       id="path-effect79"
       is_visible="true"
       lpeversion="1.3"
       weight="33.333333"
       steps="2"
       helper_size="0"
       apply_no_weight="true"
       apply_with_weight="true"
       only_selected="false"
       uniform="false" />
    <inkscape:path-effect
       effect="bspline"
       id="path-effect78"
       is_visible="true"
       lpeversion="1.3"
       weight="33.333333"
       steps="2"
       helper_size="0"
       apply_no_weight="true"
       apply_with_weight="true"
       only_selected="false"
       uniform="false" />
    <inkscape:path-effect
       effect="bspline"
       id="path-effect76"
       is_visible="true"
       lpeversion="1.3"
       weight="33.333333"
       steps="2"
       helper_size="0"
       apply_no_weight="true"
       apply_with_weight="true"
       only_selected="false"
       uniform="false" />
  </defs>
  <g
     inkscape:groupmode="layer"
     id="g32"
     inkscape:label="Layer 2"
     transform="translate(-8.478902,-11.801772)">
    <rect
       style="fill:none;fill-opacity:0.921569;stroke:none;stroke-width:4.36359"
       id="rect225"
       width="15.937428"
       height="15.937428"
       x="7.7312517"
       y="11.356647"
       transform="matrix(1.0624885,0,0,1.0624885,0.26453492,-0.26453461)" />
    <path
       style="fill:none;fill-opacity:1;stroke:#457b47;stroke-width:0.5;stroke-dasharray:none"
       d="m 16.252588,21.537112 c 0.153727,-0.906988 0.307454,-1.813975 0.345885,-2.582615 0.03843,-0.768639 -0.03843,-1.398907 -0.276712,-1.929268 C 16.083481,16.494867 15.6838,16.064441 15.45321,15.841537 15.222621,15.618633 15.161131,15.60326 15.099638,15.587886"
       id="path75"
       inkscape:path-effect="#path-effect76"
       inkscape:original-d="m 16.252588,21.537112 c 0.153727,-0.906988 0.307454,-1.813975 0.461181,-2.720963 -0.07686,-0.630292 -0.153727,-1.260559 -0.230591,-1.890838 -0.399697,-0.430444 -0.799378,-0.86087 -1.199068,-1.291305 -0.06149,-0.01537 -0.122981,-0.03074 -0.184472,-0.04612"
       transform="translate(1.6602485,2.9515528)" />
    <path
       style="fill:#86a336;fill-opacity:1;stroke:#457b47;stroke-width:1"
       d="m 15.672271,16.610171 c -0.103765,0.02306 -0.211374,-0.01537 -0.342044,-0.138356 -0.13067,-0.122984 -0.284393,-0.33051 -0.253646,-0.55726 0.03075,-0.226749 0.245961,-0.472707 0.426591,-0.553413 0.18063,-0.08071 0.326668,0.0038 0.430434,0.149884 0.103766,0.146042 0.165255,0.35357 0.165255,0.514984 -1e-6,0.161414 -0.06149,0.276708 -0.142196,0.37663 -0.08071,0.09992 -0.180629,0.184472 -0.284394,0.207531 z"
       id="path76"
       inkscape:path-effect="#path-effect78"
       inkscape:original-d="m 15.676113,16.671662 c -0.107608,-0.03843 -0.215217,-0.07686 -0.322826,-0.115296 -0.15373,-0.207535 -0.307453,-0.415061 -0.46118,-0.622593 0.215222,-0.245967 0.430435,-0.491925 0.645652,-0.737888 0.146044,0.08455 0.292081,0.169099 0.438121,0.253649 0.06149,0.207535 0.122982,0.415062 0.184472,0.622593 -0.06149,0.115298 -0.122981,0.230591 -0.184472,0.345886 -0.09992,0.08455 -0.199844,0.169099 -0.299767,0.253649 z"
       transform="translate(1.1068323,2.3981367)" />
    <path
       style="fill:#ffcc5d;fill-opacity:1;stroke:none;stroke-width:1"
       d="m 15.349444,16.471816 c -0.119138,-0.06149 -0.357415,-0.184472 -0.691775,-0.318984 -0.33436,-0.134512 -0.764786,-0.28055 -1.126047,-0.357413 -0.36126,-0.07686 -0.653335,-0.08455 -0.883927,0.0077 -0.230591,0.09224 -0.399688,0.284393 -0.403529,0.522672 -0.0038,0.238279 0.157568,0.522668 0.368945,0.687924 0.211377,0.165257 0.472708,0.211374 0.857029,0.219059 0.384322,0.0077 0.89161,-0.02306 1.210594,-0.06918 0.318983,-0.04612 0.449649,-0.107609 0.549572,-0.21522 0.09992,-0.107611 0.169099,-0.261333 0.203687,-0.338197 0.03459,-0.07686 0.03459,-0.07686 -0.08455,-0.138349 z"
       id="path78"
       inkscape:path-effect="#path-effect79"
       inkscape:original-d="m 15.468582,16.533307 c -0.238276,-0.122981 -0.476553,-0.245962 -0.714829,-0.368944 -0.430444,-0.146043 -0.86087,-0.29208 -1.291304,-0.438121 -0.292087,-0.0077 -0.584162,-0.01537 -0.876243,-0.02306 -0.169102,0.192162 -0.338198,0.384317 -0.507298,0.576475 0.161417,0.2844 0.322826,0.568789 0.484239,0.853183 0.261341,0.04612 0.522671,0.09224 0.784007,0.138354 0.507308,-0.03075 1.014596,-0.06149 1.521894,-0.09224 0.13067,-0.06149 0.261335,-0.122981 0.392003,-0.184472 0.06918,-0.15373 0.138354,-0.307453 0.207531,-0.46118 z"
       transform="translate(1.1068323,2.3981367)" />
    <path
       style="fill:#ffcc5d;fill-opacity:1;stroke:none;stroke-width:1"
       d="m 16.19494,15.876126 c -0.01153,-0.05765 -0.03459,-0.172943 -0.19985,-0.511147 -0.16526,-0.338205 -0.472707,-0.899296 -0.680239,-1.372009 -0.207532,-0.472714 -0.315138,-0.857023 -0.184467,-1.022278 0.130672,-0.165256 0.499608,-0.111452 0.857026,0.05381 0.357418,0.165259 0.703297,0.441962 0.899299,0.722516 0.196002,0.280554 0.242119,0.564944 0.180627,0.853184 -0.06149,0.28824 -0.230589,0.580314 -0.357414,0.787846 -0.126825,0.207532 -0.211374,0.330512 -0.288239,0.407377 -0.07687,0.07686 -0.146038,0.107609 -0.180627,0.122982 -0.03459,0.01537 -0.03459,0.01537 -0.04612,-0.04228 z"
       id="path79"
       inkscape:path-effect="#path-effect80"
       inkscape:original-d="m 16.20647,15.933773 c -0.02306,-0.115295 -0.04612,-0.23059 -0.06918,-0.345885 -0.307459,-0.561114 -0.614906,-1.122205 -0.92236,-1.683307 -0.107611,-0.384325 -0.215217,-0.768634 -0.322826,-1.15295 0.368951,0.05381 0.737888,0.107608 1.106832,0.161413 0.345892,0.276713 0.691771,0.553416 1.037656,0.830124 0.04612,0.2844 0.09224,0.568789 0.138354,0.853183 -0.169103,0.292087 -0.338199,0.584161 -0.507298,0.876242 -0.08455,0.122984 -0.1691,0.245963 -0.25365,0.368944 -0.06918,0.03075 -0.138354,0.06149 -0.207531,0.09224 z"
       transform="translate(1.1068323,2.3981367)" />
    <path
       style="fill:#ffcc5d;fill-opacity:1;stroke:none;stroke-width:1"
       d="m 15.06505,16.152833 c -0.05765,-0.05765 -0.172943,-0.172942 -0.361261,-0.330514 -0.188318,-0.157572 -0.449648,-0.357412 -0.730202,-0.488081 -0.280554,-0.130668 -0.580315,-0.192157 -0.741729,-0.122978 -0.161414,0.06918 -0.184474,0.26902 0.03459,0.465023 0.219065,0.196003 0.680236,0.388158 1.014593,0.491924 0.334358,0.103767 0.541885,0.11914 0.661025,0.111451 0.119141,-0.0077 0.149881,-0.03843 0.165256,-0.0538 0.01538,-0.01537 0.01538,-0.01537 -0.04227,-0.07302 z"
       id="path80"
       inkscape:path-effect="#path-effect81"
       inkscape:original-d="m 15.122697,16.210481 c -0.115295,-0.115295 -0.23059,-0.23059 -0.345885,-0.345885 -0.261341,-0.199848 -0.522671,-0.399689 -0.784006,-0.599534 -0.299773,-0.06149 -0.599534,-0.122981 -0.899302,-0.184472 -0.02306,0.199849 -0.04612,0.39969 -0.06918,0.599534 0.461189,0.192162 0.92236,0.384317 1.38354,0.576476 0.207535,0.01537 0.415062,0.03074 0.622593,0.04612 0.03075,-0.03075 0.06149,-0.06149 0.09224,-0.09224 z"
       transform="translate(1.1068323,2.3981367)" />
    <path
       style="fill:#ffcc5d;fill-opacity:1;stroke:none;stroke-width:1"
       d="m 15.703015,15.780046 c -0.08839,-0.107608 -0.265178,-0.322825 -0.580322,-0.62644 -0.315145,-0.303614 -0.768629,-0.695609 -1.01075,-0.991535 -0.24212,-0.295926 -0.272866,-0.495766 -0.103764,-0.53804 0.169102,-0.04227 0.538039,0.07302 0.845495,0.230591 0.307456,0.157572 0.553413,0.357412 0.722514,0.607221 0.1691,0.24981 0.261334,0.54957 0.307452,0.730199 0.04612,0.180628 0.04612,0.24212 0.02306,0.338201 -0.02306,0.09608 -0.06918,0.226746 -0.09224,0.292079 -0.02306,0.06533 -0.02305,0.06533 -0.111448,-0.04228 z"
       id="path81"
       inkscape:path-effect="#path-effect82"
       inkscape:original-d="m 15.791408,15.887655 c -0.176786,-0.215217 -0.353571,-0.430434 -0.530357,-0.645652 -0.453503,-0.392011 -0.906987,-0.784006 -1.360481,-1.176009 -0.03075,-0.199849 -0.06149,-0.39969 -0.09224,-0.599534 0.368951,0.115297 0.737888,0.23059 1.106832,0.345885 0.245968,0.199848 0.491925,0.399689 0.737888,0.599534 0.09224,0.299773 0.184472,0.599534 0.276708,0.899301 0,0.06149 0,0.122982 0,0.184472 -0.04612,0.130671 -0.09224,0.261336 -0.138354,0.392003 z"
       transform="translate(1.1068323,2.3981367)" />
    <path
       style="fill:#ffcc5d;fill-opacity:1;stroke:none;stroke-width:1"
       d="m 15.264895,15.964519 c -0.08839,-0.03843 -0.265179,-0.115295 -0.480399,-0.295927 -0.21522,-0.180632 -0.468864,-0.465021 -0.672553,-0.710986 -0.20369,-0.245964 -0.357414,-0.453491 -0.242115,-0.484235 0.115299,-0.03074 0.499608,0.115294 0.810907,0.292081 0.311299,0.176788 0.549571,0.384315 0.691768,0.580319 0.142198,0.196003 0.188315,0.380472 0.169099,0.488081 -0.01922,0.107609 -0.103764,0.138355 -0.146039,0.153728 -0.04228,0.01537 -0.04228,0.01537 -0.130668,-0.02306 z"
       id="path82"
       inkscape:path-effect="#path-effect83"
       inkscape:original-d="m 15.353287,16.00295 c -0.176785,-0.07686 -0.353571,-0.153726 -0.530357,-0.23059 -0.253654,-0.2844 -0.507298,-0.568789 -0.760947,-0.853183 -0.15373,-0.207535 -0.307454,-0.415062 -0.46118,-0.622593 0.384324,0.146043 0.768633,0.292081 1.15295,0.438121 0.238281,0.207535 0.476553,0.415062 0.714829,0.622593 0.04612,0.184476 0.09224,0.368944 0.138354,0.553416 -0.08455,0.03075 -0.169099,0.06149 -0.253649,0.09224 z"
       transform="translate(1.0607143,2.4673137)" />
    <path
       style="fill:#ffec8c;fill-opacity:1;stroke:none;stroke-width:1"
       d="m 15.251935,15.625798 c -0.02174,-0.02717 -0.06522,-0.08153 -0.336979,-0.266322 -0.271758,-0.184795 -0.771773,-0.500022 -1.048962,-0.750036 -0.277188,-0.250015 -0.331538,-0.434804 -0.217399,-0.543505 0.114139,-0.108702 0.396757,-0.141311 0.668513,-0.07065 0.271755,0.07066 0.532633,0.244576 0.706555,0.407629 0.173922,0.163053 0.260882,0.315232 0.342409,0.489156 0.08153,0.173923 0.157616,0.369582 0.211966,0.500023 0.05435,0.130441 0.08696,0.195663 0.03261,0.228274 -0.05435,0.03261 -0.195661,0.03261 -0.266317,0.03261 -0.07066,0 -0.07065,-1e-6 -0.09239,-0.02718 z"
       id="path83"
       inkscape:path-effect="#path-effect84"
       inkscape:original-d="m 15.273675,15.652973 c -0.04348,-0.05435 -0.08696,-0.108702 -0.130441,-0.163052 -0.500036,-0.31524 -1.000051,-0.630467 -1.500077,-0.945701 -0.05435,-0.184795 -0.108701,-0.369584 -0.163052,-0.554376 0.282629,-0.03261 0.565247,-0.06522 0.84787,-0.09783 0.260888,0.173926 0.521766,0.347844 0.782648,0.521766 0.08696,0.152185 0.173922,0.304363 0.260883,0.456545 0.07609,0.195666 0.152182,0.391324 0.228273,0.586986 0.03261,0.06522 0.06522,0.130442 0.09783,0.195663 -0.141314,0 -0.282623,0 -0.423935,0 z"
       transform="translate(1.0090012,2.6590196)" />
    <path
       style="fill:#f99523;fill-opacity:1;stroke:none;stroke-width:1"
       d="m 13.382274,14.54422 c 0.04891,0.03261 0.146747,0.09783 0.220122,0.108701 0.07337,0.01087 0.122286,-0.03261 0.165768,-0.07609 0.04348,-0.04348 0.08152,-0.08696 0.154899,-0.1087 0.07337,-0.02174 0.182075,-0.02174 0.228272,-0.07881 0.0462,-0.05707 0.02989,-0.171203 0.03261,-0.244576 0.0027,-0.07337 0.02446,-0.105983 -0.07609,-0.157617 -0.100552,-0.05163 -0.323384,-0.122287 -0.470132,-0.0788 -0.146748,0.04348 -0.217402,0.201096 -0.255429,0.282604 -0.03803,0.08151 -0.0435,0.08698 -0.04622,0.127743 -0.0027,0.04077 -0.0027,0.116857 -0.0027,0.154902 0,0.03805 10e-6,0.03804 0.04893,0.07065 z"
       id="path84"
       inkscape:path-effect="#path-effect85"
       inkscape:original-d="m 13.333359,14.51161 c 0.09783,0.06522 0.195662,0.130442 0.293493,0.195662 0.04892,-0.04348 0.09783,-0.08696 0.146747,-0.130441 0.03805,-0.04348 0.07609,-0.08696 0.114136,-0.130442 0.108703,0 0.217403,0 0.326104,0 -0.01631,-0.114138 -0.03261,-0.228272 -0.04892,-0.342408 0.02174,-0.03261 0.04348,-0.06522 0.06522,-0.09783 -0.222842,-0.07066 -0.445675,-0.141311 -0.668513,-0.211967 -0.07066,0.15762 -0.141311,0.315234 -0.211967,0.47285 -0.0054,0.0054 -0.01087,0.01087 -0.01631,0.01631 0,0.07609 0,0.152182 0,0.228273 z"
       transform="translate(1.0416116,2.4633574)" />
  </g>
</svg>
