<?xml version="1.0" encoding="UTF-8" standalone="no"?>
<!-- Created with Inkscape (http://www.inkscape.org/) -->

<svg
   width="1920"
   height="1080"
   viewBox="0 0 507.99999 285.75"
   version="1.1"
   id="svg1"
   inkscape:version="1.3.2 (091e20e, 2023-11-25, custom)"
   sodipodi:docname="Daisy_Blue_Scene.svg"
   xmlns:inkscape="http://www.inkscape.org/namespaces/inkscape"
   xmlns:sodipodi="http://sodipodi.sourceforge.net/DTD/sodipodi-0.dtd"
   xmlns="http://www.w3.org/2000/svg"
   xmlns:svg="http://www.w3.org/2000/svg">
  <sodipodi:namedview
     id="namedview1"
     pagecolor="#ffffff"
     bordercolor="#000000"
     borderopacity="0.25"
     inkscape:showpageshadow="2"
     inkscape:pageopacity="0.0"
     inkscape:pagecheckerboard="0"
     inkscape:deskcolor="#d1d1d1"
     inkscape:document-units="mm"
     showgrid="true"
     inkscape:zoom="5.7370931"
     inkscape:cx="63.708222"
     inkscape:cy="47.149313"
     inkscape:window-width="1920"
     inkscape:window-height="1001"
     inkscape:window-x="-7"
     inkscape:window-y="-7"
     inkscape:window-maximized="1"
     inkscape:current-layer="g32">
    <inkscape:grid
       id="grid1"
       units="px"
       originx="0"
       originy="0"
       spacingx="8.4666666"
       spacingy="8.4666666"
       empcolor="#0099e5"
       empopacity="0.30196078"
       color="#0099e5"
       opacity="0.14901961"
       empspacing="5"
       dotted="false"
       gridanglex="30"
       gridanglez="30"
       visible="true" />
  </sodipodi:namedview>
  <defs
     id="defs1">
    <inkscape:path-effect
       effect="bspline"
       id="path-effect64"
       is_visible="true"
       lpeversion="1.3"
       weight="33.333333"
       steps="2"
       helper_size="0"
       apply_no_weight="true"
       apply_with_weight="true"
       only_selected="false"
       uniform="false" />
    <inkscape:path-effect
       effect="bspline"
       id="path-effect62"
       is_visible="true"
       lpeversion="1.3"
       weight="33.333333"
       steps="2"
       helper_size="0"
       apply_no_weight="true"
       apply_with_weight="true"
       only_selected="false"
       uniform="false" />
    <inkscape:path-effect
       effect="bspline"
       id="path-effect60"
       is_visible="true"
       lpeversion="1.3"
       weight="33.333333"
       steps="2"
       helper_size="0"
       apply_no_weight="true"
       apply_with_weight="true"
       only_selected="false"
       uniform="false" />
    <inkscape:path-effect
       effect="bspline"
       id="path-effect58"
       is_visible="true"
       lpeversion="1.3"
       weight="33.333333"
       steps="2"
       helper_size="0"
       apply_no_weight="true"
       apply_with_weight="true"
       only_selected="false"
       uniform="false" />
    <inkscape:path-effect
       effect="bspline"
       id="path-effect54"
       is_visible="true"
       lpeversion="1.3"
       weight="33.333333"
       steps="2"
       helper_size="0"
       apply_no_weight="true"
       apply_with_weight="true"
       only_selected="false"
       uniform="false" />
    <inkscape:path-effect
       effect="bspline"
       id="path-effect52"
       is_visible="true"
       lpeversion="1.3"
       weight="33.333333"
       steps="2"
       helper_size="0"
       apply_no_weight="true"
       apply_with_weight="true"
       only_selected="false"
       uniform="false" />
    <inkscape:path-effect
       effect="bspline"
       id="path-effect49"
       is_visible="true"
       lpeversion="1.3"
       weight="33.333333"
       steps="2"
       helper_size="0"
       apply_no_weight="true"
       apply_with_weight="true"
       only_selected="false"
       uniform="false" />
    <inkscape:path-effect
       effect="bspline"
       id="path-effect46"
       is_visible="true"
       lpeversion="1.3"
       weight="33.333333"
       steps="2"
       helper_size="0"
       apply_no_weight="true"
       apply_with_weight="true"
       only_selected="false"
       uniform="false" />
    <inkscape:path-effect
       effect="bspline"
       id="path-effect42"
       is_visible="true"
       lpeversion="1.3"
       weight="33.333333"
       steps="2"
       helper_size="0"
       apply_no_weight="true"
       apply_with_weight="true"
       only_selected="false"
       uniform="false" />
    <inkscape:path-effect
       effect="bspline"
       id="path-effect40"
       is_visible="true"
       lpeversion="1.3"
       weight="33.333333"
       steps="2"
       helper_size="0"
       apply_no_weight="true"
       apply_with_weight="true"
       only_selected="false"
       uniform="false" />
    <inkscape:path-effect
       effect="bspline"
       id="path-effect38"
       is_visible="true"
       lpeversion="1.3"
       weight="33.333333"
       steps="2"
       helper_size="0"
       apply_no_weight="true"
       apply_with_weight="true"
       only_selected="false"
       uniform="false" />
    <inkscape:path-effect
       effect="bspline"
       id="path-effect34"
       is_visible="true"
       lpeversion="1.3"
       weight="33.333333"
       steps="2"
       helper_size="0"
       apply_no_weight="true"
       apply_with_weight="true"
       only_selected="false"
       uniform="false" />
    <inkscape:path-effect
       effect="bspline"
       id="path-effect33"
       is_visible="true"
       lpeversion="1.3"
       weight="33.333333"
       steps="2"
       helper_size="0"
       apply_no_weight="true"
       apply_with_weight="true"
       only_selected="false"
       uniform="false" />
    <inkscape:path-effect
       effect="bspline"
       id="path-effect31"
       is_visible="true"
       lpeversion="1.3"
       weight="33.333333"
       steps="2"
       helper_size="0"
       apply_no_weight="true"
       apply_with_weight="true"
       only_selected="false"
       uniform="false" />
    <inkscape:path-effect
       effect="bspline"
       id="path-effect29"
       is_visible="true"
       lpeversion="1.3"
       weight="33.333333"
       steps="2"
       helper_size="0"
       apply_no_weight="true"
       apply_with_weight="true"
       only_selected="false"
       uniform="false" />
    <inkscape:path-effect
       effect="bspline"
       id="path-effect27"
       is_visible="true"
       lpeversion="1.3"
       weight="33.333333"
       steps="2"
       helper_size="0"
       apply_no_weight="true"
       apply_with_weight="true"
       only_selected="false"
       uniform="false" />
    <inkscape:path-effect
       effect="bspline"
       id="path-effect25"
       is_visible="true"
       lpeversion="1.3"
       weight="33.333333"
       steps="2"
       helper_size="0"
       apply_no_weight="true"
       apply_with_weight="true"
       only_selected="false"
       uniform="false" />
    <inkscape:path-effect
       effect="bspline"
       id="path-effect22"
       is_visible="true"
       lpeversion="1.3"
       weight="33.333333"
       steps="2"
       helper_size="0"
       apply_no_weight="true"
       apply_with_weight="true"
       only_selected="false"
       uniform="false" />
    <inkscape:path-effect
       effect="bspline"
       id="path-effect15"
       is_visible="true"
       lpeversion="1.3"
       weight="33.333333"
       steps="2"
       helper_size="0"
       apply_no_weight="true"
       apply_with_weight="true"
       only_selected="false"
       uniform="false" />
    <inkscape:path-effect
       effect="bspline"
       id="path-effect10"
       is_visible="true"
       lpeversion="1.3"
       weight="33.333333"
       steps="2"
       helper_size="0"
       apply_no_weight="true"
       apply_with_weight="true"
       only_selected="false"
       uniform="false" />
    <inkscape:path-effect
       effect="copy_rotate"
       starting_point="0,0"
       origin="12.860508,4.7163044"
       id="path-effect7"
       is_visible="true"
       lpeversion="1.2"
       lpesatellites=""
       method="normal"
       num_copies="3"
       starting_angle="0"
       rotation_angle="120"
       gap="-0.01"
       copies_to_360="true"
       mirror_copies="false"
       split_items="false"
       link_styles="false" />
    <inkscape:path-effect
       effect="bspline"
       id="path-effect5"
       is_visible="true"
       lpeversion="1.3"
       weight="33.333333"
       steps="2"
       helper_size="0"
       apply_no_weight="true"
       apply_with_weight="true"
       only_selected="false"
       uniform="false" />
    <inkscape:path-effect
       effect="bspline"
       id="path-effect4"
       is_visible="true"
       lpeversion="1.3"
       weight="33.333333"
       steps="2"
       helper_size="0"
       apply_no_weight="true"
       apply_with_weight="true"
       only_selected="false"
       uniform="false" />
    <inkscape:path-effect
       effect="bspline"
       id="path-effect1"
       is_visible="true"
       lpeversion="1.3"
       weight="33.333333"
       steps="2"
       helper_size="0"
       apply_no_weight="true"
       apply_with_weight="true"
       only_selected="false"
       uniform="false" />
    <inkscape:path-effect
       effect="copy_rotate"
       starting_point="0,0"
       origin="12.591473,5.1569785"
       id="path-effect50"
       is_visible="true"
       lpeversion="1.2"
       lpesatellites=""
       method="normal"
       num_copies="7"
       starting_angle="0.5"
       rotation_angle="51.428571"
       gap="-0.01"
       copies_to_360="true"
       mirror_copies="false"
       split_items="false"
       link_styles="false" />
    <inkscape:path-effect
       effect="copy_rotate"
       starting_point="0,0"
       origin="12.591473,5.1569785"
       id="path-effect48"
       is_visible="true"
       lpeversion="1.2"
       lpesatellites=""
       method="normal"
       num_copies="7"
       starting_angle="0.5"
       rotation_angle="51.428571"
       gap="-0.01"
       copies_to_360="true"
       mirror_copies="false"
       split_items="false"
       link_styles="false" />
    <inkscape:path-effect
       effect="copy_rotate"
       starting_point="0,0"
       origin="12.591473,5.1569785"
       id="path-effect37"
       is_visible="true"
       lpeversion="1.2"
       lpesatellites=""
       method="normal"
       num_copies="5"
       starting_angle="0.5"
       rotation_angle="72"
       gap="-0.01"
       copies_to_360="true"
       mirror_copies="false"
       split_items="false"
       link_styles="false" />
    <inkscape:path-effect
       effect="mirror_symmetry"
       start_point="13.072523,4.7620435"
       end_point="13.072523,5.5519136"
       center_point="13.072523,5.1569785"
       id="path-effect36"
       is_visible="true"
       lpeversion="1.2"
       lpesatellites=""
       mode="free"
       discard_orig_path="false"
       fuse_paths="false"
       oposite_fuse="false"
       split_items="false"
       split_open="false"
       link_styles="false" />
    <inkscape:path-effect
       effect="copy_rotate"
       starting_point="0,0"
       origin="20.744992,19.646596"
       id="path-effect23"
       is_visible="true"
       lpeversion="1.2"
       lpesatellites=""
       method="normal"
       num_copies="12"
       starting_angle="0"
       rotation_angle="30"
       gap="-0.01"
       copies_to_360="true"
       mirror_copies="false"
       split_items="false"
       link_styles="false" />
    <inkscape:path-effect
       effect="copy_rotate"
       starting_point="0,0"
       origin="20.744992,19.646596"
       id="path-effect21"
       is_visible="true"
       lpeversion="1.2"
       lpesatellites=""
       method="normal"
       num_copies="12"
       starting_angle="0"
       rotation_angle="30"
       gap="-0.01"
       copies_to_360="true"
       mirror_copies="false"
       split_items="false"
       link_styles="false" />
    <inkscape:path-effect
       effect="bspline"
       id="path-effect20"
       is_visible="true"
       lpeversion="1.3"
       weight="33.333333"
       steps="2"
       helper_size="0"
       apply_no_weight="true"
       apply_with_weight="true"
       only_selected="false"
       uniform="false" />
    <inkscape:path-effect
       effect="bspline"
       id="path-effect19"
       is_visible="true"
       lpeversion="1.3"
       weight="33.333333"
       steps="2"
       helper_size="0"
       apply_no_weight="true"
       apply_with_weight="true"
       only_selected="false"
       uniform="false" />
    <inkscape:path-effect
       effect="bspline"
       id="path-effect17"
       is_visible="true"
       lpeversion="1.3"
       weight="33.333333"
       steps="2"
       helper_size="0"
       apply_no_weight="true"
       apply_with_weight="true"
       only_selected="false"
       uniform="false" />
    <inkscape:path-effect
       effect="bspline"
       id="path-effect14"
       is_visible="true"
       lpeversion="1.3"
       weight="33.333333"
       steps="2"
       helper_size="0"
       apply_no_weight="true"
       apply_with_weight="true"
       only_selected="false"
       uniform="false" />
    <inkscape:path-effect
       effect="bspline"
       id="path-effect13"
       is_visible="true"
       lpeversion="1.3"
       weight="33.333333"
       steps="2"
       helper_size="0"
       apply_no_weight="true"
       apply_with_weight="true"
       only_selected="false"
       uniform="false" />
    <inkscape:path-effect
       effect="bspline"
       id="path-effect12"
       is_visible="true"
       lpeversion="1.3"
       weight="33.333333"
       steps="2"
       helper_size="0"
       apply_no_weight="true"
       apply_with_weight="true"
       only_selected="false"
       uniform="false" />
    <inkscape:path-effect
       effect="bspline"
       id="path-effect9"
       is_visible="true"
       lpeversion="1.3"
       weight="33.333333"
       steps="2"
       helper_size="0"
       apply_no_weight="true"
       apply_with_weight="true"
       only_selected="false"
       uniform="false" />
    <inkscape:path-effect
       effect="bspline"
       id="path-effect6"
       is_visible="true"
       lpeversion="1.3"
       weight="33.333333"
       steps="2"
       helper_size="0"
       apply_no_weight="true"
       apply_with_weight="true"
       only_selected="false"
       uniform="false" />
    <inkscape:path-effect
       effect="bspline"
       id="path-effect3"
       is_visible="true"
       lpeversion="1.3"
       weight="33.333333"
       steps="2"
       helper_size="0"
       apply_no_weight="true"
       apply_with_weight="true"
       only_selected="false"
       uniform="false" />
    <inkscape:path-effect
       effect="copy_rotate"
       starting_point="0,0"
       origin="12.591473,5.1569785"
       id="path-effect37-1"
       is_visible="true"
       lpeversion="1.2"
       lpesatellites=""
       method="normal"
       num_copies="5"
       starting_angle="0.5"
       rotation_angle="72"
       gap="-0.01"
       copies_to_360="true"
       mirror_copies="false"
       split_items="false"
       link_styles="false" />
  </defs>
  <g
     inkscape:label="Layer 1"
     inkscape:groupmode="layer"
     id="g2"
     transform="matrix(-1.0624885,0,0,1.0624885,8.7312013,-0.26453461)">
    <rect
       style="fill:#bdca31;fill-opacity:0;stroke:none;stroke-width:0.497953"
       id="rect2"
       width="7.9687138"
       height="7.9687138"
       x="0.24897645"
       y="0.24897645"
       inkscape:export-filename="Daisy"
       inkscape:export-xdpi="44.636486"
       inkscape:export-ydpi="44.636486" />
    <rect
       style="fill:#86a336;fill-opacity:0.919231;stroke:none;stroke-width:0.210584"
       id="rect3"
       width="0.3471972"
       height="1.3581307"
       x="3.8451488"
       y="6.3561406" />
    <ellipse
       style="fill:#6e9202;fill-opacity:1;stroke:none;stroke-width:0.114214;stroke-dasharray:none"
       id="path30"
       cx="-6.0063004"
       cy="4.3982549"
       transform="matrix(-0.93387829,-0.35759103,-0.35759103,0.93387829,0,0)"
       rx="0.20410903"
       ry="0.38846555" />
  </g>
  <g
     inkscape:groupmode="layer"
     id="layer1"
     inkscape:label="Layer 2">
    <rect
       style="fill:#bdca31;fill-opacity:0;stroke:none;stroke-width:0.497953"
       id="rect27"
       width="7.9687138"
       height="7.9687138"
       x="-7.7197375"
       y="0.24897645"
       inkscape:export-filename="Dandelion.svg"
       inkscape:export-xdpi="44.636486"
       inkscape:export-ydpi="44.636486"
       transform="matrix(-1.0624885,0,0,1.0624885,8.7312013,-0.26453461)" />
    <rect
       style="fill:#86a336;fill-opacity:0.919231;stroke:none;stroke-width:0.210584"
       id="rect28"
       width="0.3471972"
       height="1.3581307"
       x="-4.1235647"
       y="6.3561406"
       transform="matrix(-1.0624885,0,0,1.0624885,8.7312013,-0.26453461)" />
    <ellipse
       style="fill:#6e9202;fill-opacity:1;stroke:none;stroke-width:0.102492;stroke-dasharray:none"
       id="ellipse30"
       cx="1.4041964"
       cy="7.1602774"
       transform="matrix(0.99223494,-0.37993635,0.37993635,0.99223494,8.7312013,-0.26453461)"
       rx="0.18316031"
       ry="0.34859541" />
    <ellipse
       style="fill:#6e9202;fill-opacity:1;stroke:none;stroke-width:0.108897;stroke-dasharray:none"
       id="ellipse1"
       cx="18.065662"
       cy="12.588187"
       transform="rotate(-20.952326)"
       rx="0.19460572"
       ry="0.37037861" />
    <ellipse
       style="fill:#6e9202;fill-opacity:1;stroke:none;stroke-width:0.108897;stroke-dasharray:none"
       id="ellipse15"
       cx="25.997169"
       cy="15.798079"
       transform="rotate(-20.952326)"
       rx="0.19460572"
       ry="0.37037861" />
  </g>
  <g
     inkscape:label="Layer 1"
     inkscape:groupmode="layer"
     id="g16"
     transform="matrix(-1.0624885,0,0,1.0624885,51.064535,-0.26453461)">
    <rect
       style="fill:#457b47;fill-opacity:0;stroke:none;stroke-width:0.0941633;stroke-dasharray:none"
       id="rect25"
       width="15.937428"
       height="15.937428"
       x="-32.123833"
       y="16.186403"
       transform="scale(-1,1)"
       inkscape:export-filename="Rose_Full.svg"
       inkscape:export-xdpi="44.636486"
       inkscape:export-ydpi="44.636486" />
    <rect
       style="fill:#457b47;fill-opacity:1;stroke:none;stroke-width:0.0941187;stroke-dasharray:none"
       id="rect23"
       width="0.39900166"
       height="6.6295662"
       x="-32.859371"
       y="6.9740043"
       transform="matrix(-0.8660254,-0.5,-0.5,0.8660254,0,0)" />
  </g>
  <g
     inkscape:groupmode="layer"
     id="g32"
     inkscape:label="Layer 2"
     transform="translate(8.4666664)">
    <rect
       style="fill:#bdca31;fill-opacity:0;stroke:none;stroke-width:0.497953"
       id="rect30"
       width="7.9687138"
       height="7.9687138"
       x="-7.7197375"
       y="0.24897645"
       inkscape:export-filename="Dandelion.svg"
       inkscape:export-xdpi="44.636486"
       inkscape:export-ydpi="44.636486"
       transform="matrix(-1.0624885,0,0,1.0624885,8.7312013,-0.26453461)" />
    <rect
       style="fill:#86a336;fill-opacity:0.919231;stroke:none;stroke-width:0.296104"
       id="rect31"
       width="0.36889303"
       height="2.5272927"
       x="-13.112441"
       y="5.4044971"
       transform="scale(-1,1)" />
    <rect
       style="fill:#bdca31;fill-opacity:0;stroke:none;stroke-width:0.529069"
       id="rect42"
       width="8.4666672"
       height="8.4666672"
       x="-25.4"
       y="9.2932053e-09"
       inkscape:export-filename="Dandelion.svg"
       inkscape:export-xdpi="44.636486"
       inkscape:export-ydpi="44.636486"
       transform="scale(-1,1)" />
    <rect
       style="fill:#86a336;fill-opacity:0.919231;stroke:none;stroke-width:0.296104"
       id="rect43"
       width="0.36889303"
       height="2.5272927"
       x="-21.579107"
       y="5.4044971"
       transform="scale(-1,1)" />
    <path
       style="fill:#363db6;stroke:none;stroke-width:1"
       d="m 4.1523745,5.9261649 c -0.00961,0.046118 -0.00192,0.080706 0.034589,0.1537274 0.036511,0.073021 0.1018434,0.1844711 0.1575699,0.1959996 0.055726,0.011528 0.1018435,-0.076862 0.1287456,-0.155648 0.026902,-0.078786 0.034588,-0.1479613 0.06149,-0.1902363 0.026902,-0.042275 0.07302,-0.057647 0.03843,-0.1076095 -0.03459,-0.049962 -0.1498825,-0.13451 -0.222903,-0.149882 -0.073021,-0.015372 -0.1037652,0.038431 -0.132589,0.094158 -0.028824,0.055726 -0.055725,0.1133729 -0.065333,0.1594911 z"
       id="path1"
       inkscape:path-effect="#path-effect1"
       inkscape:original-d="m 4.1350804,5.9376942 c 0.00769,0.034588 0.015372,0.069177 0.023059,0.1037653 0.065335,0.1114541 0.1306679,0.2229038 0.1960017,0.3343558 0.046119,-0.088395 0.092236,-0.1767858 0.1383541,-0.2651786 0.00769,-0.069178 0.015372,-0.1383541 0.023058,-0.2075313 0.046119,-0.015372 0.092236,-0.030745 0.1383541,-0.046118 C 4.5386097,5.7724362 4.423317,5.6878881 4.3080219,5.6033386 4.277276,5.657144 4.2465314,5.7109473 4.215786,5.7647516 4.1888832,5.8224001 4.1619817,5.8800465 4.1350804,5.9376942 Z" />
    <path
       style="fill:#363db6;stroke:none;stroke-width:1"
       d="m 12.860508,5.0518885 c 0,-0.019022 0,-0.057068 0.0027,-0.1847941 0.0027,-0.1277256 0.0082,-0.3451244 0.0761,-0.4402378 0.06794,-0.095113 0.198379,-0.067939 0.2636,0.016306 0.06522,0.084245 0.06522,0.2255536 0.03805,0.3179496 -0.02718,0.092396 -0.08153,0.1358764 -0.149466,0.1793578 -0.06794,0.043482 -0.149462,0.08696 -0.190226,0.1087002 -0.04076,0.02174 -0.04077,0.021741 -0.04077,0.00272 z"
       id="path4"
       inkscape:original-d="m 12.860508,5.070911 c 0,-0.038045 0,-0.076091 0,-0.1141365 0.0054,-0.2174066 0.01087,-0.4348046 0.01631,-0.6522072 0.130444,0.027176 0.260883,0.054351 0.391324,0.081526 0,0.1413142 0,0.2826231 0,0.4239347 -0.05435,0.043481 -0.108701,0.086961 -0.163052,0.1304414 -0.08153,0.043481 -0.163051,0.086961 -0.244578,0.1304415 z"
       inkscape:path-effect="#path-effect5" />
    <path
       style="fill:#363db6;stroke:none;stroke-width:1"
       d="m 12.860508,5.0518885 c 0,-0.019022 0,-0.057068 0.0027,-0.1847941 0.0027,-0.1277256 0.0082,-0.3451244 0.0761,-0.4402378 0.06794,-0.095113 0.198379,-0.067939 0.2636,0.016306 0.06522,0.084245 0.06522,0.2255536 0.03805,0.3179496 -0.02718,0.092396 -0.08153,0.1358764 -0.149466,0.1793578 -0.06794,0.043482 -0.149462,0.08696 -0.190226,0.1087002 -0.04076,0.02174 -0.04077,0.021741 -0.04077,0.00272 z"
       id="path8"
       inkscape:original-d="m 12.860508,5.070911 c 0,-0.038045 0,-0.076091 0,-0.1141365 0.0054,-0.2174066 0.01087,-0.4348046 0.01631,-0.6522072 0.130444,0.027176 0.260883,0.054351 0.391324,0.081526 0,0.1413142 0,0.2826231 0,0.4239347 -0.05435,0.043481 -0.108701,0.086961 -0.163052,0.1304414 -0.08153,0.043481 -0.163051,0.086961 -0.244578,0.1304415 z"
       inkscape:path-effect="#path-effect10"
       transform="rotate(45,12.846301,5.092772)" />
    <path
       style="fill:#363db6;stroke:none;stroke-width:1"
       d="m 12.860508,5.0518885 c 0,-0.019022 0,-0.057068 0.0027,-0.1847941 0.0027,-0.1277256 0.0082,-0.3451244 0.0761,-0.4402378 0.06794,-0.095113 0.198379,-0.067939 0.2636,0.016306 0.06522,0.084245 0.06522,0.2255536 0.03805,0.3179496 -0.02718,0.092396 -0.08153,0.1358764 -0.149466,0.1793578 -0.06794,0.043482 -0.149462,0.08696 -0.190226,0.1087002 -0.04076,0.02174 -0.04077,0.021741 -0.04077,0.00272 z"
       id="path10"
       inkscape:original-d="m 12.860508,5.070911 c 0,-0.038045 0,-0.076091 0,-0.1141365 0.0054,-0.2174066 0.01087,-0.4348046 0.01631,-0.6522072 0.130444,0.027176 0.260883,0.054351 0.391324,0.081526 0,0.1413142 0,0.2826231 0,0.4239347 -0.05435,0.043481 -0.108701,0.086961 -0.163052,0.1304414 -0.08153,0.043481 -0.163051,0.086961 -0.244578,0.1304415 z"
       inkscape:path-effect="#path-effect15"
       transform="rotate(105,12.874487,5.0846868)" />
    <ellipse
       style="fill:#ffec8c;stroke:none;stroke-width:1"
       id="path15"
       cx="12.933883"
       cy="5.0790634"
       rx="0.13859402"
       ry="0.17120439" />
    <g
       id="g33"
       transform="matrix(1.3647872,0,0,1.3647872,-7.9041739,-2.0349974)">
      <path
         style="fill:#363db6;stroke:none;stroke-width:1"
         d="m 12.860508,5.0518885 c 0,-0.019022 0,-0.057068 0.0027,-0.1847941 0.0027,-0.1277256 0.0082,-0.3451244 0.0761,-0.4402378 0.06794,-0.095113 0.198379,-0.067939 0.2636,0.016306 0.06522,0.084245 0.06522,0.2255536 0.03805,0.3179496 -0.02718,0.092396 -0.08153,0.1358764 -0.149466,0.1793578 -0.06794,0.043482 -0.149462,0.08696 -0.190226,0.1087002 -0.04076,0.02174 -0.04077,0.021741 -0.04077,0.00272 z"
         id="path31"
         inkscape:original-d="m 12.860508,5.070911 c 0,-0.038045 0,-0.076091 0,-0.1141365 0.0054,-0.2174066 0.01087,-0.4348046 0.01631,-0.6522072 0.130444,0.027176 0.260883,0.054351 0.391324,0.081526 0,0.1413142 0,0.2826231 0,0.4239347 -0.05435,0.043481 -0.108701,0.086961 -0.163052,0.1304414 -0.08153,0.043481 -0.163051,0.086961 -0.244578,0.1304415 z"
         inkscape:path-effect="#path-effect33"
         transform="rotate(-61.06714,17.318473,-2.1249116)"
         inkscape:transform-center-x="0.16260441"
         inkscape:transform-center-y="-0.046519952" />
      <path
         style="fill:#363db6;stroke:none;stroke-width:1"
         d="m 12.860508,5.0518885 c 0,-0.019022 0,-0.057068 0.0027,-0.1847941 0.0027,-0.1277256 0.0082,-0.3451244 0.0761,-0.4402378 0.06794,-0.095113 0.198379,-0.067939 0.2636,0.016306 0.06522,0.084245 0.06522,0.2255536 0.03805,0.3179496 -0.02718,0.092396 -0.08153,0.1358764 -0.149466,0.1793578 -0.06794,0.043482 -0.149462,0.08696 -0.190226,0.1087002 -0.04076,0.02174 -0.04077,0.021741 -0.04077,0.00272 z"
         id="path16"
         inkscape:original-d="m 12.860508,5.070911 c 0,-0.038045 0,-0.076091 0,-0.1141365 0.0054,-0.2174066 0.01087,-0.4348046 0.01631,-0.6522072 0.130444,0.027176 0.260883,0.054351 0.391324,0.081526 0,0.1413142 0,0.2826231 0,0.4239347 -0.05435,0.043481 -0.108701,0.086961 -0.163052,0.1304414 -0.08153,0.043481 -0.163051,0.086961 -0.244578,0.1304415 z"
         inkscape:path-effect="#path-effect22"
         transform="translate(8.5548914,0.16141305)" />
      <path
         style="fill:#363db6;stroke:none;stroke-width:1"
         d="m 12.860508,5.0518885 c 0,-0.019022 0,-0.057068 0.0027,-0.1847941 0.0027,-0.1277256 0.0082,-0.3451244 0.0761,-0.4402378 0.06794,-0.095113 0.198379,-0.067939 0.2636,0.016306 0.06522,0.084245 0.06522,0.2255536 0.03805,0.3179496 -0.02718,0.092396 -0.08153,0.1358764 -0.149466,0.1793578 -0.06794,0.043482 -0.149462,0.08696 -0.190226,0.1087002 -0.04076,0.02174 -0.04077,0.021741 -0.04077,0.00272 z"
         id="path17"
         inkscape:original-d="m 12.860508,5.070911 c 0,-0.038045 0,-0.076091 0,-0.1141365 0.0054,-0.2174066 0.01087,-0.4348046 0.01631,-0.6522072 0.130444,0.027176 0.260883,0.054351 0.391324,0.081526 0,0.1413142 0,0.2826231 0,0.4239347 -0.05435,0.043481 -0.108701,0.086961 -0.163052,0.1304414 -0.08153,0.043481 -0.163051,0.086961 -0.244578,0.1304415 z"
         inkscape:path-effect="#path-effect25"
         transform="rotate(45,16.928904,15.500146)" />
      <path
         style="fill:#363db6;stroke:none;stroke-width:1"
         d="m 12.860508,5.0518885 c 0,-0.019022 0,-0.057068 0.0027,-0.1847941 0.0027,-0.1277256 0.0082,-0.3451244 0.0761,-0.4402378 0.06794,-0.095113 0.198379,-0.067939 0.2636,0.016306 0.06522,0.084245 0.06522,0.2255536 0.03805,0.3179496 -0.02718,0.092396 -0.08153,0.1358764 -0.149466,0.1793578 -0.06794,0.043482 -0.149462,0.08696 -0.190226,0.1087002 -0.04076,0.02174 -0.04077,0.021741 -0.04077,0.00272 z"
         id="path18"
         inkscape:original-d="m 12.860508,5.070911 c 0,-0.038045 0,-0.076091 0,-0.1141365 0.0054,-0.2174066 0.01087,-0.4348046 0.01631,-0.6522072 0.130444,0.027176 0.260883,0.054351 0.391324,0.081526 0,0.1413142 0,0.2826231 0,0.4239347 -0.05435,0.043481 -0.108701,0.086961 -0.163052,0.1304414 -0.08153,0.043481 -0.163051,0.086961 -0.244578,0.1304415 z"
         inkscape:path-effect="#path-effect27"
         transform="rotate(105,17.090004,8.4475928)" />
      <path
         style="fill:#363db6;stroke:none;stroke-width:1"
         d="m 12.860508,5.0518885 c 0,-0.019022 0,-0.057068 0.0027,-0.1847941 0.0027,-0.1277256 0.0082,-0.3451244 0.0761,-0.4402378 0.06794,-0.095113 0.198379,-0.067939 0.2636,0.016306 0.06522,0.084245 0.06522,0.2255536 0.03805,0.3179496 -0.02718,0.092396 -0.08153,0.1358764 -0.149466,0.1793578 -0.06794,0.043482 -0.149462,0.08696 -0.190226,0.1087002 -0.04076,0.02174 -0.04077,0.021741 -0.04077,0.00272 z"
         id="path27"
         inkscape:original-d="m 12.860508,5.070911 c 0,-0.038045 0,-0.076091 0,-0.1141365 0.0054,-0.2174066 0.01087,-0.4348046 0.01631,-0.6522072 0.130444,0.027176 0.260883,0.054351 0.391324,0.081526 0,0.1413142 0,0.2826231 0,0.4239347 -0.05435,0.043481 -0.108701,0.086961 -0.163052,0.1304414 -0.08153,0.043481 -0.163051,0.086961 -0.244578,0.1304415 z"
         inkscape:path-effect="#path-effect29"
         transform="rotate(165,17.198805,5.6964731)" />
      <path
         style="fill:#363db6;stroke:none;stroke-width:1"
         d="m 12.860508,5.0518885 c 0,-0.019022 0,-0.057068 0.0027,-0.1847941 0.0027,-0.1277256 0.0082,-0.3451244 0.0761,-0.4402378 0.06794,-0.095113 0.198379,-0.067939 0.2636,0.016306 0.06522,0.084245 0.06522,0.2255536 0.03805,0.3179496 -0.02718,0.092396 -0.08153,0.1358764 -0.149466,0.1793578 -0.06794,0.043482 -0.149462,0.08696 -0.190226,0.1087002 -0.04076,0.02174 -0.04077,0.021741 -0.04077,0.00272 z"
         id="path29"
         inkscape:original-d="m 12.860508,5.070911 c 0,-0.038045 0,-0.076091 0,-0.1141365 0.0054,-0.2174066 0.01087,-0.4348046 0.01631,-0.6522072 0.130444,0.027176 0.260883,0.054351 0.391324,0.081526 0,0.1413142 0,0.2826231 0,0.4239347 -0.05435,0.043481 -0.108701,0.086961 -0.163052,0.1304414 -0.08153,0.043481 -0.163051,0.086961 -0.244578,0.1304415 z"
         inkscape:path-effect="#path-effect31"
         transform="rotate(-121.06714,17.296353,2.703004)"
         inkscape:transform-center-x="0.089678489"
         inkscape:transform-center-y="0.081525899" />
      <ellipse
         style="fill:#ffec8c;stroke:none;stroke-width:1"
         id="ellipse18"
         cx="21.488773"
         cy="5.2404766"
         rx="0.13859402"
         ry="0.17120439" />
    </g>
    <g
       id="g66"
       transform="translate(0.2445777,-0.13044144)">
      <g
         id="g65">
        <g
           id="g64">
          <path
             style="fill:#2a75ff;stroke:none;stroke-width:1"
             d="m 16.40145,22.824534 c 0.279906,-0.247295 0.839717,-0.741886 1.375076,-1.057121 0.535358,-0.315234 1.046244,-0.451108 1.353325,-0.423931 0.307082,0.02718 0.410346,0.217401 0.358711,0.402194 -0.05164,0.184794 -0.258164,0.364148 -0.682104,0.548942 -0.423941,0.184793 -1.065266,0.375017 -1.519096,0.513612 -0.453829,0.138594 -0.720143,0.225554 -0.883197,0.26088 -0.163055,0.03533 -0.222834,0.01902 -0.252727,0.01087 -0.02989,-0.0082 -0.02989,-0.0081 0.250012,-0.255444 z"
             id="path34"
             inkscape:path-effect="#path-effect34"
             inkscape:original-d="m 16.121545,23.071829 c 0.559811,-0.49459 1.119622,-0.989181 1.679433,-1.483771 0.510906,-0.135879 1.021792,-0.271753 1.532687,-0.40763 0.103267,0.190231 0.206531,0.380455 0.309798,0.570682 -0.206536,0.17936 -0.413065,0.358714 -0.619596,0.53807 -0.64135,0.190231 -1.282675,0.380455 -1.924012,0.570682 -0.266323,0.08696 -0.532636,0.173922 -0.798954,0.260883 -0.05979,-0.01631 -0.119571,-0.03261 -0.179356,-0.04892 z"
             transform="translate(0,0.27718806)" />
          <path
             style="fill:#2a75ff;stroke:none;stroke-width:1"
             d="m 16.40145,22.824534 c 0.279906,-0.247295 0.839717,-0.741886 1.375076,-1.057121 0.535358,-0.315234 1.046244,-0.451108 1.353325,-0.423931 0.307082,0.02718 0.410346,0.217401 0.358711,0.402194 -0.05164,0.184794 -0.258164,0.364148 -0.682104,0.548942 -0.423941,0.184793 -1.065266,0.375017 -1.519096,0.513612 -0.453829,0.138594 -0.720143,0.225554 -0.883197,0.26088 -0.163055,0.03533 -0.222834,0.01902 -0.252727,0.01087 -0.02989,-0.0082 -0.02989,-0.0081 0.250012,-0.255444 z"
             id="path35"
             inkscape:path-effect="#path-effect38"
             inkscape:original-d="m 16.121545,23.071829 c 0.559811,-0.49459 1.119622,-0.989181 1.679433,-1.483771 0.510906,-0.135879 1.021792,-0.271753 1.532687,-0.40763 0.103267,0.190231 0.206531,0.380455 0.309798,0.570682 -0.206536,0.17936 -0.413065,0.358714 -0.619596,0.53807 -0.64135,0.190231 -1.282675,0.380455 -1.924012,0.570682 -0.266323,0.08696 -0.532636,0.173922 -0.798954,0.260883 -0.05979,-0.01631 -0.119571,-0.03261 -0.179356,-0.04892 z"
             transform="rotate(30,15.56896,23.307792)" />
          <path
             style="fill:#2a75ff;stroke:none;stroke-width:1"
             d="m 16.40145,22.824534 c 0.279906,-0.247295 0.839717,-0.741886 1.375076,-1.057121 0.535358,-0.315234 1.046244,-0.451108 1.353325,-0.423931 0.307082,0.02718 0.410346,0.217401 0.358711,0.402194 -0.05164,0.184794 -0.258164,0.364148 -0.682104,0.548942 -0.423941,0.184793 -1.065266,0.375017 -1.519096,0.513612 -0.453829,0.138594 -0.720143,0.225554 -0.883197,0.26088 -0.163055,0.03533 -0.222834,0.01902 -0.252727,0.01087 -0.02989,-0.0082 -0.02989,-0.0081 0.250012,-0.255444 z"
             id="path38"
             inkscape:path-effect="#path-effect40"
             inkscape:original-d="m 16.121545,23.071829 c 0.559811,-0.49459 1.119622,-0.989181 1.679433,-1.483771 0.510906,-0.135879 1.021792,-0.271753 1.532687,-0.40763 0.103267,0.190231 0.206531,0.380455 0.309798,0.570682 -0.206536,0.17936 -0.413065,0.358714 -0.619596,0.53807 -0.64135,0.190231 -1.282675,0.380455 -1.924012,0.570682 -0.266323,0.08696 -0.532636,0.173922 -0.798954,0.260883 -0.05979,-0.01631 -0.119571,-0.03261 -0.179356,-0.04892 z"
             transform="rotate(53.796917,15.817016,23.161394)" />
          <path
             style="fill:#2a75ff;stroke:none;stroke-width:1"
             d="m 16.40145,22.824534 c 0.279906,-0.247295 0.839717,-0.741886 1.375076,-1.057121 0.535358,-0.315234 1.046244,-0.451108 1.353325,-0.423931 0.307082,0.02718 0.410346,0.217401 0.358711,0.402194 -0.05164,0.184794 -0.258164,0.364148 -0.682104,0.548942 -0.423941,0.184793 -1.065266,0.375017 -1.519096,0.513612 -0.453829,0.138594 -0.720143,0.225554 -0.883197,0.26088 -0.163055,0.03533 -0.222834,0.01902 -0.252727,0.01087 -0.02989,-0.0082 -0.02989,-0.0081 0.250012,-0.255444 z"
             id="path39"
             inkscape:path-effect="#path-effect42"
             inkscape:original-d="m 16.121545,23.071829 c 0.559811,-0.49459 1.119622,-0.989181 1.679433,-1.483771 0.510906,-0.135879 1.021792,-0.271753 1.532687,-0.40763 0.103267,0.190231 0.206531,0.380455 0.309798,0.570682 -0.206536,0.17936 -0.413065,0.358714 -0.619596,0.53807 -0.64135,0.190231 -1.282675,0.380455 -1.924012,0.570682 -0.266323,0.08696 -0.532636,0.173922 -0.798954,0.260883 -0.05979,-0.01631 -0.119571,-0.03261 -0.179356,-0.04892 z"
             transform="rotate(83.796917,15.908686,23.21129)" />
          <path
             style="fill:#2a75ff;stroke:none;stroke-width:1"
             d="m 16.40145,22.824534 c 0.279906,-0.247295 0.839717,-0.741886 1.375076,-1.057121 0.535358,-0.315234 1.046244,-0.451108 1.353325,-0.423931 0.307082,0.02718 0.410346,0.217401 0.358711,0.402194 -0.05164,0.184794 -0.258164,0.364148 -0.682104,0.548942 -0.423941,0.184793 -1.065266,0.375017 -1.519096,0.513612 -0.453829,0.138594 -0.720143,0.225554 -0.883197,0.26088 -0.163055,0.03533 -0.222834,0.01902 -0.252727,0.01087 -0.02989,-0.0082 -0.02989,-0.0081 0.250012,-0.255444 z"
             id="path42"
             inkscape:path-effect="#path-effect46"
             inkscape:original-d="m 16.121545,23.071829 c 0.559811,-0.49459 1.119622,-0.989181 1.679433,-1.483771 0.510906,-0.135879 1.021792,-0.271753 1.532687,-0.40763 0.103267,0.190231 0.206531,0.380455 0.309798,0.570682 -0.206536,0.17936 -0.413065,0.358714 -0.619596,0.53807 -0.64135,0.190231 -1.282675,0.380455 -1.924012,0.570682 -0.266323,0.08696 -0.532636,0.173922 -0.798954,0.260883 -0.05979,-0.01631 -0.119571,-0.03261 -0.179356,-0.04892 z"
             transform="rotate(127.63437,15.998027,23.274486)" />
          <path
             style="fill:#2a75ff;stroke:none;stroke-width:1"
             d="m 16.40145,22.824534 c 0.279906,-0.247295 0.839717,-0.741886 1.375076,-1.057121 0.535358,-0.315234 1.046244,-0.451108 1.353325,-0.423931 0.307082,0.02718 0.410346,0.217401 0.358711,0.402194 -0.05164,0.184794 -0.258164,0.364148 -0.682104,0.548942 -0.423941,0.184793 -1.065266,0.375017 -1.519096,0.513612 -0.453829,0.138594 -0.720143,0.225554 -0.883197,0.26088 -0.163055,0.03533 -0.222834,0.01902 -0.252727,0.01087 -0.02989,-0.0082 -0.02989,-0.0081 0.250012,-0.255444 z"
             id="path43"
             inkscape:path-effect="#path-effect49"
             inkscape:original-d="m 16.121545,23.071829 c 0.559811,-0.49459 1.119622,-0.989181 1.679433,-1.483771 0.510906,-0.135879 1.021792,-0.271753 1.532687,-0.40763 0.103267,0.190231 0.206531,0.380455 0.309798,0.570682 -0.206536,0.17936 -0.413065,0.358714 -0.619596,0.53807 -0.64135,0.190231 -1.282675,0.380455 -1.924012,0.570682 -0.266323,0.08696 -0.532636,0.173922 -0.798954,0.260883 -0.05979,-0.01631 -0.119571,-0.03261 -0.179356,-0.04892 z"
             transform="rotate(157.63437,16.033217,23.283105)" />
          <path
             style="fill:#2a75ff;stroke:none;stroke-width:1"
             d="m 16.40145,22.824534 c 0.279906,-0.247295 0.839717,-0.741886 1.375076,-1.057121 0.535358,-0.315234 1.046244,-0.451108 1.353325,-0.423931 0.307082,0.02718 0.410346,0.217401 0.358711,0.402194 -0.05164,0.184794 -0.258164,0.364148 -0.682104,0.548942 -0.423941,0.184793 -1.065266,0.375017 -1.519096,0.513612 -0.453829,0.138594 -0.720143,0.225554 -0.883197,0.26088 -0.163055,0.03533 -0.222834,0.01902 -0.252727,0.01087 -0.02989,-0.0082 -0.02989,-0.0081 0.250012,-0.255444 z"
             id="path45"
             inkscape:path-effect="#path-effect54"
             inkscape:original-d="m 16.121545,23.071829 c 0.559811,-0.49459 1.119622,-0.989181 1.679433,-1.483771 0.510906,-0.135879 1.021792,-0.271753 1.532687,-0.40763 0.103267,0.190231 0.206531,0.380455 0.309798,0.570682 -0.206536,0.17936 -0.413065,0.358714 -0.619596,0.53807 -0.64135,0.190231 -1.282675,0.380455 -1.924012,0.570682 -0.266323,0.08696 -0.532636,0.173922 -0.798954,0.260883 -0.05979,-0.01631 -0.119571,-0.03261 -0.179356,-0.04892 z"
             transform="rotate(-148.56871,16.14359,23.253267)" />
          <path
             style="fill:#2a75ff;stroke:none;stroke-width:1"
             d="m 16.40145,22.824534 c 0.279906,-0.247295 0.839717,-0.741886 1.375076,-1.057121 0.535358,-0.315234 1.046244,-0.451108 1.353325,-0.423931 0.307082,0.02718 0.410346,0.217401 0.358711,0.402194 -0.05164,0.184794 -0.258164,0.364148 -0.682104,0.548942 -0.423941,0.184793 -1.065266,0.375017 -1.519096,0.513612 -0.453829,0.138594 -0.720143,0.225554 -0.883197,0.26088 -0.163055,0.03533 -0.222834,0.01902 -0.252727,0.01087 -0.02989,-0.0082 -0.02989,-0.0081 0.250012,-0.255444 z"
             id="path54"
             inkscape:path-effect="#path-effect58"
             inkscape:original-d="m 16.121545,23.071829 c 0.559811,-0.49459 1.119622,-0.989181 1.679433,-1.483771 0.510906,-0.135879 1.021792,-0.271753 1.532687,-0.40763 0.103267,0.190231 0.206531,0.380455 0.309798,0.570682 -0.206536,0.17936 -0.413065,0.358714 -0.619596,0.53807 -0.64135,0.190231 -1.282675,0.380455 -1.924012,0.570682 -0.266323,0.08696 -0.532636,0.173922 -0.798954,0.260883 -0.05979,-0.01631 -0.119571,-0.03261 -0.179356,-0.04892 z"
             transform="rotate(-129.71181,16.19492,23.249091)" />
          <path
             style="fill:#2a75ff;stroke:none;stroke-width:1"
             d="m 16.40145,22.824534 c 0.279906,-0.247295 0.839717,-0.741886 1.375076,-1.057121 0.535358,-0.315234 1.046244,-0.451108 1.353325,-0.423931 0.307082,0.02718 0.410346,0.217401 0.358711,0.402194 -0.05164,0.184794 -0.258164,0.364148 -0.682104,0.548942 -0.423941,0.184793 -1.065266,0.375017 -1.519096,0.513612 -0.453829,0.138594 -0.720143,0.225554 -0.883197,0.26088 -0.163055,0.03533 -0.222834,0.01902 -0.252727,0.01087 -0.02989,-0.0082 -0.02989,-0.0081 0.250012,-0.255444 z"
             id="path55"
             inkscape:path-effect="#path-effect60"
             inkscape:original-d="m 16.121545,23.071829 c 0.559811,-0.49459 1.119622,-0.989181 1.679433,-1.483771 0.510906,-0.135879 1.021792,-0.271753 1.532687,-0.40763 0.103267,0.190231 0.206531,0.380455 0.309798,0.570682 -0.206536,0.17936 -0.413065,0.358714 -0.619596,0.53807 -0.64135,0.190231 -1.282675,0.380455 -1.924012,0.570682 -0.266323,0.08696 -0.532636,0.173922 -0.798954,0.260883 -0.05979,-0.01631 -0.119571,-0.03261 -0.179356,-0.04892 z"
             transform="rotate(-99.711815,16.235046,23.22726)" />
          <path
             style="fill:#2a75ff;stroke:none;stroke-width:1"
             d="m 16.40145,22.824534 c 0.279906,-0.247295 0.839717,-0.741886 1.375076,-1.057121 0.535358,-0.315234 1.046244,-0.451108 1.353325,-0.423931 0.307082,0.02718 0.410346,0.217401 0.358711,0.402194 -0.05164,0.184794 -0.258164,0.364148 -0.682104,0.548942 -0.423941,0.184793 -1.065266,0.375017 -1.519096,0.513612 -0.453829,0.138594 -0.720143,0.225554 -0.883197,0.26088 -0.163055,0.03533 -0.222834,0.01902 -0.252727,0.01087 -0.02989,-0.0082 -0.02989,-0.0081 0.250012,-0.255444 z"
             id="path56"
             inkscape:path-effect="#path-effect62"
             inkscape:original-d="m 16.121545,23.071829 c 0.559811,-0.49459 1.119622,-0.989181 1.679433,-1.483771 0.510906,-0.135879 1.021792,-0.271753 1.532687,-0.40763 0.103267,0.190231 0.206531,0.380455 0.309798,0.570682 -0.206536,0.17936 -0.413065,0.358714 -0.619596,0.53807 -0.64135,0.190231 -1.282675,0.380455 -1.924012,0.570682 -0.266323,0.08696 -0.532636,0.173922 -0.798954,0.260883 -0.05979,-0.01631 -0.119571,-0.03261 -0.179356,-0.04892 z"
             transform="rotate(-75.914895,16.378314,23.250096)" />
          <path
             style="fill:#2a75ff;stroke:none;stroke-width:1"
             d="m 16.40145,22.824534 c 0.279906,-0.247295 0.839717,-0.741886 1.375076,-1.057121 0.535358,-0.315234 1.046244,-0.451108 1.353325,-0.423931 0.307082,0.02718 0.410346,0.217401 0.358711,0.402194 -0.05164,0.184794 -0.258164,0.364148 -0.682104,0.548942 -0.423941,0.184793 -1.065266,0.375017 -1.519096,0.513612 -0.453829,0.138594 -0.720143,0.225554 -0.883197,0.26088 -0.163055,0.03533 -0.222834,0.01902 -0.252727,0.01087 -0.02989,-0.0082 -0.02989,-0.0081 0.250012,-0.255444 z"
             id="path57"
             inkscape:path-effect="#path-effect64"
             inkscape:original-d="m 16.121545,23.071829 c 0.559811,-0.49459 1.119622,-0.989181 1.679433,-1.483771 0.510906,-0.135879 1.021792,-0.271753 1.532687,-0.40763 0.103267,0.190231 0.206531,0.380455 0.309798,0.570682 -0.206536,0.17936 -0.413065,0.358714 -0.619596,0.53807 -0.64135,0.190231 -1.282675,0.380455 -1.924012,0.570682 -0.266323,0.08696 -0.532636,0.173922 -0.798954,0.260883 -0.05979,-0.01631 -0.119571,-0.03261 -0.179356,-0.04892 z"
             transform="rotate(-45.914895,16.564162,23.173198)" />
        </g>
        <path
           style="fill:#2a75ff;stroke:none;stroke-width:1"
           d="m 16.40145,22.824534 c 0.279906,-0.247295 0.839717,-0.741886 1.375076,-1.057121 0.535358,-0.315234 1.046244,-0.451108 1.353325,-0.423931 0.307082,0.02718 0.410346,0.217401 0.358711,0.402194 -0.05164,0.184794 -0.258164,0.364148 -0.682104,0.548942 -0.423941,0.184793 -1.065266,0.375017 -1.519096,0.513612 -0.453829,0.138594 -0.720143,0.225554 -0.883197,0.26088 -0.163055,0.03533 -0.222834,0.01902 -0.252727,0.01087 -0.02989,-0.0082 -0.02989,-0.0081 0.250012,-0.255444 z"
           id="path44"
           inkscape:path-effect="#path-effect52"
           inkscape:original-d="m 16.121545,23.071829 c 0.559811,-0.49459 1.119622,-0.989181 1.679433,-1.483771 0.510906,-0.135879 1.021792,-0.271753 1.532687,-0.40763 0.103267,0.190231 0.206531,0.380455 0.309798,0.570682 -0.206536,0.17936 -0.413065,0.358714 -0.619596,0.53807 -0.64135,0.190231 -1.282675,0.380455 -1.924012,0.570682 -0.266323,0.08696 -0.532636,0.173922 -0.798954,0.260883 -0.05979,-0.01631 -0.119571,-0.03261 -0.179356,-0.04892 z"
           transform="rotate(-178.56871,16.11862,23.261672)" />
      </g>
      <circle
         style="fill:#ffec8c;stroke:none;stroke-width:1"
         id="path33"
         cx="16.110275"
         cy="23.423513"
         r="0.50729811" />
    </g>
  </g>
</svg>
