<?xml version="1.0" encoding="UTF-8" standalone="no"?>
<!-- Created with Inkscape (http://www.inkscape.org/) -->

<svg
   width="64.000008"
   height="64.000008"
   viewBox="0 0 16.933335 16.933335"
   version="1.1"
   id="svg1"
   inkscape:version="1.3.2 (091e20e, 2023-11-25, custom)"
   sodipodi:docname="Daisy_Blue_Scene.svg"
   xmlns:inkscape="http://www.inkscape.org/namespaces/inkscape"
   xmlns:sodipodi="http://sodipodi.sourceforge.net/DTD/sodipodi-0.dtd"
   xmlns="http://www.w3.org/2000/svg"
   xmlns:svg="http://www.w3.org/2000/svg">
  <sodipodi:namedview
     id="namedview1"
     pagecolor="#ffffff"
     bordercolor="#000000"
     borderopacity="0.25"
     inkscape:showpageshadow="2"
     inkscape:pageopacity="0.0"
     inkscape:pagecheckerboard="0"
     inkscape:deskcolor="#d1d1d1"
     inkscape:document-units="mm"
     showgrid="true"
     inkscape:zoom="5.7370931"
     inkscape:cx="63.708222"
     inkscape:cy="47.149313"
     inkscape:window-width="1920"
     inkscape:window-height="1001"
     inkscape:window-x="-7"
     inkscape:window-y="-7"
     inkscape:window-maximized="1"
     inkscape:current-layer="g32">
    <inkscape:grid
       id="grid1"
       units="px"
       originx="-16.933332"
       originy="-16.933332"
       spacingx="8.4666666"
       spacingy="8.4666666"
       empcolor="#0099e5"
       empopacity="0.30196078"
       color="#0099e5"
       opacity="0.14901961"
       empspacing="5"
       dotted="false"
       gridanglex="30"
       gridanglez="30"
       visible="true" />
  </sodipodi:namedview>
  <defs
     id="defs1">
    <inkscape:path-effect
       effect="bspline"
       id="path-effect64"
       is_visible="true"
       lpeversion="1.3"
       weight="33.333333"
       steps="2"
       helper_size="0"
       apply_no_weight="true"
       apply_with_weight="true"
       only_selected="false"
       uniform="false" />
    <inkscape:path-effect
       effect="bspline"
       id="path-effect62"
       is_visible="true"
       lpeversion="1.3"
       weight="33.333333"
       steps="2"
       helper_size="0"
       apply_no_weight="true"
       apply_with_weight="true"
       only_selected="false"
       uniform="false" />
    <inkscape:path-effect
       effect="bspline"
       id="path-effect60"
       is_visible="true"
       lpeversion="1.3"
       weight="33.333333"
       steps="2"
       helper_size="0"
       apply_no_weight="true"
       apply_with_weight="true"
       only_selected="false"
       uniform="false" />
    <inkscape:path-effect
       effect="bspline"
       id="path-effect58"
       is_visible="true"
       lpeversion="1.3"
       weight="33.333333"
       steps="2"
       helper_size="0"
       apply_no_weight="true"
       apply_with_weight="true"
       only_selected="false"
       uniform="false" />
    <inkscape:path-effect
       effect="bspline"
       id="path-effect54"
       is_visible="true"
       lpeversion="1.3"
       weight="33.333333"
       steps="2"
       helper_size="0"
       apply_no_weight="true"
       apply_with_weight="true"
       only_selected="false"
       uniform="false" />
    <inkscape:path-effect
       effect="bspline"
       id="path-effect52"
       is_visible="true"
       lpeversion="1.3"
       weight="33.333333"
       steps="2"
       helper_size="0"
       apply_no_weight="true"
       apply_with_weight="true"
       only_selected="false"
       uniform="false" />
    <inkscape:path-effect
       effect="bspline"
       id="path-effect49"
       is_visible="true"
       lpeversion="1.3"
       weight="33.333333"
       steps="2"
       helper_size="0"
       apply_no_weight="true"
       apply_with_weight="true"
       only_selected="false"
       uniform="false" />
    <inkscape:path-effect
       effect="bspline"
       id="path-effect46"
       is_visible="true"
       lpeversion="1.3"
       weight="33.333333"
       steps="2"
       helper_size="0"
       apply_no_weight="true"
       apply_with_weight="true"
       only_selected="false"
       uniform="false" />
    <inkscape:path-effect
       effect="bspline"
       id="path-effect42"
       is_visible="true"
       lpeversion="1.3"
       weight="33.333333"
       steps="2"
       helper_size="0"
       apply_no_weight="true"
       apply_with_weight="true"
       only_selected="false"
       uniform="false" />
    <inkscape:path-effect
       effect="bspline"
       id="path-effect40"
       is_visible="true"
       lpeversion="1.3"
       weight="33.333333"
       steps="2"
       helper_size="0"
       apply_no_weight="true"
       apply_with_weight="true"
       only_selected="false"
       uniform="false" />
    <inkscape:path-effect
       effect="bspline"
       id="path-effect38"
       is_visible="true"
       lpeversion="1.3"
       weight="33.333333"
       steps="2"
       helper_size="0"
       apply_no_weight="true"
       apply_with_weight="true"
       only_selected="false"
       uniform="false" />
    <inkscape:path-effect
       effect="bspline"
       id="path-effect34"
       is_visible="true"
       lpeversion="1.3"
       weight="33.333333"
       steps="2"
       helper_size="0"
       apply_no_weight="true"
       apply_with_weight="true"
       only_selected="false"
       uniform="false" />
  </defs>
  <g
     inkscape:label="Layer 1"
     inkscape:groupmode="layer"
     id="g16"
     transform="matrix(-1.0624885,0,0,1.0624885,34.131202,-17.197867)">
    <rect
       style="fill:#457b47;fill-opacity:0;stroke:none;stroke-width:0.0941633;stroke-dasharray:none"
       id="rect25"
       width="15.937428"
       height="15.937428"
       x="-32.123833"
       y="16.186403"
       transform="scale(-1,1)"
       inkscape:export-filename="Rose_Full.svg"
       inkscape:export-xdpi="44.636486"
       inkscape:export-ydpi="44.636486" />
    <rect
       style="fill:#457b47;fill-opacity:1;stroke:none;stroke-width:0.0941187;stroke-dasharray:none"
       id="rect23"
       width="0.39900166"
       height="6.6295662"
       x="-32.859371"
       y="6.9740043"
       transform="matrix(-0.8660254,-0.5,-0.5,0.8660254,0,0)" />
  </g>
  <g
     inkscape:groupmode="layer"
     id="g32"
     inkscape:label="Layer 2"
     transform="translate(-8.4666664,-16.933332)">
    <g
       id="g66"
       transform="translate(0.2445777,-0.13044144)">
      <g
         id="g65">
        <g
           id="g64">
          <path
             style="fill:#2a75ff;stroke:none;stroke-width:1"
             d="m 16.40145,22.824534 c 0.279906,-0.247295 0.839717,-0.741886 1.375076,-1.057121 0.535358,-0.315234 1.046244,-0.451108 1.353325,-0.423931 0.307082,0.02718 0.410346,0.217401 0.358711,0.402194 -0.05164,0.184794 -0.258164,0.364148 -0.682104,0.548942 -0.423941,0.184793 -1.065266,0.375017 -1.519096,0.513612 -0.453829,0.138594 -0.720143,0.225554 -0.883197,0.26088 -0.163055,0.03533 -0.222834,0.01902 -0.252727,0.01087 -0.02989,-0.0082 -0.02989,-0.0081 0.250012,-0.255444 z"
             id="path34"
             inkscape:path-effect="#path-effect34"
             inkscape:original-d="m 16.121545,23.071829 c 0.559811,-0.49459 1.119622,-0.989181 1.679433,-1.483771 0.510906,-0.135879 1.021792,-0.271753 1.532687,-0.40763 0.103267,0.190231 0.206531,0.380455 0.309798,0.570682 -0.206536,0.17936 -0.413065,0.358714 -0.619596,0.53807 -0.64135,0.190231 -1.282675,0.380455 -1.924012,0.570682 -0.266323,0.08696 -0.532636,0.173922 -0.798954,0.260883 -0.05979,-0.01631 -0.119571,-0.03261 -0.179356,-0.04892 z"
             transform="translate(0,0.27718806)" />
          <path
             style="fill:#2a75ff;stroke:none;stroke-width:1"
             d="m 16.40145,22.824534 c 0.279906,-0.247295 0.839717,-0.741886 1.375076,-1.057121 0.535358,-0.315234 1.046244,-0.451108 1.353325,-0.423931 0.307082,0.02718 0.410346,0.217401 0.358711,0.402194 -0.05164,0.184794 -0.258164,0.364148 -0.682104,0.548942 -0.423941,0.184793 -1.065266,0.375017 -1.519096,0.513612 -0.453829,0.138594 -0.720143,0.225554 -0.883197,0.26088 -0.163055,0.03533 -0.222834,0.01902 -0.252727,0.01087 -0.02989,-0.0082 -0.02989,-0.0081 0.250012,-0.255444 z"
             id="path35"
             inkscape:path-effect="#path-effect38"
             inkscape:original-d="m 16.121545,23.071829 c 0.559811,-0.49459 1.119622,-0.989181 1.679433,-1.483771 0.510906,-0.135879 1.021792,-0.271753 1.532687,-0.40763 0.103267,0.190231 0.206531,0.380455 0.309798,0.570682 -0.206536,0.17936 -0.413065,0.358714 -0.619596,0.53807 -0.64135,0.190231 -1.282675,0.380455 -1.924012,0.570682 -0.266323,0.08696 -0.532636,0.173922 -0.798954,0.260883 -0.05979,-0.01631 -0.119571,-0.03261 -0.179356,-0.04892 z"
             transform="rotate(30,15.56896,23.307792)" />
          <path
             style="fill:#2a75ff;stroke:none;stroke-width:1"
             d="m 16.40145,22.824534 c 0.279906,-0.247295 0.839717,-0.741886 1.375076,-1.057121 0.535358,-0.315234 1.046244,-0.451108 1.353325,-0.423931 0.307082,0.02718 0.410346,0.217401 0.358711,0.402194 -0.05164,0.184794 -0.258164,0.364148 -0.682104,0.548942 -0.423941,0.184793 -1.065266,0.375017 -1.519096,0.513612 -0.453829,0.138594 -0.720143,0.225554 -0.883197,0.26088 -0.163055,0.03533 -0.222834,0.01902 -0.252727,0.01087 -0.02989,-0.0082 -0.02989,-0.0081 0.250012,-0.255444 z"
             id="path38"
             inkscape:path-effect="#path-effect40"
             inkscape:original-d="m 16.121545,23.071829 c 0.559811,-0.49459 1.119622,-0.989181 1.679433,-1.483771 0.510906,-0.135879 1.021792,-0.271753 1.532687,-0.40763 0.103267,0.190231 0.206531,0.380455 0.309798,0.570682 -0.206536,0.17936 -0.413065,0.358714 -0.619596,0.53807 -0.64135,0.190231 -1.282675,0.380455 -1.924012,0.570682 -0.266323,0.08696 -0.532636,0.173922 -0.798954,0.260883 -0.05979,-0.01631 -0.119571,-0.03261 -0.179356,-0.04892 z"
             transform="rotate(53.796917,15.817016,23.161394)" />
          <path
             style="fill:#2a75ff;stroke:none;stroke-width:1"
             d="m 16.40145,22.824534 c 0.279906,-0.247295 0.839717,-0.741886 1.375076,-1.057121 0.535358,-0.315234 1.046244,-0.451108 1.353325,-0.423931 0.307082,0.02718 0.410346,0.217401 0.358711,0.402194 -0.05164,0.184794 -0.258164,0.364148 -0.682104,0.548942 -0.423941,0.184793 -1.065266,0.375017 -1.519096,0.513612 -0.453829,0.138594 -0.720143,0.225554 -0.883197,0.26088 -0.163055,0.03533 -0.222834,0.01902 -0.252727,0.01087 -0.02989,-0.0082 -0.02989,-0.0081 0.250012,-0.255444 z"
             id="path39"
             inkscape:path-effect="#path-effect42"
             inkscape:original-d="m 16.121545,23.071829 c 0.559811,-0.49459 1.119622,-0.989181 1.679433,-1.483771 0.510906,-0.135879 1.021792,-0.271753 1.532687,-0.40763 0.103267,0.190231 0.206531,0.380455 0.309798,0.570682 -0.206536,0.17936 -0.413065,0.358714 -0.619596,0.53807 -0.64135,0.190231 -1.282675,0.380455 -1.924012,0.570682 -0.266323,0.08696 -0.532636,0.173922 -0.798954,0.260883 -0.05979,-0.01631 -0.119571,-0.03261 -0.179356,-0.04892 z"
             transform="rotate(83.796917,15.908686,23.21129)" />
          <path
             style="fill:#2a75ff;stroke:none;stroke-width:1"
             d="m 16.40145,22.824534 c 0.279906,-0.247295 0.839717,-0.741886 1.375076,-1.057121 0.535358,-0.315234 1.046244,-0.451108 1.353325,-0.423931 0.307082,0.02718 0.410346,0.217401 0.358711,0.402194 -0.05164,0.184794 -0.258164,0.364148 -0.682104,0.548942 -0.423941,0.184793 -1.065266,0.375017 -1.519096,0.513612 -0.453829,0.138594 -0.720143,0.225554 -0.883197,0.26088 -0.163055,0.03533 -0.222834,0.01902 -0.252727,0.01087 -0.02989,-0.0082 -0.02989,-0.0081 0.250012,-0.255444 z"
             id="path42"
             inkscape:path-effect="#path-effect46"
             inkscape:original-d="m 16.121545,23.071829 c 0.559811,-0.49459 1.119622,-0.989181 1.679433,-1.483771 0.510906,-0.135879 1.021792,-0.271753 1.532687,-0.40763 0.103267,0.190231 0.206531,0.380455 0.309798,0.570682 -0.206536,0.17936 -0.413065,0.358714 -0.619596,0.53807 -0.64135,0.190231 -1.282675,0.380455 -1.924012,0.570682 -0.266323,0.08696 -0.532636,0.173922 -0.798954,0.260883 -0.05979,-0.01631 -0.119571,-0.03261 -0.179356,-0.04892 z"
             transform="rotate(127.63437,15.998027,23.274486)" />
          <path
             style="fill:#2a75ff;stroke:none;stroke-width:1"
             d="m 16.40145,22.824534 c 0.279906,-0.247295 0.839717,-0.741886 1.375076,-1.057121 0.535358,-0.315234 1.046244,-0.451108 1.353325,-0.423931 0.307082,0.02718 0.410346,0.217401 0.358711,0.402194 -0.05164,0.184794 -0.258164,0.364148 -0.682104,0.548942 -0.423941,0.184793 -1.065266,0.375017 -1.519096,0.513612 -0.453829,0.138594 -0.720143,0.225554 -0.883197,0.26088 -0.163055,0.03533 -0.222834,0.01902 -0.252727,0.01087 -0.02989,-0.0082 -0.02989,-0.0081 0.250012,-0.255444 z"
             id="path43"
             inkscape:path-effect="#path-effect49"
             inkscape:original-d="m 16.121545,23.071829 c 0.559811,-0.49459 1.119622,-0.989181 1.679433,-1.483771 0.510906,-0.135879 1.021792,-0.271753 1.532687,-0.40763 0.103267,0.190231 0.206531,0.380455 0.309798,0.570682 -0.206536,0.17936 -0.413065,0.358714 -0.619596,0.53807 -0.64135,0.190231 -1.282675,0.380455 -1.924012,0.570682 -0.266323,0.08696 -0.532636,0.173922 -0.798954,0.260883 -0.05979,-0.01631 -0.119571,-0.03261 -0.179356,-0.04892 z"
             transform="rotate(157.63437,16.033217,23.283105)" />
          <path
             style="fill:#2a75ff;stroke:none;stroke-width:1"
             d="m 16.40145,22.824534 c 0.279906,-0.247295 0.839717,-0.741886 1.375076,-1.057121 0.535358,-0.315234 1.046244,-0.451108 1.353325,-0.423931 0.307082,0.02718 0.410346,0.217401 0.358711,0.402194 -0.05164,0.184794 -0.258164,0.364148 -0.682104,0.548942 -0.423941,0.184793 -1.065266,0.375017 -1.519096,0.513612 -0.453829,0.138594 -0.720143,0.225554 -0.883197,0.26088 -0.163055,0.03533 -0.222834,0.01902 -0.252727,0.01087 -0.02989,-0.0082 -0.02989,-0.0081 0.250012,-0.255444 z"
             id="path45"
             inkscape:path-effect="#path-effect54"
             inkscape:original-d="m 16.121545,23.071829 c 0.559811,-0.49459 1.119622,-0.989181 1.679433,-1.483771 0.510906,-0.135879 1.021792,-0.271753 1.532687,-0.40763 0.103267,0.190231 0.206531,0.380455 0.309798,0.570682 -0.206536,0.17936 -0.413065,0.358714 -0.619596,0.53807 -0.64135,0.190231 -1.282675,0.380455 -1.924012,0.570682 -0.266323,0.08696 -0.532636,0.173922 -0.798954,0.260883 -0.05979,-0.01631 -0.119571,-0.03261 -0.179356,-0.04892 z"
             transform="rotate(-148.56871,16.14359,23.253267)" />
          <path
             style="fill:#2a75ff;stroke:none;stroke-width:1"
             d="m 16.40145,22.824534 c 0.279906,-0.247295 0.839717,-0.741886 1.375076,-1.057121 0.535358,-0.315234 1.046244,-0.451108 1.353325,-0.423931 0.307082,0.02718 0.410346,0.217401 0.358711,0.402194 -0.05164,0.184794 -0.258164,0.364148 -0.682104,0.548942 -0.423941,0.184793 -1.065266,0.375017 -1.519096,0.513612 -0.453829,0.138594 -0.720143,0.225554 -0.883197,0.26088 -0.163055,0.03533 -0.222834,0.01902 -0.252727,0.01087 -0.02989,-0.0082 -0.02989,-0.0081 0.250012,-0.255444 z"
             id="path54"
             inkscape:path-effect="#path-effect58"
             inkscape:original-d="m 16.121545,23.071829 c 0.559811,-0.49459 1.119622,-0.989181 1.679433,-1.483771 0.510906,-0.135879 1.021792,-0.271753 1.532687,-0.40763 0.103267,0.190231 0.206531,0.380455 0.309798,0.570682 -0.206536,0.17936 -0.413065,0.358714 -0.619596,0.53807 -0.64135,0.190231 -1.282675,0.380455 -1.924012,0.570682 -0.266323,0.08696 -0.532636,0.173922 -0.798954,0.260883 -0.05979,-0.01631 -0.119571,-0.03261 -0.179356,-0.04892 z"
             transform="rotate(-129.71181,16.19492,23.249091)" />
          <path
             style="fill:#2a75ff;stroke:none;stroke-width:1"
             d="m 16.40145,22.824534 c 0.279906,-0.247295 0.839717,-0.741886 1.375076,-1.057121 0.535358,-0.315234 1.046244,-0.451108 1.353325,-0.423931 0.307082,0.02718 0.410346,0.217401 0.358711,0.402194 -0.05164,0.184794 -0.258164,0.364148 -0.682104,0.548942 -0.423941,0.184793 -1.065266,0.375017 -1.519096,0.513612 -0.453829,0.138594 -0.720143,0.225554 -0.883197,0.26088 -0.163055,0.03533 -0.222834,0.01902 -0.252727,0.01087 -0.02989,-0.0082 -0.02989,-0.0081 0.250012,-0.255444 z"
             id="path55"
             inkscape:path-effect="#path-effect60"
             inkscape:original-d="m 16.121545,23.071829 c 0.559811,-0.49459 1.119622,-0.989181 1.679433,-1.483771 0.510906,-0.135879 1.021792,-0.271753 1.532687,-0.40763 0.103267,0.190231 0.206531,0.380455 0.309798,0.570682 -0.206536,0.17936 -0.413065,0.358714 -0.619596,0.53807 -0.64135,0.190231 -1.282675,0.380455 -1.924012,0.570682 -0.266323,0.08696 -0.532636,0.173922 -0.798954,0.260883 -0.05979,-0.01631 -0.119571,-0.03261 -0.179356,-0.04892 z"
             transform="rotate(-99.711815,16.235046,23.22726)" />
          <path
             style="fill:#2a75ff;stroke:none;stroke-width:1"
             d="m 16.40145,22.824534 c 0.279906,-0.247295 0.839717,-0.741886 1.375076,-1.057121 0.535358,-0.315234 1.046244,-0.451108 1.353325,-0.423931 0.307082,0.02718 0.410346,0.217401 0.358711,0.402194 -0.05164,0.184794 -0.258164,0.364148 -0.682104,0.548942 -0.423941,0.184793 -1.065266,0.375017 -1.519096,0.513612 -0.453829,0.138594 -0.720143,0.225554 -0.883197,0.26088 -0.163055,0.03533 -0.222834,0.01902 -0.252727,0.01087 -0.02989,-0.0082 -0.02989,-0.0081 0.250012,-0.255444 z"
             id="path56"
             inkscape:path-effect="#path-effect62"
             inkscape:original-d="m 16.121545,23.071829 c 0.559811,-0.49459 1.119622,-0.989181 1.679433,-1.483771 0.510906,-0.135879 1.021792,-0.271753 1.532687,-0.40763 0.103267,0.190231 0.206531,0.380455 0.309798,0.570682 -0.206536,0.17936 -0.413065,0.358714 -0.619596,0.53807 -0.64135,0.190231 -1.282675,0.380455 -1.924012,0.570682 -0.266323,0.08696 -0.532636,0.173922 -0.798954,0.260883 -0.05979,-0.01631 -0.119571,-0.03261 -0.179356,-0.04892 z"
             transform="rotate(-75.914895,16.378314,23.250096)" />
          <path
             style="fill:#2a75ff;stroke:none;stroke-width:1"
             d="m 16.40145,22.824534 c 0.279906,-0.247295 0.839717,-0.741886 1.375076,-1.057121 0.535358,-0.315234 1.046244,-0.451108 1.353325,-0.423931 0.307082,0.02718 0.410346,0.217401 0.358711,0.402194 -0.05164,0.184794 -0.258164,0.364148 -0.682104,0.548942 -0.423941,0.184793 -1.065266,0.375017 -1.519096,0.513612 -0.453829,0.138594 -0.720143,0.225554 -0.883197,0.26088 -0.163055,0.03533 -0.222834,0.01902 -0.252727,0.01087 -0.02989,-0.0082 -0.02989,-0.0081 0.250012,-0.255444 z"
             id="path57"
             inkscape:path-effect="#path-effect64"
             inkscape:original-d="m 16.121545,23.071829 c 0.559811,-0.49459 1.119622,-0.989181 1.679433,-1.483771 0.510906,-0.135879 1.021792,-0.271753 1.532687,-0.40763 0.103267,0.190231 0.206531,0.380455 0.309798,0.570682 -0.206536,0.17936 -0.413065,0.358714 -0.619596,0.53807 -0.64135,0.190231 -1.282675,0.380455 -1.924012,0.570682 -0.266323,0.08696 -0.532636,0.173922 -0.798954,0.260883 -0.05979,-0.01631 -0.119571,-0.03261 -0.179356,-0.04892 z"
             transform="rotate(-45.914895,16.564162,23.173198)" />
        </g>
        <path
           style="fill:#2a75ff;stroke:none;stroke-width:1"
           d="m 16.40145,22.824534 c 0.279906,-0.247295 0.839717,-0.741886 1.375076,-1.057121 0.535358,-0.315234 1.046244,-0.451108 1.353325,-0.423931 0.307082,0.02718 0.410346,0.217401 0.358711,0.402194 -0.05164,0.184794 -0.258164,0.364148 -0.682104,0.548942 -0.423941,0.184793 -1.065266,0.375017 -1.519096,0.513612 -0.453829,0.138594 -0.720143,0.225554 -0.883197,0.26088 -0.163055,0.03533 -0.222834,0.01902 -0.252727,0.01087 -0.02989,-0.0082 -0.02989,-0.0081 0.250012,-0.255444 z"
           id="path44"
           inkscape:path-effect="#path-effect52"
           inkscape:original-d="m 16.121545,23.071829 c 0.559811,-0.49459 1.119622,-0.989181 1.679433,-1.483771 0.510906,-0.135879 1.021792,-0.271753 1.532687,-0.40763 0.103267,0.190231 0.206531,0.380455 0.309798,0.570682 -0.206536,0.17936 -0.413065,0.358714 -0.619596,0.53807 -0.64135,0.190231 -1.282675,0.380455 -1.924012,0.570682 -0.266323,0.08696 -0.532636,0.173922 -0.798954,0.260883 -0.05979,-0.01631 -0.119571,-0.03261 -0.179356,-0.04892 z"
           transform="rotate(-178.56871,16.11862,23.261672)" />
      </g>
      <circle
         style="fill:#ffec8c;stroke:none;stroke-width:1"
         id="path33"
         cx="16.110275"
         cy="23.423513"
         r="0.50729811" />
    </g>
  </g>
</svg>
