<?xml version="1.0" encoding="UTF-8" standalone="no"?>
<!-- Created with Inkscape (http://www.inkscape.org/) -->

<svg
   width="127.99999"
   height="32.000004"
   viewBox="0 0 33.866664 8.4666677"
   version="1.1"
   id="svg1"
   inkscape:version="1.3.2 (091e20e, 2023-11-25, custom)"
   sodipodi:docname="Daisy_Blue_Scene.svg"
   xmlns:inkscape="http://www.inkscape.org/namespaces/inkscape"
   xmlns:sodipodi="http://sodipodi.sourceforge.net/DTD/sodipodi-0.dtd"
   xmlns="http://www.w3.org/2000/svg"
   xmlns:svg="http://www.w3.org/2000/svg">
  <sodipodi:namedview
     id="namedview1"
     pagecolor="#ffffff"
     bordercolor="#000000"
     borderopacity="0.25"
     inkscape:showpageshadow="2"
     inkscape:pageopacity="0.0"
     inkscape:pagecheckerboard="0"
     inkscape:deskcolor="#d1d1d1"
     inkscape:document-units="mm"
     showgrid="true"
     inkscape:zoom="5.7370931"
     inkscape:cx="63.708222"
     inkscape:cy="47.149313"
     inkscape:window-width="1920"
     inkscape:window-height="1001"
     inkscape:window-x="-7"
     inkscape:window-y="-7"
     inkscape:window-maximized="1"
     inkscape:current-layer="g32">
    <inkscape:grid
       id="grid1"
       units="px"
       originx="4.9484431e-08"
       originy="-9.2932053e-09"
       spacingx="8.4666666"
       spacingy="8.4666666"
       empcolor="#0099e5"
       empopacity="0.30196078"
       color="#0099e5"
       opacity="0.14901961"
       empspacing="5"
       dotted="false"
       gridanglex="30"
       gridanglez="30"
       visible="true" />
  </sodipodi:namedview>
  <defs
     id="defs1">
    <inkscape:path-effect
       effect="bspline"
       id="path-effect33"
       is_visible="true"
       lpeversion="1.3"
       weight="33.333333"
       steps="2"
       helper_size="0"
       apply_no_weight="true"
       apply_with_weight="true"
       only_selected="false"
       uniform="false" />
    <inkscape:path-effect
       effect="bspline"
       id="path-effect31"
       is_visible="true"
       lpeversion="1.3"
       weight="33.333333"
       steps="2"
       helper_size="0"
       apply_no_weight="true"
       apply_with_weight="true"
       only_selected="false"
       uniform="false" />
    <inkscape:path-effect
       effect="bspline"
       id="path-effect29"
       is_visible="true"
       lpeversion="1.3"
       weight="33.333333"
       steps="2"
       helper_size="0"
       apply_no_weight="true"
       apply_with_weight="true"
       only_selected="false"
       uniform="false" />
    <inkscape:path-effect
       effect="bspline"
       id="path-effect27"
       is_visible="true"
       lpeversion="1.3"
       weight="33.333333"
       steps="2"
       helper_size="0"
       apply_no_weight="true"
       apply_with_weight="true"
       only_selected="false"
       uniform="false" />
    <inkscape:path-effect
       effect="bspline"
       id="path-effect25"
       is_visible="true"
       lpeversion="1.3"
       weight="33.333333"
       steps="2"
       helper_size="0"
       apply_no_weight="true"
       apply_with_weight="true"
       only_selected="false"
       uniform="false" />
    <inkscape:path-effect
       effect="bspline"
       id="path-effect22"
       is_visible="true"
       lpeversion="1.3"
       weight="33.333333"
       steps="2"
       helper_size="0"
       apply_no_weight="true"
       apply_with_weight="true"
       only_selected="false"
       uniform="false" />
    <inkscape:path-effect
       effect="bspline"
       id="path-effect15"
       is_visible="true"
       lpeversion="1.3"
       weight="33.333333"
       steps="2"
       helper_size="0"
       apply_no_weight="true"
       apply_with_weight="true"
       only_selected="false"
       uniform="false" />
    <inkscape:path-effect
       effect="bspline"
       id="path-effect10"
       is_visible="true"
       lpeversion="1.3"
       weight="33.333333"
       steps="2"
       helper_size="0"
       apply_no_weight="true"
       apply_with_weight="true"
       only_selected="false"
       uniform="false" />
    <inkscape:path-effect
       effect="bspline"
       id="path-effect5"
       is_visible="true"
       lpeversion="1.3"
       weight="33.333333"
       steps="2"
       helper_size="0"
       apply_no_weight="true"
       apply_with_weight="true"
       only_selected="false"
       uniform="false" />
    <inkscape:path-effect
       effect="bspline"
       id="path-effect1"
       is_visible="true"
       lpeversion="1.3"
       weight="33.333333"
       steps="2"
       helper_size="0"
       apply_no_weight="true"
       apply_with_weight="true"
       only_selected="false"
       uniform="false" />
  </defs>
  <g
     inkscape:label="Layer 1"
     inkscape:groupmode="layer"
     id="g2"
     transform="matrix(-1.0624885,0,0,1.0624885,8.7312013,-0.26453462)">
    <rect
       style="fill:#bdca31;fill-opacity:0;stroke:none;stroke-width:0.497953"
       id="rect2"
       width="7.9687138"
       height="7.9687138"
       x="0.24897645"
       y="0.24897645"
       inkscape:export-filename="Daisy.svg"
       inkscape:export-xdpi="44.636486"
       inkscape:export-ydpi="44.636486" />
    <rect
       style="fill:#86a336;fill-opacity:0.919231;stroke:none;stroke-width:0.210584"
       id="rect3"
       width="0.3471972"
       height="1.3581307"
       x="3.8451488"
       y="6.3561406" />
    <ellipse
       style="fill:#6e9202;fill-opacity:1;stroke:none;stroke-width:0.114214;stroke-dasharray:none"
       id="path30"
       cx="-6.0063004"
       cy="4.3982549"
       transform="matrix(-0.93387829,-0.35759103,-0.35759103,0.93387829,0,0)"
       rx="0.20410903"
       ry="0.38846555" />
  </g>
  <g
     inkscape:groupmode="layer"
     id="layer1"
     inkscape:label="Layer 2">
    <rect
       style="fill:#bdca31;fill-opacity:0;stroke:none;stroke-width:0.497953"
       id="rect27"
       width="7.9687138"
       height="7.9687138"
       x="-7.7197375"
       y="0.24897645"
       inkscape:export-filename="Dandelion.svg"
       inkscape:export-xdpi="44.636486"
       inkscape:export-ydpi="44.636486"
       transform="matrix(-1.0624885,0,0,1.0624885,8.7312013,-0.26453461)" />
    <rect
       style="fill:#86a336;fill-opacity:0.919231;stroke:none;stroke-width:0.210584"
       id="rect28"
       width="0.3471972"
       height="1.3581307"
       x="-4.1235647"
       y="6.3561406"
       transform="matrix(-1.0624885,0,0,1.0624885,8.7312013,-0.26453461)" />
    <ellipse
       style="fill:#6e9202;fill-opacity:1;stroke:none;stroke-width:0.102492;stroke-dasharray:none"
       id="ellipse30"
       cx="1.4041964"
       cy="7.1602774"
       transform="matrix(0.99223494,-0.37993635,0.37993635,0.99223494,8.7312013,-0.26453461)"
       rx="0.18316031"
       ry="0.34859541" />
    <ellipse
       style="fill:#6e9202;fill-opacity:1;stroke:none;stroke-width:0.108897;stroke-dasharray:none"
       id="ellipse1"
       cx="18.065662"
       cy="12.588187"
       transform="rotate(-20.952326)"
       rx="0.19460572"
       ry="0.37037861" />
    <ellipse
       style="fill:#6e9202;fill-opacity:1;stroke:none;stroke-width:0.108897;stroke-dasharray:none"
       id="ellipse15"
       cx="25.997169"
       cy="15.798079"
       transform="rotate(-20.952326)"
       rx="0.19460572"
       ry="0.37037861" />
  </g>
  <g
     inkscape:groupmode="layer"
     id="g32"
     inkscape:label="Layer 2"
     transform="translate(8.4666664)">
    <rect
       style="fill:#bdca31;fill-opacity:0;stroke:none;stroke-width:0.497953"
       id="rect30"
       width="7.9687138"
       height="7.9687138"
       x="-7.7197375"
       y="0.24897645"
       inkscape:export-filename="Dandelion.svg"
       inkscape:export-xdpi="44.636486"
       inkscape:export-ydpi="44.636486"
       transform="matrix(-1.0624885,0,0,1.0624885,8.7312013,-0.26453461)" />
    <rect
       style="fill:#86a336;fill-opacity:0.919231;stroke:none;stroke-width:0.296104"
       id="rect31"
       width="0.36889303"
       height="2.5272927"
       x="-13.112441"
       y="5.4044971"
       transform="scale(-1,1)" />
    <rect
       style="fill:#bdca31;fill-opacity:0;stroke:none;stroke-width:0.529069"
       id="rect42"
       width="8.4666672"
       height="8.4666672"
       x="-25.4"
       y="9.2932053e-09"
       inkscape:export-filename="Dandelion.svg"
       inkscape:export-xdpi="44.636486"
       inkscape:export-ydpi="44.636486"
       transform="scale(-1,1)" />
    <rect
       style="fill:#86a336;fill-opacity:0.919231;stroke:none;stroke-width:0.296104"
       id="rect43"
       width="0.36889303"
       height="2.5272927"
       x="-21.579107"
       y="5.4044971"
       transform="scale(-1,1)" />
    <path
       style="fill:#363db6;stroke:none;stroke-width:1"
       d="m 4.1523745,5.9261649 c -0.00961,0.046118 -0.00192,0.080706 0.034589,0.1537274 0.036511,0.073021 0.1018434,0.1844711 0.1575699,0.1959996 0.055726,0.011528 0.1018435,-0.076862 0.1287456,-0.155648 0.026902,-0.078786 0.034588,-0.1479613 0.06149,-0.1902363 0.026902,-0.042275 0.07302,-0.057647 0.03843,-0.1076095 -0.03459,-0.049962 -0.1498825,-0.13451 -0.222903,-0.149882 -0.073021,-0.015372 -0.1037652,0.038431 -0.132589,0.094158 -0.028824,0.055726 -0.055725,0.1133729 -0.065333,0.1594911 z"
       id="path1"
       inkscape:path-effect="#path-effect1"
       inkscape:original-d="m 4.1350804,5.9376942 c 0.00769,0.034588 0.015372,0.069177 0.023059,0.1037653 0.065335,0.1114541 0.1306679,0.2229038 0.1960017,0.3343558 0.046119,-0.088395 0.092236,-0.1767858 0.1383541,-0.2651786 0.00769,-0.069178 0.015372,-0.1383541 0.023058,-0.2075313 0.046119,-0.015372 0.092236,-0.030745 0.1383541,-0.046118 C 4.5386097,5.7724362 4.423317,5.6878881 4.3080219,5.6033386 4.277276,5.657144 4.2465314,5.7109473 4.215786,5.7647516 4.1888832,5.8224001 4.1619817,5.8800465 4.1350804,5.9376942 Z" />
    <path
       style="fill:#363db6;stroke:none;stroke-width:1"
       d="m 12.860508,5.0518885 c 0,-0.019022 0,-0.057068 0.0027,-0.1847941 0.0027,-0.1277256 0.0082,-0.3451244 0.0761,-0.4402378 0.06794,-0.095113 0.198379,-0.067939 0.2636,0.016306 0.06522,0.084245 0.06522,0.2255536 0.03805,0.3179496 -0.02718,0.092396 -0.08153,0.1358764 -0.149466,0.1793578 -0.06794,0.043482 -0.149462,0.08696 -0.190226,0.1087002 -0.04076,0.02174 -0.04077,0.021741 -0.04077,0.00272 z"
       id="path4"
       inkscape:original-d="m 12.860508,5.070911 c 0,-0.038045 0,-0.076091 0,-0.1141365 0.0054,-0.2174066 0.01087,-0.4348046 0.01631,-0.6522072 0.130444,0.027176 0.260883,0.054351 0.391324,0.081526 0,0.1413142 0,0.2826231 0,0.4239347 -0.05435,0.043481 -0.108701,0.086961 -0.163052,0.1304414 -0.08153,0.043481 -0.163051,0.086961 -0.244578,0.1304415 z"
       inkscape:path-effect="#path-effect5" />
    <path
       style="fill:#363db6;stroke:none;stroke-width:1"
       d="m 12.860508,5.0518885 c 0,-0.019022 0,-0.057068 0.0027,-0.1847941 0.0027,-0.1277256 0.0082,-0.3451244 0.0761,-0.4402378 0.06794,-0.095113 0.198379,-0.067939 0.2636,0.016306 0.06522,0.084245 0.06522,0.2255536 0.03805,0.3179496 -0.02718,0.092396 -0.08153,0.1358764 -0.149466,0.1793578 -0.06794,0.043482 -0.149462,0.08696 -0.190226,0.1087002 -0.04076,0.02174 -0.04077,0.021741 -0.04077,0.00272 z"
       id="path8"
       inkscape:original-d="m 12.860508,5.070911 c 0,-0.038045 0,-0.076091 0,-0.1141365 0.0054,-0.2174066 0.01087,-0.4348046 0.01631,-0.6522072 0.130444,0.027176 0.260883,0.054351 0.391324,0.081526 0,0.1413142 0,0.2826231 0,0.4239347 -0.05435,0.043481 -0.108701,0.086961 -0.163052,0.1304414 -0.08153,0.043481 -0.163051,0.086961 -0.244578,0.1304415 z"
       inkscape:path-effect="#path-effect10"
       transform="rotate(45,12.846301,5.092772)" />
    <path
       style="fill:#363db6;stroke:none;stroke-width:1"
       d="m 12.860508,5.0518885 c 0,-0.019022 0,-0.057068 0.0027,-0.1847941 0.0027,-0.1277256 0.0082,-0.3451244 0.0761,-0.4402378 0.06794,-0.095113 0.198379,-0.067939 0.2636,0.016306 0.06522,0.084245 0.06522,0.2255536 0.03805,0.3179496 -0.02718,0.092396 -0.08153,0.1358764 -0.149466,0.1793578 -0.06794,0.043482 -0.149462,0.08696 -0.190226,0.1087002 -0.04076,0.02174 -0.04077,0.021741 -0.04077,0.00272 z"
       id="path10"
       inkscape:original-d="m 12.860508,5.070911 c 0,-0.038045 0,-0.076091 0,-0.1141365 0.0054,-0.2174066 0.01087,-0.4348046 0.01631,-0.6522072 0.130444,0.027176 0.260883,0.054351 0.391324,0.081526 0,0.1413142 0,0.2826231 0,0.4239347 -0.05435,0.043481 -0.108701,0.086961 -0.163052,0.1304414 -0.08153,0.043481 -0.163051,0.086961 -0.244578,0.1304415 z"
       inkscape:path-effect="#path-effect15"
       transform="rotate(105,12.874487,5.0846868)" />
    <ellipse
       style="fill:#ffec8c;stroke:none;stroke-width:1"
       id="path15"
       cx="12.933883"
       cy="5.0790634"
       rx="0.13859402"
       ry="0.17120439" />
    <g
       id="g33"
       transform="matrix(1.3647872,0,0,1.3647872,-7.9041739,-2.0349974)">
      <path
         style="fill:#363db6;stroke:none;stroke-width:1"
         d="m 12.860508,5.0518885 c 0,-0.019022 0,-0.057068 0.0027,-0.1847941 0.0027,-0.1277256 0.0082,-0.3451244 0.0761,-0.4402378 0.06794,-0.095113 0.198379,-0.067939 0.2636,0.016306 0.06522,0.084245 0.06522,0.2255536 0.03805,0.3179496 -0.02718,0.092396 -0.08153,0.1358764 -0.149466,0.1793578 -0.06794,0.043482 -0.149462,0.08696 -0.190226,0.1087002 -0.04076,0.02174 -0.04077,0.021741 -0.04077,0.00272 z"
         id="path31"
         inkscape:original-d="m 12.860508,5.070911 c 0,-0.038045 0,-0.076091 0,-0.1141365 0.0054,-0.2174066 0.01087,-0.4348046 0.01631,-0.6522072 0.130444,0.027176 0.260883,0.054351 0.391324,0.081526 0,0.1413142 0,0.2826231 0,0.4239347 -0.05435,0.043481 -0.108701,0.086961 -0.163052,0.1304414 -0.08153,0.043481 -0.163051,0.086961 -0.244578,0.1304415 z"
         inkscape:path-effect="#path-effect33"
         transform="rotate(-61.06714,17.318473,-2.1249116)"
         inkscape:transform-center-x="0.16260441"
         inkscape:transform-center-y="-0.046519952" />
      <path
         style="fill:#363db6;stroke:none;stroke-width:1"
         d="m 12.860508,5.0518885 c 0,-0.019022 0,-0.057068 0.0027,-0.1847941 0.0027,-0.1277256 0.0082,-0.3451244 0.0761,-0.4402378 0.06794,-0.095113 0.198379,-0.067939 0.2636,0.016306 0.06522,0.084245 0.06522,0.2255536 0.03805,0.3179496 -0.02718,0.092396 -0.08153,0.1358764 -0.149466,0.1793578 -0.06794,0.043482 -0.149462,0.08696 -0.190226,0.1087002 -0.04076,0.02174 -0.04077,0.021741 -0.04077,0.00272 z"
         id="path16"
         inkscape:original-d="m 12.860508,5.070911 c 0,-0.038045 0,-0.076091 0,-0.1141365 0.0054,-0.2174066 0.01087,-0.4348046 0.01631,-0.6522072 0.130444,0.027176 0.260883,0.054351 0.391324,0.081526 0,0.1413142 0,0.2826231 0,0.4239347 -0.05435,0.043481 -0.108701,0.086961 -0.163052,0.1304414 -0.08153,0.043481 -0.163051,0.086961 -0.244578,0.1304415 z"
         inkscape:path-effect="#path-effect22"
         transform="translate(8.5548914,0.16141305)" />
      <path
         style="fill:#363db6;stroke:none;stroke-width:1"
         d="m 12.860508,5.0518885 c 0,-0.019022 0,-0.057068 0.0027,-0.1847941 0.0027,-0.1277256 0.0082,-0.3451244 0.0761,-0.4402378 0.06794,-0.095113 0.198379,-0.067939 0.2636,0.016306 0.06522,0.084245 0.06522,0.2255536 0.03805,0.3179496 -0.02718,0.092396 -0.08153,0.1358764 -0.149466,0.1793578 -0.06794,0.043482 -0.149462,0.08696 -0.190226,0.1087002 -0.04076,0.02174 -0.04077,0.021741 -0.04077,0.00272 z"
         id="path17"
         inkscape:original-d="m 12.860508,5.070911 c 0,-0.038045 0,-0.076091 0,-0.1141365 0.0054,-0.2174066 0.01087,-0.4348046 0.01631,-0.6522072 0.130444,0.027176 0.260883,0.054351 0.391324,0.081526 0,0.1413142 0,0.2826231 0,0.4239347 -0.05435,0.043481 -0.108701,0.086961 -0.163052,0.1304414 -0.08153,0.043481 -0.163051,0.086961 -0.244578,0.1304415 z"
         inkscape:path-effect="#path-effect25"
         transform="rotate(45,16.928904,15.500146)" />
      <path
         style="fill:#363db6;stroke:none;stroke-width:1"
         d="m 12.860508,5.0518885 c 0,-0.019022 0,-0.057068 0.0027,-0.1847941 0.0027,-0.1277256 0.0082,-0.3451244 0.0761,-0.4402378 0.06794,-0.095113 0.198379,-0.067939 0.2636,0.016306 0.06522,0.084245 0.06522,0.2255536 0.03805,0.3179496 -0.02718,0.092396 -0.08153,0.1358764 -0.149466,0.1793578 -0.06794,0.043482 -0.149462,0.08696 -0.190226,0.1087002 -0.04076,0.02174 -0.04077,0.021741 -0.04077,0.00272 z"
         id="path18"
         inkscape:original-d="m 12.860508,5.070911 c 0,-0.038045 0,-0.076091 0,-0.1141365 0.0054,-0.2174066 0.01087,-0.4348046 0.01631,-0.6522072 0.130444,0.027176 0.260883,0.054351 0.391324,0.081526 0,0.1413142 0,0.2826231 0,0.4239347 -0.05435,0.043481 -0.108701,0.086961 -0.163052,0.1304414 -0.08153,0.043481 -0.163051,0.086961 -0.244578,0.1304415 z"
         inkscape:path-effect="#path-effect27"
         transform="rotate(105,17.090004,8.4475928)" />
      <path
         style="fill:#363db6;stroke:none;stroke-width:1"
         d="m 12.860508,5.0518885 c 0,-0.019022 0,-0.057068 0.0027,-0.1847941 0.0027,-0.1277256 0.0082,-0.3451244 0.0761,-0.4402378 0.06794,-0.095113 0.198379,-0.067939 0.2636,0.016306 0.06522,0.084245 0.06522,0.2255536 0.03805,0.3179496 -0.02718,0.092396 -0.08153,0.1358764 -0.149466,0.1793578 -0.06794,0.043482 -0.149462,0.08696 -0.190226,0.1087002 -0.04076,0.02174 -0.04077,0.021741 -0.04077,0.00272 z"
         id="path27"
         inkscape:original-d="m 12.860508,5.070911 c 0,-0.038045 0,-0.076091 0,-0.1141365 0.0054,-0.2174066 0.01087,-0.4348046 0.01631,-0.6522072 0.130444,0.027176 0.260883,0.054351 0.391324,0.081526 0,0.1413142 0,0.2826231 0,0.4239347 -0.05435,0.043481 -0.108701,0.086961 -0.163052,0.1304414 -0.08153,0.043481 -0.163051,0.086961 -0.244578,0.1304415 z"
         inkscape:path-effect="#path-effect29"
         transform="rotate(165,17.198805,5.6964731)" />
      <path
         style="fill:#363db6;stroke:none;stroke-width:1"
         d="m 12.860508,5.0518885 c 0,-0.019022 0,-0.057068 0.0027,-0.1847941 0.0027,-0.1277256 0.0082,-0.3451244 0.0761,-0.4402378 0.06794,-0.095113 0.198379,-0.067939 0.2636,0.016306 0.06522,0.084245 0.06522,0.2255536 0.03805,0.3179496 -0.02718,0.092396 -0.08153,0.1358764 -0.149466,0.1793578 -0.06794,0.043482 -0.149462,0.08696 -0.190226,0.1087002 -0.04076,0.02174 -0.04077,0.021741 -0.04077,0.00272 z"
         id="path29"
         inkscape:original-d="m 12.860508,5.070911 c 0,-0.038045 0,-0.076091 0,-0.1141365 0.0054,-0.2174066 0.01087,-0.4348046 0.01631,-0.6522072 0.130444,0.027176 0.260883,0.054351 0.391324,0.081526 0,0.1413142 0,0.2826231 0,0.4239347 -0.05435,0.043481 -0.108701,0.086961 -0.163052,0.1304414 -0.08153,0.043481 -0.163051,0.086961 -0.244578,0.1304415 z"
         inkscape:path-effect="#path-effect31"
         transform="rotate(-121.06714,17.296353,2.703004)"
         inkscape:transform-center-x="0.089678489"
         inkscape:transform-center-y="0.081525899" />
      <ellipse
         style="fill:#ffec8c;stroke:none;stroke-width:1"
         id="ellipse18"
         cx="21.488773"
         cy="5.2404766"
         rx="0.13859402"
         ry="0.17120439" />
    </g>
  </g>
</svg>
