<?xml version="1.0" encoding="UTF-8" standalone="no"?>
<!-- Created with Inkscape (http://www.inkscape.org/) -->

<svg
   width="64.000008"
   height="64.000008"
   viewBox="0 0 16.933335 16.933335"
   version="1.1"
   id="svg1"
   inkscape:version="1.3.2 (091e20e, 2023-11-25, custom)"
   sodipodi:docname="Dandelion_Scene.svg"
   xmlns:inkscape="http://www.inkscape.org/namespaces/inkscape"
   xmlns:sodipodi="http://sodipodi.sourceforge.net/DTD/sodipodi-0.dtd"
   xmlns="http://www.w3.org/2000/svg"
   xmlns:svg="http://www.w3.org/2000/svg">
  <sodipodi:namedview
     id="namedview1"
     pagecolor="#ffffff"
     bordercolor="#000000"
     borderopacity="0.25"
     inkscape:showpageshadow="2"
     inkscape:pageopacity="0.0"
     inkscape:pagecheckerboard="0"
     inkscape:deskcolor="#d1d1d1"
     inkscape:document-units="mm"
     showgrid="true"
     inkscape:zoom="5.7370931"
     inkscape:cx="59.960679"
     inkscape:cy="107.2843"
     inkscape:window-width="1920"
     inkscape:window-height="1001"
     inkscape:window-x="-7"
     inkscape:window-y="-7"
     inkscape:window-maximized="1"
     inkscape:current-layer="g16">
    <inkscape:grid
       id="grid1"
       units="px"
       originx="-16.933332"
       originy="-16.933332"
       spacingx="8.4666666"
       spacingy="8.4666666"
       empcolor="#0099e5"
       empopacity="0.30196078"
       color="#0099e5"
       opacity="0.14901961"
       empspacing="5"
       dotted="false"
       gridanglex="30"
       gridanglez="30"
       visible="true" />
  </sodipodi:namedview>
  <defs
     id="defs1">
    <inkscape:path-effect
       effect="copy_rotate"
       starting_point="0,0"
       origin="20.744992,19.646596"
       id="path-effect23"
       is_visible="true"
       lpeversion="1.2"
       lpesatellites=""
       method="normal"
       num_copies="12"
       starting_angle="0"
       rotation_angle="30"
       gap="-0.01"
       copies_to_360="true"
       mirror_copies="false"
       split_items="false"
       link_styles="false" />
    <inkscape:path-effect
       effect="copy_rotate"
       starting_point="0,0"
       origin="20.744992,19.646596"
       id="path-effect21"
       is_visible="true"
       lpeversion="1.2"
       lpesatellites=""
       method="normal"
       num_copies="12"
       starting_angle="0"
       rotation_angle="30"
       gap="-0.01"
       copies_to_360="true"
       mirror_copies="false"
       split_items="false"
       link_styles="false" />
  </defs>
  <g
     inkscape:label="Layer 1"
     inkscape:groupmode="layer"
     id="g16"
     transform="matrix(-1.0624885,0,0,1.0624885,34.131202,-17.197867)">
    <rect
       style="fill:#457b47;fill-opacity:0;stroke:none;stroke-width:0.0941633;stroke-dasharray:none"
       id="rect25"
       width="15.937428"
       height="15.937428"
       x="-32.123833"
       y="16.186403"
       transform="scale(-1,1)"
       inkscape:export-filename="Dandelion_Full.svg"
       inkscape:export-xdpi="44.636486"
       inkscape:export-ydpi="44.636486" />
    <rect
       style="fill:#457b47;fill-opacity:1;stroke:none;stroke-width:0.0941187;stroke-dasharray:none"
       id="rect23"
       width="0.39900166"
       height="6.6295662"
       x="-24.428085"
       y="22.34753"
       transform="scale(-1,1)" />
    <g
       id="g23"
       transform="translate(0,-0.15346218)">
      <path
         style="fill:#ffcc5d;fill-opacity:1;stroke:none;stroke-width:0.0941187;stroke-dasharray:none"
         d="m 23.630081,18.541668 c 0,0 -1.90293,2.639549 -2.148471,2.639549 -0.245539,0 -0.736618,-1.104928 -0.736618,-1.104928 l 1.166313,-1.289082 1.227698,-0.675233 z m -0.938993,-1.294512 c 0,0 -0.328211,3.237381 -0.540856,3.360152 -0.212643,0.122769 -1.190394,-0.588587 -1.190394,-0.588587 l 0.365516,-1.699534 0.725601,-1.198618 z m -1.460447,-0.651584 c 0,0 1.334451,2.96776 1.211681,3.180405 -0.12277,0.212643 -1.325205,0.08546 -1.325205,0.08546 l -0.533221,-1.654597 0.02908,-1.400834 z m -1.590577,0.165935 c 0,0 2.639549,1.90293 2.639549,2.148471 0,0.245539 -1.104928,0.736618 -1.104928,0.736618 L 19.885603,18.480283 19.21037,17.252585 Z M 18.345552,17.7005 c 0,0 3.237381,0.328211 3.360152,0.540856 0.122769,0.212643 -0.588587,1.190394 -0.588587,1.190394 l -1.699534,-0.365516 -1.198618,-0.725601 z m -0.651584,1.460447 c 0,0 2.96776,-1.334451 3.180405,-1.211681 0.212643,0.12277 0.08547,1.325205 0.08547,1.325205 l -1.654597,0.533221 -1.400834,-0.02908 z m 0.165935,1.590577 c 0,0 1.90293,-2.639549 2.148471,-2.639549 0.245539,0 0.736618,1.104928 0.736618,1.104928 l -1.166313,1.289082 -1.227698,0.675233 z m 0.938993,1.294512 c 0,0 0.328211,-3.237381 0.540856,-3.360152 0.212643,-0.122769 1.190393,0.588587 1.190393,0.588587 l -0.365515,1.699534 -0.725601,1.198618 z m 1.460447,0.651584 c 0,0 -1.334451,-2.96776 -1.211681,-3.180405 0.12277,-0.212643 1.325205,-0.08547 1.325205,-0.08547 l 0.533221,1.654598 -0.02908,1.400834 z m 1.590577,-0.165935 c 0,0 -2.639549,-1.90293 -2.639549,-2.148471 0,-0.245539 1.104928,-0.736618 1.104928,-0.736618 l 1.289082,1.166313 0.675233,1.227698 z m 1.294512,-0.938993 c 0,0 -3.237381,-0.328211 -3.360152,-0.540856 -0.122769,-0.212643 0.588587,-1.190394 0.588587,-1.190394 l 1.699534,0.365516 1.198618,0.725601 z m 0.651584,-1.460447 c 0,0 -2.96776,1.334451 -3.180405,1.211681 -0.212643,-0.12277 -0.08547,-1.325205 -0.08547,-1.325205 l 1.654598,-0.533221 1.400834,0.02908 z"
         id="path20"
         inkscape:path-effect="#path-effect21"
         inkscape:original-d="m 23.630081,18.541668 c 0,0 -1.90293,2.639549 -2.148471,2.639549 -0.245539,0 -0.736618,-1.104928 -0.736618,-1.104928 l 1.166313,-1.289082 1.227698,-0.675233 z"
         transform="matrix(0.75103476,0,0,0.75103476,8.595062,6.9447824)" />
      <path
         style="fill:#6d5624;fill-opacity:1;stroke:none;stroke-width:0.0941187;stroke-dasharray:none"
         d="m 23.630081,18.541668 c 0,0 -1.90293,2.639549 -2.148471,2.639549 -0.245539,0 -0.736618,-1.104928 -0.736618,-1.104928 l 1.166313,-1.289082 1.227698,-0.675233 z m -0.938993,-1.294512 c 0,0 -0.328211,3.237381 -0.540856,3.360152 -0.212643,0.122769 -1.190394,-0.588587 -1.190394,-0.588587 l 0.365516,-1.699534 0.725601,-1.198618 z m -1.460447,-0.651584 c 0,0 1.334451,2.96776 1.211681,3.180405 -0.12277,0.212643 -1.325205,0.08546 -1.325205,0.08546 l -0.533221,-1.654597 0.02908,-1.400834 z m -1.590577,0.165935 c 0,0 2.639549,1.90293 2.639549,2.148471 0,0.245539 -1.104928,0.736618 -1.104928,0.736618 L 19.885603,18.480283 19.21037,17.252585 Z M 18.345552,17.7005 c 0,0 3.237381,0.328211 3.360152,0.540856 0.122769,0.212643 -0.588587,1.190394 -0.588587,1.190394 l -1.699534,-0.365516 -1.198618,-0.725601 z m -0.651584,1.460447 c 0,0 2.96776,-1.334451 3.180405,-1.211681 0.212643,0.12277 0.08547,1.325205 0.08547,1.325205 l -1.654597,0.533221 -1.400834,-0.02908 z m 0.165935,1.590577 c 0,0 1.90293,-2.639549 2.148471,-2.639549 0.245539,0 0.736618,1.104928 0.736618,1.104928 l -1.166313,1.289082 -1.227698,0.675233 z m 0.938993,1.294512 c 0,0 0.328211,-3.237381 0.540856,-3.360152 0.212643,-0.122769 1.190393,0.588587 1.190393,0.588587 l -0.365515,1.699534 -0.725601,1.198618 z m 1.460447,0.651584 c 0,0 -1.334451,-2.96776 -1.211681,-3.180405 0.12277,-0.212643 1.325205,-0.08547 1.325205,-0.08547 l 0.533221,1.654598 -0.02908,1.400834 z m 1.590577,-0.165935 c 0,0 -2.639549,-1.90293 -2.639549,-2.148471 0,-0.245539 1.104928,-0.736618 1.104928,-0.736618 l 1.289082,1.166313 0.675233,1.227698 z m 1.294512,-0.938993 c 0,0 -3.237381,-0.328211 -3.360152,-0.540856 -0.122769,-0.212643 0.588587,-1.190394 0.588587,-1.190394 l 1.699534,0.365516 1.198618,0.725601 z m 0.651584,-1.460447 c 0,0 -2.96776,1.334451 -3.180405,1.211681 -0.212643,-0.12277 -0.08547,-1.325205 -0.08547,-1.325205 l 1.654598,-0.533221 1.400834,0.02908 z"
         id="path21"
         inkscape:path-effect="#path-effect23"
         inkscape:original-d="m 23.630081,18.541668 c 0,0 -1.90293,2.639549 -2.148471,2.639549 -0.245539,0 -0.736618,-1.104928 -0.736618,-1.104928 l 1.166313,-1.289082 1.227698,-0.675233 z"
         transform="matrix(0.14996154,0,0,0.14996154,21.075172,18.764676)" />
      <ellipse
         style="fill:#6d5624;fill-opacity:1;stroke:none;stroke-width:0.0941187;stroke-dasharray:none"
         id="path23"
         cx="-24.213238"
         cy="21.706825"
         transform="scale(-1,1)"
         rx="0.15346217"
         ry="0.1342794" />
    </g>
    <path
       style="fill:#457b47;fill-opacity:1;stroke:none;stroke-width:0.0941187;stroke-dasharray:none"
       d="m 24.370423,28.483834 c 0,0 0.06138,-0.798001 -0.705926,-1.442543 -0.271724,-0.167293 -1.804825,-1.985994 -2.056393,-1.104927 -0.03069,0.429693 -0.675234,1.104927 -0.03069,1.503928 0.644542,0.399003 1.043543,0.552465 1.38116,0.767312 0.337617,0.214846 1.043543,0.491079 1.043543,0.491079 z"
       id="path24"
       sodipodi:nodetypes="csssscc" />
    <path
       style="fill:#457b47;fill-opacity:1;stroke:none;stroke-width:0.0941187;stroke-dasharray:none"
       d="m 24.458777,27.80642 c 0,0 1.25839,-2.117778 1.38116,-2.117778 0.122769,0 1.166312,-0.09208 1.319774,0.06138 0.153462,0.153463 0.276232,0.675234 0.06139,1.012851 -0.214847,0.337617 -2.547472,1.626698 -2.547472,1.626698 l -0.736618,0.214849 z"
       id="path25" />
  </g>
</svg>
