<?xml version="1.0" encoding="UTF-8" standalone="no"?>
<!-- Created with Inkscape (http://www.inkscape.org/) -->

<svg
   width="192"
   height="32.000004"
   viewBox="0 0 50.799999 8.4666677"
   version="1.1"
   id="svg1"
   xmlns:inkscape="http://www.inkscape.org/namespaces/inkscape"
   xmlns:sodipodi="http://sodipodi.sourceforge.net/DTD/sodipodi-0.dtd"
   xmlns="http://www.w3.org/2000/svg"
   xmlns:svg="http://www.w3.org/2000/svg">
  <sodipodi:namedview
     id="namedview1"
     pagecolor="#ffffff"
     bordercolor="#000000"
     borderopacity="0.25"
     inkscape:showpageshadow="2"
     inkscape:pageopacity="0.0"
     inkscape:pagecheckerboard="0"
     inkscape:deskcolor="#d1d1d1"
     inkscape:document-units="mm"
     showgrid="true">
    <inkscape:grid
       id="grid1"
       units="px"
       originx="4.9484431e-08"
       originy="-9.2932053e-09"
       spacingx="8.4666666"
       spacingy="8.4666666"
       empcolor="#0099e5"
       empopacity="0.30196078"
       color="#0099e5"
       opacity="0.14901961"
       empspacing="5"
       dotted="false"
       gridanglex="30"
       gridanglez="30"
       visible="true" />
  </sodipodi:namedview>
  <defs
     id="defs1">
    <inkscape:path-effect
       effect="bspline"
       id="path-effect20"
       is_visible="true"
       lpeversion="1.3"
       weight="33.333333"
       steps="2"
       helper_size="0"
       apply_no_weight="true"
       apply_with_weight="true"
       only_selected="false"
       uniform="false" />
    <inkscape:path-effect
       effect="bspline"
       id="path-effect19"
       is_visible="true"
       lpeversion="1.3"
       weight="33.333333"
       steps="2"
       helper_size="0"
       apply_no_weight="true"
       apply_with_weight="true"
       only_selected="false"
       uniform="false" />
    <inkscape:path-effect
       effect="bspline"
       id="path-effect17"
       is_visible="true"
       lpeversion="1.3"
       weight="33.333333"
       steps="2"
       helper_size="0"
       apply_no_weight="true"
       apply_with_weight="true"
       only_selected="false"
       uniform="false" />
    <inkscape:path-effect
       effect="bspline"
       id="path-effect14"
       is_visible="true"
       lpeversion="1.3"
       weight="33.333333"
       steps="2"
       helper_size="0"
       apply_no_weight="true"
       apply_with_weight="true"
       only_selected="false"
       uniform="false" />
    <inkscape:path-effect
       effect="bspline"
       id="path-effect12"
       is_visible="true"
       lpeversion="1.3"
       weight="33.333333"
       steps="2"
       helper_size="0"
       apply_no_weight="true"
       apply_with_weight="true"
       only_selected="false"
       uniform="false" />
    <inkscape:path-effect
       effect="bspline"
       id="path-effect9"
       is_visible="true"
       lpeversion="1.3"
       weight="33.333333"
       steps="2"
       helper_size="0"
       apply_no_weight="true"
       apply_with_weight="true"
       only_selected="false"
       uniform="false" />
    <inkscape:path-effect
       effect="bspline"
       id="path-effect3"
       is_visible="true"
       lpeversion="1.3"
       weight="33.333333"
       steps="2"
       helper_size="0"
       apply_no_weight="true"
       apply_with_weight="true"
       only_selected="false"
       uniform="false" />
  </defs>
  <g
     inkscape:label="Layer 1"
     inkscape:groupmode="layer"
     id="g2"
     transform="matrix(-1.0624885,0,0,1.0624885,8.7312013,-0.26453462)">
    <rect
       style="fill:#bdca31;fill-opacity:0;stroke:none;stroke-width:0.497953"
       id="rect2"
       width="7.9687138"
       height="7.9687138"
       x="0.24897645"
       y="0.24897645" />
    <rect
       style="fill:#bdca31;fill-opacity:0.919231;stroke:#bdca31;stroke-width:0.253488"
       id="rect3"
       width="0.8769533"
       height="0.77912247"
       x="3.5399868"
       y="6.6379714" />
    <path
       style="fill:#bdca31;fill-opacity:0.919231;stroke:#bdca31;stroke-width:0.1;stroke-dasharray:none"
       d="M 3.4159351,6.8427404 C 3.2501658,6.7231689 3.0762439,6.5166367 3.0572226,6.3209727 3.0382012,6.1253087 3.174075,5.9405204 3.3561517,5.8562772 3.5382284,5.7720339 3.7664964,5.788339 4.0518405,5.8753015 4.3371847,5.9622641 4.6795864,6.1198776 4.8045919,6.3236949 4.9295974,6.5275123 4.8372033,6.77752 4.6496909,6.9025264 4.4621785,7.0275329 4.179561,7.0275329 3.9594395,7.0112273 3.739318,6.9949217 3.5817045,6.9623118 3.4159351,6.8427404 Z"
       id="path3"
       inkscape:path-effect="#path-effect3"
       inkscape:original-d="M 3.4240877,6.9297012 C 3.2501657,6.723169 3.076244,6.5166366 2.902322,6.3101045 3.0382011,6.1253086 3.174075,5.9405204 3.3099515,5.7557283 c 0.2282769,0.016306 0.4565449,0.03261 0.6848176,0.048916 0.3424155,0.15762 0.6848173,0.3152333 1.0272262,0.4728501 -0.092398,0.2500178 -0.1847921,0.5000255 -0.277188,0.7500385 -0.2826288,0 -0.5652463,0 -0.8478695,0 C 3.7393181,6.9949213 3.5817045,6.9623116 3.4240877,6.9297012 Z" />
  </g>
  <g
     inkscape:label="Layer 1"
     inkscape:groupmode="layer"
     id="g5"
     transform="matrix(-1.0624885,0,0,1.0624885,17.197868,-0.26453462)">
    <rect
       style="fill:#bdca31;fill-opacity:0;stroke:none;stroke-width:0.497953"
       id="rect4"
       width="7.9687138"
       height="7.9687138"
       x="0.24897645"
       y="0.24897645" />
    <path
       id="rect5"
       style="fill:#bdca31;fill-opacity:0.919231;stroke:#bdca31;stroke-width:0.253488"
       d="M 3.5399868,6.1399268 H 4.4169402 V 7.4170939 H 3.5399868 Z"
       sodipodi:nodetypes="ccccc" />
  </g>
  <g
     inkscape:label="Layer 1"
     inkscape:groupmode="layer"
     id="g6"
     transform="matrix(-1.0624885,0,0,1.0624885,25.664535,-0.26453462)">
    <rect
       style="fill:#bdca31;fill-opacity:0;stroke:none;stroke-width:0.497953"
       id="rect6"
       width="7.9687138"
       height="7.9687138"
       x="0.24897645"
       y="0.24897645" />
    <path
       id="path6"
       style="fill:#bdca31;fill-opacity:0.919231;stroke:#bdca31;stroke-width:0.253488"
       d="M 3.5399868,4.645793 H 4.4169402 V 7.4170939 H 3.5399868 Z"
       sodipodi:nodetypes="ccccc" />
    <circle
       style="fill:#457b47;fill-opacity:0.919231;stroke:none;stroke-width:0.0941187;stroke-dasharray:none"
       id="path7"
       cx="-3.9823387"
       cy="4.1012282"
       r="0.92237025"
       transform="scale(-1,1)" />
  </g>
  <g
     inkscape:label="Layer 1"
     inkscape:groupmode="layer"
     id="g8"
     transform="matrix(-1.0624885,0,0,1.0624885,34.131201,-0.26453462)">
    <rect
       style="fill:#bdca31;fill-opacity:0;stroke:none;stroke-width:0.497953"
       id="rect7"
       width="7.9687138"
       height="7.9687138"
       x="0.24897645"
       y="0.24897645" />
    <path
       id="path8"
       style="fill:#bdca31;fill-opacity:0.919231;stroke:#bdca31;stroke-width:0.253488"
       d="M 3.5399868,4.645793 H 4.4169402 V 7.4170939 H 3.5399868 Z"
       sodipodi:nodetypes="ccccc" />
    <circle
       style="fill:#457b47;fill-opacity:0.919231;stroke:none;stroke-width:0.0941187;stroke-dasharray:none"
       id="circle8"
       cx="-3.9823387"
       cy="4.1012282"
       r="0.92237025"
       transform="scale(-1,1)" />
    <path
       style="fill:#ffcc5d;fill-opacity:1;stroke:none;stroke-width:0.0941187;stroke-dasharray:none"
       d="M 4.9518896,2.9075728 C 4.9229526,2.9401268 4.8940151,2.9835328 4.8361397,3.1752446 4.7782644,3.3669564 4.6914546,3.7069606 4.5720879,3.9746304 4.4527212,4.2423002 4.300804,4.4376228 4.1163281,4.5171993 3.9318521,4.5967757 3.7148291,4.5606053 3.5448216,4.4014483 3.3748141,4.2422913 3.2518345,3.9601603 3.1397023,3.7503647 3.0275702,3.5405692 2.9262925,3.4031208 2.9407621,3.2873718 2.9552317,3.1716227 3.0854458,3.0775792 3.2228984,3.0450248 3.360351,3.0124703 3.5050353,3.0414071 3.6858939,2.9690623 3.8667525,2.8967175 4.0837756,2.7230987 4.2610172,2.6290529 c 0.1772416,-0.094046 0.3146895,-0.108514 0.4376734,-0.061491 0.1229839,0.047023 0.2314968,0.1555363 0.2712849,0.2206451 0.039788,0.065109 0.010851,0.086812 -0.018086,0.1193656 z"
       id="path9"
       inkscape:path-effect="#path-effect9"
       inkscape:original-d="m 4.9518897,2.8967215 c -0.028936,0.043406 -0.057875,0.086811 -0.086812,0.130217 C 4.7782639,3.3669563 4.6914547,3.7069606 4.6046431,4.0469714 4.452722,4.2423008 4.3008035,4.4376224 4.148885,4.6329478 3.9318521,4.5967758 3.7148291,4.5606051 3.4977987,4.5244336 3.3748141,4.2422913 3.2518344,3.9601603 3.1288523,3.6780235 3.0275699,3.5405694 2.9262925,3.4031208 2.8250127,3.2656697 2.9552314,3.1716222 3.0854452,3.0775784 3.2156639,2.9835329 c 0.144687,0.028938 0.2893714,0.057874 0.4340559,0.086811 0.2170329,-0.1736261 0.4340558,-0.3472452 0.6510837,-0.5208678 0.1374553,-0.014469 0.2749032,-0.028937 0.412356,-0.043406 0.108514,0.1085163 0.2170279,0.2170283 0.3255419,0.3255425 -0.028939,0.021702 -0.057875,0.043406 -0.086812,0.065109 z" />
  </g>
  <g
     inkscape:label="Layer 1"
     inkscape:groupmode="layer"
     id="g11"
     transform="matrix(-1.0624885,0,0,1.0624885,42.597868,-0.26453462)">
    <rect
       style="fill:#bdca31;fill-opacity:0;stroke:none;stroke-width:0.497953"
       id="rect9"
       width="7.9687138"
       height="7.9687138"
       x="0.24897645"
       y="0.24897645" />
    <path
       id="path10"
       style="fill:#bdca31;fill-opacity:0.919231;stroke:#bdca31;stroke-width:0.253488"
       d="M 3.5399868,4.645793 H 4.4169402 V 7.4170939 H 3.5399868 Z"
       sodipodi:nodetypes="ccccc" />
    <path
       style="fill:#ffcc5d;fill-opacity:1;stroke:none;stroke-width:0.0941187;stroke-dasharray:none"
       d="M 4.9518896,2.9075728 C 4.9229526,2.9401268 4.8940151,2.9835328 4.8361397,3.1752446 4.7782644,3.3669564 4.6914546,3.7069606 4.5720879,3.9746304 4.4527212,4.2423002 4.300804,4.4376228 4.1163281,4.5171993 3.9318521,4.5967757 3.7148291,4.5606053 3.5448216,4.4014483 3.3748141,4.2422913 3.2518345,3.9601603 3.1397023,3.7503647 3.0275702,3.5405692 2.9262925,3.4031208 2.9407621,3.2873718 2.9552317,3.1716227 3.0854458,3.0775792 3.2228984,3.0450248 3.360351,3.0124703 3.5050353,3.0414071 3.6858939,2.9690623 3.8667525,2.8967175 4.0837756,2.7230987 4.2610172,2.6290529 c 0.1772416,-0.094046 0.3146895,-0.108514 0.4376734,-0.061491 0.1229839,0.047023 0.2314968,0.1555363 0.2712849,0.2206451 0.039788,0.065109 0.010851,0.086812 -0.018086,0.1193656 z"
       id="path11"
       inkscape:path-effect="#path-effect12"
       inkscape:original-d="m 4.9518897,2.8967215 c -0.028936,0.043406 -0.057875,0.086811 -0.086812,0.130217 C 4.7782639,3.3669563 4.6914547,3.7069606 4.6046431,4.0469714 4.452722,4.2423008 4.3008035,4.4376224 4.148885,4.6329478 3.9318521,4.5967758 3.7148291,4.5606051 3.4977987,4.5244336 3.3748141,4.2422913 3.2518344,3.9601603 3.1288523,3.6780235 3.0275699,3.5405694 2.9262925,3.4031208 2.8250127,3.2656697 2.9552314,3.1716222 3.0854452,3.0775784 3.2156639,2.9835329 c 0.144687,0.028938 0.2893714,0.057874 0.4340559,0.086811 0.2170329,-0.1736261 0.4340558,-0.3472452 0.6510837,-0.5208678 0.1374553,-0.014469 0.2749032,-0.028937 0.412356,-0.043406 0.108514,0.1085163 0.2170279,0.2170283 0.3255419,0.3255425 -0.028939,0.021702 -0.057875,0.043406 -0.086812,0.065109 z" />
    <path
       style="fill:#ffcc5d;fill-opacity:1;stroke:none;stroke-width:0.0941187;stroke-dasharray:none"
       d="m 4.6879974,3.5116347 c 0.036172,-0.047023 0.1085134,-0.1410677 0.1754318,-0.1880906 0.066919,-0.047023 0.1284066,-0.047023 0.206176,0.023513 0.077769,0.070536 0.1718132,0.2116012 0.1826643,0.3237331 0.010851,0.1121319 -0.06149,0.1953244 -0.1338336,0.2767109 -0.072343,0.081386 -0.1446845,0.1609617 -0.1700044,0.2929885 -0.02532,0.1320267 -0.00362,0.3164987 -0.061493,0.4322476 C 4.8290625,4.7884858 4.6916144,4.8355073 4.5830991,4.8318899 4.4745838,4.8282726 4.3950087,4.7740166 4.3425599,4.7143329 4.2901112,4.6546492 4.2647921,4.5895425 4.1779794,4.6202891 4.0911668,4.6510358 3.9428666,4.7776334 3.7746684,4.8517849 3.6064701,4.9259363 3.4183809,4.9476389 3.3134835,4.9078481 3.2085861,4.8680573 3.1868848,4.7667818 3.1886938,4.6962472 3.1905029,4.6257126 3.2158217,4.5859255 3.1344346,4.508156 3.0530474,4.4303864 2.8649588,4.3146397 2.7817652,4.2187834 2.6985716,4.122927 2.7202736,4.0469712 2.7980436,3.992714 2.8758136,3.9384568 3.0096457,3.9059031 3.0837972,3.8733486 3.1579487,3.840794 3.1724165,3.8082405 3.0856034,3.6961075 2.9987902,3.5839746 2.8107018,3.3922694 2.8848569,3.3235444 c 0.074155,-0.068725 0.4105419,-0.014469 0.6112937,0.027128 0.2007517,0.041597 0.2658588,0.070534 0.3273512,0.018084 0.061492,-0.05245 0.1193656,-0.1862809 0.2188384,-0.2351121 0.099473,-0.048831 0.2405367,-0.012661 0.3382001,0.063301 0.097663,0.075961 0.1519191,0.191707 0.1917082,0.2730931 0.039789,0.081386 0.065109,0.1284081 0.07596,0.1374509 0.010851,0.00904 0.00723,-0.019896 0.00542,-0.034363 -0.00181,-0.014468 -0.00181,-0.014467 0.034367,-0.061491 z"
       id="path13"
       inkscape:path-effect="#path-effect14"
       inkscape:original-d="m 4.6518257,3.5586579 c 0.072344,-0.094046 0.1446845,-0.1880913 0.217028,-0.2821368 0.061494,0 0.1229821,0 0.1844732,0 0.094048,0.1410711 0.1880915,0.2821368 0.2821373,0.4232052 -0.072343,0.083196 -0.1446845,0.1663882 -0.2170279,0.2495826 -0.072343,0.079579 -0.1446845,0.1591539 -0.217028,0.2387309 0.02169,0.1844777 0.043405,0.3689482 0.065109,0.5534222 C 4.8290624,4.7884856 4.6916145,4.8355075 4.5541617,4.8825304 4.4745841,4.8282722 4.395009,4.7740162 4.3154315,4.7197592 4.2901109,4.6546493 4.2647928,4.5895422 4.2394722,4.5244336 4.091167,4.651036 3.9428667,4.7776335 3.794564,4.9042332 3.60647,4.9259355 3.4183809,4.9476388 3.2302894,4.9693418 3.2085747,4.8680597 3.1868848,4.7667818 3.1651825,4.665502 3.1905031,4.6257127 3.2158212,4.5859252 3.2411418,4.5461366 3.0530478,4.4303858 2.8649588,4.3146398 2.6768672,4.1988912 2.698582,4.12293 2.7202743,4.0469714 2.7419766,3.9710117 2.8758136,3.9384567 3.0096457,3.905903 3.1434802,3.8733489 3.1579484,3.8407939 3.1724166,3.8082405 3.1868848,3.775686 2.9987908,3.583974 2.8107018,3.3922694 2.6226102,3.2005611 2.959012,3.2548193 3.2953988,3.3090753 3.631793,3.3633323 c 0.065109,0.028938 0.1302163,0.057874 0.1953257,0.086811 0.057875,-0.1338368 0.115748,-0.2676681 0.1736233,-0.4015024 0.1410711,0.036172 0.2821348,0.072343 0.4232034,0.1085142 0.054259,0.1157508 0.108514,0.2314968 0.162771,0.3472452 0.025321,0.047024 0.050641,0.094046 0.075962,0.1410683 -0.00361,-0.028938 -0.00725,-0.057874 -0.010857,-0.086811 z" />
  </g>
  <g
     inkscape:label="Layer 1"
     inkscape:groupmode="layer"
     id="g16"
     transform="matrix(-1.0624885,0,0,1.0624885,51.064535,-0.26453462)">
    <rect
       style="fill:#bdca31;fill-opacity:0;stroke:none;stroke-width:0.497953"
       id="rect14"
       width="7.9687138"
       height="7.9687138"
       x="0.24897645"
       y="0.24897645" />
    <path
       id="path14"
       style="fill:#bdca31;fill-opacity:0.919231;stroke:#bdca31;stroke-width:0.253488"
       d="M 3.5399868,4.645793 H 4.4169402 V 7.4170939 H 3.5399868 Z"
       sodipodi:nodetypes="ccccc" />
    <path
       style="fill:#ffcc5d;fill-opacity:1;stroke:none;stroke-width:0.0941187;stroke-dasharray:none"
       d="M 4.9518896,2.9075728 C 4.9229526,2.9401268 4.8940151,2.9835328 4.8361397,3.1752446 4.7782644,3.3669564 4.6914546,3.7069606 4.5720879,3.9746304 4.4527212,4.2423002 4.300804,4.4376228 4.1163281,4.5171993 3.9318521,4.5967757 3.7148291,4.5606053 3.5448216,4.4014483 3.3748141,4.2422913 3.2518345,3.9601603 3.1397023,3.7503647 3.0275702,3.5405692 2.9262925,3.4031208 2.9407621,3.2873718 2.9552317,3.1716227 3.0854458,3.0775792 3.2228984,3.0450248 3.360351,3.0124703 3.5050353,3.0414071 3.6858939,2.9690623 3.8667525,2.8967175 4.0837756,2.7230987 4.2610172,2.6290529 c 0.1772416,-0.094046 0.3146895,-0.108514 0.4376734,-0.061491 0.1229839,0.047023 0.2314968,0.1555363 0.2712849,0.2206451 0.039788,0.065109 0.010851,0.086812 -0.018086,0.1193656 z"
       id="path15"
       inkscape:path-effect="#path-effect17"
       inkscape:original-d="m 4.9518897,2.8967215 c -0.028936,0.043406 -0.057875,0.086811 -0.086812,0.130217 C 4.7782639,3.3669563 4.6914547,3.7069606 4.6046431,4.0469714 4.452722,4.2423008 4.3008035,4.4376224 4.148885,4.6329478 3.9318521,4.5967758 3.7148291,4.5606051 3.4977987,4.5244336 3.3748141,4.2422913 3.2518344,3.9601603 3.1288523,3.6780235 3.0275699,3.5405694 2.9262925,3.4031208 2.8250127,3.2656697 2.9552314,3.1716222 3.0854452,3.0775784 3.2156639,2.9835329 c 0.144687,0.028938 0.2893714,0.057874 0.4340559,0.086811 0.2170329,-0.1736261 0.4340558,-0.3472452 0.6510837,-0.5208678 0.1374553,-0.014469 0.2749032,-0.028937 0.412356,-0.043406 0.108514,0.1085163 0.2170279,0.2170283 0.3255419,0.3255425 -0.028939,0.021702 -0.057875,0.043406 -0.086812,0.065109 z" />
    <path
       style="fill:#ffcc5d;fill-opacity:1;stroke:none;stroke-width:0.0941187;stroke-dasharray:none"
       d="m 4.6879974,3.5116347 c 0.036172,-0.047023 0.1085134,-0.1410677 0.1754318,-0.1880906 0.066919,-0.047023 0.1284066,-0.047023 0.206176,0.023513 0.077769,0.070536 0.1718132,0.2116012 0.1826643,0.3237331 0.010851,0.1121319 -0.06149,0.1953244 -0.1338336,0.2767109 -0.072343,0.081386 -0.1446845,0.1609617 -0.1700044,0.2929885 -0.02532,0.1320267 -0.00362,0.3164987 -0.061493,0.4322476 C 4.8290625,4.7884858 4.6916144,4.8355073 4.5830991,4.8318899 4.4745838,4.8282726 4.3950087,4.7740166 4.3425599,4.7143329 4.2901112,4.6546492 4.2647921,4.5895425 4.1779794,4.6202891 4.0911668,4.6510358 3.9428666,4.7776334 3.7746684,4.8517849 3.6064701,4.9259363 3.4183809,4.9476389 3.3134835,4.9078481 3.2085861,4.8680573 3.1868848,4.7667818 3.1886938,4.6962472 3.1905029,4.6257126 3.2158217,4.5859255 3.1344346,4.508156 3.0530474,4.4303864 2.8649588,4.3146397 2.7817652,4.2187834 2.6985716,4.122927 2.7202736,4.0469712 2.7980436,3.992714 2.8758136,3.9384568 3.0096457,3.9059031 3.0837972,3.8733486 3.1579487,3.840794 3.1724165,3.8082405 3.0856034,3.6961075 2.9987902,3.5839746 2.8107018,3.3922694 2.8848569,3.3235444 c 0.074155,-0.068725 0.4105419,-0.014469 0.6112937,0.027128 0.2007517,0.041597 0.2658588,0.070534 0.3273512,0.018084 0.061492,-0.05245 0.1193656,-0.1862809 0.2188384,-0.2351121 0.099473,-0.048831 0.2405367,-0.012661 0.3382001,0.063301 0.097663,0.075961 0.1519191,0.191707 0.1917082,0.2730931 0.039789,0.081386 0.065109,0.1284081 0.07596,0.1374509 0.010851,0.00904 0.00723,-0.019896 0.00542,-0.034363 -0.00181,-0.014468 -0.00181,-0.014467 0.034367,-0.061491 z"
       id="path16"
       inkscape:path-effect="#path-effect19"
       inkscape:original-d="m 4.6518257,3.5586579 c 0.072344,-0.094046 0.1446845,-0.1880913 0.217028,-0.2821368 0.061494,0 0.1229821,0 0.1844732,0 0.094048,0.1410711 0.1880915,0.2821368 0.2821373,0.4232052 -0.072343,0.083196 -0.1446845,0.1663882 -0.2170279,0.2495826 -0.072343,0.079579 -0.1446845,0.1591539 -0.217028,0.2387309 0.02169,0.1844777 0.043405,0.3689482 0.065109,0.5534222 C 4.8290624,4.7884856 4.6916145,4.8355075 4.5541617,4.8825304 4.4745841,4.8282722 4.395009,4.7740162 4.3154315,4.7197592 4.2901109,4.6546493 4.2647928,4.5895422 4.2394722,4.5244336 4.091167,4.651036 3.9428667,4.7776335 3.794564,4.9042332 3.60647,4.9259355 3.4183809,4.9476388 3.2302894,4.9693418 3.2085747,4.8680597 3.1868848,4.7667818 3.1651825,4.665502 3.1905031,4.6257127 3.2158212,4.5859252 3.2411418,4.5461366 3.0530478,4.4303858 2.8649588,4.3146398 2.6768672,4.1988912 2.698582,4.12293 2.7202743,4.0469714 2.7419766,3.9710117 2.8758136,3.9384567 3.0096457,3.905903 3.1434802,3.8733489 3.1579484,3.8407939 3.1724166,3.8082405 3.1868848,3.775686 2.9987908,3.583974 2.8107018,3.3922694 2.6226102,3.2005611 2.959012,3.2548193 3.2953988,3.3090753 3.631793,3.3633323 c 0.065109,0.028938 0.1302163,0.057874 0.1953257,0.086811 0.057875,-0.1338368 0.115748,-0.2676681 0.1736233,-0.4015024 0.1410711,0.036172 0.2821348,0.072343 0.4232034,0.1085142 0.054259,0.1157508 0.108514,0.2314968 0.162771,0.3472452 0.025321,0.047024 0.050641,0.094046 0.075962,0.1410683 -0.00361,-0.028938 -0.00725,-0.057874 -0.010857,-0.086811 z" />
    <path
       style="fill:#ffcc5d;fill-opacity:1;stroke:none;stroke-width:0.0941187;stroke-dasharray:none"
       d="M 4.3915513,4.6329477 C 4.3879364,4.7414617 4.3807064,4.9584905 4.3192162,5.0887078 4.2577259,5.2189252 4.1419804,5.2623299 4.0479344,5.2261575 3.9538884,5.1899851 3.8815466,5.074238 3.8128207,5.0018953 3.7440949,4.9295527 3.678986,4.9006155 3.6753698,4.8210374 c -0.00362,-0.079578 0.054256,-0.2097927 0.1844754,-0.2676665 0.130219,-0.057874 0.3327739,-0.043406 0.4340537,-0.036171 0.1012799,0.00723 0.1012674,0.00723 0.097652,0.115748 z"
       id="path19"
       inkscape:path-effect="#path-effect20"
       inkscape:original-d="M 4.3951663,4.5244336 C 4.3879447,4.741462 4.3806981,4.9584902 4.3734765,5.1755186 4.2577259,5.2189252 4.1419804,5.26233 4.0262323,5.3057356 3.9538888,5.1899848 3.8815454,5.0742387 3.8092044,4.9584902 3.744095,4.9295525 3.6789857,4.9006161 3.6138788,4.871679 3.6717541,4.7414595 3.7296268,4.611245 3.7874996,4.481028 3.9900643,4.495496 4.1926191,4.509965 4.3951788,4.524434 Z" />
  </g>
</svg>
