<?xml version="1.0" encoding="UTF-8" standalone="no"?>
<!-- Created with Inkscape (http://www.inkscape.org/) -->

<svg
   width="160"
   height="32.000004"
   viewBox="0 0 42.333332 8.4666677"
   version="1.1"
   id="svg1"
   xmlns="http://www.w3.org/2000/svg"
   xmlns:svg="http://www.w3.org/2000/svg">
  <defs
     id="defs1" />
  <g
     id="g75"
     transform="matrix(-1.0624885,0,0,1.0624885,8.7312013,-0.26453462)">
    <rect
       style="fill:#bdca31;fill-opacity:0;stroke:none;stroke-width:0.497953"
       id="rect74"
       width="7.9687138"
       height="7.9687138"
       x="0.24897645"
       y="0.24897645" />
    <path
       style="fill:#ffec8c;fill-opacity:1;stroke:#6e9202;stroke-width:0.188237;stroke-dasharray:none"
       d="M 4.2333334,7.4083676 C 4.1783607,7.0572582 4.123388,6.706149 4.0684153,6.3550395"
       id="path808"
       transform="translate(0.04669168,0.21789451)" />
    <ellipse
       style="fill:#6e9202;fill-opacity:1;stroke:#6e9202;stroke-width:0.188237;stroke-dasharray:none"
       id="path809"
       cx="-4.0789828"
       cy="6.3456359"
       transform="scale(-1,1)"
       rx="0.15682603"
       ry="0.22010669" />
    <path
       style="fill:#ffec8c;fill-opacity:1;stroke:#6e9202;stroke-width:0.188237;stroke-dasharray:none"
       d="M 3.6730332,7.4317134 C 3.5906809,7.2780026 3.5083286,7.1242918 3.4808422,6.9487371 3.4533559,6.7731825 3.4807355,6.575784 3.5081151,6.3783853"
       id="path851"
       transform="translate(0.04669168,0.21789451)" />
    <ellipse
       style="fill:#6e9202;fill-opacity:1;stroke:#6e9202;stroke-width:0.188237;stroke-dasharray:none"
       id="ellipse852"
       cx="-3.4875548"
       cy="6.4701471"
       transform="scale(-1,1)"
       rx="0.15682603"
       ry="0.22010669" />
  </g>
  <g
     id="g854"
     transform="matrix(-1.0624885,0,0,1.0624885,17.197868,-0.26453462)">
    <rect
       style="fill:#bdca31;fill-opacity:0;stroke:none;stroke-width:0.497953"
       id="rect852"
       width="7.9687138"
       height="7.9687138"
       x="0.24897645"
       y="0.24897645" />
    <path
       style="fill:none;fill-opacity:1;stroke:#6e9202;stroke-width:0.188237;stroke-dasharray:none"
       d="M 4.2333334,7.4083676 C 4.1854388,7.102466 4.1375443,6.7965645 4.1956593,6.4601829 4.2537744,6.1238013 4.4178991,5.7569397 4.5820238,5.3900781"
       id="path852"
       transform="translate(0.04669168,0.21789451)" />
    <ellipse
       style="fill:#6e9202;fill-opacity:1;stroke:#6e9202;stroke-width:0.188237;stroke-dasharray:none"
       id="ellipse853"
       cx="-4.7393031"
       cy="5.5202355"
       transform="scale(-1,1)"
       rx="0.15682603"
       ry="0.22010669" />
    <path
       style="fill:none;fill-opacity:1;stroke:#6e9202;stroke-width:0.188237;stroke-dasharray:none"
       d="M 3.6730332,7.4317134 C 3.5906809,7.2780026 3.5083286,7.1242918 3.4743201,6.99576 3.4403116,6.8672282 3.4546468,6.7638753 3.4034871,6.5653077 3.3523273,6.3667401 3.2356725,6.0729577 3.1190178,5.7791754"
       id="path853"
       transform="translate(0.04669168,0.21789451)" />
    <ellipse
       style="fill:#6e9202;fill-opacity:1;stroke:#6e9202;stroke-width:0.188237;stroke-dasharray:none"
       id="ellipse854"
       cx="-3.1023681"
       cy="5.7878165"
       transform="scale(-1,1)"
       rx="0.15682603"
       ry="0.22010669" />
    <path
       style="fill:#e084a8;fill-opacity:1;stroke:none;stroke-width:0.188237;stroke-dasharray:none"
       d="m 4.8233957,5.5865639 c -0.00917,0.011005 0.020176,0.033016 0.1027175,0.1137232 0.082541,0.080707 0.218271,0.2201052 0.3228224,0.2622918 C 5.353487,6.0047656 5.4268544,5.9497399 5.4396935,5.87637 5.4525325,5.8030001 5.404844,5.7112913 5.3479824,5.6580986 5.2911209,5.604906 5.22509,5.5902325 5.1535545,5.5828957 c -0.071535,-0.00734 -0.1485713,-0.00734 -0.2109354,-0.00734 -0.062364,0 -0.1100522,-2e-7 -0.1192234,0.011005 z"
       id="path857" />
    <path
       style="fill:#e084a8;fill-opacity:1;stroke:none;stroke-width:0.188237;stroke-dasharray:none"
       d="m 3.2257883,5.8415205 c 0.014674,0.00183 0.044021,0.0055 0.1302312,0.016507 0.08621,0.011005 0.2292761,0.029347 0.3264903,0.020176 0.097214,-0.00917 0.1485718,-0.045855 0.1449027,-0.1045512 -0.00367,-0.058696 -0.062363,-0.1394002 -0.1210586,-0.172416 -0.058696,-0.033016 -0.11739,-0.018342 -0.1962625,0.00917 -0.078872,0.027514 -0.1779185,0.067866 -0.231111,0.1082194 -0.053193,0.040354 -0.060529,0.080705 -0.064198,0.1008816 -0.00367,0.020176 -0.00367,0.020177 0.011006,0.022011 z"
       id="path858" />
  </g>
  <g
     id="g862"
     transform="matrix(-1.0624885,0,0,1.0624885,25.664535,-0.26453462)">
    <rect
       style="fill:#bdca31;fill-opacity:0;stroke:none;stroke-width:0.497953"
       id="rect859"
       width="7.9687138"
       height="7.9687138"
       x="0.24897645"
       y="0.24897645" />
    <path
       style="fill:none;fill-opacity:1;stroke:#6e9202;stroke-width:0.188237;stroke-dasharray:none"
       d="M 4.2333334,7.4083676 C 4.1854388,7.102466 4.1375443,6.7965645 4.1750565,6.5062358 4.2125686,6.215907 4.3354876,5.9411511 4.4377264,5.7091134 4.5399652,5.4770757 4.6215238,5.2877562 4.7030825,5.0984367"
       id="path859"
       transform="translate(0.04669168,0.21789451)" />
    <ellipse
       style="fill:#6e9202;fill-opacity:1;stroke:#6e9202;stroke-width:0.188237;stroke-dasharray:none"
       id="ellipse859"
       cx="-4.9105058"
       cy="5.1000104"
       transform="scale(-1,1)"
       rx="0.15682603"
       ry="0.22010669" />
    <path
       style="fill:none;fill-opacity:1;stroke:#6e9202;stroke-width:0.188237;stroke-dasharray:none"
       d="M 3.6730332,7.4317134 C 3.5906809,7.2780026 3.5083286,7.1242918 3.4743201,6.99576 3.4403116,6.8672282 3.4546468,6.7638753 3.4120225,6.5868031 3.3693981,6.4097309 3.269814,6.1589393 3.1711337,5.879067 3.0724535,5.5991947 2.9746769,5.2902417 2.8769004,4.9812886"
       id="path860"
       transform="translate(0.04669168,0.21789451)" />
    <ellipse
       style="fill:#6e9202;fill-opacity:1;stroke:#6e9202;stroke-width:0.188237;stroke-dasharray:none"
       id="ellipse860"
       cx="-2.8844736"
       cy="5.0251861"
       transform="scale(-1,1)"
       rx="0.15682603"
       ry="0.22010669" />
    <path
       style="fill:#e084a8;fill-opacity:1;stroke:none;stroke-width:0.188237;stroke-dasharray:none"
       d="m 4.8233957,5.5865639 c -0.00917,0.011005 0.020176,0.033016 0.1027175,0.1137232 0.082541,0.080707 0.218271,0.2201052 0.3228224,0.2622918 C 5.353487,6.0047656 5.4268544,5.9497399 5.4396935,5.87637 5.4525325,5.8030001 5.404844,5.7112913 5.3479824,5.6580986 5.2911209,5.604906 5.22509,5.5902325 5.1535545,5.5828957 c -0.071535,-0.00734 -0.1485713,-0.00734 -0.2109354,-0.00734 -0.062364,0 -0.1100522,-2e-7 -0.1192234,0.011005 z"
       id="path861"
       transform="translate(0.17120283,-0.42022514)" />
    <path
       style="fill:#e084a8;fill-opacity:1;stroke:none;stroke-width:0.188237;stroke-dasharray:none"
       d="m 3.2257883,5.8415205 c 0.014674,0.00183 0.044021,0.0055 0.1302312,0.016507 0.08621,0.011005 0.2292761,0.029347 0.3264903,0.020176 0.097214,-0.00917 0.1485718,-0.045855 0.1449027,-0.1045512 -0.00367,-0.058696 -0.062363,-0.1394002 -0.1210586,-0.172416 -0.058696,-0.033016 -0.11739,-0.018342 -0.1962625,0.00917 -0.078872,0.027514 -0.1779185,0.067866 -0.231111,0.1082194 -0.053193,0.040354 -0.060529,0.080705 -0.064198,0.1008816 -0.00367,0.020176 -0.00367,0.020177 0.011006,0.022011 z"
       id="path862"
       transform="translate(-0.21789452,-0.7626308)" />
    <path
       style="fill:#e084a8;fill-opacity:1;stroke:none;stroke-width:0.188237;stroke-dasharray:none"
       d="m 4.8233957,5.5865639 c -0.00917,0.011005 0.020176,0.033016 0.1027175,0.1137232 0.082541,0.080707 0.218271,0.2201052 0.3228224,0.2622918 C 5.353487,6.0047656 5.4268544,5.9497399 5.4396935,5.87637 5.4525325,5.8030001 5.404844,5.7112913 5.3479824,5.6580986 5.2911209,5.604906 5.22509,5.5902325 5.1535545,5.5828957 c -0.071535,-0.00734 -0.1485713,-0.00734 -0.2109354,-0.00734 -0.062364,0 -0.1100522,-2e-7 -0.1192234,0.011005 z"
       id="path869"
       transform="rotate(-34.711278,4.1817385,5.1152006)" />
    <path
       style="fill:#e084a8;fill-opacity:1;stroke:none;stroke-width:0.188237;stroke-dasharray:none"
       d="m 4.8233957,5.5865639 c -0.00917,0.011005 0.020176,0.033016 0.1027175,0.1137232 0.082541,0.080707 0.218271,0.2201052 0.3228224,0.2622918 C 5.353487,6.0047656 5.4268544,5.9497399 5.4396935,5.87637 5.4525325,5.8030001 5.404844,5.7112913 5.3479824,5.6580986 5.2911209,5.604906 5.22509,5.5902325 5.1535545,5.5828957 c -0.071535,-0.00734 -0.1485713,-0.00734 -0.2109354,-0.00734 -0.062364,0 -0.1100522,-2e-7 -0.1192234,0.011005 z"
       id="path871"
       transform="rotate(-68.20024,4.528874,5.2442638)" />
    <path
       style="fill:#e084a8;fill-opacity:1;stroke:none;stroke-width:0.188237;stroke-dasharray:none"
       d="m 4.8233957,5.5865639 c -0.00917,0.011005 0.020176,0.033016 0.1027175,0.1137232 0.082541,0.080707 0.218271,0.2201052 0.3228224,0.2622918 C 5.353487,6.0047656 5.4268544,5.9497399 5.4396935,5.87637 5.4525325,5.8030001 5.404844,5.7112913 5.3479824,5.6580986 5.2911209,5.604906 5.22509,5.5902325 5.1535545,5.5828957 c -0.071535,-0.00734 -0.1485713,-0.00734 -0.2109354,-0.00734 -0.062364,0 -0.1100522,-2e-7 -0.1192234,0.011005 z"
       id="path873"
       transform="rotate(19.778482,6.1065601,5.6294638)" />
    <path
       style="fill:#e084a8;fill-opacity:1;stroke:none;stroke-width:0.188237;stroke-dasharray:none"
       d="m 3.2257883,5.8415205 c 0.014674,0.00183 0.044021,0.0055 0.1302312,0.016507 0.08621,0.011005 0.2292761,0.029347 0.3264903,0.020176 0.097214,-0.00917 0.1485718,-0.045855 0.1449027,-0.1045512 -0.00367,-0.058696 -0.062363,-0.1394002 -0.1210586,-0.172416 -0.058696,-0.033016 -0.11739,-0.018342 -0.1962625,0.00917 -0.078872,0.027514 -0.1779185,0.067866 -0.231111,0.1082194 -0.053193,0.040354 -0.060529,0.080705 -0.064198,0.1008816 -0.00367,0.020176 -0.00367,0.020177 0.011006,0.022011 z"
       id="path875"
       transform="rotate(-39.557947,1.9787888,5.7266974)" />
    <path
       style="fill:#e084a8;fill-opacity:1;stroke:none;stroke-width:0.188237;stroke-dasharray:none"
       d="m 3.2257883,5.8415205 c 0.014674,0.00183 0.044021,0.0055 0.1302312,0.016507 0.08621,0.011005 0.2292761,0.029347 0.3264903,0.020176 0.097214,-0.00917 0.1485718,-0.045855 0.1449027,-0.1045512 -0.00367,-0.058696 -0.062363,-0.1394002 -0.1210586,-0.172416 -0.058696,-0.033016 -0.11739,-0.018342 -0.1962625,0.00917 -0.078872,0.027514 -0.1779185,0.067866 -0.231111,0.1082194 -0.053193,0.040354 -0.060529,0.080705 -0.064198,0.1008816 -0.00367,0.020176 -0.00367,0.020177 0.011006,0.022011 z"
       id="path877"
       transform="rotate(32.35851,4.3661129,5.0496767)" />
    <path
       style="fill:#e084a8;fill-opacity:1;stroke:none;stroke-width:0.188237;stroke-dasharray:none"
       d="m 3.2257883,5.8415205 c 0.014674,0.00183 0.044021,0.0055 0.1302312,0.016507 0.08621,0.011005 0.2292761,0.029347 0.3264903,0.020176 0.097214,-0.00917 0.1485718,-0.045855 0.1449027,-0.1045512 -0.00367,-0.058696 -0.062363,-0.1394002 -0.1210586,-0.172416 -0.058696,-0.033016 -0.11739,-0.018342 -0.1962625,0.00917 -0.078872,0.027514 -0.1779185,0.067866 -0.231111,0.1082194 -0.053193,0.040354 -0.060529,0.080705 -0.064198,0.1008816 -0.00367,0.020176 -0.00367,0.020177 0.011006,0.022011 z"
       id="path879"
       transform="rotate(66.951103,3.6421077,5.2488102)" />
  </g>
  <g
     id="g890"
     transform="matrix(-1.0624885,0,0,1.0624885,34.131201,-0.26453462)">
    <rect
       style="fill:#bdca31;fill-opacity:0;stroke:none;stroke-width:0.497953"
       id="rect881"
       width="7.9687138"
       height="7.9687138"
       x="0.24897645"
       y="0.24897645" />
    <path
       style="fill:none;fill-opacity:1;stroke:#6e9202;stroke-width:0.188237;stroke-dasharray:none"
       d="M 4.2333334,7.4083676 C 4.1854388,7.102466 4.1375443,6.7965645 4.1750565,6.5062358 4.2125686,6.215907 4.3354876,5.9411511 4.4293089,5.7286526 4.5231302,5.5161542 4.5878539,5.3659131 4.7221786,5.1180957 4.8565033,4.8702784 5.0604289,4.5248848 5.2643546,4.1794912"
       id="path881"
       transform="translate(0.04669168,0.21789451)" />
    <ellipse
       style="fill:#6e9202;fill-opacity:1;stroke:#6e9202;stroke-width:0.188237;stroke-dasharray:none"
       id="ellipse881"
       cx="-5.3774228"
       cy="4.3996353"
       transform="scale(-1,1)"
       rx="0.15682603"
       ry="0.22010669" />
    <path
       style="fill:none;fill-opacity:1;stroke:#6e9202;stroke-width:0.188237;stroke-dasharray:none"
       d="M 3.6730332,7.4317134 C 3.5906809,7.2780026 3.5083286,7.1242918 3.4743201,6.99576 3.4403116,6.8672282 3.4546468,6.7638753 3.4120225,6.5868031 3.3693981,6.4097309 3.269814,6.1589393 3.1785626,5.9025405 3.0873111,5.6461417 3.0043922,5.3841356 2.8683784,5.1067661 2.7323645,4.8293967 2.5432557,4.5366639 2.354147,4.2439312"
       id="path882"
       transform="translate(0.04669168,0.21789451)" />
    <ellipse
       style="fill:#6e9202;fill-opacity:1;stroke:#6e9202;stroke-width:0.188237;stroke-dasharray:none"
       id="ellipse882"
       cx="-2.3864291"
       cy="4.3870664"
       transform="scale(-1,1)"
       rx="0.15682603"
       ry="0.22010669" />
    <path
       style="fill:#e084a8;fill-opacity:1;stroke:none;stroke-width:0.188237;stroke-dasharray:none"
       d="m 4.8233957,5.5865639 c -0.00917,0.011005 0.020176,0.033016 0.1027175,0.1137232 0.082541,0.080707 0.218271,0.2201052 0.3228224,0.2622918 C 5.353487,6.0047656 5.4268544,5.9497399 5.4396935,5.87637 5.4525325,5.8030001 5.404844,5.7112913 5.3479824,5.6580986 5.2911209,5.604906 5.22509,5.5902325 5.1535545,5.5828957 c -0.071535,-0.00734 -0.1485713,-0.00734 -0.2109354,-0.00734 -0.062364,0 -0.1100522,-2e-7 -0.1192234,0.011005 z"
       id="path883"
       transform="translate(0.63811965,-1.1206004)" />
    <path
       style="fill:#e084a8;fill-opacity:1;stroke:none;stroke-width:0.188237;stroke-dasharray:none"
       d="m 3.2257883,5.8415205 c 0.014674,0.00183 0.044021,0.0055 0.1302312,0.016507 0.08621,0.011005 0.2292761,0.029347 0.3264903,0.020176 0.097214,-0.00917 0.1485718,-0.045855 0.1449027,-0.1045512 -0.00367,-0.058696 -0.062363,-0.1394002 -0.1210586,-0.172416 -0.058696,-0.033016 -0.11739,-0.018342 -0.1962625,0.00917 -0.078872,0.027514 -0.1779185,0.067866 -0.231111,0.1082194 -0.053193,0.040354 -0.060529,0.080705 -0.064198,0.1008816 -0.00367,0.020176 -0.00367,0.020177 0.011006,0.022011 z"
       id="path884"
       transform="translate(-0.71593913,-1.4007505)" />
    <path
       style="fill:#e084a8;fill-opacity:1;stroke:none;stroke-width:0.188237;stroke-dasharray:none"
       d="m 4.8233957,5.5865639 c -0.00917,0.011005 0.020176,0.033016 0.1027175,0.1137232 0.082541,0.080707 0.218271,0.2201052 0.3228224,0.2622918 C 5.353487,6.0047656 5.4268544,5.9497399 5.4396935,5.87637 5.4525325,5.8030001 5.404844,5.7112913 5.3479824,5.6580986 5.2911209,5.604906 5.22509,5.5902325 5.1535545,5.5828957 c -0.071535,-0.00734 -0.1485713,-0.00734 -0.2109354,-0.00734 -0.062364,0 -0.1100522,-2e-7 -0.1192234,0.011005 z"
       id="path885"
       transform="rotate(-34.711278,3.2947074,4.01802)" />
    <path
       style="fill:#e084a8;fill-opacity:1;stroke:none;stroke-width:0.188237;stroke-dasharray:none"
       d="m 4.8233957,5.5865639 c -0.00917,0.011005 0.020176,0.033016 0.1027175,0.1137232 0.082541,0.080707 0.218271,0.2201052 0.3228224,0.2622918 C 5.353487,6.0047656 5.4268544,5.9497399 5.4396935,5.87637 5.4525325,5.8030001 5.404844,5.7112913 5.3479824,5.6580986 5.2911209,5.604906 5.22509,5.5902325 5.1535545,5.5828957 c -0.071535,-0.00734 -0.1485713,-0.00734 -0.2109354,-0.00734 -0.062364,0 -0.1100522,-2e-7 -0.1192234,0.011005 z"
       id="path886"
       transform="rotate(-68.20024,4.2451098,4.5492611)" />
    <path
       style="fill:#e084a8;fill-opacity:1;stroke:none;stroke-width:0.188237;stroke-dasharray:none"
       d="m 4.8233957,5.5865639 c -0.00917,0.011005 0.020176,0.033016 0.1027175,0.1137232 0.082541,0.080707 0.218271,0.2201052 0.3228224,0.2622918 C 5.353487,6.0047656 5.4268544,5.9497399 5.4396935,5.87637 5.4525325,5.8030001 5.404844,5.7112913 5.3479824,5.6580986 5.2911209,5.604906 5.22509,5.5902325 5.1535545,5.5828957 c -0.071535,-0.00734 -0.1485713,-0.00734 -0.2109354,-0.00734 -0.062364,0 -0.1100522,-2e-7 -0.1192234,0.011005 z"
       id="path887"
       transform="rotate(19.778482,8.3487301,6.6184172)" />
    <path
       style="fill:#e084a8;fill-opacity:1;stroke:none;stroke-width:0.188237;stroke-dasharray:none"
       d="m 3.2257883,5.8415205 c 0.014674,0.00183 0.044021,0.0055 0.1302312,0.016507 0.08621,0.011005 0.2292761,0.029347 0.3264903,0.020176 0.097214,-0.00917 0.1485718,-0.045855 0.1449027,-0.1045512 -0.00367,-0.058696 -0.062363,-0.1394002 -0.1210586,-0.172416 -0.058696,-0.033016 -0.11739,-0.018342 -0.1962625,0.00917 -0.078872,0.027514 -0.1779185,0.067866 -0.231111,0.1082194 -0.053193,0.040354 -0.060529,0.080705 -0.064198,0.1008816 -0.00367,0.020176 -0.00367,0.020177 0.011006,0.022011 z"
       id="path888"
       transform="rotate(-39.557947,0.84252226,6.1001209)" />
    <path
       style="fill:#e084a8;fill-opacity:1;stroke:none;stroke-width:0.188237;stroke-dasharray:none"
       d="m 3.2257883,5.8415205 c 0.014674,0.00183 0.044021,0.0055 0.1302312,0.016507 0.08621,0.011005 0.2292761,0.029347 0.3264903,0.020176 0.097214,-0.00917 0.1485718,-0.045855 0.1449027,-0.1045512 -0.00367,-0.058696 -0.062363,-0.1394002 -0.1210586,-0.172416 -0.058696,-0.033016 -0.11739,-0.018342 -0.1962625,0.00917 -0.078872,0.027514 -0.1779185,0.067866 -0.231111,0.1082194 -0.053193,0.040354 -0.060529,0.080705 -0.064198,0.1008816 -0.00367,0.020176 -0.00367,0.020177 0.011006,0.022011 z"
       id="path889"
       transform="rotate(32.35851,5.2167877,3.8723167)" />
    <path
       style="fill:#e084a8;fill-opacity:1;stroke:none;stroke-width:0.188237;stroke-dasharray:none"
       d="m 3.2257883,5.8415205 c 0.014674,0.00183 0.044021,0.0055 0.1302312,0.016507 0.08621,0.011005 0.2292761,0.029347 0.3264903,0.020176 0.097214,-0.00917 0.1485718,-0.045855 0.1449027,-0.1045512 -0.00367,-0.058696 -0.062363,-0.1394002 -0.1210586,-0.172416 -0.058696,-0.033016 -0.11739,-0.018342 -0.1962625,0.00917 -0.078872,0.027514 -0.1779185,0.067866 -0.231111,0.1082194 -0.053193,0.040354 -0.060529,0.080705 -0.064198,0.1008816 -0.00367,0.020176 -0.00367,0.020177 0.011006,0.022011 z"
       id="path890"
       transform="rotate(66.951103,3.8755794,4.5531697)" />
    <path
       style="fill:#e084a8;fill-opacity:1;stroke:none;stroke-width:0.188237;stroke-dasharray:none"
       d="m 4.8233957,5.5865639 c -0.00917,0.011005 0.020176,0.033016 0.1027175,0.1137232 0.082541,0.080707 0.218271,0.2201052 0.3228224,0.2622918 C 5.353487,6.0047656 5.4268544,5.9497399 5.4396935,5.87637 5.4525325,5.8030001 5.404844,5.7112913 5.3479824,5.6580986 5.2911209,5.604906 5.22509,5.5902325 5.1535545,5.5828957 c -0.071535,-0.00734 -0.1485713,-0.00734 -0.2109354,-0.00734 -0.062364,0 -0.1100522,-2e-7 -0.1192234,0.011005 z"
       id="path909"
       transform="rotate(64.778482,6.0315241,5.4705231)" />
    <path
       style="fill:#e084a8;fill-opacity:1;stroke:none;stroke-width:0.188237;stroke-dasharray:none"
       d="m 4.8233957,5.5865639 c -0.00917,0.011005 0.020176,0.033016 0.1027175,0.1137232 0.082541,0.080707 0.218271,0.2201052 0.3228224,0.2622918 C 5.353487,6.0047656 5.4268544,5.9497399 5.4396935,5.87637 5.4525325,5.8030001 5.404844,5.7112913 5.3479824,5.6580986 5.2911209,5.604906 5.22509,5.5902325 5.1535545,5.5828957 c -0.071535,-0.00734 -0.1485713,-0.00734 -0.2109354,-0.00734 -0.062364,0 -0.1100522,-2e-7 -0.1192234,0.011005 z"
       id="path911"
       transform="rotate(112.50754,5.5253865,5.1965224)" />
    <path
       style="fill:#e084a8;fill-opacity:1;stroke:none;stroke-width:0.188237;stroke-dasharray:none"
       d="m 4.8233957,5.5865639 c -0.00917,0.011005 0.020176,0.033016 0.1027175,0.1137232 0.082541,0.080707 0.218271,0.2201052 0.3228224,0.2622918 C 5.353487,6.0047656 5.4268544,5.9497399 5.4396935,5.87637 5.4525325,5.8030001 5.404844,5.7112913 5.3479824,5.6580986 5.2911209,5.604906 5.22509,5.5902325 5.1535545,5.5828957 c -0.071535,-0.00734 -0.1485713,-0.00734 -0.2109354,-0.00734 -0.062364,0 -0.1100522,-2e-7 -0.1192234,0.011005 z"
       id="path913"
       transform="rotate(135.28328,5.4343259,5.0812112)" />
    <path
       style="fill:#e084a8;fill-opacity:1;stroke:none;stroke-width:0.188237;stroke-dasharray:none"
       d="m 4.8233957,5.5865639 c -0.00917,0.011005 0.020176,0.033016 0.1027175,0.1137232 0.082541,0.080707 0.218271,0.2201052 0.3228224,0.2622918 C 5.353487,6.0047656 5.4268544,5.9497399 5.4396935,5.87637 5.4525325,5.8030001 5.404844,5.7112913 5.3479824,5.6580986 5.2911209,5.604906 5.22509,5.5902325 5.1535545,5.5828957 c -0.071535,-0.00734 -0.1485713,-0.00734 -0.2109354,-0.00734 -0.062364,0 -0.1100522,-2e-7 -0.1192234,0.011005 z"
       id="path915"
       transform="rotate(171.09689,5.2140457,4.974616)" />
    <path
       style="fill:#e084a8;fill-opacity:1;stroke:none;stroke-width:0.188237;stroke-dasharray:none"
       d="m 4.8233957,5.5865639 c -0.00917,0.011005 0.020176,0.033016 0.1027175,0.1137232 0.082541,0.080707 0.218271,0.2201052 0.3228224,0.2622918 C 5.353487,6.0047656 5.4268544,5.9497399 5.4396935,5.87637 5.4525325,5.8030001 5.404844,5.7112913 5.3479824,5.6580986 5.2911209,5.604906 5.22509,5.5902325 5.1535545,5.5828957 c -0.071535,-0.00734 -0.1485713,-0.00734 -0.2109354,-0.00734 -0.062364,0 -0.1100522,-2e-7 -0.1192234,0.011005 z"
       id="path917"
       transform="rotate(-171.81439,5.170253,4.9164631)" />
    <path
       style="fill:#e084a8;fill-opacity:1;stroke:none;stroke-width:0.188237;stroke-dasharray:none"
       d="m 4.8233957,5.5865639 c -0.00917,0.011005 0.020176,0.033016 0.1027175,0.1137232 0.082541,0.080707 0.218271,0.2201052 0.3228224,0.2622918 C 5.353487,6.0047656 5.4268544,5.9497399 5.4396935,5.87637 5.4525325,5.8030001 5.404844,5.7112913 5.3479824,5.6580986 5.2911209,5.604906 5.22509,5.5902325 5.1535545,5.5828957 c -0.071535,-0.00734 -0.1485713,-0.00734 -0.2109354,-0.00734 -0.062364,0 -0.1100522,-2e-7 -0.1192234,0.011005 z"
       id="path919"
       transform="rotate(-148.36261,5.0505902,4.8634044)" />
    <path
       style="fill:#e084a8;fill-opacity:1;stroke:none;stroke-width:0.188237;stroke-dasharray:none"
       d="m 3.2257883,5.8415205 c 0.014674,0.00183 0.044021,0.0055 0.1302312,0.016507 0.08621,0.011005 0.2292761,0.029347 0.3264903,0.020176 0.097214,-0.00917 0.1485718,-0.045855 0.1449027,-0.1045512 -0.00367,-0.058696 -0.062363,-0.1394002 -0.1210586,-0.172416 -0.058696,-0.033016 -0.11739,-0.018342 -0.1962625,0.00917 -0.078872,0.027514 -0.1779185,0.067866 -0.231111,0.1082194 -0.053193,0.040354 -0.060529,0.080705 -0.064198,0.1008816 -0.00367,0.020176 -0.00367,0.020177 0.011006,0.022011 z"
       id="path921"
       transform="rotate(92.77465,3.4754704,4.716719)" />
    <path
       style="fill:#e084a8;fill-opacity:1;stroke:none;stroke-width:0.188237;stroke-dasharray:none"
       d="m 3.2257883,5.8415205 c 0.014674,0.00183 0.044021,0.0055 0.1302312,0.016507 0.08621,0.011005 0.2292761,0.029347 0.3264903,0.020176 0.097214,-0.00917 0.1485718,-0.045855 0.1449027,-0.1045512 -0.00367,-0.058696 -0.062363,-0.1394002 -0.1210586,-0.172416 -0.058696,-0.033016 -0.11739,-0.018342 -0.1962625,0.00917 -0.078872,0.027514 -0.1779185,0.067866 -0.231111,0.1082194 -0.053193,0.040354 -0.060529,0.080705 -0.064198,0.1008816 -0.00367,0.020176 -0.00367,0.020177 0.011006,0.022011 z"
       id="path923"
       transform="rotate(122.09331,3.2652915,4.8401104)" />
    <path
       style="fill:#e084a8;fill-opacity:1;stroke:none;stroke-width:0.188237;stroke-dasharray:none"
       d="m 3.2257883,5.8415205 c 0.014674,0.00183 0.044021,0.0055 0.1302312,0.016507 0.08621,0.011005 0.2292761,0.029347 0.3264903,0.020176 0.097214,-0.00917 0.1485718,-0.045855 0.1449027,-0.1045512 -0.00367,-0.058696 -0.062363,-0.1394002 -0.1210586,-0.172416 -0.058696,-0.033016 -0.11739,-0.018342 -0.1962625,0.00917 -0.078872,0.027514 -0.1779185,0.067866 -0.231111,0.1082194 -0.053193,0.040354 -0.060529,0.080705 -0.064198,0.1008816 -0.00367,0.020176 -0.00367,0.020177 0.011006,0.022011 z"
       id="path925"
       transform="rotate(152.48451,3.0612835,4.9470926)" />
    <path
       style="fill:#e084a8;fill-opacity:1;stroke:none;stroke-width:0.188237;stroke-dasharray:none"
       d="m 3.2257883,5.8415205 c 0.014674,0.00183 0.044021,0.0055 0.1302312,0.016507 0.08621,0.011005 0.2292761,0.029347 0.3264903,0.020176 0.097214,-0.00917 0.1485718,-0.045855 0.1449027,-0.1045512 -0.00367,-0.058696 -0.062363,-0.1394002 -0.1210586,-0.172416 -0.058696,-0.033016 -0.11739,-0.018342 -0.1962625,0.00917 -0.078872,0.027514 -0.1779185,0.067866 -0.231111,0.1082194 -0.053193,0.040354 -0.060529,0.080705 -0.064198,0.1008816 -0.00367,0.020176 -0.00367,0.020177 0.011006,0.022011 z"
       id="path927"
       transform="rotate(-177.01902,2.8555879,5.0182207)" />
    <path
       style="fill:#e084a8;fill-opacity:1;stroke:none;stroke-width:0.188237;stroke-dasharray:none"
       d="m 3.2257883,5.8415205 c 0.014674,0.00183 0.044021,0.0055 0.1302312,0.016507 0.08621,0.011005 0.2292761,0.029347 0.3264903,0.020176 0.097214,-0.00917 0.1485718,-0.045855 0.1449027,-0.1045512 -0.00367,-0.058696 -0.062363,-0.1394002 -0.1210586,-0.172416 -0.058696,-0.033016 -0.11739,-0.018342 -0.1962625,0.00917 -0.078872,0.027514 -0.1779185,0.067866 -0.231111,0.1082194 -0.053193,0.040354 -0.060529,0.080705 -0.064198,0.1008816 -0.00367,0.020176 -0.00367,0.020177 0.011006,0.022011 z"
       id="path929"
       transform="rotate(-147.25321,2.6777264,5.108233)" />
    <path
       style="fill:#e084a8;fill-opacity:1;stroke:none;stroke-width:0.188237;stroke-dasharray:none"
       d="m 3.2257883,5.8415205 c 0.014674,0.00183 0.044021,0.0055 0.1302312,0.016507 0.08621,0.011005 0.2292761,0.029347 0.3264903,0.020176 0.097214,-0.00917 0.1485718,-0.045855 0.1449027,-0.1045512 -0.00367,-0.058696 -0.062363,-0.1394002 -0.1210586,-0.172416 -0.058696,-0.033016 -0.11739,-0.018342 -0.1962625,0.00917 -0.078872,0.027514 -0.1779185,0.067866 -0.231111,0.1082194 -0.053193,0.040354 -0.060529,0.080705 -0.064198,0.1008816 -0.00367,0.020176 -0.00367,0.020177 0.011006,0.022011 z"
       id="path931"
       transform="matrix(-0.78418569,-0.54479504,0.50434308,-0.84708306,2.3597939,10.839604)" />
    <circle
       style="fill:#ffec8c;fill-opacity:1;stroke:none;stroke-width:0.188237;stroke-dasharray:none"
       id="path933"
       cx="-5.4570446"
       cy="4.3870268"
       r="0.10700177"
       transform="scale(-1,1)" />
    <circle
       style="fill:#ffec8c;fill-opacity:1;stroke:none;stroke-width:0.188237;stroke-dasharray:none"
       id="circle933"
       cx="-2.4454312"
       cy="4.3909178"
       r="0.10700177"
       transform="scale(-1,1)" />
  </g>
  <g
     id="g956"
     transform="matrix(-1.0624885,0,0,1.0624885,42.597868,-0.26453462)">
    <rect
       style="fill:#bdca31;fill-opacity:0;stroke:none;stroke-width:0.497953"
       id="rect933"
       width="7.9687138"
       height="7.9687138"
       x="0.24897645"
       y="0.24897645" />
    <path
       style="fill:none;fill-opacity:1;stroke:#6e9202;stroke-width:0.188237;stroke-dasharray:none"
       d="M 4.2333334,7.4083676 C 4.1854388,7.102466 4.1375443,6.7965645 4.1750565,6.5062358 4.2125686,6.215907 4.3354876,5.9411511 4.4293089,5.7286526 4.5231302,5.5161542 4.5878539,5.3659131 4.7221786,5.1180957 4.8565033,4.8702784 5.0604289,4.5248848 5.2643546,4.1794912"
       id="path934"
       transform="translate(0.04669168,0.21789451)" />
    <ellipse
       style="fill:#6e9202;fill-opacity:1;stroke:#6e9202;stroke-width:0.220282;stroke-dasharray:none"
       id="ellipse934"
       cx="-5.3376927"
       cy="4.3773017"
       transform="scale(-1,1)"
       rx="0.18352361"
       ry="0.25757697" />
    <path
       style="fill:none;fill-opacity:1;stroke:#6e9202;stroke-width:0.188237;stroke-dasharray:none"
       d="M 3.6730332,7.4317134 C 3.5906809,7.2780026 3.5083286,7.1242918 3.4743201,6.99576 3.4403116,6.8672282 3.4546468,6.7638753 3.4120225,6.5868031 3.3693981,6.4097309 3.269814,6.1589393 3.1785626,5.9025405 3.0873111,5.6461417 3.0043922,5.3841356 2.8683784,5.1067661 2.7323645,4.8293967 2.5432557,4.5366639 2.354147,4.2439312"
       id="path935"
       transform="translate(0.04669168,0.21789451)" />
    <ellipse
       style="fill:#6e9202;fill-opacity:1;stroke:#6e9202;stroke-width:0.266753;stroke-dasharray:none"
       id="ellipse935"
       cx="-2.1939788"
       cy="4.5015488"
       transform="scale(-1,1)"
       rx="0.22224054"
       ry="0.31191653" />
    <path
       style="fill:#e084a8;fill-opacity:1;stroke:none;stroke-width:0.188237;stroke-dasharray:none"
       d="m 4.8233957,5.5865639 c -0.00917,0.011005 0.020176,0.033016 0.1027175,0.1137232 0.082541,0.080707 0.218271,0.2201052 0.3228224,0.2622918 C 5.353487,6.0047656 5.4268544,5.9497399 5.4396935,5.87637 5.4525325,5.8030001 5.404844,5.7112913 5.3479824,5.6580986 5.2911209,5.604906 5.22509,5.5902325 5.1535545,5.5828957 c -0.071535,-0.00734 -0.1485713,-0.00734 -0.2109354,-0.00734 -0.062364,0 -0.1100522,-2e-7 -0.1192234,0.011005 z"
       id="path936"
       transform="matrix(1.3145748,0,0,1.1218039,-0.90438069,-1.812641)" />
    <path
       style="fill:#e084a8;fill-opacity:1;stroke:none;stroke-width:0.188237;stroke-dasharray:none"
       d="m 3.2257883,5.8415205 c 0.014674,0.00183 0.044021,0.0055 0.1302312,0.016507 0.08621,0.011005 0.2292761,0.029347 0.3264903,0.020176 0.097214,-0.00917 0.1485718,-0.045855 0.1449027,-0.1045512 -0.00367,-0.058696 -0.062363,-0.1394002 -0.1210586,-0.172416 -0.058696,-0.033016 -0.11739,-0.018342 -0.1962625,0.00917 -0.078872,0.027514 -0.1779185,0.067866 -0.231111,0.1082194 -0.053193,0.040354 -0.060529,0.080705 -0.064198,0.1008816 -0.00367,0.020176 -0.00367,0.020177 0.011006,0.022011 z"
       id="path937"
       transform="matrix(1.9093423,0,0,1.0944234,-3.772829,-1.9128575)" />
    <path
       style="fill:#e084a8;fill-opacity:1;stroke:none;stroke-width:0.188237;stroke-dasharray:none"
       d="m 4.8233957,5.5865639 c -0.00917,0.011005 0.020176,0.033016 0.1027175,0.1137232 0.082541,0.080707 0.218271,0.2201052 0.3228224,0.2622918 C 5.353487,6.0047656 5.4268544,5.9497399 5.4396935,5.87637 5.4525325,5.8030001 5.404844,5.7112913 5.3479824,5.6580986 5.2911209,5.604906 5.22509,5.5902325 5.1535545,5.5828957 c -0.071535,-0.00734 -0.1485713,-0.00734 -0.2109354,-0.00734 -0.062364,0 -0.1100522,-2e-7 -0.1192234,0.011005 z"
       id="path938"
       transform="matrix(1.0555664,-0.68032999,0.73121626,0.98210819,-3.7601713,2.2217618)" />
    <path
       style="fill:#e084a8;fill-opacity:1;stroke:none;stroke-width:0.188237;stroke-dasharray:none"
       d="m 4.8233957,5.5865639 c -0.00917,0.011005 0.020176,0.033016 0.1027175,0.1137232 0.082541,0.080707 0.218271,0.2201052 0.3228224,0.2622918 C 5.353487,6.0047656 5.4268544,5.9497399 5.4396935,5.87637 5.4525325,5.8030001 5.404844,5.7112913 5.3479824,5.6580986 5.2911209,5.604906 5.22509,5.5902325 5.1535545,5.5828957 c -0.071535,-0.00734 -0.1485713,-0.00734 -0.2109354,-0.00734 -0.062364,0 -0.1100522,-2e-7 -0.1192234,0.011005 z"
       id="path939"
       transform="matrix(0.4682631,-1.3646271,1.1707555,0.54580527,-3.4079714,7.9066819)" />
    <path
       style="fill:#e084a8;fill-opacity:1;stroke:none;stroke-width:0.188237;stroke-dasharray:none"
       d="m 4.8233957,5.5865639 c -0.00917,0.011005 0.020176,0.033016 0.1027175,0.1137232 0.082541,0.080707 0.218271,0.2201052 0.3228224,0.2622918 C 5.353487,6.0047656 5.4268544,5.9497399 5.4396935,5.87637 5.4525325,5.8030001 5.404844,5.7112913 5.3479824,5.6580986 5.2911209,5.604906 5.22509,5.5902325 5.1535545,5.5828957 c -0.071535,-0.00734 -0.1485713,-0.00734 -0.2109354,-0.00734 -0.062364,0 -0.1100522,-2e-7 -0.1192234,0.011005 z"
       id="path940"
       transform="matrix(1.2167002,0.42498244,-0.43752295,1.1818265,1.9173807,-4.2105318)" />
    <path
       style="fill:#e084a8;fill-opacity:1;stroke:none;stroke-width:0.188237;stroke-dasharray:none"
       d="m 3.2257883,5.8415205 c 0.014674,0.00183 0.044021,0.0055 0.1302312,0.016507 0.08621,0.011005 0.2292761,0.029347 0.3264903,0.020176 0.097214,-0.00917 0.1485718,-0.045855 0.1449027,-0.1045512 -0.00367,-0.058696 -0.062363,-0.1394002 -0.1210586,-0.172416 -0.058696,-0.033016 -0.11739,-0.018342 -0.1962625,0.00917 -0.078872,0.027514 -0.1779185,0.067866 -0.231111,0.1082194 -0.053193,0.040354 -0.060529,0.080705 -0.064198,0.1008816 -0.00367,0.020176 -0.00367,0.020177 0.011006,0.022011 z"
       id="path941"
       transform="matrix(1.4642591,-0.98671442,1.2095313,1.1945169,-9.3916659,0.70017055)" />
    <path
       style="fill:#e084a8;fill-opacity:1;stroke:none;stroke-width:0.188237;stroke-dasharray:none"
       d="m 3.2257883,5.8415205 c 0.014674,0.00183 0.044021,0.0055 0.1302312,0.016507 0.08621,0.011005 0.2292761,0.029347 0.3264903,0.020176 0.097214,-0.00917 0.1485718,-0.045855 0.1449027,-0.1045512 -0.00367,-0.058696 -0.062363,-0.1394002 -0.1210586,-0.172416 -0.058696,-0.033016 -0.11739,-0.018342 -0.1962625,0.00917 -0.078872,0.027514 -0.1779185,0.067866 -0.231111,0.1082194 -0.053193,0.040354 -0.060529,0.080705 -0.064198,0.1008816 -0.00367,0.020176 -0.00367,0.020177 0.011006,0.022011 z"
       id="path942"
       transform="matrix(1.1970594,0.75846161,-0.75846161,1.1970594,2.8971215,-4.8200374)" />
    <path
       style="fill:#e084a8;fill-opacity:1;stroke:none;stroke-width:0.188237;stroke-dasharray:none"
       d="m 3.2257883,5.8415205 c 0.014674,0.00183 0.044021,0.0055 0.1302312,0.016507 0.08621,0.011005 0.2292761,0.029347 0.3264903,0.020176 0.097214,-0.00917 0.1485718,-0.045855 0.1449027,-0.1045512 -0.00367,-0.058696 -0.062363,-0.1394002 -0.1210586,-0.172416 -0.058696,-0.033016 -0.11739,-0.018342 -0.1962625,0.00917 -0.078872,0.027514 -0.1779185,0.067866 -0.231111,0.1082194 -0.053193,0.040354 -0.060529,0.080705 -0.064198,0.1008816 -0.00367,0.020176 -0.00367,0.020177 0.011006,0.022011 z"
       id="path943"
       transform="matrix(0.44398731,1.5600636,-1.0434917,0.66377954,7.0432578,-4.2989868)" />
    <path
       style="fill:#e084a8;fill-opacity:1;stroke:none;stroke-width:0.188237;stroke-dasharray:none"
       d="m 4.8233957,5.5865639 c -0.00917,0.011005 0.020176,0.033016 0.1027175,0.1137232 0.082541,0.080707 0.218271,0.2201052 0.3228224,0.2622918 C 5.353487,6.0047656 5.4268544,5.9497399 5.4396935,5.87637 5.4525325,5.8030001 5.404844,5.7112913 5.3479824,5.6580986 5.2911209,5.604906 5.22509,5.5902325 5.1535545,5.5828957 c -0.071535,-0.00734 -0.1485713,-0.00734 -0.2109354,-0.00734 -0.062364,0 -0.1100522,-2e-7 -0.1192234,0.011005 z"
       id="path944"
       transform="matrix(0.57397847,1.1613176,-1.2185783,0.54700738,9.3867753,-4.2480146)" />
    <path
       style="fill:#e084a8;fill-opacity:1;stroke:none;stroke-width:0.188237;stroke-dasharray:none"
       d="m 4.8233957,5.5865639 c -0.00917,0.011005 0.020176,0.033016 0.1027175,0.1137232 0.082541,0.080707 0.218271,0.2201052 0.3228224,0.2622918 C 5.353487,6.0047656 5.4268544,5.9497399 5.4396935,5.87637 5.4525325,5.8030001 5.404844,5.7112913 5.3479824,5.6580986 5.2911209,5.604906 5.22509,5.5902325 5.1535545,5.5828957 c -0.071535,-0.00734 -0.1485713,-0.00734 -0.2109354,-0.00734 -0.062364,0 -0.1100522,-2e-7 -0.1192234,0.011005 z"
       id="path945"
       transform="matrix(-0.53806654,1.1619768,-1.2985241,-0.48148572,15.252915,1.4617157)" />
    <path
       style="fill:#e084a8;fill-opacity:1;stroke:none;stroke-width:0.188237;stroke-dasharray:none"
       d="m 4.8233957,5.5865639 c -0.00917,0.011005 0.020176,0.033016 0.1027175,0.1137232 0.082541,0.080707 0.218271,0.2201052 0.3228224,0.2622918 C 5.353487,6.0047656 5.4268544,5.9497399 5.4396935,5.87637 5.4525325,5.8030001 5.404844,5.7112913 5.3479824,5.6580986 5.2911209,5.604906 5.22509,5.5902325 5.1535545,5.5828957 c -0.071535,-0.00734 -0.1485713,-0.00734 -0.2109354,-0.00734 -0.062364,0 -0.1100522,-2e-7 -0.1192234,0.011005 z"
       id="path946"
       transform="matrix(-1.0063265,0.84839401,-0.99642452,-0.85682497,15.916704,4.9465675)" />
    <path
       style="fill:#e084a8;fill-opacity:1;stroke:none;stroke-width:0.188237;stroke-dasharray:none"
       d="m 4.8233957,5.5865639 c -0.00917,0.011005 0.020176,0.033016 0.1027175,0.1137232 0.082541,0.080707 0.218271,0.2201052 0.3228224,0.2622918 C 5.353487,6.0047656 5.4268544,5.9497399 5.4396935,5.87637 5.4525325,5.8030001 5.404844,5.7112913 5.3479824,5.6580986 5.2911209,5.604906 5.22509,5.5902325 5.1535545,5.5828957 c -0.071535,-0.00734 -0.1485713,-0.00734 -0.2109354,-0.00734 -0.062364,0 -0.1100522,-2e-7 -0.1192234,0.011005 z"
       id="path947"
       transform="matrix(-1.6493087,0.21392375,-0.25836658,-1.3656035,14.885467,10.857277)" />
    <path
       style="fill:#e084a8;fill-opacity:1;stroke:none;stroke-width:0.188237;stroke-dasharray:none"
       d="m 4.8233957,5.5865639 c -0.00917,0.011005 0.020176,0.033016 0.1027175,0.1137232 0.082541,0.080707 0.218271,0.2201052 0.3228224,0.2622918 C 5.353487,6.0047656 5.4268544,5.9497399 5.4396935,5.87637 5.4525325,5.8030001 5.404844,5.7112913 5.3479824,5.6580986 5.2911209,5.604906 5.22509,5.5902325 5.1535545,5.5828957 c -0.071535,-0.00734 -0.1485713,-0.00734 -0.2109354,-0.00734 -0.062364,0 -0.1100522,-2e-7 -0.1192234,0.011005 z"
       id="path948"
       transform="matrix(-1.045133,-0.21086111,0.15033803,-1.4658824,9.6194976,13.468583)" />
    <path
       style="fill:#e084a8;fill-opacity:1;stroke:none;stroke-width:0.188237;stroke-dasharray:none"
       d="m 4.8233957,5.5865639 c -0.00917,0.011005 0.020176,0.033016 0.1027175,0.1137232 0.082541,0.080707 0.218271,0.2201052 0.3228224,0.2622918 C 5.353487,6.0047656 5.4268544,5.9497399 5.4396935,5.87637 5.4525325,5.8030001 5.404844,5.7112913 5.3479824,5.6580986 5.2911209,5.604906 5.22509,5.5902325 5.1535545,5.5828957 c -0.071535,-0.00734 -0.1485713,-0.00734 -0.2109354,-0.00734 -0.062364,0 -0.1100522,-2e-7 -0.1192234,0.011005 z"
       id="path949"
       transform="matrix(-0.95735781,-0.76382014,0.589832,-1.2397584,6.9483081,14.949024)" />
    <path
       style="fill:#e084a8;fill-opacity:1;stroke:none;stroke-width:0.188237;stroke-dasharray:none"
       d="m 3.2257883,5.8415205 c 0.014674,0.00183 0.044021,0.0055 0.1302312,0.016507 0.08621,0.011005 0.2292761,0.029347 0.3264903,0.020176 0.097214,-0.00917 0.1485718,-0.045855 0.1449027,-0.1045512 -0.00367,-0.058696 -0.062363,-0.1394002 -0.1210586,-0.172416 -0.058696,-0.033016 -0.11739,-0.018342 -0.1962625,0.00917 -0.078872,0.027514 -0.1779185,0.067866 -0.231111,0.1082194 -0.053193,0.040354 -0.060529,0.080705 -0.064198,0.1008816 -0.00367,0.020176 -0.00367,0.020177 0.011006,0.022011 z"
       id="path950"
       transform="matrix(-0.07490556,1.3776535,-1.5455704,-0.06676752,11.401221,0.48365591)" />
    <path
       style="fill:#e084a8;fill-opacity:1;stroke:none;stroke-width:0.188237;stroke-dasharray:none"
       d="m 3.2257883,5.8415205 c 0.014674,0.00183 0.044021,0.0055 0.1302312,0.016507 0.08621,0.011005 0.2292761,0.029347 0.3264903,0.020176 0.097214,-0.00917 0.1485718,-0.045855 0.1449027,-0.1045512 -0.00367,-0.058696 -0.062363,-0.1394002 -0.1210586,-0.172416 -0.058696,-0.033016 -0.11739,-0.018342 -0.1962625,0.00917 -0.078872,0.027514 -0.1779185,0.067866 -0.231111,0.1082194 -0.053193,0.040354 -0.060529,0.080705 -0.064198,0.1008816 -0.00367,0.020176 -0.00367,0.020177 0.011006,0.022011 z"
       id="path951"
       transform="matrix(-0.85058268,1.223622,-1.3562968,-0.76737753,12.919404,4.8778963)" />
    <path
       style="fill:#e084a8;fill-opacity:1;stroke:none;stroke-width:0.188237;stroke-dasharray:none"
       d="m 3.2257883,5.8415205 c 0.014674,0.00183 0.044021,0.0055 0.1302312,0.016507 0.08621,0.011005 0.2292761,0.029347 0.3264903,0.020176 0.097214,-0.00917 0.1485718,-0.045855 0.1449027,-0.1045512 -0.00367,-0.058696 -0.062363,-0.1394002 -0.1210586,-0.172416 -0.058696,-0.033016 -0.11739,-0.018342 -0.1962625,0.00917 -0.078872,0.027514 -0.1779185,0.067866 -0.231111,0.1082194 -0.053193,0.040354 -0.060529,0.080705 -0.064198,0.1008816 -0.00367,0.020176 -0.00367,0.020177 0.011006,0.022011 z"
       id="path952"
       transform="matrix(-1.5625455,0.63827836,-0.8139467,-1.2253124,12.14356,9.3773692)" />
    <path
       style="fill:#e084a8;fill-opacity:1;stroke:none;stroke-width:0.188237;stroke-dasharray:none"
       d="m 3.2257883,5.8415205 c 0.014674,0.00183 0.044021,0.0055 0.1302312,0.016507 0.08621,0.011005 0.2292761,0.029347 0.3264903,0.020176 0.097214,-0.00917 0.1485718,-0.045855 0.1449027,-0.1045512 -0.00367,-0.058696 -0.062363,-0.1394002 -0.1210586,-0.172416 -0.058696,-0.033016 -0.11739,-0.018342 -0.1962625,0.00917 -0.078872,0.027514 -0.1779185,0.067866 -0.231111,0.1082194 -0.053193,0.040354 -0.060529,0.080705 -0.064198,0.1008816 -0.00367,0.020176 -0.00367,0.020177 0.011006,0.022011 z"
       id="path953"
       transform="matrix(-1.5532485,-0.07609088,0.08088528,-1.461181,6.9318082,12.973568)" />
    <path
       style="fill:#e084a8;fill-opacity:1;stroke:none;stroke-width:0.188237;stroke-dasharray:none"
       d="m 3.2257883,5.8415205 c 0.014674,0.00183 0.044021,0.0055 0.1302312,0.016507 0.08621,0.011005 0.2292761,0.029347 0.3264903,0.020176 0.097214,-0.00917 0.1485718,-0.045855 0.1449027,-0.1045512 -0.00367,-0.058696 -0.062363,-0.1394002 -0.1210586,-0.172416 -0.058696,-0.033016 -0.11739,-0.018342 -0.1962625,0.00917 -0.078872,0.027514 -0.1779185,0.067866 -0.231111,0.1082194 -0.053193,0.040354 -0.060529,0.080705 -0.064198,0.1008816 -0.00367,0.020176 -0.00367,0.020177 0.011006,0.022011 z"
       id="path954"
       transform="matrix(-1.3381642,-0.78976248,0.86063017,-1.2279745,1.8034746,13.947014)" />
    <path
       style="fill:#e084a8;fill-opacity:1;stroke:none;stroke-width:0.188237;stroke-dasharray:none"
       d="m 3.2257883,5.8415205 c 0.014674,0.00183 0.044021,0.0055 0.1302312,0.016507 0.08621,0.011005 0.2292761,0.029347 0.3264903,0.020176 0.097214,-0.00917 0.1485718,-0.045855 0.1449027,-0.1045512 -0.00367,-0.058696 -0.062363,-0.1394002 -0.1210586,-0.172416 -0.058696,-0.033016 -0.11739,-0.018342 -0.1962625,0.00917 -0.078872,0.027514 -0.1779185,0.067866 -0.231111,0.1082194 -0.053193,0.040354 -0.060529,0.080705 -0.064198,0.1008816 -0.00367,0.020176 -0.00367,0.020177 0.011006,0.022011 z"
       id="path955"
       transform="matrix(-1.2738061,-0.86486191,0.8192387,-1.344744,2.0683242,14.775132)" />
    <circle
       style="fill:#ffec8c;fill-opacity:1;stroke:none;stroke-width:0.365486;stroke-dasharray:none"
       id="circle955"
       cx="-5.4473772"
       cy="4.3900599"
       r="0.20775741"
       transform="scale(-1,1)" />
    <path
       style="fill:#e084a8;fill-opacity:1;stroke:none;stroke-width:0.188237;stroke-dasharray:none"
       d="m 3.2257883,5.8415205 c 0.014674,0.00183 0.044021,0.0055 0.1302312,0.016507 0.08621,0.011005 0.2292761,0.029347 0.3264903,0.020176 0.097214,-0.00917 0.1485718,-0.045855 0.1449027,-0.1045512 -0.00367,-0.058696 -0.062363,-0.1394002 -0.1210586,-0.172416 -0.058696,-0.033016 -0.11739,-0.018342 -0.1962625,0.00917 -0.078872,0.027514 -0.1779185,0.067866 -0.231111,0.1082194 -0.053193,0.040354 -0.060529,0.080705 -0.064198,0.1008816 -0.00367,0.020176 -0.00367,0.020177 0.011006,0.022011 z"
       id="path999"
       transform="matrix(1.8882453,0.28305083,-0.16224301,1.0823307,-2.8402055,-2.5923157)" />
    <circle
       style="fill:#ffec8c;fill-opacity:1;stroke:none;stroke-width:0.402276;stroke-dasharray:none"
       id="circle956"
       cx="-2.3326185"
       cy="4.4519801"
       r="0.22867116"
       transform="scale(-1,1)" />
  </g>
</svg>
