<?xml version="1.0" encoding="UTF-8" standalone="no"?>
<!-- Created with Inkscape (http://www.inkscape.org/) -->

<svg
   width="64.000008"
   height="64.000008"
   viewBox="0 0 16.933335 16.933335"
   version="1.1"
   id="svg1"
   xmlns="http://www.w3.org/2000/svg"
   xmlns:svg="http://www.w3.org/2000/svg">
  <defs
     id="defs1" />
  <g
     id="g32"
     transform="translate(-8.478902,-11.801772)">
    <rect
       style="fill:none;fill-opacity:0.921569;stroke:none;stroke-width:4.36359"
       id="rect225"
       width="15.937428"
       height="15.937428"
       x="7.7312517"
       y="11.356647"
       transform="matrix(1.0624885,0,0,1.0624885,0.26453492,-0.26453461)" />
  </g>
  <g
     id="g956"
     transform="matrix(-1.0624885,0,0,1.0624885,25.6523,-12.066307)">
    <g
       id="g1068"
       transform="translate(0.13206402,3.1255151)">
      <path
         style="fill:none;fill-opacity:1;stroke:#6e9202;stroke-width:0.188237;stroke-dasharray:none"
         d="M 4.2333334,7.4083676 C 4.1854388,7.102466 4.1375443,6.7965645 4.1750565,6.5062358 4.2125686,6.215907 4.3354876,5.9411511 4.4293089,5.7286526 4.5231302,5.5161542 4.5878539,5.3659131 4.7221786,5.1180957 4.8565033,4.8702784 5.0604289,4.5248848 5.2643546,4.1794912"
         id="path1001"
         transform="matrix(1.889306,0,0,1.889306,8.6659321,6.6339313)" />
      <ellipse
         style="fill:#6e9202;fill-opacity:1;stroke:#6e9202;stroke-width:0.41618;stroke-dasharray:none"
         id="ellipse1001"
         cx="-18.662254"
         cy="14.492323"
         transform="scale(-1,1)"
         rx="0.34673226"
         ry="0.48664171" />
      <path
         style="fill:none;fill-opacity:1;stroke:#6e9202;stroke-width:0.188237;stroke-dasharray:none"
         d="M 3.6730332,7.4317134 C 3.5906809,7.2780026 3.5083286,7.1242918 3.4743201,6.99576 3.4403116,6.8672282 3.4546468,6.7638753 3.4120225,6.5868031 3.3693981,6.4097309 3.269814,6.1589393 3.1785626,5.9025405 3.0873111,5.6461417 3.0043922,5.3841356 2.8683784,5.1067661 2.7323645,4.8293967 2.5432557,4.5366639 2.354147,4.2439312"
         id="path1002"
         transform="matrix(1.889306,0,0,1.889306,8.6659321,6.6339313)" />
      <ellipse
         style="fill:#6e9202;fill-opacity:1;stroke:#6e9202;stroke-width:0.503978;stroke-dasharray:none"
         id="ellipse1002"
         cx="-12.722815"
         cy="14.727066"
         transform="scale(-1,1)"
         rx="0.41988036"
         ry="0.58930576" />
      <path
         style="fill:#e084a8;fill-opacity:1;stroke:none;stroke-width:0.188237;stroke-dasharray:none"
         d="m 4.8233957,5.5865639 c -0.00917,0.011005 0.020176,0.033016 0.1027175,0.1137232 0.082541,0.080707 0.218271,0.2201052 0.3228224,0.2622918 C 5.353487,6.0047656 5.4268544,5.9497399 5.4396935,5.87637 5.4525325,5.8030001 5.404844,5.7112913 5.3479824,5.6580986 5.2911209,5.604906 5.22509,5.5902325 5.1535545,5.5828957 c -0.071535,-0.00734 -0.1485713,-0.00734 -0.2109354,-0.00734 -0.062364,0 -0.1100522,-2e-7 -0.1192234,0.011005 z"
         id="path1003"
         transform="matrix(2.483634,0,0,2.1194308,6.8690661,2.7976275)" />
      <path
         style="fill:#e084a8;fill-opacity:1;stroke:none;stroke-width:0.188237;stroke-dasharray:none"
         d="m 3.2257883,5.8415205 c 0.014674,0.00183 0.044021,0.0055 0.1302312,0.016507 0.08621,0.011005 0.2292761,0.029347 0.3264903,0.020176 0.097214,-0.00917 0.1485718,-0.045855 0.1449027,-0.1045512 -0.00367,-0.058696 -0.062363,-0.1394002 -0.1210586,-0.172416 -0.058696,-0.033016 -0.11739,-0.018342 -0.1962625,0.00917 -0.078872,0.027514 -0.1779185,0.067866 -0.231111,0.1082194 -0.053193,0.040354 -0.060529,0.080705 -0.064198,0.1008816 -0.00367,0.020176 -0.00367,0.020177 0.011006,0.022011 z"
         id="path1004"
         transform="matrix(3.6073318,0,0,2.0677007,1.4496893,2.6082888)" />
      <path
         style="fill:#e084a8;fill-opacity:1;stroke:none;stroke-width:0.188237;stroke-dasharray:none"
         d="m 4.8233957,5.5865639 c -0.00917,0.011005 0.020176,0.033016 0.1027175,0.1137232 0.082541,0.080707 0.218271,0.2201052 0.3228224,0.2622918 C 5.353487,6.0047656 5.4268544,5.9497399 5.4396935,5.87637 5.4525325,5.8030001 5.404844,5.7112913 5.3479824,5.6580986 5.2911209,5.604906 5.22509,5.5902325 5.1535545,5.5828957 c -0.071535,-0.00734 -0.1485713,-0.00734 -0.2109354,-0.00734 -0.062364,0 -0.1100522,-2e-7 -0.1192234,0.011005 z"
         id="path1005"
         transform="matrix(1.9942879,-1.2853515,1.3814912,1.8555029,1.4736035,10.419849)" />
      <path
         style="fill:#e084a8;fill-opacity:1;stroke:none;stroke-width:0.188237;stroke-dasharray:none"
         d="m 4.8233957,5.5865639 c -0.00917,0.011005 0.020176,0.033016 0.1027175,0.1137232 0.082541,0.080707 0.218271,0.2201052 0.3228224,0.2622918 C 5.353487,6.0047656 5.4268544,5.9497399 5.4396935,5.87637 5.4525325,5.8030001 5.404844,5.7112913 5.3479824,5.6580986 5.2911209,5.604906 5.22509,5.5902325 5.1535545,5.5828957 c -0.071535,-0.00734 -0.1485713,-0.00734 -0.2109354,-0.00734 -0.062364,0 -0.1100522,-2e-7 -0.1192234,0.011005 z"
         id="path1006"
         transform="matrix(0.88469227,-2.5781981,2.2119154,1.0311932,2.1390169,21.160402)" />
      <path
         style="fill:#e084a8;fill-opacity:1;stroke:none;stroke-width:0.188237;stroke-dasharray:none"
         d="m 4.8233957,5.5865639 c -0.00917,0.011005 0.020176,0.033016 0.1027175,0.1137232 0.082541,0.080707 0.218271,0.2201052 0.3228224,0.2622918 C 5.353487,6.0047656 5.4268544,5.9497399 5.4396935,5.87637 5.4525325,5.8030001 5.404844,5.7112913 5.3479824,5.6580986 5.2911209,5.604906 5.22509,5.5902325 5.1535545,5.5828957 c -0.071535,-0.00734 -0.1485713,-0.00734 -0.2109354,-0.00734 -0.062364,0 -0.1100522,-2e-7 -0.1192234,0.011005 z"
         id="path1007"
         transform="matrix(2.2987189,0.80292186,-0.82661472,2.2328319,12.200236,-1.7327211)" />
      <path
         style="fill:#e084a8;fill-opacity:1;stroke:none;stroke-width:0.188237;stroke-dasharray:none"
         d="m 3.2257883,5.8415205 c 0.014674,0.00183 0.044021,0.0055 0.1302312,0.016507 0.08621,0.011005 0.2292761,0.029347 0.3264903,0.020176 0.097214,-0.00917 0.1485718,-0.045855 0.1449027,-0.1045512 -0.00367,-0.058696 -0.062363,-0.1394002 -0.1210586,-0.172416 -0.058696,-0.033016 -0.11739,-0.018342 -0.1962625,0.00917 -0.078872,0.027514 -0.1779185,0.067866 -0.231111,0.1082194 -0.053193,0.040354 -0.060529,0.080705 -0.064198,0.1008816 -0.00367,0.020176 -0.00367,0.020177 0.011006,0.022011 z"
         id="path1008"
         transform="matrix(2.7664335,-1.8642054,2.2851747,2.2568079,-9.1660131,7.5450982)" />
      <path
         style="fill:#e084a8;fill-opacity:1;stroke:none;stroke-width:0.188237;stroke-dasharray:none"
         d="m 3.2257883,5.8415205 c 0.014674,0.00183 0.044021,0.0055 0.1302312,0.016507 0.08621,0.011005 0.2292761,0.029347 0.3264903,0.020176 0.097214,-0.00917 0.1485718,-0.045855 0.1449027,-0.1045512 -0.00367,-0.058696 -0.062363,-0.1394002 -0.1210586,-0.172416 -0.058696,-0.033016 -0.11739,-0.018342 -0.1962625,0.00917 -0.078872,0.027514 -0.1779185,0.067866 -0.231111,0.1082194 -0.053193,0.040354 -0.060529,0.080705 -0.064198,0.1008816 -0.00367,0.020176 -0.00367,0.020177 0.011006,0.022011 z"
         id="path1009"
         transform="matrix(2.2616115,1.432966,-1.432966,2.2616115,14.051267,-2.8842637)" />
      <path
         style="fill:#e084a8;fill-opacity:1;stroke:none;stroke-width:0.188237;stroke-dasharray:none"
         d="m 3.2257883,5.8415205 c 0.014674,0.00183 0.044021,0.0055 0.1302312,0.016507 0.08621,0.011005 0.2292761,0.029347 0.3264903,0.020176 0.097214,-0.00917 0.1485718,-0.045855 0.1449027,-0.1045512 -0.00367,-0.058696 -0.062363,-0.1394002 -0.1210586,-0.172416 -0.058696,-0.033016 -0.11739,-0.018342 -0.1962625,0.00917 -0.078872,0.027514 -0.1779185,0.067866 -0.231111,0.1082194 -0.053193,0.040354 -0.060529,0.080705 -0.064198,0.1008816 -0.00367,0.020176 -0.00367,0.020177 0.011006,0.022011 z"
         id="path1010"
         transform="matrix(0.83882787,2.9474375,-1.9714751,1.2540826,21.884586,-1.8998397)" />
      <path
         style="fill:#e084a8;fill-opacity:1;stroke:none;stroke-width:0.188237;stroke-dasharray:none"
         d="m 4.8233957,5.5865639 c -0.00917,0.011005 0.020176,0.033016 0.1027175,0.1137232 0.082541,0.080707 0.218271,0.2201052 0.3228224,0.2622918 C 5.353487,6.0047656 5.4268544,5.9497399 5.4396935,5.87637 5.4525325,5.8030001 5.404844,5.7112913 5.3479824,5.6580986 5.2911209,5.604906 5.22509,5.5902325 5.1535545,5.5828957 c -0.071535,-0.00734 -0.1485713,-0.00734 -0.2109354,-0.00734 -0.062364,0 -0.1100522,-2e-7 -0.1192234,0.011005 z"
         id="path1011"
         transform="matrix(1.0844209,2.1940843,-2.3022673,1.0334643,26.312209,-1.8035376)" />
      <path
         style="fill:#e084a8;fill-opacity:1;stroke:none;stroke-width:0.188237;stroke-dasharray:none"
         d="m 4.8233957,5.5865639 c -0.00917,0.011005 0.020176,0.033016 0.1027175,0.1137232 0.082541,0.080707 0.218271,0.2201052 0.3228224,0.2622918 C 5.353487,6.0047656 5.4268544,5.9497399 5.4396935,5.87637 5.4525325,5.8030001 5.404844,5.7112913 5.3479824,5.6580986 5.2911209,5.604906 5.22509,5.5902325 5.1535545,5.5828957 c -0.071535,-0.00734 -0.1485713,-0.00734 -0.2109354,-0.00734 -0.062364,0 -0.1100522,-2e-7 -0.1192234,0.011005 z"
         id="path1012"
         transform="matrix(-1.0165723,2.1953297,-2.4533093,-0.90967384,37.39514,8.9838902)" />
      <path
         style="fill:#e084a8;fill-opacity:1;stroke:none;stroke-width:0.188237;stroke-dasharray:none"
         d="m 4.8233957,5.5865639 c -0.00917,0.011005 0.020176,0.033016 0.1027175,0.1137232 0.082541,0.080707 0.218271,0.2201052 0.3228224,0.2622918 C 5.353487,6.0047656 5.4268544,5.9497399 5.4396935,5.87637 5.4525325,5.8030001 5.404844,5.7112913 5.3479824,5.6580986 5.2911209,5.604906 5.22509,5.5902325 5.1535545,5.5828957 c -0.071535,-0.00734 -0.1485713,-0.00734 -0.2109354,-0.00734 -0.062364,0 -0.1100522,-2e-7 -0.1192234,0.011005 z"
         id="path1013"
         transform="matrix(-1.9012587,1.6028759,-1.8825508,-1.6188045,38.649241,15.567841)" />
      <path
         style="fill:#e084a8;fill-opacity:1;stroke:none;stroke-width:0.188237;stroke-dasharray:none"
         d="m 4.8233957,5.5865639 c -0.00917,0.011005 0.020176,0.033016 0.1027175,0.1137232 0.082541,0.080707 0.218271,0.2201052 0.3228224,0.2622918 C 5.353487,6.0047656 5.4268544,5.9497399 5.4396935,5.87637 5.4525325,5.8030001 5.404844,5.7112913 5.3479824,5.6580986 5.2911209,5.604906 5.22509,5.5902325 5.1535545,5.5828957 c -0.071535,-0.00734 -0.1485713,-0.00734 -0.2109354,-0.00734 -0.062364,0 -0.1100522,-2e-7 -0.1192234,0.011005 z"
         id="path1014"
         transform="matrix(-3.1160488,0.40416742,-0.48813352,-2.5800428,36.700918,26.734979)" />
      <path
         style="fill:#e084a8;fill-opacity:1;stroke:none;stroke-width:0.188237;stroke-dasharray:none"
         d="m 4.8233957,5.5865639 c -0.00917,0.011005 0.020176,0.033016 0.1027175,0.1137232 0.082541,0.080707 0.218271,0.2201052 0.3228224,0.2622918 C 5.353487,6.0047656 5.4268544,5.9497399 5.4396935,5.87637 5.4525325,5.8030001 5.404844,5.7112913 5.3479824,5.6580986 5.2911209,5.604906 5.22509,5.5902325 5.1535545,5.5828957 c -0.071535,-0.00734 -0.1485713,-0.00734 -0.2109354,-0.00734 -0.062364,0 -0.1100522,-2e-7 -0.1192234,0.011005 z"
         id="path1015"
         transform="matrix(-1.974576,-0.39838115,0.28403454,-2.7695004,26.751892,31.668535)" />
      <path
         style="fill:#e084a8;fill-opacity:1;stroke:none;stroke-width:0.188237;stroke-dasharray:none"
         d="m 4.8233957,5.5865639 c -0.00917,0.011005 0.020176,0.033016 0.1027175,0.1137232 0.082541,0.080707 0.218271,0.2201052 0.3228224,0.2622918 C 5.353487,6.0047656 5.4268544,5.9497399 5.4396935,5.87637 5.4525325,5.8030001 5.404844,5.7112913 5.3479824,5.6580986 5.2911209,5.604906 5.22509,5.5902325 5.1535545,5.5828957 c -0.071535,-0.00734 -0.1485713,-0.00734 -0.2109354,-0.00734 -0.062364,0 -0.1100522,-2e-7 -0.1192234,0.011005 z"
         id="path1016"
         transform="matrix(-1.8087418,-1.4430899,1.1143731,-2.3422829,21.705198,34.465541)" />
      <path
         style="fill:#e084a8;fill-opacity:1;stroke:none;stroke-width:0.188237;stroke-dasharray:none"
         d="m 3.2257883,5.8415205 c 0.014674,0.00183 0.044021,0.0055 0.1302312,0.016507 0.08621,0.011005 0.2292761,0.029347 0.3264903,0.020176 0.097214,-0.00917 0.1485718,-0.045855 0.1449027,-0.1045512 -0.00367,-0.058696 -0.062363,-0.1394002 -0.1210586,-0.172416 -0.058696,-0.033016 -0.11739,-0.018342 -0.1962625,0.00917 -0.078872,0.027514 -0.1779185,0.067866 -0.231111,0.1082194 -0.053193,0.040354 -0.060529,0.080705 -0.064198,0.1008816 -0.00367,0.020176 -0.00367,0.020177 0.011006,0.022011 z"
         id="path1017"
         transform="matrix(-0.14151952,2.602809,-2.9200554,-0.12614427,30.118112,7.1360352)" />
      <path
         style="fill:#e084a8;fill-opacity:1;stroke:none;stroke-width:0.188237;stroke-dasharray:none"
         d="m 3.2257883,5.8415205 c 0.014674,0.00183 0.044021,0.0055 0.1302312,0.016507 0.08621,0.011005 0.2292761,0.029347 0.3264903,0.020176 0.097214,-0.00917 0.1485718,-0.045855 0.1449027,-0.1045512 -0.00367,-0.058696 -0.062363,-0.1394002 -0.1210586,-0.172416 -0.058696,-0.033016 -0.11739,-0.018342 -0.1962625,0.00917 -0.078872,0.027514 -0.1779185,0.067866 -0.231111,0.1082194 -0.053193,0.040354 -0.060529,0.080705 -0.064198,0.1008816 -0.00367,0.020176 -0.00367,0.020177 0.011006,0.022011 z"
         id="path1018"
         transform="matrix(-1.6070109,2.3117963,-2.5624596,-1.4498109,32.986424,15.438101)" />
      <path
         style="fill:#e084a8;fill-opacity:1;stroke:none;stroke-width:0.188237;stroke-dasharray:none"
         d="m 3.2257883,5.8415205 c 0.014674,0.00183 0.044021,0.0055 0.1302312,0.016507 0.08621,0.011005 0.2292761,0.029347 0.3264903,0.020176 0.097214,-0.00917 0.1485718,-0.045855 0.1449027,-0.1045512 -0.00367,-0.058696 -0.062363,-0.1394002 -0.1210586,-0.172416 -0.058696,-0.033016 -0.11739,-0.018342 -0.1962625,0.00917 -0.078872,0.027514 -0.1779185,0.067866 -0.231111,0.1082194 -0.053193,0.040354 -0.060529,0.080705 -0.064198,0.1008816 -0.00367,0.020176 -0.00367,0.020177 0.011006,0.022011 z"
         id="path1019"
         transform="matrix(-2.9521265,1.2059031,-1.5377944,-2.31499,31.520617,23.938982)" />
      <path
         style="fill:#e084a8;fill-opacity:1;stroke:none;stroke-width:0.188237;stroke-dasharray:none"
         d="m 3.2257883,5.8415205 c 0.014674,0.00183 0.044021,0.0055 0.1302312,0.016507 0.08621,0.011005 0.2292761,0.029347 0.3264903,0.020176 0.097214,-0.00917 0.1485718,-0.045855 0.1449027,-0.1045512 -0.00367,-0.058696 -0.062363,-0.1394002 -0.1210586,-0.172416 -0.058696,-0.033016 -0.11739,-0.018342 -0.1962625,0.00917 -0.078872,0.027514 -0.1779185,0.067866 -0.231111,0.1082194 -0.053193,0.040354 -0.060529,0.080705 -0.064198,0.1008816 -0.00367,0.020176 -0.00367,0.020177 0.011006,0.022011 z"
         id="path1020"
         transform="matrix(-2.9345617,-0.14375895,0.15281704,-2.760618,21.674025,30.7333)" />
      <path
         style="fill:#e084a8;fill-opacity:1;stroke:none;stroke-width:0.188237;stroke-dasharray:none"
         d="m 3.2257883,5.8415205 c 0.014674,0.00183 0.044021,0.0055 0.1302312,0.016507 0.08621,0.011005 0.2292761,0.029347 0.3264903,0.020176 0.097214,-0.00917 0.1485718,-0.045855 0.1449027,-0.1045512 -0.00367,-0.058696 -0.062363,-0.1394002 -0.1210586,-0.172416 -0.058696,-0.033016 -0.11739,-0.018342 -0.1962625,0.00917 -0.078872,0.027514 -0.1779185,0.067866 -0.231111,0.1082194 -0.053193,0.040354 -0.060529,0.080705 -0.064198,0.1008816 -0.00367,0.020176 -0.00367,0.020177 0.011006,0.022011 z"
         id="path1021"
         transform="matrix(-2.5282016,-1.492103,1.6259937,-2.3200196,11.985033,32.572438)" />
      <path
         style="fill:#e084a8;fill-opacity:1;stroke:none;stroke-width:0.188237;stroke-dasharray:none"
         d="m 3.2257883,5.8415205 c 0.014674,0.00183 0.044021,0.0055 0.1302312,0.016507 0.08621,0.011005 0.2292761,0.029347 0.3264903,0.020176 0.097214,-0.00917 0.1485718,-0.045855 0.1449027,-0.1045512 -0.00367,-0.058696 -0.062363,-0.1394002 -0.1210586,-0.172416 -0.058696,-0.033016 -0.11739,-0.018342 -0.1962625,0.00917 -0.078872,0.027514 -0.1779185,0.067866 -0.231111,0.1082194 -0.053193,0.040354 -0.060529,0.080705 -0.064198,0.1008816 -0.00367,0.020176 -0.00367,0.020177 0.011006,0.022011 z"
         id="path1022"
         transform="matrix(-2.4066095,-1.6339888,1.5477926,-2.5406329,12.485416,34.137006)" />
      <circle
         style="fill:#ffec8c;fill-opacity:1;stroke:none;stroke-width:0.690515;stroke-dasharray:none"
         id="circle1022"
         cx="-18.869482"
         cy="14.516428"
         r="0.39251733"
         transform="scale(-1,1)" />
      <path
         style="fill:#e084a8;fill-opacity:1;stroke:none;stroke-width:0.188237;stroke-dasharray:none"
         d="m 3.2257883,5.8415205 c 0.014674,0.00183 0.044021,0.0055 0.1302312,0.016507 0.08621,0.011005 0.2292761,0.029347 0.3264903,0.020176 0.097214,-0.00917 0.1485718,-0.045855 0.1449027,-0.1045512 -0.00367,-0.058696 -0.062363,-0.1394002 -0.1210586,-0.172416 -0.058696,-0.033016 -0.11739,-0.018342 -0.1962625,0.00917 -0.078872,0.027514 -0.1779185,0.067866 -0.231111,0.1082194 -0.053193,0.040354 -0.060529,0.080705 -0.064198,0.1008816 -0.00367,0.020176 -0.00367,0.020177 0.011006,0.022011 z"
         id="path1023"
         transform="matrix(3.5674731,0.53476962,-0.30652669,2.0448539,3.2117004,1.3245842)" />
      <circle
         style="fill:#ffec8c;fill-opacity:1;stroke:none;stroke-width:0.760022;stroke-dasharray:none"
         id="circle1023"
         cx="-12.984747"
         cy="14.633413"
         r="0.43202978"
         transform="scale(-1,1)" />
    </g>
  </g>
</svg>
