<?xml version="1.0" encoding="UTF-8" standalone="no"?>
<!-- Created with Inkscape (http://www.inkscape.org/) -->

<svg
   width="64.000008"
   height="64.000008"
   viewBox="0 0 16.933335 16.933335"
   version="1.1"
   id="svg1"
   xmlns="http://www.w3.org/2000/svg"
   xmlns:svg="http://www.w3.org/2000/svg">
  <defs
     id="defs1" />
  <g
     id="g32"
     transform="translate(-8.478902,-11.801772)">
    <rect
       style="fill:none;fill-opacity:0.921569;stroke:none;stroke-width:4.36359"
       id="rect225"
       width="15.937428"
       height="15.937428"
       x="7.7312517"
       y="11.356647"
       transform="matrix(1.0624885,0,0,1.0624885,0.26453492,-0.26453461)" />
  </g>
  <g
     id="g650"
     transform="matrix(-1.0624885,0,0,1.0624885,17.185633,-12.066307)">
    <g
       id="g1194"
       transform="translate(-0.08804268,-1.4967256)">
      <path
         style="fill:none;stroke:#457b47;stroke-width:0.376475;stroke-dasharray:none"
         d="M 8.3963291,27.806335 C 8.2936127,26.632433 8.1908961,25.45853 8.1101898,24.394671 8.0294834,23.330813 7.9707895,22.377036 7.9781272,21.225131 c 0.00734,-1.151905 0.080705,-2.501866 0.1540747,-3.279578 0.07337,-0.777713 0.146737,-0.983141 0.220106,-1.188574"
         id="path721" />
      <g
         id="g815">
        <path
           style="fill:#e6757c;stroke:none;stroke-width:0.376474;stroke-dasharray:none"
           d="m 8.3963288,24.82022 c 0.1320637,0.01467 0.3301603,0.08071 0.5502698,0.278806 0.2201094,0.1981 0.4622205,0.528252 0.5172464,0.759365 0.055026,0.231114 -0.077036,0.363176 -0.2421177,0.392523 -0.165082,0.02935 -0.3631747,-0.04402 -0.5355932,-0.161413 C 8.5137157,25.972109 8.3669814,25.8107 8.2789384,25.627276 8.1908955,25.443852 8.1615485,25.238424 8.1468746,25.110028 c -0.014674,-0.128397 -0.014674,-0.179754 0.018342,-0.223775 0.033015,-0.04402 0.099049,-0.08071 0.2311127,-0.06603 z"
           id="path722" />
        <path
           style="fill:#cc5b55;stroke:none;stroke-width:0.376474;stroke-dasharray:none"
           d="m 8.9906176,25.533732 c 0.066033,0.01651 0.1980949,0.04952 0.2861384,0.122896 0.088043,0.07337 0.1320643,0.187091 0.1430692,0.269631 0.011005,0.08254 -0.011005,0.133897 -0.075204,0.172417 -0.064199,0.03852 -0.1705819,0.0642 -0.2494549,0.0752 -0.078873,0.01101 -0.1302255,0.0073 -0.177916,-0.02568 -0.047691,-0.03302 -0.091713,-0.09538 -0.1137236,-0.159577 -0.022011,-0.0642 -0.022011,-0.130231 -0.014674,-0.185257 0.00734,-0.05503 0.02201,-0.09905 0.045855,-0.144903 0.023845,-0.04586 0.056861,-0.09355 0.073369,-0.117392 0.016508,-0.02385 0.016509,-0.02385 0.082541,-0.0073 z"
           id="path733" />
      </g>
      <g
         id="g816"
         transform="translate(0,-0.87157806)">
        <path
           style="fill:#e6757c;stroke:none;stroke-width:0.376474;stroke-dasharray:none"
           d="m 8.3963288,24.82022 c 0.1320637,0.01467 0.3301603,0.08071 0.5502698,0.278806 0.2201094,0.1981 0.4622205,0.528252 0.5172464,0.759365 0.055026,0.231114 -0.077036,0.363176 -0.2421177,0.392523 -0.165082,0.02935 -0.3631747,-0.04402 -0.5355932,-0.161413 C 8.5137157,25.972109 8.3669814,25.8107 8.2789384,25.627276 8.1908955,25.443852 8.1615485,25.238424 8.1468746,25.110028 c -0.014674,-0.128397 -0.014674,-0.179754 0.018342,-0.223775 0.033015,-0.04402 0.099049,-0.08071 0.2311127,-0.06603 z"
           id="path815" />
        <path
           style="fill:#cc5b55;stroke:none;stroke-width:0.376474;stroke-dasharray:none"
           d="m 8.9906176,25.533732 c 0.066033,0.01651 0.1980949,0.04952 0.2861384,0.122896 0.088043,0.07337 0.1320643,0.187091 0.1430692,0.269631 0.011005,0.08254 -0.011005,0.133897 -0.075204,0.172417 -0.064199,0.03852 -0.1705819,0.0642 -0.2494549,0.0752 -0.078873,0.01101 -0.1302255,0.0073 -0.177916,-0.02568 -0.047691,-0.03302 -0.091713,-0.09538 -0.1137236,-0.159577 -0.022011,-0.0642 -0.022011,-0.130231 -0.014674,-0.185257 0.00734,-0.05503 0.02201,-0.09905 0.045855,-0.144903 0.023845,-0.04586 0.056861,-0.09355 0.073369,-0.117392 0.016508,-0.02385 0.016509,-0.02385 0.082541,-0.0073 z"
           id="path816" />
      </g>
      <g
         id="g883"
         transform="translate(0,-1.8365395)">
        <path
           style="fill:#e6757c;stroke:none;stroke-width:0.376474;stroke-dasharray:none"
           d="m 8.3963288,24.82022 c 0.1320637,0.01467 0.3301603,0.08071 0.5502698,0.278806 0.2201094,0.1981 0.4622205,0.528252 0.5172464,0.759365 0.055026,0.231114 -0.077036,0.363176 -0.2421177,0.392523 -0.165082,0.02935 -0.3631747,-0.04402 -0.5355932,-0.161413 C 8.5137157,25.972109 8.3669814,25.8107 8.2789384,25.627276 8.1908955,25.443852 8.1615485,25.238424 8.1468746,25.110028 c -0.014674,-0.128397 -0.014674,-0.179754 0.018342,-0.223775 0.033015,-0.04402 0.099049,-0.08071 0.2311127,-0.06603 z"
           id="path882" />
        <path
           style="fill:#cc5b55;stroke:none;stroke-width:0.376474;stroke-dasharray:none"
           d="m 8.9906176,25.533732 c 0.066033,0.01651 0.1980949,0.04952 0.2861384,0.122896 0.088043,0.07337 0.1320643,0.187091 0.1430692,0.269631 0.011005,0.08254 -0.011005,0.133897 -0.075204,0.172417 -0.064199,0.03852 -0.1705819,0.0642 -0.2494549,0.0752 -0.078873,0.01101 -0.1302255,0.0073 -0.177916,-0.02568 -0.047691,-0.03302 -0.091713,-0.09538 -0.1137236,-0.159577 -0.022011,-0.0642 -0.022011,-0.130231 -0.014674,-0.185257 0.00734,-0.05503 0.02201,-0.09905 0.045855,-0.144903 0.023845,-0.04586 0.056861,-0.09355 0.073369,-0.117392 0.016508,-0.02385 0.016509,-0.02385 0.082541,-0.0073 z"
           id="path883" />
      </g>
      <g
         id="g921"
         transform="translate(-0.14007505,-2.8015009)">
        <path
           style="fill:#e6757c;stroke:none;stroke-width:0.376474;stroke-dasharray:none"
           d="m 8.3963288,24.82022 c 0.1320637,0.01467 0.3301603,0.08071 0.5502698,0.278806 0.2201094,0.1981 0.4622205,0.528252 0.5172464,0.759365 0.055026,0.231114 -0.077036,0.363176 -0.2421177,0.392523 -0.165082,0.02935 -0.3631747,-0.04402 -0.5355932,-0.161413 C 8.5137157,25.972109 8.3669814,25.8107 8.2789384,25.627276 8.1908955,25.443852 8.1615485,25.238424 8.1468746,25.110028 c -0.014674,-0.128397 -0.014674,-0.179754 0.018342,-0.223775 0.033015,-0.04402 0.099049,-0.08071 0.2311127,-0.06603 z"
           id="path920" />
        <path
           style="fill:#cc5b55;stroke:none;stroke-width:0.376474;stroke-dasharray:none"
           d="m 8.9906176,25.533732 c 0.066033,0.01651 0.1980949,0.04952 0.2861384,0.122896 0.088043,0.07337 0.1320643,0.187091 0.1430692,0.269631 0.011005,0.08254 -0.011005,0.133897 -0.075204,0.172417 -0.064199,0.03852 -0.1705819,0.0642 -0.2494549,0.0752 -0.078873,0.01101 -0.1302255,0.0073 -0.177916,-0.02568 -0.047691,-0.03302 -0.091713,-0.09538 -0.1137236,-0.159577 -0.022011,-0.0642 -0.022011,-0.130231 -0.014674,-0.185257 0.00734,-0.05503 0.02201,-0.09905 0.045855,-0.144903 0.023845,-0.04586 0.056861,-0.09355 0.073369,-0.117392 0.016508,-0.02385 0.016509,-0.02385 0.082541,-0.0073 z"
           id="path921" />
      </g>
      <g
         id="g944"
         transform="translate(-0.12451116,-3.9376652)">
        <path
           style="fill:#e6757c;stroke:none;stroke-width:0.376474;stroke-dasharray:none"
           d="m 8.3963288,24.82022 c 0.1320637,0.01467 0.3301603,0.08071 0.5502698,0.278806 0.2201094,0.1981 0.4622205,0.528252 0.5172464,0.759365 0.055026,0.231114 -0.077036,0.363176 -0.2421177,0.392523 -0.165082,0.02935 -0.3631747,-0.04402 -0.5355932,-0.161413 C 8.5137157,25.972109 8.3669814,25.8107 8.2789384,25.627276 8.1908955,25.443852 8.1615485,25.238424 8.1468746,25.110028 c -0.014674,-0.128397 -0.014674,-0.179754 0.018342,-0.223775 0.033015,-0.04402 0.099049,-0.08071 0.2311127,-0.06603 z"
           id="path943" />
        <path
           style="fill:#cc5b55;stroke:none;stroke-width:0.376474;stroke-dasharray:none"
           d="m 8.9906176,25.533732 c 0.066033,0.01651 0.1980949,0.04952 0.2861384,0.122896 0.088043,0.07337 0.1320643,0.187091 0.1430692,0.269631 0.011005,0.08254 -0.011005,0.133897 -0.075204,0.172417 -0.064199,0.03852 -0.1705819,0.0642 -0.2494549,0.0752 -0.078873,0.01101 -0.1302255,0.0073 -0.177916,-0.02568 -0.047691,-0.03302 -0.091713,-0.09538 -0.1137236,-0.159577 -0.022011,-0.0642 -0.022011,-0.130231 -0.014674,-0.185257 0.00734,-0.05503 0.02201,-0.09905 0.045855,-0.144903 0.023845,-0.04586 0.056861,-0.09355 0.073369,-0.117392 0.016508,-0.02385 0.016509,-0.02385 0.082541,-0.0073 z"
           id="path944" />
      </g>
      <g
         id="g1108"
         transform="translate(-0.12451116,-4.8714988)">
        <path
           style="fill:#e6757c;stroke:none;stroke-width:0.376474;stroke-dasharray:none"
           d="m 8.3963288,24.82022 c 0.1320637,0.01467 0.3301603,0.08071 0.5502698,0.278806 0.2201094,0.1981 0.4622205,0.528252 0.5172464,0.759365 0.055026,0.231114 -0.077036,0.363176 -0.2421177,0.392523 -0.165082,0.02935 -0.3631747,-0.04402 -0.5355932,-0.161413 C 8.5137157,25.972109 8.3669814,25.8107 8.2789384,25.627276 8.1908955,25.443852 8.1615485,25.238424 8.1468746,25.110028 c -0.014674,-0.128397 -0.014674,-0.179754 0.018342,-0.223775 0.033015,-0.04402 0.099049,-0.08071 0.2311127,-0.06603 z"
           id="path1107" />
        <path
           style="fill:#cc5b55;stroke:none;stroke-width:0.376474;stroke-dasharray:none"
           d="m 8.9906176,25.533732 c 0.066033,0.01651 0.1980949,0.04952 0.2861384,0.122896 0.088043,0.07337 0.1320643,0.187091 0.1430692,0.269631 0.011005,0.08254 -0.011005,0.133897 -0.075204,0.172417 -0.064199,0.03852 -0.1705819,0.0642 -0.2494549,0.0752 -0.078873,0.01101 -0.1302255,0.0073 -0.177916,-0.02568 -0.047691,-0.03302 -0.091713,-0.09538 -0.1137236,-0.159577 -0.022011,-0.0642 -0.022011,-0.130231 -0.014674,-0.185257 0.00734,-0.05503 0.02201,-0.09905 0.045855,-0.144903 0.023845,-0.04586 0.056861,-0.09355 0.073369,-0.117392 0.016508,-0.02385 0.016509,-0.02385 0.082541,-0.0073 z"
           id="path1108" />
      </g>
      <g
         id="g1116"
         transform="translate(-0.12451116,-5.867588)">
        <path
           style="fill:#e6757c;stroke:none;stroke-width:0.376474;stroke-dasharray:none"
           d="m 8.3963288,24.82022 c 0.1320637,0.01467 0.3301603,0.08071 0.5502698,0.278806 0.2201094,0.1981 0.4622205,0.528252 0.5172464,0.759365 0.055026,0.231114 -0.077036,0.363176 -0.2421177,0.392523 -0.165082,0.02935 -0.3631747,-0.04402 -0.5355932,-0.161413 C 8.5137157,25.972109 8.3669814,25.8107 8.2789384,25.627276 8.1908955,25.443852 8.1615485,25.238424 8.1468746,25.110028 c -0.014674,-0.128397 -0.014674,-0.179754 0.018342,-0.223775 0.033015,-0.04402 0.099049,-0.08071 0.2311127,-0.06603 z"
           id="path1115" />
        <path
           style="fill:#cc5b55;stroke:none;stroke-width:0.376474;stroke-dasharray:none"
           d="m 8.9906176,25.533732 c 0.066033,0.01651 0.1980949,0.04952 0.2861384,0.122896 0.088043,0.07337 0.1320643,0.187091 0.1430692,0.269631 0.011005,0.08254 -0.011005,0.133897 -0.075204,0.172417 -0.064199,0.03852 -0.1705819,0.0642 -0.2494549,0.0752 -0.078873,0.01101 -0.1302255,0.0073 -0.177916,-0.02568 -0.047691,-0.03302 -0.091713,-0.09538 -0.1137236,-0.159577 -0.022011,-0.0642 -0.022011,-0.130231 -0.014674,-0.185257 0.00734,-0.05503 0.02201,-0.09905 0.045855,-0.144903 0.023845,-0.04586 0.056861,-0.09355 0.073369,-0.117392 0.016508,-0.02385 0.016509,-0.02385 0.082541,-0.0073 z"
           id="path1116" />
      </g>
      <g
         id="g1122"
         transform="translate(-0.0311278,-6.894805)">
        <path
           style="fill:#e6757c;stroke:none;stroke-width:0.376474;stroke-dasharray:none"
           d="m 8.3963288,24.82022 c 0.1320637,0.01467 0.3301603,0.08071 0.5502698,0.278806 0.2201094,0.1981 0.4622205,0.528252 0.5172464,0.759365 0.055026,0.231114 -0.077036,0.363176 -0.2421177,0.392523 -0.165082,0.02935 -0.3631747,-0.04402 -0.5355932,-0.161413 C 8.5137157,25.972109 8.3669814,25.8107 8.2789384,25.627276 8.1908955,25.443852 8.1615485,25.238424 8.1468746,25.110028 c -0.014674,-0.128397 -0.014674,-0.179754 0.018342,-0.223775 0.033015,-0.04402 0.099049,-0.08071 0.2311127,-0.06603 z"
           id="path1121" />
        <path
           style="fill:#cc5b55;stroke:none;stroke-width:0.376474;stroke-dasharray:none"
           d="m 8.9906176,25.533732 c 0.066033,0.01651 0.1980949,0.04952 0.2861384,0.122896 0.088043,0.07337 0.1320643,0.187091 0.1430692,0.269631 0.011005,0.08254 -0.011005,0.133897 -0.075204,0.172417 -0.064199,0.03852 -0.1705819,0.0642 -0.2494549,0.0752 -0.078873,0.01101 -0.1302255,0.0073 -0.177916,-0.02568 -0.047691,-0.03302 -0.091713,-0.09538 -0.1137236,-0.159577 -0.022011,-0.0642 -0.022011,-0.130231 -0.014674,-0.185257 0.00734,-0.05503 0.02201,-0.09905 0.045855,-0.144903 0.023845,-0.04586 0.056861,-0.09355 0.073369,-0.117392 0.016508,-0.02385 0.016509,-0.02385 0.082541,-0.0073 z"
           id="path1122" />
      </g>
      <g
         id="g1126"
         transform="translate(0.09338335,-7.7975108)">
        <path
           style="fill:#e6757c;stroke:none;stroke-width:0.376474;stroke-dasharray:none"
           d="m 8.3963288,24.82022 c 0.1320637,0.01467 0.3301603,0.08071 0.5502698,0.278806 0.2201094,0.1981 0.4622205,0.528252 0.5172464,0.759365 0.055026,0.231114 -0.077036,0.363176 -0.2421177,0.392523 -0.165082,0.02935 -0.3631747,-0.04402 -0.5355932,-0.161413 C 8.5137157,25.972109 8.3669814,25.8107 8.2789384,25.627276 8.1908955,25.443852 8.1615485,25.238424 8.1468746,25.110028 c -0.014674,-0.128397 -0.014674,-0.179754 0.018342,-0.223775 0.033015,-0.04402 0.099049,-0.08071 0.2311127,-0.06603 z"
           id="path1125" />
        <path
           style="fill:#cc5b55;stroke:none;stroke-width:0.376474;stroke-dasharray:none"
           d="m 8.9906176,25.533732 c 0.066033,0.01651 0.1980949,0.04952 0.2861384,0.122896 0.088043,0.07337 0.1320643,0.187091 0.1430692,0.269631 0.011005,0.08254 -0.011005,0.133897 -0.075204,0.172417 -0.064199,0.03852 -0.1705819,0.0642 -0.2494549,0.0752 -0.078873,0.01101 -0.1302255,0.0073 -0.177916,-0.02568 -0.047691,-0.03302 -0.091713,-0.09538 -0.1137236,-0.159577 -0.022011,-0.0642 -0.022011,-0.130231 -0.014674,-0.185257 0.00734,-0.05503 0.02201,-0.09905 0.045855,-0.144903 0.023845,-0.04586 0.056861,-0.09355 0.073369,-0.117392 0.016508,-0.02385 0.016509,-0.02385 0.082541,-0.0073 z"
           id="path1126" />
      </g>
      <g
         id="g1130"
         transform="matrix(-1,0,0,1,16.414157,0.47296102)">
        <path
           style="fill:#e6757c;stroke:none;stroke-width:0.376474;stroke-dasharray:none"
           d="m 8.3963288,24.82022 c 0.1320637,0.01467 0.3301603,0.08071 0.5502698,0.278806 0.2201094,0.1981 0.4622205,0.528252 0.5172464,0.759365 0.055026,0.231114 -0.077036,0.363176 -0.2421177,0.392523 -0.165082,0.02935 -0.3631747,-0.04402 -0.5355932,-0.161413 C 8.5137157,25.972109 8.3669814,25.8107 8.2789384,25.627276 8.1908955,25.443852 8.1615485,25.238424 8.1468746,25.110028 c -0.014674,-0.128397 -0.014674,-0.179754 0.018342,-0.223775 0.033015,-0.04402 0.099049,-0.08071 0.2311127,-0.06603 z"
           id="path1129" />
        <path
           style="fill:#cc5b55;stroke:none;stroke-width:0.376474;stroke-dasharray:none"
           d="m 8.9906176,25.533732 c 0.066033,0.01651 0.1980949,0.04952 0.2861384,0.122896 0.088043,0.07337 0.1320643,0.187091 0.1430692,0.269631 0.011005,0.08254 -0.011005,0.133897 -0.075204,0.172417 -0.064199,0.03852 -0.1705819,0.0642 -0.2494549,0.0752 -0.078873,0.01101 -0.1302255,0.0073 -0.177916,-0.02568 -0.047691,-0.03302 -0.091713,-0.09538 -0.1137236,-0.159577 -0.022011,-0.0642 -0.022011,-0.130231 -0.014674,-0.185257 0.00734,-0.05503 0.02201,-0.09905 0.045855,-0.144903 0.023845,-0.04586 0.056861,-0.09355 0.073369,-0.117392 0.016508,-0.02385 0.016509,-0.02385 0.082541,-0.0073 z"
           id="path1130" />
      </g>
      <g
         id="g1134"
         transform="matrix(-1,0,0,1,16.381141,-0.28640709)">
        <path
           style="fill:#e6757c;stroke:none;stroke-width:0.376474;stroke-dasharray:none"
           d="m 8.3963288,24.82022 c 0.1320637,0.01467 0.3301603,0.08071 0.5502698,0.278806 0.2201094,0.1981 0.4622205,0.528252 0.5172464,0.759365 0.055026,0.231114 -0.077036,0.363176 -0.2421177,0.392523 -0.165082,0.02935 -0.3631747,-0.04402 -0.5355932,-0.161413 C 8.5137157,25.972109 8.3669814,25.8107 8.2789384,25.627276 8.1908955,25.443852 8.1615485,25.238424 8.1468746,25.110028 c -0.014674,-0.128397 -0.014674,-0.179754 0.018342,-0.223775 0.033015,-0.04402 0.099049,-0.08071 0.2311127,-0.06603 z"
           id="path1133" />
        <path
           style="fill:#cc5b55;stroke:none;stroke-width:0.376474;stroke-dasharray:none"
           d="m 8.9906176,25.533732 c 0.066033,0.01651 0.1980949,0.04952 0.2861384,0.122896 0.088043,0.07337 0.1320643,0.187091 0.1430692,0.269631 0.011005,0.08254 -0.011005,0.133897 -0.075204,0.172417 -0.064199,0.03852 -0.1705819,0.0642 -0.2494549,0.0752 -0.078873,0.01101 -0.1302255,0.0073 -0.177916,-0.02568 -0.047691,-0.03302 -0.091713,-0.09538 -0.1137236,-0.159577 -0.022011,-0.0642 -0.022011,-0.130231 -0.014674,-0.185257 0.00734,-0.05503 0.02201,-0.09905 0.045855,-0.144903 0.023845,-0.04586 0.056861,-0.09355 0.073369,-0.117392 0.016508,-0.02385 0.016509,-0.02385 0.082541,-0.0073 z"
           id="path1134" />
      </g>
      <g
         id="g1138"
         transform="matrix(-1,0,0,1,16.392146,-1.1558286)">
        <path
           style="fill:#e6757c;stroke:none;stroke-width:0.376474;stroke-dasharray:none"
           d="m 8.3963288,24.82022 c 0.1320637,0.01467 0.3301603,0.08071 0.5502698,0.278806 0.2201094,0.1981 0.4622205,0.528252 0.5172464,0.759365 0.055026,0.231114 -0.077036,0.363176 -0.2421177,0.392523 -0.165082,0.02935 -0.3631747,-0.04402 -0.5355932,-0.161413 C 8.5137157,25.972109 8.3669814,25.8107 8.2789384,25.627276 8.1908955,25.443852 8.1615485,25.238424 8.1468746,25.110028 c -0.014674,-0.128397 -0.014674,-0.179754 0.018342,-0.223775 0.033015,-0.04402 0.099049,-0.08071 0.2311127,-0.06603 z"
           id="path1137" />
        <path
           style="fill:#cc5b55;stroke:none;stroke-width:0.376474;stroke-dasharray:none"
           d="m 8.9906176,25.533732 c 0.066033,0.01651 0.1980949,0.04952 0.2861384,0.122896 0.088043,0.07337 0.1320643,0.187091 0.1430692,0.269631 0.011005,0.08254 -0.011005,0.133897 -0.075204,0.172417 -0.064199,0.03852 -0.1705819,0.0642 -0.2494549,0.0752 -0.078873,0.01101 -0.1302255,0.0073 -0.177916,-0.02568 -0.047691,-0.03302 -0.091713,-0.09538 -0.1137236,-0.159577 -0.022011,-0.0642 -0.022011,-0.130231 -0.014674,-0.185257 0.00734,-0.05503 0.02201,-0.09905 0.045855,-0.144903 0.023845,-0.04586 0.056861,-0.09355 0.073369,-0.117392 0.016508,-0.02385 0.016509,-0.02385 0.082541,-0.0073 z"
           id="path1138" />
      </g>
      <g
         id="g1142"
         transform="matrix(-1,0,0,1,16.403151,-1.86017)">
        <path
           style="fill:#e6757c;stroke:none;stroke-width:0.376474;stroke-dasharray:none"
           d="m 8.3963288,24.82022 c 0.1320637,0.01467 0.3301603,0.08071 0.5502698,0.278806 0.2201094,0.1981 0.4622205,0.528252 0.5172464,0.759365 0.055026,0.231114 -0.077036,0.363176 -0.2421177,0.392523 -0.165082,0.02935 -0.3631747,-0.04402 -0.5355932,-0.161413 C 8.5137157,25.972109 8.3669814,25.8107 8.2789384,25.627276 8.1908955,25.443852 8.1615485,25.238424 8.1468746,25.110028 c -0.014674,-0.128397 -0.014674,-0.179754 0.018342,-0.223775 0.033015,-0.04402 0.099049,-0.08071 0.2311127,-0.06603 z"
           id="path1141" />
        <path
           style="fill:#cc5b55;stroke:none;stroke-width:0.376474;stroke-dasharray:none"
           d="m 8.9906176,25.533732 c 0.066033,0.01651 0.1980949,0.04952 0.2861384,0.122896 0.088043,0.07337 0.1320643,0.187091 0.1430692,0.269631 0.011005,0.08254 -0.011005,0.133897 -0.075204,0.172417 -0.064199,0.03852 -0.1705819,0.0642 -0.2494549,0.0752 -0.078873,0.01101 -0.1302255,0.0073 -0.177916,-0.02568 -0.047691,-0.03302 -0.091713,-0.09538 -0.1137236,-0.159577 -0.022011,-0.0642 -0.022011,-0.130231 -0.014674,-0.185257 0.00734,-0.05503 0.02201,-0.09905 0.045855,-0.144903 0.023845,-0.04586 0.056861,-0.09355 0.073369,-0.117392 0.016508,-0.02385 0.016509,-0.02385 0.082541,-0.0073 z"
           id="path1142" />
      </g>
      <g
         id="g1146"
         transform="matrix(-1,0,0,1,16.315108,-2.7956235)">
        <path
           style="fill:#e6757c;stroke:none;stroke-width:0.376474;stroke-dasharray:none"
           d="m 8.3963288,24.82022 c 0.1320637,0.01467 0.3301603,0.08071 0.5502698,0.278806 0.2201094,0.1981 0.4622205,0.528252 0.5172464,0.759365 0.055026,0.231114 -0.077036,0.363176 -0.2421177,0.392523 -0.165082,0.02935 -0.3631747,-0.04402 -0.5355932,-0.161413 C 8.5137157,25.972109 8.3669814,25.8107 8.2789384,25.627276 8.1908955,25.443852 8.1615485,25.238424 8.1468746,25.110028 c -0.014674,-0.128397 -0.014674,-0.179754 0.018342,-0.223775 0.033015,-0.04402 0.099049,-0.08071 0.2311127,-0.06603 z"
           id="path1145" />
        <path
           style="fill:#cc5b55;stroke:none;stroke-width:0.376474;stroke-dasharray:none"
           d="m 8.9906176,25.533732 c 0.066033,0.01651 0.1980949,0.04952 0.2861384,0.122896 0.088043,0.07337 0.1320643,0.187091 0.1430692,0.269631 0.011005,0.08254 -0.011005,0.133897 -0.075204,0.172417 -0.064199,0.03852 -0.1705819,0.0642 -0.2494549,0.0752 -0.078873,0.01101 -0.1302255,0.0073 -0.177916,-0.02568 -0.047691,-0.03302 -0.091713,-0.09538 -0.1137236,-0.159577 -0.022011,-0.0642 -0.022011,-0.130231 -0.014674,-0.185257 0.00734,-0.05503 0.02201,-0.09905 0.045855,-0.144903 0.023845,-0.04586 0.056861,-0.09355 0.073369,-0.117392 0.016508,-0.02385 0.016509,-0.02385 0.082541,-0.0073 z"
           id="path1146" />
      </g>
      <g
         id="g1150"
         transform="matrix(-1,0,0,1,16.579236,-3.6540396)">
        <path
           style="fill:#e6757c;stroke:none;stroke-width:0.376474;stroke-dasharray:none"
           d="m 8.3963288,24.82022 c 0.1320637,0.01467 0.3301603,0.08071 0.5502698,0.278806 0.2201094,0.1981 0.4622205,0.528252 0.5172464,0.759365 0.055026,0.231114 -0.077036,0.363176 -0.2421177,0.392523 -0.165082,0.02935 -0.3631747,-0.04402 -0.5355932,-0.161413 C 8.5137157,25.972109 8.3669814,25.8107 8.2789384,25.627276 8.1908955,25.443852 8.1615485,25.238424 8.1468746,25.110028 c -0.014674,-0.128397 -0.014674,-0.179754 0.018342,-0.223775 0.033015,-0.04402 0.099049,-0.08071 0.2311127,-0.06603 z"
           id="path1149" />
        <path
           style="fill:#cc5b55;stroke:none;stroke-width:0.376474;stroke-dasharray:none"
           d="m 8.9906176,25.533732 c 0.066033,0.01651 0.1980949,0.04952 0.2861384,0.122896 0.088043,0.07337 0.1320643,0.187091 0.1430692,0.269631 0.011005,0.08254 -0.011005,0.133897 -0.075204,0.172417 -0.064199,0.03852 -0.1705819,0.0642 -0.2494549,0.0752 -0.078873,0.01101 -0.1302255,0.0073 -0.177916,-0.02568 -0.047691,-0.03302 -0.091713,-0.09538 -0.1137236,-0.159577 -0.022011,-0.0642 -0.022011,-0.130231 -0.014674,-0.185257 0.00734,-0.05503 0.02201,-0.09905 0.045855,-0.144903 0.023845,-0.04586 0.056861,-0.09355 0.073369,-0.117392 0.016508,-0.02385 0.016509,-0.02385 0.082541,-0.0073 z"
           id="path1150" />
      </g>
      <g
         id="g1155"
         transform="matrix(-1,0,0,1,16.315108,-4.6004984)">
        <path
           style="fill:#e6757c;stroke:none;stroke-width:0.376474;stroke-dasharray:none"
           d="m 8.3963288,24.82022 c 0.1320637,0.01467 0.3301603,0.08071 0.5502698,0.278806 0.2201094,0.1981 0.4622205,0.528252 0.5172464,0.759365 0.055026,0.231114 -0.077036,0.363176 -0.2421177,0.392523 -0.165082,0.02935 -0.3631747,-0.04402 -0.5355932,-0.161413 C 8.5137157,25.972109 8.3669814,25.8107 8.2789384,25.627276 8.1908955,25.443852 8.1615485,25.238424 8.1468746,25.110028 c -0.014674,-0.128397 -0.014674,-0.179754 0.018342,-0.223775 0.033015,-0.04402 0.099049,-0.08071 0.2311127,-0.06603 z"
           id="path1154" />
        <path
           style="fill:#cc5b55;stroke:none;stroke-width:0.376474;stroke-dasharray:none"
           d="m 8.9906176,25.533732 c 0.066033,0.01651 0.1980949,0.04952 0.2861384,0.122896 0.088043,0.07337 0.1320643,0.187091 0.1430692,0.269631 0.011005,0.08254 -0.011005,0.133897 -0.075204,0.172417 -0.064199,0.03852 -0.1705819,0.0642 -0.2494549,0.0752 -0.078873,0.01101 -0.1302255,0.0073 -0.177916,-0.02568 -0.047691,-0.03302 -0.091713,-0.09538 -0.1137236,-0.159577 -0.022011,-0.0642 -0.022011,-0.130231 -0.014674,-0.185257 0.00734,-0.05503 0.02201,-0.09905 0.045855,-0.144903 0.023845,-0.04586 0.056861,-0.09355 0.073369,-0.117392 0.016508,-0.02385 0.016509,-0.02385 0.082541,-0.0073 z"
           id="path1155" />
      </g>
      <g
         id="g1163"
         transform="matrix(-1,0,0,1,16.337119,-5.3708718)">
        <path
           style="fill:#e6757c;stroke:none;stroke-width:0.376474;stroke-dasharray:none"
           d="m 8.3963288,24.82022 c 0.1320637,0.01467 0.3301603,0.08071 0.5502698,0.278806 0.2201094,0.1981 0.4622205,0.528252 0.5172464,0.759365 0.055026,0.231114 -0.077036,0.363176 -0.2421177,0.392523 -0.165082,0.02935 -0.3631747,-0.04402 -0.5355932,-0.161413 C 8.5137157,25.972109 8.3669814,25.8107 8.2789384,25.627276 8.1908955,25.443852 8.1615485,25.238424 8.1468746,25.110028 c -0.014674,-0.128397 -0.014674,-0.179754 0.018342,-0.223775 0.033015,-0.04402 0.099049,-0.08071 0.2311127,-0.06603 z"
           id="path1162" />
        <path
           style="fill:#cc5b55;stroke:none;stroke-width:0.376474;stroke-dasharray:none"
           d="m 8.9906176,25.533732 c 0.066033,0.01651 0.1980949,0.04952 0.2861384,0.122896 0.088043,0.07337 0.1320643,0.187091 0.1430692,0.269631 0.011005,0.08254 -0.011005,0.133897 -0.075204,0.172417 -0.064199,0.03852 -0.1705819,0.0642 -0.2494549,0.0752 -0.078873,0.01101 -0.1302255,0.0073 -0.177916,-0.02568 -0.047691,-0.03302 -0.091713,-0.09538 -0.1137236,-0.159577 -0.022011,-0.0642 -0.022011,-0.130231 -0.014674,-0.185257 0.00734,-0.05503 0.02201,-0.09905 0.045855,-0.144903 0.023845,-0.04586 0.056861,-0.09355 0.073369,-0.117392 0.016508,-0.02385 0.016509,-0.02385 0.082541,-0.0073 z"
           id="path1163" />
      </g>
      <g
         id="g1171"
         transform="matrix(-1,0,0,1,16.436167,-6.3723573)">
        <path
           style="fill:#e6757c;stroke:none;stroke-width:0.376474;stroke-dasharray:none"
           d="m 8.3963288,24.82022 c 0.1320637,0.01467 0.3301603,0.08071 0.5502698,0.278806 0.2201094,0.1981 0.4622205,0.528252 0.5172464,0.759365 0.055026,0.231114 -0.077036,0.363176 -0.2421177,0.392523 -0.165082,0.02935 -0.3631747,-0.04402 -0.5355932,-0.161413 C 8.5137157,25.972109 8.3669814,25.8107 8.2789384,25.627276 8.1908955,25.443852 8.1615485,25.238424 8.1468746,25.110028 c -0.014674,-0.128397 -0.014674,-0.179754 0.018342,-0.223775 0.033015,-0.04402 0.099049,-0.08071 0.2311127,-0.06603 z"
           id="path1170" />
        <path
           style="fill:#cc5b55;stroke:none;stroke-width:0.376474;stroke-dasharray:none"
           d="m 8.9906176,25.533732 c 0.066033,0.01651 0.1980949,0.04952 0.2861384,0.122896 0.088043,0.07337 0.1320643,0.187091 0.1430692,0.269631 0.011005,0.08254 -0.011005,0.133897 -0.075204,0.172417 -0.064199,0.03852 -0.1705819,0.0642 -0.2494549,0.0752 -0.078873,0.01101 -0.1302255,0.0073 -0.177916,-0.02568 -0.047691,-0.03302 -0.091713,-0.09538 -0.1137236,-0.159577 -0.022011,-0.0642 -0.022011,-0.130231 -0.014674,-0.185257 0.00734,-0.05503 0.02201,-0.09905 0.045855,-0.144903 0.023845,-0.04586 0.056861,-0.09355 0.073369,-0.117392 0.016508,-0.02385 0.016509,-0.02385 0.082541,-0.0073 z"
           id="path1171" />
      </g>
      <g
         id="g1179"
         transform="matrix(-1,0,0,1,16.447172,-7.3078108)">
        <path
           style="fill:#e6757c;stroke:none;stroke-width:0.376474;stroke-dasharray:none"
           d="m 8.3963288,24.82022 c 0.1320637,0.01467 0.3301603,0.08071 0.5502698,0.278806 0.2201094,0.1981 0.4622205,0.528252 0.5172464,0.759365 0.055026,0.231114 -0.077036,0.363176 -0.2421177,0.392523 -0.165082,0.02935 -0.3631747,-0.04402 -0.5355932,-0.161413 C 8.5137157,25.972109 8.3669814,25.8107 8.2789384,25.627276 8.1908955,25.443852 8.1615485,25.238424 8.1468746,25.110028 c -0.014674,-0.128397 -0.014674,-0.179754 0.018342,-0.223775 0.033015,-0.04402 0.099049,-0.08071 0.2311127,-0.06603 z"
           id="path1178" />
        <path
           style="fill:#cc5b55;stroke:none;stroke-width:0.376474;stroke-dasharray:none"
           d="m 8.9906176,25.533732 c 0.066033,0.01651 0.1980949,0.04952 0.2861384,0.122896 0.088043,0.07337 0.1320643,0.187091 0.1430692,0.269631 0.011005,0.08254 -0.011005,0.133897 -0.075204,0.172417 -0.064199,0.03852 -0.1705819,0.0642 -0.2494549,0.0752 -0.078873,0.01101 -0.1302255,0.0073 -0.177916,-0.02568 -0.047691,-0.03302 -0.091713,-0.09538 -0.1137236,-0.159577 -0.022011,-0.0642 -0.022011,-0.130231 -0.014674,-0.185257 0.00734,-0.05503 0.02201,-0.09905 0.045855,-0.144903 0.023845,-0.04586 0.056861,-0.09355 0.073369,-0.117392 0.016508,-0.02385 0.016509,-0.02385 0.082541,-0.0073 z"
           id="path1179" />
      </g>
      <g
         id="g1187"
         transform="matrix(-1,0,0,1,16.590241,-8.2102483)">
        <path
           style="fill:#e6757c;stroke:none;stroke-width:0.376474;stroke-dasharray:none"
           d="m 8.3963288,24.82022 c 0.1320637,0.01467 0.3301603,0.08071 0.5502698,0.278806 0.2201094,0.1981 0.4622205,0.528252 0.5172464,0.759365 0.055026,0.231114 -0.077036,0.363176 -0.2421177,0.392523 -0.165082,0.02935 -0.3631747,-0.04402 -0.5355932,-0.161413 C 8.5137157,25.972109 8.3669814,25.8107 8.2789384,25.627276 8.1908955,25.443852 8.1615485,25.238424 8.1468746,25.110028 c -0.014674,-0.128397 -0.014674,-0.179754 0.018342,-0.223775 0.033015,-0.04402 0.099049,-0.08071 0.2311127,-0.06603 z"
           id="path1186" />
        <path
           style="fill:#cc5b55;stroke:none;stroke-width:0.376474;stroke-dasharray:none"
           d="m 8.9906176,25.533732 c 0.066033,0.01651 0.1980949,0.04952 0.2861384,0.122896 0.088043,0.07337 0.1320643,0.187091 0.1430692,0.269631 0.011005,0.08254 -0.011005,0.133897 -0.075204,0.172417 -0.064199,0.03852 -0.1705819,0.0642 -0.2494549,0.0752 -0.078873,0.01101 -0.1302255,0.0073 -0.177916,-0.02568 -0.047691,-0.03302 -0.091713,-0.09538 -0.1137236,-0.159577 -0.022011,-0.0642 -0.022011,-0.130231 -0.014674,-0.185257 0.00734,-0.05503 0.02201,-0.09905 0.045855,-0.144903 0.023845,-0.04586 0.056861,-0.09355 0.073369,-0.117392 0.016508,-0.02385 0.016509,-0.02385 0.082541,-0.0073 z"
           id="path1187" />
      </g>
    </g>
  </g>
</svg>
