<?xml version="1.0" encoding="UTF-8" standalone="no"?>
<!-- Created with Inkscape (http://www.inkscape.org/) -->

<svg
   width="127.99999"
   height="32.000004"
   viewBox="0 0 33.866664 8.4666677"
   version="1.1"
   id="svg1"
   xmlns="http://www.w3.org/2000/svg"
   xmlns:svg="http://www.w3.org/2000/svg">
  <defs
     id="defs1" />
  <g
     id="g75"
     transform="matrix(-1.0624885,0,0,1.0624885,8.7312013,-0.26453462)">
    <rect
       style="fill:#bdca31;fill-opacity:0;stroke:none;stroke-width:0.497953"
       id="rect74"
       width="7.9687138"
       height="7.9687138"
       x="0.24897645"
       y="0.24897645" />
    <path
       style="fill:#63342f;stroke:#63342f;stroke-width:0.470593;stroke-dasharray:none"
       d="m 4.4045362,7.2216008 c 0,-0.1608268 0,-0.3216538 -0.020752,-0.5187984 C 4.3630318,6.5056579 4.3215288,6.2722031 4.2800251,6.0387449"
       id="path1" />
    <ellipse
       style="fill:#bdca31;stroke:#bdca31;stroke-width:0.470592;stroke-dasharray:none"
       id="path28"
       cx="-4.3500624"
       cy="5.4473171"
       transform="scale(-1,1)"
       rx="0.25680426"
       ry="0.54473627" />
  </g>
  <g
     id="g31"
     transform="matrix(-1.0624885,0,0,1.0624885,17.197868,-0.26453462)">
    <rect
       style="fill:#bdca31;fill-opacity:0;stroke:none;stroke-width:0.497953"
       id="rect28"
       width="7.9687138"
       height="7.9687138"
       x="0.24897645"
       y="0.24897645" />
    <path
       style="fill:#63342f;stroke:#63342f;stroke-width:0.470593;stroke-dasharray:none"
       d="m 4.4045362,7.2216008 c 0,-0.1608268 0,-0.3216514 -0.01582,-0.4910531 C 4.3728964,6.5611459 4.3412573,6.383176 4.3308814,6.1108088 4.3205056,5.8384415 4.3313931,5.471677 4.3422807,5.1049113"
       id="path29" />
    <ellipse
       style="fill:#bdca31;stroke:#bdca31;stroke-width:0.470592;stroke-dasharray:none"
       id="ellipse31"
       cx="-4.3500624"
       cy="4.5368295"
       transform="scale(-1,1)"
       rx="0.25680426"
       ry="0.54473627" />
    <path
       style="fill:#e084a8;stroke:none;stroke-width:0.470592;stroke-dasharray:none"
       d="M 4.7158141,3.5692736 C 4.6872805,3.7067548 4.5887091,3.9428072 4.5381265,4.1243873 4.4875438,4.3059673 4.4849499,4.4330698 4.4343662,4.4330686 4.3837826,4.4330674 4.2852133,4.3059648 4.2009081,4.1697792 4.116603,4.0335937 4.0465669,3.8883335 4.002469,3.7521482 3.9583711,3.6159628 3.9402136,3.4888604 4.0102526,3.4071496 4.0802916,3.3254388 4.2385216,3.2891237 4.3617365,3.287827 c 0.1232149,-0.0013 0.2114085,0.032424 0.2762584,0.06874 0.06485,0.036316 0.1063528,0.075225 0.077819,0.2127063 z"
       id="path92" />
  </g>
  <g
     id="g202"
     transform="matrix(-1.0624885,0,0,1.0624885,34.131201,-0.26453462)">
    <rect
       style="fill:#bdca31;fill-opacity:0;stroke:none;stroke-width:0.497953"
       id="rect196"
       width="7.9687138"
       height="7.9687138"
       x="0.24897645"
       y="0.24897645" />
  </g>
  <g
     id="g99"
     transform="matrix(-1.0624885,0,0,1.0624885,25.664535,-0.26453462)">
    <rect
       style="fill:#bdca31;fill-opacity:0;stroke:none;stroke-width:0.497953"
       id="rect96"
       width="7.9687138"
       height="7.9687138"
       x="0.24897645"
       y="0.24897645" />
    <path
       style="fill:#63342f;stroke:#63342f;stroke-width:0.470593;stroke-dasharray:none"
       d="m 4.4045362,7.2216008 c 0,-0.1608268 0,-0.3216514 -0.01582,-0.4910532 -0.01582,-0.1694017 -0.047459,-0.3473707 -0.060688,-0.523615 -0.013229,-0.1762443 -0.00805,-0.3507618 -0.00779,-0.6664371 2.558e-4,-0.3156752 -0.00441,-0.7725086 -0.00908,-1.2293428"
       id="path96" />
    <ellipse
       style="fill:#bdca31;stroke:#bdca31;stroke-width:0.470592;stroke-dasharray:none"
       id="ellipse98"
       cx="-4.3500624"
       cy="3.9765294"
       transform="scale(-1,1)"
       rx="0.25680426"
       ry="0.54473627" />
    <path
       style="fill:#e084a8;stroke:none;stroke-width:0.470592;stroke-dasharray:none"
       d="M 4.7158141,3.5692736 C 4.6872805,3.7067548 4.5887091,3.9428072 4.5381265,4.1243873 4.4875438,4.3059673 4.4849499,4.4330698 4.4343662,4.4330686 4.3837826,4.4330674 4.2852133,4.3059648 4.2009081,4.1697792 4.116603,4.0335937 4.0465669,3.8883335 4.002469,3.7521482 3.9583711,3.6159628 3.9402136,3.4888604 4.0102526,3.4071496 4.0802916,3.3254388 4.2385216,3.2891237 4.3617365,3.287827 c 0.1232149,-0.0013 0.2114085,0.032424 0.2762584,0.06874 0.06485,0.036316 0.1063528,0.075225 0.077819,0.2127063 z"
       id="path99"
       transform="translate(0,-0.56030018)" />
    <path
       style="fill:#e084a8;stroke:none;stroke-width:0.470592;stroke-dasharray:none"
       d="M 4.7158141,3.5692736 C 4.6872805,3.7067548 4.5887091,3.9428072 4.5381265,4.1243873 4.4875438,4.3059673 4.4849499,4.4330698 4.4343662,4.4330686 4.3837826,4.4330674 4.2852133,4.3059648 4.2009081,4.1697792 4.116603,4.0335937 4.0465669,3.8883335 4.002469,3.7521482 3.9583711,3.6159628 3.9402136,3.4888604 4.0102526,3.4071496 4.0802916,3.3254388 4.2385216,3.2891237 4.3617365,3.287827 c 0.1232149,-0.0013 0.2114085,0.032424 0.2762584,0.06874 0.06485,0.036316 0.1063528,0.075225 0.077819,0.2127063 z"
       id="path133"
       transform="rotate(-49.957668,3.8566403,4.2154875)" />
    <path
       style="fill:#e084a8;stroke:none;stroke-width:0.470592;stroke-dasharray:none"
       d="M 4.7158141,3.5692736 C 4.6872805,3.7067548 4.5887091,3.9428072 4.5381265,4.1243873 4.4875438,4.3059673 4.4849499,4.4330698 4.4343662,4.4330686 4.3837826,4.4330674 4.2852133,4.3059648 4.2009081,4.1697792 4.116603,4.0335937 4.0465669,3.8883335 4.002469,3.7521482 3.9583711,3.6159628 3.9402136,3.4888604 4.0102526,3.4071496 4.0802916,3.3254388 4.2385216,3.2891237 4.3617365,3.287827 c 0.1232149,-0.0013 0.2114085,0.032424 0.2762584,0.06874 0.06485,0.036316 0.1063528,0.075225 0.077819,0.2127063 z"
       id="path137"
       transform="rotate(51.019103,4.9273989,4.1931871)" />
  </g>
  <g
     id="g144"
     transform="matrix(-1.0624885,0,0,1.0624885,34.131201,-0.26453462)">
    <rect
       style="fill:#bdca31;fill-opacity:0;stroke:none;stroke-width:0.497953"
       id="rect139"
       width="7.9687138"
       height="7.9687138"
       x="0.24897645"
       y="0.24897645" />
    <path
       style="fill:#63342f;stroke:#63342f;stroke-width:0.470593;stroke-dasharray:none"
       d="m 4.4045362,7.2216008 c 0,-0.1608268 0,-0.3216514 -0.01582,-0.4910532 -0.01582,-0.1694017 -0.047459,-0.3473707 -0.060688,-0.523615 -0.013229,-0.1762443 -0.00805,-0.3507621 -0.00745,-0.6327455 6.002e-4,-0.2819834 -0.00338,-0.6714337 -0.00442,-1.0308467 -0.00104,-0.3594129 8.698e-4,-0.6887887 0.00278,-1.0181643"
       id="path139" />
    <ellipse
       style="fill:#bdca31;stroke:#bdca31;stroke-width:0.470592;stroke-dasharray:none"
       id="ellipse141"
       cx="-4.3500624"
       cy="3.1360791"
       transform="scale(-1,1)"
       rx="0.25680426"
       ry="0.54473627" />
    <path
       style="fill:#e084a8;stroke:none;stroke-width:0.470592;stroke-dasharray:none"
       d="M 4.7158141,3.5692736 C 4.6872805,3.7067548 4.5887091,3.9428072 4.5381265,4.1243873 4.4875438,4.3059673 4.4849499,4.4330698 4.4343662,4.4330686 4.3837826,4.4330674 4.2852133,4.3059648 4.2009081,4.1697792 4.116603,4.0335937 4.0465669,3.8883335 4.002469,3.7521482 3.9583711,3.6159628 3.9402136,3.4888604 4.0102526,3.4071496 4.0802916,3.3254388 4.2385216,3.2891237 4.3617365,3.287827 c 0.1232149,-0.0013 0.2114085,0.032424 0.2762584,0.06874 0.06485,0.036316 0.1063528,0.075225 0.077819,0.2127063 z"
       id="path142"
       transform="translate(0,-1.4007505)" />
    <path
       style="fill:#e084a8;stroke:none;stroke-width:0.470592;stroke-dasharray:none"
       d="M 4.7158141,3.5692736 C 4.6872805,3.7067548 4.5887091,3.9428072 4.5381265,4.1243873 4.4875438,4.3059673 4.4849499,4.4330698 4.4343662,4.4330686 4.3837826,4.4330674 4.2852133,4.3059648 4.2009081,4.1697792 4.116603,4.0335937 4.0465669,3.8883335 4.002469,3.7521482 3.9583711,3.6159628 3.9402136,3.4888604 4.0102526,3.4071496 4.0802916,3.3254388 4.2385216,3.2891237 4.3617365,3.287827 c 0.1232149,-0.0013 0.2114085,0.032424 0.2762584,0.06874 0.06485,0.036316 0.1063528,0.075225 0.077819,0.2127063 z"
       id="path143"
       transform="rotate(-49.957668,2.9545947,3.7952624)" />
    <path
       style="fill:#e084a8;stroke:none;stroke-width:0.470592;stroke-dasharray:none"
       d="M 4.7158141,3.5692736 C 4.6872805,3.7067548 4.5887091,3.9428072 4.5381265,4.1243873 4.4875438,4.3059673 4.4849499,4.4330698 4.4343662,4.4330686 4.3837826,4.4330674 4.2852133,4.3059648 4.2009081,4.1697792 4.116603,4.0335937 4.0465669,3.8883335 4.002469,3.7521482 3.9583711,3.6159628 3.9402136,3.4888604 4.0102526,3.4071496 4.0802916,3.3254388 4.2385216,3.2891237 4.3617365,3.287827 c 0.1232149,-0.0013 0.2114085,0.032424 0.2762584,0.06874 0.06485,0.036316 0.1063528,0.075225 0.077819,0.2127063 z"
       id="path144"
       transform="rotate(51.019103,5.8080414,3.772962)" />
    <path
       style="fill:#e084a8;stroke:none;stroke-width:0.470592;stroke-dasharray:none"
       d="M 4.7158141,3.5692736 C 4.6872805,3.7067548 4.5887091,3.9428072 4.5381265,4.1243873 4.4875438,4.3059673 4.4849499,4.4330698 4.4343662,4.4330686 4.3837826,4.4330674 4.2852133,4.3059648 4.2009081,4.1697792 4.116603,4.0335937 4.0465669,3.8883335 4.002469,3.7521482 3.9583711,3.6159628 3.9402136,3.4888604 4.0102526,3.4071496 4.0802916,3.3254388 4.2385216,3.2891237 4.3617365,3.287827 c 0.1232149,-0.0013 0.2114085,0.032424 0.2762584,0.06874 0.06485,0.036316 0.1063528,0.075225 0.077819,0.2127063 z"
       id="path184"
       transform="rotate(-135,4.133993,3.5874859)" />
    <path
       style="fill:#e084a8;stroke:none;stroke-width:0.470592;stroke-dasharray:none"
       d="M 4.7158141,3.5692736 C 4.6872805,3.7067548 4.5887091,3.9428072 4.5381265,4.1243873 4.4875438,4.3059673 4.4849499,4.4330698 4.4343662,4.4330686 4.3837826,4.4330674 4.2852133,4.3059648 4.2009081,4.1697792 4.116603,4.0335937 4.0465669,3.8883335 4.002469,3.7521482 3.9583711,3.6159628 3.9402136,3.4888604 4.0102526,3.4071496 4.0802916,3.3254388 4.2385216,3.2891237 4.3617365,3.287827 c 0.1232149,-0.0013 0.2114085,0.032424 0.2762584,0.06874 0.06485,0.036316 0.1063528,0.075225 0.077819,0.2127063 z"
       id="path185"
       transform="rotate(130.04233,4.7668633,3.6565418)" />
  </g>
</svg>
