<?xml version="1.0" encoding="UTF-8" standalone="no"?>
<!-- Created with Inkscape (http://www.inkscape.org/) -->

<svg
   width="64.000008"
   height="64.000008"
   viewBox="0 0 16.933335 16.933335"
   version="1.1"
   id="svg1"
   xmlns="http://www.w3.org/2000/svg"
   xmlns:svg="http://www.w3.org/2000/svg">
  <defs
     id="defs1" />
  <g
     id="g32"
     transform="translate(-8.478902,-11.801772)">
    <rect
       style="fill:none;fill-opacity:0.921569;stroke:none;stroke-width:4.36359"
       id="rect225"
       width="15.937428"
       height="15.937428"
       x="7.7312517"
       y="11.356647"
       transform="matrix(1.0624885,0,0,1.0624885,0.26453492,-0.26453461)" />
  </g>
  <g
     id="g75"
     transform="matrix(-1.0624885,0,0,1.0624885,-8.2143671,-12.066307)">
    <path
       style="fill:none;fill-opacity:1;stroke:#63342f;stroke-width:0.470592;stroke-dasharray:none"
       d="m -15.532812,21.229105 c 0.269774,-0.674435 0.539549,-1.348871 0.954592,-1.903987 0.415042,-0.555117 0.975331,-0.990897 1.421499,-1.234732 0.446169,-0.243835 0.778192,-0.295713 1.110222,-0.347593"
       id="path198"
       transform="translate(-0.04402134,2.9494298)" />
    <path
       style="fill:none;fill-opacity:1;stroke:#63342f;stroke-width:0.470592;stroke-dasharray:none"
       d="m -15.470556,21.135722 c -0.363158,-1.1206 -0.726315,-2.241201 -1.203614,-3.128349 -0.477299,-0.887149 -1.068715,-1.540819 -1.675713,-1.87285 -0.606998,-0.33203 -1.229541,-0.342406 -1.852097,-0.352783"
       id="path199"
       transform="translate(-0.04402134,2.9494298)" />
    <ellipse
       style="fill:#a0bf43;fill-opacity:1;stroke:#a0bf43;stroke-width:0.242191;stroke-dasharray:none"
       id="path200"
       cx="25.759722"
       cy="9.2448025"
       transform="matrix(-0.91743015,0.39789688,0.39789688,0.91743015,0,0)"
       rx="1.6260279"
       ry="0.78497905" />
    <ellipse
       style="fill:#a0bf43;fill-opacity:1;stroke:#a0bf43;stroke-width:0.271083;stroke-dasharray:none"
       id="ellipse200"
       cx="2.8976841"
       cy="24.156425"
       transform="matrix(-0.92378647,-0.38290803,-0.38290803,0.92378647,0,0)"
       rx="1.8200022"
       ry="0.87862182" />
    <ellipse
       style="fill:#a0bf43;fill-opacity:1;stroke:#a0bf43;stroke-width:0.271083;stroke-dasharray:none"
       id="ellipse201"
       cx="24.489676"
       cy="4.2220755"
       transform="matrix(-0.79703353,0.60393506,0.60393506,0.79703353,0,0)"
       rx="1.8200022"
       ry="0.87862182" />
    <ellipse
       style="fill:#a0bf43;fill-opacity:1;stroke:#a0bf43;stroke-width:0.271083;stroke-dasharray:none"
       id="ellipse202"
       cx="8.9744167"
       cy="23.905075"
       transform="matrix(-0.96596527,-0.25867179,-0.25867179,0.96596527,0,0)"
       rx="1.8200022"
       ry="0.87862182" />
    <ellipse
       style="fill:#a0bf43;fill-opacity:1;stroke:#a0bf43;stroke-width:0.271083;stroke-dasharray:none"
       id="ellipse203"
       cx="-24.539639"
       cy="9.9016542"
       transform="matrix(0.14648522,-0.98921286,-0.98921286,-0.14648522,0,0)"
       rx="1.8200022"
       ry="0.87862182" />
  </g>
  <g
     id="g144"
     transform="matrix(-1.0624885,0,0,1.0624885,17.185633,-12.066307)">
    <ellipse
       style="fill:#bdca31;stroke:#bdca31;stroke-width:0.470592;stroke-dasharray:none"
       id="ellipse204"
       cx="-5.2398748"
       cy="18.412113"
       transform="scale(-1,1)"
       rx="0.25680426"
       ry="0.54473627" />
    <path
       style="fill:#e084a8;stroke:none;stroke-width:0.470592;stroke-dasharray:none"
       d="M 4.7158141,3.5692736 C 4.6872805,3.7067548 4.5887091,3.9428072 4.5381265,4.1243873 4.4875438,4.3059673 4.4849499,4.4330698 4.4343662,4.4330686 4.3837826,4.4330674 4.2852133,4.3059648 4.2009081,4.1697792 4.116603,4.0335937 4.0465669,3.8883335 4.002469,3.7521482 3.9583711,3.6159628 3.9402136,3.4888604 4.0102526,3.4071496 4.0802916,3.3254388 4.2385216,3.2891237 4.3617365,3.287827 c 0.1232149,-0.0013 0.2114085,0.032424 0.2762584,0.06874 0.06485,0.036316 0.1063528,0.075225 0.077819,0.2127063 z"
       id="path204"
       transform="translate(0.8898123,13.875284)" />
    <path
       style="fill:#e084a8;stroke:none;stroke-width:0.470592;stroke-dasharray:none"
       d="M 4.7158141,3.5692736 C 4.6872805,3.7067548 4.5887091,3.9428072 4.5381265,4.1243873 4.4875438,4.3059673 4.4849499,4.4330698 4.4343662,4.4330686 4.3837826,4.4330674 4.2852133,4.3059648 4.2009081,4.1697792 4.116603,4.0335937 4.0465669,3.8883335 4.002469,3.7521482 3.9583711,3.6159628 3.9402136,3.4888604 4.0102526,3.4071496 4.0802916,3.3254388 4.2385216,3.2891237 4.3617365,3.287827 c 0.1232149,-0.0013 0.2114085,0.032424 0.2762584,0.06874 0.06485,0.036316 0.1063528,0.075225 0.077819,0.2127063 z"
       id="path205"
       transform="rotate(-49.957668,19.795091,10.478254)" />
    <path
       style="fill:#e084a8;stroke:none;stroke-width:0.470592;stroke-dasharray:none"
       d="M 4.7158141,3.5692736 C 4.6872805,3.7067548 4.5887091,3.9428072 4.5381265,4.1243873 4.4875438,4.3059673 4.4849499,4.4330698 4.4343662,4.4330686 4.3837826,4.4330674 4.2852133,4.3059648 4.2009081,4.1697792 4.116603,4.0335937 4.0465669,3.8883335 4.002469,3.7521482 3.9583711,3.6159628 3.9402136,3.4888604 4.0102526,3.4071496 4.0802916,3.3254388 4.2385216,3.2891237 4.3617365,3.287827 c 0.1232149,-0.0013 0.2114085,0.032424 0.2762584,0.06874 0.06485,0.036316 0.1063528,0.075225 0.077819,0.2127063 z"
       id="path206"
       transform="rotate(51.019103,-9.7536202,12.343344)" />
    <path
       style="fill:#e084a8;stroke:none;stroke-width:0.470592;stroke-dasharray:none"
       d="M 4.7158141,3.5692736 C 4.6872805,3.7067548 4.5887091,3.9428072 4.5381265,4.1243873 4.4875438,4.3059673 4.4849499,4.4330698 4.4343662,4.4330686 4.3837826,4.4330674 4.2852133,4.3059648 4.2009081,4.1697792 4.116603,4.0335937 4.0465669,3.8883335 4.002469,3.7521482 3.9583711,3.6159628 3.9402136,3.4888604 4.0102526,3.4071496 4.0802916,3.3254388 4.2385216,3.2891237 4.3617365,3.287827 c 0.1232149,-0.0013 0.2114085,0.032424 0.2762584,0.06874 0.06485,0.036316 0.1063528,0.075225 0.077819,0.2127063 z"
       id="path207"
       transform="rotate(-135,7.7426693,11.041217)" />
    <path
       style="fill:#e084a8;stroke:none;stroke-width:0.470592;stroke-dasharray:none"
       d="M 4.7158141,3.5692736 C 4.6872805,3.7067548 4.5887091,3.9428072 4.5381265,4.1243873 4.4875438,4.3059673 4.4849499,4.4330698 4.4343662,4.4330686 4.3837826,4.4330674 4.2852133,4.3059648 4.2009081,4.1697792 4.116603,4.0335937 4.0465669,3.8883335 4.002469,3.7521482 3.9583711,3.6159628 3.9402136,3.4888604 4.0102526,3.4071496 4.0802916,3.3254388 4.2385216,3.2891237 4.3617365,3.287827 c 0.1232149,-0.0013 0.2114085,0.032424 0.2762584,0.06874 0.06485,0.036316 0.1063528,0.075225 0.077819,0.2127063 z"
       id="path208"
       transform="rotate(130.04233,1.6535381,11.501822)" />
    <ellipse
       style="fill:#bdca31;stroke:#bdca31;stroke-width:0.470592;stroke-dasharray:none"
       id="ellipse233"
       cx="-10.251449"
       cy="21.120232"
       transform="scale(-1,1)"
       rx="0.25680426"
       ry="0.54473627" />
    <path
       style="fill:#e084a8;stroke:none;stroke-width:0.470592;stroke-dasharray:none"
       d="M 4.7158141,3.5692736 C 4.6872805,3.7067548 4.5887091,3.9428072 4.5381265,4.1243873 4.4875438,4.3059673 4.4849499,4.4330698 4.4343662,4.4330686 4.3837826,4.4330674 4.2852133,4.3059648 4.2009081,4.1697792 4.116603,4.0335937 4.0465669,3.8883335 4.002469,3.7521482 3.9583711,3.6159628 3.9402136,3.4888604 4.0102526,3.4071496 4.0802916,3.3254388 4.2385216,3.2891237 4.3617365,3.287827 c 0.1232149,-0.0013 0.2114085,0.032424 0.2762584,0.06874 0.06485,0.036316 0.1063528,0.075225 0.077819,0.2127063 z"
       id="path233"
       transform="translate(5.9013862,16.583402)" />
    <path
       style="fill:#e084a8;stroke:none;stroke-width:0.470592;stroke-dasharray:none"
       d="M 4.7158141,3.5692736 C 4.6872805,3.7067548 4.5887091,3.9428072 4.5381265,4.1243873 4.4875438,4.3059673 4.4849499,4.4330698 4.4343662,4.4330686 4.3837826,4.4330674 4.2852133,4.3059648 4.2009081,4.1697792 4.116603,4.0335937 4.0465669,3.8883335 4.002469,3.7521482 3.9583711,3.6159628 3.9402136,3.4888604 4.0102526,3.4071496 4.0802916,3.3254388 4.2385216,3.2891237 4.3617365,3.287827 c 0.1232149,-0.0013 0.2114085,0.032424 0.2762584,0.06874 0.06485,0.036316 0.1063528,0.075225 0.077819,0.2127063 z"
       id="path234"
       transform="rotate(-49.957668,25.207469,6.4534486)" />
    <path
       style="fill:#e084a8;stroke:none;stroke-width:0.470592;stroke-dasharray:none"
       d="M 4.7158141,3.5692736 C 4.6872805,3.7067548 4.5887091,3.9428072 4.5381265,4.1243873 4.4875438,4.3059673 4.4849499,4.4330698 4.4343662,4.4330686 4.3837826,4.4330674 4.2852133,4.3059648 4.2009081,4.1697792 4.116603,4.0335937 4.0465669,3.8883335 4.002469,3.7521482 3.9583711,3.6159628 3.9402136,3.4888604 4.0102526,3.4071496 4.0802916,3.3254388 4.2385216,3.2891237 4.3617365,3.287827 c 0.1232149,-0.0013 0.2114085,0.032424 0.2762584,0.06874 0.06485,0.036316 0.1063528,0.075225 0.077819,0.2127063 z"
       id="path235"
       transform="rotate(51.019103,-10.085459,18.948641)" />
    <path
       style="fill:#e084a8;stroke:none;stroke-width:0.470592;stroke-dasharray:none"
       d="M 4.7158141,3.5692736 C 4.6872805,3.7067548 4.5887091,3.9428072 4.5381265,4.1243873 4.4875438,4.3059673 4.4849499,4.4330698 4.4343662,4.4330686 4.3837826,4.4330674 4.2852133,4.3059648 4.2009081,4.1697792 4.116603,4.0335937 4.0465669,3.8883335 4.002469,3.7521482 3.9583711,3.6159628 3.9402136,3.4888604 4.0102526,3.4071496 4.0802916,3.3254388 4.2385216,3.2891237 4.3617365,3.287827 c 0.1232149,-0.0013 0.2114085,0.032424 0.2762584,0.06874 0.06485,0.036316 0.1063528,0.075225 0.077819,0.2127063 z"
       id="path236"
       transform="rotate(-135,10.809326,11.357344)" />
    <path
       style="fill:#e084a8;stroke:none;stroke-width:0.470592;stroke-dasharray:none"
       d="M 4.7158141,3.5692736 C 4.6872805,3.7067548 4.5887091,3.9428072 4.5381265,4.1243873 4.4875438,4.3059673 4.4849499,4.4330698 4.4343662,4.4330686 4.3837826,4.4330674 4.2852133,4.3059648 4.2009081,4.1697792 4.116603,4.0335937 4.0465669,3.8883335 4.002469,3.7521482 3.9583711,3.6159628 3.9402136,3.4888604 4.0102526,3.4071496 4.0802916,3.3254388 4.2385216,3.2891237 4.3617365,3.287827 c 0.1232149,-0.0013 0.2114085,0.032424 0.2762584,0.06874 0.06485,0.036316 0.1063528,0.075225 0.077819,0.2127063 z"
       id="path237"
       transform="rotate(130.04233,3.5285259,14.023222)" />
  </g>
</svg>
