<?xml version="1.0" encoding="UTF-8" standalone="no"?>
<!-- Created with Inkscape (http://www.inkscape.org/) -->

<svg
   width="64.000008"
   height="64.000008"
   viewBox="0 0 16.933335 16.933335"
   version="1.1"
   id="svg1"
   xmlns="http://www.w3.org/2000/svg"
   xmlns:svg="http://www.w3.org/2000/svg">
  <defs
     id="defs1" />
  <g
     id="g32"
     transform="translate(-8.478902,-11.801772)">
    <rect
       style="fill:none;fill-opacity:0.921569;stroke:none;stroke-width:4.36359"
       id="rect225"
       width="15.937428"
       height="15.937428"
       x="7.7312517"
       y="11.356647"
       transform="matrix(1.0624885,0,0,1.0624885,0.26453492,-0.26453461)" />
    <g
       id="g808"
       transform="translate(-0.06614583,2.2489583)">
      <g
         id="g805"
         transform="rotate(76.487927,17.822867,16.191543)">
        <path
           style="fill:#e11800;fill-opacity:1;stroke:none;stroke-width:0.2;stroke-dasharray:none"
           d="m 17.558146,14.514963 c -0.0039,0.06236 -0.01169,0.187088 -0.01559,0.378077 -0.0039,0.190989 -0.0039,0.448231 0.09744,0.576855 0.101341,0.128623 0.304017,0.128623 0.413152,-0.05847 0.109135,-0.187093 0.124725,-0.561263 0.14811,-0.943239 0.02339,-0.381977 0.05457,-0.771737 0.11303,-1.103043 0.05846,-0.331306 0.144212,-0.604138 0.08185,-0.783432 -0.06236,-0.179293 -0.272836,-0.265041 -0.444335,-0.26504 -0.171499,0 -0.304018,0.08575 -0.374177,0.222169 -0.07016,0.13642 -0.07795,0.323505 -0.05457,0.533982 0.02339,0.210477 0.07795,0.444333 0.08965,0.658707 0.01169,0.214375 -0.01949,0.409255 -0.03508,0.526187 -0.01559,0.116932 -0.01559,0.155902 -0.01559,0.175393 0,0.01949 9e-6,0.01949 -0.0039,0.08185 z"
           id="path804" />
        <path
           style="fill:#ffec8c;fill-opacity:1;stroke:none;stroke-width:0.2;stroke-dasharray:none"
           d="m 17.635126,12.762955 c 0.1257,0.01754 0.377101,0.05262 0.528136,0.06821 0.151035,0.01559 0.201706,0.01169 0.234833,0.002 0.03313,-0.0097 0.04872,-0.02534 0.03605,-0.114984 -0.01267,-0.08965 -0.05359,-0.253348 -0.125701,-0.36833 -0.07211,-0.114982 -0.175394,-0.181241 -0.285505,-0.180266 -0.11011,9.75e-4 -0.227039,0.06918 -0.313763,0.176371 -0.08672,0.107188 -0.143239,0.253347 -0.171497,0.326429 -0.02826,0.07308 -0.02826,0.07308 0.09744,0.09062 z"
           id="path805"
           transform="translate(-0.00584652,-0.01753956)" />
      </g>
      <path
         style="fill:none;fill-opacity:1;stroke:#a0bf43;stroke-width:0.2;stroke-dasharray:none"
         d="m 16.977392,24.882793 c 0.467722,-1.044579 0.935443,-2.089158 0.927643,-2.993427 -0.0078,-0.904269 -0.491103,-1.668199 -0.670395,-2.268447 -0.179292,-0.600247 -0.05457,-1.036778 0.07016,-1.473318"
         id="path688" />
      <g
         id="g691"
         transform="translate(-0.07015825,0.07015825)">
        <path
           style="fill:#e11800;fill-opacity:1;stroke:none;stroke-width:0.2;stroke-dasharray:none"
           d="m 17.558146,14.514963 c -0.0039,0.06236 -0.01169,0.187088 -0.01559,0.378077 -0.0039,0.190989 -0.0039,0.448231 0.09744,0.576855 0.101341,0.128623 0.304017,0.128623 0.413152,-0.05847 0.109135,-0.187093 0.124725,-0.561263 0.14811,-0.943239 0.02339,-0.381977 0.05457,-0.771737 0.11303,-1.103043 0.05846,-0.331306 0.144212,-0.604138 0.08185,-0.783432 -0.06236,-0.179293 -0.272836,-0.265041 -0.444335,-0.26504 -0.171499,0 -0.304018,0.08575 -0.374177,0.222169 -0.07016,0.13642 -0.07795,0.323505 -0.05457,0.533982 0.02339,0.210477 0.07795,0.444333 0.08965,0.658707 0.01169,0.214375 -0.01949,0.409255 -0.03508,0.526187 -0.01559,0.116932 -0.01559,0.155902 -0.01559,0.175393 0,0.01949 9e-6,0.01949 -0.0039,0.08185 z"
           id="path690" />
        <path
           style="fill:#ffec8c;fill-opacity:1;stroke:none;stroke-width:0.2;stroke-dasharray:none"
           d="m 17.635126,12.762955 c 0.1257,0.01754 0.377101,0.05262 0.528136,0.06821 0.151035,0.01559 0.201706,0.01169 0.234833,0.002 0.03313,-0.0097 0.04872,-0.02534 0.03605,-0.114984 -0.01267,-0.08965 -0.05359,-0.253348 -0.125701,-0.36833 -0.07211,-0.114982 -0.175394,-0.181241 -0.285505,-0.180266 -0.11011,9.75e-4 -0.227039,0.06918 -0.313763,0.176371 -0.08672,0.107188 -0.143239,0.253347 -0.171497,0.326429 -0.02826,0.07308 -0.02826,0.07308 0.09744,0.09062 z"
           id="path691"
           transform="translate(-0.00584652,-0.01753956)" />
      </g>
      <g
         id="g693"
         transform="rotate(8.1514992,16.095692,18.772795)">
        <path
           style="fill:#e11800;fill-opacity:1;stroke:none;stroke-width:0.2;stroke-dasharray:none"
           d="m 17.558146,14.514963 c -0.0039,0.06236 -0.01169,0.187088 -0.01559,0.378077 -0.0039,0.190989 -0.0039,0.448231 0.09744,0.576855 0.101341,0.128623 0.304017,0.128623 0.413152,-0.05847 0.109135,-0.187093 0.124725,-0.561263 0.14811,-0.943239 0.02339,-0.381977 0.05457,-0.771737 0.11303,-1.103043 0.05846,-0.331306 0.144212,-0.604138 0.08185,-0.783432 -0.06236,-0.179293 -0.272836,-0.265041 -0.444335,-0.26504 -0.171499,0 -0.304018,0.08575 -0.374177,0.222169 -0.07016,0.13642 -0.07795,0.323505 -0.05457,0.533982 0.02339,0.210477 0.07795,0.444333 0.08965,0.658707 0.01169,0.214375 -0.01949,0.409255 -0.03508,0.526187 -0.01559,0.116932 -0.01559,0.155902 -0.01559,0.175393 0,0.01949 9e-6,0.01949 -0.0039,0.08185 z"
           id="path692" />
        <path
           style="fill:#ffec8c;fill-opacity:1;stroke:none;stroke-width:0.2;stroke-dasharray:none"
           d="m 17.635126,12.762955 c 0.1257,0.01754 0.377101,0.05262 0.528136,0.06821 0.151035,0.01559 0.201706,0.01169 0.234833,0.002 0.03313,-0.0097 0.04872,-0.02534 0.03605,-0.114984 -0.01267,-0.08965 -0.05359,-0.253348 -0.125701,-0.36833 -0.07211,-0.114982 -0.175394,-0.181241 -0.285505,-0.180266 -0.11011,9.75e-4 -0.227039,0.06918 -0.313763,0.176371 -0.08672,0.107188 -0.143239,0.253347 -0.171497,0.326429 -0.02826,0.07308 -0.02826,0.07308 0.09744,0.09062 z"
           id="path693"
           transform="translate(-0.00584652,-0.01753956)" />
      </g>
      <g
         id="g697"
         transform="rotate(19.03766,16.657988,18.236678)">
        <path
           style="fill:#e11800;fill-opacity:1;stroke:none;stroke-width:0.2;stroke-dasharray:none"
           d="m 17.558146,14.514963 c -0.0039,0.06236 -0.01169,0.187088 -0.01559,0.378077 -0.0039,0.190989 -0.0039,0.448231 0.09744,0.576855 0.101341,0.128623 0.304017,0.128623 0.413152,-0.05847 0.109135,-0.187093 0.124725,-0.561263 0.14811,-0.943239 0.02339,-0.381977 0.05457,-0.771737 0.11303,-1.103043 0.05846,-0.331306 0.144212,-0.604138 0.08185,-0.783432 -0.06236,-0.179293 -0.272836,-0.265041 -0.444335,-0.26504 -0.171499,0 -0.304018,0.08575 -0.374177,0.222169 -0.07016,0.13642 -0.07795,0.323505 -0.05457,0.533982 0.02339,0.210477 0.07795,0.444333 0.08965,0.658707 0.01169,0.214375 -0.01949,0.409255 -0.03508,0.526187 -0.01559,0.116932 -0.01559,0.155902 -0.01559,0.175393 0,0.01949 9e-6,0.01949 -0.0039,0.08185 z"
           id="path696" />
        <path
           style="fill:#ffec8c;fill-opacity:1;stroke:none;stroke-width:0.2;stroke-dasharray:none"
           d="m 17.635126,12.762955 c 0.1257,0.01754 0.377101,0.05262 0.528136,0.06821 0.151035,0.01559 0.201706,0.01169 0.234833,0.002 0.03313,-0.0097 0.04872,-0.02534 0.03605,-0.114984 -0.01267,-0.08965 -0.05359,-0.253348 -0.125701,-0.36833 -0.07211,-0.114982 -0.175394,-0.181241 -0.285505,-0.180266 -0.11011,9.75e-4 -0.227039,0.06918 -0.313763,0.176371 -0.08672,0.107188 -0.143239,0.253347 -0.171497,0.326429 -0.02826,0.07308 -0.02826,0.07308 0.09744,0.09062 z"
           id="path697"
           transform="translate(-0.00584652,-0.01753956)" />
      </g>
      <g
         id="g701"
         transform="rotate(41.91505,17.095649,16.878955)">
        <path
           style="fill:#e11800;fill-opacity:1;stroke:none;stroke-width:0.2;stroke-dasharray:none"
           d="m 17.558146,14.514963 c -0.0039,0.06236 -0.01169,0.187088 -0.01559,0.378077 -0.0039,0.190989 -0.0039,0.448231 0.09744,0.576855 0.101341,0.128623 0.304017,0.128623 0.413152,-0.05847 0.109135,-0.187093 0.124725,-0.561263 0.14811,-0.943239 0.02339,-0.381977 0.05457,-0.771737 0.11303,-1.103043 0.05846,-0.331306 0.144212,-0.604138 0.08185,-0.783432 -0.06236,-0.179293 -0.272836,-0.265041 -0.444335,-0.26504 -0.171499,0 -0.304018,0.08575 -0.374177,0.222169 -0.07016,0.13642 -0.07795,0.323505 -0.05457,0.533982 0.02339,0.210477 0.07795,0.444333 0.08965,0.658707 0.01169,0.214375 -0.01949,0.409255 -0.03508,0.526187 -0.01559,0.116932 -0.01559,0.155902 -0.01559,0.175393 0,0.01949 9e-6,0.01949 -0.0039,0.08185 z"
           id="path700"
           transform="translate(-0.20526941,0.12142074)" />
        <path
           style="fill:#ffec8c;fill-opacity:1;stroke:none;stroke-width:0.2;stroke-dasharray:none"
           d="m 17.635126,12.762955 c 0.1257,0.01754 0.377101,0.05262 0.528136,0.06821 0.151035,0.01559 0.201706,0.01169 0.234833,0.002 0.03313,-0.0097 0.04872,-0.02534 0.03605,-0.114984 -0.01267,-0.08965 -0.05359,-0.253348 -0.125701,-0.36833 -0.07211,-0.114982 -0.175394,-0.181241 -0.285505,-0.180266 -0.11011,9.75e-4 -0.227039,0.06918 -0.313763,0.176371 -0.08672,0.107188 -0.143239,0.253347 -0.171497,0.326429 -0.02826,0.07308 -0.02826,0.07308 0.09744,0.09062 z"
           id="path701"
           transform="translate(-0.21783914,-0.07864619)" />
      </g>
      <g
         id="g705"
         transform="rotate(93.167414,17.711325,16.294846)">
        <path
           style="fill:#e11800;fill-opacity:1;stroke:none;stroke-width:0.2;stroke-dasharray:none"
           d="m 17.558146,14.514963 c -0.0039,0.06236 -0.01169,0.187088 -0.01559,0.378077 -0.0039,0.190989 -0.0039,0.448231 0.09744,0.576855 0.101341,0.128623 0.304017,0.128623 0.413152,-0.05847 0.109135,-0.187093 0.124725,-0.561263 0.14811,-0.943239 0.02339,-0.381977 0.05457,-0.771737 0.11303,-1.103043 0.05846,-0.331306 0.144212,-0.604138 0.08185,-0.783432 -0.06236,-0.179293 -0.272836,-0.265041 -0.444335,-0.26504 -0.171499,0 -0.304018,0.08575 -0.374177,0.222169 -0.07016,0.13642 -0.07795,0.323505 -0.05457,0.533982 0.02339,0.210477 0.07795,0.444333 0.08965,0.658707 0.01169,0.214375 -0.01949,0.409255 -0.03508,0.526187 -0.01559,0.116932 -0.01559,0.155902 -0.01559,0.175393 0,0.01949 9e-6,0.01949 -0.0039,0.08185 z"
           id="path704" />
        <path
           style="fill:#ffec8c;fill-opacity:1;stroke:none;stroke-width:0.2;stroke-dasharray:none"
           d="m 17.635126,12.762955 c 0.1257,0.01754 0.377101,0.05262 0.528136,0.06821 0.151035,0.01559 0.201706,0.01169 0.234833,0.002 0.03313,-0.0097 0.04872,-0.02534 0.03605,-0.114984 -0.01267,-0.08965 -0.05359,-0.253348 -0.125701,-0.36833 -0.07211,-0.114982 -0.175394,-0.181241 -0.285505,-0.180266 -0.11011,9.75e-4 -0.227039,0.06918 -0.313763,0.176371 -0.08672,0.107188 -0.143239,0.253347 -0.171497,0.326429 -0.02826,0.07308 -0.02826,0.07308 0.09744,0.09062 z"
           id="path705"
           transform="translate(-0.00584652,-0.01753956)" />
      </g>
      <g
         id="g707"
         transform="rotate(101.31891,17.538663,16.41459)">
        <path
           style="fill:#e11800;fill-opacity:1;stroke:none;stroke-width:0.2;stroke-dasharray:none"
           d="m 17.558146,14.514963 c -0.0039,0.06236 -0.01169,0.187088 -0.01559,0.378077 -0.0039,0.190989 -0.0039,0.448231 0.09744,0.576855 0.101341,0.128623 0.304017,0.128623 0.413152,-0.05847 0.109135,-0.187093 0.124725,-0.561263 0.14811,-0.943239 0.02339,-0.381977 0.05457,-0.771737 0.11303,-1.103043 0.05846,-0.331306 0.144212,-0.604138 0.08185,-0.783432 -0.06236,-0.179293 -0.272836,-0.265041 -0.444335,-0.26504 -0.171499,0 -0.304018,0.08575 -0.374177,0.222169 -0.07016,0.13642 -0.07795,0.323505 -0.05457,0.533982 0.02339,0.210477 0.07795,0.444333 0.08965,0.658707 0.01169,0.214375 -0.01949,0.409255 -0.03508,0.526187 -0.01559,0.116932 -0.01559,0.155902 -0.01559,0.175393 0,0.01949 9e-6,0.01949 -0.0039,0.08185 z"
           id="path706" />
        <path
           style="fill:#ffec8c;fill-opacity:1;stroke:none;stroke-width:0.2;stroke-dasharray:none"
           d="m 17.635126,12.762955 c 0.1257,0.01754 0.377101,0.05262 0.528136,0.06821 0.151035,0.01559 0.201706,0.01169 0.234833,0.002 0.03313,-0.0097 0.04872,-0.02534 0.03605,-0.114984 -0.01267,-0.08965 -0.05359,-0.253348 -0.125701,-0.36833 -0.07211,-0.114982 -0.175394,-0.181241 -0.285505,-0.180266 -0.11011,9.75e-4 -0.227039,0.06918 -0.313763,0.176371 -0.08672,0.107188 -0.143239,0.253347 -0.171497,0.326429 -0.02826,0.07308 -0.02826,0.07308 0.09744,0.09062 z"
           id="path707"
           transform="translate(-0.00584652,-0.01753956)" />
      </g>
      <g
         id="g709"
         transform="rotate(112.20507,17.380283,16.46586)">
        <path
           style="fill:#e11800;fill-opacity:1;stroke:none;stroke-width:0.2;stroke-dasharray:none"
           d="m 17.558146,14.514963 c -0.0039,0.06236 -0.01169,0.187088 -0.01559,0.378077 -0.0039,0.190989 -0.0039,0.448231 0.09744,0.576855 0.101341,0.128623 0.304017,0.128623 0.413152,-0.05847 0.109135,-0.187093 0.124725,-0.561263 0.14811,-0.943239 0.02339,-0.381977 0.05457,-0.771737 0.11303,-1.103043 0.05846,-0.331306 0.144212,-0.604138 0.08185,-0.783432 -0.06236,-0.179293 -0.272836,-0.265041 -0.444335,-0.26504 -0.171499,0 -0.304018,0.08575 -0.374177,0.222169 -0.07016,0.13642 -0.07795,0.323505 -0.05457,0.533982 0.02339,0.210477 0.07795,0.444333 0.08965,0.658707 0.01169,0.214375 -0.01949,0.409255 -0.03508,0.526187 -0.01559,0.116932 -0.01559,0.155902 -0.01559,0.175393 0,0.01949 9e-6,0.01949 -0.0039,0.08185 z"
           id="path708" />
        <path
           style="fill:#ffec8c;fill-opacity:1;stroke:none;stroke-width:0.2;stroke-dasharray:none"
           d="m 17.635126,12.762955 c 0.1257,0.01754 0.377101,0.05262 0.528136,0.06821 0.151035,0.01559 0.201706,0.01169 0.234833,0.002 0.03313,-0.0097 0.04872,-0.02534 0.03605,-0.114984 -0.01267,-0.08965 -0.05359,-0.253348 -0.125701,-0.36833 -0.07211,-0.114982 -0.175394,-0.181241 -0.285505,-0.180266 -0.11011,9.75e-4 -0.227039,0.06918 -0.313763,0.176371 -0.08672,0.107188 -0.143239,0.253347 -0.171497,0.326429 -0.02826,0.07308 -0.02826,0.07308 0.09744,0.09062 z"
           id="path709"
           transform="translate(-0.00584652,-0.01753956)" />
      </g>
      <g
         id="g711"
         transform="rotate(135.08246,17.476533,16.311019)">
        <path
           style="fill:#e11800;fill-opacity:1;stroke:none;stroke-width:0.2;stroke-dasharray:none"
           d="m 17.558146,14.514963 c -0.0039,0.06236 -0.01169,0.187088 -0.01559,0.378077 -0.0039,0.190989 -0.0039,0.448231 0.09744,0.576855 0.101341,0.128623 0.304017,0.128623 0.413152,-0.05847 0.109135,-0.187093 0.124725,-0.561263 0.14811,-0.943239 0.02339,-0.381977 0.05457,-0.771737 0.11303,-1.103043 0.05846,-0.331306 0.144212,-0.604138 0.08185,-0.783432 -0.06236,-0.179293 -0.272836,-0.265041 -0.444335,-0.26504 -0.171499,0 -0.304018,0.08575 -0.374177,0.222169 -0.07016,0.13642 -0.07795,0.323505 -0.05457,0.533982 0.02339,0.210477 0.07795,0.444333 0.08965,0.658707 0.01169,0.214375 -0.01949,0.409255 -0.03508,0.526187 -0.01559,0.116932 -0.01559,0.155902 -0.01559,0.175393 0,0.01949 9e-6,0.01949 -0.0039,0.08185 z"
           id="path710" />
        <path
           style="fill:#ffec8c;fill-opacity:1;stroke:none;stroke-width:0.2;stroke-dasharray:none"
           d="m 17.635126,12.762955 c 0.1257,0.01754 0.377101,0.05262 0.528136,0.06821 0.151035,0.01559 0.201706,0.01169 0.234833,0.002 0.03313,-0.0097 0.04872,-0.02534 0.03605,-0.114984 -0.01267,-0.08965 -0.05359,-0.253348 -0.125701,-0.36833 -0.07211,-0.114982 -0.175394,-0.181241 -0.285505,-0.180266 -0.11011,9.75e-4 -0.227039,0.06918 -0.313763,0.176371 -0.08672,0.107188 -0.143239,0.253347 -0.171497,0.326429 -0.02826,0.07308 -0.02826,0.07308 0.09744,0.09062 z"
           id="path711"
           transform="translate(-0.00584652,-0.01753956)" />
      </g>
      <g
         id="g727"
         transform="rotate(173.19401,17.851272,16.499573)">
        <path
           style="fill:#e11800;fill-opacity:1;stroke:none;stroke-width:0.2;stroke-dasharray:none"
           d="m 17.558146,14.514963 c -0.0039,0.06236 -0.01169,0.187088 -0.01559,0.378077 -0.0039,0.190989 -0.0039,0.448231 0.09744,0.576855 0.101341,0.128623 0.304017,0.128623 0.413152,-0.05847 0.109135,-0.187093 0.124725,-0.561263 0.14811,-0.943239 0.02339,-0.381977 0.05457,-0.771737 0.11303,-1.103043 0.05846,-0.331306 0.144212,-0.604138 0.08185,-0.783432 -0.06236,-0.179293 -0.272836,-0.265041 -0.444335,-0.26504 -0.171499,0 -0.304018,0.08575 -0.374177,0.222169 -0.07016,0.13642 -0.07795,0.323505 -0.05457,0.533982 0.02339,0.210477 0.07795,0.444333 0.08965,0.658707 0.01169,0.214375 -0.01949,0.409255 -0.03508,0.526187 -0.01559,0.116932 -0.01559,0.155902 -0.01559,0.175393 0,0.01949 9e-6,0.01949 -0.0039,0.08185 z"
           id="path726" />
        <path
           style="fill:#ffec8c;fill-opacity:1;stroke:none;stroke-width:0.2;stroke-dasharray:none"
           d="m 17.635126,12.762955 c 0.1257,0.01754 0.377101,0.05262 0.528136,0.06821 0.151035,0.01559 0.201706,0.01169 0.234833,0.002 0.03313,-0.0097 0.04872,-0.02534 0.03605,-0.114984 -0.01267,-0.08965 -0.05359,-0.253348 -0.125701,-0.36833 -0.07211,-0.114982 -0.175394,-0.181241 -0.285505,-0.180266 -0.11011,9.75e-4 -0.227039,0.06918 -0.313763,0.176371 -0.08672,0.107188 -0.143239,0.253347 -0.171497,0.326429 -0.02826,0.07308 -0.02826,0.07308 0.09744,0.09062 z"
           id="path727"
           transform="translate(-0.00584652,-0.01753956)" />
      </g>
      <g
         id="g729"
         transform="rotate(-178.6545,17.652352,16.423948)">
        <path
           style="fill:#e11800;fill-opacity:1;stroke:none;stroke-width:0.2;stroke-dasharray:none"
           d="m 17.558146,14.514963 c -0.0039,0.06236 -0.01169,0.187088 -0.01559,0.378077 -0.0039,0.190989 -0.0039,0.448231 0.09744,0.576855 0.101341,0.128623 0.304017,0.128623 0.413152,-0.05847 0.109135,-0.187093 0.124725,-0.561263 0.14811,-0.943239 0.02339,-0.381977 0.05457,-0.771737 0.11303,-1.103043 0.05846,-0.331306 0.144212,-0.604138 0.08185,-0.783432 -0.06236,-0.179293 -0.272836,-0.265041 -0.444335,-0.26504 -0.171499,0 -0.304018,0.08575 -0.374177,0.222169 -0.07016,0.13642 -0.07795,0.323505 -0.05457,0.533982 0.02339,0.210477 0.07795,0.444333 0.08965,0.658707 0.01169,0.214375 -0.01949,0.409255 -0.03508,0.526187 -0.01559,0.116932 -0.01559,0.155902 -0.01559,0.175393 0,0.01949 9e-6,0.01949 -0.0039,0.08185 z"
           id="path728" />
        <path
           style="fill:#ffec8c;fill-opacity:1;stroke:none;stroke-width:0.2;stroke-dasharray:none"
           d="m 17.635126,12.762955 c 0.1257,0.01754 0.377101,0.05262 0.528136,0.06821 0.151035,0.01559 0.201706,0.01169 0.234833,0.002 0.03313,-0.0097 0.04872,-0.02534 0.03605,-0.114984 -0.01267,-0.08965 -0.05359,-0.253348 -0.125701,-0.36833 -0.07211,-0.114982 -0.175394,-0.181241 -0.285505,-0.180266 -0.11011,9.75e-4 -0.227039,0.06918 -0.313763,0.176371 -0.08672,0.107188 -0.143239,0.253347 -0.171497,0.326429 -0.02826,0.07308 -0.02826,0.07308 0.09744,0.09062 z"
           id="path729"
           transform="translate(-0.00584652,-0.01753956)" />
      </g>
      <g
         id="g731"
         transform="rotate(-167.76834,17.524591,16.360884)">
        <path
           style="fill:#e11800;fill-opacity:1;stroke:none;stroke-width:0.2;stroke-dasharray:none"
           d="m 17.558146,14.514963 c -0.0039,0.06236 -0.01169,0.187088 -0.01559,0.378077 -0.0039,0.190989 -0.0039,0.448231 0.09744,0.576855 0.101341,0.128623 0.304017,0.128623 0.413152,-0.05847 0.109135,-0.187093 0.124725,-0.561263 0.14811,-0.943239 0.02339,-0.381977 0.05457,-0.771737 0.11303,-1.103043 0.05846,-0.331306 0.144212,-0.604138 0.08185,-0.783432 -0.06236,-0.179293 -0.272836,-0.265041 -0.444335,-0.26504 -0.171499,0 -0.304018,0.08575 -0.374177,0.222169 -0.07016,0.13642 -0.07795,0.323505 -0.05457,0.533982 0.02339,0.210477 0.07795,0.444333 0.08965,0.658707 0.01169,0.214375 -0.01949,0.409255 -0.03508,0.526187 -0.01559,0.116932 -0.01559,0.155902 -0.01559,0.175393 0,0.01949 9e-6,0.01949 -0.0039,0.08185 z"
           id="path730" />
        <path
           style="fill:#ffec8c;fill-opacity:1;stroke:none;stroke-width:0.2;stroke-dasharray:none"
           d="m 17.635126,12.762955 c 0.1257,0.01754 0.377101,0.05262 0.528136,0.06821 0.151035,0.01559 0.201706,0.01169 0.234833,0.002 0.03313,-0.0097 0.04872,-0.02534 0.03605,-0.114984 -0.01267,-0.08965 -0.05359,-0.253348 -0.125701,-0.36833 -0.07211,-0.114982 -0.175394,-0.181241 -0.285505,-0.180266 -0.11011,9.75e-4 -0.227039,0.06918 -0.313763,0.176371 -0.08672,0.107188 -0.143239,0.253347 -0.171497,0.326429 -0.02826,0.07308 -0.02826,0.07308 0.09744,0.09062 z"
           id="path731"
           transform="translate(-0.00584652,-0.01753956)" />
      </g>
      <g
         id="g733"
         transform="rotate(-144.89095,17.674031,16.273746)">
        <path
           style="fill:#e11800;fill-opacity:1;stroke:none;stroke-width:0.2;stroke-dasharray:none"
           d="m 17.558146,14.514963 c -0.0039,0.06236 -0.01169,0.187088 -0.01559,0.378077 -0.0039,0.190989 -0.0039,0.448231 0.09744,0.576855 0.101341,0.128623 0.304017,0.128623 0.413152,-0.05847 0.109135,-0.187093 0.124725,-0.561263 0.14811,-0.943239 0.02339,-0.381977 0.05457,-0.771737 0.11303,-1.103043 0.05846,-0.331306 0.144212,-0.604138 0.08185,-0.783432 -0.06236,-0.179293 -0.272836,-0.265041 -0.444335,-0.26504 -0.171499,0 -0.304018,0.08575 -0.374177,0.222169 -0.07016,0.13642 -0.07795,0.323505 -0.05457,0.533982 0.02339,0.210477 0.07795,0.444333 0.08965,0.658707 0.01169,0.214375 -0.01949,0.409255 -0.03508,0.526187 -0.01559,0.116932 -0.01559,0.155902 -0.01559,0.175393 0,0.01949 9e-6,0.01949 -0.0039,0.08185 z"
           id="path732" />
        <path
           style="fill:#ffec8c;fill-opacity:1;stroke:none;stroke-width:0.2;stroke-dasharray:none"
           d="m 17.635126,12.762955 c 0.1257,0.01754 0.377101,0.05262 0.528136,0.06821 0.151035,0.01559 0.201706,0.01169 0.234833,0.002 0.03313,-0.0097 0.04872,-0.02534 0.03605,-0.114984 -0.01267,-0.08965 -0.05359,-0.253348 -0.125701,-0.36833 -0.07211,-0.114982 -0.175394,-0.181241 -0.285505,-0.180266 -0.11011,9.75e-4 -0.227039,0.06918 -0.313763,0.176371 -0.08672,0.107188 -0.143239,0.253347 -0.171497,0.326429 -0.02826,0.07308 -0.02826,0.07308 0.09744,0.09062 z"
           id="path733"
           transform="translate(-0.00584652,-0.01753956)" />
      </g>
      <g
         id="g749"
         transform="rotate(-127.51703,17.620351,16.37376)">
        <path
           style="fill:#e11800;fill-opacity:1;stroke:none;stroke-width:0.2;stroke-dasharray:none"
           d="m 17.558146,14.514963 c -0.0039,0.06236 -0.01169,0.187088 -0.01559,0.378077 -0.0039,0.190989 -0.0039,0.448231 0.09744,0.576855 0.101341,0.128623 0.304017,0.128623 0.413152,-0.05847 0.109135,-0.187093 0.124725,-0.561263 0.14811,-0.943239 0.02339,-0.381977 0.05457,-0.771737 0.11303,-1.103043 0.05846,-0.331306 0.144212,-0.604138 0.08185,-0.783432 -0.06236,-0.179293 -0.272836,-0.265041 -0.444335,-0.26504 -0.171499,0 -0.304018,0.08575 -0.374177,0.222169 -0.07016,0.13642 -0.07795,0.323505 -0.05457,0.533982 0.02339,0.210477 0.07795,0.444333 0.08965,0.658707 0.01169,0.214375 -0.01949,0.409255 -0.03508,0.526187 -0.01559,0.116932 -0.01559,0.155902 -0.01559,0.175393 0,0.01949 9e-6,0.01949 -0.0039,0.08185 z"
           id="path748" />
        <path
           style="fill:#ffec8c;fill-opacity:1;stroke:none;stroke-width:0.2;stroke-dasharray:none"
           d="m 17.635126,12.762955 c 0.1257,0.01754 0.377101,0.05262 0.528136,0.06821 0.151035,0.01559 0.201706,0.01169 0.234833,0.002 0.03313,-0.0097 0.04872,-0.02534 0.03605,-0.114984 -0.01267,-0.08965 -0.05359,-0.253348 -0.125701,-0.36833 -0.07211,-0.114982 -0.175394,-0.181241 -0.285505,-0.180266 -0.11011,9.75e-4 -0.227039,0.06918 -0.313763,0.176371 -0.08672,0.107188 -0.143239,0.253347 -0.171497,0.326429 -0.02826,0.07308 -0.02826,0.07308 0.09744,0.09062 z"
           id="path749"
           transform="translate(-0.00584652,-0.01753956)" />
      </g>
      <g
         id="g751"
         transform="rotate(-119.36554,17.445724,16.196132)">
        <path
           style="fill:#e11800;fill-opacity:1;stroke:none;stroke-width:0.2;stroke-dasharray:none"
           d="m 17.558146,14.514963 c -0.0039,0.06236 -0.01169,0.187088 -0.01559,0.378077 -0.0039,0.190989 -0.0039,0.448231 0.09744,0.576855 0.101341,0.128623 0.304017,0.128623 0.413152,-0.05847 0.109135,-0.187093 0.124725,-0.561263 0.14811,-0.943239 0.02339,-0.381977 0.05457,-0.771737 0.11303,-1.103043 0.05846,-0.331306 0.144212,-0.604138 0.08185,-0.783432 -0.06236,-0.179293 -0.272836,-0.265041 -0.444335,-0.26504 -0.171499,0 -0.304018,0.08575 -0.374177,0.222169 -0.07016,0.13642 -0.07795,0.323505 -0.05457,0.533982 0.02339,0.210477 0.07795,0.444333 0.08965,0.658707 0.01169,0.214375 -0.01949,0.409255 -0.03508,0.526187 -0.01559,0.116932 -0.01559,0.155902 -0.01559,0.175393 0,0.01949 9e-6,0.01949 -0.0039,0.08185 z"
           id="path750" />
        <path
           style="fill:#ffec8c;fill-opacity:1;stroke:none;stroke-width:0.2;stroke-dasharray:none"
           d="m 17.635126,12.762955 c 0.1257,0.01754 0.377101,0.05262 0.528136,0.06821 0.151035,0.01559 0.201706,0.01169 0.234833,0.002 0.03313,-0.0097 0.04872,-0.02534 0.03605,-0.114984 -0.01267,-0.08965 -0.05359,-0.253348 -0.125701,-0.36833 -0.07211,-0.114982 -0.175394,-0.181241 -0.285505,-0.180266 -0.11011,9.75e-4 -0.227039,0.06918 -0.313763,0.176371 -0.08672,0.107188 -0.143239,0.253347 -0.171497,0.326429 -0.02826,0.07308 -0.02826,0.07308 0.09744,0.09062 z"
           id="path751"
           transform="translate(-0.00584652,-0.01753956)" />
      </g>
      <g
         id="g753"
         transform="rotate(-108.47938,17.312705,16.05895)">
        <path
           style="fill:#e11800;fill-opacity:1;stroke:none;stroke-width:0.2;stroke-dasharray:none"
           d="m 17.558146,14.514963 c -0.0039,0.06236 -0.01169,0.187088 -0.01559,0.378077 -0.0039,0.190989 -0.0039,0.448231 0.09744,0.576855 0.101341,0.128623 0.304017,0.128623 0.413152,-0.05847 0.109135,-0.187093 0.124725,-0.561263 0.14811,-0.943239 0.02339,-0.381977 0.05457,-0.771737 0.11303,-1.103043 0.05846,-0.331306 0.144212,-0.604138 0.08185,-0.783432 -0.06236,-0.179293 -0.272836,-0.265041 -0.444335,-0.26504 -0.171499,0 -0.304018,0.08575 -0.374177,0.222169 -0.07016,0.13642 -0.07795,0.323505 -0.05457,0.533982 0.02339,0.210477 0.07795,0.444333 0.08965,0.658707 0.01169,0.214375 -0.01949,0.409255 -0.03508,0.526187 -0.01559,0.116932 -0.01559,0.155902 -0.01559,0.175393 0,0.01949 9e-6,0.01949 -0.0039,0.08185 z"
           id="path752" />
        <path
           style="fill:#ffec8c;fill-opacity:1;stroke:none;stroke-width:0.2;stroke-dasharray:none"
           d="m 17.635126,12.762955 c 0.1257,0.01754 0.377101,0.05262 0.528136,0.06821 0.151035,0.01559 0.201706,0.01169 0.234833,0.002 0.03313,-0.0097 0.04872,-0.02534 0.03605,-0.114984 -0.01267,-0.08965 -0.05359,-0.253348 -0.125701,-0.36833 -0.07211,-0.114982 -0.175394,-0.181241 -0.285505,-0.180266 -0.11011,9.75e-4 -0.227039,0.06918 -0.313763,0.176371 -0.08672,0.107188 -0.143239,0.253347 -0.171497,0.326429 -0.02826,0.07308 -0.02826,0.07308 0.09744,0.09062 z"
           id="path753"
           transform="translate(-0.00584652,-0.01753956)" />
      </g>
      <g
         id="g755"
         transform="rotate(-85.601987,17.44778,16.055084)">
        <path
           style="fill:#e11800;fill-opacity:1;stroke:none;stroke-width:0.2;stroke-dasharray:none"
           d="m 17.558146,14.514963 c -0.0039,0.06236 -0.01169,0.187088 -0.01559,0.378077 -0.0039,0.190989 -0.0039,0.448231 0.09744,0.576855 0.101341,0.128623 0.304017,0.128623 0.413152,-0.05847 0.109135,-0.187093 0.124725,-0.561263 0.14811,-0.943239 0.02339,-0.381977 0.05457,-0.771737 0.11303,-1.103043 0.05846,-0.331306 0.144212,-0.604138 0.08185,-0.783432 -0.06236,-0.179293 -0.272836,-0.265041 -0.444335,-0.26504 -0.171499,0 -0.304018,0.08575 -0.374177,0.222169 -0.07016,0.13642 -0.07795,0.323505 -0.05457,0.533982 0.02339,0.210477 0.07795,0.444333 0.08965,0.658707 0.01169,0.214375 -0.01949,0.409255 -0.03508,0.526187 -0.01559,0.116932 -0.01559,0.155902 -0.01559,0.175393 0,0.01949 9e-6,0.01949 -0.0039,0.08185 z"
           id="path754" />
        <path
           style="fill:#ffec8c;fill-opacity:1;stroke:none;stroke-width:0.2;stroke-dasharray:none"
           d="m 17.635126,12.762955 c 0.1257,0.01754 0.377101,0.05262 0.528136,0.06821 0.151035,0.01559 0.201706,0.01169 0.234833,0.002 0.03313,-0.0097 0.04872,-0.02534 0.03605,-0.114984 -0.01267,-0.08965 -0.05359,-0.253348 -0.125701,-0.36833 -0.07211,-0.114982 -0.175394,-0.181241 -0.285505,-0.180266 -0.11011,9.75e-4 -0.227039,0.06918 -0.313763,0.176371 -0.08672,0.107188 -0.143239,0.253347 -0.171497,0.326429 -0.02826,0.07308 -0.02826,0.07308 0.09744,0.09062 z"
           id="path755"
           transform="translate(-0.00584652,-0.01753956)" />
      </g>
      <g
         id="g793"
         transform="rotate(-55.546665,17.65134,16.05062)">
        <path
           style="fill:#e11800;fill-opacity:1;stroke:none;stroke-width:0.2;stroke-dasharray:none"
           d="m 17.558146,14.514963 c -0.0039,0.06236 -0.01169,0.187088 -0.01559,0.378077 -0.0039,0.190989 -0.0039,0.448231 0.09744,0.576855 0.101341,0.128623 0.304017,0.128623 0.413152,-0.05847 0.109135,-0.187093 0.124725,-0.561263 0.14811,-0.943239 0.02339,-0.381977 0.05457,-0.771737 0.11303,-1.103043 0.05846,-0.331306 0.144212,-0.604138 0.08185,-0.783432 -0.06236,-0.179293 -0.272836,-0.265041 -0.444335,-0.26504 -0.171499,0 -0.304018,0.08575 -0.374177,0.222169 -0.07016,0.13642 -0.07795,0.323505 -0.05457,0.533982 0.02339,0.210477 0.07795,0.444333 0.08965,0.658707 0.01169,0.214375 -0.01949,0.409255 -0.03508,0.526187 -0.01559,0.116932 -0.01559,0.155902 -0.01559,0.175393 0,0.01949 9e-6,0.01949 -0.0039,0.08185 z"
           id="path792" />
        <path
           style="fill:#ffec8c;fill-opacity:1;stroke:none;stroke-width:0.2;stroke-dasharray:none"
           d="m 17.635126,12.762955 c 0.1257,0.01754 0.377101,0.05262 0.528136,0.06821 0.151035,0.01559 0.201706,0.01169 0.234833,0.002 0.03313,-0.0097 0.04872,-0.02534 0.03605,-0.114984 -0.01267,-0.08965 -0.05359,-0.253348 -0.125701,-0.36833 -0.07211,-0.114982 -0.175394,-0.181241 -0.285505,-0.180266 -0.11011,9.75e-4 -0.227039,0.06918 -0.313763,0.176371 -0.08672,0.107188 -0.143239,0.253347 -0.171497,0.326429 -0.02826,0.07308 -0.02826,0.07308 0.09744,0.09062 z"
           id="path793"
           transform="translate(-0.00584652,-0.01753956)" />
      </g>
      <g
         id="g795"
         transform="rotate(-32.669272,18.156164,16.071229)">
        <path
           style="fill:#e11800;fill-opacity:1;stroke:none;stroke-width:0.2;stroke-dasharray:none"
           d="m 17.558146,14.514963 c -0.0039,0.06236 -0.01169,0.187088 -0.01559,0.378077 -0.0039,0.190989 -0.0039,0.448231 0.09744,0.576855 0.101341,0.128623 0.304017,0.128623 0.413152,-0.05847 0.109135,-0.187093 0.124725,-0.561263 0.14811,-0.943239 0.02339,-0.381977 0.05457,-0.771737 0.11303,-1.103043 0.05846,-0.331306 0.144212,-0.604138 0.08185,-0.783432 -0.06236,-0.179293 -0.272836,-0.265041 -0.444335,-0.26504 -0.171499,0 -0.304018,0.08575 -0.374177,0.222169 -0.07016,0.13642 -0.07795,0.323505 -0.05457,0.533982 0.02339,0.210477 0.07795,0.444333 0.08965,0.658707 0.01169,0.214375 -0.01949,0.409255 -0.03508,0.526187 -0.01559,0.116932 -0.01559,0.155902 -0.01559,0.175393 0,0.01949 9e-6,0.01949 -0.0039,0.08185 z"
           id="path794" />
        <path
           style="fill:#ffec8c;fill-opacity:1;stroke:none;stroke-width:0.2;stroke-dasharray:none"
           d="m 17.635126,12.762955 c 0.1257,0.01754 0.377101,0.05262 0.528136,0.06821 0.151035,0.01559 0.201706,0.01169 0.234833,0.002 0.03313,-0.0097 0.04872,-0.02534 0.03605,-0.114984 -0.01267,-0.08965 -0.05359,-0.253348 -0.125701,-0.36833 -0.07211,-0.114982 -0.175394,-0.181241 -0.285505,-0.180266 -0.11011,9.75e-4 -0.227039,0.06918 -0.313763,0.176371 -0.08672,0.107188 -0.143239,0.253347 -0.171497,0.326429 -0.02826,0.07308 -0.02826,0.07308 0.09744,0.09062 z"
           id="path795"
           transform="translate(-0.00584652,-0.01753956)" />
      </g>
      <ellipse
         style="fill:#923849;fill-opacity:1;stroke:none;stroke-width:0.118248;stroke-dasharray:none"
         id="path689"
         cx="17.606621"
         cy="16.351715"
         rx="0.92639613"
         ry="0.94713634" />
    </g>
  </g>
</svg>
