<?xml version="1.0" encoding="UTF-8" standalone="no"?>
<!-- Created with Inkscape (http://www.inkscape.org/) -->

<svg
   width="64.000008"
   height="64.000008"
   viewBox="0 0 16.933335 16.933335"
   version="1.1"
   id="svg1"
   xmlns="http://www.w3.org/2000/svg"
   xmlns:svg="http://www.w3.org/2000/svg">
  <defs
     id="defs1" />
  <g
     id="g32"
     transform="translate(-8.478902,-11.801772)">
    <rect
       style="fill:none;fill-opacity:0.921569;stroke:none;stroke-width:4.36359"
       id="rect225"
       width="15.937428"
       height="15.937428"
       x="7.7312517"
       y="11.356647"
       transform="matrix(1.0624885,0,0,1.0624885,0.26453492,-0.26453461)" />
  </g>
  <g
     id="g737"
     transform="matrix(-1.0624885,0,0,1.0624885,17.185633,-12.066307)">
    <g
       id="g776"
       transform="matrix(1.1460028,0,0,1.1460028,-1.3118727,3.2106329)">
      <path
         style="fill:#6e9202;fill-opacity:1;stroke:none;stroke-width:0.188237;stroke-dasharray:none"
         d="M 8.1191198,15.895877 C 7.989421,15.875125 7.7611506,15.781741 7.1904647,15.802495 6.6197788,15.823248 5.7067161,15.958133 4.9959603,16.233099 4.2852045,16.508065 3.7767937,16.923094 3.2113,16.746696 2.6458063,16.570297 2.0232631,15.802494 1.9506361,15.164369 1.878009,14.526245 2.3552922,14.017834 3.185378,13.877761 c 0.8300858,-0.140073 2.0129168,0.08819 2.7755512,0.264585 0.7626345,0.176393 1.105033,0.300901 1.3696216,0.498046 0.2645887,0.197146 0.4513514,0.466914 0.6018035,0.674434 0.1504522,0.20752 0.2645856,0.352781 0.3060889,0.451352 0.041503,0.09857 0.010375,0.150451 -0.1193234,0.129699 z"
         id="path775" />
      <path
         style="fill:#6e9202;fill-opacity:1;stroke:none;stroke-width:0.188237;stroke-dasharray:none"
         d="m 9.4783666,13.395278 c -0.046692,-0.114135 0.015564,-0.249022 0.4565491,-0.498048 0.4409853,-0.249026 1.2606673,-0.612176 2.2463913,-0.814507 0.985725,-0.202331 2.13743,-0.243834 2.749611,0.07264 0.61218,0.316473 0.68481,0.990895 0.264576,1.46819 -0.420234,0.477296 -1.333298,0.75744 -2.220448,0.783378 -0.887151,0.02594 -1.748335,-0.202329 -2.267134,-0.363157 -0.5188,-0.160828 -0.695185,-0.254209 -0.8612001,-0.347592 -0.1660154,-0.09338 -0.3216538,-0.186767 -0.3683453,-0.300902 z"
         id="path776"
         transform="translate(-1.1517281,0.6848113)" />
      <path
         style="fill:#6e9202;fill-opacity:1;stroke:none;stroke-width:0.188237;stroke-dasharray:none"
         d="m 9.4472382,15.584598 c 0.1193239,0.01038 0.2542108,0.01038 0.7159478,0.134891 0.461737,0.124513 1.250291,0.373531 1.852099,0.778197 0.601808,0.404667 1.016837,0.964956 0.985704,1.431876 -0.03113,0.466921 -0.508415,0.840447 -1.089474,0.913076 -0.581059,0.07263 -1.265856,-0.155636 -1.74834,-0.477294 C 9.6806918,18.043686 9.4005471,17.628657 9.2397198,17.151359 9.0788925,16.674061 9.0373896,16.134523 9.0373894,15.854372 c -1e-7,-0.28015 0.041501,-0.300902 0.1141346,-0.300903 0.072634,0 0.1763902,0.02075 0.2957142,0.03113 z"
         id="path774" />
      <g
         id="g773">
        <path
           style="fill:#e11800;fill-opacity:1;stroke:#e11800;stroke-width:0.188237;stroke-dasharray:none"
           d="M 9.2500961,14.453623 C 9.4212988,14.204601 9.6288173,13.779188 9.8000215,13.203316 9.9712257,12.627445 10.10611,11.901144 9.9660311,11.397909 9.8259521,10.894674 9.410923,10.614529 8.9491892,10.552275 c -0.4617339,-0.06225 -0.9701443,0.09338 -1.3384921,0.373536 -0.3683479,0.280154 -0.5966139,0.684807 -0.5758595,1.229551 0.020754,0.544743 0.2905232,1.22954 0.5239837,1.675707 0.2334606,0.446167 0.4305997,0.653682 0.6329322,0.783381 0.2023324,0.1297 0.4098471,0.181578 0.5810508,0.171202 0.1712036,-0.01038 0.3060891,-0.08301 0.4772918,-0.332029 z"
           id="path761" />
        <path
           style="fill:#e11800;fill-opacity:1;stroke:#e11800;stroke-width:0.188237;stroke-dasharray:none"
           d="M 8.0776162,14.697457 C 7.9064134,14.64039 7.5640076,14.526254 7.2267862,14.323921 6.8895648,14.121587 6.5575426,13.831068 6.2618259,13.540539 5.9661091,13.25001 5.7067157,12.959489 5.4369388,12.819415 5.1671619,12.67934 4.887017,12.689716 4.7365658,13.05807 c -0.1504513,0.368353 -0.1712029,1.094653 -0.1660147,1.670522 0.00519,0.575868 0.036315,1.001272 0.2075213,1.395561 0.1712062,0.39429 0.4824771,0.757439 0.8404516,0.861197 0.3579745,0.103757 0.762626,-0.05188 1.0272135,-0.269775 0.2645876,-0.217898 0.3890961,-0.498042 0.6536867,-0.757443 0.2645906,-0.259401 0.6692438,-0.498042 0.8767626,-0.679622 0.2075188,-0.18158 0.2178946,-0.306089 0.1971415,-0.383909 -0.020753,-0.07782 -0.072633,-0.108946 -0.098571,-0.124509 -0.025938,-0.01556 -0.025938,-0.01557 -0.1971407,-0.07264 z"
           id="path762" />
        <path
           style="fill:#e11800;fill-opacity:1;stroke:#e11800;stroke-width:0.188237;stroke-dasharray:none"
           d="M 8.0776162,14.697457 C 7.9064134,14.64039 7.5640076,14.526254 7.2267862,14.323921 6.8895648,14.121587 6.5575426,13.831068 6.2618259,13.540539 5.9661091,13.25001 5.7067157,12.959489 5.4369388,12.819415 5.1671619,12.67934 4.887017,12.689716 4.7365658,13.05807 c -0.1504513,0.368353 -0.1712029,1.094653 -0.1660147,1.670522 0.00519,0.575868 0.036315,1.001272 0.2075213,1.395561 0.1712062,0.39429 0.4824771,0.757439 0.8404516,0.861197 0.3579745,0.103757 0.762626,-0.05188 1.0272135,-0.269775 0.2645876,-0.217898 0.3890961,-0.498042 0.6536867,-0.757443 0.2645906,-0.259401 0.6692438,-0.498042 0.8767626,-0.679622 0.2075188,-0.18158 0.2178946,-0.306089 0.1971415,-0.383909 -0.020753,-0.07782 -0.072633,-0.108946 -0.098571,-0.124509 -0.025938,-0.01556 -0.025938,-0.01557 -0.1971407,-0.07264 z"
           id="path763"
           transform="matrix(-1,0,0,1,17.276611,0.06225557)" />
        <path
           style="fill:#e11800;fill-opacity:1;stroke:#e11800;stroke-width:0.188237;stroke-dasharray:none"
           d="M 9.0788934,15.973696 C 9.0581415,15.875125 9.0581415,15.750614 8.9751324,15.626102 8.8921232,15.501589 8.7261116,15.37708 8.549719,15.423774 c -0.1763926,0.04669 -0.3631554,0.264584 -0.4876673,0.523986 -0.1245118,0.259401 -0.1867661,0.560297 -0.2905268,0.773005 -0.1037606,0.212707 -0.2490209,0.337216 -0.3787212,0.48248 -0.1297003,0.145265 -0.2438334,0.311276 -0.134883,0.627747 0.1089505,0.316471 0.4409737,0.783378 0.8041353,0.95458 0.3631616,0.171202 0.7574392,0.04669 1.1050359,-0.10376 C 9.5146887,18.531359 9.8155843,18.354972 9.8985904,18.06963 9.9815964,17.784288 9.8467122,17.390011 9.7118239,17.094295 9.5769355,16.798579 9.442051,16.60144 9.3538553,16.47174 9.2656595,16.342041 9.2241562,16.279786 9.1826522,16.212342 9.1411481,16.144898 9.0996454,16.072268 9.0788934,15.973696 Z"
           id="path767"
           transform="translate(0,-0.03112779)" />
        <path
           style="fill:#211f21;fill-opacity:1;stroke:#e11800;stroke-width:0.188237;stroke-dasharray:none"
           d="M 9.0114498,14.51069 C 8.9440063,14.432871 8.9232545,14.329112 8.8869382,14.220163 8.850622,14.111215 8.7987433,13.997082 8.7624272,13.914074 8.726111,13.831066 8.70536,13.779188 8.6015986,13.857009 c -0.1037613,0.07782 -0.2905242,0.285336 -0.4928571,0.466916 -0.2023329,0.18158 -0.4202227,0.337216 -0.4565368,0.539549 -0.036314,0.202334 0.1089458,0.451351 0.2230818,0.643307 0.114136,0.191956 0.1971417,0.32684 0.4565442,0.290522 C 8.5912332,15.760986 9.0270138,15.553471 9.291601,15.387455 9.5561881,15.221439 9.6495696,15.09693 9.6236283,14.987982 9.597687,14.879034 9.4524266,14.785652 9.3227266,14.71302 9.1930266,14.640388 9.0788933,14.58851 9.0114498,14.51069 Z"
           id="path769" />
        <path
           style="fill:none;fill-opacity:1;stroke:#ba3840;stroke-width:0.188237;stroke-dasharray:none"
           d="M 8.8713747,14.81678 C 8.1554356,14.173473 7.439496,13.530166 6.899944,13.068434 6.3603919,12.606702 5.9972427,12.326558 5.7534066,12.08791 5.5095705,11.849261 5.3850617,11.652122 5.2605504,11.454979"
           id="path771"
           transform="translate(-0.24902229,0.31127787)" />
        <ellipse
           style="fill:none;fill-opacity:1;stroke:#ba3840;stroke-width:0.188237;stroke-dasharray:none"
           id="path772"
           cx="-5.1438231"
           cy="11.633964"
           transform="scale(-1,1)"
           rx="0.085601412"
           ry="0.11672919" />
        <ellipse
           style="fill:#ba3840;fill-opacity:1;stroke:#ba3840;stroke-width:0.188237;stroke-dasharray:none"
           id="path773"
           cx="-4.8870187"
           cy="11.742911"
           transform="scale(-1,1)"
           rx="0.12451115"
           ry="0.14007504" />
      </g>
    </g>
  </g>
</svg>
