<?xml version="1.0" encoding="UTF-8" standalone="no"?>
<!-- Created with Inkscape (http://www.inkscape.org/) -->

<svg
   width="127.99999"
   height="32.000004"
   viewBox="0 0 33.866664 8.4666677"
   version="1.1"
   id="svg1"
   xmlns="http://www.w3.org/2000/svg"
   xmlns:svg="http://www.w3.org/2000/svg">
  <defs
     id="defs1" />
  <g
     id="g75"
     transform="matrix(-1.0624885,0,0,1.0624885,8.7312013,-0.26453462)">
    <rect
       style="fill:#bdca31;fill-opacity:0;stroke:none;stroke-width:0.497953"
       id="rect74"
       width="7.9687138"
       height="7.9687138"
       x="0.24897645"
       y="0.24897645" />
    <path
       style="fill:#86a336;stroke:#bdca31;stroke-width:0.188237;stroke-dasharray:none"
       d="M 4.2488975,7.314984 C 4.1866419,7.1852848 4.1243864,7.0555857 4.0984467,6.8791927 4.0725069,6.7027997 4.0828827,6.4797216 4.0776944,6.3214876 4.0725062,6.1632535 4.0517549,6.0698725 4.031003,5.9764891"
       id="path1" />
    <path
       style="fill:#6e9202;stroke:none;stroke-width:0.282356;stroke-dasharray:none"
       d="m 3.8962623,6.786145 c 0.040353,-0.022011 0.040353,-0.022011 0.040353,-0.022011 C 3.8008827,6.6247335 3.6651503,6.4853326 3.5385878,6.3844497 3.4120253,6.2835668 3.2946374,6.2212046 3.1460636,6.1936913 2.9974897,6.166178 2.8177395,6.1735149 2.7645477,6.267062 c -0.053192,0.093547 0.020176,0.2732974 0.1577444,0.3925224 0.1375687,0.1192251 0.3393291,0.177919 0.4787309,0.2072666 0.1394018,0.029348 0.2164374,0.029348 0.2953095,0.00734 0.078872,-0.022011 0.159577,-0.066032 0.1999298,-0.088043 z"
       id="path57"
       transform="translate(0.18709068,0.04402134)" />
    <ellipse
       style="fill:#457b47;stroke:none;stroke-width:0.282356;stroke-dasharray:none"
       id="path108"
       cx="-4.0356627"
       cy="5.7626491"
       transform="scale(-1,1)"
       rx="0.30814934"
       ry="0.46222407" />
  </g>
  <g
     id="g706"
     transform="matrix(-1.0624885,0,0,1.0624885,17.197868,-0.26453462)">
    <rect
       style="fill:#bdca31;fill-opacity:0;stroke:none;stroke-width:0.497953"
       id="rect705"
       width="7.9687138"
       height="7.9687138"
       x="0.24897645"
       y="0.24897645" />
    <path
       style="fill:#86a336;stroke:#bdca31;stroke-width:0.188237;stroke-dasharray:none"
       d="M 4.2488975,7.314984 C 4.1866419,7.1852848 4.1243864,7.0555857 4.0984467,6.8791927 4.0725069,6.7027997 4.0828825,6.4797262 4.0819833,6.3407906 4.0810842,6.2018549 4.0689101,6.1470721 4.0626612,5.9976645 4.0564123,5.8482569 4.0560887,5.6042249 4.055765,5.3601904"
       id="path705" />
    <path
       style="fill:#6e9202;stroke:none;stroke-width:0.282356;stroke-dasharray:none"
       d="m 3.8962623,6.786145 c 0.040353,-0.022011 0.040353,-0.022011 0.040353,-0.022011 C 3.8008827,6.6247335 3.6651503,6.4853326 3.5385878,6.3844497 3.4120253,6.2835668 3.2946374,6.2212046 3.1460636,6.1936913 2.9974897,6.166178 2.8177395,6.1735149 2.7645477,6.267062 c -0.053192,0.093547 0.020176,0.2732974 0.1577444,0.3925224 0.1375687,0.1192251 0.3393291,0.177919 0.4787309,0.2072666 0.1394018,0.029348 0.2164374,0.029348 0.2953095,0.00734 0.078872,-0.022011 0.159577,-0.066032 0.1999298,-0.088043 z"
       id="path706"
       transform="translate(0.18709068,0.04402134)" />
    <ellipse
       style="fill:#457b47;stroke:none;stroke-width:0.282356;stroke-dasharray:none"
       id="ellipse706"
       cx="-4.113482"
       cy="5.062274"
       transform="scale(-1,1)"
       rx="0.30814934"
       ry="0.46222407" />
    <path
       style="fill:#e11800;fill-opacity:1;stroke:none;stroke-width:0.188237;stroke-dasharray:none"
       d="m 4.3344994,4.2800247 c 0,0 0,0 0,0 0.054474,0.1219172 0.1089473,0.2438344 0.090788,0.3424065 C 4.407129,4.7210033 4.3163414,4.7962272 4.2372243,4.8662654 4.1581072,4.9363035 4.0906649,5.0011518 4.038785,4.9933691 3.9869051,4.9855863 3.95059,4.9051744 3.9311355,4.7702854 3.9116809,4.6353964 3.9090876,4.4460396 3.9090876,4.3332013 c 0,-0.1128383 0.00259,-0.1491537 0.081711,-0.1517476 0.079118,-0.00259 0.2347536,0.028533 0.312573,0.049286 0.077819,0.020752 0.077819,0.031126 0.070038,0.037611 -0.00778,0.00649 -0.023347,0.00908 -0.031129,0.010375 -0.00778,0.0013 -0.00778,0.0013 -0.00778,0.0013 z"
       id="path709"
       transform="translate(0.04669168,-0.00778195)" />
  </g>
  <g
     id="g712"
     transform="matrix(-1.0624885,0,0,1.0624885,25.664535,-0.26453462)">
    <rect
       style="fill:#bdca31;fill-opacity:0;stroke:none;stroke-width:0.497953"
       id="rect710"
       width="7.9687138"
       height="7.9687138"
       x="0.24897645"
       y="0.24897645" />
    <path
       style="fill:#6e9202;stroke:none;stroke-width:0.282356;stroke-dasharray:none"
       d="m 3.8962623,6.786145 c 0.040353,-0.022011 0.040353,-0.022011 0.040353,-0.022011 C 3.8008827,6.6247335 3.6651503,6.4853326 3.5385878,6.3844497 3.4120253,6.2835668 3.2946374,6.2212046 3.1460636,6.1936913 2.9974897,6.166178 2.8177395,6.1735149 2.7645477,6.267062 c -0.053192,0.093547 0.020176,0.2732974 0.1577444,0.3925224 0.1375687,0.1192251 0.3393291,0.177919 0.4787309,0.2072666 0.1394018,0.029348 0.2164374,0.029348 0.2953095,0.00734 0.078872,-0.022011 0.159577,-0.066032 0.1999298,-0.088043 z"
       id="path723"
       transform="rotate(180,3.9412553,5.9925916)" />
    <path
       style="fill:none;stroke:#bdca31;stroke-width:0.188237;stroke-dasharray:none"
       d="M 4.2488975,7.314984 C 4.1866419,7.1852848 4.1243864,7.0555857 4.0984467,6.8791927 4.0725069,6.7027997 4.0828825,6.4797262 4.0819833,6.3407906 4.0810842,6.2018549 4.0689102,6.1470727 4.0627339,6.0523954 c -0.00618,-0.094677 -0.00635,-0.2292485 0.00127,-0.4718847 0.00762,-0.2426363 0.023039,-0.593338 0.038458,-0.9440413"
       id="path710" />
    <path
       style="fill:#6e9202;stroke:none;stroke-width:0.282356;stroke-dasharray:none"
       d="m 3.8962623,6.786145 c 0.040353,-0.022011 0.040353,-0.022011 0.040353,-0.022011 C 3.8008827,6.6247335 3.6651503,6.4853326 3.5385878,6.3844497 3.4120253,6.2835668 3.2946374,6.2212046 3.1460636,6.1936913 2.9974897,6.166178 2.8177395,6.1735149 2.7645477,6.267062 c -0.053192,0.093547 0.020176,0.2732974 0.1577444,0.3925224 0.1375687,0.1192251 0.3393291,0.177919 0.4787309,0.2072666 0.1394018,0.029348 0.2164374,0.029348 0.2953095,0.00734 0.078872,-0.022011 0.159577,-0.066032 0.1999298,-0.088043 z"
       id="path711"
       transform="translate(0.18709068,0.04402134)" />
    <ellipse
       style="fill:#457b47;stroke:none;stroke-width:0.282356;stroke-dasharray:none"
       id="ellipse711"
       cx="-4.113482"
       cy="4.3618989"
       transform="scale(-1,1)"
       rx="0.30814934"
       ry="0.46222407" />
    <path
       style="fill:#e11800;fill-opacity:1;stroke:none;stroke-width:0.188237;stroke-dasharray:none"
       d="m 4.3344994,4.2800247 c 0,0 0,0 0,0 0.054474,0.1219172 0.1089473,0.2438344 0.090788,0.3424065 C 4.407129,4.7210033 4.3163414,4.7962272 4.2372243,4.8662654 4.1581072,4.9363035 4.0906649,5.0011518 4.038785,4.9933691 3.9869051,4.9855863 3.95059,4.9051744 3.9311355,4.7702854 3.9116809,4.6353964 3.9090876,4.4460396 3.9090876,4.3332013 c 0,-0.1128383 0.00259,-0.1491537 0.081711,-0.1517476 0.079118,-0.00259 0.2347536,0.028533 0.312573,0.049286 0.077819,0.020752 0.077819,0.031126 0.070038,0.037611 -0.00778,0.00649 -0.023347,0.00908 -0.031129,0.010375 -0.00778,0.0013 -0.00778,0.0013 -0.00778,0.0013 z"
       id="path712"
       transform="translate(0.04669168,-0.70815715)" />
    <path
       style="fill:#e11800;fill-opacity:1;stroke:none;stroke-width:0.188237;stroke-dasharray:none"
       d="M 3.9998766,4.0465663 C 3.9920946,4.0154385 3.9765308,3.9531829 3.9415114,3.9000058 3.9064921,3.8468286 3.8520197,3.802732 3.8131099,3.7729011 3.7742,3.7430702 3.750854,3.7275062 3.6950825,3.7275063 c -0.055771,2e-7 -0.1439654,0.015564 -0.1763898,0.0869 -0.032424,0.071336 -0.00908,0.1984387 0.031129,0.2775554 0.040208,0.079117 0.097274,0.1102436 0.1556388,0.1361836 0.058365,0.02594 0.1180254,0.046692 0.1621235,0.059662 0.044098,0.01297 0.072631,0.018158 0.1011648,0.00649 0.028534,-0.011673 0.057067,-0.040207 0.063552,-0.079117 0.00648,-0.03891 -0.00908,-0.088194 -0.016861,-0.1128373 -0.00778,-0.024643 -0.00778,-0.024643 -0.015563,-0.055771 z"
       id="path727"
       transform="translate(0.01556389,-0.00778195)" />
    <path
       style="fill:#e11800;fill-opacity:1;stroke:none;stroke-width:0.188237;stroke-dasharray:none"
       d="m 4.1153089,4.2929947 c 0.014267,0.01297 0.042801,0.038909 0.055771,0.095978 0.01297,0.057068 0.010377,0.1452623 -0.00389,0.2217853 -0.014267,0.076523 -0.040206,0.1413716 -0.084305,0.1880634 -0.044098,0.046692 -0.1063525,0.075225 -0.1647175,0.085601 -0.058365,0.010376 -0.1128376,0.00259 -0.1413711,-0.066148 -0.028533,-0.068742 -0.031127,-0.1984383 0.00519,-0.2944163 0.036317,-0.095978 0.1115407,-0.1582322 0.1660147,-0.1984392 0.054474,-0.040207 0.088195,-0.058365 0.1102443,-0.062255 0.02205,-0.00389 0.032424,0.00648 0.037612,0.011672 0.00519,0.00519 0.00518,0.00519 0.019451,0.01816 z"
       id="path729" />
    <path
       style="fill:#e11800;fill-opacity:1;stroke:none;stroke-width:0.188237;stroke-dasharray:none"
       d="m 4.2048012,4.1801565 c 0.02594,0.00908 0.077819,0.027237 0.1725011,0.066147 0.094682,0.03891 0.23216,0.098571 0.3268409,0.1595301 0.094681,0.060959 0.1465594,0.1232134 0.1089454,0.1763904 C 4.7754747,4.6354013 4.648372,4.6794981 4.5368298,4.7002499 4.4252876,4.7210016 4.3293122,4.7184077 4.2553832,4.66523 4.1814541,4.6120523 4.1295757,4.5082952 4.1049326,4.4317721 4.0802895,4.355249 4.0828828,4.3059646 4.0919613,4.2696486 c 0.00908,-0.036316 0.024642,-0.059662 0.040206,-0.073929 0.015564,-0.014267 0.031128,-0.019455 0.038909,-0.022049 0.00778,-0.00259 0.00778,-0.00259 0.033724,0.00649 z"
       id="path730"
       transform="translate(0.02334584,-0.07003752)" />
  </g>
  <g
     id="g737"
     transform="matrix(-1.0624885,0,0,1.0624885,34.131201,-0.26453462)">
    <rect
       style="fill:#bdca31;fill-opacity:0;stroke:none;stroke-width:0.497953"
       id="rect730"
       width="7.9687138"
       height="7.9687138"
       x="0.24897645"
       y="0.24897645" />
    <path
       style="fill:#6e9202;stroke:none;stroke-width:0.282356;stroke-dasharray:none"
       d="m 3.8962623,6.786145 c 0.040353,-0.022011 0.040353,-0.022011 0.040353,-0.022011 C 3.8008827,6.6247335 3.6651503,6.4853326 3.5385878,6.3844497 3.4120253,6.2835668 3.2946374,6.2212046 3.1460636,6.1936913 2.9974897,6.166178 2.8177395,6.1735149 2.7645477,6.267062 c -0.053192,0.093547 0.020176,0.2732974 0.1577444,0.3925224 0.1375687,0.1192251 0.3393291,0.177919 0.4787309,0.2072666 0.1394018,0.029348 0.2164374,0.029348 0.2953095,0.00734 0.078872,-0.022011 0.159577,-0.066032 0.1999298,-0.088043 z"
       id="path731"
       transform="rotate(180,3.9412553,5.9925916)" />
    <path
       style="fill:none;stroke:#bdca31;stroke-width:0.188237;stroke-dasharray:none"
       d="M 4.2488975,7.314984 C 4.1866419,7.1852848 4.1243864,7.0555857 4.0984467,6.8791927 4.0725069,6.7027997 4.0828825,6.4797262 4.0819833,6.3407906 4.0810842,6.2018549 4.0689102,6.1470727 4.0627339,6.0523954 4.0565575,5.9577181 4.0563791,5.8231463 4.0633665,5.5948998 4.070354,5.3666534 4.0845074,5.0447307 4.0876773,4.7675655 4.0908472,4.4904002 4.0830335,4.2579934 4.0752199,4.0255866"
       id="path732" />
    <path
       style="fill:#6e9202;stroke:none;stroke-width:0.282356;stroke-dasharray:none"
       d="m 3.8962623,6.786145 c 0.040353,-0.022011 0.040353,-0.022011 0.040353,-0.022011 C 3.8008827,6.6247335 3.6651503,6.4853326 3.5385878,6.3844497 3.4120253,6.2835668 3.2946374,6.2212046 3.1460636,6.1936913 2.9974897,6.166178 2.8177395,6.1735149 2.7645477,6.267062 c -0.053192,0.093547 0.020176,0.2732974 0.1577444,0.3925224 0.1375687,0.1192251 0.3393291,0.177919 0.4787309,0.2072666 0.1394018,0.029348 0.2164374,0.029348 0.2953095,0.00734 0.078872,-0.022011 0.159577,-0.066032 0.1999298,-0.088043 z"
       id="path733"
       transform="translate(0.18709068,0.04402134)" />
    <ellipse
       style="fill:#457b47;stroke:none;stroke-width:0.37898;stroke-dasharray:none"
       id="ellipse733"
       cx="-4.0599594"
       cy="3.5655031"
       transform="scale(-1,1)"
       rx="0.41360012"
       ry="0.62040025" />
    <path
       style="fill:#e11800;fill-opacity:1;stroke:none;stroke-width:0.188237;stroke-dasharray:none"
       d="m 4.3344994,4.2800247 c 0,0 0,0 0,0 0.054474,0.1219172 0.1089473,0.2438344 0.090788,0.3424065 C 4.407129,4.7210033 4.3163414,4.7962272 4.2372243,4.8662654 4.1581072,4.9363035 4.0906649,5.0011518 4.038785,4.9933691 3.9869051,4.9855863 3.95059,4.9051744 3.9311355,4.7702854 3.9116809,4.6353964 3.9090876,4.4460396 3.9090876,4.3332013 c 0,-0.1128383 0.00259,-0.1491537 0.081711,-0.1517476 0.079118,-0.00259 0.2347536,0.028533 0.312573,0.049286 0.077819,0.020752 0.077819,0.031126 0.070038,0.037611 -0.00778,0.00649 -0.023347,0.00908 -0.031129,0.010375 -0.00778,0.0013 -0.00778,0.0013 -0.00778,0.0013 z"
       id="path734"
       transform="matrix(1.2998591,0,0,1.6130393,-1.210963,-4.5920994)" />
    <path
       style="fill:#e11800;fill-opacity:1;stroke:none;stroke-width:0.188237;stroke-dasharray:none"
       d="M 3.9998766,4.0465663 C 3.9920946,4.0154385 3.9765308,3.9531829 3.9415114,3.9000058 3.9064921,3.8468286 3.8520197,3.802732 3.8131099,3.7729011 3.7742,3.7430702 3.750854,3.7275062 3.6950825,3.7275063 c -0.055771,2e-7 -0.1439654,0.015564 -0.1763898,0.0869 -0.032424,0.071336 -0.00908,0.1984387 0.031129,0.2775554 0.040208,0.079117 0.097274,0.1102436 0.1556388,0.1361836 0.058365,0.02594 0.1180254,0.046692 0.1621235,0.059662 0.044098,0.01297 0.072631,0.018158 0.1011648,0.00649 0.028534,-0.011673 0.057067,-0.040207 0.063552,-0.079117 0.00648,-0.03891 -0.00908,-0.088194 -0.016861,-0.1128373 -0.00778,-0.024643 -0.00778,-0.024643 -0.015563,-0.055771 z"
       id="path735"
       transform="matrix(1.757166,0,0,1.8221283,-3.1141747,-4.363556)" />
    <path
       style="fill:#e11800;fill-opacity:1;stroke:none;stroke-width:0.188237;stroke-dasharray:none"
       d="m 4.1153089,4.2929947 c 0.014267,0.01297 0.042801,0.038909 0.055771,0.095978 0.01297,0.057068 0.010377,0.1452623 -0.00389,0.2217853 -0.014267,0.076523 -0.040206,0.1413716 -0.084305,0.1880634 -0.044098,0.046692 -0.1063525,0.075225 -0.1647175,0.085601 -0.058365,0.010376 -0.1128376,0.00259 -0.1413711,-0.066148 -0.028533,-0.068742 -0.031127,-0.1984383 0.00519,-0.2944163 0.036317,-0.095978 0.1115407,-0.1582322 0.1660147,-0.1984392 0.054474,-0.040207 0.088195,-0.058365 0.1102443,-0.062255 0.02205,-0.00389 0.032424,0.00648 0.037612,0.011672 0.00519,0.00519 0.00518,0.00519 0.019451,0.01816 z"
       id="path736"
       transform="matrix(1.9126606,0,0,1.6763034,-3.8453914,-3.7130901)" />
    <path
       style="fill:#e11800;fill-opacity:1;stroke:none;stroke-width:0.188237;stroke-dasharray:none"
       d="m 4.2048012,4.1801565 c 0.02594,0.00908 0.077819,0.027237 0.1725011,0.066147 0.094682,0.03891 0.23216,0.098571 0.3268409,0.1595301 0.094681,0.060959 0.1465594,0.1232134 0.1089454,0.1763904 C 4.7754747,4.6354013 4.648372,4.6794981 4.5368298,4.7002499 4.4252876,4.7210016 4.3293122,4.7184077 4.2553832,4.66523 4.1814541,4.6120523 4.1295757,4.5082952 4.1049326,4.4317721 4.0802895,4.355249 4.0828828,4.3059646 4.0919613,4.2696486 c 0.00908,-0.036316 0.024642,-0.059662 0.040206,-0.073929 0.015564,-0.014267 0.031128,-0.019455 0.038909,-0.022049 0.00778,-0.00259 0.00778,-0.00259 0.033724,0.00649 z"
       id="path737"
       transform="matrix(1.7586657,0,0,1.6885815,-3.1312885,-3.828209)" />
    <path
       style="fill:#e11800;fill-opacity:1;stroke:#e11800;stroke-width:0.188237;stroke-dasharray:none"
       d="m 3.9941973,3.3854967 c 0.055026,0 0.1100529,0 0.4016991,-0.045856 0.2916462,-0.045856 0.8198922,-0.1375657 1.3481482,-0.2292768"
       id="path757"
       transform="translate(-0.11005334,-0.11005334)" />
    <ellipse
       style="fill:#e11800;fill-opacity:1;stroke:#e11800;stroke-width:0.188237;stroke-dasharray:none"
       id="path759"
       cx="-5.6202335"
       cy="2.8407326"
       transform="scale(-1,1)"
       rx="0.074286006"
       ry="0.06052934" />
    <ellipse
       style="fill:#e11800;fill-opacity:1;stroke:#e11800;stroke-width:0.188237;stroke-dasharray:none"
       id="path760"
       cx="-5.6917701"
       cy="3.0856011"
       transform="scale(-1,1)"
       rx="0.085291341"
       ry="0.10179935" />
  </g>
</svg>
