<?xml version="1.0" encoding="UTF-8" standalone="no"?>
<!-- Created with Inkscape (http://www.inkscape.org/) -->

<svg
   width="160"
   height="32.000004"
   viewBox="0 0 42.333332 8.4666677"
   version="1.1"
   id="svg1"
   inkscape:version="1.3.2 (091e20e, 2023-11-25, custom)"
   sodipodi:docname="Hydrangea_Blue_Scene.svg"
   xmlns:inkscape="http://www.inkscape.org/namespaces/inkscape"
   xmlns:sodipodi="http://sodipodi.sourceforge.net/DTD/sodipodi-0.dtd"
   xmlns="http://www.w3.org/2000/svg"
   xmlns:svg="http://www.w3.org/2000/svg">
  <sodipodi:namedview
     id="namedview1"
     pagecolor="#ffffff"
     bordercolor="#000000"
     borderopacity="0.25"
     inkscape:showpageshadow="2"
     inkscape:pageopacity="0.0"
     inkscape:pagecheckerboard="0"
     inkscape:deskcolor="#d1d1d1"
     inkscape:document-units="mm"
     showgrid="true"
     inkscape:zoom="4.0567374"
     inkscape:cx="106.85927"
     inkscape:cy="73.334793"
     inkscape:window-width="1920"
     inkscape:window-height="1001"
     inkscape:window-x="-7"
     inkscape:window-y="-7"
     inkscape:window-maximized="1"
     inkscape:current-layer="g74">
    <inkscape:grid
       id="grid1"
       units="px"
       originx="4.948443e-08"
       originy="-9.2932053e-09"
       spacingx="8.4666666"
       spacingy="8.4666666"
       empcolor="#0099e5"
       empopacity="0.30196078"
       color="#0099e5"
       opacity="0.14901961"
       empspacing="5"
       dotted="false"
       gridanglex="30"
       gridanglez="30"
       visible="true" />
  </sodipodi:namedview>
  <defs
     id="defs1">
    <inkscape:path-effect
       effect="bspline"
       id="path-effect166"
       is_visible="true"
       lpeversion="1.3"
       weight="33.333333"
       steps="2"
       helper_size="0"
       apply_no_weight="true"
       apply_with_weight="true"
       only_selected="false"
       uniform="false" />
    <inkscape:path-effect
       effect="bspline"
       id="path-effect164"
       is_visible="true"
       lpeversion="1.3"
       weight="33.333333"
       steps="2"
       helper_size="0"
       apply_no_weight="true"
       apply_with_weight="true"
       only_selected="false"
       uniform="false" />
    <inkscape:path-effect
       effect="bspline"
       id="path-effect129"
       is_visible="true"
       lpeversion="1.3"
       weight="33.333333"
       steps="2"
       helper_size="0"
       apply_no_weight="true"
       apply_with_weight="true"
       only_selected="false"
       uniform="false" />
    <inkscape:path-effect
       effect="bspline"
       id="path-effect127"
       is_visible="true"
       lpeversion="1.3"
       weight="33.333333"
       steps="2"
       helper_size="0"
       apply_no_weight="true"
       apply_with_weight="true"
       only_selected="false"
       uniform="false" />
    <inkscape:path-effect
       effect="bspline"
       id="path-effect99"
       is_visible="true"
       lpeversion="1.3"
       weight="33.333333"
       steps="2"
       helper_size="0"
       apply_no_weight="true"
       apply_with_weight="true"
       only_selected="false"
       uniform="false" />
    <inkscape:path-effect
       effect="bspline"
       id="path-effect97"
       is_visible="true"
       lpeversion="1.3"
       weight="33.333333"
       steps="2"
       helper_size="0"
       apply_no_weight="true"
       apply_with_weight="true"
       only_selected="false"
       uniform="false" />
    <inkscape:path-effect
       effect="bspline"
       id="path-effect77"
       is_visible="true"
       lpeversion="1.3"
       weight="33.333333"
       steps="2"
       helper_size="0"
       apply_no_weight="true"
       apply_with_weight="true"
       only_selected="false"
       uniform="false" />
    <inkscape:path-effect
       effect="bspline"
       id="path-effect75"
       is_visible="true"
       lpeversion="1.3"
       weight="33.333333"
       steps="2"
       helper_size="0"
       apply_no_weight="true"
       apply_with_weight="true"
       only_selected="false"
       uniform="false" />
    <inkscape:path-effect
       effect="bspline"
       id="path-effect69"
       is_visible="true"
       lpeversion="1.3"
       weight="33.333333"
       steps="2"
       helper_size="0"
       apply_no_weight="true"
       apply_with_weight="true"
       only_selected="false"
       uniform="false" />
    <inkscape:path-effect
       effect="bspline"
       id="path-effect68"
       is_visible="true"
       lpeversion="1.3"
       weight="33.333333"
       steps="2"
       helper_size="0"
       apply_no_weight="true"
       apply_with_weight="true"
       only_selected="false"
       uniform="false" />
  </defs>
  <g
     inkscape:label="Layer 1"
     inkscape:groupmode="layer"
     id="g2"
     transform="matrix(-1.0624885,0,0,1.0624885,8.7312013,-0.26453462)">
    <rect
       style="fill:#86a336;fill-opacity:0.919231;stroke:none;stroke-width:0.230408"
       id="rect69"
       width="0.41564205"
       height="1.3581307"
       x="0.38482934"
       y="6.1788607"
       transform="rotate(-27.270041)"
       inkscape:export-filename="Hydrangea_Blue.svg"
       inkscape:export-xdpi="44.636486"
       inkscape:export-ydpi="44.636486" />
    <rect
       style="fill:#bdca31;fill-opacity:0;stroke:none;stroke-width:0.497953"
       id="rect2"
       width="7.9687138"
       height="7.9687138"
       x="0.24897645"
       y="0.24897645"
       inkscape:export-filename="Daisy_Blue.svg"
       inkscape:export-xdpi="44.636486"
       inkscape:export-ydpi="44.636486" />
    <rect
       style="fill:#86a336;fill-opacity:0.919231;stroke:none;stroke-width:0.230408"
       id="rect3"
       width="0.41564205"
       height="1.3581307"
       x="3.7609546"
       y="6.3561406" />
    <ellipse
       style="fill:#6e9202;fill-opacity:1;stroke:none;stroke-width:0.125419;stroke-dasharray:none"
       id="path30"
       cx="-6.2613025"
       cy="4.6814566"
       transform="matrix(-0.95246424,-0.3046504,-0.41670083,0.90904368,0,0)"
       rx="0.23957808"
       ry="0.39907822" />
    <ellipse
       style="fill:#6e9202;fill-opacity:1;stroke:none;stroke-width:0.125419;stroke-dasharray:none"
       id="ellipse69"
       cx="-1.9241874"
       cy="6.1974068"
       transform="matrix(-0.92667858,0.37585476,0.26198391,0.96507224,0,0)"
       rx="0.23957808"
       ry="0.39907822" />
    <path
       style="fill:#6e9202;fill-opacity:1;stroke:none;stroke-width:1"
       d="M 4.7516011,6.9650293 C 4.8453559,6.8671983 5.0192779,6.7313217 5.1456438,6.6049554 5.2720097,6.4785891 5.3508164,6.3617377 5.4241904,6.3617389 5.4975645,6.3617401 5.5655013,6.4785914 5.5424011,6.5995227 5.5193009,6.720454 5.405167,6.8454579 5.295106,6.9364957 5.1850451,7.0275335 5.0790636,7.0846004 4.9690024,7.1199285 4.8589413,7.1552566 4.7448073,7.168844 4.6945332,7.1457444 4.644259,7.1226447 4.6578464,7.0628604 4.7516011,6.9650293 Z"
       id="path68"
       inkscape:path-effect="#path-effect68"
       inkscape:original-d="M 4.6714341,7.0030747 C 4.8453558,6.8671982 5.0192778,6.7313216 5.1931998,6.5954451 5.2720096,6.478589 5.3508163,6.3617376 5.4296248,6.2448839 5.4975646,6.36174 5.5655014,6.4785914 5.6334395,6.5954451 5.5193011,6.7204542 5.405167,6.8454579 5.2910308,6.9704642 5.1850451,7.0275335 5.0790636,7.0846005 4.9730797,7.1416687 4.8589414,7.1552577 4.7448073,7.1688441 4.630671,7.1824317 4.64426,7.1226449 4.6578464,7.0628604 4.6714341,7.0030747 Z"
       transform="matrix(-0.94118667,0,0,0.94118667,8.2176902,0.24897645)" />
    <path
       style="fill:#6e9202;fill-opacity:1;stroke:none;stroke-width:1"
       d="M 4.1809203,6.8250764 C 4.1061876,6.7095815 3.9078079,6.4894615 3.8113359,6.454135 c -0.096472,-0.035326 -0.091037,0.1141347 -0.044838,0.221478 0.046199,0.1073432 0.1331579,0.1725624 0.205173,0.2133255 0.072015,0.040763 0.1290822,0.057068 0.1820742,0.059785 0.052992,0.00272 0.1019075,-0.00815 0.027175,-0.1236474 z"
       id="path69"
       inkscape:path-effect="#path-effect69"
       inkscape:original-d="M 4.3045673,6.9297015 C 4.1061878,6.7095814 3.9078079,6.4894615 3.7094284,6.2693417 c 0.00543,0.1494671 0.010869,0.2989281 0.016306,0.4483923 0.086963,0.065222 0.1739217,0.1304414 0.2608828,0.1956623 0.057069,0.016306 0.1141362,0.03261 0.1712045,0.048915 0.048916,-0.010869 0.097831,-0.021741 0.1467456,-0.03261 z"
       transform="matrix(-0.94118667,0,0,0.94118667,8.064228,0.35639997)" />
  </g>
  <g
     inkscape:label="Layer 1"
     inkscape:groupmode="layer"
     id="g74"
     transform="matrix(-1.0624885,0,0,1.0624885,8.7312013,-0.26453462)">
    <rect
       style="fill:#86a336;fill-opacity:0.919231;stroke:none;stroke-width:0.230408"
       id="rect84"
       width="0.41564205"
       height="1.3581307"
       x="-0.71361935"
       y="6.0039167"
       transform="rotate(32.729959)"
       inkscape:transform-center-x="-0.048915539"
       inkscape:transform-center-y="0.48915539" />
    <rect
       style="fill:#86a336;fill-opacity:0.919231;stroke:none;stroke-width:0.230408"
       id="rect70"
       width="0.41564205"
       height="1.3581307"
       x="-6.698216"
       y="2.5277159"
       transform="rotate(-27.270041)" />
    <rect
       style="fill:#bdca31;fill-opacity:0;stroke:none;stroke-width:0.497953"
       id="rect71"
       width="7.9687138"
       height="7.9687138"
       x="-7.7197375"
       y="0.24897645"
       inkscape:export-filename="Daisy_Blue.svg"
       inkscape:export-xdpi="44.636486"
       inkscape:export-ydpi="44.636486" />
    <rect
       style="fill:#86a336;fill-opacity:0.919231;stroke:none;stroke-width:0.230408"
       id="rect72"
       width="0.41564205"
       height="1.3581307"
       x="-4.2077594"
       y="6.3561406" />
    <ellipse
       style="fill:#6e9202;fill-opacity:1;stroke:none;stroke-width:0.125419;stroke-dasharray:none"
       id="ellipse72"
       cx="1.035291"
       cy="7.1267853"
       transform="matrix(-0.95246424,-0.3046504,-0.41670083,0.90904368,0,0)"
       rx="0.23957808"
       ry="0.39907822" />
    <ellipse
       style="fill:#6e9202;fill-opacity:1;stroke:none;stroke-width:0.125419;stroke-dasharray:none"
       id="ellipse73"
       cx="5.8221302"
       cy="3.1805441"
       transform="matrix(-0.92667858,0.37585476,0.26198391,0.96507224,0,0)"
       rx="0.23957808"
       ry="0.39907822" />
    <path
       style="fill:#6e9202;fill-opacity:1;stroke:none;stroke-width:1"
       d="M 4.7516011,6.9650293 C 4.8453559,6.8671983 5.0192779,6.7313217 5.1456438,6.6049554 5.2720097,6.4785891 5.3508164,6.3617377 5.4241904,6.3617389 5.4975645,6.3617401 5.5655013,6.4785914 5.5424011,6.5995227 5.5193009,6.720454 5.405167,6.8454579 5.295106,6.9364957 5.1850451,7.0275335 5.0790636,7.0846004 4.9690024,7.1199285 4.8589413,7.1552566 4.7448073,7.168844 4.6945332,7.1457444 4.644259,7.1226447 4.6578464,7.0628604 4.7516011,6.9650293 Z"
       id="path73"
       inkscape:path-effect="#path-effect75"
       inkscape:original-d="M 4.6714341,7.0030747 C 4.8453558,6.8671982 5.0192778,6.7313216 5.1931998,6.5954451 5.2720096,6.478589 5.3508163,6.3617376 5.4296248,6.2448839 5.4975646,6.36174 5.5655014,6.4785914 5.6334395,6.5954451 5.5193011,6.7204542 5.405167,6.8454579 5.2910308,6.9704642 5.1850451,7.0275335 5.0790636,7.0846005 4.9730797,7.1416687 4.8589414,7.1552577 4.7448073,7.1688441 4.630671,7.1824317 4.64426,7.1226449 4.6578464,7.0628604 4.6714341,7.0030747 Z"
       transform="matrix(-0.94118667,0,0,0.94118667,0.24897552,0.24897645)" />
    <path
       style="fill:#6e9202;fill-opacity:1;stroke:none;stroke-width:1"
       d="M 4.1809203,6.8250764 C 4.1061876,6.7095815 3.9078079,6.4894615 3.8113359,6.454135 c -0.096472,-0.035326 -0.091037,0.1141347 -0.044838,0.221478 0.046199,0.1073432 0.1331579,0.1725624 0.205173,0.2133255 0.072015,0.040763 0.1290822,0.057068 0.1820742,0.059785 0.052992,0.00272 0.1019075,-0.00815 0.027175,-0.1236474 z"
       id="path74"
       inkscape:path-effect="#path-effect77"
       inkscape:original-d="M 4.3045673,6.9297015 C 4.1061878,6.7095814 3.9078079,6.4894615 3.7094284,6.2693417 c 0.00543,0.1494671 0.010869,0.2989281 0.016306,0.4483923 0.086963,0.065222 0.1739217,0.1304414 0.2608828,0.1956623 0.057069,0.016306 0.1141362,0.03261 0.1712045,0.048915 0.048916,-0.010869 0.097831,-0.021741 0.1467456,-0.03261 z"
       transform="matrix(-0.94118667,0,0,0.94118667,0.09551352,0.35639997)" />
    <ellipse
       style="fill:#24a8a8;fill-opacity:1;stroke:none;stroke-width:0.941187"
       id="path77"
       cx="4.5119972"
       cy="4.9449191"
       transform="scale(-1,1)"
       rx="0.20717394"
       ry="0.19950083" />
    <ellipse
       style="fill:#24a8a8;fill-opacity:1;stroke:none;stroke-width:0.941187"
       id="path78"
       cx="3.7216668"
       cy="5.8656921"
       transform="scale(-1,1)"
       rx="0.18415461"
       ry="0.16880839" />
    <ellipse
       style="fill:#24a8a8;fill-opacity:1;stroke:none;stroke-width:0.941187"
       id="path79"
       cx="3.4454353"
       cy="6.5179067"
       transform="scale(-1,1)"
       rx="0.092077307"
       ry="0.084404193" />
    <ellipse
       style="fill:#24a8a8;fill-opacity:1;stroke:none;stroke-width:0.941187"
       id="path80"
       cx="4.9109983"
       cy="6.3337517"
       transform="scale(-1,1)"
       rx="0.14578907"
       ry="0.16113529" />
    <ellipse
       style="fill:#e084a8;fill-opacity:1;stroke:none;stroke-width:0.941187"
       id="path81"
       cx="4.6270943"
       cy="6.7480993"
       transform="scale(-1,1)"
       rx="0.16880839"
       ry="0.1764815" />
    <ellipse
       style="fill:#e084a8;fill-opacity:1;stroke:none;stroke-width:0.941187"
       id="path82"
       cx="4.7575369"
       cy="5.3592672"
       transform="scale(-1,1)"
       rx="0.1764815"
       ry="0.19950083" />
    <ellipse
       style="fill:#e084a8;fill-opacity:1;stroke:none;stroke-width:0.941187"
       id="path83"
       cx="3.9902256"
       cy="6.2416744"
       transform="scale(-1,1)"
       rx="0.1764815"
       ry="0.16113529" />
    <circle
       style="fill:#85a335;fill-opacity:0.921569;stroke:none;stroke-width:0.941187"
       id="path84"
       cx="3.6065705"
       cy="6.6867146"
       r="0.11509664"
       transform="scale(-1,1)" />
    <ellipse
       style="fill:#6e9202;fill-opacity:1;stroke:none;stroke-width:0.125419;stroke-dasharray:none"
       id="ellipse99"
       cx="4.9153199"
       cy="3.1361678"
       transform="matrix(-0.92667858,0.37585476,0.26198391,0.96507224,0,0)"
       rx="0.23957808"
       ry="0.39907822" />
  </g>
  <g
     inkscape:label="Layer 1"
     inkscape:groupmode="layer"
     id="g96"
     transform="matrix(-1.0624885,0,0,1.0624885,8.7312013,-0.26453462)">
    <rect
       style="fill:#86a336;fill-opacity:0.919231;stroke:none;stroke-width:0.230408"
       id="rect85"
       width="0.41564205"
       height="1.3581307"
       x="-7.4171257"
       y="10.312443"
       transform="rotate(32.729959)"
       inkscape:transform-center-x="-0.048915539"
       inkscape:transform-center-y="0.48915539" />
    <rect
       style="fill:#86a336;fill-opacity:0.919231;stroke:none;stroke-width:0.230408"
       id="rect86"
       width="0.41564205"
       height="1.3581307"
       x="-13.781262"
       y="-1.1234279"
       transform="rotate(-27.270041)" />
    <rect
       style="fill:#bdca31;fill-opacity:0;stroke:none;stroke-width:0.497953"
       id="rect87"
       width="7.9687138"
       height="7.9687138"
       x="-15.688451"
       y="0.24897645"
       inkscape:export-filename="Daisy_Blue.svg"
       inkscape:export-xdpi="44.636486"
       inkscape:export-ydpi="44.636486" />
    <rect
       style="fill:#86a336;fill-opacity:0.919231;stroke:none;stroke-width:0.230408"
       id="rect88"
       width="0.41564205"
       height="1.3581307"
       x="-12.176473"
       y="6.3561406" />
    <ellipse
       style="fill:#6e9202;fill-opacity:1;stroke:none;stroke-width:0.125419;stroke-dasharray:none"
       id="ellipse88"
       cx="8.3318834"
       cy="9.572113"
       transform="matrix(-0.95246424,-0.3046504,-0.41670083,0.90904368,0,0)"
       rx="0.23957808"
       ry="0.39907822" />
    <ellipse
       style="fill:#6e9202;fill-opacity:1;stroke:none;stroke-width:0.125419;stroke-dasharray:none"
       id="ellipse89"
       cx="13.568445"
       cy="0.16368252"
       transform="matrix(-0.92667858,0.37585476,0.26198391,0.96507224,0,0)"
       rx="0.23957808"
       ry="0.39907822" />
    <path
       style="fill:#6e9202;fill-opacity:1;stroke:none;stroke-width:1"
       d="M 4.7516011,6.9650293 C 4.8453559,6.8671983 5.0192779,6.7313217 5.1456438,6.6049554 5.2720097,6.4785891 5.3508164,6.3617377 5.4241904,6.3617389 5.4975645,6.3617401 5.5655013,6.4785914 5.5424011,6.5995227 5.5193009,6.720454 5.405167,6.8454579 5.295106,6.9364957 5.1850451,7.0275335 5.0790636,7.0846004 4.9690024,7.1199285 4.8589413,7.1552566 4.7448073,7.168844 4.6945332,7.1457444 4.644259,7.1226447 4.6578464,7.0628604 4.7516011,6.9650293 Z"
       id="path89"
       inkscape:path-effect="#path-effect97"
       inkscape:original-d="M 4.6714341,7.0030747 C 4.8453558,6.8671982 5.0192778,6.7313216 5.1931998,6.5954451 5.2720096,6.478589 5.3508163,6.3617376 5.4296248,6.2448839 5.4975646,6.36174 5.5655014,6.4785914 5.6334395,6.5954451 5.5193011,6.7204542 5.405167,6.8454579 5.2910308,6.9704642 5.1850451,7.0275335 5.0790636,7.0846005 4.9730797,7.1416687 4.8589414,7.1552577 4.7448073,7.1688441 4.630671,7.1824317 4.64426,7.1226449 4.6578464,7.0628604 4.6714341,7.0030747 Z"
       transform="matrix(-0.94118667,0,0,0.94118667,-7.7197379,0.24897645)" />
    <path
       style="fill:#6e9202;fill-opacity:1;stroke:none;stroke-width:1"
       d="M 4.1809203,6.8250764 C 4.1061876,6.7095815 3.9078079,6.4894615 3.8113359,6.454135 c -0.096472,-0.035326 -0.091037,0.1141347 -0.044838,0.221478 0.046199,0.1073432 0.1331579,0.1725624 0.205173,0.2133255 0.072015,0.040763 0.1290822,0.057068 0.1820742,0.059785 0.052992,0.00272 0.1019075,-0.00815 0.027175,-0.1236474 z"
       id="path90"
       inkscape:path-effect="#path-effect99"
       inkscape:original-d="M 4.3045673,6.9297015 C 4.1061878,6.7095814 3.9078079,6.4894615 3.7094284,6.2693417 c 0.00543,0.1494671 0.010869,0.2989281 0.016306,0.4483923 0.086963,0.065222 0.1739217,0.1304414 0.2608828,0.1956623 0.057069,0.016306 0.1141362,0.03261 0.1712045,0.048915 0.048916,-0.010869 0.097831,-0.021741 0.1467456,-0.03261 z"
       transform="matrix(-0.94118667,0,0,0.94118667,-7.8731999,0.35639997)" />
    <ellipse
       style="fill:#24a8a8;fill-opacity:1;stroke:none;stroke-width:0.941187"
       id="ellipse90"
       cx="12.480711"
       cy="4.9449191"
       transform="scale(-1,1)"
       rx="0.20717394"
       ry="0.19950083" />
    <ellipse
       style="fill:#24a8a8;fill-opacity:1;stroke:none;stroke-width:0.941187"
       id="ellipse91"
       cx="11.69038"
       cy="5.8656921"
       transform="scale(-1,1)"
       rx="0.18415461"
       ry="0.16880839" />
    <ellipse
       style="fill:#24a8a8;fill-opacity:1;stroke:none;stroke-width:0.941187"
       id="ellipse92"
       cx="11.414148"
       cy="6.5179067"
       transform="scale(-1,1)"
       rx="0.092077307"
       ry="0.084404193" />
    <ellipse
       style="fill:#24a8a8;fill-opacity:1;stroke:none;stroke-width:1.38487"
       id="ellipse93"
       cx="12.839924"
       cy="6.4531169"
       transform="scale(-1,1)"
       rx="0.2145147"
       ry="0.23709519" />
    <ellipse
       style="fill:#e084a8;fill-opacity:1;stroke:none;stroke-width:0.941187"
       id="ellipse94"
       cx="12.595808"
       cy="6.7480993"
       transform="scale(-1,1)"
       rx="0.16880839"
       ry="0.1764815" />
    <ellipse
       style="fill:#e084a8;fill-opacity:1;stroke:none;stroke-width:0.941187"
       id="ellipse95"
       cx="12.726251"
       cy="5.3592672"
       transform="scale(-1,1)"
       rx="0.1764815"
       ry="0.19950083" />
    <ellipse
       style="fill:#e084a8;fill-opacity:1;stroke:none;stroke-width:0.941187"
       id="ellipse96"
       cx="11.958939"
       cy="6.2416744"
       transform="scale(-1,1)"
       rx="0.1764815"
       ry="0.16113529" />
    <circle
       style="fill:#85a335;fill-opacity:0.921569;stroke:none;stroke-width:0.941187"
       id="circle96"
       cx="11.575284"
       cy="6.6867146"
       r="0.11509664"
       transform="scale(-1,1)" />
    <ellipse
       style="fill:#6e9202;fill-opacity:1;stroke:none;stroke-width:0.125419;stroke-dasharray:none"
       id="ellipse100"
       cx="12.599401"
       cy="0.016330361"
       transform="matrix(-0.92667858,0.37585476,0.26198391,0.96507224,0,0)"
       rx="0.23957808"
       ry="0.39907822" />
    <ellipse
       style="fill:#24a8a8;fill-opacity:1;stroke:none;stroke-width:0.941187"
       id="ellipse101"
       cx="11.688558"
       cy="4.3101115"
       transform="scale(-1,1)"
       rx="0.20717394"
       ry="0.19950083" />
    <ellipse
       style="fill:#24a8a8;fill-opacity:1;stroke:none;stroke-width:0.941187"
       id="ellipse102"
       cx="11.547489"
       cy="5.0751362"
       transform="scale(-1,1)"
       rx="0.20717394"
       ry="0.19950083" />
    <ellipse
       style="fill:#e084a8;fill-opacity:1;stroke:none;stroke-width:1.33794"
       id="ellipse103"
       cx="11.509329"
       cy="4.6566381"
       transform="scale(-1,1)"
       rx="0.25087631"
       ry="0.28359929" />
    <ellipse
       style="fill:#e084a8;fill-opacity:1;stroke:none;stroke-width:1.33794"
       id="ellipse104"
       cx="11.704655"
       cy="6.6967039"
       transform="scale(-1,1)"
       rx="0.25087631"
       ry="0.28359929" />
    <ellipse
       style="fill:#24a8a8;fill-opacity:1;stroke:none;stroke-width:1.15876"
       id="ellipse105"
       cx="12.447218"
       cy="5.4088173"
       transform="scale(-1,1)"
       rx="0.25506625"
       ry="0.24561934" />
    <ellipse
       style="fill:#24a8a8;fill-opacity:1;stroke:none;stroke-width:1.15876"
       id="ellipse106"
       cx="12.013162"
       cy="5.9242597"
       transform="scale(-1,1)"
       rx="0.25506625"
       ry="0.24561934" />
    <ellipse
       style="fill:#e084a8;fill-opacity:1;stroke:none;stroke-width:0.941187"
       id="ellipse107"
       cx="12.552628"
       cy="6.4172802"
       transform="scale(-1,1)"
       rx="0.1764815"
       ry="0.19950083" />
  </g>
  <g
     inkscape:label="Layer 1"
     inkscape:groupmode="layer"
     id="g126"
     transform="matrix(-1.0624885,0,0,1.0624885,8.7312013,-0.26453462)">
    <rect
       style="fill:#86a336;fill-opacity:0.919231;stroke:none;stroke-width:0.230408"
       id="rect107"
       width="0.41564205"
       height="1.3581307"
       x="-14.120632"
       y="14.620969"
       transform="rotate(32.729959)"
       inkscape:transform-center-x="-0.048915539"
       inkscape:transform-center-y="0.48915539" />
    <rect
       style="fill:#86a336;fill-opacity:0.919231;stroke:none;stroke-width:0.230408"
       id="rect108"
       width="0.41564205"
       height="1.3581307"
       x="-20.864309"
       y="-4.7745719"
       transform="rotate(-27.270041)" />
    <rect
       style="fill:#bdca31;fill-opacity:0;stroke:none;stroke-width:0.497953"
       id="rect109"
       width="7.9687138"
       height="7.9687138"
       x="-23.657166"
       y="0.24897645"
       inkscape:export-filename="Daisy_Blue.svg"
       inkscape:export-xdpi="44.636486"
       inkscape:export-ydpi="44.636486" />
    <rect
       style="fill:#86a336;fill-opacity:0.919231;stroke:none;stroke-width:0.230408"
       id="rect110"
       width="0.41564205"
       height="1.3581307"
       x="-20.145187"
       y="6.3561406" />
    <ellipse
       style="fill:#6e9202;fill-opacity:1;stroke:none;stroke-width:0.125419;stroke-dasharray:none"
       id="ellipse110"
       cx="15.628476"
       cy="12.017441"
       transform="matrix(-0.95246424,-0.3046504,-0.41670083,0.90904368,0,0)"
       rx="0.23957808"
       ry="0.39907822" />
    <ellipse
       style="fill:#6e9202;fill-opacity:1;stroke:none;stroke-width:0.125419;stroke-dasharray:none"
       id="ellipse111"
       cx="21.31476"
       cy="-2.8531792"
       transform="matrix(-0.92667858,0.37585476,0.26198391,0.96507224,0,0)"
       rx="0.23957808"
       ry="0.39907822" />
    <path
       style="fill:#6e9202;fill-opacity:1;stroke:none;stroke-width:1"
       d="M 4.7516011,6.9650293 C 4.8453559,6.8671983 5.0192779,6.7313217 5.1456438,6.6049554 5.2720097,6.4785891 5.3508164,6.3617377 5.4241904,6.3617389 5.4975645,6.3617401 5.5655013,6.4785914 5.5424011,6.5995227 5.5193009,6.720454 5.405167,6.8454579 5.295106,6.9364957 5.1850451,7.0275335 5.0790636,7.0846004 4.9690024,7.1199285 4.8589413,7.1552566 4.7448073,7.168844 4.6945332,7.1457444 4.644259,7.1226447 4.6578464,7.0628604 4.7516011,6.9650293 Z"
       id="path111"
       inkscape:path-effect="#path-effect127"
       inkscape:original-d="M 4.6714341,7.0030747 C 4.8453558,6.8671982 5.0192778,6.7313216 5.1931998,6.5954451 5.2720096,6.478589 5.3508163,6.3617376 5.4296248,6.2448839 5.4975646,6.36174 5.5655014,6.4785914 5.6334395,6.5954451 5.5193011,6.7204542 5.405167,6.8454579 5.2910308,6.9704642 5.1850451,7.0275335 5.0790636,7.0846005 4.9730797,7.1416687 4.8589414,7.1552577 4.7448073,7.1688441 4.630671,7.1824317 4.64426,7.1226449 4.6578464,7.0628604 4.6714341,7.0030747 Z"
       transform="matrix(-0.94118667,0,0,0.94118667,-15.688452,0.24897645)" />
    <path
       style="fill:#6e9202;fill-opacity:1;stroke:none;stroke-width:1"
       d="M 4.1809203,6.8250764 C 4.1061876,6.7095815 3.9078079,6.4894615 3.8113359,6.454135 c -0.096472,-0.035326 -0.091037,0.1141347 -0.044838,0.221478 0.046199,0.1073432 0.1331579,0.1725624 0.205173,0.2133255 0.072015,0.040763 0.1290822,0.057068 0.1820742,0.059785 0.052992,0.00272 0.1019075,-0.00815 0.027175,-0.1236474 z"
       id="path112"
       inkscape:path-effect="#path-effect129"
       inkscape:original-d="M 4.3045673,6.9297015 C 4.1061878,6.7095814 3.9078079,6.4894615 3.7094284,6.2693417 c 0.00543,0.1494671 0.010869,0.2989281 0.016306,0.4483923 0.086963,0.065222 0.1739217,0.1304414 0.2608828,0.1956623 0.057069,0.016306 0.1141362,0.03261 0.1712045,0.048915 0.048916,-0.010869 0.097831,-0.021741 0.1467456,-0.03261 z"
       transform="matrix(-0.94118667,0,0,0.94118667,-15.841914,0.35639997)" />
    <ellipse
       style="fill:#24a8a8;fill-opacity:1;stroke:none;stroke-width:0.941187"
       id="ellipse112"
       cx="20.449425"
       cy="4.9449191"
       transform="scale(-1,1)"
       rx="0.20717394"
       ry="0.19950083" />
    <ellipse
       style="fill:#24a8a8;fill-opacity:1;stroke:none;stroke-width:0.941187"
       id="ellipse113"
       cx="19.659094"
       cy="5.8656921"
       transform="scale(-1,1)"
       rx="0.18415461"
       ry="0.16880839" />
    <ellipse
       style="fill:#24a8a8;fill-opacity:1;stroke:none;stroke-width:0.941187"
       id="ellipse114"
       cx="19.382862"
       cy="6.5179067"
       transform="scale(-1,1)"
       rx="0.092077307"
       ry="0.084404193" />
    <ellipse
       style="fill:#24a8a8;fill-opacity:1;stroke:none;stroke-width:1.38487"
       id="ellipse115"
       cx="20.808638"
       cy="6.4531169"
       transform="scale(-1,1)"
       rx="0.2145147"
       ry="0.23709519" />
    <ellipse
       style="fill:#e084a8;fill-opacity:1;stroke:none;stroke-width:0.941187"
       id="ellipse116"
       cx="20.564522"
       cy="6.7480993"
       transform="scale(-1,1)"
       rx="0.16880839"
       ry="0.1764815" />
    <ellipse
       style="fill:#e084a8;fill-opacity:1;stroke:none;stroke-width:0.941187"
       id="ellipse117"
       cx="20.694965"
       cy="5.3592672"
       transform="scale(-1,1)"
       rx="0.1764815"
       ry="0.19950083" />
    <ellipse
       style="fill:#e084a8;fill-opacity:1;stroke:none;stroke-width:0.941187"
       id="ellipse118"
       cx="19.927652"
       cy="6.2416744"
       transform="scale(-1,1)"
       rx="0.1764815"
       ry="0.16113529" />
    <circle
       style="fill:#85a335;fill-opacity:0.921569;stroke:none;stroke-width:0.941187"
       id="circle118"
       cx="19.543999"
       cy="6.6867146"
       r="0.11509664"
       transform="scale(-1,1)" />
    <ellipse
       style="fill:#6e9202;fill-opacity:1;stroke:none;stroke-width:0.125419;stroke-dasharray:none"
       id="ellipse119"
       cx="20.345716"
       cy="-3.0005314"
       transform="matrix(-0.92667858,0.37585476,0.26198391,0.96507224,0,0)"
       rx="0.23957808"
       ry="0.39907822" />
    <ellipse
       style="fill:#24a8a8;fill-opacity:1;stroke:none;stroke-width:0.941187"
       id="ellipse120"
       cx="19.657272"
       cy="4.3101115"
       transform="scale(-1,1)"
       rx="0.20717394"
       ry="0.19950083" />
    <ellipse
       style="fill:#24a8a8;fill-opacity:1;stroke:none;stroke-width:0.941187"
       id="ellipse121"
       cx="19.516203"
       cy="5.0751362"
       transform="scale(-1,1)"
       rx="0.20717394"
       ry="0.19950083" />
    <ellipse
       style="fill:#e084a8;fill-opacity:1;stroke:none;stroke-width:1.33794"
       id="ellipse122"
       cx="19.478043"
       cy="4.6566381"
       transform="scale(-1,1)"
       rx="0.25087631"
       ry="0.28359929" />
    <ellipse
       style="fill:#e084a8;fill-opacity:1;stroke:none;stroke-width:1.33794"
       id="ellipse123"
       cx="19.673368"
       cy="6.6967039"
       transform="scale(-1,1)"
       rx="0.25087631"
       ry="0.28359929" />
    <ellipse
       style="fill:#24a8a8;fill-opacity:1;stroke:none;stroke-width:1.15876"
       id="ellipse124"
       cx="20.415932"
       cy="5.4088173"
       transform="scale(-1,1)"
       rx="0.25506625"
       ry="0.24561934" />
    <ellipse
       style="fill:#24a8a8;fill-opacity:1;stroke:none;stroke-width:1.15876"
       id="ellipse125"
       cx="19.981876"
       cy="5.9242597"
       transform="scale(-1,1)"
       rx="0.25506625"
       ry="0.24561934" />
    <ellipse
       style="fill:#9f6093;fill-opacity:1;stroke:none;stroke-width:0.941187"
       id="ellipse126"
       cx="20.521341"
       cy="6.4172802"
       transform="scale(-1,1)"
       rx="0.1764815"
       ry="0.19950083" />
    <circle
       style="fill:#363db6;fill-opacity:0.921569;stroke:none;stroke-width:0.941187"
       id="path129"
       cx="19.749119"
       cy="4.6682153"
       r="0.43676943"
       transform="scale(-1,1)" />
    <circle
       style="fill:#363db6;fill-opacity:0.921569;stroke:none;stroke-width:0.941187"
       id="circle129"
       cx="19.749119"
       cy="4.6682153"
       r="0.43676943"
       transform="scale(-1,1)" />
    <circle
       style="fill:#363db6;fill-opacity:0.921569;stroke:none;stroke-width:0.941187"
       id="circle130"
       cx="20.817984"
       cy="4.9286494"
       r="0.43676943"
       transform="scale(-1,1)" />
    <circle
       style="fill:#363db6;fill-opacity:0.921569;stroke:none;stroke-width:0.941187"
       id="circle131"
       cx="19.759972"
       cy="5.9866624"
       r="0.43676943"
       transform="scale(-1,1)" />
    <circle
       style="fill:#363db6;fill-opacity:0.921569;stroke:none;stroke-width:0.941187"
       id="circle132"
       cx="20.893944"
       cy="6.4478474"
       r="0.43676943"
       transform="scale(-1,1)" />
    <circle
       style="fill:#363db6;fill-opacity:0.921569;stroke:none;stroke-width:0.941187"
       id="circle133"
       cx="19.91189"
       cy="6.9253097"
       r="0.43676943"
       transform="scale(-1,1)" />
    <circle
       style="fill:#363db6;fill-opacity:0.921569;stroke:none;stroke-width:0.941187"
       id="circle134"
       cx="20.242859"
       cy="5.3735576"
       r="0.43676943"
       transform="scale(-1,1)" />
    <circle
       style="fill:#363db6;fill-opacity:0.921569;stroke:none;stroke-width:0.941187"
       id="circle135"
       cx="19.52124"
       cy="5.194509"
       r="0.43676943"
       transform="scale(-1,1)" />
    <circle
       style="fill:#363db6;fill-opacity:0.921569;stroke:none;stroke-width:0.941187"
       id="circle136"
       cx="20.67149"
       cy="5.7370796"
       r="0.43676943"
       transform="scale(-1,1)" />
  </g>
  <g
     inkscape:label="Layer 1 copy"
     inkscape:groupmode="layer"
     id="g163"
     transform="matrix(-1.0624885,0,0,1.0624885,8.7312013,-0.26453462)">
    <ellipse
       style="fill:#24a8a8;fill-opacity:1;stroke:none;stroke-width:0.941187"
       id="ellipse202"
       cx="27.186604"
       cy="4.7876201"
       transform="scale(-1,1)"
       rx="0.20717394"
       ry="0.19950083" />
    <ellipse
       style="fill:#24a8a8;fill-opacity:1;stroke:none;stroke-width:0.941187"
       id="ellipse201"
       cx="28.329897"
       cy="6.130414"
       transform="scale(-1,1)"
       rx="0.20717394"
       ry="0.19950083" />
    <ellipse
       style="fill:#24a8a8;fill-opacity:1;stroke:none;stroke-width:0.941187"
       id="ellipse200"
       cx="29.124063"
       cy="5.8580189"
       transform="scale(-1,1)"
       rx="0.20717394"
       ry="0.19950083" />
    <ellipse
       style="fill:#24a8a8;fill-opacity:1;stroke:none;stroke-width:0.941187"
       id="ellipse199"
       cx="28.218637"
       cy="5.9117308"
       transform="scale(-1,1)"
       rx="0.20717394"
       ry="0.19950083" />
    <rect
       style="fill:#86a336;fill-opacity:0.919231;stroke:none;stroke-width:0.230408"
       id="rect136"
       width="0.41564205"
       height="1.3581307"
       x="-20.824139"
       y="18.929495"
       transform="rotate(32.729959)"
       inkscape:transform-center-x="-0.048915539"
       inkscape:transform-center-y="0.48915539" />
    <rect
       style="fill:#86a336;fill-opacity:0.919231;stroke:none;stroke-width:0.230408"
       id="rect137"
       width="0.41564205"
       height="1.3581307"
       x="-27.947355"
       y="-8.4257154"
       transform="rotate(-27.270041)" />
    <rect
       style="fill:#bdca31;fill-opacity:0;stroke:none;stroke-width:0.497953"
       id="rect138"
       width="7.9687138"
       height="7.9687138"
       x="-31.625879"
       y="0.24897645"
       inkscape:export-filename="Daisy_Blue.svg"
       inkscape:export-xdpi="44.636486"
       inkscape:export-ydpi="44.636486" />
    <rect
       style="fill:#86a336;fill-opacity:0.919231;stroke:none;stroke-width:0.230408"
       id="rect139"
       width="0.41564205"
       height="1.3581307"
       x="-28.113901"
       y="6.3561406" />
    <ellipse
       style="fill:#6e9202;fill-opacity:1;stroke:none;stroke-width:0.125419;stroke-dasharray:none"
       id="ellipse139"
       cx="22.925068"
       cy="14.462769"
       transform="matrix(-0.95246424,-0.3046504,-0.41670083,0.90904368,0,0)"
       rx="0.23957808"
       ry="0.39907822" />
    <ellipse
       style="fill:#6e9202;fill-opacity:1;stroke:none;stroke-width:0.125419;stroke-dasharray:none"
       id="ellipse140"
       cx="29.061075"
       cy="-5.8700404"
       transform="matrix(-0.92667858,0.37585476,0.26198391,0.96507224,0,0)"
       rx="0.23957808"
       ry="0.39907822" />
    <path
       style="fill:#6e9202;fill-opacity:1;stroke:none;stroke-width:1"
       d="M 4.7516011,6.9650293 C 4.8453559,6.8671983 5.0192779,6.7313217 5.1456438,6.6049554 5.2720097,6.4785891 5.3508164,6.3617377 5.4241904,6.3617389 5.4975645,6.3617401 5.5655013,6.4785914 5.5424011,6.5995227 5.5193009,6.720454 5.405167,6.8454579 5.295106,6.9364957 5.1850451,7.0275335 5.0790636,7.0846004 4.9690024,7.1199285 4.8589413,7.1552566 4.7448073,7.168844 4.6945332,7.1457444 4.644259,7.1226447 4.6578464,7.0628604 4.7516011,6.9650293 Z"
       id="path140"
       inkscape:path-effect="#path-effect164"
       inkscape:original-d="M 4.6714341,7.0030747 C 4.8453558,6.8671982 5.0192778,6.7313216 5.1931998,6.5954451 5.2720096,6.478589 5.3508163,6.3617376 5.4296248,6.2448839 5.4975646,6.36174 5.5655014,6.4785914 5.6334395,6.5954451 5.5193011,6.7204542 5.405167,6.8454579 5.2910308,6.9704642 5.1850451,7.0275335 5.0790636,7.0846005 4.9730797,7.1416687 4.8589414,7.1552577 4.7448073,7.1688441 4.630671,7.1824317 4.64426,7.1226449 4.6578464,7.0628604 4.6714341,7.0030747 Z"
       transform="matrix(-0.94118667,0,0,0.94118667,-23.657165,0.24897645)" />
    <path
       style="fill:#6e9202;fill-opacity:1;stroke:none;stroke-width:1"
       d="M 4.1809203,6.8250764 C 4.1061876,6.7095815 3.9078079,6.4894615 3.8113359,6.454135 c -0.096472,-0.035326 -0.091037,0.1141347 -0.044838,0.221478 0.046199,0.1073432 0.1331579,0.1725624 0.205173,0.2133255 0.072015,0.040763 0.1290822,0.057068 0.1820742,0.059785 0.052992,0.00272 0.1019075,-0.00815 0.027175,-0.1236474 z"
       id="path141"
       inkscape:path-effect="#path-effect166"
       inkscape:original-d="M 4.3045673,6.9297015 C 4.1061878,6.7095814 3.9078079,6.4894615 3.7094284,6.2693417 c 0.00543,0.1494671 0.010869,0.2989281 0.016306,0.4483923 0.086963,0.065222 0.1739217,0.1304414 0.2608828,0.1956623 0.057069,0.016306 0.1141362,0.03261 0.1712045,0.048915 0.048916,-0.010869 0.097831,-0.021741 0.1467456,-0.03261 z"
       transform="matrix(-0.94118667,0,0,0.94118667,-23.810627,0.35639997)" />
    <ellipse
       style="fill:#24a8a8;fill-opacity:1;stroke:none;stroke-width:0.941187"
       id="ellipse141"
       cx="28.418139"
       cy="4.9449191"
       transform="scale(-1,1)"
       rx="0.20717394"
       ry="0.19950083" />
    <ellipse
       style="fill:#24a8a8;fill-opacity:1;stroke:none;stroke-width:0.941187"
       id="ellipse142"
       cx="27.627808"
       cy="5.8656921"
       transform="scale(-1,1)"
       rx="0.18415461"
       ry="0.16880839" />
    <ellipse
       style="fill:#24a8a8;fill-opacity:1;stroke:none;stroke-width:0.941187"
       id="ellipse143"
       cx="27.351576"
       cy="6.5179067"
       transform="scale(-1,1)"
       rx="0.092077307"
       ry="0.084404193" />
    <ellipse
       style="fill:#24a8a8;fill-opacity:1;stroke:none;stroke-width:1.38487"
       id="ellipse144"
       cx="28.777351"
       cy="6.4531169"
       transform="scale(-1,1)"
       rx="0.2145147"
       ry="0.23709519" />
    <ellipse
       style="fill:#e084a8;fill-opacity:1;stroke:none;stroke-width:0.941187"
       id="ellipse145"
       cx="28.533236"
       cy="6.7480993"
       transform="scale(-1,1)"
       rx="0.16880839"
       ry="0.1764815" />
    <ellipse
       style="fill:#e084a8;fill-opacity:1;stroke:none;stroke-width:0.941187"
       id="ellipse146"
       cx="28.663679"
       cy="5.3592672"
       transform="scale(-1,1)"
       rx="0.1764815"
       ry="0.19950083" />
    <ellipse
       style="fill:#e084a8;fill-opacity:1;stroke:none;stroke-width:0.941187"
       id="ellipse147"
       cx="27.896366"
       cy="6.2416744"
       transform="scale(-1,1)"
       rx="0.1764815"
       ry="0.16113529" />
    <circle
       style="fill:#85a335;fill-opacity:0.921569;stroke:none;stroke-width:0.941187"
       id="circle147"
       cx="27.512712"
       cy="6.6867146"
       r="0.11509664"
       transform="scale(-1,1)" />
    <ellipse
       style="fill:#6e9202;fill-opacity:1;stroke:none;stroke-width:0.125419;stroke-dasharray:none"
       id="ellipse148"
       cx="28.092031"
       cy="-6.0173926"
       transform="matrix(-0.92667858,0.37585476,0.26198391,0.96507224,0,0)"
       rx="0.23957808"
       ry="0.39907822" />
    <ellipse
       style="fill:#24a8a8;fill-opacity:1;stroke:none;stroke-width:0.941187"
       id="ellipse149"
       cx="27.625986"
       cy="4.3101115"
       transform="scale(-1,1)"
       rx="0.20717394"
       ry="0.19950083" />
    <ellipse
       style="fill:#24a8a8;fill-opacity:1;stroke:none;stroke-width:0.941187"
       id="ellipse150"
       cx="27.484917"
       cy="5.0751362"
       transform="scale(-1,1)"
       rx="0.20717394"
       ry="0.19950083" />
    <ellipse
       style="fill:#e084a8;fill-opacity:1;stroke:none;stroke-width:1.33794"
       id="ellipse151"
       cx="27.446756"
       cy="4.6566381"
       transform="scale(-1,1)"
       rx="0.25087631"
       ry="0.28359929" />
    <ellipse
       style="fill:#e084a8;fill-opacity:1;stroke:none;stroke-width:1.33794"
       id="ellipse152"
       cx="27.642082"
       cy="6.6967039"
       transform="scale(-1,1)"
       rx="0.25087631"
       ry="0.28359929" />
    <ellipse
       style="fill:#24a8a8;fill-opacity:1;stroke:none;stroke-width:1.15876"
       id="ellipse153"
       cx="28.384645"
       cy="5.4088173"
       transform="scale(-1,1)"
       rx="0.25506625"
       ry="0.24561934" />
    <ellipse
       style="fill:#24a8a8;fill-opacity:1;stroke:none;stroke-width:1.15876"
       id="ellipse154"
       cx="27.95059"
       cy="5.9242597"
       transform="scale(-1,1)"
       rx="0.25506625"
       ry="0.24561934" />
    <ellipse
       style="fill:#9f6093;fill-opacity:1;stroke:none;stroke-width:0.941187"
       id="ellipse155"
       cx="28.490055"
       cy="6.4172802"
       transform="scale(-1,1)"
       rx="0.1764815"
       ry="0.19950083" />
    <circle
       style="fill:#363db6;fill-opacity:0.921569;stroke:none;stroke-width:0.941187"
       id="circle155"
       cx="27.717833"
       cy="4.6682153"
       r="0.43676943"
       transform="scale(-1,1)" />
    <circle
       style="fill:#363db6;fill-opacity:0.921569;stroke:none;stroke-width:0.941187"
       id="circle156"
       cx="27.717833"
       cy="4.6682153"
       r="0.43676943"
       transform="scale(-1,1)" />
    <circle
       style="fill:#363db6;fill-opacity:0.921569;stroke:none;stroke-width:0.941187"
       id="circle157"
       cx="28.786697"
       cy="4.9286494"
       r="0.43676943"
       transform="scale(-1,1)" />
    <circle
       style="fill:#363db6;fill-opacity:0.921569;stroke:none;stroke-width:0.941187"
       id="circle158"
       cx="27.728685"
       cy="5.9866624"
       r="0.43676943"
       transform="scale(-1,1)" />
    <circle
       style="fill:#363db6;fill-opacity:0.921569;stroke:none;stroke-width:0.941187"
       id="circle159"
       cx="28.862658"
       cy="6.4478474"
       r="0.43676943"
       transform="scale(-1,1)" />
    <circle
       style="fill:#363db6;fill-opacity:0.921569;stroke:none;stroke-width:0.941187"
       id="circle160"
       cx="27.880604"
       cy="6.9253097"
       r="0.43676943"
       transform="scale(-1,1)" />
    <circle
       style="fill:#363db6;fill-opacity:0.921569;stroke:none;stroke-width:0.941187"
       id="circle161"
       cx="28.211573"
       cy="5.3735576"
       r="0.43676943"
       transform="scale(-1,1)" />
    <circle
       style="fill:#363db6;fill-opacity:0.921569;stroke:none;stroke-width:0.941187"
       id="circle162"
       cx="27.489954"
       cy="5.194509"
       r="0.43676943"
       transform="scale(-1,1)" />
    <circle
       style="fill:#363db6;fill-opacity:0.921569;stroke:none;stroke-width:0.941187"
       id="circle163"
       cx="28.640203"
       cy="5.7370796"
       r="0.43676943"
       transform="scale(-1,1)" />
    <circle
       style="fill:#363db6;fill-opacity:0.921569;stroke:none;stroke-width:0.941187"
       id="circle196"
       cx="26.998875"
       cy="5.746973"
       r="0.43676943"
       transform="scale(-1,1)" />
    <circle
       style="fill:#363db6;fill-opacity:0.921569;stroke:none;stroke-width:0.941187"
       id="circle197"
       cx="27.25976"
       cy="6.08459"
       r="0.43676943"
       transform="scale(-1,1)" />
    <circle
       style="fill:#363db6;fill-opacity:0.921569;stroke:none;stroke-width:0.941187"
       id="circle198"
       cx="27.075605"
       cy="6.6217074"
       r="0.43676943"
       transform="scale(-1,1)" />
    <circle
       style="fill:#363db6;fill-opacity:0.921569;stroke:none;stroke-width:0.941187"
       id="circle199"
       cx="29.362192"
       cy="5.4400487"
       r="0.43676943"
       transform="scale(-1,1)" />
  </g>
</svg>
