<?xml version="1.0" encoding="UTF-8" standalone="no"?>
<!-- Created with Inkscape (http://www.inkscape.org/) -->

<svg
   width="64.000008"
   height="64.000008"
   viewBox="0 0 16.933335 16.933335"
   version="1.1"
   id="svg1"
   xmlns="http://www.w3.org/2000/svg"
   xmlns:svg="http://www.w3.org/2000/svg">
  <defs
     id="defs1" />
  <g
     id="g32"
     transform="translate(-8.478902,-11.801772)">
    <rect
       style="fill:none;fill-opacity:0.921569;stroke:none;stroke-width:4.36359"
       id="rect225"
       width="15.937428"
       height="15.937428"
       x="7.7312517"
       y="11.356647"
       transform="matrix(1.0624885,0,0,1.0624885,0.26453492,-0.26453461)" />
  </g>
  <g
     id="g201"
     transform="matrix(-1.0624885,0,0,1.0624885,17.185633,-12.066307)">
    <g
       id="g705"
       transform="matrix(1.271616,0,0,1.271616,-0.16645501,3.7944022)">
      <path
         style="fill:#86a336;fill-opacity:1;stroke:none;stroke-width:0.282356;stroke-dasharray:none"
         d="M 8.3110749,13.473098 C 7.9582931,13.312271 7.3253612,13.084001 6.8584418,13.026934 6.3915225,12.969867 6.0906264,13.084 5.9816791,13.426412 c -0.1089473,0.342411 -0.025941,0.913076 0.2957187,1.239919 0.32166,0.326842 0.8819477,0.409848 1.3333045,0.332026 C 8.0620591,14.920535 8.4044581,14.681893 8.586037,14.458809 8.767616,14.235724 8.7883676,14.02821 8.7624283,13.87776 8.736489,13.727309 8.6638567,13.633925 8.3110749,13.473098 Z"
         id="path701"
         transform="matrix(-0.81368177,0,0,0.81368177,11.85808,0.30057047)" />
      <path
         style="fill:#86a336;fill-opacity:1;stroke:none;stroke-width:0.282356;stroke-dasharray:none"
         d="M 8.3110749,13.473098 C 7.9582931,13.312271 7.3253612,13.084001 6.8584418,13.026934 6.3915225,12.969867 6.0906264,13.084 5.9816791,13.426412 c -0.1089473,0.342411 -0.025941,0.913076 0.2957187,1.239919 0.32166,0.326842 0.8819477,0.409848 1.3333045,0.332026 C 8.0620591,14.920535 8.4044581,14.681893 8.586037,14.458809 8.767616,14.235724 8.7883676,14.02821 8.7624283,13.87776 8.736489,13.727309 8.6638567,13.633925 8.3110749,13.473098 Z"
         id="path697"
         transform="matrix(-0.81368177,0,0,0.81368177,13.255757,2.193488)" />
      <path
         style="fill:#86a336;fill-opacity:1;stroke:none;stroke-width:0.282356;stroke-dasharray:none"
         d="M 8.3110749,13.473098 C 7.9582931,13.312271 7.3253612,13.084001 6.8584418,13.026934 6.3915225,12.969867 6.0906264,13.084 5.9816791,13.426412 c -0.1089473,0.342411 -0.025941,0.913076 0.2957187,1.239919 0.32166,0.326842 0.8819477,0.409848 1.3333045,0.332026 C 8.0620591,14.920535 8.4044581,14.681893 8.586037,14.458809 8.767616,14.235724 8.7883676,14.02821 8.7624283,13.87776 8.736489,13.727309 8.6638567,13.633925 8.3110749,13.473098 Z"
         id="path689"
         transform="translate(-3.5816391,-0.36312033)" />
      <path
         style="fill:#86a336;fill-opacity:1;stroke:none;stroke-width:0.282356;stroke-dasharray:none"
         d="M 8.3110749,13.473098 C 7.9582931,13.312271 7.3253612,13.084001 6.8584418,13.026934 6.3915225,12.969867 6.0906264,13.084 5.9816791,13.426412 c -0.1089473,0.342411 -0.025941,0.913076 0.2957187,1.239919 0.32166,0.326842 0.8819477,0.409848 1.3333045,0.332026 C 8.0620591,14.920535 8.4044581,14.681893 8.586037,14.458809 8.767616,14.235724 8.7883676,14.02821 8.7624283,13.87776 8.736489,13.727309 8.6638567,13.633925 8.3110749,13.473098 Z"
         id="path684"
         transform="translate(-3.9998418,-2.6522299)" />
      <path
         style="fill:#86a336;fill-opacity:1;stroke:none;stroke-width:0.282356;stroke-dasharray:none"
         d="M 8.3110749,13.473098 C 7.9582931,13.312271 7.3253612,13.084001 6.8584418,13.026934 6.3915225,12.969867 6.0906264,13.084 5.9816791,13.426412 c -0.1089473,0.342411 -0.025941,0.913076 0.2957187,1.239919 0.32166,0.326842 0.8819477,0.409848 1.3333045,0.332026 C 8.0620591,14.920535 8.4044581,14.681893 8.586037,14.458809 8.767616,14.235724 8.7883676,14.02821 8.7624283,13.87776 8.736489,13.727309 8.6638567,13.633925 8.3110749,13.473098 Z"
         id="path680"
         transform="matrix(-1,0,0,1,13.448358,-3.246518)" />
      <path
         style="fill:#86a336;fill-opacity:1;stroke:none;stroke-width:0.282356;stroke-dasharray:none"
         d="M 8.3110749,13.473098 C 7.9582931,13.312271 7.3253612,13.084001 6.8584418,13.026934 6.3915225,12.969867 6.0906264,13.084 5.9816791,13.426412 c -0.1089473,0.342411 -0.025941,0.913076 0.2957187,1.239919 0.32166,0.326842 0.8819477,0.409848 1.3333045,0.332026 C 8.0620591,14.920535 8.4044581,14.681893 8.586037,14.458809 8.767616,14.235724 8.7883676,14.02821 8.7624283,13.87776 8.736489,13.727309 8.6638567,13.633925 8.3110749,13.473098 Z"
         id="path417"
         transform="translate(-1.8758123,-1.1444992)" />
      <path
         style="fill:#86a336;fill-opacity:1;stroke:none;stroke-width:0.282356;stroke-dasharray:none"
         d="m 9.3019758,12.943925 c -0.00519,-0.06744 -0.015564,-0.20233 0.1504543,-0.415039 0.1660184,-0.21271 0.5084171,-0.50323 1.0116559,-0.627741 0.50324,-0.12451 1.167286,-0.08301 1.67571,0.166019 0.508424,0.249027 0.861198,0.705558 0.881947,1.01165 0.02075,0.306091 -0.290523,0.461727 -0.674437,0.55511 -0.383914,0.09338 -0.840445,0.124509 -1.307367,0.08819 -0.466921,-0.03632 -0.944205,-0.140075 -1.219167,-0.22827 -0.274962,-0.0882 -0.3475939,-0.160828 -0.3994738,-0.238648 -0.05188,-0.07782 -0.083007,-0.160826 -0.098571,-0.20233 -0.015564,-0.0415 -0.015564,-0.0415 -0.020752,-0.108943 z"
         id="path420"
         transform="translate(-0.79772477)" />
      <g
         id="g479">
        <path
           style="fill:#ffec8c;fill-opacity:1;stroke:none;stroke-width:0.282356;stroke-dasharray:none"
           d="m 8.3834905,12.485074 c 0.031182,-0.02384 0.093545,-0.07153 0.2146063,-0.09721 0.1210608,-0.02568 0.3008096,-0.02934 0.4126974,0.01468 0.1118878,0.04402 0.1559098,0.135734 0.064197,0.214605 -0.091713,0.07887 -0.3191531,0.144903 -0.4750629,0.165079 -0.1559097,0.02017 -0.2402824,-0.0055 -0.2806353,-0.04402 -0.040353,-0.03852 -0.036685,-0.08988 -0.023845,-0.13023 0.01284,-0.04035 0.034852,-0.0697 0.045856,-0.08437 0.011004,-0.01467 0.011005,-0.01468 0.042187,-0.03852 z"
           id="path421"
           transform="matrix(1.4238115,0,0,1.4238115,-3.7019818,-5.3678695)" />
        <path
           style="fill:#ffec8c;fill-opacity:1;stroke:none;stroke-width:0.282356;stroke-dasharray:none"
           d="m 8.4678654,12.745535 c 0.049524,0.01651 0.1485705,0.04952 0.199929,0.130232 0.051358,0.08071 0.055026,0.209101 0.0055,0.278802 -0.049525,0.0697 -0.1522391,0.08071 -0.2512889,0.0587 -0.09905,-0.02201 -0.1944261,-0.07704 -0.254956,-0.143069 -0.06053,-0.06603 -0.086208,-0.143067 -0.071532,-0.21277 0.014676,-0.0697 0.069699,-0.132062 0.1247235,-0.159575 0.055025,-0.02751 0.1100544,-0.02018 0.1430725,-0.0092 0.033018,0.01101 0.044021,0.02568 0.049523,0.03301 0.0055,0.0073 0.0055,0.0073 0.055028,0.02384 z"
           id="path422"
           transform="matrix(1.4238115,0,0,1.4238115,-3.7019818,-5.3678695)" />
        <path
           style="fill:#ffec8c;fill-opacity:1;stroke:none;stroke-width:0.282356;stroke-dasharray:none"
           d="m 7.9102607,12.793223 c 0.031181,0.02018 0.093548,0.06053 0.1008832,0.137569 0.00734,0.07704 -0.040353,0.190757 -0.1320655,0.238446 -0.091712,0.04769 -0.2274416,0.02935 -0.2953083,-0.04219 -0.067867,-0.07154 -0.067867,-0.196261 -0.034849,-0.275133 0.033017,-0.07887 0.099046,-0.111888 0.1467362,-0.128396 0.047691,-0.01651 0.077038,-0.01651 0.1045515,-0.0055 0.027514,0.01101 0.053192,0.03302 0.066032,0.04402 0.012839,0.01101 0.012839,0.01101 0.044021,0.03119 z"
           id="path423"
           transform="matrix(1.4238115,0,0,1.4238115,-3.7019818,-5.3678695)" />
        <path
           style="fill:#ffec8c;fill-opacity:1;stroke:none;stroke-width:0.282356;stroke-dasharray:none"
           d="m 7.9102607,12.793223 c 0.031181,0.02018 0.093548,0.06053 0.1008832,0.137569 0.00734,0.07704 -0.040353,0.190757 -0.1320655,0.238446 -0.091712,0.04769 -0.2274416,0.02935 -0.2953083,-0.04219 -0.067867,-0.07154 -0.067867,-0.196261 -0.034849,-0.275133 0.033017,-0.07887 0.099046,-0.111888 0.1467362,-0.128396 0.047691,-0.01651 0.077038,-0.01651 0.1045515,-0.0055 0.027514,0.01101 0.053192,0.03302 0.066032,0.04402 0.012839,0.01101 0.012839,0.01101 0.044021,0.03119 z"
           id="path424"
           transform="matrix(1.4238115,0,0,1.4238115,-3.2632352,-5.7282685)" />
        <path
           style="fill:#ffec8c;fill-opacity:1;stroke:none;stroke-width:0.282356;stroke-dasharray:none"
           d="m 7.9102607,12.793223 c 0.031181,0.02018 0.093548,0.06053 0.1008832,0.137569 0.00734,0.07704 -0.040353,0.190757 -0.1320655,0.238446 -0.091712,0.04769 -0.2274416,0.02935 -0.2953083,-0.04219 -0.067867,-0.07154 -0.067867,-0.196261 -0.034849,-0.275133 0.033017,-0.07887 0.099046,-0.111888 0.1467362,-0.128396 0.047691,-0.01651 0.077038,-0.01651 0.1045515,-0.0055 0.027514,0.01101 0.053192,0.03302 0.066032,0.04402 0.012839,0.01101 0.012839,0.01101 0.044021,0.03119 z"
           id="path425"
           transform="matrix(1.4238115,0,0,1.4238115,-3.1848876,-5.2425133)" />
        <path
           style="fill:#ffec8c;fill-opacity:1;stroke:none;stroke-width:0.282356;stroke-dasharray:none"
           d="m 7.9102607,12.793223 c 0.031181,0.02018 0.093548,0.06053 0.1008832,0.137569 0.00734,0.07704 -0.040353,0.190757 -0.1320655,0.238446 -0.091712,0.04769 -0.2274416,0.02935 -0.2953083,-0.04219 -0.067867,-0.07154 -0.067867,-0.196261 -0.034849,-0.275133 0.033017,-0.07887 0.099046,-0.111888 0.1467362,-0.128396 0.047691,-0.01651 0.077038,-0.01651 0.1045515,-0.0055 0.027514,0.01101 0.053192,0.03302 0.066032,0.04402 0.012839,0.01101 0.012839,0.01101 0.044021,0.03119 z"
           id="path428"
           transform="matrix(1.4238115,0,0,1.4238115,-3.7803294,-6.0729979)" />
        <path
           style="fill:#ffec8c;fill-opacity:1;stroke:none;stroke-width:0.282356;stroke-dasharray:none"
           d="m 7.9102607,12.793223 c 0.031181,0.02018 0.093548,0.06053 0.1008832,0.137569 0.00734,0.07704 -0.040353,0.190757 -0.1320655,0.238446 -0.091712,0.04769 -0.2274416,0.02935 -0.2953083,-0.04219 -0.067867,-0.07154 -0.067867,-0.196261 -0.034849,-0.275133 0.033017,-0.07887 0.099046,-0.111888 0.1467362,-0.128396 0.047691,-0.01651 0.077038,-0.01651 0.1045515,-0.0055 0.027514,0.01101 0.053192,0.03302 0.066032,0.04402 0.012839,0.01101 0.012839,0.01101 0.044021,0.03119 z"
           id="path432"
           transform="matrix(1.4238115,0,0,1.4238115,-2.8088191,-6.2767017)" />
        <path
           style="fill:#ffec8c;fill-opacity:1;stroke:none;stroke-width:0.282356;stroke-dasharray:none"
           d="m 7.9102607,12.793223 c 0.031181,0.02018 0.093548,0.06053 0.1008832,0.137569 0.00734,0.07704 -0.040353,0.190757 -0.1320655,0.238446 -0.091712,0.04769 -0.2274416,0.02935 -0.2953083,-0.04219 -0.067867,-0.07154 -0.067867,-0.196261 -0.034849,-0.275133 0.033017,-0.07887 0.099046,-0.111888 0.1467362,-0.128396 0.047691,-0.01651 0.077038,-0.01651 0.1045515,-0.0055 0.027514,0.01101 0.053192,0.03302 0.066032,0.04402 0.012839,0.01101 0.012839,0.01101 0.044021,0.03119 z"
           id="path436"
           transform="matrix(1.4238115,0,0,1.4238115,-3.3415828,-6.4020579)" />
        <path
           style="fill:#ffec8c;fill-opacity:1;stroke:none;stroke-width:0.282356;stroke-dasharray:none"
           d="m 7.9102607,12.793223 c 0.031181,0.02018 0.093548,0.06053 0.1008832,0.137569 0.00734,0.07704 -0.040353,0.190757 -0.1320655,0.238446 -0.091712,0.04769 -0.2274416,0.02935 -0.2953083,-0.04219 -0.067867,-0.07154 -0.067867,-0.196261 -0.034849,-0.275133 0.033017,-0.07887 0.099046,-0.111888 0.1467362,-0.128396 0.047691,-0.01651 0.077038,-0.01651 0.1045515,-0.0055 0.027514,0.01101 0.053192,0.03302 0.066032,0.04402 0.012839,0.01101 0.012839,0.01101 0.044021,0.03119 z"
           id="path440"
           transform="matrix(1.4238115,0,0,1.4238115,-4.1407284,-5.712599)" />
        <path
           style="fill:#ffec8c;fill-opacity:1;stroke:none;stroke-width:0.282356;stroke-dasharray:none"
           d="m 7.9102607,12.793223 c 0.031181,0.02018 0.093548,0.06053 0.1008832,0.137569 0.00734,0.07704 -0.040353,0.190757 -0.1320655,0.238446 -0.091712,0.04769 -0.2274416,0.02935 -0.2953083,-0.04219 -0.067867,-0.07154 -0.067867,-0.196261 -0.034849,-0.275133 0.033017,-0.07887 0.099046,-0.111888 0.1467362,-0.128396 0.047691,-0.01651 0.077038,-0.01651 0.1045515,-0.0055 0.027514,0.01101 0.053192,0.03302 0.066032,0.04402 0.012839,0.01101 0.012839,0.01101 0.044021,0.03119 z"
           id="path444"
           transform="matrix(1.4238115,0,0,1.4238115,-4.3444322,-5.3051914)" />
        <path
           style="fill:#ffec8c;fill-opacity:1;stroke:none;stroke-width:0.282356;stroke-dasharray:none"
           d="m 7.9102607,12.793223 c 0.031181,0.02018 0.093548,0.06053 0.1008832,0.137569 0.00734,0.07704 -0.040353,0.190757 -0.1320655,0.238446 -0.091712,0.04769 -0.2274416,0.02935 -0.2953083,-0.04219 -0.067867,-0.07154 -0.067867,-0.196261 -0.034849,-0.275133 0.033017,-0.07887 0.099046,-0.111888 0.1467362,-0.128396 0.047691,-0.01651 0.077038,-0.01651 0.1045515,-0.0055 0.027514,0.01101 0.053192,0.03302 0.066032,0.04402 0.012839,0.01101 0.012839,0.01101 0.044021,0.03119 z"
           id="path448"
           transform="matrix(1.4238115,0,0,1.4238115,-3.6549732,-4.8351058)" />
        <path
           style="fill:#ffec8c;fill-opacity:1;stroke:none;stroke-width:0.282356;stroke-dasharray:none"
           d="m 7.9102607,12.793223 c 0.031181,0.02018 0.093548,0.06053 0.1008832,0.137569 0.00734,0.07704 -0.040353,0.190757 -0.1320655,0.238446 -0.091712,0.04769 -0.2274416,0.02935 -0.2953083,-0.04219 -0.067867,-0.07154 -0.067867,-0.196261 -0.034849,-0.275133 0.033017,-0.07887 0.099046,-0.111888 0.1467362,-0.128396 0.047691,-0.01651 0.077038,-0.01651 0.1045515,-0.0055 0.027514,0.01101 0.053192,0.03302 0.066032,0.04402 0.012839,0.01101 0.012839,0.01101 0.044021,0.03119 z"
           id="path452"
           transform="matrix(1.4238115,0,0,1.4238115,-2.8558276,-4.7567582)" />
        <path
           style="fill:#ffec8c;fill-opacity:1;stroke:none;stroke-width:0.282356;stroke-dasharray:none"
           d="m 7.9102607,12.793223 c 0.031181,0.02018 0.093548,0.06053 0.1008832,0.137569 0.00734,0.07704 -0.040353,0.190757 -0.1320655,0.238446 -0.091712,0.04769 -0.2274416,0.02935 -0.2953083,-0.04219 -0.067867,-0.07154 -0.067867,-0.196261 -0.034849,-0.275133 0.033017,-0.07887 0.099046,-0.111888 0.1467362,-0.128396 0.047691,-0.01651 0.077038,-0.01651 0.1045515,-0.0055 0.027514,0.01101 0.053192,0.03302 0.066032,0.04402 0.012839,0.01101 0.012839,0.01101 0.044021,0.03119 z"
           id="path456"
           transform="matrix(1.4238115,0,0,1.4238115,-2.1820381,-5.5715733)" />
        <path
           style="fill:#ffec8c;fill-opacity:1;stroke:none;stroke-width:0.282356;stroke-dasharray:none"
           d="m 7.9102607,12.793223 c 0.031181,0.02018 0.093548,0.06053 0.1008832,0.137569 0.00734,0.07704 -0.040353,0.190757 -0.1320655,0.238446 -0.091712,0.04769 -0.2274416,0.02935 -0.2953083,-0.04219 -0.067867,-0.07154 -0.067867,-0.196261 -0.034849,-0.275133 0.033017,-0.07887 0.099046,-0.111888 0.1467362,-0.128396 0.047691,-0.01651 0.077038,-0.01651 0.1045515,-0.0055 0.027514,0.01101 0.053192,0.03302 0.066032,0.04402 0.012839,0.01101 0.012839,0.01101 0.044021,0.03119 z"
           id="path460"
           transform="matrix(1.4238115,0,0,1.4238115,-2.3387333,-4.991801)" />
        <path
           style="fill:#ffec8c;fill-opacity:1;stroke:none;stroke-width:0.282356;stroke-dasharray:none"
           d="m 7.9102607,12.793223 c 0.031181,0.02018 0.093548,0.06053 0.1008832,0.137569 0.00734,0.07704 -0.040353,0.190757 -0.1320655,0.238446 -0.091712,0.04769 -0.2274416,0.02935 -0.2953083,-0.04219 -0.067867,-0.07154 -0.067867,-0.196261 -0.034849,-0.275133 0.033017,-0.07887 0.099046,-0.111888 0.1467362,-0.128396 0.047691,-0.01651 0.077038,-0.01651 0.1045515,-0.0055 0.027514,0.01101 0.053192,0.03302 0.066032,0.04402 0.012839,0.01101 0.012839,0.01101 0.044021,0.03119 z"
           id="path464"
           transform="matrix(1.4238115,0,0,1.4238115,-4.250415,-6.4333969)" />
        <path
           style="fill:#ffec8c;fill-opacity:1;stroke:none;stroke-width:0.282356;stroke-dasharray:none"
           d="m 7.9102607,12.793223 c 0.031181,0.02018 0.093548,0.06053 0.1008832,0.137569 0.00734,0.07704 -0.040353,0.190757 -0.1320655,0.238446 -0.091712,0.04769 -0.2274416,0.02935 -0.2953083,-0.04219 -0.067867,-0.07154 -0.067867,-0.196261 -0.034849,-0.275133 0.033017,-0.07887 0.099046,-0.111888 0.1467362,-0.128396 0.047691,-0.01651 0.077038,-0.01651 0.1045515,-0.0055 0.027514,0.01101 0.053192,0.03302 0.066032,0.04402 0.012839,0.01101 0.012839,0.01101 0.044021,0.03119 z"
           id="path467"
           transform="matrix(1.4238115,0,0,1.4238115,-4.4227797,-6.1826846)" />
        <path
           style="fill:#ffec8c;fill-opacity:1;stroke:none;stroke-width:0.282356;stroke-dasharray:none"
           d="m 7.9102607,12.793223 c 0.031181,0.02018 0.093548,0.06053 0.1008832,0.137569 0.00734,0.07704 -0.040353,0.190757 -0.1320655,0.238446 -0.091712,0.04769 -0.2274416,0.02935 -0.2953083,-0.04219 -0.067867,-0.07154 -0.067867,-0.196261 -0.034849,-0.275133 0.033017,-0.07887 0.099046,-0.111888 0.1467362,-0.128396 0.047691,-0.01651 0.077038,-0.01651 0.1045515,-0.0055 0.027514,0.01101 0.053192,0.03302 0.066032,0.04402 0.012839,0.01101 0.012839,0.01101 0.044021,0.03119 z"
           id="path469"
           transform="matrix(1.4238115,0,0,1.4238115,-3.7333207,-6.6527702)" />
        <path
           style="fill:#ffec8c;fill-opacity:1;stroke:none;stroke-width:0.282356;stroke-dasharray:none"
           d="m 7.9102607,12.793223 c 0.031181,0.02018 0.093548,0.06053 0.1008832,0.137569 0.00734,0.07704 -0.040353,0.190757 -0.1320655,0.238446 -0.091712,0.04769 -0.2274416,0.02935 -0.2953083,-0.04219 -0.067867,-0.07154 -0.067867,-0.196261 -0.034849,-0.275133 0.033017,-0.07887 0.099046,-0.111888 0.1467362,-0.128396 0.047691,-0.01651 0.077038,-0.01651 0.1045515,-0.0055 0.027514,0.01101 0.053192,0.03302 0.066032,0.04402 0.012839,0.01101 0.012839,0.01101 0.044021,0.03119 z"
           id="path471"
           transform="matrix(1.4238115,0,0,1.4238115,-2.9655142,-6.7624569)" />
        <path
           style="fill:#ffec8c;fill-opacity:1;stroke:none;stroke-width:0.282356;stroke-dasharray:none"
           d="m 7.9102607,12.793223 c 0.031181,0.02018 0.093548,0.06053 0.1008832,0.137569 0.00734,0.07704 -0.040353,0.190757 -0.1320655,0.238446 -0.091712,0.04769 -0.2274416,0.02935 -0.2953083,-0.04219 -0.067867,-0.07154 -0.067867,-0.196261 -0.034849,-0.275133 0.033017,-0.07887 0.099046,-0.111888 0.1467362,-0.128396 0.047691,-0.01651 0.077038,-0.01651 0.1045515,-0.0055 0.027514,0.01101 0.053192,0.03302 0.066032,0.04402 0.012839,0.01101 0.012839,0.01101 0.044021,0.03119 z"
           id="path473"
           transform="matrix(1.4238115,0,0,1.4238115,-2.3857419,-6.3707188)" />
        <path
           style="fill:#ffec8c;fill-opacity:1;stroke:none;stroke-width:0.282356;stroke-dasharray:none"
           d="m 7.9102607,12.793223 c 0.031181,0.02018 0.093548,0.06053 0.1008832,0.137569 0.00734,0.07704 -0.040353,0.190757 -0.1320655,0.238446 -0.091712,0.04769 -0.2274416,0.02935 -0.2953083,-0.04219 -0.067867,-0.07154 -0.067867,-0.196261 -0.034849,-0.275133 0.033017,-0.07887 0.099046,-0.111888 0.1467362,-0.128396 0.047691,-0.01651 0.077038,-0.01651 0.1045515,-0.0055 0.027514,0.01101 0.053192,0.03302 0.066032,0.04402 0.012839,0.01101 0.012839,0.01101 0.044021,0.03119 z"
           id="path475"
           transform="matrix(1.4238115,0,0,1.4238115,-4.0153721,-5.1328267)" />
        <path
           style="fill:#ffec8c;fill-opacity:1;stroke:none;stroke-width:0.282356;stroke-dasharray:none"
           d="m 7.9102607,12.793223 c 0.031181,0.02018 0.093548,0.06053 0.1008832,0.137569 0.00734,0.07704 -0.040353,0.190757 -0.1320655,0.238446 -0.091712,0.04769 -0.2274416,0.02935 -0.2953083,-0.04219 -0.067867,-0.07154 -0.067867,-0.196261 -0.034849,-0.275133 0.033017,-0.07887 0.099046,-0.111888 0.1467362,-0.128396 0.047691,-0.01651 0.077038,-0.01651 0.1045515,-0.0055 0.027514,0.01101 0.053192,0.03302 0.066032,0.04402 0.012839,0.01101 0.012839,0.01101 0.044021,0.03119 z"
           id="path477"
           transform="matrix(1.4238115,0,0,1.4238115,-3.1848875,-4.8664448)" />
      </g>
      <g
         id="g499"
         transform="translate(-3.323611,-2.3331309)">
        <path
           style="fill:#ffec8c;fill-opacity:1;stroke:none;stroke-width:0.282356;stroke-dasharray:none"
           d="m 8.3834905,12.485074 c 0.031182,-0.02384 0.093545,-0.07153 0.2146063,-0.09721 0.1210608,-0.02568 0.3008096,-0.02934 0.4126974,0.01468 0.1118878,0.04402 0.1559098,0.135734 0.064197,0.214605 -0.091713,0.07887 -0.3191531,0.144903 -0.4750629,0.165079 -0.1559097,0.02017 -0.2402824,-0.0055 -0.2806353,-0.04402 -0.040353,-0.03852 -0.036685,-0.08988 -0.023845,-0.13023 0.01284,-0.04035 0.034852,-0.0697 0.045856,-0.08437 0.011004,-0.01467 0.011005,-0.01468 0.042187,-0.03852 z"
           id="path479"
           transform="matrix(1.4238115,0,0,1.4238115,-3.7019818,-5.3678695)" />
        <path
           style="fill:#ffec8c;fill-opacity:1;stroke:none;stroke-width:0.282356;stroke-dasharray:none"
           d="m 8.4678654,12.745535 c 0.049524,0.01651 0.1485705,0.04952 0.199929,0.130232 0.051358,0.08071 0.055026,0.209101 0.0055,0.278802 -0.049525,0.0697 -0.1522391,0.08071 -0.2512889,0.0587 -0.09905,-0.02201 -0.1944261,-0.07704 -0.254956,-0.143069 -0.06053,-0.06603 -0.086208,-0.143067 -0.071532,-0.21277 0.014676,-0.0697 0.069699,-0.132062 0.1247235,-0.159575 0.055025,-0.02751 0.1100544,-0.02018 0.1430725,-0.0092 0.033018,0.01101 0.044021,0.02568 0.049523,0.03301 0.0055,0.0073 0.0055,0.0073 0.055028,0.02384 z"
           id="path480"
           transform="matrix(1.4238115,0,0,1.4238115,-3.7019818,-5.3678695)" />
        <path
           style="fill:#ffec8c;fill-opacity:1;stroke:none;stroke-width:0.282356;stroke-dasharray:none"
           d="m 7.9102607,12.793223 c 0.031181,0.02018 0.093548,0.06053 0.1008832,0.137569 0.00734,0.07704 -0.040353,0.190757 -0.1320655,0.238446 -0.091712,0.04769 -0.2274416,0.02935 -0.2953083,-0.04219 -0.067867,-0.07154 -0.067867,-0.196261 -0.034849,-0.275133 0.033017,-0.07887 0.099046,-0.111888 0.1467362,-0.128396 0.047691,-0.01651 0.077038,-0.01651 0.1045515,-0.0055 0.027514,0.01101 0.053192,0.03302 0.066032,0.04402 0.012839,0.01101 0.012839,0.01101 0.044021,0.03119 z"
           id="path481"
           transform="matrix(1.4238115,0,0,1.4238115,-3.7019818,-5.3678695)" />
        <path
           style="fill:#ffec8c;fill-opacity:1;stroke:none;stroke-width:0.282356;stroke-dasharray:none"
           d="m 7.9102607,12.793223 c 0.031181,0.02018 0.093548,0.06053 0.1008832,0.137569 0.00734,0.07704 -0.040353,0.190757 -0.1320655,0.238446 -0.091712,0.04769 -0.2274416,0.02935 -0.2953083,-0.04219 -0.067867,-0.07154 -0.067867,-0.196261 -0.034849,-0.275133 0.033017,-0.07887 0.099046,-0.111888 0.1467362,-0.128396 0.047691,-0.01651 0.077038,-0.01651 0.1045515,-0.0055 0.027514,0.01101 0.053192,0.03302 0.066032,0.04402 0.012839,0.01101 0.012839,0.01101 0.044021,0.03119 z"
           id="path482"
           transform="matrix(1.4238115,0,0,1.4238115,-3.2632352,-5.7282685)" />
        <path
           style="fill:#ffec8c;fill-opacity:1;stroke:none;stroke-width:0.282356;stroke-dasharray:none"
           d="m 7.9102607,12.793223 c 0.031181,0.02018 0.093548,0.06053 0.1008832,0.137569 0.00734,0.07704 -0.040353,0.190757 -0.1320655,0.238446 -0.091712,0.04769 -0.2274416,0.02935 -0.2953083,-0.04219 -0.067867,-0.07154 -0.067867,-0.196261 -0.034849,-0.275133 0.033017,-0.07887 0.099046,-0.111888 0.1467362,-0.128396 0.047691,-0.01651 0.077038,-0.01651 0.1045515,-0.0055 0.027514,0.01101 0.053192,0.03302 0.066032,0.04402 0.012839,0.01101 0.012839,0.01101 0.044021,0.03119 z"
           id="path483"
           transform="matrix(1.4238115,0,0,1.4238115,-3.1848876,-5.2425133)" />
        <path
           style="fill:#ffec8c;fill-opacity:1;stroke:none;stroke-width:0.282356;stroke-dasharray:none"
           d="m 7.9102607,12.793223 c 0.031181,0.02018 0.093548,0.06053 0.1008832,0.137569 0.00734,0.07704 -0.040353,0.190757 -0.1320655,0.238446 -0.091712,0.04769 -0.2274416,0.02935 -0.2953083,-0.04219 -0.067867,-0.07154 -0.067867,-0.196261 -0.034849,-0.275133 0.033017,-0.07887 0.099046,-0.111888 0.1467362,-0.128396 0.047691,-0.01651 0.077038,-0.01651 0.1045515,-0.0055 0.027514,0.01101 0.053192,0.03302 0.066032,0.04402 0.012839,0.01101 0.012839,0.01101 0.044021,0.03119 z"
           id="path484"
           transform="matrix(1.4238115,0,0,1.4238115,-3.7803294,-6.0729979)" />
        <path
           style="fill:#ffec8c;fill-opacity:1;stroke:none;stroke-width:0.282356;stroke-dasharray:none"
           d="m 7.9102607,12.793223 c 0.031181,0.02018 0.093548,0.06053 0.1008832,0.137569 0.00734,0.07704 -0.040353,0.190757 -0.1320655,0.238446 -0.091712,0.04769 -0.2274416,0.02935 -0.2953083,-0.04219 -0.067867,-0.07154 -0.067867,-0.196261 -0.034849,-0.275133 0.033017,-0.07887 0.099046,-0.111888 0.1467362,-0.128396 0.047691,-0.01651 0.077038,-0.01651 0.1045515,-0.0055 0.027514,0.01101 0.053192,0.03302 0.066032,0.04402 0.012839,0.01101 0.012839,0.01101 0.044021,0.03119 z"
           id="path485"
           transform="matrix(1.4238115,0,0,1.4238115,-2.8088191,-6.2767017)" />
        <path
           style="fill:#ffec8c;fill-opacity:1;stroke:none;stroke-width:0.282356;stroke-dasharray:none"
           d="m 7.9102607,12.793223 c 0.031181,0.02018 0.093548,0.06053 0.1008832,0.137569 0.00734,0.07704 -0.040353,0.190757 -0.1320655,0.238446 -0.091712,0.04769 -0.2274416,0.02935 -0.2953083,-0.04219 -0.067867,-0.07154 -0.067867,-0.196261 -0.034849,-0.275133 0.033017,-0.07887 0.099046,-0.111888 0.1467362,-0.128396 0.047691,-0.01651 0.077038,-0.01651 0.1045515,-0.0055 0.027514,0.01101 0.053192,0.03302 0.066032,0.04402 0.012839,0.01101 0.012839,0.01101 0.044021,0.03119 z"
           id="path486"
           transform="matrix(1.4238115,0,0,1.4238115,-3.3415828,-6.4020579)" />
        <path
           style="fill:#ffec8c;fill-opacity:1;stroke:none;stroke-width:0.282356;stroke-dasharray:none"
           d="m 7.9102607,12.793223 c 0.031181,0.02018 0.093548,0.06053 0.1008832,0.137569 0.00734,0.07704 -0.040353,0.190757 -0.1320655,0.238446 -0.091712,0.04769 -0.2274416,0.02935 -0.2953083,-0.04219 -0.067867,-0.07154 -0.067867,-0.196261 -0.034849,-0.275133 0.033017,-0.07887 0.099046,-0.111888 0.1467362,-0.128396 0.047691,-0.01651 0.077038,-0.01651 0.1045515,-0.0055 0.027514,0.01101 0.053192,0.03302 0.066032,0.04402 0.012839,0.01101 0.012839,0.01101 0.044021,0.03119 z"
           id="path487"
           transform="matrix(1.4238115,0,0,1.4238115,-4.1407284,-5.712599)" />
        <path
           style="fill:#ffec8c;fill-opacity:1;stroke:none;stroke-width:0.282356;stroke-dasharray:none"
           d="m 7.9102607,12.793223 c 0.031181,0.02018 0.093548,0.06053 0.1008832,0.137569 0.00734,0.07704 -0.040353,0.190757 -0.1320655,0.238446 -0.091712,0.04769 -0.2274416,0.02935 -0.2953083,-0.04219 -0.067867,-0.07154 -0.067867,-0.196261 -0.034849,-0.275133 0.033017,-0.07887 0.099046,-0.111888 0.1467362,-0.128396 0.047691,-0.01651 0.077038,-0.01651 0.1045515,-0.0055 0.027514,0.01101 0.053192,0.03302 0.066032,0.04402 0.012839,0.01101 0.012839,0.01101 0.044021,0.03119 z"
           id="path488"
           transform="matrix(1.4238115,0,0,1.4238115,-4.3444322,-5.3051914)" />
        <path
           style="fill:#ffec8c;fill-opacity:1;stroke:none;stroke-width:0.282356;stroke-dasharray:none"
           d="m 7.9102607,12.793223 c 0.031181,0.02018 0.093548,0.06053 0.1008832,0.137569 0.00734,0.07704 -0.040353,0.190757 -0.1320655,0.238446 -0.091712,0.04769 -0.2274416,0.02935 -0.2953083,-0.04219 -0.067867,-0.07154 -0.067867,-0.196261 -0.034849,-0.275133 0.033017,-0.07887 0.099046,-0.111888 0.1467362,-0.128396 0.047691,-0.01651 0.077038,-0.01651 0.1045515,-0.0055 0.027514,0.01101 0.053192,0.03302 0.066032,0.04402 0.012839,0.01101 0.012839,0.01101 0.044021,0.03119 z"
           id="path489"
           transform="matrix(1.4238115,0,0,1.4238115,-3.6549732,-4.8351058)" />
        <path
           style="fill:#ffec8c;fill-opacity:1;stroke:none;stroke-width:0.282356;stroke-dasharray:none"
           d="m 7.9102607,12.793223 c 0.031181,0.02018 0.093548,0.06053 0.1008832,0.137569 0.00734,0.07704 -0.040353,0.190757 -0.1320655,0.238446 -0.091712,0.04769 -0.2274416,0.02935 -0.2953083,-0.04219 -0.067867,-0.07154 -0.067867,-0.196261 -0.034849,-0.275133 0.033017,-0.07887 0.099046,-0.111888 0.1467362,-0.128396 0.047691,-0.01651 0.077038,-0.01651 0.1045515,-0.0055 0.027514,0.01101 0.053192,0.03302 0.066032,0.04402 0.012839,0.01101 0.012839,0.01101 0.044021,0.03119 z"
           id="path490"
           transform="matrix(1.4238115,0,0,1.4238115,-2.8558276,-4.7567582)" />
        <path
           style="fill:#ffec8c;fill-opacity:1;stroke:none;stroke-width:0.282356;stroke-dasharray:none"
           d="m 7.9102607,12.793223 c 0.031181,0.02018 0.093548,0.06053 0.1008832,0.137569 0.00734,0.07704 -0.040353,0.190757 -0.1320655,0.238446 -0.091712,0.04769 -0.2274416,0.02935 -0.2953083,-0.04219 -0.067867,-0.07154 -0.067867,-0.196261 -0.034849,-0.275133 0.033017,-0.07887 0.099046,-0.111888 0.1467362,-0.128396 0.047691,-0.01651 0.077038,-0.01651 0.1045515,-0.0055 0.027514,0.01101 0.053192,0.03302 0.066032,0.04402 0.012839,0.01101 0.012839,0.01101 0.044021,0.03119 z"
           id="path491"
           transform="matrix(1.4238115,0,0,1.4238115,-2.1820381,-5.5715733)" />
        <path
           style="fill:#ffec8c;fill-opacity:1;stroke:none;stroke-width:0.282356;stroke-dasharray:none"
           d="m 7.9102607,12.793223 c 0.031181,0.02018 0.093548,0.06053 0.1008832,0.137569 0.00734,0.07704 -0.040353,0.190757 -0.1320655,0.238446 -0.091712,0.04769 -0.2274416,0.02935 -0.2953083,-0.04219 -0.067867,-0.07154 -0.067867,-0.196261 -0.034849,-0.275133 0.033017,-0.07887 0.099046,-0.111888 0.1467362,-0.128396 0.047691,-0.01651 0.077038,-0.01651 0.1045515,-0.0055 0.027514,0.01101 0.053192,0.03302 0.066032,0.04402 0.012839,0.01101 0.012839,0.01101 0.044021,0.03119 z"
           id="path492"
           transform="matrix(1.4238115,0,0,1.4238115,-2.3387333,-4.991801)" />
        <path
           style="fill:#ffec8c;fill-opacity:1;stroke:none;stroke-width:0.282356;stroke-dasharray:none"
           d="m 7.9102607,12.793223 c 0.031181,0.02018 0.093548,0.06053 0.1008832,0.137569 0.00734,0.07704 -0.040353,0.190757 -0.1320655,0.238446 -0.091712,0.04769 -0.2274416,0.02935 -0.2953083,-0.04219 -0.067867,-0.07154 -0.067867,-0.196261 -0.034849,-0.275133 0.033017,-0.07887 0.099046,-0.111888 0.1467362,-0.128396 0.047691,-0.01651 0.077038,-0.01651 0.1045515,-0.0055 0.027514,0.01101 0.053192,0.03302 0.066032,0.04402 0.012839,0.01101 0.012839,0.01101 0.044021,0.03119 z"
           id="path493"
           transform="matrix(1.4238115,0,0,1.4238115,-4.250415,-6.4333969)" />
        <path
           style="fill:#ffec8c;fill-opacity:1;stroke:none;stroke-width:0.282356;stroke-dasharray:none"
           d="m 7.9102607,12.793223 c 0.031181,0.02018 0.093548,0.06053 0.1008832,0.137569 0.00734,0.07704 -0.040353,0.190757 -0.1320655,0.238446 -0.091712,0.04769 -0.2274416,0.02935 -0.2953083,-0.04219 -0.067867,-0.07154 -0.067867,-0.196261 -0.034849,-0.275133 0.033017,-0.07887 0.099046,-0.111888 0.1467362,-0.128396 0.047691,-0.01651 0.077038,-0.01651 0.1045515,-0.0055 0.027514,0.01101 0.053192,0.03302 0.066032,0.04402 0.012839,0.01101 0.012839,0.01101 0.044021,0.03119 z"
           id="path494"
           transform="matrix(1.4238115,0,0,1.4238115,-4.4227797,-6.1826846)" />
        <path
           style="fill:#ffec8c;fill-opacity:1;stroke:none;stroke-width:0.282356;stroke-dasharray:none"
           d="m 7.9102607,12.793223 c 0.031181,0.02018 0.093548,0.06053 0.1008832,0.137569 0.00734,0.07704 -0.040353,0.190757 -0.1320655,0.238446 -0.091712,0.04769 -0.2274416,0.02935 -0.2953083,-0.04219 -0.067867,-0.07154 -0.067867,-0.196261 -0.034849,-0.275133 0.033017,-0.07887 0.099046,-0.111888 0.1467362,-0.128396 0.047691,-0.01651 0.077038,-0.01651 0.1045515,-0.0055 0.027514,0.01101 0.053192,0.03302 0.066032,0.04402 0.012839,0.01101 0.012839,0.01101 0.044021,0.03119 z"
           id="path495"
           transform="matrix(1.4238115,0,0,1.4238115,-3.7333207,-6.6527702)" />
        <path
           style="fill:#ffec8c;fill-opacity:1;stroke:none;stroke-width:0.282356;stroke-dasharray:none"
           d="m 7.9102607,12.793223 c 0.031181,0.02018 0.093548,0.06053 0.1008832,0.137569 0.00734,0.07704 -0.040353,0.190757 -0.1320655,0.238446 -0.091712,0.04769 -0.2274416,0.02935 -0.2953083,-0.04219 -0.067867,-0.07154 -0.067867,-0.196261 -0.034849,-0.275133 0.033017,-0.07887 0.099046,-0.111888 0.1467362,-0.128396 0.047691,-0.01651 0.077038,-0.01651 0.1045515,-0.0055 0.027514,0.01101 0.053192,0.03302 0.066032,0.04402 0.012839,0.01101 0.012839,0.01101 0.044021,0.03119 z"
           id="path496"
           transform="matrix(1.4238115,0,0,1.4238115,-2.9655142,-6.7624569)" />
        <path
           style="fill:#ffec8c;fill-opacity:1;stroke:none;stroke-width:0.282356;stroke-dasharray:none"
           d="m 7.9102607,12.793223 c 0.031181,0.02018 0.093548,0.06053 0.1008832,0.137569 0.00734,0.07704 -0.040353,0.190757 -0.1320655,0.238446 -0.091712,0.04769 -0.2274416,0.02935 -0.2953083,-0.04219 -0.067867,-0.07154 -0.067867,-0.196261 -0.034849,-0.275133 0.033017,-0.07887 0.099046,-0.111888 0.1467362,-0.128396 0.047691,-0.01651 0.077038,-0.01651 0.1045515,-0.0055 0.027514,0.01101 0.053192,0.03302 0.066032,0.04402 0.012839,0.01101 0.012839,0.01101 0.044021,0.03119 z"
           id="path497"
           transform="matrix(1.4238115,0,0,1.4238115,-2.3857419,-6.3707188)" />
        <path
           style="fill:#ffec8c;fill-opacity:1;stroke:none;stroke-width:0.282356;stroke-dasharray:none"
           d="m 7.9102607,12.793223 c 0.031181,0.02018 0.093548,0.06053 0.1008832,0.137569 0.00734,0.07704 -0.040353,0.190757 -0.1320655,0.238446 -0.091712,0.04769 -0.2274416,0.02935 -0.2953083,-0.04219 -0.067867,-0.07154 -0.067867,-0.196261 -0.034849,-0.275133 0.033017,-0.07887 0.099046,-0.111888 0.1467362,-0.128396 0.047691,-0.01651 0.077038,-0.01651 0.1045515,-0.0055 0.027514,0.01101 0.053192,0.03302 0.066032,0.04402 0.012839,0.01101 0.012839,0.01101 0.044021,0.03119 z"
           id="path498"
           transform="matrix(1.4238115,0,0,1.4238115,-4.0153721,-5.1328267)" />
        <path
           style="fill:#ffec8c;fill-opacity:1;stroke:none;stroke-width:0.282356;stroke-dasharray:none"
           d="m 7.9102607,12.793223 c 0.031181,0.02018 0.093548,0.06053 0.1008832,0.137569 0.00734,0.07704 -0.040353,0.190757 -0.1320655,0.238446 -0.091712,0.04769 -0.2274416,0.02935 -0.2953083,-0.04219 -0.067867,-0.07154 -0.067867,-0.196261 -0.034849,-0.275133 0.033017,-0.07887 0.099046,-0.111888 0.1467362,-0.128396 0.047691,-0.01651 0.077038,-0.01651 0.1045515,-0.0055 0.027514,0.01101 0.053192,0.03302 0.066032,0.04402 0.012839,0.01101 0.012839,0.01101 0.044021,0.03119 z"
           id="path499"
           transform="matrix(1.4238115,0,0,1.4238115,-3.1848875,-4.8664448)" />
      </g>
      <g
         id="g600"
         transform="translate(-3.7638244,1.7168322)">
        <path
           style="fill:#ffec8c;fill-opacity:1;stroke:none;stroke-width:0.282356;stroke-dasharray:none"
           d="m 8.3834905,12.485074 c 0.031182,-0.02384 0.093545,-0.07153 0.2146063,-0.09721 0.1210608,-0.02568 0.3008096,-0.02934 0.4126974,0.01468 0.1118878,0.04402 0.1559098,0.135734 0.064197,0.214605 -0.091713,0.07887 -0.3191531,0.144903 -0.4750629,0.165079 -0.1559097,0.02017 -0.2402824,-0.0055 -0.2806353,-0.04402 -0.040353,-0.03852 -0.036685,-0.08988 -0.023845,-0.13023 0.01284,-0.04035 0.034852,-0.0697 0.045856,-0.08437 0.011004,-0.01467 0.011005,-0.01468 0.042187,-0.03852 z"
           id="path580"
           transform="matrix(1.4238115,0,0,1.4238115,-3.7019818,-5.3678695)" />
        <path
           style="fill:#ffec8c;fill-opacity:1;stroke:none;stroke-width:0.282356;stroke-dasharray:none"
           d="m 8.4678654,12.745535 c 0.049524,0.01651 0.1485705,0.04952 0.199929,0.130232 0.051358,0.08071 0.055026,0.209101 0.0055,0.278802 -0.049525,0.0697 -0.1522391,0.08071 -0.2512889,0.0587 -0.09905,-0.02201 -0.1944261,-0.07704 -0.254956,-0.143069 -0.06053,-0.06603 -0.086208,-0.143067 -0.071532,-0.21277 0.014676,-0.0697 0.069699,-0.132062 0.1247235,-0.159575 0.055025,-0.02751 0.1100544,-0.02018 0.1430725,-0.0092 0.033018,0.01101 0.044021,0.02568 0.049523,0.03301 0.0055,0.0073 0.0055,0.0073 0.055028,0.02384 z"
           id="path581"
           transform="matrix(1.4238115,0,0,1.4238115,-3.7019818,-5.3678695)" />
        <path
           style="fill:#ffec8c;fill-opacity:1;stroke:none;stroke-width:0.282356;stroke-dasharray:none"
           d="m 7.9102607,12.793223 c 0.031181,0.02018 0.093548,0.06053 0.1008832,0.137569 0.00734,0.07704 -0.040353,0.190757 -0.1320655,0.238446 -0.091712,0.04769 -0.2274416,0.02935 -0.2953083,-0.04219 -0.067867,-0.07154 -0.067867,-0.196261 -0.034849,-0.275133 0.033017,-0.07887 0.099046,-0.111888 0.1467362,-0.128396 0.047691,-0.01651 0.077038,-0.01651 0.1045515,-0.0055 0.027514,0.01101 0.053192,0.03302 0.066032,0.04402 0.012839,0.01101 0.012839,0.01101 0.044021,0.03119 z"
           id="path582"
           transform="matrix(1.4238115,0,0,1.4238115,-3.7019818,-5.3678695)" />
        <path
           style="fill:#ffec8c;fill-opacity:1;stroke:none;stroke-width:0.282356;stroke-dasharray:none"
           d="m 7.9102607,12.793223 c 0.031181,0.02018 0.093548,0.06053 0.1008832,0.137569 0.00734,0.07704 -0.040353,0.190757 -0.1320655,0.238446 -0.091712,0.04769 -0.2274416,0.02935 -0.2953083,-0.04219 -0.067867,-0.07154 -0.067867,-0.196261 -0.034849,-0.275133 0.033017,-0.07887 0.099046,-0.111888 0.1467362,-0.128396 0.047691,-0.01651 0.077038,-0.01651 0.1045515,-0.0055 0.027514,0.01101 0.053192,0.03302 0.066032,0.04402 0.012839,0.01101 0.012839,0.01101 0.044021,0.03119 z"
           id="path583"
           transform="matrix(1.4238115,0,0,1.4238115,-3.2632352,-5.7282685)" />
        <path
           style="fill:#ffec8c;fill-opacity:1;stroke:none;stroke-width:0.282356;stroke-dasharray:none"
           d="m 7.9102607,12.793223 c 0.031181,0.02018 0.093548,0.06053 0.1008832,0.137569 0.00734,0.07704 -0.040353,0.190757 -0.1320655,0.238446 -0.091712,0.04769 -0.2274416,0.02935 -0.2953083,-0.04219 -0.067867,-0.07154 -0.067867,-0.196261 -0.034849,-0.275133 0.033017,-0.07887 0.099046,-0.111888 0.1467362,-0.128396 0.047691,-0.01651 0.077038,-0.01651 0.1045515,-0.0055 0.027514,0.01101 0.053192,0.03302 0.066032,0.04402 0.012839,0.01101 0.012839,0.01101 0.044021,0.03119 z"
           id="path584"
           transform="matrix(1.4238115,0,0,1.4238115,-3.1848876,-5.2425133)" />
        <path
           style="fill:#ffec8c;fill-opacity:1;stroke:none;stroke-width:0.282356;stroke-dasharray:none"
           d="m 7.9102607,12.793223 c 0.031181,0.02018 0.093548,0.06053 0.1008832,0.137569 0.00734,0.07704 -0.040353,0.190757 -0.1320655,0.238446 -0.091712,0.04769 -0.2274416,0.02935 -0.2953083,-0.04219 -0.067867,-0.07154 -0.067867,-0.196261 -0.034849,-0.275133 0.033017,-0.07887 0.099046,-0.111888 0.1467362,-0.128396 0.047691,-0.01651 0.077038,-0.01651 0.1045515,-0.0055 0.027514,0.01101 0.053192,0.03302 0.066032,0.04402 0.012839,0.01101 0.012839,0.01101 0.044021,0.03119 z"
           id="path585"
           transform="matrix(1.4238115,0,0,1.4238115,-3.7803294,-6.0729979)" />
        <path
           style="fill:#ffec8c;fill-opacity:1;stroke:none;stroke-width:0.282356;stroke-dasharray:none"
           d="m 7.9102607,12.793223 c 0.031181,0.02018 0.093548,0.06053 0.1008832,0.137569 0.00734,0.07704 -0.040353,0.190757 -0.1320655,0.238446 -0.091712,0.04769 -0.2274416,0.02935 -0.2953083,-0.04219 -0.067867,-0.07154 -0.067867,-0.196261 -0.034849,-0.275133 0.033017,-0.07887 0.099046,-0.111888 0.1467362,-0.128396 0.047691,-0.01651 0.077038,-0.01651 0.1045515,-0.0055 0.027514,0.01101 0.053192,0.03302 0.066032,0.04402 0.012839,0.01101 0.012839,0.01101 0.044021,0.03119 z"
           id="path586"
           transform="matrix(1.4238115,0,0,1.4238115,-2.8088191,-6.2767017)" />
        <path
           style="fill:#ffec8c;fill-opacity:1;stroke:none;stroke-width:0.282356;stroke-dasharray:none"
           d="m 7.9102607,12.793223 c 0.031181,0.02018 0.093548,0.06053 0.1008832,0.137569 0.00734,0.07704 -0.040353,0.190757 -0.1320655,0.238446 -0.091712,0.04769 -0.2274416,0.02935 -0.2953083,-0.04219 -0.067867,-0.07154 -0.067867,-0.196261 -0.034849,-0.275133 0.033017,-0.07887 0.099046,-0.111888 0.1467362,-0.128396 0.047691,-0.01651 0.077038,-0.01651 0.1045515,-0.0055 0.027514,0.01101 0.053192,0.03302 0.066032,0.04402 0.012839,0.01101 0.012839,0.01101 0.044021,0.03119 z"
           id="path587"
           transform="matrix(1.4238115,0,0,1.4238115,-3.3415828,-6.4020579)" />
        <path
           style="fill:#ffec8c;fill-opacity:1;stroke:none;stroke-width:0.282356;stroke-dasharray:none"
           d="m 7.9102607,12.793223 c 0.031181,0.02018 0.093548,0.06053 0.1008832,0.137569 0.00734,0.07704 -0.040353,0.190757 -0.1320655,0.238446 -0.091712,0.04769 -0.2274416,0.02935 -0.2953083,-0.04219 -0.067867,-0.07154 -0.067867,-0.196261 -0.034849,-0.275133 0.033017,-0.07887 0.099046,-0.111888 0.1467362,-0.128396 0.047691,-0.01651 0.077038,-0.01651 0.1045515,-0.0055 0.027514,0.01101 0.053192,0.03302 0.066032,0.04402 0.012839,0.01101 0.012839,0.01101 0.044021,0.03119 z"
           id="path588"
           transform="matrix(1.4238115,0,0,1.4238115,-4.1407284,-5.712599)" />
        <path
           style="fill:#ffec8c;fill-opacity:1;stroke:none;stroke-width:0.282356;stroke-dasharray:none"
           d="m 7.9102607,12.793223 c 0.031181,0.02018 0.093548,0.06053 0.1008832,0.137569 0.00734,0.07704 -0.040353,0.190757 -0.1320655,0.238446 -0.091712,0.04769 -0.2274416,0.02935 -0.2953083,-0.04219 -0.067867,-0.07154 -0.067867,-0.196261 -0.034849,-0.275133 0.033017,-0.07887 0.099046,-0.111888 0.1467362,-0.128396 0.047691,-0.01651 0.077038,-0.01651 0.1045515,-0.0055 0.027514,0.01101 0.053192,0.03302 0.066032,0.04402 0.012839,0.01101 0.012839,0.01101 0.044021,0.03119 z"
           id="path589"
           transform="matrix(1.4238115,0,0,1.4238115,-4.3444322,-5.3051914)" />
        <path
           style="fill:#ffec8c;fill-opacity:1;stroke:none;stroke-width:0.282356;stroke-dasharray:none"
           d="m 7.9102607,12.793223 c 0.031181,0.02018 0.093548,0.06053 0.1008832,0.137569 0.00734,0.07704 -0.040353,0.190757 -0.1320655,0.238446 -0.091712,0.04769 -0.2274416,0.02935 -0.2953083,-0.04219 -0.067867,-0.07154 -0.067867,-0.196261 -0.034849,-0.275133 0.033017,-0.07887 0.099046,-0.111888 0.1467362,-0.128396 0.047691,-0.01651 0.077038,-0.01651 0.1045515,-0.0055 0.027514,0.01101 0.053192,0.03302 0.066032,0.04402 0.012839,0.01101 0.012839,0.01101 0.044021,0.03119 z"
           id="path590"
           transform="matrix(1.4238115,0,0,1.4238115,-3.6549732,-4.8351058)" />
        <path
           style="fill:#ffec8c;fill-opacity:1;stroke:none;stroke-width:0.282356;stroke-dasharray:none"
           d="m 7.9102607,12.793223 c 0.031181,0.02018 0.093548,0.06053 0.1008832,0.137569 0.00734,0.07704 -0.040353,0.190757 -0.1320655,0.238446 -0.091712,0.04769 -0.2274416,0.02935 -0.2953083,-0.04219 -0.067867,-0.07154 -0.067867,-0.196261 -0.034849,-0.275133 0.033017,-0.07887 0.099046,-0.111888 0.1467362,-0.128396 0.047691,-0.01651 0.077038,-0.01651 0.1045515,-0.0055 0.027514,0.01101 0.053192,0.03302 0.066032,0.04402 0.012839,0.01101 0.012839,0.01101 0.044021,0.03119 z"
           id="path591"
           transform="matrix(1.4238115,0,0,1.4238115,-2.8558276,-4.7567582)" />
        <path
           style="fill:#ffec8c;fill-opacity:1;stroke:none;stroke-width:0.282356;stroke-dasharray:none"
           d="m 7.9102607,12.793223 c 0.031181,0.02018 0.093548,0.06053 0.1008832,0.137569 0.00734,0.07704 -0.040353,0.190757 -0.1320655,0.238446 -0.091712,0.04769 -0.2274416,0.02935 -0.2953083,-0.04219 -0.067867,-0.07154 -0.067867,-0.196261 -0.034849,-0.275133 0.033017,-0.07887 0.099046,-0.111888 0.1467362,-0.128396 0.047691,-0.01651 0.077038,-0.01651 0.1045515,-0.0055 0.027514,0.01101 0.053192,0.03302 0.066032,0.04402 0.012839,0.01101 0.012839,0.01101 0.044021,0.03119 z"
           id="path592"
           transform="matrix(1.4238115,0,0,1.4238115,-2.1820381,-5.5715733)" />
        <path
           style="fill:#ffec8c;fill-opacity:1;stroke:none;stroke-width:0.282356;stroke-dasharray:none"
           d="m 7.9102607,12.793223 c 0.031181,0.02018 0.093548,0.06053 0.1008832,0.137569 0.00734,0.07704 -0.040353,0.190757 -0.1320655,0.238446 -0.091712,0.04769 -0.2274416,0.02935 -0.2953083,-0.04219 -0.067867,-0.07154 -0.067867,-0.196261 -0.034849,-0.275133 0.033017,-0.07887 0.099046,-0.111888 0.1467362,-0.128396 0.047691,-0.01651 0.077038,-0.01651 0.1045515,-0.0055 0.027514,0.01101 0.053192,0.03302 0.066032,0.04402 0.012839,0.01101 0.012839,0.01101 0.044021,0.03119 z"
           id="path593"
           transform="matrix(1.4238115,0,0,1.4238115,-2.3387333,-4.991801)" />
        <path
           style="fill:#ffec8c;fill-opacity:1;stroke:none;stroke-width:0.282356;stroke-dasharray:none"
           d="m 7.9102607,12.793223 c 0.031181,0.02018 0.093548,0.06053 0.1008832,0.137569 0.00734,0.07704 -0.040353,0.190757 -0.1320655,0.238446 -0.091712,0.04769 -0.2274416,0.02935 -0.2953083,-0.04219 -0.067867,-0.07154 -0.067867,-0.196261 -0.034849,-0.275133 0.033017,-0.07887 0.099046,-0.111888 0.1467362,-0.128396 0.047691,-0.01651 0.077038,-0.01651 0.1045515,-0.0055 0.027514,0.01101 0.053192,0.03302 0.066032,0.04402 0.012839,0.01101 0.012839,0.01101 0.044021,0.03119 z"
           id="path594"
           transform="matrix(1.4238115,0,0,1.4238115,-4.250415,-6.4333969)" />
        <path
           style="fill:#ffec8c;fill-opacity:1;stroke:none;stroke-width:0.282356;stroke-dasharray:none"
           d="m 7.9102607,12.793223 c 0.031181,0.02018 0.093548,0.06053 0.1008832,0.137569 0.00734,0.07704 -0.040353,0.190757 -0.1320655,0.238446 -0.091712,0.04769 -0.2274416,0.02935 -0.2953083,-0.04219 -0.067867,-0.07154 -0.067867,-0.196261 -0.034849,-0.275133 0.033017,-0.07887 0.099046,-0.111888 0.1467362,-0.128396 0.047691,-0.01651 0.077038,-0.01651 0.1045515,-0.0055 0.027514,0.01101 0.053192,0.03302 0.066032,0.04402 0.012839,0.01101 0.012839,0.01101 0.044021,0.03119 z"
           id="path595"
           transform="matrix(1.4238115,0,0,1.4238115,-4.4227797,-6.1826846)" />
        <path
           style="fill:#ffec8c;fill-opacity:1;stroke:none;stroke-width:0.282356;stroke-dasharray:none"
           d="m 7.9102607,12.793223 c 0.031181,0.02018 0.093548,0.06053 0.1008832,0.137569 0.00734,0.07704 -0.040353,0.190757 -0.1320655,0.238446 -0.091712,0.04769 -0.2274416,0.02935 -0.2953083,-0.04219 -0.067867,-0.07154 -0.067867,-0.196261 -0.034849,-0.275133 0.033017,-0.07887 0.099046,-0.111888 0.1467362,-0.128396 0.047691,-0.01651 0.077038,-0.01651 0.1045515,-0.0055 0.027514,0.01101 0.053192,0.03302 0.066032,0.04402 0.012839,0.01101 0.012839,0.01101 0.044021,0.03119 z"
           id="path596"
           transform="matrix(1.4238115,0,0,1.4238115,-3.7333207,-6.6527702)" />
        <path
           style="fill:#ffec8c;fill-opacity:1;stroke:none;stroke-width:0.282356;stroke-dasharray:none"
           d="m 7.9102607,12.793223 c 0.031181,0.02018 0.093548,0.06053 0.1008832,0.137569 0.00734,0.07704 -0.040353,0.190757 -0.1320655,0.238446 -0.091712,0.04769 -0.2274416,0.02935 -0.2953083,-0.04219 -0.067867,-0.07154 -0.067867,-0.196261 -0.034849,-0.275133 0.033017,-0.07887 0.099046,-0.111888 0.1467362,-0.128396 0.047691,-0.01651 0.077038,-0.01651 0.1045515,-0.0055 0.027514,0.01101 0.053192,0.03302 0.066032,0.04402 0.012839,0.01101 0.012839,0.01101 0.044021,0.03119 z"
           id="path597"
           transform="matrix(1.4238115,0,0,1.4238115,-2.9655142,-6.7624569)" />
        <path
           style="fill:#ffec8c;fill-opacity:1;stroke:none;stroke-width:0.282356;stroke-dasharray:none"
           d="m 7.9102607,12.793223 c 0.031181,0.02018 0.093548,0.06053 0.1008832,0.137569 0.00734,0.07704 -0.040353,0.190757 -0.1320655,0.238446 -0.091712,0.04769 -0.2274416,0.02935 -0.2953083,-0.04219 -0.067867,-0.07154 -0.067867,-0.196261 -0.034849,-0.275133 0.033017,-0.07887 0.099046,-0.111888 0.1467362,-0.128396 0.047691,-0.01651 0.077038,-0.01651 0.1045515,-0.0055 0.027514,0.01101 0.053192,0.03302 0.066032,0.04402 0.012839,0.01101 0.012839,0.01101 0.044021,0.03119 z"
           id="path598"
           transform="matrix(1.4238115,0,0,1.4238115,-2.3857419,-6.3707188)" />
        <path
           style="fill:#ffec8c;fill-opacity:1;stroke:none;stroke-width:0.282356;stroke-dasharray:none"
           d="m 7.9102607,12.793223 c 0.031181,0.02018 0.093548,0.06053 0.1008832,0.137569 0.00734,0.07704 -0.040353,0.190757 -0.1320655,0.238446 -0.091712,0.04769 -0.2274416,0.02935 -0.2953083,-0.04219 -0.067867,-0.07154 -0.067867,-0.196261 -0.034849,-0.275133 0.033017,-0.07887 0.099046,-0.111888 0.1467362,-0.128396 0.047691,-0.01651 0.077038,-0.01651 0.1045515,-0.0055 0.027514,0.01101 0.053192,0.03302 0.066032,0.04402 0.012839,0.01101 0.012839,0.01101 0.044021,0.03119 z"
           id="path599"
           transform="matrix(1.4238115,0,0,1.4238115,-4.0153721,-5.1328267)" />
        <path
           style="fill:#ffec8c;fill-opacity:1;stroke:none;stroke-width:0.282356;stroke-dasharray:none"
           d="m 7.9102607,12.793223 c 0.031181,0.02018 0.093548,0.06053 0.1008832,0.137569 0.00734,0.07704 -0.040353,0.190757 -0.1320655,0.238446 -0.091712,0.04769 -0.2274416,0.02935 -0.2953083,-0.04219 -0.067867,-0.07154 -0.067867,-0.196261 -0.034849,-0.275133 0.033017,-0.07887 0.099046,-0.111888 0.1467362,-0.128396 0.047691,-0.01651 0.077038,-0.01651 0.1045515,-0.0055 0.027514,0.01101 0.053192,0.03302 0.066032,0.04402 0.012839,0.01101 0.012839,0.01101 0.044021,0.03119 z"
           id="path600"
           transform="matrix(1.4238115,0,0,1.4238115,-3.1848875,-4.8664448)" />
      </g>
      <path
         style="fill:#86a336;fill-opacity:1;stroke:none;stroke-width:0.282356;stroke-dasharray:none"
         d="M 8.3110749,13.473098 C 7.9582931,13.312271 7.3253612,13.084001 6.8584418,13.026934 6.3915225,12.969867 6.0906264,13.084 5.9816791,13.426412 c -0.1089473,0.342411 -0.025941,0.913076 0.2957187,1.239919 0.32166,0.326842 0.8819477,0.409848 1.3333045,0.332026 C 8.0620591,14.920535 8.4044581,14.681893 8.586037,14.458809 8.767616,14.235724 8.7883676,14.02821 8.7624283,13.87776 8.736489,13.727309 8.6638567,13.633925 8.3110749,13.473098 Z"
         id="path676"
         transform="translate(-5.056354,0.94651435)" />
      <path
         style="fill:#86a336;fill-opacity:1;stroke:none;stroke-width:0.282356;stroke-dasharray:none"
         d="M 8.3110749,13.473098 C 7.9582931,13.312271 7.3253612,13.084001 6.8584418,13.026934 6.3915225,12.969867 6.0906264,13.084 5.9816791,13.426412 c -0.1089473,0.342411 -0.025941,0.913076 0.2957187,1.239919 0.32166,0.326842 0.8819477,0.409848 1.3333045,0.332026 C 8.0620591,14.920535 8.4044581,14.681893 8.586037,14.458809 8.767616,14.235724 8.7883676,14.02821 8.7624283,13.87776 8.736489,13.727309 8.6638567,13.633925 8.3110749,13.473098 Z"
         id="path693"
         transform="matrix(-0.81368177,0,0,0.81368177,11.704005,3.2389948)" />
    </g>
  </g>
</svg>
