<?xml version="1.0" encoding="UTF-8" standalone="no"?>
<!-- Created with Inkscape (http://www.inkscape.org/) -->

<svg
   width="127.99999"
   height="32.000004"
   viewBox="0 0 33.866664 8.4666677"
   version="1.1"
   id="svg1"
   xmlns="http://www.w3.org/2000/svg"
   xmlns:svg="http://www.w3.org/2000/svg">
  <defs
     id="defs1" />
  <g
     id="g75"
     transform="matrix(-1.0624885,0,0,1.0624885,8.7312013,-0.26453462)">
    <rect
       style="fill:#bdca31;fill-opacity:0;stroke:none;stroke-width:0.497953"
       id="rect74"
       width="7.9687138"
       height="7.9687138"
       x="0.24897645"
       y="0.24897645" />
    <path
       style="fill:#86a336;stroke:#bdca31;stroke-width:0.282356;stroke-dasharray:none"
       d="M 4.2488975,7.314984 C 4.1866419,7.1852848 4.1243864,7.0555857 4.0984467,6.8791927 4.0725069,6.7027997 4.0828827,6.4797216 4.0776944,6.3214876 4.0725062,6.1632535 4.0517549,6.0698725 4.031003,5.9764891"
       id="path1" />
    <path
       style="fill:#86a336;stroke:none;stroke-width:0.282356;stroke-dasharray:none"
       d="m 3.8962623,6.786145 c 0.040353,-0.022011 0.040353,-0.022011 0.040353,-0.022011 C 3.8008827,6.6247335 3.6651503,6.4853326 3.5385878,6.3844497 3.4120253,6.2835668 3.2946374,6.2212046 3.1460636,6.1936913 2.9974897,6.166178 2.8177395,6.1735149 2.7645477,6.267062 c -0.053192,0.093547 0.020176,0.2732974 0.1577444,0.3925224 0.1375687,0.1192251 0.3393291,0.177919 0.4787309,0.2072666 0.1394018,0.029348 0.2164374,0.029348 0.2953095,0.00734 0.078872,-0.022011 0.159577,-0.066032 0.1999298,-0.088043 z"
       id="path57"
       transform="translate(0.23111202,-0.04402134)" />
    <ellipse
       style="fill:#457b47;stroke:none;stroke-width:0.282356;stroke-dasharray:none"
       id="path108"
       cx="-4.0356627"
       cy="5.7626491"
       transform="scale(-1,1)"
       rx="0.30814934"
       ry="0.46222407" />
  </g>
  <g
     id="g110"
     transform="matrix(-1.0624885,0,0,1.0624885,17.197868,-0.26453462)">
    <path
       style="fill:#86a336;stroke:none;stroke-width:0.282356;stroke-dasharray:none"
       d="m 3.8962623,6.786145 c 0.040353,-0.022011 0.040353,-0.022011 0.040353,-0.022011 C 3.8008827,6.6247335 3.6651503,6.4853326 3.5385878,6.3844497 3.4120253,6.2835668 3.2946374,6.2212046 3.1460636,6.1936913 2.9974897,6.166178 2.8177395,6.1735149 2.7645477,6.267062 c -0.053192,0.093547 0.020176,0.2732974 0.1577444,0.3925224 0.1375687,0.1192251 0.3393291,0.177919 0.4787309,0.2072666 0.1394018,0.029348 0.2164374,0.029348 0.2953095,0.00734 0.078872,-0.022011 0.159577,-0.066032 0.1999298,-0.088043 z"
       id="path149"
       transform="matrix(-1,0,0,1,7.8642764,-0.69770482)" />
    <rect
       style="fill:#bdca31;fill-opacity:0;stroke:none;stroke-width:0.497953"
       id="rect109"
       width="7.9687138"
       height="7.9687138"
       x="0.24897645"
       y="0.24897645" />
    <path
       style="fill:#86a336;stroke:#bdca31;stroke-width:0.282356;stroke-dasharray:none"
       d="M 4.2488975,7.314984 C 4.1866419,7.1852848 4.1243864,7.0555857 4.0984467,6.8791927 4.0725069,6.7027997 4.0828825,6.4797258 4.0828357,6.3446262 4.082789,6.2095265 4.0723196,6.1624149 4.0688221,5.9845767 c -0.0035,-0.1778383 -2.32e-5,-0.4864018 0.00345,-0.794969"
       id="path109" />
    <path
       style="fill:#86a336;stroke:none;stroke-width:0.282356;stroke-dasharray:none"
       d="m 3.8962623,6.786145 c 0.040353,-0.022011 0.040353,-0.022011 0.040353,-0.022011 C 3.8008827,6.6247335 3.6651503,6.4853326 3.5385878,6.3844497 3.4120253,6.2835668 3.2946374,6.2212046 3.1460636,6.1936913 2.9974897,6.166178 2.8177395,6.1735149 2.7645477,6.267062 c -0.053192,0.093547 0.020176,0.2732974 0.1577444,0.3925224 0.1375687,0.1192251 0.3393291,0.177919 0.4787309,0.2072666 0.1394018,0.029348 0.2164374,0.029348 0.2953095,0.00734 0.078872,-0.022011 0.159577,-0.066032 0.1999298,-0.088043 z"
       id="path110"
       transform="translate(0.23111202,-0.04402134)" />
    <ellipse
       style="fill:#457b47;stroke:none;stroke-width:0.282356;stroke-dasharray:none"
       id="ellipse110"
       cx="-4.0667906"
       cy="4.8910708"
       transform="scale(-1,1)"
       rx="0.30814934"
       ry="0.46222407" />
    <path
       style="fill:#ffec8c;stroke:none;stroke-width:0.282356;stroke-dasharray:none"
       d="m 4.1315194,4.5446113 c 0.00843,-0.00908 0.020104,-0.010376 0.028535,-0.053826 0.00843,-0.04345 0.013619,-0.1290497 0.00778,-0.1802808 -0.00584,-0.051231 -0.022698,-0.068092 -0.083657,-0.047988 -0.06096,0.020104 -0.166014,0.07717 -0.2042749,0.130996 -0.038261,0.053826 -0.00973,0.1044075 0.031777,0.1400751 0.041504,0.035667 0.095976,0.056419 0.1316432,0.062904 0.035667,0.00649 0.052529,-0.0013 0.063553,-0.013619 0.011025,-0.012322 0.016212,-0.029183 0.024642,-0.038261 z"
       id="path183" />
    <path
       style="fill:#ffec8c;stroke:none;stroke-width:0.282356;stroke-dasharray:none"
       d="m 4.2125833,4.4914332 c 0.00259,-0.0026 0.00778,-0.00778 0.037613,-0.020103 0.029831,-0.012321 0.084303,-0.031776 0.1284011,-0.014266 0.044098,0.01751 0.077819,0.071982 0.08171,0.1141346 0.00389,0.042152 -0.022049,0.071983 -0.064202,0.088844 -0.042152,0.01686 -0.1005156,0.020751 -0.145262,0.00778 -0.044746,-0.01297 -0.075874,-0.042801 -0.087547,-0.070686 -0.011673,-0.027885 -0.00389,-0.053825 0.00713,-0.070685 0.011024,-0.01686 0.025292,-0.024643 0.032426,-0.028534 0.00713,-0.00389 0.00713,-0.00389 0.00973,-0.00648 z"
       id="path187" />
  </g>
  <g
     id="g201"
     transform="matrix(-1.0624885,0,0,1.0624885,34.131201,-0.26453462)">
    <path
       style="fill:#86a336;stroke:none;stroke-width:0.282356;stroke-dasharray:none"
       d="m 3.8962623,6.786145 c 0.040353,-0.022011 0.040353,-0.022011 0.040353,-0.022011 C 3.8008827,6.6247335 3.6651503,6.4853326 3.5385878,6.3844497 3.4120253,6.2835668 3.2946374,6.2212046 3.1460636,6.1936913 2.9974897,6.166178 2.8177395,6.1735149 2.7645477,6.267062 c -0.053192,0.093547 0.020176,0.2732974 0.1577444,0.3925224 0.1375687,0.1192251 0.3393291,0.177919 0.4787309,0.2072666 0.1394018,0.029348 0.2164374,0.029348 0.2953095,0.00734 0.078872,-0.022011 0.159577,-0.066032 0.1999298,-0.088043 z"
       id="path395"
       transform="matrix(-0.58257235,-0.81277885,-0.81277885,0.58257235,11.772157,3.440018)" />
    <path
       style="fill:#86a336;stroke:none;stroke-width:0.282356;stroke-dasharray:none"
       d="m 3.8962623,6.786145 c 0.040353,-0.022011 0.040353,-0.022011 0.040353,-0.022011 C 3.8008827,6.6247335 3.6651503,6.4853326 3.5385878,6.3844497 3.4120253,6.2835668 3.2946374,6.2212046 3.1460636,6.1936913 2.9974897,6.166178 2.8177395,6.1735149 2.7645477,6.267062 c -0.053192,0.093547 0.020176,0.2732974 0.1577444,0.3925224 0.1375687,0.1192251 0.3393291,0.177919 0.4787309,0.2072666 0.1394018,0.029348 0.2164374,0.029348 0.2953095,0.00734 0.078872,-0.022011 0.159577,-0.066032 0.1999298,-0.088043 z"
       id="path241"
       transform="rotate(-37.056459,1.4122164,5.5432755)" />
    <path
       style="fill:#86a336;stroke:none;stroke-width:0.282356;stroke-dasharray:none"
       d="m 3.8962623,6.786145 c 0.040353,-0.022011 0.040353,-0.022011 0.040353,-0.022011 C 3.8008827,6.6247335 3.6651503,6.4853326 3.5385878,6.3844497 3.4120253,6.2835668 3.2946374,6.2212046 3.1460636,6.1936913 2.9974897,6.166178 2.8177395,6.1735149 2.7645477,6.267062 c -0.053192,0.093547 0.020176,0.2732974 0.1577444,0.3925224 0.1375687,0.1192251 0.3393291,0.177919 0.4787309,0.2072666 0.1394018,0.029348 0.2164374,0.029348 0.2953095,0.00734 0.078872,-0.022011 0.159577,-0.066032 0.1999298,-0.088043 z"
       id="path197"
       transform="matrix(-1,0,0,1,7.8642764,-0.69770482)" />
    <rect
       style="fill:#bdca31;fill-opacity:0;stroke:none;stroke-width:0.497953"
       id="rect197"
       width="7.9687138"
       height="7.9687138"
       x="0.24897645"
       y="0.24897645" />
    <path
       style="fill:#86a336;stroke:#bdca31;stroke-width:0.282356;stroke-dasharray:none"
       d="M 4.2488975,7.314984 C 4.1866419,7.1852848 4.1243864,7.0555857 4.0984467,6.8791927 4.0725069,6.7027997 4.0828825,6.4797258 4.0828357,6.3446262 4.082789,6.2095265 4.0723197,6.1624156 4.0684917,6.0139327 4.0646636,5.8654497 4.067477,5.6155955 4.0657261,5.3806721 4.0639753,5.1457486 4.0576603,4.9257542 4.0528028,4.6823948 4.0479453,4.4390355 4.0445453,4.172311 4.0411453,3.9055865"
       id="path198" />
    <path
       style="fill:#86a336;stroke:none;stroke-width:0.282356;stroke-dasharray:none"
       d="m 3.8962623,6.786145 c 0.040353,-0.022011 0.040353,-0.022011 0.040353,-0.022011 C 3.8008827,6.6247335 3.6651503,6.4853326 3.5385878,6.3844497 3.4120253,6.2835668 3.2946374,6.2212046 3.1460636,6.1936913 2.9974897,6.166178 2.8177395,6.1735149 2.7645477,6.267062 c -0.053192,0.093547 0.020176,0.2732974 0.1577444,0.3925224 0.1375687,0.1192251 0.3393291,0.177919 0.4787309,0.2072666 0.1394018,0.029348 0.2164374,0.029348 0.2953095,0.00734 0.078872,-0.022011 0.159577,-0.066032 0.1999298,-0.088043 z"
       id="path199"
       transform="translate(0.23111202,-0.04402134)" />
    <ellipse
       style="fill:#457b47;stroke:none;stroke-width:0.312334;stroke-dasharray:none"
       id="ellipse199"
       cx="-4.0060449"
       cy="3.4883404"
       transform="scale(-1,1)"
       rx="0.34086567"
       ry="0.51129854" />
    <path
       style="fill:#ffec8c;stroke:none;stroke-width:0.282356;stroke-dasharray:none"
       d="m 4.1315194,4.5446113 c 0.00843,-0.00908 0.020104,-0.010376 0.028535,-0.053826 0.00843,-0.04345 0.013619,-0.1290497 0.00778,-0.1802808 -0.00584,-0.051231 -0.022698,-0.068092 -0.083657,-0.047988 -0.06096,0.020104 -0.166014,0.07717 -0.2042749,0.130996 -0.038261,0.053826 -0.00973,0.1044075 0.031777,0.1400751 0.041504,0.035667 0.095976,0.056419 0.1316432,0.062904 0.035667,0.00649 0.052529,-0.0013 0.063553,-0.013619 0.011025,-0.012322 0.016212,-0.029183 0.024642,-0.038261 z"
       id="path200"
       transform="matrix(1.1061704,0,0,1.1061704,-0.49251824,-1.9220174)" />
    <path
       style="fill:#ffec8c;stroke:none;stroke-width:0.282356;stroke-dasharray:none"
       d="m 4.2125833,4.4914332 c 0.00259,-0.0026 0.00778,-0.00778 0.037613,-0.020103 0.029831,-0.012321 0.084303,-0.031776 0.1284011,-0.014266 0.044098,0.01751 0.077819,0.071982 0.08171,0.1141346 0.00389,0.042152 -0.022049,0.071983 -0.064202,0.088844 -0.042152,0.01686 -0.1005156,0.020751 -0.145262,0.00778 -0.044746,-0.01297 -0.075874,-0.042801 -0.087547,-0.070686 -0.011673,-0.027885 -0.00389,-0.053825 0.00713,-0.070685 0.011024,-0.01686 0.025292,-0.024643 0.032426,-0.028534 0.00713,-0.00389 0.00713,-0.00389 0.00973,-0.00648 z"
       id="path201"
       transform="matrix(1.1061704,0,0,1.1061704,-0.49251824,-1.9220174)" />
    <path
       style="fill:#ffec8c;stroke:none;stroke-width:0.282356;stroke-dasharray:none"
       d="m 4.1315194,4.5446113 c 0.00843,-0.00908 0.020104,-0.010376 0.028535,-0.053826 0.00843,-0.04345 0.013619,-0.1290497 0.00778,-0.1802808 -0.00584,-0.051231 -0.022698,-0.068092 -0.083657,-0.047988 -0.06096,0.020104 -0.166014,0.07717 -0.2042749,0.130996 -0.038261,0.053826 -0.00973,0.1044075 0.031777,0.1400751 0.041504,0.035667 0.095976,0.056419 0.1316432,0.062904 0.035667,0.00649 0.052529,-0.0013 0.063553,-0.013619 0.011025,-0.012322 0.016212,-0.029183 0.024642,-0.038261 z"
       id="path247"
       transform="matrix(1.1061704,0,0,1.1061704,-0.7055593,-1.6481075)" />
    <path
       style="fill:#ffec8c;stroke:none;stroke-width:0.282356;stroke-dasharray:none"
       d="m 4.1315194,4.5446113 c 0.00843,-0.00908 0.020104,-0.010376 0.028535,-0.053826 0.00843,-0.04345 0.013619,-0.1290497 0.00778,-0.1802808 -0.00584,-0.051231 -0.022698,-0.068092 -0.083657,-0.047988 -0.06096,0.020104 -0.166014,0.07717 -0.2042749,0.130996 -0.038261,0.053826 -0.00973,0.1044075 0.031777,0.1400751 0.041504,0.035667 0.095976,0.056419 0.1316432,0.062904 0.035667,0.00649 0.052529,-0.0013 0.063553,-0.013619 0.011025,-0.012322 0.016212,-0.029183 0.024642,-0.038261 z"
       id="path251"
       transform="matrix(1.1061704,0,0,1.1061704,-0.44991003,-1.5872386)" />
    <path
       style="fill:#ffec8c;stroke:none;stroke-width:0.282356;stroke-dasharray:none"
       d="m 4.1315194,4.5446113 c 0.00843,-0.00908 0.020104,-0.010376 0.028535,-0.053826 0.00843,-0.04345 0.013619,-0.1290497 0.00778,-0.1802808 -0.00584,-0.051231 -0.022698,-0.068092 -0.083657,-0.047988 -0.06096,0.020104 -0.166014,0.07717 -0.2042749,0.130996 -0.038261,0.053826 -0.00973,0.1044075 0.031777,0.1400751 0.041504,0.035667 0.095976,0.056419 0.1316432,0.062904 0.035667,0.00649 0.052529,-0.0013 0.063553,-0.013619 0.011025,-0.012322 0.016212,-0.029183 0.024642,-0.038261 z"
       id="path255"
       transform="matrix(1.1061704,0,0,1.1061704,-0.77860195,-1.9585387)" />
    <path
       style="fill:#ffec8c;stroke:none;stroke-width:0.282356;stroke-dasharray:none"
       d="m 4.1315194,4.5446113 c 0.00843,-0.00908 0.020104,-0.010376 0.028535,-0.053826 0.00843,-0.04345 0.013619,-0.1290497 0.00778,-0.1802808 -0.00584,-0.051231 -0.022698,-0.068092 -0.083657,-0.047988 -0.06096,0.020104 -0.166014,0.07717 -0.2042749,0.130996 -0.038261,0.053826 -0.00973,0.1044075 0.031777,0.1400751 0.041504,0.035667 0.095976,0.056419 0.1316432,0.062904 0.035667,0.00649 0.052529,-0.0013 0.063553,-0.013619 0.011025,-0.012322 0.016212,-0.029183 0.024642,-0.038261 z"
       id="path259"
       transform="matrix(1.1061704,0,0,1.1061704,-0.16991322,-1.99506)" />
    <path
       style="fill:#ffec8c;stroke:none;stroke-width:0.282356;stroke-dasharray:none"
       d="m 4.1315194,4.5446113 c 0.00843,-0.00908 0.020104,-0.010376 0.028535,-0.053826 0.00843,-0.04345 0.013619,-0.1290497 0.00778,-0.1802808 -0.00584,-0.051231 -0.022698,-0.068092 -0.083657,-0.047988 -0.06096,0.020104 -0.166014,0.07717 -0.2042749,0.130996 -0.038261,0.053826 -0.00973,0.1044075 0.031777,0.1400751 0.041504,0.035667 0.095976,0.056419 0.1316432,0.062904 0.035667,0.00649 0.052529,-0.0013 0.063553,-0.013619 0.011025,-0.012322 0.016212,-0.029183 0.024642,-0.038261 z"
       id="path263"
       transform="matrix(1.1061704,0,0,1.1061704,-0.29165096,-2.3115781)" />
    <path
       style="fill:#ffec8c;stroke:none;stroke-width:0.282356;stroke-dasharray:none"
       d="m 4.1315194,4.5446113 c 0.00843,-0.00908 0.020104,-0.010376 0.028535,-0.053826 0.00843,-0.04345 0.013619,-0.1290497 0.00778,-0.1802808 -0.00584,-0.051231 -0.022698,-0.068092 -0.083657,-0.047988 -0.06096,0.020104 -0.166014,0.07717 -0.2042749,0.130996 -0.038261,0.053826 -0.00973,0.1044075 0.031777,0.1400751 0.041504,0.035667 0.095976,0.056419 0.1316432,0.062904 0.035667,0.00649 0.052529,-0.0013 0.063553,-0.013619 0.011025,-0.012322 0.016212,-0.029183 0.024642,-0.038261 z"
       id="path267"
       transform="matrix(1.1061704,0,0,1.1061704,-0.51686579,-2.2385355)" />
    <path
       style="fill:#ffec8c;stroke:none;stroke-width:0.282356;stroke-dasharray:none"
       d="m 4.1315194,4.5446113 c 0.00843,-0.00908 0.020104,-0.010376 0.028535,-0.053826 0.00843,-0.04345 0.013619,-0.1290497 0.00778,-0.1802808 -0.00584,-0.051231 -0.022698,-0.068092 -0.083657,-0.047988 -0.06096,0.020104 -0.166014,0.07717 -0.2042749,0.130996 -0.038261,0.053826 -0.00973,0.1044075 0.031777,0.1400751 0.041504,0.035667 0.095976,0.056419 0.1316432,0.062904 0.035667,0.00649 0.052529,-0.0013 0.063553,-0.013619 0.011025,-0.012322 0.016212,-0.029183 0.024642,-0.038261 z"
       id="path270"
       transform="matrix(1.1061704,0,0,1.1061704,-0.9003397,-1.8550616)" />
    <path
       style="fill:#ffec8c;stroke:none;stroke-width:0.282356;stroke-dasharray:none"
       d="m 4.1315194,4.5446113 c 0.00843,-0.00908 0.020104,-0.010376 0.028535,-0.053826 0.00843,-0.04345 0.013619,-0.1290497 0.00778,-0.1802808 -0.00584,-0.051231 -0.022698,-0.068092 -0.083657,-0.047988 -0.06096,0.020104 -0.166014,0.07717 -0.2042749,0.130996 -0.038261,0.053826 -0.00973,0.1044075 0.031777,0.1400751 0.041504,0.035667 0.095976,0.056419 0.1316432,0.062904 0.035667,0.00649 0.052529,-0.0013 0.063553,-0.013619 0.011025,-0.012322 0.016212,-0.029183 0.024642,-0.038261 z"
       id="path272"
       transform="matrix(1.1061704,0,0,1.1061704,-1.0159905,-1.4776746)" />
    <path
       style="fill:#ffec8c;stroke:none;stroke-width:0.282356;stroke-dasharray:none"
       d="m 4.1315194,4.5446113 c 0.00843,-0.00908 0.020104,-0.010376 0.028535,-0.053826 0.00843,-0.04345 0.013619,-0.1290497 0.00778,-0.1802808 -0.00584,-0.051231 -0.022698,-0.068092 -0.083657,-0.047988 -0.06096,0.020104 -0.166014,0.07717 -0.2042749,0.130996 -0.038261,0.053826 -0.00973,0.1044075 0.031777,0.1400751 0.041504,0.035667 0.095976,0.056419 0.1316432,0.062904 0.035667,0.00649 0.052529,-0.0013 0.063553,-0.013619 0.011025,-0.012322 0.016212,-0.029183 0.024642,-0.038261 z"
       id="path274"
       transform="matrix(1.1061704,0,0,1.1061704,-0.67512487,-1.4776746)" />
    <path
       style="fill:#ffec8c;stroke:none;stroke-width:0.282356;stroke-dasharray:none"
       d="m 4.1315194,4.5446113 c 0.00843,-0.00908 0.020104,-0.010376 0.028535,-0.053826 0.00843,-0.04345 0.013619,-0.1290497 0.00778,-0.1802808 -0.00584,-0.051231 -0.022698,-0.068092 -0.083657,-0.047988 -0.06096,0.020104 -0.166014,0.07717 -0.2042749,0.130996 -0.038261,0.053826 -0.00973,0.1044075 0.031777,0.1400751 0.041504,0.035667 0.095976,0.056419 0.1316432,0.062904 0.035667,0.00649 0.052529,-0.0013 0.063553,-0.013619 0.011025,-0.012322 0.016212,-0.029183 0.024642,-0.038261 z"
       id="path276"
       transform="matrix(1.1061704,0,0,1.1061704,-0.44991004,-1.3315893)" />
    <path
       style="fill:#ffec8c;stroke:none;stroke-width:0.282356;stroke-dasharray:none"
       d="m 4.1315194,4.5446113 c 0.00843,-0.00908 0.020104,-0.010376 0.028535,-0.053826 0.00843,-0.04345 0.013619,-0.1290497 0.00778,-0.1802808 -0.00584,-0.051231 -0.022698,-0.068092 -0.083657,-0.047988 -0.06096,0.020104 -0.166014,0.07717 -0.2042749,0.130996 -0.038261,0.053826 -0.00973,0.1044075 0.031777,0.1400751 0.041504,0.035667 0.095976,0.056419 0.1316432,0.062904 0.035667,0.00649 0.052529,-0.0013 0.063553,-0.013619 0.011025,-0.012322 0.016212,-0.029183 0.024642,-0.038261 z"
       id="path280"
       transform="matrix(1.1061704,0,0,1.1061704,-0.14556568,-1.3802844)" />
    <path
       style="fill:#ffec8c;stroke:none;stroke-width:0.282356;stroke-dasharray:none"
       d="m 4.1315194,4.5446113 c 0.00843,-0.00908 0.020104,-0.010376 0.028535,-0.053826 0.00843,-0.04345 0.013619,-0.1290497 0.00778,-0.1802808 -0.00584,-0.051231 -0.022698,-0.068092 -0.083657,-0.047988 -0.06096,0.020104 -0.166014,0.07717 -0.2042749,0.130996 -0.038261,0.053826 -0.00973,0.1044075 0.031777,0.1400751 0.041504,0.035667 0.095976,0.056419 0.1316432,0.062904 0.035667,0.00649 0.052529,-0.0013 0.063553,-0.013619 0.011025,-0.012322 0.016212,-0.029183 0.024642,-0.038261 z"
       id="path283"
       transform="matrix(1.1061704,0,0,1.1061704,-0.25512965,-1.6054992)" />
    <path
       style="fill:#ffec8c;stroke:none;stroke-width:0.282356;stroke-dasharray:none"
       d="m 4.1315194,4.5446113 c 0.00843,-0.00908 0.020104,-0.010376 0.028535,-0.053826 0.00843,-0.04345 0.013619,-0.1290497 0.00778,-0.1802808 -0.00584,-0.051231 -0.022698,-0.068092 -0.083657,-0.047988 -0.06096,0.020104 -0.166014,0.07717 -0.2042749,0.130996 -0.038261,0.053826 -0.00973,0.1044075 0.031777,0.1400751 0.041504,0.035667 0.095976,0.056419 0.1316432,0.062904 0.035667,0.00649 0.052529,-0.0013 0.063553,-0.013619 0.011025,-0.012322 0.016212,-0.029183 0.024642,-0.038261 z"
       id="path287"
       transform="matrix(1.1061704,0,0,1.1061704,0.06747538,-1.6359337)" />
    <path
       style="fill:#ffec8c;stroke:none;stroke-width:0.282356;stroke-dasharray:none"
       d="m 4.1315194,4.5446113 c 0.00843,-0.00908 0.020104,-0.010376 0.028535,-0.053826 0.00843,-0.04345 0.013619,-0.1290497 0.00778,-0.1802808 -0.00584,-0.051231 -0.022698,-0.068092 -0.083657,-0.047988 -0.06096,0.020104 -0.166014,0.07717 -0.2042749,0.130996 -0.038261,0.053826 -0.00973,0.1044075 0.031777,0.1400751 0.041504,0.035667 0.095976,0.056419 0.1316432,0.062904 0.035667,0.00649 0.052529,-0.0013 0.063553,-0.013619 0.011025,-0.012322 0.016212,-0.029183 0.024642,-0.038261 z"
       id="path291"
       transform="matrix(1.1061704,0,0,1.1061704,0.14051803,-1.8489747)" />
    <path
       style="fill:#ffec8c;stroke:none;stroke-width:0.282356;stroke-dasharray:none"
       d="m 4.1315194,4.5446113 c 0.00843,-0.00908 0.020104,-0.010376 0.028535,-0.053826 0.00843,-0.04345 0.013619,-0.1290497 0.00778,-0.1802808 -0.00584,-0.051231 -0.022698,-0.068092 -0.083657,-0.047988 -0.06096,0.020104 -0.166014,0.07717 -0.2042749,0.130996 -0.038261,0.053826 -0.00973,0.1044075 0.031777,0.1400751 0.041504,0.035667 0.095976,0.056419 0.1316432,0.062904 0.035667,0.00649 0.052529,-0.0013 0.063553,-0.013619 0.011025,-0.012322 0.016212,-0.029183 0.024642,-0.038261 z"
       id="path295"
       transform="matrix(1.1061704,0,0,1.1061704,0.0613885,-2.1167978)" />
    <path
       style="fill:#ffec8c;stroke:none;stroke-width:0.282356;stroke-dasharray:none"
       d="m 4.1315194,4.5446113 c 0.00843,-0.00908 0.020104,-0.010376 0.028535,-0.053826 0.00843,-0.04345 0.013619,-0.1290497 0.00778,-0.1802808 -0.00584,-0.051231 -0.022698,-0.068092 -0.083657,-0.047988 -0.06096,0.020104 -0.166014,0.07717 -0.2042749,0.130996 -0.038261,0.053826 -0.00973,0.1044075 0.031777,0.1400751 0.041504,0.035667 0.095976,0.056419 0.1316432,0.062904 0.035667,0.00649 0.052529,-0.0013 0.063553,-0.013619 0.011025,-0.012322 0.016212,-0.029183 0.024642,-0.038261 z"
       id="path399"
       transform="matrix(1.1061704,0,0,1.1061704,-0.81755086,-1.2403252)" />
    <path
       style="fill:#ffec8c;stroke:none;stroke-width:0.282356;stroke-dasharray:none"
       d="m 4.1315194,4.5446113 c 0.00843,-0.00908 0.020104,-0.010376 0.028535,-0.053826 0.00843,-0.04345 0.013619,-0.1290497 0.00778,-0.1802808 -0.00584,-0.051231 -0.022698,-0.068092 -0.083657,-0.047988 -0.06096,0.020104 -0.166014,0.07717 -0.2042749,0.130996 -0.038261,0.053826 -0.00973,0.1044075 0.031777,0.1400751 0.041504,0.035667 0.095976,0.056419 0.1316432,0.062904 0.035667,0.00649 0.052529,-0.0013 0.063553,-0.013619 0.011025,-0.012322 0.016212,-0.029183 0.024642,-0.038261 z"
       id="path401"
       transform="matrix(1.1061704,0,0,1.1061704,-0.40510769,-1.0963592)" />
    <path
       style="fill:#ffec8c;stroke:none;stroke-width:0.282356;stroke-dasharray:none"
       d="m 4.1315194,4.5446113 c 0.00843,-0.00908 0.020104,-0.010376 0.028535,-0.053826 0.00843,-0.04345 0.013619,-0.1290497 0.00778,-0.1802808 -0.00584,-0.051231 -0.022698,-0.068092 -0.083657,-0.047988 -0.06096,0.020104 -0.166014,0.07717 -0.2042749,0.130996 -0.038261,0.053826 -0.00973,0.1044075 0.031777,0.1400751 0.041504,0.035667 0.095976,0.056419 0.1316432,0.062904 0.035667,0.00649 0.052529,-0.0013 0.063553,-0.013619 0.011025,-0.012322 0.016212,-0.029183 0.024642,-0.038261 z"
       id="path403"
       transform="matrix(1.1061704,0,0,1.1061704,-0.11717566,-1.1741787)" />
    <path
       style="fill:#ffec8c;stroke:none;stroke-width:0.282356;stroke-dasharray:none"
       d="m 4.1315194,4.5446113 c 0.00843,-0.00908 0.020104,-0.010376 0.028535,-0.053826 0.00843,-0.04345 0.013619,-0.1290497 0.00778,-0.1802808 -0.00584,-0.051231 -0.022698,-0.068092 -0.083657,-0.047988 -0.06096,0.020104 -0.166014,0.07717 -0.2042749,0.130996 -0.038261,0.053826 -0.00973,0.1044075 0.031777,0.1400751 0.041504,0.035667 0.095976,0.056419 0.1316432,0.062904 0.035667,0.00649 0.052529,-0.0013 0.063553,-0.013619 0.011025,-0.012322 0.016212,-0.029183 0.024642,-0.038261 z"
       id="path405"
       transform="matrix(1.1061704,0,0,1.1061704,-0.71249458,-1.131378)" />
    <path
       style="fill:#ffec8c;stroke:none;stroke-width:0.282356;stroke-dasharray:none"
       d="m 4.1315194,4.5446113 c 0.00843,-0.00908 0.020104,-0.010376 0.028535,-0.053826 0.00843,-0.04345 0.013619,-0.1290497 0.00778,-0.1802808 -0.00584,-0.051231 -0.022698,-0.068092 -0.083657,-0.047988 -0.06096,0.020104 -0.166014,0.07717 -0.2042749,0.130996 -0.038261,0.053826 -0.00973,0.1044075 0.031777,0.1400751 0.041504,0.035667 0.095976,0.056419 0.1316432,0.062904 0.035667,0.00649 0.052529,-0.0013 0.063553,-0.013619 0.011025,-0.012322 0.016212,-0.029183 0.024642,-0.038261 z"
       id="path407"
       transform="matrix(1.1061704,0,0,1.1061704,-1.1015919,-1.2519982)" />
    <path
       style="fill:#ffec8c;stroke:none;stroke-width:0.282356;stroke-dasharray:none"
       d="m 4.1315194,4.5446113 c 0.00843,-0.00908 0.020104,-0.010376 0.028535,-0.053826 0.00843,-0.04345 0.013619,-0.1290497 0.00778,-0.1802808 -0.00584,-0.051231 -0.022698,-0.068092 -0.083657,-0.047988 -0.06096,0.020104 -0.166014,0.07717 -0.2042749,0.130996 -0.038261,0.053826 -0.00973,0.1044075 0.031777,0.1400751 0.041504,0.035667 0.095976,0.056419 0.1316432,0.062904 0.035667,0.00649 0.052529,-0.0013 0.063553,-0.013619 0.011025,-0.012322 0.016212,-0.029183 0.024642,-0.038261 z"
       id="path409"
       transform="matrix(1.1061704,0,0,1.1061704,-0.49849104,-0.92904741)" />
    <path
       style="fill:#ffec8c;stroke:none;stroke-width:0.282356;stroke-dasharray:none"
       d="m 4.1315194,4.5446113 c 0.00843,-0.00908 0.020104,-0.010376 0.028535,-0.053826 0.00843,-0.04345 0.013619,-0.1290497 0.00778,-0.1802808 -0.00584,-0.051231 -0.022698,-0.068092 -0.083657,-0.047988 -0.06096,0.020104 -0.166014,0.07717 -0.2042749,0.130996 -0.038261,0.053826 -0.00973,0.1044075 0.031777,0.1400751 0.041504,0.035667 0.095976,0.056419 0.1316432,0.062904 0.035667,0.00649 0.052529,-0.0013 0.063553,-0.013619 0.011025,-0.012322 0.016212,-0.029183 0.024642,-0.038261 z"
       id="path411"
       transform="matrix(1.1061704,0,0,1.1061704,-0.16775831,-0.95628422)" />
    <path
       style="fill:#ffec8c;stroke:none;stroke-width:0.282356;stroke-dasharray:none"
       d="m 4.1315194,4.5446113 c 0.00843,-0.00908 0.020104,-0.010376 0.028535,-0.053826 0.00843,-0.04345 0.013619,-0.1290497 0.00778,-0.1802808 -0.00584,-0.051231 -0.022698,-0.068092 -0.083657,-0.047988 -0.06096,0.020104 -0.166014,0.07717 -0.2042749,0.130996 -0.038261,0.053826 -0.00973,0.1044075 0.031777,0.1400751 0.041504,0.035667 0.095976,0.056419 0.1316432,0.062904 0.035667,0.00649 0.052529,-0.0013 0.063553,-0.013619 0.011025,-0.012322 0.016212,-0.029183 0.024642,-0.038261 z"
       id="path413"
       transform="matrix(1.1061704,0,0,1.1061704,0.14741053,-1.4154191)" />
    <path
       style="fill:#ffec8c;stroke:none;stroke-width:0.282356;stroke-dasharray:none"
       d="m 4.1315194,4.5446113 c 0.00843,-0.00908 0.020104,-0.010376 0.028535,-0.053826 0.00843,-0.04345 0.013619,-0.1290497 0.00778,-0.1802808 -0.00584,-0.051231 -0.022698,-0.068092 -0.083657,-0.047988 -0.06096,0.020104 -0.166014,0.07717 -0.2042749,0.130996 -0.038261,0.053826 -0.00973,0.1044075 0.031777,0.1400751 0.041504,0.035667 0.095976,0.056419 0.1316432,0.062904 0.035667,0.00649 0.052529,-0.0013 0.063553,-0.013619 0.011025,-0.012322 0.016212,-0.029183 0.024642,-0.038261 z"
       id="path415"
       transform="matrix(1.1061704,0,0,1.1061704,0.0929369,-1.13916)" />
  </g>
  <g
     id="g319"
     transform="matrix(-1.0624885,0,0,1.0624885,25.664535,-0.26453462)">
    <path
       style="fill:#86a336;stroke:none;stroke-width:0.282356;stroke-dasharray:none"
       d="m 3.8962623,6.786145 c 0.040353,-0.022011 0.040353,-0.022011 0.040353,-0.022011 C 3.8008827,6.6247335 3.6651503,6.4853326 3.5385878,6.3844497 3.4120253,6.2835668 3.2946374,6.2212046 3.1460636,6.1936913 2.9974897,6.166178 2.8177395,6.1735149 2.7645477,6.267062 c -0.053192,0.093547 0.020176,0.2732974 0.1577444,0.3925224 0.1375687,0.1192251 0.3393291,0.177919 0.4787309,0.2072666 0.1394018,0.029348 0.2164374,0.029348 0.2953095,0.00734 0.078872,-0.022011 0.159577,-0.066032 0.1999298,-0.088043 z"
       id="path299"
       transform="rotate(-37.056459,1.4122164,5.5432755)" />
    <path
       style="fill:#86a336;stroke:none;stroke-width:0.282356;stroke-dasharray:none"
       d="m 3.8962623,6.786145 c 0.040353,-0.022011 0.040353,-0.022011 0.040353,-0.022011 C 3.8008827,6.6247335 3.6651503,6.4853326 3.5385878,6.3844497 3.4120253,6.2835668 3.2946374,6.2212046 3.1460636,6.1936913 2.9974897,6.166178 2.8177395,6.1735149 2.7645477,6.267062 c -0.053192,0.093547 0.020176,0.2732974 0.1577444,0.3925224 0.1375687,0.1192251 0.3393291,0.177919 0.4787309,0.2072666 0.1394018,0.029348 0.2164374,0.029348 0.2953095,0.00734 0.078872,-0.022011 0.159577,-0.066032 0.1999298,-0.088043 z"
       id="path300"
       transform="matrix(-1,0,0,1,7.8642764,-0.69770482)" />
    <rect
       style="fill:#bdca31;fill-opacity:0;stroke:none;stroke-width:0.497953"
       id="rect300"
       width="7.9687138"
       height="7.9687138"
       x="0.24897645"
       y="0.24897645" />
    <path
       style="fill:#86a336;stroke:#bdca31;stroke-width:0.282356;stroke-dasharray:none"
       d="M 4.2488975,7.314984 C 4.1866419,7.1852848 4.1243864,7.0555857 4.0984467,6.8791927 4.0725069,6.7027997 4.0828825,6.4797258 4.0828357,6.3446262 4.082789,6.2095265 4.0723197,6.1624156 4.0684917,6.0139327 4.0646636,5.8654497 4.067477,5.6155967 4.0653231,5.3666335 4.0631693,5.1176704 4.0560483,4.8695983 4.0489273,4.6215256"
       id="path301" />
    <path
       style="fill:#86a336;stroke:none;stroke-width:0.282356;stroke-dasharray:none"
       d="m 3.8962623,6.786145 c 0.040353,-0.022011 0.040353,-0.022011 0.040353,-0.022011 C 3.8008827,6.6247335 3.6651503,6.4853326 3.5385878,6.3844497 3.4120253,6.2835668 3.2946374,6.2212046 3.1460636,6.1936913 2.9974897,6.166178 2.8177395,6.1735149 2.7645477,6.267062 c -0.053192,0.093547 0.020176,0.2732974 0.1577444,0.3925224 0.1375687,0.1192251 0.3393291,0.177919 0.4787309,0.2072666 0.1394018,0.029348 0.2164374,0.029348 0.2953095,0.00734 0.078872,-0.022011 0.159577,-0.066032 0.1999298,-0.088043 z"
       id="path302"
       transform="translate(0.23111202,-0.04402134)" />
    <ellipse
       style="fill:#457b47;stroke:none;stroke-width:0.282356;stroke-dasharray:none"
       id="ellipse302"
       cx="-4.0667906"
       cy="4.296783"
       transform="scale(-1,1)"
       rx="0.30814934"
       ry="0.46222407" />
    <path
       style="fill:#ffec8c;stroke:none;stroke-width:0.282356;stroke-dasharray:none"
       d="m 4.1315194,4.5446113 c 0.00843,-0.00908 0.020104,-0.010376 0.028535,-0.053826 0.00843,-0.04345 0.013619,-0.1290497 0.00778,-0.1802808 -0.00584,-0.051231 -0.022698,-0.068092 -0.083657,-0.047988 -0.06096,0.020104 -0.166014,0.07717 -0.2042749,0.130996 -0.038261,0.053826 -0.00973,0.1044075 0.031777,0.1400751 0.041504,0.035667 0.095976,0.056419 0.1316432,0.062904 0.035667,0.00649 0.052529,-0.0013 0.063553,-0.013619 0.011025,-0.012322 0.016212,-0.029183 0.024642,-0.038261 z"
       id="path303"
       transform="translate(0,-0.59428806)" />
    <path
       style="fill:#ffec8c;stroke:none;stroke-width:0.282356;stroke-dasharray:none"
       d="m 4.2125833,4.4914332 c 0.00259,-0.0026 0.00778,-0.00778 0.037613,-0.020103 0.029831,-0.012321 0.084303,-0.031776 0.1284011,-0.014266 0.044098,0.01751 0.077819,0.071982 0.08171,0.1141346 0.00389,0.042152 -0.022049,0.071983 -0.064202,0.088844 -0.042152,0.01686 -0.1005156,0.020751 -0.145262,0.00778 -0.044746,-0.01297 -0.075874,-0.042801 -0.087547,-0.070686 -0.011673,-0.027885 -0.00389,-0.053825 0.00713,-0.070685 0.011024,-0.01686 0.025292,-0.024643 0.032426,-0.028534 0.00713,-0.00389 0.00713,-0.00389 0.00973,-0.00648 z"
       id="path304"
       transform="translate(0,-0.59428806)" />
    <path
       style="fill:#ffec8c;stroke:none;stroke-width:0.282356;stroke-dasharray:none"
       d="m 4.1315194,4.5446113 c 0.00843,-0.00908 0.020104,-0.010376 0.028535,-0.053826 0.00843,-0.04345 0.013619,-0.1290497 0.00778,-0.1802808 -0.00584,-0.051231 -0.022698,-0.068092 -0.083657,-0.047988 -0.06096,0.020104 -0.166014,0.07717 -0.2042749,0.130996 -0.038261,0.053826 -0.00973,0.1044075 0.031777,0.1400751 0.041504,0.035667 0.095976,0.056419 0.1316432,0.062904 0.035667,0.00649 0.052529,-0.0013 0.063553,-0.013619 0.011025,-0.012322 0.016212,-0.029183 0.024642,-0.038261 z"
       id="path305"
       transform="translate(-0.19259335,-0.34666803)" />
    <path
       style="fill:#ffec8c;stroke:none;stroke-width:0.282356;stroke-dasharray:none"
       d="m 4.1315194,4.5446113 c 0.00843,-0.00908 0.020104,-0.010376 0.028535,-0.053826 0.00843,-0.04345 0.013619,-0.1290497 0.00778,-0.1802808 -0.00584,-0.051231 -0.022698,-0.068092 -0.083657,-0.047988 -0.06096,0.020104 -0.166014,0.07717 -0.2042749,0.130996 -0.038261,0.053826 -0.00973,0.1044075 0.031777,0.1400751 0.041504,0.035667 0.095976,0.056419 0.1316432,0.062904 0.035667,0.00649 0.052529,-0.0013 0.063553,-0.013619 0.011025,-0.012322 0.016212,-0.029183 0.024642,-0.038261 z"
       id="path306"
       transform="translate(0.03851867,-0.29164136)" />
    <path
       style="fill:#ffec8c;stroke:none;stroke-width:0.282356;stroke-dasharray:none"
       d="m 4.1315194,4.5446113 c 0.00843,-0.00908 0.020104,-0.010376 0.028535,-0.053826 0.00843,-0.04345 0.013619,-0.1290497 0.00778,-0.1802808 -0.00584,-0.051231 -0.022698,-0.068092 -0.083657,-0.047988 -0.06096,0.020104 -0.166014,0.07717 -0.2042749,0.130996 -0.038261,0.053826 -0.00973,0.1044075 0.031777,0.1400751 0.041504,0.035667 0.095976,0.056419 0.1316432,0.062904 0.035667,0.00649 0.052529,-0.0013 0.063553,-0.013619 0.011025,-0.012322 0.016212,-0.029183 0.024642,-0.038261 z"
       id="path307"
       transform="translate(-0.25862536,-0.62730406)" />
    <path
       style="fill:#ffec8c;stroke:none;stroke-width:0.282356;stroke-dasharray:none"
       d="m 4.1315194,4.5446113 c 0.00843,-0.00908 0.020104,-0.010376 0.028535,-0.053826 0.00843,-0.04345 0.013619,-0.1290497 0.00778,-0.1802808 -0.00584,-0.051231 -0.022698,-0.068092 -0.083657,-0.047988 -0.06096,0.020104 -0.166014,0.07717 -0.2042749,0.130996 -0.038261,0.053826 -0.00973,0.1044075 0.031777,0.1400751 0.041504,0.035667 0.095976,0.056419 0.1316432,0.062904 0.035667,0.00649 0.052529,-0.0013 0.063553,-0.013619 0.011025,-0.012322 0.016212,-0.029183 0.024642,-0.038261 z"
       id="path308"
       transform="translate(0.29164136,-0.66032006)" />
    <path
       style="fill:#ffec8c;stroke:none;stroke-width:0.282356;stroke-dasharray:none"
       d="m 4.1315194,4.5446113 c 0.00843,-0.00908 0.020104,-0.010376 0.028535,-0.053826 0.00843,-0.04345 0.013619,-0.1290497 0.00778,-0.1802808 -0.00584,-0.051231 -0.022698,-0.068092 -0.083657,-0.047988 -0.06096,0.020104 -0.166014,0.07717 -0.2042749,0.130996 -0.038261,0.053826 -0.00973,0.1044075 0.031777,0.1400751 0.041504,0.035667 0.095976,0.056419 0.1316432,0.062904 0.035667,0.00649 0.052529,-0.0013 0.063553,-0.013619 0.011025,-0.012322 0.016212,-0.029183 0.024642,-0.038261 z"
       id="path309"
       transform="translate(0.18158802,-0.94645876)" />
    <path
       style="fill:#ffec8c;stroke:none;stroke-width:0.282356;stroke-dasharray:none"
       d="m 4.1315194,4.5446113 c 0.00843,-0.00908 0.020104,-0.010376 0.028535,-0.053826 0.00843,-0.04345 0.013619,-0.1290497 0.00778,-0.1802808 -0.00584,-0.051231 -0.022698,-0.068092 -0.083657,-0.047988 -0.06096,0.020104 -0.166014,0.07717 -0.2042749,0.130996 -0.038261,0.053826 -0.00973,0.1044075 0.031777,0.1400751 0.041504,0.035667 0.095976,0.056419 0.1316432,0.062904 0.035667,0.00649 0.052529,-0.0013 0.063553,-0.013619 0.011025,-0.012322 0.016212,-0.029183 0.024642,-0.038261 z"
       id="path310"
       transform="translate(-0.02201067,-0.88042675)" />
    <path
       style="fill:#ffec8c;stroke:none;stroke-width:0.282356;stroke-dasharray:none"
       d="m 4.1315194,4.5446113 c 0.00843,-0.00908 0.020104,-0.010376 0.028535,-0.053826 0.00843,-0.04345 0.013619,-0.1290497 0.00778,-0.1802808 -0.00584,-0.051231 -0.022698,-0.068092 -0.083657,-0.047988 -0.06096,0.020104 -0.166014,0.07717 -0.2042749,0.130996 -0.038261,0.053826 -0.00973,0.1044075 0.031777,0.1400751 0.041504,0.035667 0.095976,0.056419 0.1316432,0.062904 0.035667,0.00649 0.052529,-0.0013 0.063553,-0.013619 0.011025,-0.012322 0.016212,-0.029183 0.024642,-0.038261 z"
       id="path311"
       transform="translate(-0.36867871,-0.53375871)" />
    <path
       style="fill:#ffec8c;stroke:none;stroke-width:0.282356;stroke-dasharray:none"
       d="m 4.1315194,4.5446113 c 0.00843,-0.00908 0.020104,-0.010376 0.028535,-0.053826 0.00843,-0.04345 0.013619,-0.1290497 0.00778,-0.1802808 -0.00584,-0.051231 -0.022698,-0.068092 -0.083657,-0.047988 -0.06096,0.020104 -0.166014,0.07717 -0.2042749,0.130996 -0.038261,0.053826 -0.00973,0.1044075 0.031777,0.1400751 0.041504,0.035667 0.095976,0.056419 0.1316432,0.062904 0.035667,0.00649 0.052529,-0.0013 0.063553,-0.013619 0.011025,-0.012322 0.016212,-0.029183 0.024642,-0.038261 z"
       id="path312"
       transform="translate(-0.47322939,-0.19259334)" />
    <path
       style="fill:#ffec8c;stroke:none;stroke-width:0.282356;stroke-dasharray:none"
       d="m 4.1315194,4.5446113 c 0.00843,-0.00908 0.020104,-0.010376 0.028535,-0.053826 0.00843,-0.04345 0.013619,-0.1290497 0.00778,-0.1802808 -0.00584,-0.051231 -0.022698,-0.068092 -0.083657,-0.047988 -0.06096,0.020104 -0.166014,0.07717 -0.2042749,0.130996 -0.038261,0.053826 -0.00973,0.1044075 0.031777,0.1400751 0.041504,0.035667 0.095976,0.056419 0.1316432,0.062904 0.035667,0.00649 0.052529,-0.0013 0.063553,-0.013619 0.011025,-0.012322 0.016212,-0.029183 0.024642,-0.038261 z"
       id="path313"
       transform="translate(-0.47322939,-0.19259334)" />
    <path
       style="fill:#ffec8c;stroke:none;stroke-width:0.282356;stroke-dasharray:none"
       d="m 4.1315194,4.5446113 c 0.00843,-0.00908 0.020104,-0.010376 0.028535,-0.053826 0.00843,-0.04345 0.013619,-0.1290497 0.00778,-0.1802808 -0.00584,-0.051231 -0.022698,-0.068092 -0.083657,-0.047988 -0.06096,0.020104 -0.166014,0.07717 -0.2042749,0.130996 -0.038261,0.053826 -0.00973,0.1044075 0.031777,0.1400751 0.041504,0.035667 0.095976,0.056419 0.1316432,0.062904 0.035667,0.00649 0.052529,-0.0013 0.063553,-0.013619 0.011025,-0.012322 0.016212,-0.029183 0.024642,-0.038261 z"
       id="path314"
       transform="translate(0.03851866,-0.06052933)" />
    <path
       style="fill:#ffec8c;stroke:none;stroke-width:0.282356;stroke-dasharray:none"
       d="m 4.1315194,4.5446113 c 0.00843,-0.00908 0.020104,-0.010376 0.028535,-0.053826 0.00843,-0.04345 0.013619,-0.1290497 0.00778,-0.1802808 -0.00584,-0.051231 -0.022698,-0.068092 -0.083657,-0.047988 -0.06096,0.020104 -0.166014,0.07717 -0.2042749,0.130996 -0.038261,0.053826 -0.00973,0.1044075 0.031777,0.1400751 0.041504,0.035667 0.095976,0.056419 0.1316432,0.062904 0.035667,0.00649 0.052529,-0.0013 0.063553,-0.013619 0.011025,-0.012322 0.016212,-0.029183 0.024642,-0.038261 z"
       id="path315"
       transform="translate(0.31365202,-0.10455067)" />
    <path
       style="fill:#ffec8c;stroke:none;stroke-width:0.282356;stroke-dasharray:none"
       d="m 4.1315194,4.5446113 c 0.00843,-0.00908 0.020104,-0.010376 0.028535,-0.053826 0.00843,-0.04345 0.013619,-0.1290497 0.00778,-0.1802808 -0.00584,-0.051231 -0.022698,-0.068092 -0.083657,-0.047988 -0.06096,0.020104 -0.166014,0.07717 -0.2042749,0.130996 -0.038261,0.053826 -0.00973,0.1044075 0.031777,0.1400751 0.041504,0.035667 0.095976,0.056419 0.1316432,0.062904 0.035667,0.00649 0.052529,-0.0013 0.063553,-0.013619 0.011025,-0.012322 0.016212,-0.029183 0.024642,-0.038261 z"
       id="path316"
       transform="translate(0.21460401,-0.30814936)" />
    <path
       style="fill:#ffec8c;stroke:none;stroke-width:0.282356;stroke-dasharray:none"
       d="m 4.1315194,4.5446113 c 0.00843,-0.00908 0.020104,-0.010376 0.028535,-0.053826 0.00843,-0.04345 0.013619,-0.1290497 0.00778,-0.1802808 -0.00584,-0.051231 -0.022698,-0.068092 -0.083657,-0.047988 -0.06096,0.020104 -0.166014,0.07717 -0.2042749,0.130996 -0.038261,0.053826 -0.00973,0.1044075 0.031777,0.1400751 0.041504,0.035667 0.095976,0.056419 0.1316432,0.062904 0.035667,0.00649 0.052529,-0.0013 0.063553,-0.013619 0.011025,-0.012322 0.016212,-0.029183 0.024642,-0.038261 z"
       id="path317"
       transform="translate(0.50624537,-0.3356627)" />
    <path
       style="fill:#ffec8c;stroke:none;stroke-width:0.282356;stroke-dasharray:none"
       d="m 4.1315194,4.5446113 c 0.00843,-0.00908 0.020104,-0.010376 0.028535,-0.053826 0.00843,-0.04345 0.013619,-0.1290497 0.00778,-0.1802808 -0.00584,-0.051231 -0.022698,-0.068092 -0.083657,-0.047988 -0.06096,0.020104 -0.166014,0.07717 -0.2042749,0.130996 -0.038261,0.053826 -0.00973,0.1044075 0.031777,0.1400751 0.041504,0.035667 0.095976,0.056419 0.1316432,0.062904 0.035667,0.00649 0.052529,-0.0013 0.063553,-0.013619 0.011025,-0.012322 0.016212,-0.029183 0.024642,-0.038261 z"
       id="path318"
       transform="translate(0.57227738,-0.52825605)" />
    <path
       style="fill:#ffec8c;stroke:none;stroke-width:0.282356;stroke-dasharray:none"
       d="m 4.1315194,4.5446113 c 0.00843,-0.00908 0.020104,-0.010376 0.028535,-0.053826 0.00843,-0.04345 0.013619,-0.1290497 0.00778,-0.1802808 -0.00584,-0.051231 -0.022698,-0.068092 -0.083657,-0.047988 -0.06096,0.020104 -0.166014,0.07717 -0.2042749,0.130996 -0.038261,0.053826 -0.00973,0.1044075 0.031777,0.1400751 0.041504,0.035667 0.095976,0.056419 0.1316432,0.062904 0.035667,0.00649 0.052529,-0.0013 0.063553,-0.013619 0.011025,-0.012322 0.016212,-0.029183 0.024642,-0.038261 z"
       id="path319"
       transform="translate(0.50074271,-0.77037341)" />
  </g>
</svg>
