<?xml version="1.0" encoding="UTF-8" standalone="no"?>
<!-- Created with Inkscape (http://www.inkscape.org/) -->

<svg
   width="127.99999"
   height="32.000004"
   viewBox="0 0 33.866664 8.4666677"
   version="1.1"
   id="svg1"
   xmlns="http://www.w3.org/2000/svg"
   xmlns:svg="http://www.w3.org/2000/svg">
  <defs
     id="defs1" />
  <g
     id="g75"
     transform="matrix(-1.0624885,0,0,1.0624885,8.7312013,-0.26453462)">
    <rect
       style="fill:#bdca31;fill-opacity:0;stroke:none;stroke-width:0.497953"
       id="rect74"
       width="7.9687138"
       height="7.9687138"
       x="0.24897645"
       y="0.24897645" />
    <path
       style="fill:none;fill-opacity:1;stroke:#457b47;stroke-width:0.2;stroke-dasharray:none"
       d="M -4.6547347,7.4133884 C -4.7482792,7.2185042 -4.8418235,7.0236203 -4.9275732,6.8794052 -5.0133229,6.7351901 -5.091275,6.6416477 -5.1692287,6.5481032"
       id="path324"
       transform="matrix(-0.94118667,0,0,0.94118667,0.24897672,0.24897645)" />
    <path
       style="fill:none;fill-opacity:1;stroke:#457b47;stroke-width:0.2;stroke-dasharray:none"
       d="M -4.6467446,7.4083332 C -4.6687932,6.972873 -4.6908418,6.537413 -4.7514765,6.2204623 -4.8121112,5.9035115 -4.9113279,5.7050781 -5.0105467,5.5066406"
       id="path325"
       transform="matrix(-0.94118667,0,0,0.94118667,0.24897672,0.24897645)" />
    <path
       style="fill:none;fill-opacity:1;stroke:#457b47;stroke-width:0.2;stroke-dasharray:none"
       d="M -4.5805987,7.2760416 C -4.519965,6.972873 -4.4593314,6.6697047 -4.376648,6.3885824 -4.2939647,6.1074601 -4.1892358,5.8483938 -4.0541865,5.6582234 -3.9191371,5.468053 -3.7537758,5.3467881 -3.5884113,5.2255208"
       id="path326"
       transform="matrix(-0.94118667,0,0,0.94118667,0.24897672,0.24897645)" />
    <path
       style="fill:none;fill-opacity:1;stroke:#457b47;stroke-width:0.2;stroke-dasharray:none"
       d="M -4.4979164,7.2595051 C -4.3711368,7.0555553 -4.2443574,6.8516058 -4.1175766,6.6311173 -3.9907959,6.4106289 -3.8640189,6.173611 -3.6903839,5.997221 -3.5167489,5.8208309 -3.2962671,5.705078 -3.0757811,5.5893228"
       id="path327"
       transform="matrix(-0.94118667,0,0,0.94118667,0.24897672,0.24897645)" />
    <ellipse
       style="fill:#51a45c;fill-opacity:1;stroke:none;stroke-width:0.2;stroke-dasharray:none"
       id="path328"
       cx="-5.1841798"
       cy="6.4202795"
       rx="0.15709636"
       ry="0.2273763"
       transform="matrix(-0.94118667,0,0,0.94118667,0.24897672,0.24897645)" />
    <ellipse
       style="fill:#51a45c;fill-opacity:1;stroke:none;stroke-width:0.2;stroke-dasharray:none"
       id="ellipse328"
       cx="-5.0270834"
       cy="5.5521154"
       rx="0.15709636"
       ry="0.2273763"
       transform="matrix(-0.94118667,0,0,0.94118667,0.24897672,0.24897645)" />
    <ellipse
       style="fill:#51a45c;fill-opacity:1;stroke:none;stroke-width:0.2;stroke-dasharray:none"
       id="ellipse329"
       cx="-3.6214845"
       cy="5.2296543"
       rx="0.15709636"
       ry="0.2273763"
       transform="matrix(-0.94118667,0,0,0.94118667,0.24897672,0.24897645)" />
    <ellipse
       style="fill:#51a45c;fill-opacity:1;stroke:none;stroke-width:0.2;stroke-dasharray:none"
       id="ellipse330"
       cx="-3.0344403"
       cy="5.5355787"
       rx="0.15709636"
       ry="0.2273763"
       transform="matrix(-0.94118667,0,0,0.94118667,0.24897672,0.24897645)" />
  </g>
  <g
     id="g336"
     transform="matrix(-1.0624885,0,0,1.0624885,17.197868,-0.26453462)">
    <rect
       style="fill:#bdca31;fill-opacity:0;stroke:none;stroke-width:0.497953"
       id="rect330"
       width="7.9687138"
       height="7.9687138"
       x="0.24897645"
       y="0.24897645" />
    <path
       style="fill:none;fill-opacity:1;stroke:#457b47;stroke-width:0.2;stroke-dasharray:none"
       d="M -4.6547347,7.4133884 C -4.7482792,7.2185042 -4.8418222,7.023623 -4.9079458,6.9029587 -4.9740694,6.7822944 -5.0127702,6.7358534 -5.1233667,6.5848185 -5.2339632,6.4337836 -5.4164548,6.1781557 -5.598948,5.9225255"
       id="path330"
       transform="matrix(-0.94118667,0,0,0.94118667,0.24897672,0.24897645)" />
    <path
       style="fill:none;fill-opacity:1;stroke:#457b47;stroke-width:0.2;stroke-dasharray:none"
       d="M -4.6467446,7.4083332 C -4.6687932,6.972873 -4.6908414,6.5374214 -4.7395936,6.2442318 -4.7883458,5.9510422 -4.863799,5.800136 -4.9007407,5.6444016 -4.9376824,5.4886673 -4.9361124,5.3281053 -4.9345424,5.1675424"
       id="path331"
       transform="matrix(-0.94118667,0,0,0.94118667,0.24897672,0.24897645)" />
    <path
       style="fill:none;fill-opacity:1;stroke:#457b47;stroke-width:0.2;stroke-dasharray:none"
       d="m -4.5805987,7.2760416 c 0.060634,-0.3031686 0.1212673,-0.6063369 0.2039507,-0.8874592 0.082683,-0.2811223 0.1874105,-0.5401844 0.2829409,-0.7013757 0.09553,-0.1611913 0.1818568,-0.2244973 0.2635642,-0.3474936 0.081707,-0.1229962 0.1587959,-0.305682 0.2358851,-0.4883696"
       id="path332"
       transform="matrix(-0.94118667,0,0,0.94118667,0.24897672,0.24897645)" />
    <path
       style="fill:none;fill-opacity:1;stroke:#457b47;stroke-width:0.2;stroke-dasharray:none"
       d="m -4.4979164,7.2595051 c 0.1267796,-0.2039498 0.253559,-0.4078993 0.3832631,-0.6298494 0.1297041,-0.2219501 0.262325,-0.4618867 0.4097286,-0.6244337 0.1474035,-0.1625471 0.3095772,-0.2476883 0.4519754,-0.3460039 0.1423981,-0.098316 0.2650202,-0.2098053 0.3876429,-0.3212957"
       id="path333"
       transform="matrix(-0.94118667,0,0,0.94118667,0.24897672,0.24897645)" />
    <ellipse
       style="fill:#51a45c;fill-opacity:1;stroke:none;stroke-width:0.188237;stroke-dasharray:none"
       id="ellipse333"
       cx="-5.517355"
       cy="5.8325229"
       rx="0.147857"
       ry="0.21400353"
       transform="scale(-1,1)" />
    <ellipse
       style="fill:#51a45c;fill-opacity:1;stroke:none;stroke-width:0.188237;stroke-dasharray:none"
       id="ellipse334"
       cx="-4.9181452"
       cy="4.9687271"
       rx="0.147857"
       ry="0.21400353"
       transform="scale(-1,1)" />
    <ellipse
       style="fill:#51a45c;fill-opacity:1;stroke:none;stroke-width:0.188237;stroke-dasharray:none"
       id="ellipse335"
       cx="-3.6341238"
       cy="4.7041407"
       rx="0.147857"
       ry="0.21400353"
       transform="scale(-1,1)" />
    <ellipse
       style="fill:#51a45c;fill-opacity:1;stroke:none;stroke-width:0.188237;stroke-dasharray:none"
       id="ellipse336"
       cx="-2.9259667"
       cy="5.1165838"
       rx="0.147857"
       ry="0.21400353"
       transform="scale(-1,1)" />
    <path
       style="fill:#363db6;fill-opacity:1;stroke:none;stroke-width:0.188237;stroke-dasharray:none"
       d="m 5.7249165,5.5581332 c 9.172e-4,0.019258 -0.00459,0.043104 -0.024763,0.085292 -0.020177,0.042188 -0.055026,0.1027161 -0.086208,0.143069 -0.031182,0.040353 -0.058695,0.060529 -0.075203,0.04402 -0.016508,-0.016509 -0.02201,-0.0697 -0.033933,-0.1247273 -0.011923,-0.055027 -0.030265,-0.1118868 -0.00825,-0.151323 0.022011,-0.039436 0.084373,-0.061446 0.1265606,-0.066032 0.042187,-0.00459 0.064197,0.00825 0.078872,0.022012 0.014675,0.013758 0.022011,0.02843 0.022928,0.047688 z"
       id="path343" />
    <path
       style="fill:#363db6;fill-opacity:1;stroke:none;stroke-width:0.188237;stroke-dasharray:none"
       d="m 5.7249165,5.5581332 c 9.172e-4,0.019258 -0.00459,0.043104 -0.024763,0.085292 -0.020177,0.042188 -0.055026,0.1027161 -0.086208,0.143069 -0.031182,0.040353 -0.058695,0.060529 -0.075203,0.04402 -0.016508,-0.016509 -0.02201,-0.0697 -0.033933,-0.1247273 -0.011923,-0.055027 -0.030265,-0.1118868 -0.00825,-0.151323 0.022011,-0.039436 0.084373,-0.061446 0.1265606,-0.066032 0.042187,-0.00459 0.064197,0.00825 0.078872,0.022012 0.014675,0.013758 0.022011,0.02843 0.022928,0.047688 z"
       id="path344"
       transform="rotate(51.257303,6.1331865,4.7174121)" />
    <path
       style="fill:#363db6;fill-opacity:1;stroke:none;stroke-width:0.188237;stroke-dasharray:none"
       d="m 5.7249165,5.5581332 c 9.172e-4,0.019258 -0.00459,0.043104 -0.024763,0.085292 -0.020177,0.042188 -0.055026,0.1027161 -0.086208,0.143069 -0.031182,0.040353 -0.058695,0.060529 -0.075203,0.04402 -0.016508,-0.016509 -0.02201,-0.0697 -0.033933,-0.1247273 -0.011923,-0.055027 -0.030265,-0.1118868 -0.00825,-0.151323 0.022011,-0.039436 0.084373,-0.061446 0.1265606,-0.066032 0.042187,-0.00459 0.064197,0.00825 0.078872,0.022012 0.014675,0.013758 0.022011,0.02843 0.022928,0.047688 z"
       id="path346"
       transform="rotate(3.6958154,21.923812,-24.848009)" />
    <path
       style="fill:#363db6;fill-opacity:1;stroke:none;stroke-width:0.188237;stroke-dasharray:none"
       d="m 5.7249165,5.5581332 c 9.172e-4,0.019258 -0.00459,0.043104 -0.024763,0.085292 -0.020177,0.042188 -0.055026,0.1027161 -0.086208,0.143069 -0.031182,0.040353 -0.058695,0.060529 -0.075203,0.04402 -0.016508,-0.016509 -0.02201,-0.0697 -0.033933,-0.1247273 -0.011923,-0.055027 -0.030265,-0.1118868 -0.00825,-0.151323 0.022011,-0.039436 0.084373,-0.061446 0.1265606,-0.066032 0.042187,-0.00459 0.064197,0.00825 0.078872,0.022012 0.014675,0.013758 0.022011,0.02843 0.022928,0.047688 z"
       id="path348"
       transform="rotate(3.6958154,16.347697,-36.277932)" />
  </g>
  <g
     id="g359"
     transform="matrix(-1.0624885,0,0,1.0624885,25.664535,-0.26453462)">
    <rect
       style="fill:#bdca31;fill-opacity:0;stroke:none;stroke-width:0.497953"
       id="rect350"
       width="7.9687138"
       height="7.9687138"
       x="0.24897645"
       y="0.24897645" />
    <path
       style="fill:none;fill-opacity:1;stroke:#457b47;stroke-width:0.2;stroke-dasharray:none"
       d="M -4.6547347,7.4133884 C -4.7482792,7.2185042 -4.8418222,7.023623 -4.9079458,6.9029587 -4.9740694,6.7822944 -5.0127698,6.7358539 -5.1087323,6.6053178 -5.2046948,6.4747818 -5.3579181,6.2601518 -5.4925727,6.1171786 -5.6272272,5.9742054 -5.7433121,5.9028903 -5.8593972,5.831575"
       id="path350"
       transform="matrix(-0.94118667,0,0,0.94118667,0.24897672,0.24897645)" />
    <path
       style="fill:none;fill-opacity:1;stroke:#457b47;stroke-width:0.2;stroke-dasharray:none"
       d="M -4.6467446,7.4083332 C -4.6687932,6.972873 -4.6908414,6.5374214 -4.7395936,6.2442318 -4.7883458,5.9510422 -4.8637985,5.8001369 -4.9009355,5.6643943 c -0.037137,-0.1357426 -0.035957,-0.2563202 -0.027592,-0.4192836 0.00836,-0.1629635 0.023914,-0.3683126 0.039463,-0.573662"
       id="path351"
       transform="matrix(-0.94118667,0,0,0.94118667,0.24897672,0.24897645)" />
    <path
       style="fill:none;fill-opacity:1;stroke:#457b47;stroke-width:0.2;stroke-dasharray:none"
       d="m -4.5805987,7.2760416 c 0.060634,-0.3031687 0.1212673,-0.6063369 0.2039507,-0.8874592 0.082683,-0.2811223 0.1874105,-0.5401844 0.2829407,-0.7013756 0.09553,-0.1611911 0.181856,-0.2244967 0.2528916,-0.3222018 0.071036,-0.097705 0.1267797,-0.2298086 0.1680802,-0.3638712 0.0413,-0.1340626 0.068157,-0.2700837 0.095014,-0.4061054"
       id="path352"
       transform="matrix(-0.94118667,0,0,0.94118667,0.24897672,0.24897645)" />
    <path
       style="fill:none;fill-opacity:1;stroke:#457b47;stroke-width:0.2;stroke-dasharray:none"
       d="M -4.4979164,7.2595051 C -4.3711368,7.0555553 -4.2443574,6.8516058 -4.1146533,6.6296557 -3.9849492,6.4077056 -3.8523283,6.167769 -3.7049247,6.005222 -3.5575212,5.8426749 -3.3953484,5.7575342 -3.265403,5.670541 -3.1354576,5.5835478 -3.0377419,5.4947033 -2.9323335,5.356965 -2.8269251,5.2192267 -2.7138241,5.0325947 -2.6007231,4.8459628"
       id="path353"
       transform="matrix(-0.94118667,0,0,0.94118667,0.24897672,0.24897645)" />
    <ellipse
       style="fill:#51a45c;fill-opacity:1;stroke:none;stroke-width:0.188237;stroke-dasharray:none"
       id="ellipse353"
       cx="-5.7741594"
       cy="5.7235756"
       rx="0.147857"
       ry="0.21400353"
       transform="scale(-1,1)" />
    <ellipse
       style="fill:#51a45c;fill-opacity:1;stroke:none;stroke-width:0.188237;stroke-dasharray:none"
       id="ellipse354"
       cx="-4.8714533"
       cy="4.532938"
       rx="0.147857"
       ry="0.21400353"
       transform="scale(-1,1)" />
    <ellipse
       style="fill:#51a45c;fill-opacity:1;stroke:none;stroke-width:0.188237;stroke-dasharray:none"
       id="ellipse355"
       cx="-3.6185598"
       cy="4.4551182"
       rx="0.147857"
       ry="0.21400353"
       transform="scale(-1,1)" />
    <ellipse
       style="fill:#51a45c;fill-opacity:1;stroke:none;stroke-width:0.188237;stroke-dasharray:none"
       id="ellipse356"
       cx="-2.7314181"
       cy="4.7430506"
       rx="0.147857"
       ry="0.21400353"
       transform="scale(-1,1)" />
    <path
       style="fill:#363db6;fill-opacity:1;stroke:none;stroke-width:0.188237;stroke-dasharray:none"
       d="m 5.7249165,5.5581332 c 9.172e-4,0.019258 -0.00459,0.043104 -0.024763,0.085292 -0.020177,0.042188 -0.055026,0.1027161 -0.086208,0.143069 -0.031182,0.040353 -0.058695,0.060529 -0.075203,0.04402 -0.016508,-0.016509 -0.02201,-0.0697 -0.033933,-0.1247273 -0.011923,-0.055027 -0.030265,-0.1118868 -0.00825,-0.151323 0.022011,-0.039436 0.084373,-0.061446 0.1265606,-0.066032 0.042187,-0.00459 0.064197,0.00825 0.078872,0.022012 0.014675,0.013758 0.022011,0.02843 0.022928,0.047688 z"
       id="path356"
       transform="translate(0.26780958,-0.14746593)" />
    <path
       style="fill:#363db6;fill-opacity:1;stroke:none;stroke-width:0.188237;stroke-dasharray:none"
       d="m 5.7249165,5.5581332 c 9.172e-4,0.019258 -0.00459,0.043104 -0.024763,0.085292 -0.020177,0.042188 -0.055026,0.1027161 -0.086208,0.143069 -0.031182,0.040353 -0.058695,0.060529 -0.075203,0.04402 -0.016508,-0.016509 -0.02201,-0.0697 -0.033933,-0.1247273 -0.011923,-0.055027 -0.030265,-0.1118868 -0.00825,-0.151323 0.022011,-0.039436 0.084373,-0.061446 0.1265606,-0.066032 0.042187,-0.00459 0.064197,0.00825 0.078872,0.022012 0.014675,0.013758 0.022011,0.02843 0.022928,0.047688 z"
       id="path357"
       transform="rotate(51.257303,6.5640386,4.4508535)" />
    <path
       style="fill:#363db6;fill-opacity:1;stroke:none;stroke-width:0.188237;stroke-dasharray:none"
       d="m 5.7249165,5.5581332 c 9.172e-4,0.019258 -0.00459,0.043104 -0.024763,0.085292 -0.020177,0.042188 -0.055026,0.1027161 -0.086208,0.143069 -0.031182,0.040353 -0.058695,0.060529 -0.075203,0.04402 -0.016508,-0.016509 -0.02201,-0.0697 -0.033933,-0.1247273 -0.011923,-0.055027 -0.030265,-0.1118868 -0.00825,-0.151323 0.022011,-0.039436 0.084373,-0.061446 0.1265606,-0.066032 0.042187,-0.00459 0.064197,0.00825 0.078872,0.022012 0.014675,0.013758 0.022011,0.02843 0.022928,0.047688 z"
       id="path358"
       transform="rotate(3.6958154,25.775254,-25.213722)" />
    <path
       style="fill:#363db6;fill-opacity:1;stroke:none;stroke-width:0.188237;stroke-dasharray:none"
       d="m 5.7249165,5.5581332 c 9.172e-4,0.019258 -0.00459,0.043104 -0.024763,0.085292 -0.020177,0.042188 -0.055026,0.1027161 -0.086208,0.143069 -0.031182,0.040353 -0.058695,0.060529 -0.075203,0.04402 -0.016508,-0.016509 -0.02201,-0.0697 -0.033933,-0.1247273 -0.011923,-0.055027 -0.030265,-0.1118868 -0.00825,-0.151323 0.022011,-0.039436 0.084373,-0.061446 0.1265606,-0.066032 0.042187,-0.00459 0.064197,0.00825 0.078872,0.022012 0.014675,0.013758 0.022011,0.02843 0.022928,0.047688 z"
       id="path359"
       transform="rotate(3.6958154,20.59205,-39.433025)" />
    <path
       style="fill:#363db6;fill-opacity:1;stroke:none;stroke-width:0.188237;stroke-dasharray:none"
       d="m 5.7249165,5.5581332 c 9.172e-4,0.019258 -0.00459,0.043104 -0.024763,0.085292 -0.020177,0.042188 -0.055026,0.1027161 -0.086208,0.143069 -0.031182,0.040353 -0.058695,0.060529 -0.075203,0.04402 -0.016508,-0.016509 -0.02201,-0.0697 -0.033933,-0.1247273 -0.011923,-0.055027 -0.030265,-0.1118868 -0.00825,-0.151323 0.022011,-0.039436 0.084373,-0.061446 0.1265606,-0.066032 0.042187,-0.00459 0.064197,0.00825 0.078872,0.022012 0.014675,0.013758 0.022011,0.02843 0.022928,0.047688 z"
       id="path374"
       transform="rotate(-137.10946,5.6392818,5.6934002)" />
    <path
       style="fill:#363db6;fill-opacity:1;stroke:none;stroke-width:0.188237;stroke-dasharray:none"
       d="m 5.7249165,5.5581332 c 9.172e-4,0.019258 -0.00459,0.043104 -0.024763,0.085292 -0.020177,0.042188 -0.055026,0.1027161 -0.086208,0.143069 -0.031182,0.040353 -0.058695,0.060529 -0.075203,0.04402 -0.016508,-0.016509 -0.02201,-0.0697 -0.033933,-0.1247273 -0.011923,-0.055027 -0.030265,-0.1118868 -0.00825,-0.151323 0.022011,-0.039436 0.084373,-0.061446 0.1265606,-0.066032 0.042187,-0.00459 0.064197,0.00825 0.078872,0.022012 0.014675,0.013758 0.022011,0.02843 0.022928,0.047688 z"
       id="path376"
       transform="rotate(156.29762,5.6817355,5.7849993)" />
    <path
       style="fill:#363db6;fill-opacity:1;stroke:none;stroke-width:0.188237;stroke-dasharray:none"
       d="m 5.7249165,5.5581332 c 9.172e-4,0.019258 -0.00459,0.043104 -0.024763,0.085292 -0.020177,0.042188 -0.055026,0.1027161 -0.086208,0.143069 -0.031182,0.040353 -0.058695,0.060529 -0.075203,0.04402 -0.016508,-0.016509 -0.02201,-0.0697 -0.033933,-0.1247273 -0.011923,-0.055027 -0.030265,-0.1118868 -0.00825,-0.151323 0.022011,-0.039436 0.084373,-0.061446 0.1265606,-0.066032 0.042187,-0.00459 0.064197,0.00825 0.078872,0.022012 0.014675,0.013758 0.022011,0.02843 0.022928,0.047688 z"
       id="path378"
       transform="rotate(115.10597,5.735639,5.8338572)" />
    <path
       style="fill:#363db6;fill-opacity:1;stroke:none;stroke-width:0.188237;stroke-dasharray:none"
       d="m 5.7249165,5.5581332 c 9.172e-4,0.019258 -0.00459,0.043104 -0.024763,0.085292 -0.020177,0.042188 -0.055026,0.1027161 -0.086208,0.143069 -0.031182,0.040353 -0.058695,0.060529 -0.075203,0.04402 -0.016508,-0.016509 -0.02201,-0.0697 -0.033933,-0.1247273 -0.011923,-0.055027 -0.030265,-0.1118868 -0.00825,-0.151323 0.022011,-0.039436 0.084373,-0.061446 0.1265606,-0.066032 0.042187,-0.00459 0.064197,0.00825 0.078872,0.022012 0.014675,0.013758 0.022011,0.02843 0.022928,0.047688 z"
       id="path380"
       transform="rotate(114.4007,5.6451995,4.9551405)" />
    <path
       style="fill:#363db6;fill-opacity:1;stroke:none;stroke-width:0.188237;stroke-dasharray:none"
       d="m 5.7249165,5.5581332 c 9.172e-4,0.019258 -0.00459,0.043104 -0.024763,0.085292 -0.020177,0.042188 -0.055026,0.1027161 -0.086208,0.143069 -0.031182,0.040353 -0.058695,0.060529 -0.075203,0.04402 -0.016508,-0.016509 -0.02201,-0.0697 -0.033933,-0.1247273 -0.011923,-0.055027 -0.030265,-0.1118868 -0.00825,-0.151323 0.022011,-0.039436 0.084373,-0.061446 0.1265606,-0.066032 0.042187,-0.00459 0.064197,0.00825 0.078872,0.022012 0.014675,0.013758 0.022011,0.02843 0.022928,0.047688 z"
       id="path382"
       transform="rotate(-156.53178,5.1103941,5.2481703)" />
    <path
       style="fill:#363db6;fill-opacity:1;stroke:none;stroke-width:0.188237;stroke-dasharray:none"
       d="m 5.7249165,5.5581332 c 9.172e-4,0.019258 -0.00459,0.043104 -0.024763,0.085292 -0.020177,0.042188 -0.055026,0.1027161 -0.086208,0.143069 -0.031182,0.040353 -0.058695,0.060529 -0.075203,0.04402 -0.016508,-0.016509 -0.02201,-0.0697 -0.033933,-0.1247273 -0.011923,-0.055027 -0.030265,-0.1118868 -0.00825,-0.151323 0.022011,-0.039436 0.084373,-0.061446 0.1265606,-0.066032 0.042187,-0.00459 0.064197,0.00825 0.078872,0.022012 0.014675,0.013758 0.022011,0.02843 0.022928,0.047688 z"
       id="path384"
       transform="rotate(-98.56401,4.6617275,5.4723178)" />
    <path
       style="fill:#363db6;fill-opacity:1;stroke:none;stroke-width:0.188237;stroke-dasharray:none"
       d="m 5.7249165,5.5581332 c 9.172e-4,0.019258 -0.00459,0.043104 -0.024763,0.085292 -0.020177,0.042188 -0.055026,0.1027161 -0.086208,0.143069 -0.031182,0.040353 -0.058695,0.060529 -0.075203,0.04402 -0.016508,-0.016509 -0.02201,-0.0697 -0.033933,-0.1247273 -0.011923,-0.055027 -0.030265,-0.1118868 -0.00825,-0.151323 0.022011,-0.039436 0.084373,-0.061446 0.1265606,-0.066032 0.042187,-0.00459 0.064197,0.00825 0.078872,0.022012 0.014675,0.013758 0.022011,0.02843 0.022928,0.047688 z"
       id="path386"
       transform="rotate(-101.9697,4.0275387,5.8947064)" />
    <path
       style="fill:#363db6;fill-opacity:1;stroke:none;stroke-width:0.188237;stroke-dasharray:none"
       d="m 5.7249165,5.5581332 c 9.172e-4,0.019258 -0.00459,0.043104 -0.024763,0.085292 -0.020177,0.042188 -0.055026,0.1027161 -0.086208,0.143069 -0.031182,0.040353 -0.058695,0.060529 -0.075203,0.04402 -0.016508,-0.016509 -0.02201,-0.0697 -0.033933,-0.1247273 -0.011923,-0.055027 -0.030265,-0.1118868 -0.00825,-0.151323 0.022011,-0.039436 0.084373,-0.061446 0.1265606,-0.066032 0.042187,-0.00459 0.064197,0.00825 0.078872,0.022012 0.014675,0.013758 0.022011,0.02843 0.022928,0.047688 z"
       id="path388"
       transform="rotate(168.68855,4.6560978,4.986465)" />
    <path
       style="fill:#363db6;fill-opacity:1;stroke:none;stroke-width:0.188237;stroke-dasharray:none"
       d="m 5.7249165,5.5581332 c 9.172e-4,0.019258 -0.00459,0.043104 -0.024763,0.085292 -0.020177,0.042188 -0.055026,0.1027161 -0.086208,0.143069 -0.031182,0.040353 -0.058695,0.060529 -0.075203,0.04402 -0.016508,-0.016509 -0.02201,-0.0697 -0.033933,-0.1247273 -0.011923,-0.055027 -0.030265,-0.1118868 -0.00825,-0.151323 0.022011,-0.039436 0.084373,-0.061446 0.1265606,-0.066032 0.042187,-0.00459 0.064197,0.00825 0.078872,0.022012 0.014675,0.013758 0.022011,0.02843 0.022928,0.047688 z"
       id="path390"
       transform="rotate(105.38558,5.1405359,4.3499635)" />
    <path
       style="fill:#363db6;fill-opacity:1;stroke:none;stroke-width:0.188237;stroke-dasharray:none"
       d="m 5.7249165,5.5581332 c 9.172e-4,0.019258 -0.00459,0.043104 -0.024763,0.085292 -0.020177,0.042188 -0.055026,0.1027161 -0.086208,0.143069 -0.031182,0.040353 -0.058695,0.060529 -0.075203,0.04402 -0.016508,-0.016509 -0.02201,-0.0697 -0.033933,-0.1247273 -0.011923,-0.055027 -0.030265,-0.1118868 -0.00825,-0.151323 0.022011,-0.039436 0.084373,-0.061446 0.1265606,-0.066032 0.042187,-0.00459 0.064197,0.00825 0.078872,0.022012 0.014675,0.013758 0.022011,0.02843 0.022928,0.047688 z"
       id="path392"
       transform="rotate(87.934865,4.6799855,3.7784879)" />
    <path
       style="fill:#363db6;fill-opacity:1;stroke:none;stroke-width:0.188237;stroke-dasharray:none"
       d="m 5.7249165,5.5581332 c 9.172e-4,0.019258 -0.00459,0.043104 -0.024763,0.085292 -0.020177,0.042188 -0.055026,0.1027161 -0.086208,0.143069 -0.031182,0.040353 -0.058695,0.060529 -0.075203,0.04402 -0.016508,-0.016509 -0.02201,-0.0697 -0.033933,-0.1247273 -0.011923,-0.055027 -0.030265,-0.1118868 -0.00825,-0.151323 0.022011,-0.039436 0.084373,-0.061446 0.1265606,-0.066032 0.042187,-0.00459 0.064197,0.00825 0.078872,0.022012 0.014675,0.013758 0.022011,0.02843 0.022928,0.047688 z"
       id="path394"
       transform="rotate(158.0411,4.227734,4.9896765)" />
    <path
       style="fill:#363db6;fill-opacity:1;stroke:none;stroke-width:0.188237;stroke-dasharray:none"
       d="m 5.7249165,5.5581332 c 9.172e-4,0.019258 -0.00459,0.043104 -0.024763,0.085292 -0.020177,0.042188 -0.055026,0.1027161 -0.086208,0.143069 -0.031182,0.040353 -0.058695,0.060529 -0.075203,0.04402 -0.016508,-0.016509 -0.02201,-0.0697 -0.033933,-0.1247273 -0.011923,-0.055027 -0.030265,-0.1118868 -0.00825,-0.151323 0.022011,-0.039436 0.084373,-0.061446 0.1265606,-0.066032 0.042187,-0.00459 0.064197,0.00825 0.078872,0.022012 0.014675,0.013758 0.022011,0.02843 0.022928,0.047688 z"
       id="path396"
       transform="rotate(-133.5613,3.899778,5.8596984)" />
    <ellipse
       style="fill:#ffec8c;fill-opacity:1;stroke:none;stroke-width:0.188237;stroke-dasharray:none"
       id="path398"
       cx="-4.8655186"
       cy="4.5658193"
       transform="scale(-1,1)"
       rx="0.044021338"
       ry="0.04677267" />
    <ellipse
       style="fill:#ffec8c;fill-opacity:1;stroke:none;stroke-width:0.188237;stroke-dasharray:none"
       id="path399"
       cx="-5.8147278"
       cy="5.6993685"
       transform="scale(-1,1)"
       rx="0.04677267"
       ry="0.035767339" />
    <ellipse
       style="fill:#ffec8c;fill-opacity:1;stroke:none;stroke-width:0.188237;stroke-dasharray:none"
       id="path400"
       cx="-3.6246665"
       cy="4.4296279"
       transform="scale(-1,1)"
       rx="0.030264672"
       ry="0.037143003" />
    <ellipse
       style="fill:#ffec8c;fill-opacity:1;stroke:none;stroke-width:0.188237;stroke-dasharray:none"
       id="path401"
       cx="-2.7015939"
       cy="4.7625394"
       transform="scale(-1,1)"
       rx="0.042645674"
       ry="0.039894339" />
  </g>
  <g
     id="g426"
     transform="matrix(-1.0624885,0,0,1.0624885,34.131201,-0.26453462)">
    <rect
       style="fill:#bdca31;fill-opacity:0;stroke:none;stroke-width:0.497953"
       id="rect401"
       width="7.9687138"
       height="7.9687138"
       x="0.24897645"
       y="0.24897645" />
    <path
       style="fill:none;fill-opacity:1;stroke:#457b47;stroke-width:0.2;stroke-dasharray:none"
       d="M -4.6547347,7.4133884 C -4.7482792,7.2185042 -4.8418222,7.023623 -4.9079458,6.9029587 -4.9740694,6.7822944 -5.0127698,6.7358539 -5.1350417,6.5575712 -5.2573135,6.3792885 -5.4631554,6.0691657 -5.6241196,5.8784457 -5.7850837,5.6877257 -5.9011683,5.6164107 -6.0172533,5.5450955"
       id="path402"
       transform="matrix(-0.94118667,0,0,0.94118667,0.24897672,0.24897645)" />
    <path
       style="fill:none;fill-opacity:1;stroke:#457b47;stroke-width:0.2;stroke-dasharray:none"
       d="M -4.6467446,7.4083332 C -4.6687932,6.972873 -4.6908414,6.5374214 -4.7395936,6.2442318 -4.7883458,5.9510422 -4.8637985,5.8001369 -4.8999605,5.6410083 -4.9361224,5.4818796 -4.9329924,5.3145299 -4.9236527,5.12818 c 0.00934,-0.18635 0.024889,-0.3916987 0.040438,-0.5970478"
       id="path403"
       transform="matrix(-0.94118667,0,0,0.94118667,0.24897672,0.24897645)" />
    <path
       style="fill:none;fill-opacity:1;stroke:#457b47;stroke-width:0.2;stroke-dasharray:none"
       d="m -4.5805987,7.2760416 c 0.060634,-0.3031687 0.1212673,-0.6063369 0.2039507,-0.8874592 0.082683,-0.2811223 0.1874105,-0.5401844 0.2829407,-0.7013756 0.09553,-0.1611911 0.181856,-0.2244967 0.2528916,-0.3222018 0.071036,-0.097705 0.1267797,-0.2298086 0.1914662,-0.4291572 0.064687,-0.1993487 0.1383152,-0.4659418 0.2119443,-0.7325363"
       id="path404"
       transform="matrix(-0.94118667,0,0,0.94118667,0.24897672,0.24897645)" />
    <path
       style="fill:none;fill-opacity:1;stroke:#457b47;stroke-width:0.2;stroke-dasharray:none"
       d="m -4.4979164,7.2595051 c 0.1267796,-0.2039498 0.253559,-0.4078993 0.3832631,-0.6298494 0.1297041,-0.2219501 0.262325,-0.4618867 0.4097286,-0.6244337 0.1474035,-0.1625471 0.3095763,-0.2476878 0.4395217,-0.334681 0.1299454,-0.086993 0.2276611,-0.1758377 0.35743,-0.3545017 0.1297689,-0.1786639 0.2915909,-0.4471472 0.4534129,-0.7156304"
       id="path405"
       transform="matrix(-0.94118667,0,0,0.94118667,0.24897672,0.24897645)" />
    <ellipse
       style="fill:#51a45c;fill-opacity:1;stroke:none;stroke-width:0.226197;stroke-dasharray:none"
       id="ellipse405"
       cx="-5.8271451"
       cy="5.3912654"
       rx="0.17767429"
       ry="0.25716016"
       transform="scale(-1,1)" />
    <ellipse
       style="fill:#51a45c;fill-opacity:1;stroke:none;stroke-width:0.240905;stroke-dasharray:none"
       id="ellipse406"
       cx="-4.8411727"
       cy="4.4461613"
       rx="0.18922697"
       ry="0.27388111"
       transform="scale(-1,1)" />
    <ellipse
       style="fill:#51a45c;fill-opacity:1;stroke:none;stroke-width:0.228571;stroke-dasharray:none"
       id="ellipse407"
       cx="-3.5104816"
       cy="4.223115"
       rx="0.1795384"
       ry="0.25985819"
       transform="scale(-1,1)" />
    <ellipse
       style="fill:#51a45c;fill-opacity:1;stroke:none;stroke-width:0.240533;stroke-dasharray:none"
       id="ellipse408"
       cx="-2.6164021"
       cy="4.4613538"
       rx="0.1889343"
       ry="0.27345753"
       transform="scale(-1,1)" />
    <path
       style="fill:#363db6;fill-opacity:1;stroke:none;stroke-width:0.188237;stroke-dasharray:none"
       d="m 5.7249165,5.5581332 c 9.172e-4,0.019258 -0.00459,0.043104 -0.024763,0.085292 -0.020177,0.042188 -0.055026,0.1027161 -0.086208,0.143069 -0.031182,0.040353 -0.058695,0.060529 -0.075203,0.04402 -0.016508,-0.016509 -0.02201,-0.0697 -0.033933,-0.1247273 -0.011923,-0.055027 -0.030265,-0.1118868 -0.00825,-0.151323 0.022011,-0.039436 0.084373,-0.061446 0.1265606,-0.066032 0.042187,-0.00459 0.064197,0.00825 0.078872,0.022012 0.014675,0.013758 0.022011,0.02843 0.022928,0.047688 z"
       id="path408"
       transform="matrix(1.2016631,0,0,1.2016631,-0.78963186,-1.6637477)" />
    <path
       style="fill:#363db6;fill-opacity:1;stroke:none;stroke-width:0.188237;stroke-dasharray:none"
       d="m 5.7249165,5.5581332 c 9.172e-4,0.019258 -0.00459,0.043104 -0.024763,0.085292 -0.020177,0.042188 -0.055026,0.1027161 -0.086208,0.143069 -0.031182,0.040353 -0.058695,0.060529 -0.075203,0.04402 -0.016508,-0.016509 -0.02201,-0.0697 -0.033933,-0.1247273 -0.011923,-0.055027 -0.030265,-0.1118868 -0.00825,-0.151323 0.022011,-0.039436 0.084373,-0.061446 0.1265606,-0.066032 0.042187,-0.00459 0.064197,0.00825 0.078872,0.022012 0.014675,0.013758 0.022011,0.02843 0.022928,0.047688 z"
       id="path409"
       transform="matrix(0.80092787,0.99819606,-0.99819606,0.80092787,6.1928417,-5.7759003)" />
    <path
       style="fill:#363db6;fill-opacity:1;stroke:none;stroke-width:0.188237;stroke-dasharray:none"
       d="m 5.7249165,5.5581332 c 9.172e-4,0.019258 -0.00459,0.043104 -0.024763,0.085292 -0.020177,0.042188 -0.055026,0.1027161 -0.086208,0.143069 -0.031182,0.040353 -0.058695,0.060529 -0.075203,0.04402 -0.016508,-0.016509 -0.02201,-0.0697 -0.033933,-0.1247273 -0.011923,-0.055027 -0.030265,-0.1118868 -0.00825,-0.151323 0.022011,-0.039436 0.084373,-0.061446 0.1265606,-0.066032 0.042187,-0.00459 0.064197,0.00825 0.078872,0.022012 0.014675,0.013758 0.022011,0.02843 0.022928,0.047688 z"
       id="path410"
       transform="matrix(1.2117453,0.07827118,-0.07827118,1.2117453,-2.7918471,-3.267735)" />
    <path
       style="fill:#363db6;fill-opacity:1;stroke:none;stroke-width:0.188237;stroke-dasharray:none"
       d="m 5.7249165,5.5581332 c 9.172e-4,0.019258 -0.00459,0.043104 -0.024763,0.085292 -0.020177,0.042188 -0.055026,0.1027161 -0.086208,0.143069 -0.031182,0.040353 -0.058695,0.060529 -0.075203,0.04402 -0.016508,-0.016509 -0.02201,-0.0697 -0.033933,-0.1247273 -0.011923,-0.055027 -0.030265,-0.1118868 -0.00825,-0.151323 0.022011,-0.039436 0.084373,-0.061446 0.1265606,-0.066032 0.042187,-0.00459 0.064197,0.00825 0.078872,0.022012 0.014675,0.013758 0.022011,0.02843 0.022928,0.047688 z"
       id="path411"
       transform="matrix(1.2751603,0.0823674,-0.0823674,1.2751603,-4.0671262,-3.4003045)" />
    <path
       style="fill:#363db6;fill-opacity:1;stroke:none;stroke-width:0.188237;stroke-dasharray:none"
       d="m 5.7249165,5.5581332 c 9.172e-4,0.019258 -0.00459,0.043104 -0.024763,0.085292 -0.020177,0.042188 -0.055026,0.1027161 -0.086208,0.143069 -0.031182,0.040353 -0.058695,0.060529 -0.075203,0.04402 -0.016508,-0.016509 -0.02201,-0.0697 -0.033933,-0.1247273 -0.011923,-0.055027 -0.030265,-0.1118868 -0.00825,-0.151323 0.022011,-0.039436 0.084373,-0.061446 0.1265606,-0.066032 0.042187,-0.00459 0.064197,0.00825 0.078872,0.022012 0.014675,0.013758 0.022011,0.02843 0.022928,0.047688 z"
       id="path412"
       transform="matrix(-0.88040482,-0.8178518,0.8178518,-0.88040482,5.9735615,14.9796)" />
    <path
       style="fill:#363db6;fill-opacity:1;stroke:none;stroke-width:0.188237;stroke-dasharray:none"
       d="m 5.7249165,5.5581332 c 9.172e-4,0.019258 -0.00459,0.043104 -0.024763,0.085292 -0.020177,0.042188 -0.055026,0.1027161 -0.086208,0.143069 -0.031182,0.040353 -0.058695,0.060529 -0.075203,0.04402 -0.016508,-0.016509 -0.02201,-0.0697 -0.033933,-0.1247273 -0.011923,-0.055027 -0.030265,-0.1118868 -0.00825,-0.151323 0.022011,-0.039436 0.084373,-0.061446 0.1265606,-0.066032 0.042187,-0.00459 0.064197,0.00825 0.078872,0.022012 0.014675,0.013758 0.022011,0.02843 0.022928,0.047688 z"
       id="path413"
       transform="matrix(-1.1002979,0.48305152,-0.48305152,-1.1002979,14.762138,9.0857285)" />
    <path
       style="fill:#363db6;fill-opacity:1;stroke:none;stroke-width:0.188237;stroke-dasharray:none"
       d="m 5.7249165,5.5581332 c 9.172e-4,0.019258 -0.00459,0.043104 -0.024763,0.085292 -0.020177,0.042188 -0.055026,0.1027161 -0.086208,0.143069 -0.031182,0.040353 -0.058695,0.060529 -0.075203,0.04402 -0.016508,-0.016509 -0.02201,-0.0697 -0.033933,-0.1247273 -0.011923,-0.055027 -0.030265,-0.1118868 -0.00825,-0.151323 0.022011,-0.039436 0.084373,-0.061446 0.1265606,-0.066032 0.042187,-0.00459 0.064197,0.00825 0.078872,0.022012 0.014675,0.013758 0.022011,0.02843 0.022928,0.047688 z"
       id="path414"
       transform="matrix(-0.50985818,1.0881355,-1.0881355,-0.50985818,15.053247,2.2570749)" />
    <path
       style="fill:#363db6;fill-opacity:1;stroke:none;stroke-width:0.188237;stroke-dasharray:none"
       d="m 5.7249165,5.5581332 c 9.172e-4,0.019258 -0.00459,0.043104 -0.024763,0.085292 -0.020177,0.042188 -0.055026,0.1027161 -0.086208,0.143069 -0.031182,0.040353 -0.058695,0.060529 -0.075203,0.04402 -0.016508,-0.016509 -0.02201,-0.0697 -0.033933,-0.1247273 -0.011923,-0.055027 -0.030265,-0.1118868 -0.00825,-0.151323 0.022011,-0.039436 0.084373,-0.061446 0.1265606,-0.066032 0.042187,-0.00459 0.064197,0.00825 0.078872,0.022012 0.014675,0.013758 0.022011,0.02843 0.022928,0.047688 z"
       id="path415"
       transform="matrix(-0.52870413,1.1654839,-1.1654839,-0.52870413,14.591188,1.0269088)" />
    <path
       style="fill:#363db6;fill-opacity:1;stroke:none;stroke-width:0.188237;stroke-dasharray:none"
       d="m 5.7249165,5.5581332 c 9.172e-4,0.019258 -0.00459,0.043104 -0.024763,0.085292 -0.020177,0.042188 -0.055026,0.1027161 -0.086208,0.143069 -0.031182,0.040353 -0.058695,0.060529 -0.075203,0.04402 -0.016508,-0.016509 -0.02201,-0.0697 -0.033933,-0.1247273 -0.011923,-0.055027 -0.030265,-0.1118868 -0.00825,-0.151323 0.022011,-0.039436 0.084373,-0.061446 0.1265606,-0.066032 0.042187,-0.00459 0.064197,0.00825 0.078872,0.022012 0.014675,0.013758 0.022011,0.02843 0.022928,0.047688 z"
       id="path416"
       transform="matrix(-1.1739338,-0.50966687,0.50966687,-1.1739338,8.4714143,14.127117)" />
    <path
       style="fill:#363db6;fill-opacity:1;stroke:none;stroke-width:0.188237;stroke-dasharray:none"
       d="m 5.7249165,5.5581332 c 9.172e-4,0.019258 -0.00459,0.043104 -0.024763,0.085292 -0.020177,0.042188 -0.055026,0.1027161 -0.086208,0.143069 -0.031182,0.040353 -0.058695,0.060529 -0.075203,0.04402 -0.016508,-0.016509 -0.02201,-0.0697 -0.033933,-0.1247273 -0.011923,-0.055027 -0.030265,-0.1118868 -0.00825,-0.151323 0.022011,-0.039436 0.084373,-0.061446 0.1265606,-0.066032 0.042187,-0.00459 0.064197,0.00825 0.078872,0.022012 0.014675,0.013758 0.022011,0.02843 0.022928,0.047688 z"
       id="path417"
       transform="matrix(-0.19058002,-1.2655276,1.2655276,-0.19058002,-1.4641708,12.590836)" />
    <path
       style="fill:#363db6;fill-opacity:1;stroke:none;stroke-width:0.188237;stroke-dasharray:none"
       d="m 5.7249165,5.5581332 c 9.172e-4,0.019258 -0.00459,0.043104 -0.024763,0.085292 -0.020177,0.042188 -0.055026,0.1027161 -0.086208,0.143069 -0.031182,0.040353 -0.058695,0.060529 -0.075203,0.04402 -0.016508,-0.016509 -0.02201,-0.0697 -0.033933,-0.1247273 -0.011923,-0.055027 -0.030265,-0.1118868 -0.00825,-0.151323 0.022011,-0.039436 0.084373,-0.061446 0.1265606,-0.066032 0.042187,-0.00459 0.064197,0.00825 0.078872,0.022012 0.014675,0.013758 0.022011,0.02843 0.022928,0.047688 z"
       id="path418"
       transform="matrix(-0.2518329,-1.1878692,1.1878692,-0.2518329,-1.9807807,12.239835)" />
    <path
       style="fill:#363db6;fill-opacity:1;stroke:none;stroke-width:0.188237;stroke-dasharray:none"
       d="m 5.7249165,5.5581332 c 9.172e-4,0.019258 -0.00459,0.043104 -0.024763,0.085292 -0.020177,0.042188 -0.055026,0.1027161 -0.086208,0.143069 -0.031182,0.040353 -0.058695,0.060529 -0.075203,0.04402 -0.016508,-0.016509 -0.02201,-0.0697 -0.033933,-0.1247273 -0.011923,-0.055027 -0.030265,-0.1118868 -0.00825,-0.151323 0.022011,-0.039436 0.084373,-0.061446 0.1265606,-0.066032 0.042187,-0.00459 0.064197,0.00825 0.078872,0.022012 0.014675,0.013758 0.022011,0.02843 0.022928,0.047688 z"
       id="path419"
       transform="matrix(-1.1906839,0.23816959,-0.23816959,-1.1906839,11.501899,9.6966771)" />
    <path
       style="fill:#363db6;fill-opacity:1;stroke:none;stroke-width:0.188237;stroke-dasharray:none"
       d="m 5.7249165,5.5581332 c 9.172e-4,0.019258 -0.00459,0.043104 -0.024763,0.085292 -0.020177,0.042188 -0.055026,0.1027161 -0.086208,0.143069 -0.031182,0.040353 -0.058695,0.060529 -0.075203,0.04402 -0.016508,-0.016509 -0.02201,-0.0697 -0.033933,-0.1247273 -0.011923,-0.055027 -0.030265,-0.1118868 -0.00825,-0.151323 0.022011,-0.039436 0.084373,-0.061446 0.1265606,-0.066032 0.042187,-0.00459 0.064197,0.00825 0.078872,0.022012 0.014675,0.013758 0.022011,0.02843 0.022928,0.047688 z"
       id="path420"
       transform="matrix(-0.32216234,1.1707538,-1.1707538,-0.32216234,12.107396,-0.5214784)" />
    <path
       style="fill:#363db6;fill-opacity:1;stroke:none;stroke-width:0.188237;stroke-dasharray:none"
       d="m 5.7249165,5.5581332 c 9.172e-4,0.019258 -0.00459,0.043104 -0.024763,0.085292 -0.020177,0.042188 -0.055026,0.1027161 -0.086208,0.143069 -0.031182,0.040353 -0.058695,0.060529 -0.075203,0.04402 -0.016508,-0.016509 -0.02201,-0.0697 -0.033933,-0.1247273 -0.011923,-0.055027 -0.030265,-0.1118868 -0.00825,-0.151323 0.022011,-0.039436 0.084373,-0.061446 0.1265606,-0.066032 0.042187,-0.00459 0.064197,0.00825 0.078872,0.022012 0.014675,0.013758 0.022011,0.02843 0.022928,0.047688 z"
       id="path421"
       transform="matrix(0.04604693,1.2769878,-1.2769878,0.04604693,9.7159002,-2.9214533)" />
    <path
       style="fill:#363db6;fill-opacity:1;stroke:none;stroke-width:0.188237;stroke-dasharray:none"
       d="m 5.7249165,5.5581332 c 9.172e-4,0.019258 -0.00459,0.043104 -0.024763,0.085292 -0.020177,0.042188 -0.055026,0.1027161 -0.086208,0.143069 -0.031182,0.040353 -0.058695,0.060529 -0.075203,0.04402 -0.016508,-0.016509 -0.02201,-0.0697 -0.033933,-0.1247273 -0.011923,-0.055027 -0.030265,-0.1118868 -0.00825,-0.151323 0.022011,-0.039436 0.084373,-0.061446 0.1265606,-0.066032 0.042187,-0.00459 0.064197,0.00825 0.078872,0.022012 0.014675,0.013758 0.022011,0.02843 0.022928,0.047688 z"
       id="path422"
       transform="matrix(-1.1851151,0.47782897,-0.47782897,-1.1851151,11.922984,8.6697043)" />
    <path
       style="fill:#363db6;fill-opacity:1;stroke:none;stroke-width:0.188237;stroke-dasharray:none"
       d="m 5.7249165,5.5581332 c 9.172e-4,0.019258 -0.00459,0.043104 -0.024763,0.085292 -0.020177,0.042188 -0.055026,0.1027161 -0.086208,0.143069 -0.031182,0.040353 -0.058695,0.060529 -0.075203,0.04402 -0.016508,-0.016509 -0.02201,-0.0697 -0.033933,-0.1247273 -0.011923,-0.055027 -0.030265,-0.1118868 -0.00825,-0.151323 0.022011,-0.039436 0.084373,-0.061446 0.1265606,-0.066032 0.042187,-0.00459 0.064197,0.00825 0.078872,0.022012 0.014675,0.013758 0.022011,0.02843 0.022928,0.047688 z"
       id="path423"
       transform="matrix(-0.88058289,-0.92595467,0.92595467,-0.88058289,2.1176158,14.659194)" />
    <ellipse
       style="fill:#ffec8c;fill-opacity:1;stroke:none;stroke-width:0.240905;stroke-dasharray:none"
       id="ellipse423"
       cx="-4.8335776"
       cy="4.4882426"
       transform="scale(-1,1)"
       rx="0.056338385"
       ry="0.059859533" />
    <ellipse
       style="fill:#ffec8c;fill-opacity:1;stroke:none;stroke-width:0.226197;stroke-dasharray:none"
       id="ellipse424"
       cx="-5.8758945"
       cy="5.3621769"
       transform="scale(-1,1)"
       rx="0.056204993"
       ry="0.042980291" />
    <ellipse
       style="fill:#ffec8c;fill-opacity:1;stroke:none;stroke-width:0.228571;stroke-dasharray:none"
       id="ellipse425"
       cx="-3.5178967"
       cy="4.1921625"
       transform="scale(-1,1)"
       rx="0.036749501"
       ry="0.045101658" />
    <ellipse
       style="fill:#ffec8c;fill-opacity:1;stroke:none;stroke-width:0.240533;stroke-dasharray:none"
       id="ellipse426"
       cx="-2.5782921"
       cy="4.4862571"
       transform="scale(-1,1)"
       rx="0.054493401"
       ry="0.050977696" />
  </g>
  <g
     id="g489"
     transform="matrix(-1.0624885,0,0,1.0624885,34.131201,-0.26453462)">
    <rect
       style="fill:#bdca31;fill-opacity:0;stroke:none;stroke-width:0.979347"
       id="rect465"
       width="15.672448"
       height="15.672448"
       x="-1.1817173"
       y="7.8646674" />
  </g>
</svg>
