<?xml version="1.0" encoding="UTF-8" standalone="no"?>
<!-- Created with Inkscape (http://www.inkscape.org/) -->

<svg
   width="64.000008"
   height="64.000008"
   viewBox="0 0 16.933335 16.933335"
   version="1.1"
   id="svg1"
   xmlns="http://www.w3.org/2000/svg"
   xmlns:svg="http://www.w3.org/2000/svg">
  <defs
     id="defs1" />
  <g
     id="g32"
     transform="translate(-8.478902,-11.801772)">
    <rect
       style="fill:none;fill-opacity:0.921569;stroke:none;stroke-width:4.36359"
       id="rect225"
       width="15.937428"
       height="15.937428"
       x="7.7312517"
       y="11.356647"
       transform="matrix(1.0624885,0,0,1.0624885,0.26453492,-0.26453461)" />
  </g>
  <g
     id="g489"
     transform="matrix(-1.0624885,0,0,1.0624885,17.185633,-12.066307)">
    <rect
       style="fill:#bdca31;fill-opacity:0;stroke:none;stroke-width:0.979347"
       id="rect465"
       width="15.672448"
       height="15.672448"
       x="-1.1817173"
       y="7.8646674" />
    <path
       style="fill:none;fill-opacity:1;stroke:#457b47;stroke-width:0.101691;stroke-dasharray:none"
       d="M -4.6547347,7.4133884 C -4.7482792,7.2185042 -4.8418222,7.023623 -4.9079458,6.9029587 -4.9740694,6.7822944 -5.0127698,6.7358539 -5.1350417,6.5575712 -5.2573135,6.3792885 -5.4631554,6.0691657 -5.6241196,5.8784457 -5.7850837,5.6877257 -5.9011683,5.6164107 -6.0172533,5.5450955"
       id="path465"
       transform="matrix(-1.8510766,0,0,1.8510766,-0.18497926,9.8291163)" />
    <path
       style="fill:none;fill-opacity:1;stroke:#457b47;stroke-width:0.101691;stroke-dasharray:none"
       d="M -4.6467446,7.4083332 C -4.6687932,6.972873 -4.6908414,6.5374214 -4.7395936,6.2442318 -4.7883458,5.9510422 -4.8637985,5.8001369 -4.8999605,5.6410083 -4.9361224,5.4818796 -4.9329924,5.3145299 -4.9236527,5.12818 c 0.00934,-0.18635 0.024889,-0.3916987 0.040438,-0.5970478"
       id="path466"
       transform="matrix(-1.8510766,0,0,1.8510766,-0.18497926,9.8291163)" />
    <path
       style="fill:none;fill-opacity:1;stroke:#457b47;stroke-width:0.101691;stroke-dasharray:none"
       d="m -4.5805987,7.2760416 c 0.060634,-0.3031687 0.1212673,-0.6063369 0.2039507,-0.8874592 0.082683,-0.2811223 0.1874105,-0.5401844 0.2829407,-0.7013756 0.09553,-0.1611911 0.181856,-0.2244967 0.2528916,-0.3222018 0.071036,-0.097705 0.1267797,-0.2298086 0.1914662,-0.4291572 0.064687,-0.1993487 0.1383152,-0.4659418 0.2119443,-0.7325363"
       id="path467"
       transform="matrix(-1.8510766,0,0,1.8510766,-0.18497926,9.8291163)" />
    <path
       style="fill:none;fill-opacity:1;stroke:#457b47;stroke-width:0.101691;stroke-dasharray:none"
       d="m -4.4979164,7.2595051 c 0.1267796,-0.2039498 0.253559,-0.4078993 0.3832631,-0.6298494 0.1297041,-0.2219501 0.262325,-0.4618867 0.4097286,-0.6244337 0.1474035,-0.1625471 0.3095763,-0.2476878 0.4395217,-0.334681 0.1299454,-0.086993 0.2276611,-0.1758377 0.35743,-0.3545017 0.1297689,-0.1786639 0.2915909,-0.4471472 0.4534129,-0.7156304"
       id="path468"
       transform="matrix(-1.8510766,0,0,1.8510766,-0.18497926,9.8291163)" />
    <ellipse
       style="fill:#51a45c;fill-opacity:1;stroke:none;stroke-width:0.444873;stroke-dasharray:none"
       id="ellipse468"
       cx="-10.785872"
       cy="19.942699"
       rx="0.34944049"
       ry="0.50576907"
       transform="scale(-1,1)" />
    <ellipse
       style="fill:#51a45c;fill-opacity:1;stroke:none;stroke-width:0.473799;stroke-dasharray:none"
       id="ellipse469"
       cx="-8.8467121"
       cy="18.083918"
       rx="0.37216169"
       ry="0.53865498"
       transform="scale(-1,1)" />
    <ellipse
       style="fill:#51a45c;fill-opacity:1;stroke:none;stroke-width:0.449541;stroke-dasharray:none"
       id="ellipse470"
       cx="-6.2295771"
       cy="17.645243"
       rx="0.35310671"
       ry="0.5110755"
       transform="scale(-1,1)" />
    <ellipse
       style="fill:#51a45c;fill-opacity:1;stroke:none;stroke-width:0.473068;stroke-dasharray:none"
       id="ellipse471"
       cx="-4.4711485"
       cy="18.113798"
       rx="0.37158605"
       ry="0.53782189"
       transform="scale(-1,1)" />
    <path
       style="fill:#363db6;fill-opacity:1;stroke:none;stroke-width:0.188237;stroke-dasharray:none"
       d="m 5.7249165,5.5581332 c 9.172e-4,0.019258 -0.00459,0.043104 -0.024763,0.085292 -0.020177,0.042188 -0.055026,0.1027161 -0.086208,0.143069 -0.031182,0.040353 -0.058695,0.060529 -0.075203,0.04402 -0.016508,-0.016509 -0.02201,-0.0697 -0.033933,-0.1247273 -0.011923,-0.055027 -0.030265,-0.1118868 -0.00825,-0.151323 0.022011,-0.039436 0.084373,-0.061446 0.1265606,-0.066032 0.042187,-0.00459 0.064197,0.00825 0.078872,0.022012 0.014675,0.013758 0.022011,0.02843 0.022928,0.047688 z"
       id="path471"
       transform="matrix(2.2193991,0.81226585,-0.81226585,2.2193991,3.3884485,2.4147418)" />
    <path
       style="fill:#363db6;fill-opacity:1;stroke:none;stroke-width:0.188237;stroke-dasharray:none"
       d="m 5.7249165,5.5581332 c 9.172e-4,0.019258 -0.00459,0.043104 -0.024763,0.085292 -0.020177,0.042188 -0.055026,0.1027161 -0.086208,0.143069 -0.031182,0.040353 -0.058695,0.060529 -0.075203,0.04402 -0.016508,-0.016509 -0.02201,-0.0697 -0.033933,-0.1247273 -0.011923,-0.055027 -0.030265,-0.1118868 -0.00825,-0.151323 0.022011,-0.039436 0.084373,-0.061446 0.1265606,-0.066032 0.042187,-0.00459 0.064197,0.00825 0.078872,0.022012 0.014675,0.013758 0.022011,0.02843 0.022928,0.047688 z"
       id="path472"
       transform="matrix(2.4681897,0.49347744,-0.49347744,2.4681897,-1.9739155,1.0915071)" />
    <path
       style="fill:#363db6;fill-opacity:1;stroke:none;stroke-width:0.188237;stroke-dasharray:none"
       d="m 5.7249165,5.5581332 c 9.172e-4,0.019258 -0.00459,0.043104 -0.024763,0.085292 -0.020177,0.042188 -0.055026,0.1027161 -0.086208,0.143069 -0.031182,0.040353 -0.058695,0.060529 -0.075203,0.04402 -0.016508,-0.016509 -0.02201,-0.0697 -0.033933,-0.1247273 -0.011923,-0.055027 -0.030265,-0.1118868 -0.00825,-0.151323 0.022011,-0.039436 0.084373,-0.061446 0.1265606,-0.066032 0.042187,-0.00459 0.064197,0.00825 0.078872,0.022012 0.014675,0.013758 0.022011,0.02843 0.022928,0.047688 z"
       id="path473"
       transform="matrix(1.8677597,1.4882201,-1.4882201,1.8677597,4.3896276,-1.6393272)" />
    <path
       style="fill:#363db6;fill-opacity:1;stroke:none;stroke-width:0.188237;stroke-dasharray:none"
       d="m 5.7249165,5.5581332 c 9.172e-4,0.019258 -0.00459,0.043104 -0.024763,0.085292 -0.020177,0.042188 -0.055026,0.1027161 -0.086208,0.143069 -0.031182,0.040353 -0.058695,0.060529 -0.075203,0.04402 -0.016508,-0.016509 -0.02201,-0.0697 -0.033933,-0.1247273 -0.011923,-0.055027 -0.030265,-0.1118868 -0.00825,-0.151323 0.022011,-0.039436 0.084373,-0.061446 0.1265606,-0.066032 0.042187,-0.00459 0.064197,0.00825 0.078872,0.022012 0.014675,0.013758 0.022011,0.02843 0.022928,0.047688 z"
       id="path474"
       transform="matrix(2.5079184,0.16199587,-0.16199587,2.5079184,-8.607632,2.6629073)" />
    <path
       style="fill:#363db6;fill-opacity:1;stroke:none;stroke-width:0.188237;stroke-dasharray:none"
       d="m 5.7249165,5.5581332 c 9.172e-4,0.019258 -0.00459,0.043104 -0.024763,0.085292 -0.020177,0.042188 -0.055026,0.1027161 -0.086208,0.143069 -0.031182,0.040353 -0.058695,0.060529 -0.075203,0.04402 -0.016508,-0.016509 -0.02201,-0.0697 -0.033933,-0.1247273 -0.011923,-0.055027 -0.030265,-0.1118868 -0.00825,-0.151323 0.022011,-0.039436 0.084373,-0.061446 0.1265606,-0.066032 0.042187,-0.00459 0.064197,0.00825 0.078872,0.022012 0.014675,0.013758 0.022011,0.02843 0.022928,0.047688 z"
       id="path475"
       transform="matrix(-1.731534,-1.6085079,1.6085079,-1.731534,11.073834,38.800533)" />
    <path
       style="fill:#363db6;fill-opacity:1;stroke:none;stroke-width:0.188237;stroke-dasharray:none"
       d="m 5.7249165,5.5581332 c 9.172e-4,0.019258 -0.00459,0.043104 -0.024763,0.085292 -0.020177,0.042188 -0.055026,0.1027161 -0.086208,0.143069 -0.031182,0.040353 -0.058695,0.060529 -0.075203,0.04402 -0.016508,-0.016509 -0.02201,-0.0697 -0.033933,-0.1247273 -0.011923,-0.055027 -0.030265,-0.1118868 -0.00825,-0.151323 0.022011,-0.039436 0.084373,-0.061446 0.1265606,-0.066032 0.042187,-0.00459 0.064197,0.00825 0.078872,0.022012 0.014675,0.013758 0.022011,0.02843 0.022928,0.047688 z"
       id="path476"
       transform="matrix(-2.1640082,0.95004039,-0.95004039,-2.1640082,28.358745,27.208777)" />
    <path
       style="fill:#363db6;fill-opacity:1;stroke:none;stroke-width:0.188237;stroke-dasharray:none"
       d="m 5.7249165,5.5581332 c 9.172e-4,0.019258 -0.00459,0.043104 -0.024763,0.085292 -0.020177,0.042188 -0.055026,0.1027161 -0.086208,0.143069 -0.031182,0.040353 -0.058695,0.060529 -0.075203,0.04402 -0.016508,-0.016509 -0.02201,-0.0697 -0.033933,-0.1247273 -0.011923,-0.055027 -0.030265,-0.1118868 -0.00825,-0.151323 0.022011,-0.039436 0.084373,-0.061446 0.1265606,-0.066032 0.042187,-0.00459 0.064197,0.00825 0.078872,0.022012 0.014675,0.013758 0.022011,0.02843 0.022928,0.047688 z"
       id="path477"
       transform="matrix(-1.0027623,2.1400878,-2.1400878,-1.0027623,28.931282,13.778539)" />
    <path
       style="fill:#363db6;fill-opacity:1;stroke:none;stroke-width:0.188237;stroke-dasharray:none"
       d="m 5.7249165,5.5581332 c 9.172e-4,0.019258 -0.00459,0.043104 -0.024763,0.085292 -0.020177,0.042188 -0.055026,0.1027161 -0.086208,0.143069 -0.031182,0.040353 -0.058695,0.060529 -0.075203,0.04402 -0.016508,-0.016509 -0.02201,-0.0697 -0.033933,-0.1247273 -0.011923,-0.055027 -0.030265,-0.1118868 -0.00825,-0.151323 0.022011,-0.039436 0.084373,-0.061446 0.1265606,-0.066032 0.042187,-0.00459 0.064197,0.00825 0.078872,0.022012 0.014675,0.013758 0.022011,0.02843 0.022928,0.047688 z"
       id="path478"
       transform="matrix(-0.13746189,2.5132815,-2.5132815,-0.13746189,24.277958,4.9921938)" />
    <path
       style="fill:#363db6;fill-opacity:1;stroke:none;stroke-width:0.188237;stroke-dasharray:none"
       d="m 5.7249165,5.5581332 c 9.172e-4,0.019258 -0.00459,0.043104 -0.024763,0.085292 -0.020177,0.042188 -0.055026,0.1027161 -0.086208,0.143069 -0.031182,0.040353 -0.058695,0.060529 -0.075203,0.04402 -0.016508,-0.016509 -0.02201,-0.0697 -0.033933,-0.1247273 -0.011923,-0.055027 -0.030265,-0.1118868 -0.00825,-0.151323 0.022011,-0.039436 0.084373,-0.061446 0.1265606,-0.066032 0.042187,-0.00459 0.064197,0.00825 0.078872,0.022012 0.014675,0.013758 0.022011,0.02843 0.022928,0.047688 z"
       id="path479"
       transform="matrix(-2.5151857,-0.09654221,0.09654221,-2.5151857,22.408347,33.36817)" />
    <path
       style="fill:#363db6;fill-opacity:1;stroke:none;stroke-width:0.188237;stroke-dasharray:none"
       d="m 5.7249165,5.5581332 c 9.172e-4,0.019258 -0.00459,0.043104 -0.024763,0.085292 -0.020177,0.042188 -0.055026,0.1027161 -0.086208,0.143069 -0.031182,0.040353 -0.058695,0.060529 -0.075203,0.04402 -0.016508,-0.016509 -0.02201,-0.0697 -0.033933,-0.1247273 -0.011923,-0.055027 -0.030265,-0.1118868 -0.00825,-0.151323 0.022011,-0.039436 0.084373,-0.061446 0.1265606,-0.066032 0.042187,-0.00459 0.064197,0.00825 0.078872,0.022012 0.014675,0.013758 0.022011,0.02843 0.022928,0.047688 z"
       id="path480"
       transform="matrix(-1.2522014,-2.1834542,2.1834542,-1.2522014,3.1025794,37.64122)" />
    <path
       style="fill:#363db6;fill-opacity:1;stroke:none;stroke-width:0.188237;stroke-dasharray:none"
       d="m 5.7249165,5.5581332 c 9.172e-4,0.019258 -0.00459,0.043104 -0.024763,0.085292 -0.020177,0.042188 -0.055026,0.1027161 -0.086208,0.143069 -0.031182,0.040353 -0.058695,0.060529 -0.075203,0.04402 -0.016508,-0.016509 -0.02201,-0.0697 -0.033933,-0.1247273 -0.011923,-0.055027 -0.030265,-0.1118868 -0.00825,-0.151323 0.022011,-0.039436 0.084373,-0.061446 0.1265606,-0.066032 0.042187,-0.00459 0.064197,0.00825 0.078872,0.022012 0.014675,0.013758 0.022011,0.02843 0.022928,0.047688 z"
       id="path481"
       transform="matrix(-0.49529173,-2.3362388,2.3362388,-0.49529173,-4.570349,33.412107)" />
    <path
       style="fill:#363db6;fill-opacity:1;stroke:none;stroke-width:0.188237;stroke-dasharray:none"
       d="m 5.7249165,5.5581332 c 9.172e-4,0.019258 -0.00459,0.043104 -0.024763,0.085292 -0.020177,0.042188 -0.055026,0.1027161 -0.086208,0.143069 -0.031182,0.040353 -0.058695,0.060529 -0.075203,0.04402 -0.016508,-0.016509 -0.02201,-0.0697 -0.033933,-0.1247273 -0.011923,-0.055027 -0.030265,-0.1118868 -0.00825,-0.151323 0.022011,-0.039436 0.084373,-0.061446 0.1265606,-0.066032 0.042187,-0.00459 0.064197,0.00825 0.078872,0.022012 0.014675,0.013758 0.022011,0.02843 0.022928,0.047688 z"
       id="path482"
       transform="matrix(-2.3417746,0.46841946,-0.46841946,-2.3417746,21.946678,28.410358)" />
    <path
       style="fill:#363db6;fill-opacity:1;stroke:none;stroke-width:0.188237;stroke-dasharray:none"
       d="m 5.7249165,5.5581332 c 9.172e-4,0.019258 -0.00459,0.043104 -0.024763,0.085292 -0.020177,0.042188 -0.055026,0.1027161 -0.086208,0.143069 -0.031182,0.040353 -0.058695,0.060529 -0.075203,0.04402 -0.016508,-0.016509 -0.02201,-0.0697 -0.033933,-0.1247273 -0.011923,-0.055027 -0.030265,-0.1118868 -0.00825,-0.151323 0.022011,-0.039436 0.084373,-0.061446 0.1265606,-0.066032 0.042187,-0.00459 0.064197,0.00825 0.078872,0.022012 0.014675,0.013758 0.022011,0.02843 0.022928,0.047688 z"
       id="path483"
       transform="matrix(-0.63361199,2.3025771,-2.3025771,-0.63361199,23.137538,8.3138266)" />
    <path
       style="fill:#363db6;fill-opacity:1;stroke:none;stroke-width:0.188237;stroke-dasharray:none"
       d="m 5.7249165,5.5581332 c 9.172e-4,0.019258 -0.00459,0.043104 -0.024763,0.085292 -0.020177,0.042188 -0.055026,0.1027161 -0.086208,0.143069 -0.031182,0.040353 -0.058695,0.060529 -0.075203,0.04402 -0.016508,-0.016509 -0.02201,-0.0697 -0.033933,-0.1247273 -0.011923,-0.055027 -0.030265,-0.1118868 -0.00825,-0.151323 0.022011,-0.039436 0.084373,-0.061446 0.1265606,-0.066032 0.042187,-0.00459 0.064197,0.00825 0.078872,0.022012 0.014675,0.013758 0.022011,0.02843 0.022928,0.047688 z"
       id="path484"
       transform="matrix(0.09056269,2.5115126,-2.5115126,0.09056269,18.434068,3.5936812)" />
    <path
       style="fill:#363db6;fill-opacity:1;stroke:none;stroke-width:0.188237;stroke-dasharray:none"
       d="m 5.7249165,5.5581332 c 9.172e-4,0.019258 -0.00459,0.043104 -0.024763,0.085292 -0.020177,0.042188 -0.055026,0.1027161 -0.086208,0.143069 -0.031182,0.040353 -0.058695,0.060529 -0.075203,0.04402 -0.016508,-0.016509 -0.02201,-0.0697 -0.033933,-0.1247273 -0.011923,-0.055027 -0.030265,-0.1118868 -0.00825,-0.151323 0.022011,-0.039436 0.084373,-0.061446 0.1265606,-0.066032 0.042187,-0.00459 0.064197,0.00825 0.078872,0.022012 0.014675,0.013758 0.022011,0.02843 0.022928,0.047688 z"
       id="path485"
       transform="matrix(-2.3308222,0.93976895,-0.93976895,-2.3308222,22.774845,26.390563)" />
    <path
       style="fill:#363db6;fill-opacity:1;stroke:none;stroke-width:0.188237;stroke-dasharray:none"
       d="m 5.7249165,5.5581332 c 9.172e-4,0.019258 -0.00459,0.043104 -0.024763,0.085292 -0.020177,0.042188 -0.055026,0.1027161 -0.086208,0.143069 -0.031182,0.040353 -0.058695,0.060529 -0.075203,0.04402 -0.016508,-0.016509 -0.02201,-0.0697 -0.033933,-0.1247273 -0.011923,-0.055027 -0.030265,-0.1118868 -0.00825,-0.151323 0.022011,-0.039436 0.084373,-0.061446 0.1265606,-0.066032 0.042187,-0.00459 0.064197,0.00825 0.078872,0.022012 0.014675,0.013758 0.022011,0.02843 0.022928,0.047688 z"
       id="path486"
       transform="matrix(-1.7318843,-1.8211191,1.8211191,-1.7318843,3.4901621,38.170376)" />
    <path
       style="fill:#363db6;fill-opacity:1;stroke:none;stroke-width:0.188237;stroke-dasharray:none"
       d="m 5.7249165,5.5581332 c 9.172e-4,0.019258 -0.00459,0.043104 -0.024763,0.085292 -0.020177,0.042188 -0.055026,0.1027161 -0.086208,0.143069 -0.031182,0.040353 -0.058695,0.060529 -0.075203,0.04402 -0.016508,-0.016509 -0.02201,-0.0697 -0.033933,-0.1247273 -0.011923,-0.055027 -0.030265,-0.1118868 -0.00825,-0.151323 0.022011,-0.039436 0.084373,-0.061446 0.1265606,-0.066032 0.042187,-0.00459 0.064197,0.00825 0.078872,0.022012 0.014675,0.013758 0.022011,0.02843 0.022928,0.047688 z"
       id="path528"
       transform="matrix(-2.2193991,0.81226585,0.81226585,2.2193991,18.528877,2.3680501)" />
    <path
       style="fill:#363db6;fill-opacity:1;stroke:none;stroke-width:0.188237;stroke-dasharray:none"
       d="m 8.8603874,18.105131 c 0.00183,-0.03852 0.0055,-0.115555 -0.020177,-0.198094 -0.025679,-0.08254 -0.080707,-0.170584 -0.199932,-0.210936 -0.1192253,-0.04035 -0.3026453,-0.03302 -0.3705113,0.04769 -0.067866,0.08071 -0.020177,0.234779 0.082541,0.320988 0.1027179,0.08621 0.2604575,0.104553 0.3540048,0.106387 0.093547,0.0018 0.122893,-0.01284 0.1375663,-0.02017 0.014673,-0.0073 0.014674,-0.0073 0.016508,-0.04586 z"
       id="path530" />
    <path
       style="fill:#363db6;fill-opacity:1;stroke:none;stroke-width:0.188237;stroke-dasharray:none"
       d="m 5.7249165,5.5581332 c 9.172e-4,0.019258 -0.00459,0.043104 -0.024763,0.085292 -0.020177,0.042188 -0.055026,0.1027161 -0.086208,0.143069 -0.031182,0.040353 -0.058695,0.060529 -0.075203,0.04402 -0.016508,-0.016509 -0.02201,-0.0697 -0.033933,-0.1247273 -0.011923,-0.055027 -0.030265,-0.1118868 -0.00825,-0.151323 0.022011,-0.039436 0.084373,-0.061446 0.1265606,-0.066032 0.042187,-0.00459 0.064197,0.00825 0.078872,0.022012 0.014675,0.013758 0.022011,0.02843 0.022928,0.047688 z"
       id="path531"
       transform="matrix(-1.8677597,1.4882201,1.4882201,1.8677597,8.0134783,-1.6613379)" />
    <path
       style="fill:#363db6;fill-opacity:1;stroke:none;stroke-width:0.188237;stroke-dasharray:none"
       d="m 5.7249165,5.5581332 c 9.172e-4,0.019258 -0.00459,0.043104 -0.024763,0.085292 -0.020177,0.042188 -0.055026,0.1027161 -0.086208,0.143069 -0.031182,0.040353 -0.058695,0.060529 -0.075203,0.04402 -0.016508,-0.016509 -0.02201,-0.0697 -0.033933,-0.1247273 -0.011923,-0.055027 -0.030265,-0.1118868 -0.00825,-0.151323 0.022011,-0.039436 0.084373,-0.061446 0.1265606,-0.066032 0.042187,-0.00459 0.064197,0.00825 0.078872,0.022012 0.014675,0.013758 0.022011,0.02843 0.022928,0.047688 z"
       id="path533"
       transform="matrix(-2.1478915,1.3047832,1.3047832,2.1478915,8.7273762,-1.6613739)" />
    <path
       style="fill:#ffec8c;fill-opacity:1;stroke:none;stroke-width:0.188237;stroke-dasharray:none"
       d="m 11.153625,19.818754 c 0.01422,0.005 0.04265,0.01513 0.06236,0.03622 0.01972,0.02109 0.03072,0.05319 0.04081,0.08484 0.01009,0.03164 0.01926,0.06282 0.0082,0.08253 -0.01101,0.01972 -0.04218,0.02797 -0.07107,0.02109 -0.02889,-0.0069 -0.05549,-0.02889 -0.08346,-0.0619 -0.02797,-0.03302 -0.05732,-0.07704 -0.05732,-0.105928 3e-6,-0.02889 0.02934,-0.04264 0.04861,-0.05044 0.01927,-0.0078 0.02843,-0.0096 0.03301,-0.01054 0.0046,-9.16e-4 0.0046,-9.12e-4 0.01881,0.0041 z"
       id="path535"
       transform="translate(-0.06328068,-0.01100534)" />
    <path
       style="fill:#ffec8c;fill-opacity:1;stroke:none;stroke-width:0.188237;stroke-dasharray:none"
       d="m 11.153625,19.818754 c 0.01422,0.005 0.04265,0.01513 0.06236,0.03622 0.01972,0.02109 0.03072,0.05319 0.04081,0.08484 0.01009,0.03164 0.01926,0.06282 0.0082,0.08253 -0.01101,0.01972 -0.04218,0.02797 -0.07107,0.02109 -0.02889,-0.0069 -0.05549,-0.02889 -0.08346,-0.0619 -0.02797,-0.03302 -0.05732,-0.07704 -0.05732,-0.105928 3e-6,-0.02889 0.02934,-0.04264 0.04861,-0.05044 0.01927,-0.0078 0.02843,-0.0096 0.03301,-0.01054 0.0046,-9.16e-4 0.0046,-9.12e-4 0.01881,0.0041 z"
       id="path536"
       transform="rotate(43.827077,11.036477,19.638645)" />
    <path
       style="fill:#ffec8c;fill-opacity:1;stroke:none;stroke-width:0.188237;stroke-dasharray:none"
       d="m 11.153625,19.818754 c 0.01422,0.005 0.04265,0.01513 0.06236,0.03622 0.01972,0.02109 0.03072,0.05319 0.04081,0.08484 0.01009,0.03164 0.01926,0.06282 0.0082,0.08253 -0.01101,0.01972 -0.04218,0.02797 -0.07107,0.02109 -0.02889,-0.0069 -0.05549,-0.02889 -0.08346,-0.0619 -0.02797,-0.03302 -0.05732,-0.07704 -0.05732,-0.105928 3e-6,-0.02889 0.02934,-0.04264 0.04861,-0.05044 0.01927,-0.0078 0.02843,-0.0096 0.03301,-0.01054 0.0046,-9.16e-4 0.0046,-9.12e-4 0.01881,0.0041 z"
       id="path538"
       transform="rotate(106.83934,10.989797,19.751986)" />
    <path
       style="fill:#ffec8c;fill-opacity:1;stroke:none;stroke-width:0.188237;stroke-dasharray:none"
       d="m 9.0827828,18.381559 c -0.00259,-0.0071 -0.00778,-0.0214 -0.02529,-0.05447 -0.01751,-0.03308 -0.04734,-0.08495 -0.090142,-0.101815 -0.042802,-0.01686 -0.098572,0.0013 -0.1342389,0.03696 -0.035667,0.03567 -0.05123,0.08884 -0.053176,0.125806 -0.00195,0.03696 0.00973,0.05771 0.035667,0.07458 0.025941,0.01686 0.066147,0.02983 0.1044106,0.02011 0.038263,-0.0097 0.074577,-0.04215 0.1018156,-0.06161 0.027239,-0.01946 0.04539,-0.02594 0.05447,-0.02918 0.00908,-0.0032 0.00908,-0.0032 0.00648,-0.01038 z"
       id="path540"
       transform="translate(0.01750938,-0.04280071)" />
    <path
       style="fill:#ffec8c;fill-opacity:1;stroke:none;stroke-width:0.188237;stroke-dasharray:none"
       d="m 8.5497199,18.120217 c 0.032425,0 0.097275,0 0.1588824,0 0.061608,0 0.119971,0 0.1478567,0.01881 0.027886,0.01881 0.025292,0.05643 0.00584,0.08561 -0.019454,0.02918 -0.055768,0.04993 -0.092735,0.06355 -0.036967,0.01362 -0.074576,0.02011 -0.1141347,0.0065 -0.039558,-0.01362 -0.081061,-0.04734 -0.1063522,-0.07652 -0.025291,-0.02918 -0.034373,-0.05383 -0.036963,-0.0694 -0.00259,-0.01557 0.00129,-0.02204 0.00324,-0.02529 0.00195,-0.0032 0.00195,-0.0032 0.03437,-0.0032 z"
       id="path541"
       transform="translate(0.0291823,-0.00972743)" />
    <path
       style="fill:#ffec8c;fill-opacity:1;stroke:none;stroke-width:0.188237;stroke-dasharray:none"
       d="m 8.8032827,17.810237 c 0.013619,0.0091 0.040853,0.02723 0.060309,0.0629 0.019456,0.03567 0.031128,0.08884 0.023346,0.128401 -0.00778,0.03956 -0.035018,0.0655 -0.075226,0.07587 -0.040208,0.01038 -0.093383,0.0052 -0.142019,-0.01167 -0.048636,-0.01686 -0.092736,-0.04539 -0.097276,-0.07587 -0.00454,-0.03048 0.030482,-0.0629 0.063556,-0.09273 0.033073,-0.02983 0.064198,-0.05706 0.089491,-0.07263 0.025293,-0.01556 0.044749,-0.01945 0.054475,-0.0214 0.00973,-0.0019 0.00973,-0.002 0.023345,0.0071 z"
       id="path542"
       transform="translate(-0.00389097,0.04280071)" />
    <path
       style="fill:#ffec8c;fill-opacity:1;stroke:none;stroke-width:0.188237;stroke-dasharray:none"
       d="m 6.4135438,17.40813 c 0.00918,0.0018 0.027496,0.0055 0.055014,0.01834 0.027517,0.01284 0.064203,0.03485 0.09447,0.05686 0.030267,0.02201 0.054106,0.04402 0.055023,0.0752 9.172e-4,0.03118 -0.021096,0.07154 -0.060531,0.08438 -0.039436,0.01284 -0.096297,-0.0018 -0.1338983,-0.02843 -0.037602,-0.0266 -0.055943,-0.06511 -0.066948,-0.09905 -0.011005,-0.03393 -0.014675,-0.06328 -0.0055,-0.08071 0.00917,-0.01742 0.03118,-0.02292 0.042187,-0.02568 0.011006,-0.0028 0.011007,-0.0028 0.020186,-9.18e-4 z"
       id="path543"
       transform="translate(-0.06052934,-0.00550267)" />
    <path
       style="fill:#ffec8c;fill-opacity:1;stroke:none;stroke-width:0.188237;stroke-dasharray:none"
       d="m 6.2557915,17.462237 c 0.011005,0.01192 0.033018,0.03577 0.052277,0.08162 0.019259,0.04586 0.035766,0.113719 0.019258,0.161409 -0.016508,0.04769 -0.066034,0.0752 -0.1063864,0.05686 -0.040352,-0.01834 -0.071533,-0.08254 -0.088958,-0.138483 -0.017425,-0.05594 -0.021094,-0.103635 -9.183e-4,-0.136651 0.020176,-0.03302 0.064197,-0.05136 0.087124,-0.05503 0.022927,-0.0037 0.024762,0.0073 0.025679,0.01285 9.17e-4,0.0055 9.207e-4,0.0055 0.011926,0.01743 z"
       id="path544"
       transform="translate(0.06328068,0.03026467)" />
    <path
       style="fill:#ffec8c;fill-opacity:1;stroke:none;stroke-width:0.188237;stroke-dasharray:none"
       d="m 6.0164243,17.468659 c -0.00275,0.0073 -0.00826,0.02201 -0.030265,0.05136 -0.02201,0.02935 -0.060528,0.07337 -0.09813,0.07979 -0.037602,0.0064 -0.074284,-0.02476 -0.090793,-0.06695 -0.016509,-0.04219 -0.01284,-0.09538 0.014672,-0.125648 0.027512,-0.03026 0.078874,-0.0376 0.1173933,-0.02476 0.038519,0.01284 0.064195,0.04585 0.077035,0.06236 0.01284,0.01651 0.01284,0.01651 0.010088,0.02385 z"
       id="path545"
       transform="translate(0.18984203,0.033016)" />
    <path
       style="fill:#ffec8c;fill-opacity:1;stroke:none;stroke-width:0.188237;stroke-dasharray:none"
       d="m 4.5926011,18.013863 c 0.020752,0.0026 0.062256,0.0078 0.1063529,0.02464 0.044097,0.01686 0.090791,0.04539 0.097275,0.07912 0.00648,0.03372 -0.027238,0.07263 -0.07393,0.08495 -0.046692,0.01232 -0.1063518,-0.0019 -0.1465589,-0.03178 -0.040207,-0.02983 -0.060959,-0.07522 -0.058366,-0.104407 0.00259,-0.02918 0.028534,-0.04215 0.041504,-0.04864 0.01297,-0.0065 0.012971,-0.0065 0.033723,-0.0039 z"
       id="path546"
       transform="translate(-0.14582069,0.05777801)" />
    <path
       style="fill:#ffec8c;fill-opacity:1;stroke:none;stroke-width:0.188237;stroke-dasharray:none"
       d="m 4.4700359,18.187661 c 0.014916,0.0091 0.044748,0.02724 0.065498,0.05771 0.02075,0.03048 0.032422,0.07327 0.022695,0.101162 -0.00973,0.02789 -0.040854,0.04086 -0.080413,0.03437 -0.039559,-0.0065 -0.087546,-0.03242 -0.1024615,-0.06939 -0.014916,-0.03696 0.00324,-0.08496 0.023343,-0.111541 0.0201,-0.02659 0.042156,-0.03177 0.051883,-0.03177 0.00973,5e-6 0.00714,0.0052 0.00585,0.0078 -0.00129,0.0026 -0.00131,0.0026 0.013609,0.01167 z"
       id="path547"
       transform="translate(-0.08529135,0.01100533)" />
    <path
       style="fill:#ffec8c;fill-opacity:1;stroke:none;stroke-width:0.188237;stroke-dasharray:none"
       d="m 4.2916992,18.139672 c 0,0 0,0 0,0 -0.045395,0.02724 -0.090789,0.05447 -0.1309985,0.06485 -0.040209,0.01037 -0.075223,0.0039 -0.084951,-0.02075 -0.00973,-0.02464 0.00584,-0.06744 0.039558,-0.08754 0.033722,-0.0201 0.0856,-0.0175 0.1219132,-0.01037 0.036313,0.0071 0.057072,0.01881 0.063557,0.02854 0.00648,0.0097 -0.00129,0.01751 -0.00518,0.0214 -0.00389,0.0039 -0.0039,0.0039 -0.0039,0.0039 z"
       id="path548"
       transform="matrix(1.1433111,0,0,1.1433111,-0.59964558,-2.4784288)" />
    <ellipse
       style="fill:#ffffff;fill-opacity:1;stroke:none;stroke-width:0.188237;stroke-dasharray:none"
       id="path549"
       cx="-10.968825"
       cy="19.757307"
       transform="scale(-1,1)"
       rx="0.13756669"
       ry="0.11693168" />
    <ellipse
       style="fill:#ffffff;fill-opacity:1;stroke:none;stroke-width:0.188237;stroke-dasharray:none"
       id="path550"
       cx="-10.945439"
       cy="19.716038"
       transform="scale(-1,1)"
       rx="0.0013756668"
       ry="0.034391671" />
    <ellipse
       style="fill:#ffffff;fill-opacity:1;stroke:none;stroke-width:0.188237;stroke-dasharray:none"
       id="ellipse550"
       cx="-8.9455194"
       cy="18.107534"
       transform="scale(-1,1)"
       rx="0.13756669"
       ry="0.11693168" />
    <ellipse
       style="fill:#ffffff;fill-opacity:1;stroke:none;stroke-width:0.188237;stroke-dasharray:none"
       id="ellipse551"
       cx="-6.2327046"
       cy="17.425203"
       transform="scale(-1,1)"
       rx="0.13756669"
       ry="0.11693168" />
    <ellipse
       style="fill:#ffffff;fill-opacity:1;stroke:none;stroke-width:0.188237;stroke-dasharray:none"
       id="path551"
       cx="-4.3064704"
       cy="18.140902"
       transform="scale(-1,1)"
       rx="0.11968301"
       ry="0.10730201" />
    <path
       style="fill:none;fill-opacity:1;stroke:#457b47;stroke-width:0.101691;stroke-dasharray:none"
       d="M -4.6547347,7.4133884 C -4.7482792,7.2185042 -4.8418222,7.023623 -4.9079458,6.9029587 -4.9740694,6.7822944 -5.0127698,6.7358539 -5.1350417,6.5575712 -5.2573135,6.3792885 -5.4631554,6.0691657 -5.6241196,5.8784457 -5.7850837,5.6877257 -5.9011683,5.6164107 -6.0172533,5.5450955"
       id="path552"
       transform="matrix(-0.93390934,0.83874272,0.83874272,0.93390934,-2.0472633,20.458588)" />
    <ellipse
       style="fill:#51a45c;fill-opacity:1;stroke:none;stroke-width:0.301679;stroke-dasharray:none"
       id="ellipse552"
       cx="7.7536378"
       cy="20.711449"
       rx="0.23696394"
       ry="0.3429741"
       transform="matrix(-0.74399712,0.66818283,0.66818283,0.74399712,0,0)" />
    <path
       style="fill:#363db6;fill-opacity:1;stroke:none;stroke-width:0.188237;stroke-dasharray:none"
       d="m 5.7249165,5.5581332 c 9.172e-4,0.019258 -0.00459,0.043104 -0.024763,0.085292 -0.020177,0.042188 -0.055026,0.1027161 -0.086208,0.143069 -0.031182,0.040353 -0.058695,0.060529 -0.075203,0.04402 -0.016508,-0.016509 -0.02201,-0.0697 -0.033933,-0.1247273 -0.011923,-0.055027 -0.030265,-0.1118868 -0.00825,-0.151323 0.022011,-0.039436 0.084373,-0.061446 0.1265606,-0.066032 0.042187,-0.00459 0.064197,0.00825 0.078872,0.022012 0.014675,0.013758 0.022011,0.02843 0.022928,0.047688 z"
       id="path553"
       transform="matrix(1.4877826,-0.59582742,0.59582742,1.4877826,-3.6039222,15.098712)" />
    <path
       style="fill:#363db6;fill-opacity:1;stroke:none;stroke-width:0.188237;stroke-dasharray:none"
       d="m 5.7249165,5.5581332 c 9.172e-4,0.019258 -0.00459,0.043104 -0.024763,0.085292 -0.020177,0.042188 -0.055026,0.1027161 -0.086208,0.143069 -0.031182,0.040353 -0.058695,0.060529 -0.075203,0.04402 -0.016508,-0.016509 -0.02201,-0.0697 -0.033933,-0.1247273 -0.011923,-0.055027 -0.030265,-0.1118868 -0.00825,-0.151323 0.022011,-0.039436 0.084373,-0.061446 0.1265606,-0.066032 0.042187,-0.00459 0.064197,0.00825 0.078872,0.022012 0.014675,0.013758 0.022011,0.02843 0.022928,0.047688 z"
       id="path554"
       transform="matrix(-1.6024297,-0.02695132,0.02695132,-1.6024297,16.760318,29.973822)" />
    <path
       style="fill:#363db6;fill-opacity:1;stroke:none;stroke-width:0.188237;stroke-dasharray:none"
       d="m 5.7249165,5.5581332 c 9.172e-4,0.019258 -0.00459,0.043104 -0.024763,0.085292 -0.020177,0.042188 -0.055026,0.1027161 -0.086208,0.143069 -0.031182,0.040353 -0.058695,0.060529 -0.075203,0.04402 -0.016508,-0.016509 -0.02201,-0.0697 -0.033933,-0.1247273 -0.011923,-0.055027 -0.030265,-0.1118868 -0.00825,-0.151323 0.022011,-0.039436 0.084373,-0.061446 0.1265606,-0.066032 0.042187,-0.00459 0.064197,0.00825 0.078872,0.022012 0.014675,0.013758 0.022011,0.02843 0.022928,0.047688 z"
       id="path555"
       transform="matrix(-0.66131674,1.4598519,-1.4598519,-0.66131674,20.228591,16.293545)" />
    <path
       style="fill:#363db6;fill-opacity:1;stroke:none;stroke-width:0.188237;stroke-dasharray:none"
       d="m 5.7249165,5.5581332 c 9.172e-4,0.019258 -0.00459,0.043104 -0.024763,0.085292 -0.020177,0.042188 -0.055026,0.1027161 -0.086208,0.143069 -0.031182,0.040353 -0.058695,0.060529 -0.075203,0.04402 -0.016508,-0.016509 -0.02201,-0.0697 -0.033933,-0.1247273 -0.011923,-0.055027 -0.030265,-0.1118868 -0.00825,-0.151323 0.022011,-0.039436 0.084373,-0.061446 0.1265606,-0.066032 0.042187,-0.00459 0.064197,0.00825 0.078872,0.022012 0.014675,0.013758 0.022011,0.02843 0.022928,0.047688 z"
       id="path556"
       transform="matrix(0.46378092,1.5340843,-1.5340843,0.46378092,14.432063,9.2582675)" />
    <path
       style="fill:#363db6;fill-opacity:1;stroke:none;stroke-width:0.188237;stroke-dasharray:none"
       d="m 5.7249165,5.5581332 c 9.172e-4,0.019258 -0.00459,0.043104 -0.024763,0.085292 -0.020177,0.042188 -0.055026,0.1027161 -0.086208,0.143069 -0.031182,0.040353 -0.058695,0.060529 -0.075203,0.04402 -0.016508,-0.016509 -0.02201,-0.0697 -0.033933,-0.1247273 -0.011923,-0.055027 -0.030265,-0.1118868 -0.00825,-0.151323 0.022011,-0.039436 0.084373,-0.061446 0.1265606,-0.066032 0.042187,-0.00459 0.064197,0.00825 0.078872,0.022012 0.014675,0.013758 0.022011,0.02843 0.022928,0.047688 z"
       id="path557"
       transform="matrix(-0.75168978,1.4154398,1.4154398,0.75168978,4.013604,8.2148639)" />
    <path
       style="fill:#ffec8c;fill-opacity:1;stroke:none;stroke-width:0.188237;stroke-dasharray:none"
       d="m 11.153625,19.818754 c 0.01422,0.005 0.04265,0.01513 0.06236,0.03622 0.01972,0.02109 0.03072,0.05319 0.04081,0.08484 0.01009,0.03164 0.01926,0.06282 0.0082,0.08253 -0.01101,0.01972 -0.04218,0.02797 -0.07107,0.02109 -0.02889,-0.0069 -0.05549,-0.02889 -0.08346,-0.0619 -0.02797,-0.03302 -0.05732,-0.07704 -0.05732,-0.105928 3e-6,-0.02889 0.02934,-0.04264 0.04861,-0.05044 0.01927,-0.0078 0.02843,-0.0096 0.03301,-0.01054 0.0046,-9.16e-4 0.0046,-9.12e-4 0.01881,0.0041 z"
       id="path558"
       transform="matrix(0.50452224,-0.45311075,0.45311075,0.50452224,-6.4445285,15.438884)" />
    <path
       style="fill:#ffec8c;fill-opacity:1;stroke:none;stroke-width:0.188237;stroke-dasharray:none"
       d="m 11.153625,19.818754 c 0.01422,0.005 0.04265,0.01513 0.06236,0.03622 0.01972,0.02109 0.03072,0.05319 0.04081,0.08484 0.01009,0.03164 0.01926,0.06282 0.0082,0.08253 -0.01101,0.01972 -0.04218,0.02797 -0.07107,0.02109 -0.02889,-0.0069 -0.05549,-0.02889 -0.08346,-0.0619 -0.02797,-0.03302 -0.05732,-0.07704 -0.05732,-0.105928 3e-6,-0.02889 0.02934,-0.04264 0.04861,-0.05044 0.01927,-0.0078 0.02843,-0.0096 0.03301,-0.01054 0.0046,-9.16e-4 0.0046,-9.12e-4 0.01881,0.0041 z"
       id="path559"
       transform="matrix(0.67775105,0.0224846,-0.0224846,0.67775105,1.0205971,6.764887)" />
    <path
       style="fill:#ffec8c;fill-opacity:1;stroke:none;stroke-width:0.188237;stroke-dasharray:none"
       d="m 11.153625,19.818754 c 0.01422,0.005 0.04265,0.01513 0.06236,0.03622 0.01972,0.02109 0.03072,0.05319 0.04081,0.08484 0.01009,0.03164 0.01926,0.06282 0.0082,0.08253 -0.01101,0.01972 -0.04218,0.02797 -0.07107,0.02109 -0.02889,-0.0069 -0.05549,-0.02889 -0.08346,-0.0619 -0.02797,-0.03302 -0.05732,-0.07704 -0.05732,-0.105928 3e-6,-0.02889 0.02934,-0.04264 0.04861,-0.05044 0.01927,-0.0078 0.02843,-0.0096 0.03301,-0.01054 0.0046,-9.16e-4 0.0046,-9.12e-4 0.01881,0.0041 z"
       id="path560"
       transform="matrix(0.28752718,0.61414995,-0.61414995,0.28752718,17.057635,7.9728683)" />
    <ellipse
       style="fill:#ffffff;fill-opacity:1;stroke:none;stroke-width:0.127648;stroke-dasharray:none"
       id="ellipse560"
       cx="7.6295729"
       cy="20.58573"
       transform="matrix(-0.74399712,0.66818283,0.66818283,0.74399712,0,0)"
       rx="0.093287259"
       ry="0.079294167" />
    <ellipse
       style="fill:#ffffff;fill-opacity:1;stroke:none;stroke-width:0.127648;stroke-dasharray:none"
       id="ellipse561"
       cx="7.6454315"
       cy="20.557743"
       transform="matrix(-0.74399712,0.66818283,0.66818283,0.74399712,0,0)"
       rx="0.00093287259"
       ry="0.023321815" />
    <path
       style="fill:none;fill-opacity:1;stroke:#457b47;stroke-width:0.101691;stroke-dasharray:none"
       d="M -4.6547347,7.4133884 C -4.7482792,7.2185042 -4.8418222,7.023623 -4.9079458,6.9029587 -4.9740694,6.7822944 -5.0127698,6.7358539 -5.1350417,6.5575712 -5.2573135,6.3792885 -5.4631554,6.0691657 -5.6241196,5.8784457 -5.7850837,5.6877257 -5.9011683,5.6164107 -6.0172533,5.5450955"
       id="path578"
       transform="matrix(-0.26711284,1.22651,1.22651,0.26711284,-2.03215,27.166196)" />
    <ellipse
       style="fill:#51a45c;fill-opacity:1;stroke:none;stroke-width:0.301679;stroke-dasharray:none"
       id="ellipse578"
       cx="19.53684"
       cy="10.653486"
       rx="0.23696394"
       ry="0.3429741"
       transform="matrix(-0.21279493,0.97709688,0.97709688,0.21279493,0,0)" />
    <path
       style="fill:#363db6;fill-opacity:1;stroke:none;stroke-width:0.188237;stroke-dasharray:none"
       d="m 5.7249165,5.5581332 c 9.172e-4,0.019258 -0.00459,0.043104 -0.024763,0.085292 -0.020177,0.042188 -0.055026,0.1027161 -0.086208,0.143069 -0.031182,0.040353 -0.058695,0.060529 -0.075203,0.04402 -0.016508,-0.016509 -0.02201,-0.0697 -0.033933,-0.1247273 -0.011923,-0.055027 -0.030265,-0.1118868 -0.00825,-0.151323 0.022011,-0.039436 0.084373,-0.061446 0.1265606,-0.066032 0.042187,-0.00459 0.064197,0.00825 0.078872,0.022012 0.014675,0.013758 0.022011,0.02843 0.022928,0.047688 z"
       id="path579"
       transform="matrix(0.85846372,-1.3533467,1.3533467,0.85846372,-6.4292108,23.728564)" />
    <path
       style="fill:#363db6;fill-opacity:1;stroke:none;stroke-width:0.188237;stroke-dasharray:none"
       d="m 5.7249165,5.5581332 c 9.172e-4,0.019258 -0.00459,0.043104 -0.024763,0.085292 -0.020177,0.042188 -0.055026,0.1027161 -0.086208,0.143069 -0.031182,0.040353 -0.058695,0.060529 -0.075203,0.04402 -0.016508,-0.016509 -0.02201,-0.0697 -0.033933,-0.1247273 -0.011923,-0.055027 -0.030265,-0.1118868 -0.00825,-0.151323 0.022011,-0.039436 0.084373,-0.061446 0.1265606,-0.066032 0.042187,-0.00459 0.064197,0.00825 0.078872,0.022012 0.014675,0.013758 0.022011,0.02843 0.022928,0.047688 z"
       id="path580"
       transform="matrix(-1.3156484,0.91519211,-0.91519211,-1.3156484,18.788762,23.886802)" />
    <path
       style="fill:#363db6;fill-opacity:1;stroke:none;stroke-width:0.188237;stroke-dasharray:none"
       d="m 5.7249165,5.5581332 c 9.172e-4,0.019258 -0.00459,0.043104 -0.024763,0.085292 -0.020177,0.042188 -0.055026,0.1027161 -0.086208,0.143069 -0.031182,0.040353 -0.058695,0.060529 -0.075203,0.04402 -0.016508,-0.016509 -0.02201,-0.0697 -0.033933,-0.1247273 -0.011923,-0.055027 -0.030265,-0.1118868 -0.00825,-0.151323 0.022011,-0.039436 0.084373,-0.061446 0.1265606,-0.066032 0.042187,-0.00459 0.064197,0.00825 0.078872,0.022012 0.014675,0.013758 0.022011,0.02843 0.022928,0.047688 z"
       id="path581"
       transform="matrix(0.31722063,1.5709483,-1.5709483,0.31722063,13.602384,10.76124)" />
    <path
       style="fill:#363db6;fill-opacity:1;stroke:none;stroke-width:0.188237;stroke-dasharray:none"
       d="m 5.7249165,5.5581332 c 9.172e-4,0.019258 -0.00459,0.043104 -0.024763,0.085292 -0.020177,0.042188 -0.055026,0.1027161 -0.086208,0.143069 -0.031182,0.040353 -0.058695,0.060529 -0.075203,0.04402 -0.016508,-0.016509 -0.02201,-0.0697 -0.033933,-0.1247273 -0.011923,-0.055027 -0.030265,-0.1118868 -0.00825,-0.151323 0.022011,-0.039436 0.084373,-0.061446 0.1265606,-0.066032 0.042187,-0.00459 0.064197,0.00825 0.078872,0.022012 0.014675,0.013758 0.022011,0.02843 0.022928,0.047688 z"
       id="path582"
       transform="matrix(1.2733068,0.97324058,-0.97324058,1.2733068,4.7862227,8.4438789)" />
    <path
       style="fill:#363db6;fill-opacity:1;stroke:none;stroke-width:0.188237;stroke-dasharray:none"
       d="m 5.7249165,5.5581332 c 9.172e-4,0.019258 -0.00459,0.043104 -0.024763,0.085292 -0.020177,0.042188 -0.055026,0.1027161 -0.086208,0.143069 -0.031182,0.040353 -0.058695,0.060529 -0.075203,0.04402 -0.016508,-0.016509 -0.02201,-0.0697 -0.033933,-0.1247273 -0.011923,-0.055027 -0.030265,-0.1118868 -0.00825,-0.151323 0.022011,-0.039436 0.084373,-0.061446 0.1265606,-0.066032 0.042187,-0.00459 0.064197,0.00825 0.078872,0.022012 0.014675,0.013758 0.022011,0.02843 0.022928,0.047688 z"
       id="path583"
       transform="matrix(0.21793927,1.5877688,1.5877688,-0.21793927,-4.2753643,13.689888)" />
    <path
       style="fill:#ffec8c;fill-opacity:1;stroke:none;stroke-width:0.188237;stroke-dasharray:none"
       d="m 11.153625,19.818754 c 0.01422,0.005 0.04265,0.01513 0.06236,0.03622 0.01972,0.02109 0.03072,0.05319 0.04081,0.08484 0.01009,0.03164 0.01926,0.06282 0.0082,0.08253 -0.01101,0.01972 -0.04218,0.02797 -0.07107,0.02109 -0.02889,-0.0069 -0.05549,-0.02889 -0.08346,-0.0619 -0.02797,-0.03302 -0.05732,-0.07704 -0.05732,-0.105928 3e-6,-0.02889 0.02934,-0.04264 0.04861,-0.05044 0.01927,-0.0078 0.02843,-0.0096 0.03301,-0.01054 0.0046,-9.16e-4 0.0046,-9.12e-4 0.01881,0.0041 z"
       id="path584"
       transform="matrix(0.14430133,-0.66259276,0.66259276,0.14430133,-8.5345825,25.665616)" />
    <path
       style="fill:#ffec8c;fill-opacity:1;stroke:none;stroke-width:0.188237;stroke-dasharray:none"
       d="m 11.153625,19.818754 c 0.01422,0.005 0.04265,0.01513 0.06236,0.03622 0.01972,0.02109 0.03072,0.05319 0.04081,0.08484 0.01009,0.03164 0.01926,0.06282 0.0082,0.08253 -0.01101,0.01972 -0.04218,0.02797 -0.07107,0.02109 -0.02889,-0.0069 -0.05549,-0.02889 -0.08346,-0.0619 -0.02797,-0.03302 -0.05732,-0.07704 -0.05732,-0.105928 3e-6,-0.02889 0.02934,-0.04264 0.04861,-0.05044 0.01927,-0.0078 0.02843,-0.0096 0.03301,-0.01054 0.0046,-9.16e-4 0.0046,-9.12e-4 0.01881,0.0041 z"
       id="path585"
       transform="matrix(0.56293876,-0.37808993,0.37808993,0.56293876,-7.551191,14.263894)" />
    <path
       style="fill:#ffec8c;fill-opacity:1;stroke:none;stroke-width:0.188237;stroke-dasharray:none"
       d="m 11.153625,19.818754 c 0.01422,0.005 0.04265,0.01513 0.06236,0.03622 0.01972,0.02109 0.03072,0.05319 0.04081,0.08484 0.01009,0.03164 0.01926,0.06282 0.0082,0.08253 -0.01101,0.01972 -0.04218,0.02797 -0.07107,0.02109 -0.02889,-0.0069 -0.05549,-0.02889 -0.08346,-0.0619 -0.02797,-0.03302 -0.05732,-0.07704 -0.05732,-0.105928 3e-6,-0.02889 0.02934,-0.04264 0.04861,-0.05044 0.01927,-0.0078 0.02843,-0.0096 0.03301,-0.01054 0.0046,-9.16e-4 0.0046,-9.12e-4 0.01881,0.0041 z"
       id="path586"
       transform="matrix(0.59237882,0.33005966,-0.33005966,0.59237882,6.1644172,5.8658062)" />
    <ellipse
       style="fill:#ffffff;fill-opacity:1;stroke:none;stroke-width:0.127648;stroke-dasharray:none"
       id="ellipse586"
       cx="19.412775"
       cy="10.527767"
       transform="matrix(-0.21279493,0.97709688,0.97709688,0.21279493,0,0)"
       rx="0.093287259"
       ry="0.079294167" />
    <ellipse
       style="fill:#ffffff;fill-opacity:1;stroke:none;stroke-width:0.127648;stroke-dasharray:none"
       id="ellipse587"
       cx="19.428633"
       cy="10.499781"
       transform="matrix(-0.21279493,0.97709688,0.97709688,0.21279493,0,0)"
       rx="0.00093287259"
       ry="0.023321815" />
  </g>
</svg>
