<?xml version="1.0" encoding="UTF-8" standalone="no"?>
<!-- Created with Inkscape (http://www.inkscape.org/) -->

<svg
   width="64.000008"
   height="64.000008"
   viewBox="0 0 16.933335 16.933335"
   version="1.1"
   id="svg1"
   xmlns="http://www.w3.org/2000/svg"
   xmlns:svg="http://www.w3.org/2000/svg">
  <defs
     id="defs1" />
  <g
     id="g32"
     transform="translate(-8.478902,-11.801772)">
    <rect
       style="fill:none;fill-opacity:0.921569;stroke:none;stroke-width:4.36359"
       id="rect225"
       width="15.937428"
       height="15.937428"
       x="7.7312517"
       y="11.356647"
       transform="matrix(1.0624885,0,0,1.0624885,0.26453492,-0.26453461)" />
  </g>
  <g
     id="g1045"
     transform="matrix(-1.0624885,0,0,1.0624885,17.185633,-12.066307)">
    <g
       id="g1213"
       transform="translate(0.48423474,3.3016005)">
      <path
         style="fill:#6e9202;fill-opacity:1;stroke:#86a336;stroke-width:0.188237;stroke-dasharray:none"
         d="m 4.4483632,6.8851931 c 0.00367,-0.056861 0.00734,-0.113722 0.011004,-0.1705827"
         id="path1118"
         transform="matrix(2.9649344,0,0,2.9649344,-5.6175186,-0.60643341)" />
      <path
         style="fill:none;fill-opacity:1;stroke:#86a336;stroke-width:0.0470593;stroke-dasharray:none"
         d="M 4.4098446,6.7531291 C 4.3694916,6.6522467 4.3291388,6.5513646 4.2511832,6.4119619 4.1732275,6.2725592 4.0576738,6.0946432 3.9925582,6.0001802 3.9274427,5.9057173 3.9127706,5.8947132 3.8813368,5.8542312 3.8499031,5.8137493 3.8017115,5.7437939 3.7006305,5.6800451 3.5995494,5.6162964 3.4455791,5.5587554 3.3426796,5.5171001 3.2397801,5.4754449 3.1879511,5.4496753 3.1289493,5.4199626 3.0699475,5.3902499 3.0037731,5.3565941 2.9375987,5.3229383"
         id="path1119"
         transform="matrix(2.9649344,0,0,2.9649344,-5.6501486,-0.47591401)" />
      <path
         style="fill:none;fill-opacity:1;stroke:#86a336;stroke-width:0.0470592;stroke-dasharray:none"
         d="M 4.5033899,6.7421236 C 4.6886463,6.4193006 4.8738992,6.0964836 5.0299538,5.9521448 5.1860084,5.8078059 5.3128526,5.8419563 5.4334902,5.8556585 5.5541279,5.8693606 5.668558,5.8626139 5.7442728,5.8447181 5.8199875,5.8268223 5.8569892,5.7977769 5.9187387,5.7339112 5.9804883,5.6700455 6.0669855,5.5713598 6.1534828,5.472674"
         id="path1120"
         transform="matrix(2.9649344,0,0,2.9649344,-5.6501486,-0.47591401)" />
      <path
         style="fill:none;fill-opacity:1;stroke:#86a336;stroke-width:0.0470592;stroke-dasharray:none"
         d="M 4.4593685,6.7036051 C 4.4557004,6.4669903 4.4520323,6.2303756 4.3907962,6.025421 4.3295602,5.8204664 4.2107642,5.6471836 4.1441093,5.5546431 4.0774545,5.4621025 4.0629508,5.4503183 4.0418426,5.4348489 4.0207345,5.4193795 3.9930226,5.4002255 3.9426505,5.3530188 3.8922784,5.3058121 3.8192461,5.2305527 3.7462132,5.1552927"
         id="path1121"
         transform="matrix(2.9649344,0,0,2.9649344,-5.6501486,-0.47591401)" />
      <path
         style="fill:none;fill-opacity:1;stroke:#86a336;stroke-width:0.0470592;stroke-dasharray:none"
         d="M 4.4373579,6.8136585 C 4.2355933,6.604557 4.0338326,6.3954596 3.8989047,6.2645057 3.7639768,6.1335518 3.6958913,6.0807507 3.6509531,6.0459006 3.6060149,6.0110506 3.5842243,5.9941517 3.5330449,5.9801562 3.4818655,5.9661606 3.4012977,5.9550684 3.3282265,5.9454182 3.2551552,5.935768 3.1895817,5.92756 3.10588,5.9148188 3.0221784,5.9020775 2.9203487,5.884803 2.8185193,5.8675285"
         id="path1122"
         transform="matrix(2.9649344,0,0,2.9649344,-5.6501486,-0.47591401)" />
      <path
         style="fill:none;fill-opacity:1;stroke:#86a336;stroke-width:0.0470592;stroke-dasharray:none"
         d="m 4.4978872,6.7641344 c 0.051358,-0.2879728 0.1027164,-0.575946 0.1439869,-0.758452 0.04127,-0.1825059 0.072451,-0.25954 0.1066203,-0.3081015 0.034169,-0.048561 0.071324,-0.068645 0.1351923,-0.1175094 0.063868,-0.048864 0.1544486,-0.1265082 0.2200049,-0.1911803 0.065556,-0.064672 0.1060883,-0.1163718 0.1390403,-0.194995 0.032952,-0.078623 0.058324,-0.1841698 0.083696,-0.2897165"
         id="path1123"
         transform="matrix(2.9649344,0,0,2.9649344,-5.6501486,-0.47591401)" />
      <path
         style="fill:none;fill-opacity:1;stroke:#86a336;stroke-width:0.0470592;stroke-dasharray:none"
         d="M 4.5143952,6.8246638 C 4.6923148,6.6485783 4.8702308,6.4724964 5.0279256,6.3778004 5.1856205,6.2831043 5.3230822,6.2698016 5.4428619,6.2784495 c 0.1197797,0.00865 0.2218758,0.039247 0.3034948,0.053235 0.081619,0.013988 0.1427615,0.011365 0.2039036,0.00874"
         id="path1124"
         transform="matrix(2.9649344,0,0,2.9649344,-5.6501486,-0.47591401)" />
      <ellipse
         style="fill:#6e9202;fill-opacity:1;stroke:none;stroke-width:0.2485;stroke-dasharray:none"
         id="ellipse1124"
         cx="-12.395895"
         cy="18.231701"
         transform="scale(-1,1)"
         rx="0.42859566"
         ry="0.29057327" />
      <ellipse
         style="fill:#6e9202;fill-opacity:1;stroke:none;stroke-width:0.23079;stroke-dasharray:none"
         id="ellipse1125"
         cx="-12.633915"
         cy="15.678"
         transform="scale(-1,1)"
         rx="0.39805079"
         ry="0.26986495" />
      <ellipse
         style="fill:#6e9202;fill-opacity:1;stroke:none;stroke-width:0.206444;stroke-dasharray:none"
         id="ellipse1126"
         cx="-10.242282"
         cy="13.950065"
         transform="scale(-1,1)"
         rx="0.35605961"
         ry="0.24139631" />
      <ellipse
         style="fill:#6e9202;fill-opacity:1;stroke:none;stroke-width:0.242678;stroke-dasharray:none"
         id="ellipse1127"
         cx="-5.4026971"
         cy="14.700011"
         transform="scale(-1,1)"
         rx="0.41855443"
         ry="0.2837657" />
      <ellipse
         style="fill:#6e9202;fill-opacity:1;stroke:none;stroke-width:0.206857;stroke-dasharray:none"
         id="ellipse1128"
         cx="-3.0163074"
         cy="15.16085"
         transform="scale(-1,1)"
         rx="0.35677156"
         ry="0.24187902" />
      <ellipse
         style="fill:#6e9202;fill-opacity:1;stroke:none;stroke-width:0.25896;stroke-dasharray:none"
         id="ellipse1129"
         cx="-2.5116928"
         cy="16.864664"
         transform="scale(-1,1)"
         rx="0.44663566"
         ry="0.30280378" />
      <path
         style="fill:#e084a8;fill-opacity:1;stroke:none;stroke-width:0.0470592;stroke-dasharray:none"
         d="m 5.2464133,5.174322 c -6.884e-4,0.00596 -0.00206,0.017882 -0.00803,0.04448 -0.00596,0.026597 -0.016508,0.067866 -0.026367,0.090335 -0.00986,0.022469 -0.019032,0.026138 -0.029807,0.018342 -0.010775,-0.0078 -0.023156,-0.027056 -0.02499,-0.059155 -0.00183,-0.032099 0.00688,-0.077037 0.014445,-0.1052385 0.00757,-0.028202 0.013985,-0.039664 0.023157,-0.04448 0.00917,-0.00482 0.021093,-0.00298 0.028888,0.0039 0.0078,0.00688 0.011463,0.0188 0.014675,0.027285 0.00321,0.00848 0.00596,0.013523 0.00734,0.016046 0.00138,0.00252 0.00138,0.00253 6.873e-4,0.00849 z"
         id="path1129"
         transform="matrix(4.3868971,0,0,4.3868971,-12.488833,-9.4471969)" />
      <path
         style="fill:#e084a8;fill-opacity:1;stroke:none;stroke-width:0.0470592;stroke-dasharray:none"
         d="m 5.9133826,5.7915384 c 0.00871,-0.00963 0.026138,-0.02889 0.047002,-0.060072 0.020865,-0.031182 0.045167,-0.074285 0.04081,-0.095609 -0.00436,-0.021324 -0.037372,-0.020867 -0.0603,-0.00367 -0.022928,0.017195 -0.035767,0.051127 -0.042187,0.077494 -0.00642,0.026367 -0.00642,0.045168 -0.00711,0.059383 -6.883e-4,0.014215 -0.00206,0.023844 -2.276e-4,0.029577 0.00184,0.00573 0.00687,0.00756 0.00962,0.00734 0.00275,-2.277e-4 0.00321,-0.00252 0.00344,-0.00367 2.288e-4,-0.00115 2.378e-4,-0.00114 0.00895,-0.010768 z"
         id="path1130"
         transform="matrix(4.9042571,0,0,4.9042571,-16.205235,-12.893856)" />
      <path
         style="fill:#e084a8;fill-opacity:1;stroke:none;stroke-width:0.0470592;stroke-dasharray:none"
         d="m 5.9209504,6.3528113 c -2.279e-4,-0.00137 -6.845e-4,-0.00413 0.017888,-0.029581 0.018572,-0.025454 0.056173,-0.073602 0.088272,-0.092402 0.032099,-0.018801 0.058694,-0.00825 0.0697,0.011693 0.011006,0.019948 0.00642,0.049294 -0.011234,0.069929 -0.017655,0.020635 -0.048376,0.032557 -0.075662,0.039435 -0.027285,0.00688 -0.051129,0.00871 -0.065341,0.00825 -0.014212,-4.584e-4 -0.0188,-0.00321 -0.021094,-0.00459 -0.00229,-0.00138 -0.0023,-0.00136 -0.00253,-0.00274 z"
         id="path1131"
         transform="matrix(5.28059,0,0,5.28059,-18.656256,-15.481965)" />
      <path
         style="fill:#e084a8;fill-opacity:1;stroke:none;stroke-width:0.0470592;stroke-dasharray:none"
         d="m 3.9729628,5.4207287 c 0.00227,0.00843 0.00681,0.025292 0.00713,0.047989 3.245e-4,0.022697 -0.00357,0.051231 -0.00973,0.06874 -0.00616,0.017508 -0.014592,0.023995 -0.025941,0.021401 -0.011349,-0.00259 -0.025616,-0.014266 -0.030479,-0.038261 -0.00486,-0.023994 -3.24e-4,-0.060311 0.00292,-0.081387 0.00324,-0.021076 0.00519,-0.02691 0.011351,-0.029505 0.00616,-0.0026 0.016536,-0.00195 0.024319,-9.773e-4 0.00778,9.717e-4 0.012971,0.00227 0.015564,0.00292 0.00259,6.483e-4 0.00259,6.535e-4 0.00486,0.00908 z"
         id="path1132"
         transform="matrix(5.156876,0,0,5.156876,-15.032728,-13.059275)" />
      <path
         style="fill:#e084a8;fill-opacity:1;stroke:none;stroke-width:0.0470592;stroke-dasharray:none"
         d="m 3.2424325,5.4158659 c 0.00713,-3.234e-4 0.0214,-9.7e-4 0.04961,-0.00259 0.02821,-0.00162 0.070361,-0.00421 0.085276,0.0026 0.014915,0.00681 0.00259,0.023021 -0.030155,0.034046 -0.03275,0.011024 -0.085925,0.01686 -0.1164038,0.014591 -0.030479,-0.00227 -0.038261,-0.012645 -0.035343,-0.021725 0.00292,-0.00908 0.016537,-0.016862 0.024966,-0.021076 0.00843,-0.00421 0.011669,-0.00486 0.013294,-0.00518 0.00163,-3.24e-4 0.00162,-3.36e-4 0.00876,-6.593e-4 z"
         id="path1133"
         transform="matrix(4.3956689,0,0,4.3956689,-10.931678,-8.7790448)" />
      <path
         style="fill:#e084a8;fill-opacity:1;stroke:none;stroke-width:0.0470592;stroke-dasharray:none"
         d="m 3.1843923,5.9304452 c 0.00162,0.00648 0.00486,0.019454 0.010378,0.042801 0.00551,0.023347 0.013295,0.057068 0.015241,0.077819 0.00195,0.020751 -0.00195,0.028534 -0.011997,0.028859 -0.010052,3.244e-4 -0.026264,-0.00681 -0.037288,-0.02821 -0.011024,-0.021401 -0.016861,-0.057066 -0.018482,-0.082358 -0.00162,-0.025292 9.719e-4,-0.040208 0.00648,-0.048638 0.00551,-0.00843 0.013943,-0.010377 0.020104,-0.00876 0.00616,0.00162 0.010051,0.00681 0.011996,0.0094 0.00195,0.00259 0.00194,0.0026 0.00357,0.00908 z"
         id="path1134"
         transform="matrix(5.5028554,0,0,5.5028554,-14.843548,-15.694214)" />
      <path
         style="fill:#e084a8;fill-opacity:1;stroke:none;stroke-width:0.0470592;stroke-dasharray:none"
         d="m 5.2464133,5.174322 c -6.884e-4,0.00596 -0.00206,0.017882 -0.00803,0.04448 -0.00596,0.026597 -0.016508,0.067866 -0.026367,0.090335 -0.00986,0.022469 -0.019032,0.026138 -0.029807,0.018342 -0.010775,-0.0078 -0.023156,-0.027056 -0.02499,-0.059155 -0.00183,-0.032099 0.00688,-0.077037 0.014445,-0.1052385 0.00757,-0.028202 0.013985,-0.039664 0.023157,-0.04448 0.00917,-0.00482 0.021093,-0.00298 0.028888,0.0039 0.0078,0.00688 0.011463,0.0188 0.014675,0.027285 0.00321,0.00848 0.00596,0.013523 0.00734,0.016046 0.00138,0.00252 0.00138,0.00253 6.873e-4,0.00849 z"
         id="path1135"
         transform="matrix(1.4694024,-4.133488,4.133488,1.4694024,-19.39759,27.521736)" />
      <path
         style="fill:#e084a8;fill-opacity:1;stroke:none;stroke-width:0.0470592;stroke-dasharray:none"
         d="m 5.2464133,5.174322 c -6.884e-4,0.00596 -0.00206,0.017882 -0.00803,0.04448 -0.00596,0.026597 -0.016508,0.067866 -0.026367,0.090335 -0.00986,0.022469 -0.019032,0.026138 -0.029807,0.018342 -0.010775,-0.0078 -0.023156,-0.027056 -0.02499,-0.059155 -0.00183,-0.032099 0.00688,-0.077037 0.014445,-0.1052385 0.00757,-0.028202 0.013985,-0.039664 0.023157,-0.04448 0.00917,-0.00482 0.021093,-0.00298 0.028888,0.0039 0.0078,0.00688 0.011463,0.0188 0.014675,0.027285 0.00321,0.00848 0.00596,0.013523 0.00734,0.016046 0.00138,0.00252 0.00138,0.00253 6.873e-4,0.00849 z"
         id="path1136"
         transform="matrix(-3.9912669,-1.820619,1.820619,-3.9912669,21.249731,44.573385)" />
      <path
         style="fill:#e084a8;fill-opacity:1;stroke:none;stroke-width:0.0470592;stroke-dasharray:none"
         d="m 5.2464133,5.174322 c -6.884e-4,0.00596 -0.00206,0.017882 -0.00803,0.04448 -0.00596,0.026597 -0.016508,0.067866 -0.026367,0.090335 -0.00986,0.022469 -0.019032,0.026138 -0.029807,0.018342 -0.010775,-0.0078 -0.023156,-0.027056 -0.02499,-0.059155 -0.00183,-0.032099 0.00688,-0.077037 0.014445,-0.1052385 0.00757,-0.028202 0.013985,-0.039664 0.023157,-0.04448 0.00917,-0.00482 0.021093,-0.00298 0.028888,0.0039 0.0078,0.00688 0.011463,0.0188 0.014675,0.027285 0.00321,0.00848 0.00596,0.013523 0.00734,0.016046 0.00138,0.00252 0.00138,0.00253 6.873e-4,0.00849 z"
         id="path1137"
         transform="matrix(-2.2960819,3.7380307,-3.7380307,-2.2960819,42.017006,6.6275974)" />
      <path
         style="fill:#e084a8;fill-opacity:1;stroke:none;stroke-width:0.0470592;stroke-dasharray:none"
         d="m 5.9133826,5.7915384 c 0.00871,-0.00963 0.026138,-0.02889 0.047002,-0.060072 0.020865,-0.031182 0.045167,-0.074285 0.04081,-0.095609 -0.00436,-0.021324 -0.037372,-0.020867 -0.0603,-0.00367 -0.022928,0.017195 -0.035767,0.051127 -0.042187,0.077494 -0.00642,0.026367 -0.00642,0.045168 -0.00711,0.059383 -6.883e-4,0.014215 -0.00206,0.023844 -2.276e-4,0.029577 0.00184,0.00573 0.00687,0.00756 0.00962,0.00734 0.00275,-2.277e-4 0.00321,-0.00252 0.00344,-0.00367 2.288e-4,-0.00115 2.378e-4,-0.00114 0.00895,-0.010768 z"
         id="path1138"
         transform="matrix(0.98503877,-4.8043145,4.8043145,0.98503877,-20.934574,38.222125)" />
      <path
         style="fill:#e084a8;fill-opacity:1;stroke:none;stroke-width:0.0470592;stroke-dasharray:none"
         d="m 5.9133826,5.7915384 c 0.00871,-0.00963 0.026138,-0.02889 0.047002,-0.060072 0.020865,-0.031182 0.045167,-0.074285 0.04081,-0.095609 -0.00436,-0.021324 -0.037372,-0.020867 -0.0603,-0.00367 -0.022928,0.017195 -0.035767,0.051127 -0.042187,0.077494 -0.00642,0.026367 -0.00642,0.045168 -0.00711,0.059383 -6.883e-4,0.014215 -0.00206,0.023844 -2.276e-4,0.029577 0.00184,0.00573 0.00687,0.00756 0.00962,0.00734 0.00275,-2.277e-4 0.00321,-0.00252 0.00344,-0.00367 2.288e-4,-0.00115 2.378e-4,-0.00114 0.00895,-0.010768 z"
         id="path1139"
         transform="matrix(-2.6122937,4.1506218,-4.1506218,-2.6122937,52.086228,6.0808724)" />
      <path
         style="fill:#e084a8;fill-opacity:1;stroke:none;stroke-width:0.0470592;stroke-dasharray:none"
         d="m 5.9133826,5.7915384 c 0.00871,-0.00963 0.026138,-0.02889 0.047002,-0.060072 0.020865,-0.031182 0.045167,-0.074285 0.04081,-0.095609 -0.00436,-0.021324 -0.037372,-0.020867 -0.0603,-0.00367 -0.022928,0.017195 -0.035767,0.051127 -0.042187,0.077494 -0.00642,0.026367 -0.00642,0.045168 -0.00711,0.059383 -6.883e-4,0.014215 -0.00206,0.023844 -2.276e-4,0.029577 0.00184,0.00573 0.00687,0.00756 0.00962,0.00734 0.00275,-2.277e-4 0.00321,-0.00252 0.00344,-0.00367 2.288e-4,-0.00115 2.378e-4,-0.00114 0.00895,-0.010768 z"
         id="path1140"
         transform="matrix(-4.7728094,-1.1278421,1.1278421,-4.7728094,34.346691,49.788705)" />
      <path
         style="fill:#e084a8;fill-opacity:1;stroke:none;stroke-width:0.0470592;stroke-dasharray:none"
         d="m 5.9209504,6.3528113 c -2.279e-4,-0.00137 -6.845e-4,-0.00413 0.017888,-0.029581 0.018572,-0.025454 0.056173,-0.073602 0.088272,-0.092402 0.032099,-0.018801 0.058694,-0.00825 0.0697,0.011693 0.011006,0.019948 0.00642,0.049294 -0.011234,0.069929 -0.017655,0.020635 -0.048376,0.032557 -0.075662,0.039435 -0.027285,0.00688 -0.051129,0.00871 -0.065341,0.00825 -0.014212,-4.584e-4 -0.0188,-0.00321 -0.021094,-0.00459 -0.00229,-0.00138 -0.0023,-0.00136 -0.00253,-0.00274 z"
         id="path1141"
         transform="matrix(1.070047,5.1710377,-5.1710377,1.070047,39.061017,-19.434004)" />
      <path
         style="fill:#e084a8;fill-opacity:1;stroke:none;stroke-width:0.0470592;stroke-dasharray:none"
         d="m 5.9209504,6.3528113 c -2.279e-4,-0.00137 -6.845e-4,-0.00413 0.017888,-0.029581 0.018572,-0.025454 0.056173,-0.073602 0.088272,-0.092402 0.032099,-0.018801 0.058694,-0.00825 0.0697,0.011693 0.011006,0.019948 0.00642,0.049294 -0.011234,0.069929 -0.017655,0.020635 -0.048376,0.032557 -0.075662,0.039435 -0.027285,0.00688 -0.051129,0.00871 -0.065341,0.00825 -0.014212,-4.584e-4 -0.0188,-0.00321 -0.021094,-0.00459 -0.00229,-0.00138 -0.0023,-0.00136 -0.00253,-0.00274 z"
         id="path1142"
         transform="matrix(-5.2034483,0.89931056,-0.89931056,-5.2034483,49.301612,45.738026)" />
      <path
         style="fill:#e084a8;fill-opacity:1;stroke:none;stroke-width:0.0470592;stroke-dasharray:none"
         d="m 5.9209504,6.3528113 c -2.279e-4,-0.00137 -6.845e-4,-0.00413 0.017888,-0.029581 0.018572,-0.025454 0.056173,-0.073602 0.088272,-0.092402 0.032099,-0.018801 0.058694,-0.00825 0.0697,0.011693 0.011006,0.019948 0.00642,0.049294 -0.011234,0.069929 -0.017655,0.020635 -0.048376,0.032557 -0.075662,0.039435 -0.027285,0.00688 -0.051129,0.00871 -0.065341,0.00825 -0.014212,-4.584e-4 -0.0188,-0.00321 -0.021094,-0.00459 -0.00229,-0.00138 -0.0023,-0.00136 -0.00253,-0.00274 z"
         id="path1143"
         transform="matrix(0.16957764,-5.2778664,5.2778664,0.16957764,-21.890452,48.401059)" />
      <path
         style="fill:#e084a8;fill-opacity:1;stroke:none;stroke-width:0.0470592;stroke-dasharray:none"
         d="m 3.9729628,5.4207287 c 0.00227,0.00843 0.00681,0.025292 0.00713,0.047989 3.245e-4,0.022697 -0.00357,0.051231 -0.00973,0.06874 -0.00616,0.017508 -0.014592,0.023995 -0.025941,0.021401 -0.011349,-0.00259 -0.025616,-0.014266 -0.030479,-0.038261 -0.00486,-0.023994 -3.24e-4,-0.060311 0.00292,-0.081387 0.00324,-0.021076 0.00519,-0.02691 0.011351,-0.029505 0.00616,-0.0026 0.016536,-0.00195 0.024319,-9.773e-4 0.00778,9.717e-4 0.012971,0.00227 0.015564,0.00292 0.00259,6.483e-4 0.00259,6.535e-4 0.00486,0.00908 z"
         id="path1144"
         transform="matrix(0,5.156876,-5.156876,0,33.327978,-5.5836593)" />
      <path
         style="fill:#e084a8;fill-opacity:1;stroke:none;stroke-width:0.0470592;stroke-dasharray:none"
         d="m 3.9729628,5.4207287 c 0.00227,0.00843 0.00681,0.025292 0.00713,0.047989 3.245e-4,0.022697 -0.00357,0.051231 -0.00973,0.06874 -0.00616,0.017508 -0.014592,0.023995 -0.025941,0.021401 -0.011349,-0.00259 -0.025616,-0.014266 -0.030479,-0.038261 -0.00486,-0.023994 -3.24e-4,-0.060311 0.00292,-0.081387 0.00324,-0.021076 0.00519,-0.02691 0.011351,-0.029505 0.00616,-0.0026 0.016536,-0.00195 0.024319,-9.773e-4 0.00778,9.717e-4 0.012971,0.00227 0.015564,0.00292 0.00259,6.483e-4 0.00259,6.535e-4 0.00486,0.00908 z"
         id="path1145"
         transform="matrix(-4.9811601,1.3346977,-1.3346977,-4.9811601,32.204164,36.388275)" />
      <path
         style="fill:#e084a8;fill-opacity:1;stroke:none;stroke-width:0.0470592;stroke-dasharray:none"
         d="m 3.9729628,5.4207287 c 0.00227,0.00843 0.00681,0.025292 0.00713,0.047989 3.245e-4,0.022697 -0.00357,0.051231 -0.00973,0.06874 -0.00616,0.017508 -0.014592,0.023995 -0.025941,0.021401 -0.011349,-0.00259 -0.025616,-0.014266 -0.030479,-0.038261 -0.00486,-0.023994 -3.24e-4,-0.060311 0.00292,-0.081387 0.00324,-0.021076 0.00519,-0.02691 0.011351,-0.029505 0.00616,-0.0026 0.016536,-0.00195 0.024319,-9.773e-4 0.00778,9.717e-4 0.012971,0.00227 0.015564,0.00292 0.00259,6.483e-4 0.00259,6.535e-4 0.00486,0.00908 z"
         id="path1146"
         transform="matrix(-0.83724607,-5.0884566,5.0884566,-0.83724607,-18.894054,39.375766)" />
      <path
         style="fill:#e084a8;fill-opacity:1;stroke:none;stroke-width:0.0470592;stroke-dasharray:none"
         d="m 3.2424325,5.4158659 c 0.00713,-3.234e-4 0.0214,-9.7e-4 0.04961,-0.00259 0.02821,-0.00162 0.070361,-0.00421 0.085276,0.0026 0.014915,0.00681 0.00259,0.023021 -0.030155,0.034046 -0.03275,0.011024 -0.085925,0.01686 -0.1164038,0.014591 -0.030479,-0.00227 -0.038261,-0.012645 -0.035343,-0.021725 0.00292,-0.00908 0.016537,-0.016862 0.024966,-0.021076 0.00843,-0.00421 0.011669,-0.00486 0.013294,-0.00518 0.00163,-3.24e-4 0.00162,-3.36e-4 0.00876,-6.593e-4 z"
         id="path1147"
         transform="matrix(0.74744069,-4.3316553,4.3316553,0.74744069,-22.862378,24.999176)" />
      <path
         style="fill:#e084a8;fill-opacity:1;stroke:none;stroke-width:0.0470592;stroke-dasharray:none"
         d="m 3.2424325,5.4158659 c 0.00713,-3.234e-4 0.0214,-9.7e-4 0.04961,-0.00259 0.02821,-0.00162 0.070361,-0.00421 0.085276,0.0026 0.014915,0.00681 0.00259,0.023021 -0.030155,0.034046 -0.03275,0.011024 -0.085925,0.01686 -0.1164038,0.014591 -0.030479,-0.00227 -0.038261,-0.012645 -0.035343,-0.021725 0.00292,-0.00908 0.016537,-0.016862 0.024966,-0.021076 0.00843,-0.00421 0.011669,-0.00486 0.013294,-0.00518 0.00163,-3.24e-4 0.00162,-3.36e-4 0.00876,-6.593e-4 z"
         id="path1148"
         transform="matrix(-4.3567719,-0.58347763,0.58347763,-4.3567719,13.954871,40.731085)" />
      <path
         style="fill:#e084a8;fill-opacity:1;stroke:none;stroke-width:0.0470592;stroke-dasharray:none"
         d="m 3.2424325,5.4158659 c 0.00713,-3.234e-4 0.0214,-9.7e-4 0.04961,-0.00259 0.02821,-0.00162 0.070361,-0.00421 0.085276,0.0026 0.014915,0.00681 0.00259,0.023021 -0.030155,0.034046 -0.03275,0.011024 -0.085925,0.01686 -0.1164038,0.014591 -0.030479,-0.00227 -0.038261,-0.012645 -0.035343,-0.021725 0.00292,-0.00908 0.016537,-0.016862 0.024966,-0.021076 0.00843,-0.00421 0.011669,-0.00486 0.013294,-0.00518 0.00163,-3.24e-4 0.00162,-3.36e-4 0.00876,-6.593e-4 z"
         id="path1149"
         transform="matrix(-0.21856144,4.3902321,-4.3902321,-0.21856144,27.701312,2.2420591)" />
      <path
         style="fill:#e084a8;fill-opacity:1;stroke:none;stroke-width:0.0470592;stroke-dasharray:none"
         d="m 3.1843923,5.9304452 c 0.00162,0.00648 0.00486,0.019454 0.010378,0.042801 0.00551,0.023347 0.013295,0.057068 0.015241,0.077819 0.00195,0.020751 -0.00195,0.028534 -0.011997,0.028859 -0.010052,3.244e-4 -0.026264,-0.00681 -0.037288,-0.02821 -0.011024,-0.021401 -0.016861,-0.057066 -0.018482,-0.082358 -0.00162,-0.025292 9.719e-4,-0.040208 0.00648,-0.048638 0.00551,-0.00843 0.013943,-0.010377 0.020104,-0.00876 0.00616,0.00162 0.010051,0.00681 0.011996,0.0094 0.00195,0.00259 0.00194,0.0026 0.00357,0.00908 z"
         id="path1150"
         transform="matrix(1.3809044,5.3267742,-5.3267742,1.3809044,29.721722,-8.1810863)" />
      <path
         style="fill:#e084a8;fill-opacity:1;stroke:none;stroke-width:0.0470592;stroke-dasharray:none"
         d="m 3.1843923,5.9304452 c 0.00162,0.00648 0.00486,0.019454 0.010378,0.042801 0.00551,0.023347 0.013295,0.057068 0.015241,0.077819 0.00195,0.020751 -0.00195,0.028534 -0.011997,0.028859 -0.010052,3.244e-4 -0.026264,-0.00681 -0.037288,-0.02821 -0.011024,-0.021401 -0.016861,-0.057066 -0.018482,-0.082358 -0.00162,-0.025292 9.719e-4,-0.040208 0.00648,-0.048638 0.00551,-0.00843 0.013943,-0.010377 0.020104,-0.00876 0.00616,0.00162 0.010051,0.00681 0.011996,0.0094 0.00195,0.00259 0.00194,0.0026 0.00357,0.00908 z"
         id="path1151"
         transform="matrix(-5.4957313,0.27992073,-0.27992073,-5.4957313,21.58899,48.565841)" />
      <path
         style="fill:#e084a8;fill-opacity:1;stroke:none;stroke-width:0.0470592;stroke-dasharray:none"
         d="m 3.1843923,5.9304452 c 0.00162,0.00648 0.00486,0.019454 0.010378,0.042801 0.00551,0.023347 0.013295,0.057068 0.015241,0.077819 0.00195,0.020751 -0.00195,0.028534 -0.011997,0.028859 -0.010052,3.244e-4 -0.026264,-0.00681 -0.037288,-0.02821 -0.011024,-0.021401 -0.016861,-0.057066 -0.018482,-0.082358 -0.00162,-0.025292 9.719e-4,-0.040208 0.00648,-0.048638 0.00551,-0.00843 0.013943,-0.010377 0.020104,-0.00876 0.00616,0.00162 0.010051,0.00681 0.011996,0.0094 0.00195,0.00259 0.00194,0.0026 0.00357,0.00908 z"
         id="path1152"
         transform="matrix(-0.45547557,-5.4839729,5.4839729,-0.45547557,-28.470842,36.880175)" />
    </g>
  </g>
</svg>
