<?xml version="1.0" encoding="UTF-8" standalone="no"?>
<!-- Created with Inkscape (http://www.inkscape.org/) -->

<svg
   width="127.99999"
   height="32.000004"
   viewBox="0 0 33.866664 8.4666677"
   version="1.1"
   id="svg1"
   xmlns="http://www.w3.org/2000/svg"
   xmlns:svg="http://www.w3.org/2000/svg">
  <defs
     id="defs1" />
  <g
     id="g75"
     transform="matrix(-1.0624885,0,0,1.0624885,8.7312013,-0.26453462)">
    <rect
       style="fill:#bdca31;fill-opacity:0;stroke:none;stroke-width:0.497953"
       id="rect74"
       width="7.9687138"
       height="7.9687138"
       x="0.24897645"
       y="0.24897645" />
    <path
       style="fill:#6e9202;fill-opacity:1;stroke:#86a336;stroke-width:0.188237;stroke-dasharray:none"
       d="m 4.4483632,6.8851931 c 0.00367,-0.056861 0.00734,-0.113722 0.011004,-0.1705827"
       id="path776"
       transform="translate(0.01100533,-0.04402134)" />
    <path
       style="fill:none;fill-opacity:1;stroke:#86a336;stroke-width:0.0470593;stroke-dasharray:none"
       d="M 4.4098446,6.7531291 C 4.3694916,6.6522467 4.3291388,6.5513646 4.2511832,6.4119619 4.1732275,6.2725592 4.0576738,6.0946432 3.9925582,6.0001802 3.9274427,5.9057173 3.9127701,5.8947128 3.8770023,5.8479393 3.8412344,5.8011658 3.7843746,5.7186275 3.7275138,5.6360876"
       id="path777" />
    <path
       style="fill:none;fill-opacity:1;stroke:#86a336;stroke-width:0.0470592;stroke-dasharray:none"
       d="M 4.5033899,6.7421236 C 4.6886463,6.4193006 4.8739027,6.0964775 5.0380671,5.9543256 5.2022314,5.8121737 5.345298,5.8506916 5.4883672,5.8892103"
       id="path778" />
    <path
       style="fill:none;fill-opacity:1;stroke:#86a336;stroke-width:0.0470592;stroke-dasharray:none"
       d="M 4.4593685,6.7036051 C 4.4557004,6.4669903 4.4520323,6.2303756 4.4245186,6.0597919 4.397005,5.8892083 4.3456477,5.7846595 4.3052943,5.7204613 c -0.040354,-0.064198 -0.0697,-0.088042 -0.099048,-0.111887"
       id="path779" />
    <path
       style="fill:none;fill-opacity:1;stroke:#86a336;stroke-width:0.0470592;stroke-dasharray:none"
       d="M 4.4373579,6.8136585 C 4.2355933,6.604557 4.0338288,6.3954558 3.8880073,6.2560542 3.7421857,6.1166525 3.6523106,6.0469534 3.5972841,6.0121032 c -0.055026,-0.03485 -0.075203,-0.03485 -0.095379,-0.03485"
       id="path780" />
    <path
       style="fill:none;fill-opacity:1;stroke:#86a336;stroke-width:0.0470592;stroke-dasharray:none"
       d="M 4.4978872,6.7641344 C 4.5492454,6.4761616 4.6006036,6.1881884 4.6418739,6.0056826 4.6831443,5.8231767 4.7143255,5.746141 4.7638501,5.6892798 4.8133748,5.6324185 4.8812396,5.5957348 4.9491059,5.5590503"
       id="path781" />
    <path
       style="fill:none;fill-opacity:1;stroke:#86a336;stroke-width:0.0470592;stroke-dasharray:none"
       d="M 4.5143952,6.8246638 C 4.6923148,6.6485783 4.8702343,6.472493 5.0444871,6.3761961 5.2187399,6.2798993 5.3893193,6.2633917 5.5599018,6.2468837"
       id="path782" />
    <ellipse
       style="fill:#6e9202;fill-opacity:1;stroke:none;stroke-width:0.0470592;stroke-dasharray:none"
       id="path783"
       cx="-5.5942936"
       cy="6.2413812"
       transform="scale(-1,1)"
       rx="0.081164345"
       ry="0.055026669" />
    <ellipse
       style="fill:#6e9202;fill-opacity:1;stroke:none;stroke-width:0.0470592;stroke-dasharray:none"
       id="ellipse783"
       cx="-5.4952455"
       cy="5.9084697"
       transform="scale(-1,1)"
       rx="0.081164345"
       ry="0.055026669" />
    <ellipse
       style="fill:#6e9202;fill-opacity:1;stroke:none;stroke-width:0.0470592;stroke-dasharray:none"
       id="ellipse784"
       cx="-4.9834976"
       cy="5.5425425"
       transform="scale(-1,1)"
       rx="0.081164345"
       ry="0.055026669" />
    <ellipse
       style="fill:#6e9202;fill-opacity:1;stroke:none;stroke-width:0.0470592;stroke-dasharray:none"
       id="ellipse785"
       cx="-4.1938648"
       cy="5.6195798"
       transform="scale(-1,1)"
       rx="0.081164345"
       ry="0.055026669" />
    <ellipse
       style="fill:#6e9202;fill-opacity:1;stroke:none;stroke-width:0.0470592;stroke-dasharray:none"
       id="ellipse786"
       cx="-3.6903708"
       cy="5.6553473"
       transform="scale(-1,1)"
       rx="0.081164345"
       ry="0.055026669" />
    <ellipse
       style="fill:#6e9202;fill-opacity:1;stroke:none;stroke-width:0.0470592;stroke-dasharray:none"
       id="ellipse787"
       cx="-3.4840207"
       cy="5.9607453"
       transform="scale(-1,1)"
       rx="0.081164345"
       ry="0.055026669" />
  </g>
  <g
     id="g798"
     transform="matrix(-1.0624885,0,0,1.0624885,25.664535,-0.26453462)">
    <rect
       style="fill:#bdca31;fill-opacity:0;stroke:none;stroke-width:0.497953"
       id="rect787"
       width="7.9687138"
       height="7.9687138"
       x="0.24897645"
       y="0.24897645" />
    <path
       style="fill:#6e9202;fill-opacity:1;stroke:#86a336;stroke-width:0.188237;stroke-dasharray:none"
       d="m 4.4483632,6.8851931 c 0.00367,-0.056861 0.00734,-0.113722 0.011004,-0.1705827"
       id="path787"
       transform="translate(0.01100533,-0.04402134)" />
    <path
       style="fill:none;fill-opacity:1;stroke:#86a336;stroke-width:0.0470593;stroke-dasharray:none"
       d="M 4.4098446,6.7531291 C 4.3694916,6.6522467 4.3291388,6.5513646 4.2511832,6.4119619 4.1732275,6.2725592 4.0576738,6.0946432 3.9925582,6.0001802 3.9274427,5.9057173 3.9127706,5.8947132 3.8813368,5.8542312 3.8499031,5.8137493 3.8017115,5.7437939 3.7006305,5.6800451 3.5995494,5.6162964 3.4455795,5.5587555 3.328399,5.5099998 3.2112185,5.461244 3.1308277,5.4212734 3.0504369,5.3813029"
       id="path788" />
    <path
       style="fill:none;fill-opacity:1;stroke:#86a336;stroke-width:0.0470592;stroke-dasharray:none"
       d="m 4.5033899,6.7421236 c 0.1852564,-0.322823 0.3705093,-0.64564 0.5265639,-0.7899788 0.1560546,-0.1443389 0.2828988,-0.1101885 0.4035364,-0.096486 0.1206377,0.013702 0.2350667,0.00696 0.3178771,-0.01651 0.08281,-0.023465 0.134002,-0.06365 0.1851937,-0.1038339"
       id="path789" />
    <path
       style="fill:none;fill-opacity:1;stroke:#86a336;stroke-width:0.0470592;stroke-dasharray:none"
       d="M 4.4593685,6.7036051 C 4.4557004,6.4669903 4.4520323,6.2303756 4.3907962,6.025421 4.3295602,5.8204664 4.2107642,5.6471836 4.1441093,5.5546431 4.0774545,5.4621025 4.0629505,5.450318 4.0333737,5.4289953 4.003797,5.4076726 3.9591478,5.3768118 3.9144978,5.3459504"
       id="path790" />
    <path
       style="fill:none;fill-opacity:1;stroke:#86a336;stroke-width:0.0470592;stroke-dasharray:none"
       d="M 4.4373579,6.8136585 C 4.2355933,6.604557 4.0338326,6.3954596 3.8989047,6.2645057 3.7639768,6.1335518 3.6958913,6.0807507 3.6509531,6.0459006 3.6060149,6.0110506 3.5842243,5.9941517 3.5330449,5.9801562 3.4818655,5.9661606 3.4012969,5.9550682 3.3097358,5.9431037 3.2181746,5.9311391 3.1156208,5.9183022 3.013068,5.9054655"
       id="path791" />
    <path
       style="fill:none;fill-opacity:1;stroke:#86a336;stroke-width:0.0470592;stroke-dasharray:none"
       d="M 4.4978872,6.7641344 C 4.5492454,6.4761616 4.6006036,6.1881884 4.6418739,6.0056826 4.6831443,5.8231767 4.714325,5.7461422 4.7484941,5.6975808 4.7826632,5.6490194 4.819818,5.6289357 4.883686,5.5800716 4.9475541,5.5312075 5.0381345,5.4535635 5.1097299,5.3811885 5.1813253,5.3088136 5.2339352,5.241708 5.2865451,5.1746024"
       id="path792" />
    <path
       style="fill:none;fill-opacity:1;stroke:#86a336;stroke-width:0.0470592;stroke-dasharray:none"
       d="M 4.5143952,6.8246638 C 4.6923148,6.6485783 4.8702308,6.4724964 5.0279256,6.3778004 5.1856205,6.2831043 5.3230822,6.2698016 5.4428619,6.2784495 c 0.1197797,0.00865 0.2218758,0.039247 0.3034948,0.053235 0.081619,0.013988 0.1427615,0.011365 0.2039036,0.00874"
       id="path793" />
    <ellipse
       style="fill:#6e9202;fill-opacity:1;stroke:none;stroke-width:0.0581515;stroke-dasharray:none"
       id="ellipse793"
       cx="-6.0151196"
       cy="6.3156757"
       transform="scale(-1,1)"
       rx="0.10029563"
       ry="0.067997023" />
    <ellipse
       style="fill:#6e9202;fill-opacity:1;stroke:none;stroke-width:0.0619184;stroke-dasharray:none"
       id="ellipse794"
       cx="-5.9879594"
       cy="5.681993"
       transform="scale(-1,1)"
       rx="0.10679249"
       ry="0.072401688" />
    <ellipse
       style="fill:#6e9202;fill-opacity:1;stroke:none;stroke-width:0.05751;stroke-dasharray:none"
       id="ellipse795"
       cx="-5.2736216"
       cy="5.161644"
       transform="scale(-1,1)"
       rx="0.09918911"
       ry="0.067246847" />
    <ellipse
       style="fill:#6e9202;fill-opacity:1;stroke:none;stroke-width:0.0655181;stroke-dasharray:none"
       id="ellipse796"
       cx="-3.8923974"
       cy="5.3632793"
       transform="scale(-1,1)"
       rx="0.113001"
       ry="0.076610841" />
    <ellipse
       style="fill:#6e9202;fill-opacity:1;stroke:none;stroke-width:0.0559384;stroke-dasharray:none"
       id="ellipse797"
       cx="-3.0646243"
       cy="5.3355699"
       transform="scale(-1,1)"
       rx="0.096478611"
       ry="0.065409221" />
    <ellipse
       style="fill:#6e9202;fill-opacity:1;stroke:none;stroke-width:0.067824;stroke-dasharray:none"
       id="ellipse798"
       cx="-2.9749777"
       cy="5.9355021"
       transform="scale(-1,1)"
       rx="0.11697792"
       ry="0.079307057" />
    <path
       style="fill:#e084a8;fill-opacity:1;stroke:none;stroke-width:0.0470592;stroke-dasharray:none"
       d="m 5.2464133,5.174322 c -6.884e-4,0.00596 -0.00206,0.017882 -0.00803,0.04448 -0.00596,0.026597 -0.016508,0.067866 -0.026367,0.090335 -0.00986,0.022469 -0.019032,0.026138 -0.029807,0.018342 -0.010775,-0.0078 -0.023156,-0.027056 -0.02499,-0.059155 -0.00183,-0.032099 0.00688,-0.077037 0.014445,-0.1052385 0.00757,-0.028202 0.013985,-0.039664 0.023157,-0.04448 0.00917,-0.00482 0.021093,-0.00298 0.028888,0.0039 0.0078,0.00688 0.011463,0.0188 0.014675,0.027285 0.00321,0.00848 0.00596,0.013523 0.00734,0.016046 0.00138,0.00252 0.00138,0.00253 6.873e-4,0.00849 z"
       id="path826"
       transform="matrix(1.2220774,0,0,1.2220774,-1.0586859,-1.3562341)" />
    <path
       style="fill:#e084a8;fill-opacity:1;stroke:none;stroke-width:0.0470592;stroke-dasharray:none"
       d="m 5.9133826,5.7915384 c 0.00871,-0.00963 0.026138,-0.02889 0.047002,-0.060072 0.020865,-0.031182 0.045167,-0.074285 0.04081,-0.095609 -0.00436,-0.021324 -0.037372,-0.020867 -0.0603,-0.00367 -0.022928,0.017195 -0.035767,0.051127 -0.042187,0.077494 -0.00642,0.026367 -0.00642,0.045168 -0.00711,0.059383 -6.883e-4,0.014215 -0.00206,0.023844 -2.276e-4,0.029577 0.00184,0.00573 0.00687,0.00756 0.00962,0.00734 0.00275,-2.277e-4 0.00321,-0.00252 0.00344,-0.00367 2.288e-4,-0.00115 2.378e-4,-0.00114 0.00895,-0.010768 z"
       id="path830"
       transform="matrix(1.3157563,0,0,1.3157563,-1.7492559,-1.98351)" />
    <path
       style="fill:#e084a8;fill-opacity:1;stroke:none;stroke-width:0.0470592;stroke-dasharray:none"
       d="m 5.9209504,6.3528113 c -2.279e-4,-0.00137 -6.845e-4,-0.00413 0.017888,-0.029581 0.018572,-0.025454 0.056173,-0.073602 0.088272,-0.092402 0.032099,-0.018801 0.058694,-0.00825 0.0697,0.011693 0.011006,0.019948 0.00642,0.049294 -0.011234,0.069929 -0.017655,0.020635 -0.048376,0.032557 -0.075662,0.039435 -0.027285,0.00688 -0.051129,0.00871 -0.065341,0.00825 -0.014212,-4.584e-4 -0.0188,-0.00321 -0.021094,-0.00459 -0.00229,-0.00138 -0.0023,-0.00136 -0.00253,-0.00274 z"
       id="path832"
       transform="matrix(1.2357104,0,0,1.2357104,-1.2513917,-1.5736566)" />
    <path
       style="fill:#e084a8;fill-opacity:1;stroke:none;stroke-width:0.0470592;stroke-dasharray:none"
       d="m 3.9729628,5.4207287 c 0.00227,0.00843 0.00681,0.025292 0.00713,0.047989 3.245e-4,0.022697 -0.00357,0.051231 -0.00973,0.06874 -0.00616,0.017508 -0.014592,0.023995 -0.025941,0.021401 -0.011349,-0.00259 -0.025616,-0.014266 -0.030479,-0.038261 -0.00486,-0.023994 -3.24e-4,-0.060311 0.00292,-0.081387 0.00324,-0.021076 0.00519,-0.02691 0.011351,-0.029505 0.00616,-0.0026 0.016536,-0.00195 0.024319,-9.773e-4 0.00778,9.717e-4 0.012971,0.00227 0.015564,0.00292 0.00259,6.483e-4 0.00259,6.535e-4 0.00486,0.00908 z"
       id="path843"
       transform="matrix(1.3922493,0,0,1.3922493,-1.6247422,-2.13115)" />
    <path
       style="fill:#e084a8;fill-opacity:1;stroke:none;stroke-width:0.0470592;stroke-dasharray:none"
       d="m 3.2424325,5.4158659 c 0.00713,-3.234e-4 0.0214,-9.7e-4 0.04961,-0.00259 0.02821,-0.00162 0.070361,-0.00421 0.085276,0.0026 0.014915,0.00681 0.00259,0.023021 -0.030155,0.034046 -0.03275,0.011024 -0.085925,0.01686 -0.1164038,0.014591 -0.030479,-0.00227 -0.038261,-0.012645 -0.035343,-0.021725 0.00292,-0.00908 0.016537,-0.016862 0.024966,-0.021076 0.00843,-0.00421 0.011669,-0.00486 0.013294,-0.00518 0.00163,-3.24e-4 0.00162,-3.36e-4 0.00876,-6.593e-4 z"
       id="path844"
       transform="matrix(1.1886822,0,0,1.1886822,-0.707207,-1.1382858)" />
    <path
       style="fill:#e084a8;fill-opacity:1;stroke:none;stroke-width:0.0470592;stroke-dasharray:none"
       d="m 3.1843923,5.9304452 c 0.00162,0.00648 0.00486,0.019454 0.010378,0.042801 0.00551,0.023347 0.013295,0.057068 0.015241,0.077819 0.00195,0.020751 -0.00195,0.028534 -0.011997,0.028859 -0.010052,3.244e-4 -0.026264,-0.00681 -0.037288,-0.02821 -0.011024,-0.021401 -0.016861,-0.057066 -0.018482,-0.082358 -0.00162,-0.025292 9.719e-4,-0.040208 0.00648,-0.048638 0.00551,-0.00843 0.013943,-0.010377 0.020104,-0.00876 0.00616,0.00162 0.010051,0.00681 0.011996,0.0094 0.00195,0.00259 0.00194,0.0026 0.00357,0.00908 z"
       id="path845"
       transform="matrix(1.4412476,0,0,1.4412476,-1.5705165,-2.5919629)" />
    <path
       style="fill:#e084a8;fill-opacity:1;stroke:none;stroke-width:0.0470592;stroke-dasharray:none"
       d="m 5.2464133,5.174322 c -6.884e-4,0.00596 -0.00206,0.017882 -0.00803,0.04448 -0.00596,0.026597 -0.016508,0.067866 -0.026367,0.090335 -0.00986,0.022469 -0.019032,0.026138 -0.029807,0.018342 -0.010775,-0.0078 -0.023156,-0.027056 -0.02499,-0.059155 -0.00183,-0.032099 0.00688,-0.077037 0.014445,-0.1052385 0.00757,-0.028202 0.013985,-0.039664 0.023157,-0.04448 0.00917,-0.00482 0.021093,-0.00298 0.028888,0.0039 0.0078,0.00688 0.011463,0.0188 0.014675,0.027285 0.00321,0.00848 0.00596,0.013523 0.00734,0.016046 0.00138,0.00252 0.00138,0.00253 6.873e-4,0.00849 z"
       id="path952"
       transform="matrix(0.40933795,-1.1514841,1.1514841,0.40933795,-2.9832891,8.9423657)" />
    <path
       style="fill:#e084a8;fill-opacity:1;stroke:none;stroke-width:0.0470592;stroke-dasharray:none"
       d="m 5.2464133,5.174322 c -6.884e-4,0.00596 -0.00206,0.017882 -0.00803,0.04448 -0.00596,0.026597 -0.016508,0.067866 -0.026367,0.090335 -0.00986,0.022469 -0.019032,0.026138 -0.029807,0.018342 -0.010775,-0.0078 -0.023156,-0.027056 -0.02499,-0.059155 -0.00183,-0.032099 0.00688,-0.077037 0.014445,-0.1052385 0.00757,-0.028202 0.013985,-0.039664 0.023157,-0.04448 0.00917,-0.00482 0.021093,-0.00298 0.028888,0.0039 0.0078,0.00688 0.011463,0.0188 0.014675,0.027285 0.00321,0.00848 0.00596,0.013523 0.00734,0.016046 0.00138,0.00252 0.00138,0.00253 6.873e-4,0.00849 z"
       id="path954"
       transform="matrix(-1.111865,-0.50717794,0.50717794,-1.111865,8.3400159,13.69252)" />
    <path
       style="fill:#e084a8;fill-opacity:1;stroke:none;stroke-width:0.0470592;stroke-dasharray:none"
       d="m 5.2464133,5.174322 c -6.884e-4,0.00596 -0.00206,0.017882 -0.00803,0.04448 -0.00596,0.026597 -0.016508,0.067866 -0.026367,0.090335 -0.00986,0.022469 -0.019032,0.026138 -0.029807,0.018342 -0.010775,-0.0078 -0.023156,-0.027056 -0.02499,-0.059155 -0.00183,-0.032099 0.00688,-0.077037 0.014445,-0.1052385 0.00757,-0.028202 0.013985,-0.039664 0.023157,-0.04448 0.00917,-0.00482 0.021093,-0.00298 0.028888,0.0039 0.0078,0.00688 0.011463,0.0188 0.014675,0.027285 0.00321,0.00848 0.00596,0.013523 0.00734,0.016046 0.00138,0.00252 0.00138,0.00253 6.873e-4,0.00849 z"
       id="path956"
       transform="matrix(-0.63962975,1.0413198,-1.0413198,-0.63962975,14.125248,3.1217927)" />
    <path
       style="fill:#e084a8;fill-opacity:1;stroke:none;stroke-width:0.0470592;stroke-dasharray:none"
       d="m 5.9133826,5.7915384 c 0.00871,-0.00963 0.026138,-0.02889 0.047002,-0.060072 0.020865,-0.031182 0.045167,-0.074285 0.04081,-0.095609 -0.00436,-0.021324 -0.037372,-0.020867 -0.0603,-0.00367 -0.022928,0.017195 -0.035767,0.051127 -0.042187,0.077494 -0.00642,0.026367 -0.00642,0.045168 -0.00711,0.059383 -6.883e-4,0.014215 -0.00206,0.023844 -2.276e-4,0.029577 0.00184,0.00573 0.00687,0.00756 0.00962,0.00734 0.00275,-2.277e-4 0.00321,-0.00252 0.00344,-0.00367 2.288e-4,-0.00115 2.378e-4,-0.00114 0.00895,-0.010768 z"
       id="path960"
       transform="matrix(0.26427467,-1.2889428,1.2889428,0.26427467,-3.0180835,11.730325)" />
    <path
       style="fill:#e084a8;fill-opacity:1;stroke:none;stroke-width:0.0470592;stroke-dasharray:none"
       d="m 5.9133826,5.7915384 c 0.00871,-0.00963 0.026138,-0.02889 0.047002,-0.060072 0.020865,-0.031182 0.045167,-0.074285 0.04081,-0.095609 -0.00436,-0.021324 -0.037372,-0.020867 -0.0603,-0.00367 -0.022928,0.017195 -0.035767,0.051127 -0.042187,0.077494 -0.00642,0.026367 -0.00642,0.045168 -0.00711,0.059383 -6.883e-4,0.014215 -0.00206,0.023844 -2.276e-4,0.029577 0.00184,0.00573 0.00687,0.00756 0.00962,0.00734 0.00275,-2.277e-4 0.00321,-0.00252 0.00344,-0.00367 2.288e-4,-0.00115 2.378e-4,-0.00114 0.00895,-0.010768 z"
       id="path964"
       transform="matrix(-0.70084861,1.1135645,-1.1135645,-0.70084861,16.572566,3.1071931)" />
    <path
       style="fill:#e084a8;fill-opacity:1;stroke:none;stroke-width:0.0470592;stroke-dasharray:none"
       d="m 5.9133826,5.7915384 c 0.00871,-0.00963 0.026138,-0.02889 0.047002,-0.060072 0.020865,-0.031182 0.045167,-0.074285 0.04081,-0.095609 -0.00436,-0.021324 -0.037372,-0.020867 -0.0603,-0.00367 -0.022928,0.017195 -0.035767,0.051127 -0.042187,0.077494 -0.00642,0.026367 -0.00642,0.045168 -0.00711,0.059383 -6.883e-4,0.014215 -0.00206,0.023844 -2.276e-4,0.029577 0.00184,0.00573 0.00687,0.00756 0.00962,0.00734 0.00275,-2.277e-4 0.00321,-0.00252 0.00344,-0.00367 2.288e-4,-0.00115 2.378e-4,-0.00114 0.00895,-0.010768 z"
       id="path968"
       transform="matrix(-1.2804904,-0.30258718,0.30258718,-1.2804904,11.81325,14.833507)" />
    <path
       style="fill:#e084a8;fill-opacity:1;stroke:none;stroke-width:0.0470592;stroke-dasharray:none"
       d="m 5.9209504,6.3528113 c -2.279e-4,-0.00137 -6.845e-4,-0.00413 0.017888,-0.029581 0.018572,-0.025454 0.056173,-0.073602 0.088272,-0.092402 0.032099,-0.018801 0.058694,-0.00825 0.0697,0.011693 0.011006,0.019948 0.00642,0.049294 -0.011234,0.069929 -0.017655,0.020635 -0.048376,0.032557 -0.075662,0.039435 -0.027285,0.00688 -0.051129,0.00871 -0.065341,0.00825 -0.014212,-4.584e-4 -0.0188,-0.00321 -0.021094,-0.00459 -0.00229,-0.00138 -0.0023,-0.00136 -0.00253,-0.00274 z"
       id="path972"
       transform="matrix(0.25040161,1.2100741,-1.2100741,0.25040161,12.255023,-2.4984728)" />
    <path
       style="fill:#e084a8;fill-opacity:1;stroke:none;stroke-width:0.0470592;stroke-dasharray:none"
       d="m 5.9209504,6.3528113 c -2.279e-4,-0.00137 -6.845e-4,-0.00413 0.017888,-0.029581 0.018572,-0.025454 0.056173,-0.073602 0.088272,-0.092402 0.032099,-0.018801 0.058694,-0.00825 0.0697,0.011693 0.011006,0.019948 0.00642,0.049294 -0.011234,0.069929 -0.017655,0.020635 -0.048376,0.032557 -0.075662,0.039435 -0.027285,0.00688 -0.051129,0.00871 -0.065341,0.00825 -0.014212,-4.584e-4 -0.0188,-0.00321 -0.021094,-0.00459 -0.00229,-0.00138 -0.0023,-0.00136 -0.00253,-0.00274 z"
       id="path976"
       transform="matrix(-1.2176585,0.21044759,-0.21044759,-1.2176585,14.651424,12.752429)" />
    <path
       style="fill:#e084a8;fill-opacity:1;stroke:none;stroke-width:0.0470592;stroke-dasharray:none"
       d="m 5.9209504,6.3528113 c -2.279e-4,-0.00137 -6.845e-4,-0.00413 0.017888,-0.029581 0.018572,-0.025454 0.056173,-0.073602 0.088272,-0.092402 0.032099,-0.018801 0.058694,-0.00825 0.0697,0.011693 0.011006,0.019948 0.00642,0.049294 -0.011234,0.069929 -0.017655,0.020635 -0.048376,0.032557 -0.075662,0.039435 -0.027285,0.00688 -0.051129,0.00871 -0.065341,0.00825 -0.014212,-4.584e-4 -0.0188,-0.00321 -0.021094,-0.00459 -0.00229,-0.00138 -0.0023,-0.00136 -0.00253,-0.00274 z"
       id="path980"
       transform="matrix(0.03968285,-1.2350731,1.2350731,0.03968285,-2.0082258,13.375605)" />
    <path
       style="fill:#e084a8;fill-opacity:1;stroke:none;stroke-width:0.0470592;stroke-dasharray:none"
       d="m 3.9729628,5.4207287 c 0.00227,0.00843 0.00681,0.025292 0.00713,0.047989 3.245e-4,0.022697 -0.00357,0.051231 -0.00973,0.06874 -0.00616,0.017508 -0.014592,0.023995 -0.025941,0.021401 -0.011349,-0.00259 -0.025616,-0.014266 -0.030479,-0.038261 -0.00486,-0.023994 -3.24e-4,-0.060311 0.00292,-0.081387 0.00324,-0.021076 0.00519,-0.02691 0.011351,-0.029505 0.00616,-0.0026 0.016536,-0.00195 0.024319,-9.773e-4 0.00778,9.717e-4 0.012971,0.00227 0.015564,0.00292 0.00259,6.483e-4 0.00259,6.535e-4 0.00486,0.00908 z"
       id="path984"
       transform="matrix(0,1.3922493,-1.3922493,0,11.431643,-0.11288933)" />
    <path
       style="fill:#e084a8;fill-opacity:1;stroke:none;stroke-width:0.0470592;stroke-dasharray:none"
       d="m 3.9729628,5.4207287 c 0.00227,0.00843 0.00681,0.025292 0.00713,0.047989 3.245e-4,0.022697 -0.00357,0.051231 -0.00973,0.06874 -0.00616,0.017508 -0.014592,0.023995 -0.025941,0.021401 -0.011349,-0.00259 -0.025616,-0.014266 -0.030479,-0.038261 -0.00486,-0.023994 -3.24e-4,-0.060311 0.00292,-0.081387 0.00324,-0.021076 0.00519,-0.02691 0.011351,-0.029505 0.00616,-0.0026 0.016536,-0.00195 0.024319,-9.773e-4 0.00778,9.717e-4 0.012971,0.00227 0.015564,0.00292 0.00259,6.483e-4 0.00259,6.535e-4 0.00486,0.00908 z"
       id="path988"
       transform="matrix(-1.3448096,0.36034063,-0.36034063,-1.3448096,11.128237,11.21866)" />
    <path
       style="fill:#e084a8;fill-opacity:1;stroke:none;stroke-width:0.0470592;stroke-dasharray:none"
       d="m 3.9729628,5.4207287 c 0.00227,0.00843 0.00681,0.025292 0.00713,0.047989 3.245e-4,0.022697 -0.00357,0.051231 -0.00973,0.06874 -0.00616,0.017508 -0.014592,0.023995 -0.025941,0.021401 -0.011349,-0.00259 -0.025616,-0.014266 -0.030479,-0.038261 -0.00486,-0.023994 -3.24e-4,-0.060311 0.00292,-0.081387 0.00324,-0.021076 0.00519,-0.02691 0.011351,-0.029505 0.00616,-0.0026 0.016536,-0.00195 0.024319,-9.773e-4 0.00778,9.717e-4 0.012971,0.00227 0.015564,0.00292 0.00259,6.483e-4 0.00259,6.535e-4 0.00486,0.00908 z"
       id="path992"
       transform="matrix(-0.22603903,-1.3737775,1.3737775,-0.22603903,-2.6672201,12.02522)" />
    <path
       style="fill:#e084a8;fill-opacity:1;stroke:none;stroke-width:0.0470592;stroke-dasharray:none"
       d="m 3.2424325,5.4158659 c 0.00713,-3.234e-4 0.0214,-9.7e-4 0.04961,-0.00259 0.02821,-0.00162 0.070361,-0.00421 0.085276,0.0026 0.014915,0.00681 0.00259,0.023021 -0.030155,0.034046 -0.03275,0.011024 -0.085925,0.01686 -0.1164038,0.014591 -0.030479,-0.00227 -0.038261,-0.012645 -0.035343,-0.021725 0.00292,-0.00908 0.016537,-0.016862 0.024966,-0.021076 0.00843,-0.00421 0.011669,-0.00486 0.013294,-0.00518 0.00163,-3.24e-4 0.00162,-3.36e-4 0.00876,-6.593e-4 z"
       id="path996"
       transform="matrix(0.20212384,-1.1713716,1.1713716,0.20212384,-3.9335218,7.9960623)" />
    <path
       style="fill:#e084a8;fill-opacity:1;stroke:none;stroke-width:0.0470592;stroke-dasharray:none"
       d="m 3.2424325,5.4158659 c 0.00713,-3.234e-4 0.0214,-9.7e-4 0.04961,-0.00259 0.02821,-0.00162 0.070361,-0.00421 0.085276,0.0026 0.014915,0.00681 0.00259,0.023021 -0.030155,0.034046 -0.03275,0.011024 -0.085925,0.01686 -0.1164038,0.014591 -0.030479,-0.00227 -0.038261,-0.012645 -0.035343,-0.021725 0.00292,-0.00908 0.016537,-0.016862 0.024966,-0.021076 0.00843,-0.00421 0.011669,-0.00486 0.013294,-0.00518 0.00163,-3.24e-4 0.00162,-3.36e-4 0.00876,-6.593e-4 z"
       id="path1000"
       transform="matrix(-1.1781636,-0.15778474,0.15778474,-1.1781636,6.0226445,12.250305)" />
    <path
       style="fill:#e084a8;fill-opacity:1;stroke:none;stroke-width:0.0470592;stroke-dasharray:none"
       d="m 3.2424325,5.4158659 c 0.00713,-3.234e-4 0.0214,-9.7e-4 0.04961,-0.00259 0.02821,-0.00162 0.070361,-0.00421 0.085276,0.0026 0.014915,0.00681 0.00259,0.023021 -0.030155,0.034046 -0.03275,0.011024 -0.085925,0.01686 -0.1164038,0.014591 -0.030479,-0.00227 -0.038261,-0.012645 -0.035343,-0.021725 0.00292,-0.00908 0.016537,-0.016862 0.024966,-0.021076 0.00843,-0.00421 0.011669,-0.00486 0.013294,-0.00518 0.00163,-3.24e-4 0.00162,-3.36e-4 0.00876,-6.593e-4 z"
       id="path1003"
       transform="matrix(-0.05910366,1.187212,-1.187212,-0.05910366,9.7399741,1.8420547)" />
    <path
       style="fill:#e084a8;fill-opacity:1;stroke:none;stroke-width:0.0470592;stroke-dasharray:none"
       d="m 3.1843923,5.9304452 c 0.00162,0.00648 0.00486,0.019454 0.010378,0.042801 0.00551,0.023347 0.013295,0.057068 0.015241,0.077819 0.00195,0.020751 -0.00195,0.028534 -0.011997,0.028859 -0.010052,3.244e-4 -0.026264,-0.00681 -0.037288,-0.02821 -0.011024,-0.021401 -0.016861,-0.057066 -0.018482,-0.082358 -0.00162,-0.025292 9.719e-4,-0.040208 0.00648,-0.048638 0.00551,-0.00843 0.013943,-0.010377 0.020104,-0.00876 0.00616,0.00162 0.010051,0.00681 0.011996,0.0094 0.00195,0.00259 0.00194,0.0026 0.00357,0.00908 z"
       id="path1005"
       transform="matrix(0.36167135,1.3951303,-1.3951303,0.36167135,10.101531,-0.62420684)" />
    <path
       style="fill:#e084a8;fill-opacity:1;stroke:none;stroke-width:0.0470592;stroke-dasharray:none"
       d="m 3.1843923,5.9304452 c 0.00162,0.00648 0.00486,0.019454 0.010378,0.042801 0.00551,0.023347 0.013295,0.057068 0.015241,0.077819 0.00195,0.020751 -0.00195,0.028534 -0.011997,0.028859 -0.010052,3.244e-4 -0.026264,-0.00681 -0.037288,-0.02821 -0.011024,-0.021401 -0.016861,-0.057066 -0.018482,-0.082358 -0.00162,-0.025292 9.719e-4,-0.040208 0.00648,-0.048638 0.00551,-0.00843 0.013943,-0.010377 0.020104,-0.00876 0.00616,0.00162 0.010051,0.00681 0.011996,0.0094 0.00195,0.00259 0.00194,0.0026 0.00357,0.00908 z"
       id="path1007"
       transform="matrix(-1.4393817,0.07331377,-0.07331377,-1.4393817,7.971495,14.238326)" />
    <path
       style="fill:#e084a8;fill-opacity:1;stroke:none;stroke-width:0.0470592;stroke-dasharray:none"
       d="m 3.1843923,5.9304452 c 0.00162,0.00648 0.00486,0.019454 0.010378,0.042801 0.00551,0.023347 0.013295,0.057068 0.015241,0.077819 0.00195,0.020751 -0.00195,0.028534 -0.011997,0.028859 -0.010052,3.244e-4 -0.026264,-0.00681 -0.037288,-0.02821 -0.011024,-0.021401 -0.016861,-0.057066 -0.018482,-0.082358 -0.00162,-0.025292 9.719e-4,-0.040208 0.00648,-0.048638 0.00551,-0.00843 0.013943,-0.010377 0.020104,-0.00876 0.00616,0.00162 0.010051,0.00681 0.011996,0.0094 0.00195,0.00259 0.00194,0.0026 0.00357,0.00908 z"
       id="path1009"
       transform="matrix(-0.11929317,-1.4363021,1.4363021,-0.11929317,-5.1396279,11.177745)" />
  </g>
  <g
     id="g862"
     transform="matrix(-1.0624885,0,0,1.0624885,17.197868,-0.26453462)">
    <rect
       style="fill:#bdca31;fill-opacity:0;stroke:none;stroke-width:0.497953"
       id="rect846"
       width="7.9687138"
       height="7.9687138"
       x="0.24897645"
       y="0.24897645" />
    <path
       style="fill:#6e9202;fill-opacity:1;stroke:#86a336;stroke-width:0.188237;stroke-dasharray:none"
       d="m 4.4483632,6.8851931 c 0.00367,-0.056861 0.00734,-0.113722 0.011004,-0.1705827"
       id="path846"
       transform="translate(0.01100533,-0.04402134)" />
    <path
       style="fill:none;fill-opacity:1;stroke:#86a336;stroke-width:0.0470593;stroke-dasharray:none"
       d="M 4.4098446,6.7531291 C 4.3694916,6.6522467 4.3291388,6.5513646 4.2511832,6.4119619 4.1732275,6.2725592 4.0576738,6.0946432 3.9925582,6.0001802 3.9274427,5.9057173 3.9127706,5.8947132 3.8813368,5.8542312 3.8499031,5.8137493 3.8017113,5.7437935 3.6870312,5.6749628 3.5723512,5.606132 3.391183,5.5384267 3.2100143,5.4707212"
       id="path847" />
    <path
       style="fill:none;fill-opacity:1;stroke:#86a336;stroke-width:0.0470592;stroke-dasharray:none"
       d="M 4.5033899,6.7421236 C 4.6886463,6.4193006 4.8738992,6.0964836 5.0299538,5.9521448 5.1860084,5.8078059 5.3128527,5.8419564 5.4437243,5.855055 5.5745959,5.8681537 5.7094935,5.8602 5.8443913,5.8522463"
       id="path848" />
    <path
       style="fill:none;fill-opacity:1;stroke:#86a336;stroke-width:0.0470592;stroke-dasharray:none"
       d="M 4.4593685,6.7036051 C 4.4557004,6.4669903 4.4520323,6.2303756 4.3907962,6.025421 4.3295602,5.8204664 4.2107653,5.6471853 4.1366878,5.5486134 4.0626102,5.4500416 4.0332637,5.4261976 4.0039161,5.4023527"
       id="path849" />
    <path
       style="fill:none;fill-opacity:1;stroke:#86a336;stroke-width:0.0470592;stroke-dasharray:none"
       d="M 4.4373579,6.8136585 C 4.2355933,6.604557 4.0338326,6.3954596 3.8989047,6.2645057 3.7639768,6.1335518 3.6958913,6.0807507 3.6509531,6.0459006 3.6060149,6.0110506 3.5842244,5.9941518 3.5097397,5.9769476 3.4352551,5.9597435 3.3080754,5.9422339 3.1808994,5.9247248"
       id="path850" />
    <path
       style="fill:none;fill-opacity:1;stroke:#86a336;stroke-width:0.0470592;stroke-dasharray:none"
       d="M 4.4978872,6.7641344 C 4.5492454,6.4761616 4.6006036,6.1881884 4.6418739,6.0056826 4.6831443,5.8231767 4.714325,5.7461422 4.7484941,5.6975808 4.7826632,5.6490194 4.8198184,5.6289355 4.8923368,5.5726564 4.9648551,5.5163773 5.0727365,5.4239033 5.1806188,5.3314284"
       id="path851" />
    <path
       style="fill:none;fill-opacity:1;stroke:#86a336;stroke-width:0.0470592;stroke-dasharray:none"
       d="M 4.5143952,6.8246638 C 4.6923148,6.6485783 4.8702308,6.4724964 5.0279256,6.3778004 5.1856205,6.2831043 5.3230828,6.2698015 5.4621985,6.2842448 c 0.1391158,0.014443 0.2798848,0.056633 0.4206541,0.098823"
       id="path852" />
    <ellipse
       style="fill:#6e9202;fill-opacity:1;stroke:none;stroke-width:0.0470592;stroke-dasharray:none"
       id="ellipse852"
       cx="-5.8804321"
       cy="6.3844504"
       transform="scale(-1,1)"
       rx="0.081164345"
       ry="0.055026669" />
    <ellipse
       style="fill:#6e9202;fill-opacity:1;stroke:none;stroke-width:0.0470592;stroke-dasharray:none"
       id="ellipse853"
       cx="-5.8804321"
       cy="5.8259296"
       transform="scale(-1,1)"
       rx="0.081164345"
       ry="0.055026669" />
    <ellipse
       style="fill:#6e9202;fill-opacity:1;stroke:none;stroke-width:0.0470592;stroke-dasharray:none"
       id="ellipse854"
       cx="-5.1815934"
       cy="5.3334413"
       transform="scale(-1,1)"
       rx="0.081164345"
       ry="0.055026669" />
    <ellipse
       style="fill:#6e9202;fill-opacity:1;stroke:none;stroke-width:0.0470592;stroke-dasharray:none"
       id="ellipse855"
       cx="-3.9627528"
       cy="5.3829651"
       transform="scale(-1,1)"
       rx="0.081164345"
       ry="0.055026669" />
    <ellipse
       style="fill:#6e9202;fill-opacity:1;stroke:none;stroke-width:0.0470592;stroke-dasharray:none"
       id="ellipse856"
       cx="-3.17312"
       cy="5.4462461"
       transform="scale(-1,1)"
       rx="0.081164345"
       ry="0.055026669" />
    <ellipse
       style="fill:#6e9202;fill-opacity:1;stroke:none;stroke-width:0.0470592;stroke-dasharray:none"
       id="ellipse857"
       cx="-3.1538606"
       cy="5.9167242"
       transform="scale(-1,1)"
       rx="0.081164345"
       ry="0.055026669" />
    <path
       style="fill:#e084a8;fill-opacity:1;stroke:none;stroke-width:0.0470592;stroke-dasharray:none"
       d="m 5.2464133,5.174322 c -6.884e-4,0.00596 -0.00206,0.017882 -0.00803,0.04448 -0.00596,0.026597 -0.016508,0.067866 -0.026367,0.090335 -0.00986,0.022469 -0.019032,0.026138 -0.029807,0.018342 -0.010775,-0.0078 -0.023156,-0.027056 -0.02499,-0.059155 -0.00183,-0.032099 0.00688,-0.077037 0.014445,-0.1052385 0.00757,-0.028202 0.013985,-0.039664 0.023157,-0.04448 0.00917,-0.00482 0.021093,-0.00298 0.028888,0.0039 0.0078,0.00688 0.011463,0.0188 0.014675,0.027285 0.00321,0.00848 0.00596,0.013523 0.00734,0.016046 0.00138,0.00252 0.00138,0.00253 6.873e-4,0.00849 z"
       id="path857" />
    <path
       style="fill:#e084a8;fill-opacity:1;stroke:none;stroke-width:0.0470592;stroke-dasharray:none"
       d="m 5.9133826,5.7915384 c 0.00871,-0.00963 0.026138,-0.02889 0.047002,-0.060072 0.020865,-0.031182 0.045167,-0.074285 0.04081,-0.095609 -0.00436,-0.021324 -0.037372,-0.020867 -0.0603,-0.00367 -0.022928,0.017195 -0.035767,0.051127 -0.042187,0.077494 -0.00642,0.026367 -0.00642,0.045168 -0.00711,0.059383 -6.883e-4,0.014215 -0.00206,0.023844 -2.276e-4,0.029577 0.00184,0.00573 0.00687,0.00756 0.00962,0.00734 0.00275,-2.277e-4 0.00321,-0.00252 0.00344,-0.00367 2.288e-4,-0.00115 2.378e-4,-0.00114 0.00895,-0.010768 z"
       id="path858" />
    <path
       style="fill:#e084a8;fill-opacity:1;stroke:none;stroke-width:0.0470592;stroke-dasharray:none"
       d="m 5.9209504,6.3528113 c -2.279e-4,-0.00137 -6.845e-4,-0.00413 0.017888,-0.029581 0.018572,-0.025454 0.056173,-0.073602 0.088272,-0.092402 0.032099,-0.018801 0.058694,-0.00825 0.0697,0.011693 0.011006,0.019948 0.00642,0.049294 -0.011234,0.069929 -0.017655,0.020635 -0.048376,0.032557 -0.075662,0.039435 -0.027285,0.00688 -0.051129,0.00871 -0.065341,0.00825 -0.014212,-4.584e-4 -0.0188,-0.00321 -0.021094,-0.00459 -0.00229,-0.00138 -0.0023,-0.00136 -0.00253,-0.00274 z"
       id="path859" />
    <path
       style="fill:#e084a8;fill-opacity:1;stroke:none;stroke-width:0.0470592;stroke-dasharray:none"
       d="m 3.9729628,5.4207287 c 0.00227,0.00843 0.00681,0.025292 0.00713,0.047989 3.245e-4,0.022697 -0.00357,0.051231 -0.00973,0.06874 -0.00616,0.017508 -0.014592,0.023995 -0.025941,0.021401 -0.011349,-0.00259 -0.025616,-0.014266 -0.030479,-0.038261 -0.00486,-0.023994 -3.24e-4,-0.060311 0.00292,-0.081387 0.00324,-0.021076 0.00519,-0.02691 0.011351,-0.029505 0.00616,-0.0026 0.016536,-0.00195 0.024319,-9.773e-4 0.00778,9.717e-4 0.012971,0.00227 0.015564,0.00292 0.00259,6.483e-4 0.00259,6.535e-4 0.00486,0.00908 z"
       id="path860" />
    <path
       style="fill:#e084a8;fill-opacity:1;stroke:none;stroke-width:0.0470592;stroke-dasharray:none"
       d="m 3.2424325,5.4158659 c 0.00713,-3.234e-4 0.0214,-9.7e-4 0.04961,-0.00259 0.02821,-0.00162 0.070361,-0.00421 0.085276,0.0026 0.014915,0.00681 0.00259,0.023021 -0.030155,0.034046 -0.03275,0.011024 -0.085925,0.01686 -0.1164038,0.014591 -0.030479,-0.00227 -0.038261,-0.012645 -0.035343,-0.021725 0.00292,-0.00908 0.016537,-0.016862 0.024966,-0.021076 0.00843,-0.00421 0.011669,-0.00486 0.013294,-0.00518 0.00163,-3.24e-4 0.00162,-3.36e-4 0.00876,-6.593e-4 z"
       id="path861" />
    <path
       style="fill:#e084a8;fill-opacity:1;stroke:none;stroke-width:0.0470592;stroke-dasharray:none"
       d="m 3.1843923,5.9304452 c 0.00162,0.00648 0.00486,0.019454 0.010378,0.042801 0.00551,0.023347 0.013295,0.057068 0.015241,0.077819 0.00195,0.020751 -0.00195,0.028534 -0.011997,0.028859 -0.010052,3.244e-4 -0.026264,-0.00681 -0.037288,-0.02821 -0.011024,-0.021401 -0.016861,-0.057066 -0.018482,-0.082358 -0.00162,-0.025292 9.719e-4,-0.040208 0.00648,-0.048638 0.00551,-0.00843 0.013943,-0.010377 0.020104,-0.00876 0.00616,0.00162 0.010051,0.00681 0.011996,0.0094 0.00195,0.00259 0.00194,0.0026 0.00357,0.00908 z"
       id="path862" />
  </g>
  <g
     id="g1045"
     transform="matrix(-1.0624885,0,0,1.0624885,34.131201,-0.26453462)">
    <rect
       style="fill:#bdca31;fill-opacity:0;stroke:none;stroke-width:0.497953"
       id="rect1011"
       width="7.9687138"
       height="7.9687138"
       x="0.24897645"
       y="0.24897645" />
    <path
       style="fill:#6e9202;fill-opacity:1;stroke:#86a336;stroke-width:0.188237;stroke-dasharray:none"
       d="m 4.4483632,6.8851931 c 0.00367,-0.056861 0.00734,-0.113722 0.011004,-0.1705827"
       id="path1011"
       transform="translate(0.01100533,-0.04402134)" />
    <path
       style="fill:none;fill-opacity:1;stroke:#86a336;stroke-width:0.0470593;stroke-dasharray:none"
       d="M 4.4098446,6.7531291 C 4.3694916,6.6522467 4.3291388,6.5513646 4.2511832,6.4119619 4.1732275,6.2725592 4.0576738,6.0946432 3.9925582,6.0001802 3.9274427,5.9057173 3.9127706,5.8947132 3.8813368,5.8542312 3.8499031,5.8137493 3.8017115,5.7437939 3.7006305,5.6800451 3.5995494,5.6162964 3.4455791,5.5587554 3.3426796,5.5171001 3.2397801,5.4754449 3.1879511,5.4496753 3.1289493,5.4199626 3.0699475,5.3902499 3.0037731,5.3565941 2.9375987,5.3229383"
       id="path1012" />
    <path
       style="fill:none;fill-opacity:1;stroke:#86a336;stroke-width:0.0470592;stroke-dasharray:none"
       d="M 4.5033899,6.7421236 C 4.6886463,6.4193006 4.8738992,6.0964836 5.0299538,5.9521448 5.1860084,5.8078059 5.3128526,5.8419563 5.4334902,5.8556585 5.5541279,5.8693606 5.668558,5.8626139 5.7442728,5.8447181 5.8199875,5.8268223 5.8569892,5.7977769 5.9187387,5.7339112 5.9804883,5.6700455 6.0669855,5.5713598 6.1534828,5.472674"
       id="path1013" />
    <path
       style="fill:none;fill-opacity:1;stroke:#86a336;stroke-width:0.0470592;stroke-dasharray:none"
       d="M 4.4593685,6.7036051 C 4.4557004,6.4669903 4.4520323,6.2303756 4.3907962,6.025421 4.3295602,5.8204664 4.2107642,5.6471836 4.1441093,5.5546431 4.0774545,5.4621025 4.0629508,5.4503183 4.0418426,5.4348489 4.0207345,5.4193795 3.9930226,5.4002255 3.9426505,5.3530188 3.8922784,5.3058121 3.8192461,5.2305527 3.7462132,5.1552927"
       id="path1014" />
    <path
       style="fill:none;fill-opacity:1;stroke:#86a336;stroke-width:0.0470592;stroke-dasharray:none"
       d="M 4.4373579,6.8136585 C 4.2355933,6.604557 4.0338326,6.3954596 3.8989047,6.2645057 3.7639768,6.1335518 3.6958913,6.0807507 3.6509531,6.0459006 3.6060149,6.0110506 3.5842243,5.9941517 3.5330449,5.9801562 3.4818655,5.9661606 3.4012977,5.9550684 3.3282265,5.9454182 3.2551552,5.935768 3.1895817,5.92756 3.10588,5.9148188 3.0221784,5.9020775 2.9203487,5.884803 2.8185193,5.8675285"
       id="path1015" />
    <path
       style="fill:none;fill-opacity:1;stroke:#86a336;stroke-width:0.0470592;stroke-dasharray:none"
       d="m 4.4978872,6.7641344 c 0.051358,-0.2879728 0.1027164,-0.575946 0.1439869,-0.758452 0.04127,-0.1825059 0.072451,-0.25954 0.1066203,-0.3081015 0.034169,-0.048561 0.071324,-0.068645 0.1351923,-0.1175094 0.063868,-0.048864 0.1544486,-0.1265082 0.2200049,-0.1911803 0.065556,-0.064672 0.1060883,-0.1163718 0.1390403,-0.194995 0.032952,-0.078623 0.058324,-0.1841698 0.083696,-0.2897165"
       id="path1016" />
    <path
       style="fill:none;fill-opacity:1;stroke:#86a336;stroke-width:0.0470592;stroke-dasharray:none"
       d="M 4.5143952,6.8246638 C 4.6923148,6.6485783 4.8702308,6.4724964 5.0279256,6.3778004 5.1856205,6.2831043 5.3230822,6.2698016 5.4428619,6.2784495 c 0.1197797,0.00865 0.2218758,0.039247 0.3034948,0.053235 0.081619,0.013988 0.1427615,0.011365 0.2039036,0.00874"
       id="path1017" />
    <ellipse
       style="fill:#6e9202;fill-opacity:1;stroke:none;stroke-width:0.083813;stroke-dasharray:none"
       id="ellipse1017"
       cx="-6.0864902"
       cy="6.3096218"
       transform="scale(-1,1)"
       rx="0.14455485"
       ry="0.098003268" />
    <ellipse
       style="fill:#6e9202;fill-opacity:1;stroke:none;stroke-width:0.0778399;stroke-dasharray:none"
       id="ellipse1018"
       cx="-6.1667686"
       cy="5.4483209"
       transform="scale(-1,1)"
       rx="0.13425282"
       ry="0.091018856" />
    <ellipse
       style="fill:#6e9202;fill-opacity:1;stroke:none;stroke-width:0.0696285;stroke-dasharray:none"
       id="ellipse1019"
       cx="-5.3601289"
       cy="4.8655295"
       transform="scale(-1,1)"
       rx="0.12009022"
       ry="0.081417084" />
    <ellipse
       style="fill:#6e9202;fill-opacity:1;stroke:none;stroke-width:0.0818495;stroke-dasharray:none"
       id="ellipse1020"
       cx="-3.7278552"
       cy="5.1184683"
       transform="scale(-1,1)"
       rx="0.14116819"
       ry="0.095707245" />
    <ellipse
       style="fill:#6e9202;fill-opacity:1;stroke:none;stroke-width:0.0697677;stroke-dasharray:none"
       id="ellipse1021"
       cx="-2.9229841"
       cy="5.2738981"
       transform="scale(-1,1)"
       rx="0.12033034"
       ry="0.081579886" />
    <ellipse
       style="fill:#6e9202;fill-opacity:1;stroke:none;stroke-width:0.0873409;stroke-dasharray:none"
       id="ellipse1022"
       cx="-2.7527897"
       cy="5.8485541"
       transform="scale(-1,1)"
       rx="0.15063931"
       ry="0.10212833" />
    <path
       style="fill:#e084a8;fill-opacity:1;stroke:none;stroke-width:0.0470592;stroke-dasharray:none"
       d="m 5.2464133,5.174322 c -6.884e-4,0.00596 -0.00206,0.017882 -0.00803,0.04448 -0.00596,0.026597 -0.016508,0.067866 -0.026367,0.090335 -0.00986,0.022469 -0.019032,0.026138 -0.029807,0.018342 -0.010775,-0.0078 -0.023156,-0.027056 -0.02499,-0.059155 -0.00183,-0.032099 0.00688,-0.077037 0.014445,-0.1052385 0.00757,-0.028202 0.013985,-0.039664 0.023157,-0.04448 0.00917,-0.00482 0.021093,-0.00298 0.028888,0.0039 0.0078,0.00688 0.011463,0.0188 0.014675,0.027285 0.00321,0.00848 0.00596,0.013523 0.00734,0.016046 0.00138,0.00252 0.00138,0.00253 6.873e-4,0.00849 z"
       id="path1022"
       transform="matrix(1.4795933,0,0,1.4795933,-2.3065212,-3.0257948)" />
    <path
       style="fill:#e084a8;fill-opacity:1;stroke:none;stroke-width:0.0470592;stroke-dasharray:none"
       d="m 5.9133826,5.7915384 c 0.00871,-0.00963 0.026138,-0.02889 0.047002,-0.060072 0.020865,-0.031182 0.045167,-0.074285 0.04081,-0.095609 -0.00436,-0.021324 -0.037372,-0.020867 -0.0603,-0.00367 -0.022928,0.017195 -0.035767,0.051127 -0.042187,0.077494 -0.00642,0.026367 -0.00642,0.045168 -0.00711,0.059383 -6.883e-4,0.014215 -0.00206,0.023844 -2.276e-4,0.029577 0.00184,0.00573 0.00687,0.00756 0.00962,0.00734 0.00275,-2.277e-4 0.00321,-0.00252 0.00344,-0.00367 2.288e-4,-0.00115 2.378e-4,-0.00114 0.00895,-0.010768 z"
       id="path1023"
       transform="matrix(1.6540862,0,0,1.6540862,-3.559973,-4.1882686)" />
    <path
       style="fill:#e084a8;fill-opacity:1;stroke:none;stroke-width:0.0470592;stroke-dasharray:none"
       d="m 5.9209504,6.3528113 c -2.279e-4,-0.00137 -6.845e-4,-0.00413 0.017888,-0.029581 0.018572,-0.025454 0.056173,-0.073602 0.088272,-0.092402 0.032099,-0.018801 0.058694,-0.00825 0.0697,0.011693 0.011006,0.019948 0.00642,0.049294 -0.011234,0.069929 -0.017655,0.020635 -0.048376,0.032557 -0.075662,0.039435 -0.027285,0.00688 -0.051129,0.00871 -0.065341,0.00825 -0.014212,-4.584e-4 -0.0188,-0.00321 -0.021094,-0.00459 -0.00229,-0.00138 -0.0023,-0.00136 -0.00253,-0.00274 z"
       id="path1024"
       transform="matrix(1.7810141,0,0,1.7810141,-4.3866423,-5.0611749)" />
    <path
       style="fill:#e084a8;fill-opacity:1;stroke:none;stroke-width:0.0470592;stroke-dasharray:none"
       d="m 3.9729628,5.4207287 c 0.00227,0.00843 0.00681,0.025292 0.00713,0.047989 3.245e-4,0.022697 -0.00357,0.051231 -0.00973,0.06874 -0.00616,0.017508 -0.014592,0.023995 -0.025941,0.021401 -0.011349,-0.00259 -0.025616,-0.014266 -0.030479,-0.038261 -0.00486,-0.023994 -3.24e-4,-0.060311 0.00292,-0.081387 0.00324,-0.021076 0.00519,-0.02691 0.011351,-0.029505 0.00616,-0.0026 0.016536,-0.00195 0.024319,-9.773e-4 0.00778,9.717e-4 0.012971,0.00227 0.015564,0.00292 0.00259,6.483e-4 0.00259,6.535e-4 0.00486,0.00908 z"
       id="path1025"
       transform="matrix(1.7392884,0,0,1.7392884,-3.1645147,-4.2440605)" />
    <path
       style="fill:#e084a8;fill-opacity:1;stroke:none;stroke-width:0.0470592;stroke-dasharray:none"
       d="m 3.2424325,5.4158659 c 0.00713,-3.234e-4 0.0214,-9.7e-4 0.04961,-0.00259 0.02821,-0.00162 0.070361,-0.00421 0.085276,0.0026 0.014915,0.00681 0.00259,0.023021 -0.030155,0.034046 -0.03275,0.011024 -0.085925,0.01686 -0.1164038,0.014591 -0.030479,-0.00227 -0.038261,-0.012645 -0.035343,-0.021725 0.00292,-0.00908 0.016537,-0.016862 0.024966,-0.021076 0.00843,-0.00421 0.011669,-0.00486 0.013294,-0.00518 0.00163,-3.24e-4 0.00162,-3.36e-4 0.00876,-6.593e-4 z"
       id="path1026"
       transform="matrix(1.4825518,0,0,1.4825518,-1.7813307,-2.8004434)" />
    <path
       style="fill:#e084a8;fill-opacity:1;stroke:none;stroke-width:0.0470592;stroke-dasharray:none"
       d="m 3.1843923,5.9304452 c 0.00162,0.00648 0.00486,0.019454 0.010378,0.042801 0.00551,0.023347 0.013295,0.057068 0.015241,0.077819 0.00195,0.020751 -0.00195,0.028534 -0.011997,0.028859 -0.010052,3.244e-4 -0.026264,-0.00681 -0.037288,-0.02821 -0.011024,-0.021401 -0.016861,-0.057066 -0.018482,-0.082358 -0.00162,-0.025292 9.719e-4,-0.040208 0.00648,-0.048638 0.00551,-0.00843 0.013943,-0.010377 0.020104,-0.00876 0.00616,0.00162 0.010051,0.00681 0.011996,0.0094 0.00195,0.00259 0.00194,0.0026 0.00357,0.00908 z"
       id="path1027"
       transform="matrix(1.8559788,0,0,1.8559788,-3.1007092,-5.1327612)" />
    <path
       style="fill:#e084a8;fill-opacity:1;stroke:none;stroke-width:0.0470592;stroke-dasharray:none"
       d="m 5.2464133,5.174322 c -6.884e-4,0.00596 -0.00206,0.017882 -0.00803,0.04448 -0.00596,0.026597 -0.016508,0.067866 -0.026367,0.090335 -0.00986,0.022469 -0.019032,0.026138 -0.029807,0.018342 -0.010775,-0.0078 -0.023156,-0.027056 -0.02499,-0.059155 -0.00183,-0.032099 0.00688,-0.077037 0.014445,-0.1052385 0.00757,-0.028202 0.013985,-0.039664 0.023157,-0.04448 0.00917,-0.00482 0.021093,-0.00298 0.028888,0.0039 0.0078,0.00688 0.011463,0.0188 0.014675,0.027285 0.00321,0.00848 0.00596,0.013523 0.00734,0.016046 0.00138,0.00252 0.00138,0.00253 6.873e-4,0.00849 z"
       id="path1028"
       transform="matrix(0.49559355,-1.3941246,1.3941246,0.49559355,-4.6366763,9.4429237)" />
    <path
       style="fill:#e084a8;fill-opacity:1;stroke:none;stroke-width:0.0470592;stroke-dasharray:none"
       d="m 5.2464133,5.174322 c -6.884e-4,0.00596 -0.00206,0.017882 -0.00803,0.04448 -0.00596,0.026597 -0.016508,0.067866 -0.026367,0.090335 -0.00986,0.022469 -0.019032,0.026138 -0.029807,0.018342 -0.010775,-0.0078 -0.023156,-0.027056 -0.02499,-0.059155 -0.00183,-0.032099 0.00688,-0.077037 0.014445,-0.1052385 0.00757,-0.028202 0.013985,-0.039664 0.023157,-0.04448 0.00917,-0.00482 0.021093,-0.00298 0.028888,0.0039 0.0078,0.00688 0.011463,0.0188 0.014675,0.027285 0.00321,0.00848 0.00596,0.013523 0.00734,0.016046 0.00138,0.00252 0.00138,0.00253 6.873e-4,0.00849 z"
       id="path1029"
       transform="matrix(-1.3461569,-0.61405036,0.61405036,-1.3461569,9.072673,15.194029)" />
    <path
       style="fill:#e084a8;fill-opacity:1;stroke:none;stroke-width:0.0470592;stroke-dasharray:none"
       d="m 5.2464133,5.174322 c -6.884e-4,0.00596 -0.00206,0.017882 -0.00803,0.04448 -0.00596,0.026597 -0.016508,0.067866 -0.026367,0.090335 -0.00986,0.022469 -0.019032,0.026138 -0.029807,0.018342 -0.010775,-0.0078 -0.023156,-0.027056 -0.02499,-0.059155 -0.00183,-0.032099 0.00688,-0.077037 0.014445,-0.1052385 0.00757,-0.028202 0.013985,-0.039664 0.023157,-0.04448 0.00917,-0.00482 0.021093,-0.00298 0.028888,0.0039 0.0078,0.00688 0.011463,0.0188 0.014675,0.027285 0.00321,0.00848 0.00596,0.013523 0.00734,0.016046 0.00138,0.00252 0.00138,0.00253 6.873e-4,0.00849 z"
       id="path1030"
       transform="matrix(-0.77441239,1.2607465,-1.2607465,-0.77441239,16.076968,2.3958408)" />
    <path
       style="fill:#e084a8;fill-opacity:1;stroke:none;stroke-width:0.0470592;stroke-dasharray:none"
       d="m 5.9133826,5.7915384 c 0.00871,-0.00963 0.026138,-0.02889 0.047002,-0.060072 0.020865,-0.031182 0.045167,-0.074285 0.04081,-0.095609 -0.00436,-0.021324 -0.037372,-0.020867 -0.0603,-0.00367 -0.022928,0.017195 -0.035767,0.051127 -0.042187,0.077494 -0.00642,0.026367 -0.00642,0.045168 -0.00711,0.059383 -6.883e-4,0.014215 -0.00206,0.023844 -2.276e-4,0.029577 0.00184,0.00573 0.00687,0.00756 0.00962,0.00734 0.00275,-2.277e-4 0.00321,-0.00252 0.00344,-0.00367 2.288e-4,-0.00115 2.378e-4,-0.00114 0.00895,-0.010768 z"
       id="path1031"
       transform="matrix(0.33222953,-1.620378,1.620378,0.33222953,-5.1550634,13.051904)" />
    <path
       style="fill:#e084a8;fill-opacity:1;stroke:none;stroke-width:0.0470592;stroke-dasharray:none"
       d="m 5.9133826,5.7915384 c 0.00871,-0.00963 0.026138,-0.02889 0.047002,-0.060072 0.020865,-0.031182 0.045167,-0.074285 0.04081,-0.095609 -0.00436,-0.021324 -0.037372,-0.020867 -0.0603,-0.00367 -0.022928,0.017195 -0.035767,0.051127 -0.042187,0.077494 -0.00642,0.026367 -0.00642,0.045168 -0.00711,0.059383 -6.883e-4,0.014215 -0.00206,0.023844 -2.276e-4,0.029577 0.00184,0.00573 0.00687,0.00756 0.00962,0.00734 0.00275,-2.277e-4 0.00321,-0.00252 0.00344,-0.00367 2.288e-4,-0.00115 2.378e-4,-0.00114 0.00895,-0.010768 z"
       id="path1032"
       transform="matrix(-0.88106288,1.3999034,-1.3999034,-0.88106288,19.473071,2.2114438)" />
    <path
       style="fill:#e084a8;fill-opacity:1;stroke:none;stroke-width:0.0470592;stroke-dasharray:none"
       d="m 5.9133826,5.7915384 c 0.00871,-0.00963 0.026138,-0.02889 0.047002,-0.060072 0.020865,-0.031182 0.045167,-0.074285 0.04081,-0.095609 -0.00436,-0.021324 -0.037372,-0.020867 -0.0603,-0.00367 -0.022928,0.017195 -0.035767,0.051127 -0.042187,0.077494 -0.00642,0.026367 -0.00642,0.045168 -0.00711,0.059383 -6.883e-4,0.014215 -0.00206,0.023844 -2.276e-4,0.029577 0.00184,0.00573 0.00687,0.00756 0.00962,0.00734 0.00275,-2.277e-4 0.00321,-0.00252 0.00344,-0.00367 2.288e-4,-0.00115 2.378e-4,-0.00114 0.00895,-0.010768 z"
       id="path1033"
       transform="matrix(-1.6097521,-0.38039361,0.38039361,-1.6097521,13.489958,16.953029)" />
    <path
       style="fill:#e084a8;fill-opacity:1;stroke:none;stroke-width:0.0470592;stroke-dasharray:none"
       d="m 5.9209504,6.3528113 c -2.279e-4,-0.00137 -6.845e-4,-0.00413 0.017888,-0.029581 0.018572,-0.025454 0.056173,-0.073602 0.088272,-0.092402 0.032099,-0.018801 0.058694,-0.00825 0.0697,0.011693 0.011006,0.019948 0.00642,0.049294 -0.011234,0.069929 -0.017655,0.020635 -0.048376,0.032557 -0.075662,0.039435 -0.027285,0.00688 -0.051129,0.00871 -0.065341,0.00825 -0.014212,-4.584e-4 -0.0188,-0.00321 -0.021094,-0.00459 -0.00229,-0.00138 -0.0023,-0.00136 -0.00253,-0.00274 z"
       id="path1034"
       transform="matrix(0.36090073,1.7440648,-1.7440648,0.36090073,15.079985,-6.394101)" />
    <path
       style="fill:#e084a8;fill-opacity:1;stroke:none;stroke-width:0.0470592;stroke-dasharray:none"
       d="m 5.9209504,6.3528113 c -2.279e-4,-0.00137 -6.845e-4,-0.00413 0.017888,-0.029581 0.018572,-0.025454 0.056173,-0.073602 0.088272,-0.092402 0.032099,-0.018801 0.058694,-0.00825 0.0697,0.011693 0.011006,0.019948 0.00642,0.049294 -0.011234,0.069929 -0.017655,0.020635 -0.048376,0.032557 -0.075662,0.039435 -0.027285,0.00688 -0.051129,0.00871 -0.065341,0.00825 -0.014212,-4.584e-4 -0.0188,-0.00321 -0.021094,-0.00459 -0.00229,-0.00138 -0.0023,-0.00136 -0.00253,-0.00274 z"
       id="path1035"
       transform="matrix(-1.7549961,0.3033155,-0.3033155,-1.7549961,18.533888,15.586834)" />
    <path
       style="fill:#e084a8;fill-opacity:1;stroke:none;stroke-width:0.0470592;stroke-dasharray:none"
       d="m 5.9209504,6.3528113 c -2.279e-4,-0.00137 -6.845e-4,-0.00413 0.017888,-0.029581 0.018572,-0.025454 0.056173,-0.073602 0.088272,-0.092402 0.032099,-0.018801 0.058694,-0.00825 0.0697,0.011693 0.011006,0.019948 0.00642,0.049294 -0.011234,0.069929 -0.017655,0.020635 -0.048376,0.032557 -0.075662,0.039435 -0.027285,0.00688 -0.051129,0.00871 -0.065341,0.00825 -0.014212,-4.584e-4 -0.0188,-0.00321 -0.021094,-0.00459 -0.00229,-0.00138 -0.0023,-0.00136 -0.00253,-0.00274 z"
       id="path1036"
       transform="matrix(0.0571944,-1.7800955,1.7800955,0.0571944,-5.4774579,16.48501)" />
    <path
       style="fill:#e084a8;fill-opacity:1;stroke:none;stroke-width:0.0470592;stroke-dasharray:none"
       d="m 3.9729628,5.4207287 c 0.00227,0.00843 0.00681,0.025292 0.00713,0.047989 3.245e-4,0.022697 -0.00357,0.051231 -0.00973,0.06874 -0.00616,0.017508 -0.014592,0.023995 -0.025941,0.021401 -0.011349,-0.00259 -0.025616,-0.014266 -0.030479,-0.038261 -0.00486,-0.023994 -3.24e-4,-0.060311 0.00292,-0.081387 0.00324,-0.021076 0.00519,-0.02691 0.011351,-0.029505 0.00616,-0.0026 0.016536,-0.00195 0.024319,-9.773e-4 0.00778,9.717e-4 0.012971,0.00227 0.015564,0.00292 0.00259,6.483e-4 0.00259,6.535e-4 0.00486,0.00908 z"
       id="path1037"
       transform="matrix(0,1.7392884,-1.7392884,0,13.146371,-1.7227179)" />
    <path
       style="fill:#e084a8;fill-opacity:1;stroke:none;stroke-width:0.0470592;stroke-dasharray:none"
       d="m 3.9729628,5.4207287 c 0.00227,0.00843 0.00681,0.025292 0.00713,0.047989 3.245e-4,0.022697 -0.00357,0.051231 -0.00973,0.06874 -0.00616,0.017508 -0.014592,0.023995 -0.025941,0.021401 -0.011349,-0.00259 -0.025616,-0.014266 -0.030479,-0.038261 -0.00486,-0.023994 -3.24e-4,-0.060311 0.00292,-0.081387 0.00324,-0.021076 0.00519,-0.02691 0.011351,-0.029505 0.00616,-0.0026 0.016536,-0.00195 0.024319,-9.773e-4 0.00778,9.717e-4 0.012971,0.00227 0.015564,0.00292 0.00259,6.483e-4 0.00259,6.535e-4 0.00486,0.00908 z"
       id="path1038"
       transform="matrix(-1.6800237,0.45016096,-0.45016096,-1.6800237,12.767336,12.433391)" />
    <path
       style="fill:#e084a8;fill-opacity:1;stroke:none;stroke-width:0.0470592;stroke-dasharray:none"
       d="m 3.9729628,5.4207287 c 0.00227,0.00843 0.00681,0.025292 0.00713,0.047989 3.245e-4,0.022697 -0.00357,0.051231 -0.00973,0.06874 -0.00616,0.017508 -0.014592,0.023995 -0.025941,0.021401 -0.011349,-0.00259 -0.025616,-0.014266 -0.030479,-0.038261 -0.00486,-0.023994 -3.24e-4,-0.060311 0.00292,-0.081387 0.00324,-0.021076 0.00519,-0.02691 0.011351,-0.029505 0.00616,-0.0026 0.016536,-0.00195 0.024319,-9.773e-4 0.00778,9.717e-4 0.012971,0.00227 0.015564,0.00292 0.00259,6.483e-4 0.00259,6.535e-4 0.00486,0.00908 z"
       id="path1039"
       transform="matrix(-0.28238266,-1.7162122,1.7162122,-0.28238266,-4.4668459,13.440999)" />
    <path
       style="fill:#e084a8;fill-opacity:1;stroke:none;stroke-width:0.0470592;stroke-dasharray:none"
       d="m 3.2424325,5.4158659 c 0.00713,-3.234e-4 0.0214,-9.7e-4 0.04961,-0.00259 0.02821,-0.00162 0.070361,-0.00421 0.085276,0.0026 0.014915,0.00681 0.00259,0.023021 -0.030155,0.034046 -0.03275,0.011024 -0.085925,0.01686 -0.1164038,0.014591 -0.030479,-0.00227 -0.038261,-0.012645 -0.035343,-0.021725 0.00292,-0.00908 0.016537,-0.016862 0.024966,-0.021076 0.00843,-0.00421 0.011669,-0.00486 0.013294,-0.00518 0.00163,-3.24e-4 0.00162,-3.36e-4 0.00876,-6.593e-4 z"
       id="path1040"
       transform="matrix(0.2520935,-1.4609616,1.4609616,0.2520935,-5.8052647,8.5921257)" />
    <path
       style="fill:#e084a8;fill-opacity:1;stroke:none;stroke-width:0.0470592;stroke-dasharray:none"
       d="m 3.2424325,5.4158659 c 0.00713,-3.234e-4 0.0214,-9.7e-4 0.04961,-0.00259 0.02821,-0.00162 0.070361,-0.00421 0.085276,0.0026 0.014915,0.00681 0.00259,0.023021 -0.030155,0.034046 -0.03275,0.011024 -0.085925,0.01686 -0.1164038,0.014591 -0.030479,-0.00227 -0.038261,-0.012645 -0.035343,-0.021725 0.00292,-0.00908 0.016537,-0.016862 0.024966,-0.021076 0.00843,-0.00421 0.011669,-0.00486 0.013294,-0.00518 0.00163,-3.24e-4 0.00162,-3.36e-4 0.00876,-6.593e-4 z"
       id="path1041"
       transform="matrix(-1.4694328,-0.19679276,0.19679276,-1.4694328,6.612295,13.898115)" />
    <path
       style="fill:#e084a8;fill-opacity:1;stroke:none;stroke-width:0.0470592;stroke-dasharray:none"
       d="m 3.2424325,5.4158659 c 0.00713,-3.234e-4 0.0214,-9.7e-4 0.04961,-0.00259 0.02821,-0.00162 0.070361,-0.00421 0.085276,0.0026 0.014915,0.00681 0.00259,0.023021 -0.030155,0.034046 -0.03275,0.011024 -0.085925,0.01686 -0.1164038,0.014591 -0.030479,-0.00227 -0.038261,-0.012645 -0.035343,-0.021725 0.00292,-0.00908 0.016537,-0.016862 0.024966,-0.021076 0.00843,-0.00421 0.011669,-0.00486 0.013294,-0.00518 0.00163,-3.24e-4 0.00162,-3.36e-4 0.00876,-6.593e-4 z"
       id="path1042"
       transform="matrix(-0.07371544,1.4807181,-1.4807181,-0.07371544,11.248634,0.91670589)" />
    <path
       style="fill:#e084a8;fill-opacity:1;stroke:none;stroke-width:0.0470592;stroke-dasharray:none"
       d="m 3.1843923,5.9304452 c 0.00162,0.00648 0.00486,0.019454 0.010378,0.042801 0.00551,0.023347 0.013295,0.057068 0.015241,0.077819 0.00195,0.020751 -0.00195,0.028534 -0.011997,0.028859 -0.010052,3.244e-4 -0.026264,-0.00681 -0.037288,-0.02821 -0.011024,-0.021401 -0.016861,-0.057066 -0.018482,-0.082358 -0.00162,-0.025292 9.719e-4,-0.040208 0.00648,-0.048638 0.00551,-0.00843 0.013943,-0.010377 0.020104,-0.00876 0.00616,0.00162 0.010051,0.00681 0.011996,0.0094 0.00195,0.00259 0.00194,0.0026 0.00357,0.00908 z"
       id="path1043"
       transform="matrix(0.46574535,1.7965909,-1.7965909,0.46574535,11.930069,-2.5987666)" />
    <path
       style="fill:#e084a8;fill-opacity:1;stroke:none;stroke-width:0.0470592;stroke-dasharray:none"
       d="m 3.1843923,5.9304452 c 0.00162,0.00648 0.00486,0.019454 0.010378,0.042801 0.00551,0.023347 0.013295,0.057068 0.015241,0.077819 0.00195,0.020751 -0.00195,0.028534 -0.011997,0.028859 -0.010052,3.244e-4 -0.026264,-0.00681 -0.037288,-0.02821 -0.011024,-0.021401 -0.016861,-0.057066 -0.018482,-0.082358 -0.00162,-0.025292 9.719e-4,-0.040208 0.00648,-0.048638 0.00551,-0.00843 0.013943,-0.010377 0.020104,-0.00876 0.00616,0.00162 0.010051,0.00681 0.011996,0.0094 0.00195,0.00259 0.00194,0.0026 0.00357,0.00908 z"
       id="path1044"
       transform="matrix(-1.853576,0.09441043,-0.09441043,-1.853576,9.1870972,16.540587)" />
    <path
       style="fill:#e084a8;fill-opacity:1;stroke:none;stroke-width:0.0470592;stroke-dasharray:none"
       d="m 3.1843923,5.9304452 c 0.00162,0.00648 0.00486,0.019454 0.010378,0.042801 0.00551,0.023347 0.013295,0.057068 0.015241,0.077819 0.00195,0.020751 -0.00195,0.028534 -0.011997,0.028859 -0.010052,3.244e-4 -0.026264,-0.00681 -0.037288,-0.02821 -0.011024,-0.021401 -0.016861,-0.057066 -0.018482,-0.082358 -0.00162,-0.025292 9.719e-4,-0.040208 0.00648,-0.048638 0.00551,-0.00843 0.013943,-0.010377 0.020104,-0.00876 0.00616,0.00162 0.010051,0.00681 0.011996,0.0094 0.00195,0.00259 0.00194,0.0026 0.00357,0.00908 z"
       id="path1045"
       transform="matrix(-0.15362079,-1.8496102,1.8496102,-0.15362079,-7.6968628,12.599297)" />
  </g>
</svg>
