<?xml version="1.0" encoding="UTF-8" standalone="no"?>
<!-- Created with Inkscape (http://www.inkscape.org/) -->

<svg
   width="1920"
   height="1080"
   viewBox="0 0 507.99999 285.75"
   version="1.1"
   id="svg1"
   inkscape:version="1.3.2 (091e20e, 2023-11-25, custom)"
   sodipodi:docname="Rose_Scene.svg"
   xmlns:inkscape="http://www.inkscape.org/namespaces/inkscape"
   xmlns:sodipodi="http://sodipodi.sourceforge.net/DTD/sodipodi-0.dtd"
   xmlns="http://www.w3.org/2000/svg"
   xmlns:svg="http://www.w3.org/2000/svg">
  <sodipodi:namedview
     id="namedview1"
     pagecolor="#ffffff"
     bordercolor="#000000"
     borderopacity="0.25"
     inkscape:showpageshadow="2"
     inkscape:pageopacity="0.0"
     inkscape:pagecheckerboard="0"
     inkscape:deskcolor="#d1d1d1"
     inkscape:document-units="mm"
     showgrid="true"
     inkscape:zoom="5.7370931"
     inkscape:cx="44.18614"
     inkscape:cy="76.781044"
     inkscape:window-width="1920"
     inkscape:window-height="1001"
     inkscape:window-x="-7"
     inkscape:window-y="-7"
     inkscape:window-maximized="1"
     inkscape:current-layer="g16">
    <inkscape:grid
       id="grid1"
       units="px"
       originx="0"
       originy="0"
       spacingx="8.4666666"
       spacingy="8.4666666"
       empcolor="#0099e5"
       empopacity="0.30196078"
       color="#0099e5"
       opacity="0.14901961"
       empspacing="5"
       dotted="false"
       gridanglex="30"
       gridanglez="30"
       visible="true" />
  </sodipodi:namedview>
  <defs
     id="defs1">
    <inkscape:path-effect
       effect="copy_rotate"
       starting_point="0,0"
       origin="12.591473,5.1569785"
       id="path-effect50"
       is_visible="true"
       lpeversion="1.2"
       lpesatellites=""
       method="normal"
       num_copies="7"
       starting_angle="0.5"
       rotation_angle="51.428571"
       gap="-0.01"
       copies_to_360="true"
       mirror_copies="false"
       split_items="false"
       link_styles="false" />
    <inkscape:path-effect
       effect="copy_rotate"
       starting_point="0,0"
       origin="12.591473,5.1569785"
       id="path-effect48"
       is_visible="true"
       lpeversion="1.2"
       lpesatellites=""
       method="normal"
       num_copies="7"
       starting_angle="0.5"
       rotation_angle="51.428571"
       gap="-0.01"
       copies_to_360="true"
       mirror_copies="false"
       split_items="false"
       link_styles="false" />
    <inkscape:path-effect
       effect="copy_rotate"
       starting_point="0,0"
       origin="12.591473,5.1569785"
       id="path-effect37"
       is_visible="true"
       lpeversion="1.2"
       lpesatellites=""
       method="normal"
       num_copies="5"
       starting_angle="0.5"
       rotation_angle="72"
       gap="-0.01"
       copies_to_360="true"
       mirror_copies="false"
       split_items="false"
       link_styles="false" />
    <inkscape:path-effect
       effect="mirror_symmetry"
       start_point="13.072523,4.7620435"
       end_point="13.072523,5.5519136"
       center_point="13.072523,5.1569785"
       id="path-effect36"
       is_visible="true"
       lpeversion="1.2"
       lpesatellites=""
       mode="free"
       discard_orig_path="false"
       fuse_paths="false"
       oposite_fuse="false"
       split_items="false"
       split_open="false"
       link_styles="false" />
    <inkscape:path-effect
       effect="copy_rotate"
       starting_point="0,0"
       origin="20.744992,19.646596"
       id="path-effect23"
       is_visible="true"
       lpeversion="1.2"
       lpesatellites=""
       method="normal"
       num_copies="12"
       starting_angle="0"
       rotation_angle="30"
       gap="-0.01"
       copies_to_360="true"
       mirror_copies="false"
       split_items="false"
       link_styles="false" />
    <inkscape:path-effect
       effect="copy_rotate"
       starting_point="0,0"
       origin="20.744992,19.646596"
       id="path-effect21"
       is_visible="true"
       lpeversion="1.2"
       lpesatellites=""
       method="normal"
       num_copies="12"
       starting_angle="0"
       rotation_angle="30"
       gap="-0.01"
       copies_to_360="true"
       mirror_copies="false"
       split_items="false"
       link_styles="false" />
    <inkscape:path-effect
       effect="bspline"
       id="path-effect20"
       is_visible="true"
       lpeversion="1.3"
       weight="33.333333"
       steps="2"
       helper_size="0"
       apply_no_weight="true"
       apply_with_weight="true"
       only_selected="false"
       uniform="false" />
    <inkscape:path-effect
       effect="bspline"
       id="path-effect19"
       is_visible="true"
       lpeversion="1.3"
       weight="33.333333"
       steps="2"
       helper_size="0"
       apply_no_weight="true"
       apply_with_weight="true"
       only_selected="false"
       uniform="false" />
    <inkscape:path-effect
       effect="bspline"
       id="path-effect17"
       is_visible="true"
       lpeversion="1.3"
       weight="33.333333"
       steps="2"
       helper_size="0"
       apply_no_weight="true"
       apply_with_weight="true"
       only_selected="false"
       uniform="false" />
    <inkscape:path-effect
       effect="bspline"
       id="path-effect14"
       is_visible="true"
       lpeversion="1.3"
       weight="33.333333"
       steps="2"
       helper_size="0"
       apply_no_weight="true"
       apply_with_weight="true"
       only_selected="false"
       uniform="false" />
    <inkscape:path-effect
       effect="bspline"
       id="path-effect13"
       is_visible="true"
       lpeversion="1.3"
       weight="33.333333"
       steps="2"
       helper_size="0"
       apply_no_weight="true"
       apply_with_weight="true"
       only_selected="false"
       uniform="false" />
    <inkscape:path-effect
       effect="bspline"
       id="path-effect12"
       is_visible="true"
       lpeversion="1.3"
       weight="33.333333"
       steps="2"
       helper_size="0"
       apply_no_weight="true"
       apply_with_weight="true"
       only_selected="false"
       uniform="false" />
    <inkscape:path-effect
       effect="bspline"
       id="path-effect9"
       is_visible="true"
       lpeversion="1.3"
       weight="33.333333"
       steps="2"
       helper_size="0"
       apply_no_weight="true"
       apply_with_weight="true"
       only_selected="false"
       uniform="false" />
    <inkscape:path-effect
       effect="bspline"
       id="path-effect6"
       is_visible="true"
       lpeversion="1.3"
       weight="33.333333"
       steps="2"
       helper_size="0"
       apply_no_weight="true"
       apply_with_weight="true"
       only_selected="false"
       uniform="false" />
    <inkscape:path-effect
       effect="bspline"
       id="path-effect3"
       is_visible="true"
       lpeversion="1.3"
       weight="33.333333"
       steps="2"
       helper_size="0"
       apply_no_weight="true"
       apply_with_weight="true"
       only_selected="false"
       uniform="false" />
    <inkscape:path-effect
       effect="copy_rotate"
       starting_point="0,0"
       origin="12.591473,5.1569785"
       id="path-effect37-1"
       is_visible="true"
       lpeversion="1.2"
       lpesatellites=""
       method="normal"
       num_copies="5"
       starting_angle="0.5"
       rotation_angle="72"
       gap="-0.01"
       copies_to_360="true"
       mirror_copies="false"
       split_items="false"
       link_styles="false" />
  </defs>
  <g
     inkscape:label="Layer 1"
     inkscape:groupmode="layer"
     id="g2"
     transform="matrix(-1.0624885,0,0,1.0624885,8.7312013,-0.26453461)">
    <rect
       style="fill:#bdca31;fill-opacity:0;stroke:none;stroke-width:0.497953"
       id="rect2"
       width="7.9687138"
       height="7.9687138"
       x="0.24897645"
       y="0.24897645"
       inkscape:export-filename="Dandelion.svg"
       inkscape:export-xdpi="44.636486"
       inkscape:export-ydpi="44.636486" />
    <rect
       style="fill:#86a336;fill-opacity:0.919231;stroke:none;stroke-width:0.210584"
       id="rect3"
       width="0.3471972"
       height="1.3581307"
       x="3.8451488"
       y="6.3561406" />
    <path
       style="fill:#bdca31;fill-opacity:0.921569;stroke:none;stroke-width:0.0941187;stroke-dasharray:none"
       d="M 4.1969813,7.2775441 4.4578671,6.9552734 4.0895576,6.9245812"
       id="path26" />
    <ellipse
       style="fill:#6e9202;fill-opacity:1;stroke:none;stroke-width:0.0941187;stroke-dasharray:none"
       id="path30"
       cx="-6.0308161"
       cy="4.5283041"
       transform="matrix(-0.93387829,-0.35759103,-0.35759103,0.93387829,0,0)"
       rx="0.16819693"
       ry="0.32011673" />
  </g>
  <g
     inkscape:groupmode="layer"
     id="layer1"
     inkscape:label="Layer 2">
    <rect
       style="fill:#bdca31;fill-opacity:0;stroke:none;stroke-width:0.497953"
       id="rect27"
       width="7.9687138"
       height="7.9687138"
       x="-7.7197375"
       y="0.24897645"
       inkscape:export-filename="Dandelion.svg"
       inkscape:export-xdpi="44.636486"
       inkscape:export-ydpi="44.636486"
       transform="matrix(-1.0624885,0,0,1.0624885,8.7312013,-0.26453461)" />
    <rect
       style="fill:#86a336;fill-opacity:0.919231;stroke:none;stroke-width:0.210584"
       id="rect28"
       width="0.3471972"
       height="1.3581307"
       x="-4.1235647"
       y="6.3561406"
       transform="matrix(-1.0624885,0,0,1.0624885,8.7312013,-0.26453461)" />
    <path
       style="fill:#bdca31;fill-opacity:0.921569;stroke:none;stroke-width:0.0941187;stroke-dasharray:none"
       d="M -3.7717324,7.2775441 -3.5108466,6.9552734 -3.8791561,6.9245812"
       id="path28"
       transform="matrix(-1.0624885,0,0,1.0624885,8.7312013,-0.26453461)" />
    <path
       style="fill:#bdca31;fill-opacity:0.92156863;stroke:none;stroke-width:0.0941187;stroke-dasharray:none"
       d="m -4.066111,6.8466365 -0.2170281,-0.260434 0.2821368,-0.07596"
       id="path29"
       transform="matrix(-1.0624885,0,0,1.0624885,8.7312013,-0.26453461)" />
    <ellipse
       style="fill:#6e9202;fill-opacity:1;stroke:none;stroke-width:0.102492;stroke-dasharray:none"
       id="ellipse30"
       cx="1.4041964"
       cy="7.1602774"
       transform="matrix(0.99223494,-0.37993635,0.37993635,0.99223494,8.7312013,-0.26453461)"
       rx="0.18316031"
       ry="0.34859541" />
  </g>
  <g
     inkscape:label="Layer 1"
     inkscape:groupmode="layer"
     id="g16"
     transform="matrix(-1.0624885,0,0,1.0624885,51.064535,-0.26453461)">
    <rect
       style="fill:#457b47;fill-opacity:0;stroke:none;stroke-width:0.0941633;stroke-dasharray:none"
       id="rect25"
       width="15.937428"
       height="15.937428"
       x="-32.123833"
       y="16.186403"
       transform="scale(-1,1)"
       inkscape:export-filename="Dandelion_Full.svg"
       inkscape:export-xdpi="44.636486"
       inkscape:export-ydpi="44.636486" />
    <rect
       style="fill:#457b47;fill-opacity:1;stroke:none;stroke-width:0.0941187;stroke-dasharray:none"
       id="rect23"
       width="0.39900166"
       height="6.6295662"
       x="-33.193829"
       y="7.2770724"
       transform="matrix(-0.8660254,-0.5,-0.5,0.8660254,0,0)" />
    <path
       style="fill:#457b47;fill-opacity:1;stroke:none;stroke-width:0.083673;stroke-dasharray:none"
       d="m 23.074395,26.306305 c 0,0 0.368507,-0.515511 -0.04129,-1.340328 -0.16921,-0.250368 -0.77821,-2.261752 -1.34425,-1.784478 -0.196382,0.278763 -1.021409,0.418664 -0.620892,1.014037 0.400513,0.595374 0.685414,0.899913 0.892897,1.215776 0.207483,0.315863 0.709673,0.857897 0.709673,0.857897 z"
       id="path24"
       sodipodi:nodetypes="csssscc" />
  </g>
  <g
     inkscape:groupmode="layer"
     id="g32"
     inkscape:label="Layer 2"
     transform="translate(8.4666664)">
    <rect
       style="fill:#bdca31;fill-opacity:0;stroke:none;stroke-width:0.497953"
       id="rect30"
       width="7.9687138"
       height="7.9687138"
       x="-7.7197375"
       y="0.24897645"
       inkscape:export-filename="Dandelion.svg"
       inkscape:export-xdpi="44.636486"
       inkscape:export-ydpi="44.636486"
       transform="matrix(-1.0624885,0,0,1.0624885,8.7312013,-0.26453461)" />
    <rect
       style="fill:#86a336;fill-opacity:0.919231;stroke:none;stroke-width:0.296104"
       id="rect31"
       width="0.36889303"
       height="2.5272927"
       x="-13.112441"
       y="5.4044971"
       transform="scale(-1,1)" />
    <path
       style="fill:#bdca31;fill-opacity:0.921569;stroke:none;stroke-width:0.0941187;stroke-dasharray:none"
       d="M -3.7717324,7.2775441 -3.5108466,6.9552734 -3.8791561,6.9245812"
       id="path31"
       transform="matrix(-1.0624885,0,0,1.0624885,8.7312013,-0.26453461)" />
    <path
       style="fill:#bdca31;fill-opacity:0.921569;stroke:none;stroke-width:0.0941187;stroke-dasharray:none"
       d="m -4.066111,6.8466365 -0.2170281,-0.260434 0.2821368,-0.07596"
       id="path32"
       transform="matrix(-1.0624885,0,0,1.0624885,8.7312013,-0.26453461)" />
    <path
       style="fill:#e11800;fill-opacity:1;stroke:none;stroke-width:0.1;stroke-dasharray:none"
       d="M 4.0082558,5.9376942 C 4.0313143,6.052989 4.423318,6.3181676 4.423318,6.3181676 L 4.40026,5.9492236 4.584732,5.7993401 c 0,0 0.046118,-0.2075312 -0.1729425,-0.1844723 -0.2190607,0.023059 -0.3458853,0.069177 -0.4035327,0.1037657 -0.057647,0.034588 0,0.2190607 0,0.2190607 z"
       id="path33" />
    <path
       style="fill:#b9c831;fill-opacity:0.99215686;stroke:none;stroke-width:0.1;stroke-dasharray:none"
       d="M 12.77083,6.3019519 12.493642,6.0573742 12.77083,6.065526"
       id="path34" />
    <path
       style="fill:#b9c831;fill-opacity:0.992157;stroke:none;stroke-width:0.1;stroke-dasharray:none"
       d="m 13.05617,6.0247638 0.146747,-0.1141362 -0.187509,-0.03261"
       id="path35" />
    <path
       style="fill:#e11800;fill-opacity:0.992157;stroke:#f04816;stroke-width:0.01;stroke-dasharray:none"
       d="m 12.590935,5.095371 c 4.98e-4,0.057066 0.232248,0.4545355 0.232248,0.4545355 0,0 0.236273,-0.018368 0.243074,-0.1733323 0.0068,-0.1549646 0.0043,-0.4484467 0.0043,-0.4484467 0,0 -0.156316,-0.1616939 -0.188926,-0.1614093 -0.03261,2.845e-4 -0.155177,-0.031257 -0.195298,0.042469 -0.04012,0.073726 -0.09534,0.2861835 -0.09534,0.2861835 z m -0.05822,0.043081 c 0.05443,0.017161 0.504057,-0.080421 0.504057,-0.080421 0,0 0.05554,-0.2303858 -0.08973,-0.2847404 -0.145264,-0.054399 -0.425173,-0.1426546 -0.425173,-0.1426546 0,0 -0.202084,0.098699 -0.211891,0.1298008 -0.0098,0.031101 -0.07768,0.1379238 -0.01996,0.1988639 0.05772,0.060937 0.242716,0.1791057 0.242716,0.1791057 z m 0.02298,0.068684 c 0.03314,-0.04646 0.07928,-0.5042385 0.07928,-0.5042385 0,0 -0.201946,-0.1240177 -0.298534,-0.00265 -0.09663,0.1213439 -0.267058,0.3602813 -0.267058,0.3602813 0,0 0.03142,0.2226933 0.05797,0.2416306 0.02655,0.018937 0.107169,0.1164986 0.182963,0.080436 0.07579,-0.036065 0.245343,-0.1754901 0.245343,-0.1754901 z m 0.07242,-6.32e-4 c -0.03394,-0.045875 -0.455061,-0.2312154 -0.455061,-0.2312154 0,0 -0.180353,0.1537387 -0.09477,0.2831045 0.08555,0.1293941 0.260123,0.3653208 0.260123,0.3653208 0,0 0.221503,0.038933 0.247718,0.019535 0.02621,-0.019397 0.143913,-0.065924 0.133037,-0.1491518 -0.01088,-0.083226 -0.09109,-0.2875646 -0.09109,-0.2875646 z m 0.02178,-0.069075 c -0.05412,0.018108 -0.360521,0.3613396 -0.360521,0.3613396 0,0 0.09048,0.2190334 0.239963,0.1776151 0.149497,-0.041374 0.427823,-0.1345007 0.427823,-0.1345007 0,0 0.105476,-0.1986315 0.09513,-0.2295573 -0.01035,-0.030925 -0.01822,-0.1572417 -0.10074,-0.1726166 -0.08251,-0.015372 -0.301638,-0.00223 -0.301638,-0.00223 z"
       id="path36"
       inkscape:path-effect="#path-effect37"
       inkscape:original-d="m 12.591473,5.0953687 c 0,0.057068 0.228272,0.4565449 0.228272,0.4565449 0,0 0.236425,-0.016306 0.244578,-0.1712045 0.0082,-0.154899 0.0082,-0.4483923 0.0082,-0.4483923 0,0 -0.154899,-0.1630518 -0.18751,-0.1630518 -0.03261,0 -0.154899,-0.03261 -0.195662,0.040763 -0.04076,0.073373 -0.09783,0.2853407 -0.09783,0.2853407 z"
       transform="translate(0.317951,0.10190737)" />
    <rect
       style="fill:#bdca31;fill-opacity:0;stroke:none;stroke-width:0.529069"
       id="rect42"
       width="8.4666672"
       height="8.4666672"
       x="-25.4"
       y="9.2932053e-09"
       inkscape:export-filename="Dandelion.svg"
       inkscape:export-xdpi="44.636486"
       inkscape:export-ydpi="44.636486"
       transform="scale(-1,1)" />
    <rect
       style="fill:#86a336;fill-opacity:0.919231;stroke:none;stroke-width:0.296104"
       id="rect43"
       width="0.36889303"
       height="2.5272927"
       x="-21.579107"
       y="5.4044971"
       transform="scale(-1,1)" />
    <path
       style="fill:#bdca31;fill-opacity:0.921569;stroke:none;stroke-width:0.1;stroke-dasharray:none"
       d="m 21.20529,7.4677723 -0.277188,-0.3424089 0.391325,-0.03261"
       id="path43" />
    <path
       style="fill:#bdca31;fill-opacity:0.921569;stroke:none;stroke-width:0.1;stroke-dasharray:none"
       d="m 21.518064,7.0099379 0.23059,-0.2767081 -0.299767,-0.080707"
       id="path44" />
    <path
       style="fill:#b9c831;fill-opacity:0.992157;stroke:none;stroke-width:0.1;stroke-dasharray:none"
       d="m 21.237497,6.3019519 -0.277188,-0.2445777 0.277188,0.00815"
       id="path45" />
    <path
       style="fill:#b9c831;fill-opacity:0.992157;stroke:none;stroke-width:0.1;stroke-dasharray:none"
       d="m 21.522837,6.0247638 0.146747,-0.1141362 -0.187509,-0.03261"
       id="path46" />
    <path
       style="fill:#e11800;fill-opacity:0.992157;stroke:#f04816;stroke-width:0.01;stroke-dasharray:none"
       d="m 12.590935,5.095371 c 4.98e-4,0.057066 0.232248,0.4545355 0.232248,0.4545355 0,0 0.236273,-0.018368 0.243074,-0.1733323 0.0068,-0.1549646 0.0043,-0.4484467 0.0043,-0.4484467 0,0 -0.156316,-0.1616939 -0.188926,-0.1614093 -0.03261,2.845e-4 -0.155177,-0.031257 -0.195298,0.042469 -0.04012,0.073726 -0.09534,0.2861835 -0.09534,0.2861835 z m -0.04796,0.023616 c 0.04493,0.035191 0.500174,0.10182 0.500174,0.10182 0,0 0.132953,-0.1961789 0.01604,-0.2981144 C 12.942296,4.82072 12.711246,4.6397393 12.711246,4.6397393 c 0,0 -0.223879,0.021398 -0.243988,0.047071 -0.02011,0.025672 -0.12119,0.1018344 -0.08856,0.1791697 0.03263,0.077333 0.164306,0.2529694 0.164306,0.2529694 z m -0.01144,0.052224 c 0.05552,-0.013184 0.391459,-0.3275681 0.391459,-0.3275681 0,0 -0.07048,-0.2262624 -0.223075,-0.1984102 -0.152604,0.027807 -0.438158,0.09561 -0.438158,0.09561 0,0 -0.122856,0.1883771 -0.115322,0.2201059 0.0075,0.031728 0.0041,0.1582424 0.08486,0.1809521 0.0808,0.022707 0.300223,0.029264 0.300223,0.029264 z m 0.0337,0.041507 c 0.02431,-0.051631 -0.01203,-0.5102907 -0.01203,-0.5102907 0,0 -0.220845,-0.085966 -0.294209,0.050701 -0.07341,0.1366471 -0.198436,0.4021766 -0.198436,0.4021766 0,0 0.07068,0.2135041 0.100183,0.2273965 0.0295,0.013892 0.126249,0.095491 0.194385,0.046474 0.06813,-0.049018 0.210065,-0.2164777 0.210065,-0.2164777 z m 0.05346,-4.666e-4 c -0.02521,-0.051198 -0.406463,-0.3087539 -0.406463,-0.3087539 0,0 -0.204906,0.1190648 -0.143797,0.2616331 0.06107,0.1425896 0.190712,0.4058966 0.190712,0.4058966 0,0 0.210992,0.077858 0.240249,0.063453 0.02926,-0.014405 0.153372,-0.039167 0.157531,-0.1230002 0.0042,-0.083831 -0.03827,-0.2992073 -0.03827,-0.2992073 z m 0.03297,-0.042088 c -0.05574,-0.012213 -0.494819,0.1252808 -0.494819,0.1252808 0,0 -0.03467,0.2344372 0.114898,0.2755503 0.149555,0.041159 0.436249,0.1039681 0.436249,0.1039681 0,0 0.192423,-0.1164165 0.199402,-0.148272 0.007,-0.031854 0.065,-0.1443317 0.0021,-0.1998525 -0.06295,-0.055518 -0.257794,-0.1566278 -0.257794,-0.1566278 z m -0.01235,-0.052017 c -0.0443,0.035969 -0.210566,0.4649766 -0.210566,0.4649766 0,0 0.161675,0.1732736 0.287071,0.081973 0.125426,-0.091265 0.353283,-0.2762505 0.353283,-0.2762505 0,0 0.02896,-0.2230272 0.0084,-0.2483451 -0.02055,-0.025317 -0.07231,-0.1408112 -0.154971,-0.1262119 -0.08265,0.014602 -0.283188,0.1038957 -0.283188,0.1038957 z"
       id="path47"
       inkscape:path-effect="#path-effect48"
       inkscape:original-d="m 12.591473,5.0953687 c 0,0.057068 0.228272,0.4565449 0.228272,0.4565449 0,0 0.236425,-0.016306 0.244578,-0.1712045 0.0082,-0.154899 0.0082,-0.4483923 0.0082,-0.4483923 0,0 -0.154899,-0.1630518 -0.18751,-0.1630518 -0.03261,0 -0.154899,-0.03261 -0.195662,0.040763 -0.04076,0.073373 -0.09783,0.2853407 -0.09783,0.2853407 z"
       transform="matrix(1.5987285,0,0,1.5987285,1.226287,-3.3251502)" />
    <path
       style="fill:#e11800;fill-opacity:0.992157;stroke:#f04816;stroke-width:0.01;stroke-dasharray:none"
       d="m 12.590935,5.095371 c 4.98e-4,0.057066 0.232248,0.4545355 0.232248,0.4545355 0,0 0.236273,-0.018368 0.243074,-0.1733323 0.0068,-0.1549646 0.0043,-0.4484467 0.0043,-0.4484467 0,0 -0.156316,-0.1616939 -0.188926,-0.1614093 -0.03261,2.845e-4 -0.155177,-0.031257 -0.195298,0.042469 -0.04012,0.073726 -0.09534,0.2861835 -0.09534,0.2861835 z m -0.04796,0.023616 c 0.04493,0.035191 0.500174,0.10182 0.500174,0.10182 0,0 0.132953,-0.1961789 0.01604,-0.2981144 C 12.942296,4.82072 12.711246,4.6397393 12.711246,4.6397393 c 0,0 -0.223879,0.021398 -0.243988,0.047071 -0.02011,0.025672 -0.12119,0.1018344 -0.08856,0.1791697 0.03263,0.077333 0.164306,0.2529694 0.164306,0.2529694 z m -0.01144,0.052224 c 0.05552,-0.013184 0.391459,-0.3275681 0.391459,-0.3275681 0,0 -0.07048,-0.2262624 -0.223075,-0.1984102 -0.152604,0.027807 -0.438158,0.09561 -0.438158,0.09561 0,0 -0.122856,0.1883771 -0.115322,0.2201059 0.0075,0.031728 0.0041,0.1582424 0.08486,0.1809521 0.0808,0.022707 0.300223,0.029264 0.300223,0.029264 z m 0.0337,0.041507 c 0.02431,-0.051631 -0.01203,-0.5102907 -0.01203,-0.5102907 0,0 -0.220845,-0.085966 -0.294209,0.050701 -0.07341,0.1366471 -0.198436,0.4021766 -0.198436,0.4021766 0,0 0.07068,0.2135041 0.100183,0.2273965 0.0295,0.013892 0.126249,0.095491 0.194385,0.046474 0.06813,-0.049018 0.210065,-0.2164777 0.210065,-0.2164777 z m 0.05346,-4.666e-4 c -0.02521,-0.051198 -0.406463,-0.3087539 -0.406463,-0.3087539 0,0 -0.204906,0.1190648 -0.143797,0.2616331 0.06107,0.1425896 0.190712,0.4058966 0.190712,0.4058966 0,0 0.210992,0.077858 0.240249,0.063453 0.02926,-0.014405 0.153372,-0.039167 0.157531,-0.1230002 0.0042,-0.083831 -0.03827,-0.2992073 -0.03827,-0.2992073 z m 0.03297,-0.042088 c -0.05574,-0.012213 -0.494819,0.1252808 -0.494819,0.1252808 0,0 -0.03467,0.2344372 0.114898,0.2755503 0.149555,0.041159 0.436249,0.1039681 0.436249,0.1039681 0,0 0.192423,-0.1164165 0.199402,-0.148272 0.007,-0.031854 0.065,-0.1443317 0.0021,-0.1998525 -0.06295,-0.055518 -0.257794,-0.1566278 -0.257794,-0.1566278 z m -0.01235,-0.052017 c -0.0443,0.035969 -0.210566,0.4649766 -0.210566,0.4649766 0,0 0.161675,0.1732736 0.287071,0.081973 0.125426,-0.091265 0.353283,-0.2762505 0.353283,-0.2762505 0,0 0.02896,-0.2230272 0.0084,-0.2483451 -0.02055,-0.025317 -0.07231,-0.1408112 -0.154971,-0.1262119 -0.08265,0.014602 -0.283188,0.1038957 -0.283188,0.1038957 z"
       id="path48"
       inkscape:path-effect="#path-effect50"
       inkscape:original-d="m 12.591473,5.0953687 c 0,0.057068 0.228272,0.4565449 0.228272,0.4565449 0,0 0.236425,-0.016306 0.244578,-0.1712045 0.0082,-0.154899 0.0082,-0.4483923 0.0082,-0.4483923 0,0 -0.154899,-0.1630518 -0.18751,-0.1630518 -0.03261,0 -0.154899,-0.03261 -0.195662,0.040763 -0.04076,0.073373 -0.09783,0.2853407 -0.09783,0.2853407 z"
       transform="matrix(3.418769,-1.9738272,1.9738272,3.418769,-37.928404,29.686172)" />
    <path
       style="fill:#bdca31;fill-opacity:0.921569;stroke:none;stroke-width:0.01;stroke-dasharray:none"
       d="M 16.980573,25.901125 16.435091,25.575921 16.899477,25.40195"
       id="path50" />
    <path
       style="fill:#bdca31;fill-opacity:0.921569;stroke:none;stroke-width:0.01;stroke-dasharray:none"
       d="m 17.586906,26.266508 0.536743,0.179628 -0.332344,0.304843"
       id="path51" />
    <path
       style="fill:#bdca31;fill-opacity:0.921569;stroke:none;stroke-width:0.01;stroke-dasharray:none"
       d="m 18.151776,27.766657 -0.19652,0.377046 0.408487,-0.0099"
       id="path52" />
    <path
       style="fill:#bdca31;fill-opacity:0.921569;stroke:none;stroke-width:0.01;stroke-dasharray:none"
       d="m 16.6249,24.600264 0.384029,-0.05227 -0.188366,0.391168"
       id="path53" />
  </g>
</svg>
