<?xml version="1.0" encoding="UTF-8" standalone="no"?>
<!-- Created with Inkscape (http://www.inkscape.org/) -->

<svg
   width="127.99999"
   height="32.000004"
   viewBox="0 0 33.866664 8.4666677"
   version="1.1"
   id="svg1"
   inkscape:version="1.3.2 (091e20e, 2023-11-25, custom)"
   sodipodi:docname="Cactus_Scene.svg"
   xmlns:inkscape="http://www.inkscape.org/namespaces/inkscape"
   xmlns:sodipodi="http://sodipodi.sourceforge.net/DTD/sodipodi-0.dtd"
   xmlns="http://www.w3.org/2000/svg"
   xmlns:svg="http://www.w3.org/2000/svg">
  <sodipodi:namedview
     id="namedview1"
     pagecolor="#ffffff"
     bordercolor="#000000"
     borderopacity="0.25"
     inkscape:showpageshadow="2"
     inkscape:pageopacity="0.0"
     inkscape:pagecheckerboard="0"
     inkscape:deskcolor="#d1d1d1"
     inkscape:document-units="mm"
     showgrid="true"
     inkscape:zoom="4"
     inkscape:cx="19.75"
     inkscape:cy="69.625001"
     inkscape:window-width="1920"
     inkscape:window-height="1001"
     inkscape:window-x="-7"
     inkscape:window-y="-7"
     inkscape:window-maximized="1"
     inkscape:current-layer="g1113">
    <inkscape:grid
       id="grid1"
       units="px"
       originx="4.9484431e-08"
       originy="-9.2932053e-09"
       spacingx="8.4666666"
       spacingy="8.4666666"
       empcolor="#0099e5"
       empopacity="0.30196078"
       color="#0099e5"
       opacity="0.14901961"
       empspacing="5"
       dotted="false"
       gridanglex="30"
       gridanglez="30"
       visible="true" />
  </sodipodi:namedview>
  <defs
     id="defs1">
    <inkscape:path-effect
       effect="bspline"
       id="path-effect1119"
       is_visible="true"
       lpeversion="1.3"
       weight="33.333333"
       steps="2"
       helper_size="0"
       apply_no_weight="true"
       apply_with_weight="true"
       only_selected="false"
       uniform="false" />
    <inkscape:path-effect
       effect="bspline"
       id="path-effect1115"
       is_visible="true"
       lpeversion="1.3"
       weight="33.333333"
       steps="2"
       helper_size="0"
       apply_no_weight="true"
       apply_with_weight="true"
       only_selected="false"
       uniform="false" />
    <inkscape:path-effect
       effect="bspline"
       id="path-effect1111"
       is_visible="true"
       lpeversion="1.3"
       weight="33.333333"
       steps="2"
       helper_size="0"
       apply_no_weight="true"
       apply_with_weight="true"
       only_selected="false"
       uniform="false" />
    <inkscape:path-effect
       effect="bspline"
       id="path-effect1107"
       is_visible="true"
       lpeversion="1.3"
       weight="33.333333"
       steps="2"
       helper_size="0"
       apply_no_weight="true"
       apply_with_weight="true"
       only_selected="false"
       uniform="false" />
    <inkscape:path-effect
       effect="bspline"
       id="path-effect1103"
       is_visible="true"
       lpeversion="1.3"
       weight="33.333333"
       steps="2"
       helper_size="0"
       apply_no_weight="true"
       apply_with_weight="true"
       only_selected="false"
       uniform="false" />
    <inkscape:path-effect
       effect="bspline"
       id="path-effect1101"
       is_visible="true"
       lpeversion="1.3"
       weight="33.333333"
       steps="2"
       helper_size="0"
       apply_no_weight="true"
       apply_with_weight="true"
       only_selected="false"
       uniform="false" />
  </defs>
  <g
     inkscape:label="Layer 1 copy 1"
     inkscape:groupmode="layer"
     id="g75"
     transform="matrix(-1.0624885,0,0,1.0624885,8.7312013,-0.26453462)">
    <rect
       style="fill:#bdca31;fill-opacity:0;stroke:none;stroke-width:0.497953"
       id="rect74"
       width="7.9687138"
       height="7.9687138"
       x="0.24897645"
       y="0.24897645"
       inkscape:export-filename="Chrysanthemum.svg"
       inkscape:export-xdpi="44.636486"
       inkscape:export-ydpi="44.636486" />
    <path
       id="path136"
       style="fill:#a0bf43;stroke-width:0.517634"
       d="m 3.8153872,6.8671258 c 0,0.1922786 0.1794309,0.3481513 0.4007702,0.3481513 0.2213393,0 0.4007703,-0.1558726 0.4007703,-0.3481513 0,-0.1922787 -0.031574,-0.8587263 -0.2529133,-0.8587263 -0.067744,0 -0.2171643,-0.082274 -0.2731141,0.02506 C 3.9640468,6.2768145 3.8153872,6.733697 3.8153872,6.8671258 Z"
       sodipodi:nodetypes="ssssss" />
  </g>
  <g
     inkscape:label="Layer 1 copy 1"
     inkscape:groupmode="layer"
     id="g1099"
     transform="matrix(-1.0624885,0,0,1.0624885,17.197868,-0.26453462)">
    <rect
       style="fill:#bdca31;fill-opacity:0;stroke:none;stroke-width:0.497953"
       id="rect1099"
       width="7.9687138"
       height="7.9687138"
       x="0.24897645"
       y="0.24897645"
       inkscape:export-filename="Chrysanthemum.svg"
       inkscape:export-xdpi="44.636486"
       inkscape:export-ydpi="44.636486" />
    <path
       id="path1099"
       style="fill:#a0bf43;stroke-width:0.517634"
       d="m 3.8153872,6.8671258 c 0,0.1922786 0.1794309,0.3481513 0.4007702,0.3481513 0.2213393,0 0.4007703,-0.1558726 0.4007703,-0.3481513 0,-0.1922787 -0.031574,-1.8548155 -0.2529133,-1.8548155 -0.067744,0 -0.2171643,-0.082274 -0.2731141,0.02506 C 3.9640468,5.2807253 3.8153872,6.733697 3.8153872,6.8671258 Z"
       sodipodi:nodetypes="ssssss" />
    <path
       style="fill:#a0bf43;fill-opacity:1;stroke:none;stroke-width:0.376474;stroke-dasharray:none"
       d="m 4.0383482,5.6305849 c 0.0055,0.069701 -0.020176,0.1834226 -0.058695,0.251289 -0.038519,0.067866 -0.089876,0.089877 -0.1375666,0.080705 C 3.7943958,5.9534076 3.7503754,5.9130555 3.7210277,5.8451882 3.69168,5.777321 3.6770066,5.6819435 3.7008521,5.6195797 3.7246977,5.5572158 3.78706,5.5278688 3.8365844,5.515029 c 0.049524,-0.01284 0.086209,-0.00917 0.122893,0.0055 0.036684,0.014674 0.073368,0.040353 0.078871,0.1100537 z"
       id="path1100"
       inkscape:path-effect="#path-effect1101"
       inkscape:original-d="M 4.0695302,5.586564 C 4.043851,5.7002858 4.0181721,5.8140075 3.9924929,5.9277293 3.9411336,5.9497404 3.8897765,5.9717507 3.8384181,5.9937613 3.7943959,5.9534075 3.7503755,5.9130554 3.7063541,5.8727026 3.6916792,5.7773211 3.6770066,5.6819435 3.6623329,5.586564 3.7246976,5.5572157 3.78706,5.5278687 3.8494236,5.4985212 c 0.036685,0.00367 0.073369,0.00734 0.1100532,0.011004 0.036685,0.02568 0.073369,0.051358 0.1100534,0.077039 z" />
    <path
       style="fill:#a0bf43;fill-opacity:1;stroke:none;stroke-width:0.376474;stroke-dasharray:none"
       d="m 4.5244175,5.4930186 c 0.062364,-0.0055 0.1504062,-0.0055 0.2017645,0.022011 0.051358,0.027514 0.066032,0.082539 0.05686,0.1265612 -0.00917,0.044022 -0.042187,0.077037 -0.078872,0.1027162 -0.036685,0.025679 -0.077037,0.044021 -0.1302297,0.031181 -0.053193,-0.01284 -0.1192242,-0.056861 -0.1522401,-0.1045507 -0.033016,-0.04769 -0.033016,-0.099048 -0.014674,-0.1302295 0.018342,-0.031182 0.055027,-0.042187 0.1173906,-0.04769 z"
       id="path1101"
       inkscape:path-effect="#path-effect1103"
       inkscape:original-d="m 4.4987383,5.4875159 c 0.088043,0 0.1760854,0 0.264128,0 0.014675,0.055028 0.029348,0.1100534 0.044021,0.1650801 -0.033017,0.033017 -0.066032,0.066032 -0.099048,0.099048 -0.040354,0.018343 -0.080706,0.036684 -0.1210587,0.055027 -0.066033,-0.044022 -0.132064,-0.088043 -0.198096,-0.132064 0,-0.051359 0,-0.1027165 0,-0.1540748 0.036685,-0.011004 0.073369,-0.022011 0.1100537,-0.033016 z" />
  </g>
  <g
     inkscape:label="Layer 1 copy 1"
     inkscape:groupmode="layer"
     id="g1105"
     transform="matrix(-1.0624885,0,0,1.0624885,25.664535,-0.26453462)">
    <rect
       style="fill:#bdca31;fill-opacity:0;stroke:none;stroke-width:0.497953"
       id="rect1103"
       width="7.9687138"
       height="7.9687138"
       x="0.24897645"
       y="0.24897645"
       inkscape:export-filename="Chrysanthemum.svg"
       inkscape:export-xdpi="44.636486"
       inkscape:export-ydpi="44.636486" />
    <path
       id="path1103"
       style="fill:#a0bf43;stroke-width:0.517634"
       d="m 3.8153872,6.8671258 c 0,0.1922786 0.1794309,0.3481513 0.4007702,0.3481513 0.2213393,0 0.4007703,-0.1558726 0.4007703,-0.3481513 0,-0.1922787 0.028955,-3.37096 -0.192384,-3.37096 -0.067744,0 -0.3437256,-0.087777 -0.3996754,0.019557 C 3.8980148,3.7590782 3.8153872,6.733697 3.8153872,6.8671258 Z"
       sodipodi:nodetypes="ssssss" />
    <path
       style="fill:#a0bf43;fill-opacity:1;stroke:none;stroke-width:0.376474;stroke-dasharray:none"
       d="m 4.0383482,5.6305849 c 0.0055,0.069701 -0.020176,0.1834226 -0.058695,0.251289 -0.038519,0.067866 -0.089876,0.089877 -0.1375666,0.080705 C 3.7943958,5.9534076 3.7503756,5.9130556 3.6313545,5.8478608 3.5123335,5.782666 3.3183142,5.6926301 3.1485011,5.4921548 2.978688,5.2916796 2.8330809,4.9807636 2.8456994,4.8208364 2.8583178,4.6609092 3.0291601,4.6519739 3.1518906,4.764504 3.2746211,4.8770341 3.3492377,5.1110282 3.457475,5.2536095 c 0.1082373,0.1425814 0.2500918,0.1937461 0.3393628,0.2211629 0.089271,0.027417 0.1259552,0.031085 0.1626396,0.045759 0.036684,0.014674 0.073368,0.040353 0.078871,0.1100537 z"
       id="path1104"
       inkscape:path-effect="#path-effect1107"
       inkscape:original-d="M 4.0695302,5.586564 C 4.043851,5.7002858 4.0181721,5.8140075 3.9924929,5.9277293 3.9411336,5.9497404 3.8897765,5.9717507 3.8384181,5.9937613 3.7943959,5.9534075 3.7503756,5.9130556 3.7063541,5.8727026 3.5123335,5.782666 3.3183142,5.6926301 3.1242944,5.6025939 2.978688,5.2916796 2.8330809,4.9807636 2.6874723,4.6698446 c 0.1708453,-0.00894 0.3416878,-0.017871 0.5125317,-0.026806 0.074617,0.2339955 0.1492337,0.4679896 0.2238513,0.7019866 0.1418569,0.051166 0.2837115,0.1023304 0.4255683,0.153496 0.036685,0.00367 0.073369,0.00734 0.1100532,0.011004 0.036685,0.02568 0.073369,0.051358 0.1100534,0.077039 z"
       sodipodi:nodetypes="cccsccccccc" />
    <path
       style="fill:#a0bf43;fill-opacity:1;stroke:none;stroke-width:0.376474;stroke-dasharray:none"
       d="M 4.6183903,5.4800486 C 4.7747269,5.4615758 5.0507121,5.4356361 5.1874679,5.3013981 5.3242238,5.1671601 5.3217505,4.9246231 5.4270713,4.8354067 5.532392,4.7461902 5.7455016,4.8102948 5.8006411,4.9743529 5.8557807,5.1384109 5.7529457,5.4024168 5.6762093,5.5367093 5.599473,5.6710017 5.5488359,5.6755817 5.3917895,5.6897855 5.234743,5.7039893 4.9712932,5.7278165 4.8193897,5.7489014 4.6674862,5.7699864 4.6271336,5.7883286 4.5739406,5.7754888 4.5207476,5.762649 4.4547164,5.7186282 4.4217005,5.6709381 4.3886846,5.623248 4.3886846,5.5718905 4.4070269,5.5407086 c 0.018342,-0.031182 0.055027,-0.042187 0.2113634,-0.06066 z"
       id="path1105"
       inkscape:path-effect="#path-effect1111"
       inkscape:original-d="M 4.4987383,5.4875159 C 4.7747269,5.4615759 5.0507121,5.4356361 5.326697,5.4096964 5.3242238,5.1671601 5.3217506,4.9246231 5.3192773,4.6820841 5.532392,4.7461902 5.7455016,4.8102948 5.9586172,4.8744012 5.8557807,5.1384109 5.7529457,5.4024168 5.650111,5.6664217 5.599473,5.6710017 5.5488359,5.6755817 5.498198,5.6801617 5.234743,5.703989 4.9712932,5.7278163 4.7078393,5.751644 4.6674862,5.7699864 4.6271333,5.788328 4.5867806,5.806671 4.5207476,5.762649 4.4547166,5.718628 4.3886846,5.674607 c 0,-0.051359 0,-0.1027165 0,-0.1540748 0.036685,-0.011004 0.073369,-0.022011 0.1100537,-0.033016 z"
       sodipodi:nodetypes="ccccccccccc" />
  </g>
  <g
     inkscape:label="Layer 1 copy 1"
     inkscape:groupmode="layer"
     id="g1113"
     transform="matrix(-1.0624885,0,0,1.0624885,34.131201,-0.26453462)">
    <rect
       style="fill:#bdca31;fill-opacity:0;stroke:none;stroke-width:0.497953"
       id="rect1111"
       width="7.9687138"
       height="7.9687138"
       x="0.24897645"
       y="0.24897645"
       inkscape:export-filename="Chrysanthemum.svg"
       inkscape:export-xdpi="44.636486"
       inkscape:export-ydpi="44.636486" />
    <path
       id="path1111"
       style="fill:#a0bf43;stroke-width:0.517634"
       d="m 3.8153872,6.8671258 c 0,0.1922786 0.1794309,0.3481513 0.4007702,0.3481513 0.2213393,0 0.4007703,-0.1558726 0.4007703,-0.3481513 0,-0.1922787 0.028955,-4.3670492 -0.192384,-4.3670492 -0.067744,0 -0.3437256,-0.087777 -0.3996754,0.019557 C 3.8980148,2.762989 3.8153872,6.733697 3.8153872,6.8671258 Z"
       sodipodi:nodetypes="ssssss" />
    <path
       style="fill:#a0bf43;fill-opacity:1;stroke:none;stroke-width:0.376474;stroke-dasharray:none"
       d="m 4.0383482,5.6305849 c 0.0055,0.069701 -0.020176,0.1834226 -0.058695,0.251289 -0.038519,0.067866 -0.089876,0.089877 -0.1375666,0.080705 C 3.7943958,5.9534076 3.7503756,5.9130556 3.6313545,5.8478608 3.5123335,5.782666 3.3183142,5.6926301 3.1485011,5.2431342 2.978688,4.7936384 2.8330811,3.9846796 2.8456996,3.5757275 2.858318,3.1667754 3.0291601,3.1578401 3.1518906,3.5193924 c 0.1227305,0.3615523 0.1973471,1.093588 0.3055844,1.4851932 0.1082373,0.3916053 0.2500918,0.44277 0.3393628,0.4701868 0.089271,0.027417 0.1259552,0.031085 0.1626396,0.045759 0.036684,0.014674 0.073368,0.040353 0.078871,0.1100537 z"
       id="path1112"
       inkscape:path-effect="#path-effect1115"
       inkscape:original-d="M 4.0695302,5.586564 C 4.043851,5.7002858 4.0181721,5.8140075 3.9924929,5.9277293 3.9411336,5.9497404 3.8897765,5.9717507 3.8384181,5.9937613 3.7943959,5.9534075 3.7503756,5.9130556 3.7063541,5.8727026 3.5123335,5.782666 3.3183142,5.6926301 3.1242944,5.6025939 2.978688,4.7936384 2.8330811,3.9846796 2.6874723,3.1757108 c 0.1708455,-0.00894 0.3416878,-0.017871 0.5125317,-0.026806 0.074617,0.7320399 0.1492337,1.4640756 0.2238513,2.1961204 0.1418569,0.051166 0.2837115,0.1023304 0.4255683,0.153496 0.036685,0.00367 0.073369,0.00734 0.1100532,0.011004 0.036685,0.02568 0.073369,0.051358 0.1100534,0.077039 z"
       sodipodi:nodetypes="cccsccccccc" />
    <path
       style="fill:#a0bf43;fill-opacity:1;stroke:none;stroke-width:0.376474;stroke-dasharray:none"
       d="M 4.6183903,5.4800486 C 4.7747269,5.4615758 5.0507121,5.4356361 5.1874679,5.052377 5.3242238,4.6691178 5.3217505,3.9285372 5.4270713,3.5902968 5.532392,3.2520564 5.7455016,3.316161 5.8006411,3.7292441 5.8557807,4.1423271 5.7529457,4.9043758 5.6762093,5.2876888 5.599473,5.6710017 5.5488359,5.6755817 5.3917895,5.6897855 5.234743,5.7039893 4.9712932,5.7278165 4.8193897,5.7489014 4.6674862,5.7699864 4.6271336,5.7883286 4.5739406,5.7754888 4.5207476,5.762649 4.4547164,5.7186282 4.4217005,5.6709381 4.3886846,5.623248 4.3886846,5.5718905 4.4070269,5.5407086 c 0.018342,-0.031182 0.055027,-0.042187 0.2113634,-0.06066 z"
       id="path1113"
       inkscape:path-effect="#path-effect1119"
       inkscape:original-d="M 4.4987383,5.4875159 C 4.7747269,5.4615759 5.0507121,5.4356361 5.326697,5.4096964 5.3242238,4.6691178 5.3217505,3.9285372 5.3192773,3.1879503 5.532392,3.2520564 5.7455016,3.316161 5.9586172,3.3802674 5.8557807,4.1423271 5.7529457,4.9043758 5.650111,5.6664217 5.599473,5.6710017 5.5488359,5.6755817 5.498198,5.6801617 5.234743,5.703989 4.9712932,5.7278163 4.7078393,5.751644 4.6674862,5.7699864 4.6271333,5.788328 4.5867806,5.806671 4.5207476,5.762649 4.4547166,5.718628 4.3886846,5.674607 c 0,-0.051359 0,-0.1027165 0,-0.1540748 0.036685,-0.011004 0.073369,-0.022011 0.1100537,-0.033016 z"
       sodipodi:nodetypes="ccccccccccc" />
  </g>
</svg>
