<?xml version="1.0" encoding="UTF-8" standalone="no"?>
<!-- Created with Inkscape (http://www.inkscape.org/) -->

<svg
   width="64.000008"
   height="64.000008"
   viewBox="0 0 16.933335 16.933335"
   version="1.1"
   id="svg1"
   inkscape:version="1.3.2 (091e20e, 2023-11-25, custom)"
   sodipodi:docname="Spider_Plant_Scene.svg"
   xmlns:inkscape="http://www.inkscape.org/namespaces/inkscape"
   xmlns:sodipodi="http://sodipodi.sourceforge.net/DTD/sodipodi-0.dtd"
   xmlns="http://www.w3.org/2000/svg"
   xmlns:svg="http://www.w3.org/2000/svg">
  <sodipodi:namedview
     id="namedview1"
     pagecolor="#ffffff"
     bordercolor="#000000"
     borderopacity="0.25"
     inkscape:showpageshadow="2"
     inkscape:pageopacity="0.0"
     inkscape:pagecheckerboard="0"
     inkscape:deskcolor="#d1d1d1"
     inkscape:document-units="mm"
     showgrid="true"
     inkscape:zoom="4.0567374"
     inkscape:cx="64.583919"
     inkscape:cy="55.833045"
     inkscape:window-width="1920"
     inkscape:window-height="1001"
     inkscape:window-x="-7"
     inkscape:window-y="-7"
     inkscape:window-maximized="1"
     inkscape:current-layer="g32">
    <inkscape:grid
       id="grid1"
       units="px"
       originx="-16.945568"
       originy="-11.801772"
       spacingx="8.4666666"
       spacingy="8.4666666"
       empcolor="#0099e5"
       empopacity="0.30196078"
       color="#0099e5"
       opacity="0.14901961"
       empspacing="5"
       dotted="false"
       gridanglex="30"
       gridanglez="30"
       visible="true" />
  </sodipodi:namedview>
  <defs
     id="defs1">
    <inkscape:path-effect
       effect="bspline"
       id="path-effect167"
       is_visible="true"
       lpeversion="1.3"
       weight="33.333333"
       steps="2"
       helper_size="0"
       apply_no_weight="true"
       apply_with_weight="true"
       only_selected="false"
       uniform="false" />
    <inkscape:path-effect
       effect="bspline"
       id="path-effect165"
       is_visible="true"
       lpeversion="1.3"
       weight="33.333333"
       steps="2"
       helper_size="0"
       apply_no_weight="true"
       apply_with_weight="true"
       only_selected="false"
       uniform="false" />
    <inkscape:path-effect
       effect="bspline"
       id="path-effect163"
       is_visible="true"
       lpeversion="1.3"
       weight="33.333333"
       steps="2"
       helper_size="0"
       apply_no_weight="true"
       apply_with_weight="true"
       only_selected="false"
       uniform="false" />
    <inkscape:path-effect
       effect="bspline"
       id="path-effect162"
       is_visible="true"
       lpeversion="1.3"
       weight="33.333333"
       steps="2"
       helper_size="0"
       apply_no_weight="true"
       apply_with_weight="true"
       only_selected="false"
       uniform="false" />
    <inkscape:path-effect
       effect="bspline"
       id="path-effect161"
       is_visible="true"
       lpeversion="1.3"
       weight="33.333333"
       steps="2"
       helper_size="0"
       apply_no_weight="true"
       apply_with_weight="true"
       only_selected="false"
       uniform="false" />
    <inkscape:path-effect
       effect="bspline"
       id="path-effect160"
       is_visible="true"
       lpeversion="1.3"
       weight="33.333333"
       steps="2"
       helper_size="0"
       apply_no_weight="true"
       apply_with_weight="true"
       only_selected="false"
       uniform="false" />
    <inkscape:path-effect
       effect="bspline"
       id="path-effect159"
       is_visible="true"
       lpeversion="1.3"
       weight="33.333333"
       steps="2"
       helper_size="0"
       apply_no_weight="true"
       apply_with_weight="true"
       only_selected="false"
       uniform="false" />
    <inkscape:path-effect
       effect="bspline"
       id="path-effect158"
       is_visible="true"
       lpeversion="1.3"
       weight="33.333333"
       steps="2"
       helper_size="0"
       apply_no_weight="true"
       apply_with_weight="true"
       only_selected="false"
       uniform="false" />
    <inkscape:path-effect
       effect="bspline"
       id="path-effect157"
       is_visible="true"
       lpeversion="1.3"
       weight="33.333333"
       steps="2"
       helper_size="0"
       apply_no_weight="true"
       apply_with_weight="true"
       only_selected="false"
       uniform="false" />
    <inkscape:path-effect
       effect="bspline"
       id="path-effect156"
       is_visible="true"
       lpeversion="1.3"
       weight="33.333333"
       steps="2"
       helper_size="0"
       apply_no_weight="true"
       apply_with_weight="true"
       only_selected="false"
       uniform="false" />
    <inkscape:path-effect
       effect="bspline"
       id="path-effect155"
       is_visible="true"
       lpeversion="1.3"
       weight="33.333333"
       steps="2"
       helper_size="0"
       apply_no_weight="true"
       apply_with_weight="true"
       only_selected="false"
       uniform="false" />
  </defs>
  <g
     inkscape:groupmode="layer"
     id="g32"
     inkscape:label="Layer 2"
     transform="translate(-8.478902,-11.801772)">
    <rect
       style="fill:none;fill-opacity:0.921569;stroke:none;stroke-width:4.36359"
       id="rect225"
       width="15.937428"
       height="15.937428"
       x="7.7312517"
       y="11.356647"
       transform="matrix(1.0624885,0,0,1.0624885,0.26453492,-0.26453461)"
       inkscape:export-filename="Spider_Plant_Full.png"
       inkscape:export-xdpi="44.636486"
       inkscape:export-ydpi="44.636486" />
    <path
       style="fill:none;stroke:#bdca31;stroke-width:0.2;stroke-dasharray:none"
       d="m 16.369354,24.134438 c -0.07795,-0.576857 -0.155907,-1.153713 -0.405363,-1.769553 -0.249456,-0.615841 -0.670397,-1.270638 -1.200488,-1.77734 -0.530091,-0.506702 -1.169298,-0.865282 -1.816319,-1.05237 -0.647022,-0.187088 -1.301819,-0.202678 -1.769543,-0.07795 -0.467725,0.124729 -0.748352,0.389765 -1.028985,0.654808"
       id="path154"
       inkscape:path-effect="#path-effect155"
       inkscape:original-d="m 16.369354,24.134438 c -0.07795,-0.576857 -0.155907,-1.153713 -0.233861,-1.73057 -0.420958,-0.654824 -0.841899,-1.309621 -1.262848,-1.964431 -0.639233,-0.358594 -1.27844,-0.717173 -1.917659,-1.07576 -0.654824,-0.01559 -1.309621,-0.03118 -1.964431,-0.04677 -0.280639,0.265047 -0.561266,0.530084 -0.841899,0.795127" />
    <path
       style="fill:none;stroke:#bdca31;stroke-width:0.2;stroke-dasharray:none"
       d="m 16.229038,23.877191 c -0.05457,-0.701583 -0.109135,-1.403165 -0.245556,-2.022902 -0.136421,-0.619736 -0.354687,-1.157605 -0.647017,-1.57466 -0.29233,-0.417055 -0.658704,-0.713273 -1.036783,-0.974419 -0.378079,-0.261147 -0.767839,-0.487208 -1.157607,-0.713274"
       id="path155"
       inkscape:path-effect="#path-effect156"
       inkscape:original-d="m 16.229038,23.877191 c -0.05457,-0.701583 -0.109135,-1.403165 -0.163703,-2.104748 -0.218275,-0.53789 -0.43654,-1.075759 -0.65481,-1.613639 -0.36639,-0.29623 -0.732764,-0.592448 -1.099146,-0.888671 -0.389776,-0.22607 -0.779536,-0.452131 -1.169304,-0.678197" />
    <path
       style="fill:none;stroke:#bdca31;stroke-width:0.2;stroke-dasharray:none"
       d="m 20.765937,20.322506 c 0,-0.05457 0,-0.109132 -0.109135,-0.311812 -0.109135,-0.202681 -0.327401,-0.553466 -0.647012,-0.767842 -0.319611,-0.214375 -0.740553,-0.292328 -1.110837,-0.276738 -0.370283,0.01559 -0.689886,0.124723 -1.040681,0.424845 -0.350795,0.300123 -0.73276,0.791221 -1.009499,1.547376 -0.276739,0.756155 -0.448237,1.777348 -0.619735,2.79854 0,0 0,0 0,0 0.02339,-0.07016 0.04677,-0.140316 0.08965,-0.444341 0.04287,-0.304025 0.105237,-0.841894 0.171498,-1.442144 0.06626,-0.600249 0.136419,-1.262841 0.268942,-1.847498 0.132523,-0.584657 0.327403,-1.091346 0.615835,-1.407059 0.288432,-0.315713 0.670397,-0.440437 0.873079,-0.506699 0.202682,-0.06626 0.22606,-0.07406 0.249451,-0.08185"
       id="path156"
       inkscape:path-effect="#path-effect157"
       inkscape:original-d="m 20.765937,20.322506 c 0,-0.05457 0,-0.109132 0,-0.163702 -0.218268,-0.350792 -0.436536,-0.701576 -0.65481,-1.052374 -0.420949,-0.07795 -0.841891,-0.155901 -1.262848,-0.233861 -0.319609,0.109135 -0.639212,0.218268 -0.958829,0.327405 -0.381973,0.491108 -0.763938,0.982206 -1.145918,1.473324 -0.171499,1.021192 -0.514494,3.063577 -0.514494,3.063577 0,0 0,0 0,0 0,0 0.04677,-0.140317 0.07016,-0.210475 0.06236,-0.537891 0.124726,-1.07576 0.187089,-1.61364 0.07016,-0.662619 0.140316,-1.325211 0.210475,-1.987817 0.194887,-0.506708 0.389768,-1.013397 0.584652,-1.520095 0.38198,-0.124728 0.763945,-0.249452 1.145918,-0.374178 0.02339,-0.0078 0.04677,-0.01559 0.07016,-0.02339" />
    <path
       style="fill:none;stroke:#bdca31;stroke-width:0.2;stroke-dasharray:none"
       d="m 19.760337,21.865986 c -0.319611,-0.10134 -0.639214,-0.202677 -0.896465,-0.241655 -0.25725,-0.03898 -0.452129,-0.01559 -0.74056,0.132521 -0.288431,0.148112 -0.670395,0.420944 -0.986111,0.80292 -0.315716,0.381976 -0.565168,0.873083 -0.662609,0.951034 -0.09744,0.07795 -0.04288,-0.257244 0.05847,-0.572959 0.101341,-0.315715 0.24945,-0.611933 0.459927,-0.923751 0.210477,-0.311817 0.48331,-0.639216 0.744457,-0.876976 0.261147,-0.23776 0.510593,-0.385868 0.799025,-0.479413 0.288432,-0.09354 0.61583,-0.132521 0.943235,-0.171498"
       id="path157"
       inkscape:path-effect="#path-effect158"
       inkscape:original-d="m 19.760337,21.865986 c -0.319611,-0.10134 -0.639214,-0.202678 -0.958831,-0.304019 -0.194884,0.02339 -0.389763,0.04677 -0.584653,0.07016 -0.381971,0.272838 -0.763936,0.54567 -1.145917,0.818513 -0.249451,0.491108 -0.498903,0.982215 -0.748354,1.473323 0.05457,-0.335207 0.109135,-0.670401 0.163703,-1.005601 0.148115,-0.29623 0.296224,-0.592448 0.444335,-0.888671 0.272843,-0.327412 0.545676,-0.654811 0.818513,-0.982216 0.249457,-0.148115 0.498903,-0.296223 0.748355,-0.444335 0.327412,-0.03898 0.65481,-0.07795 0.982215,-0.116931" />
    <path
       style="fill:none;stroke:#bdca31;stroke-width:0.2;stroke-dasharray:none"
       d="M 16.182265,23.807033 C 16.080925,23.432855 15.979586,23.058678 15.889938,22.78194 15.80029,22.505202 15.722339,22.325914 15.601509,22.150517 15.48068,21.97512 15.31698,21.803625 15.184458,21.702286 c -0.132522,-0.10134 -0.23386,-0.132519 -0.393667,-0.152008 -0.159807,-0.01949 -0.378072,-0.02728 -0.514492,-0.02339 -0.136421,0.0039 -0.190986,0.01949 -0.245553,0.03508"
       id="path158"
       inkscape:path-effect="#path-effect159"
       inkscape:original-d="m 16.182265,23.807033 c -0.101339,-0.374178 -0.202679,-0.748355 -0.304019,-1.122532 -0.07796,-0.179297 -0.155907,-0.358587 -0.233861,-0.53788 -0.163705,-0.171501 -0.327405,-0.342996 -0.491107,-0.514494 -0.101342,-0.03118 -0.20268,-0.06236 -0.304019,-0.09354 -0.218275,-0.0078 -0.43654,-0.01559 -0.654811,-0.02339 -0.05457,0.01559 -0.109135,0.03118 -0.163702,0.04677" />
    <path
       style="fill:none;stroke:#bdca31;stroke-width:0.2;stroke-dasharray:none"
       d="m 16.299196,23.783647 c -0.194884,-0.381973 -0.389768,-0.763946 -0.724974,-1.025092 -0.335205,-0.261146 -0.810712,-0.401459 -1.071855,-0.471618 -0.261144,-0.07016 -0.307924,-0.07016 -0.354691,-0.07016"
       id="path159"
       inkscape:path-effect="#path-effect160"
       inkscape:original-d="m 16.299196,23.783647 c -0.194884,-0.381973 -0.389768,-0.763946 -0.584652,-1.145918 -0.475527,-0.14032 -0.951034,-0.280633 -1.426551,-0.42095 -0.04677,0 -0.09355,0 -0.140317,0" />
    <path
       style="fill:none;stroke:#bdca31;stroke-width:0.2;stroke-dasharray:none"
       d="m 16.322582,23.64333 c 0.21827,-0.257247 0.43654,-0.514494 0.775643,-0.662606 0.339103,-0.148112 0.79902,-0.187088 1.08745,-0.190986 0.28843,-0.0039 0.405358,0.02728 0.522287,0.05846"
       id="path160"
       inkscape:path-effect="#path-effect161"
       inkscape:original-d="m 16.322582,23.64333 c 0.21827,-0.257247 0.43654,-0.514494 0.65481,-0.77174 0.459936,-0.03898 0.919853,-0.07795 1.379778,-0.116931 0.116935,0.03118 0.233863,0.06236 0.350792,0.09354" />
    <path
       style="fill:none;stroke:#bdca31;stroke-width:0.2;stroke-dasharray:none"
       d="m 16.299196,23.947349 c -0.187089,-0.311814 -0.374178,-0.623629 -0.650917,-0.760047 -0.276739,-0.136418 -0.643113,-0.09744 -0.84969,-0.06626 -0.206577,0.03118 -0.253345,0.05457 -0.300122,0.07795"
       id="path161"
       inkscape:path-effect="#path-effect162"
       inkscape:original-d="m 16.299196,23.947349 c -0.187089,-0.311814 -0.374178,-0.623629 -0.561266,-0.935443 -0.36639,0.03898 -0.732764,0.07795 -1.099146,0.11693 -0.04677,0.02339 -0.09354,0.04677 -0.140317,0.07016" />
    <path
       style="fill:none;stroke:#bdca31;stroke-width:0.2;stroke-dasharray:none"
       d="m 16.252424,23.783647 c 0.04677,-0.771741 0.09354,-1.543482 0.08965,-2.15932 -0.0039,-0.615838 -0.05846,-1.075755 -0.05457,-1.59805 0.0039,-0.522295 0.06626,-1.106936 0.288431,-1.613639 0.222171,-0.506702 0.604136,-0.935438 0.993909,-1.157606 0.389772,-0.222167 0.787326,-0.237757 1.184892,-0.253347"
       id="path162"
       inkscape:path-effect="#path-effect163"
       inkscape:original-d="m 16.252424,23.783647 c 0.04677,-0.771741 0.09354,-1.543482 0.140316,-2.315223 -0.05457,-0.459935 -0.109135,-0.919852 -0.163702,-1.379779 0.06236,-0.584663 0.124725,-1.169304 0.187088,-1.753956 0.381981,-0.428753 0.763946,-0.857489 1.145918,-1.286234 0.397572,-0.01559 0.795126,-0.03118 1.192692,-0.04677" />
    <path
       style="fill:none;stroke:#bdca31;stroke-width:0.2;stroke-dasharray:none"
       d="m 16.416126,23.853805 c -0.0078,-0.132521 -0.01559,-0.265042 -0.05457,-0.674305 -0.03898,-0.409264 -0.109136,-1.095242 -0.171499,-1.629228 -0.06236,-0.533986 -0.11693,-0.915951 -0.249453,-1.426554 -0.132523,-0.510602 -0.342994,-1.149809 -0.600244,-1.547374 -0.25725,-0.397565 -0.561263,-0.553469 -0.795126,-0.658707 -0.233862,-0.105238 -0.397561,-0.159804 -0.561264,-0.214372"
       id="path163"
       inkscape:path-effect="#path-effect165"
       inkscape:original-d="m 16.416126,23.853805 c -0.0078,-0.132521 -0.01559,-0.265042 -0.02339,-0.397564 -0.07016,-0.686005 -0.140317,-1.371983 -0.210475,-2.057975 -0.05457,-0.38198 -0.109135,-0.763945 -0.163702,-1.145918 -0.210479,-0.639232 -0.42095,-1.278439 -0.631425,-1.917659 -0.304025,-0.15591 -0.608038,-0.311814 -0.912057,-0.467721 -0.163706,-0.05457 -0.327405,-0.109136 -0.491108,-0.163703" />
    <path
       style="fill:none;stroke:#bdca31;stroke-width:0.2;stroke-dasharray:none"
       d="m 16.322582,23.64333 c 0.3352,-0.834103 0.670401,-1.668207 0.997809,-2.225578 0.327408,-0.557372 0.647012,-0.837999 1.021193,-1.064066 0.374181,-0.226067 0.80292,-0.397562 1.231664,-0.56906"
       id="path165"
       inkscape:path-effect="#path-effect167"
       inkscape:original-d="m 16.322582,23.64333 c 0.3352,-0.834103 0.670401,-1.668207 1.005601,-2.502311 0.319617,-0.280638 0.63922,-0.561266 0.95883,-0.841899 0.428752,-0.171501 0.857491,-0.342996 1.286235,-0.514494" />
  </g>
</svg>
