<?xml version="1.0" encoding="UTF-8" standalone="no"?>
<!-- Created with Inkscape (http://www.inkscape.org/) -->

<svg
   width="127.99999"
   height="32.000004"
   viewBox="0 0 33.866664 8.4666677"
   version="1.1"
   id="svg1"
   xmlns="http://www.w3.org/2000/svg"
   xmlns:svg="http://www.w3.org/2000/svg">
  <defs
     id="defs1" />
  <g
     id="g75"
     transform="matrix(-1.0624885,0,0,1.0624885,8.7312013,-0.26453462)">
    <rect
       style="fill:#bdca31;fill-opacity:0;stroke:none;stroke-width:0.497953"
       id="rect74"
       width="7.9687138"
       height="7.9687138"
       x="0.24897645"
       y="0.24897645" />
    <path
       style="fill:none;stroke:#457b47;stroke-width:0.2;stroke-dasharray:none"
       d="m 4.2994791,7.2098957 c 0.00551,-0.082682 0.011024,-0.1653646 0.011024,-0.2508036 -1e-7,-0.085439 -0.00551,-0.1736323 -0.019293,-0.2563155 -0.013781,-0.082683 -0.035829,-0.1598514 -0.057877,-0.2370215"
       id="path1"
       transform="matrix(-0.94118667,0,0,0.94118667,8.2176902,0.24897645)" />
    <ellipse
       style="fill:#a0bf43;stroke:none;stroke-width:0.4;stroke-dasharray:none"
       id="path136"
       cx="4.2126627"
       cy="6.3541341"
       rx="0.26871744"
       ry="0.31005859"
       transform="matrix(-0.94118667,0,0,0.94118667,8.2176902,0.24897645)" />
    <path
       style="fill:#e11800;stroke:none;stroke-width:0.188237;stroke-dasharray:none"
       d="m 4.1182029,6.4779961 c -0.015591,0.040353 -0.031182,0.080706 -0.045398,0.1132638 -0.014215,0.032558 -0.027055,0.057319 -0.048607,0.075661 -0.021552,0.018342 -0.051816,0.030264 -0.082081,0.042187"
       id="path527"
       transform="translate(-0.00550267,-0.02201067)" />
    <path
       style="fill:#e11800;stroke:none;stroke-width:0.188237;stroke-dasharray:none"
       d="m 4.2874109,6.535774 c 0.00138,0.016508 0.00413,0.049524 0.010551,0.090794 0.00642,0.041271 0.016509,0.090794 0.035769,0.1210587 0.01926,0.030265 0.04769,0.04127 0.055943,0.03806 0.00825,-0.00321 -0.00367,-0.020635 -0.018343,-0.0509 -0.014674,-0.030265 -0.032099,-0.073368 -0.045856,-0.1082188 -0.013757,-0.034851 -0.023845,-0.061446 -0.029806,-0.077955 -0.00596,-0.016509 -0.00779,-0.022928 -0.00871,-0.026137 -9.165e-4,-0.00321 -9.245e-4,-0.00321 4.522e-4,0.013297 z"
       id="path528"
       transform="translate(-0.01925934,-0.01100534)" />
  </g>
  <g
     id="g539"
     transform="matrix(-1.0624885,0,0,1.0624885,17.197868,-0.26453462)">
    <rect
       style="fill:#bdca31;fill-opacity:0;stroke:none;stroke-width:0.497953"
       id="rect537"
       width="7.9687138"
       height="7.9687138"
       x="0.24897645"
       y="0.24897645" />
    <path
       style="fill:none;stroke:#457b47;stroke-width:0.2;stroke-dasharray:none"
       d="M 4.2994791,7.2098957 C 4.3049911,7.1272138 4.310503,7.0445322 4.3117557,6.9791254 4.3130084,6.9137187 4.3100017,6.8655895 4.2851971,6.6016953 4.2603925,6.3378012 4.2137901,5.8581435 4.1794644,5.579728 4.1451387,5.3013126 4.1230901,5.2241427 4.1010414,5.1469726"
       id="path537"
       transform="matrix(-0.94118667,0,0,0.94118667,8.2176902,0.24897645)" />
    <ellipse
       style="fill:#a0bf43;stroke:none;stroke-width:0.425938;stroke-dasharray:none"
       id="ellipse537"
       cx="-4.4066501"
       cy="4.9250927"
       rx="0.28614232"
       ry="0.33016425"
       transform="scale(-1,1)" />
    <path
       style="fill:#e11800;stroke:none;stroke-width:0.188237;stroke-dasharray:none"
       d="m 4.1182029,6.4779961 c -0.015591,0.040353 -0.031182,0.080706 -0.045398,0.1132638 -0.014215,0.032558 -0.027055,0.057319 -0.048607,0.075661 -0.021552,0.018342 -0.051816,0.030264 -0.082081,0.042187"
       id="path538"
       transform="matrix(1.1313852,0,0,1.1313852,-0.41111727,-2.1476632)" />
    <path
       style="fill:#e11800;stroke:none;stroke-width:0.188237;stroke-dasharray:none"
       d="m 4.2874109,6.535774 c 0.00138,0.016508 0.00413,0.049524 0.010551,0.090794 0.00642,0.041271 0.016509,0.090794 0.035769,0.1210587 0.01926,0.030265 0.04769,0.04127 0.055943,0.03806 0.00825,-0.00321 -0.00367,-0.020635 -0.018343,-0.0509 -0.014674,-0.030265 -0.032099,-0.073368 -0.045856,-0.1082188 -0.013757,-0.034851 -0.023845,-0.061446 -0.029806,-0.077955 -0.00596,-0.016509 -0.00779,-0.022928 -0.00871,-0.026137 -9.165e-4,-0.00321 -9.245e-4,-0.00321 4.522e-4,0.013297 z"
       id="path539"
       transform="matrix(1.1313852,0,0,1.1313852,-0.42668137,-2.135212)" />
    <path
       style="fill:#e11800;stroke:none;stroke-width:0.188237;stroke-dasharray:none"
       d="m 4.5102019,4.7781303 c 4.584e-4,-0.00504 0.00137,-0.015132 0.014215,-0.090337 0.01284,-0.075205 0.037601,-0.21552 0.065573,-0.2888888 0.027972,-0.073369 0.059154,-0.079789 0.085292,-0.06328 0.026137,0.016509 0.047231,0.055944 0.039894,0.1261037 -0.00734,0.07016 -0.043104,0.1710403 -0.071993,0.231111 -0.028889,0.060071 -0.0509,0.07933 -0.071993,0.087583 -0.021093,0.00825 -0.04127,0.0055 -0.051358,0.00412 -0.010088,-0.00138 -0.010087,-0.00137 -0.00963,-0.00641 z"
       id="path581" />
    <path
       style="fill:#e11800;stroke:none;stroke-width:0.188237;stroke-dasharray:none"
       d="m 4.516619,4.7483232 c -0.00413,-0.00184 -0.01238,-0.0055 -0.024302,-0.048606 -0.011922,-0.043105 -0.027513,-0.1256429 -0.041269,-0.1935098 -0.013757,-0.067867 -0.025679,-0.121058 -0.036685,-0.1549915 -0.011006,-0.033933 -0.021094,-0.048607 -0.041729,-0.029805 -0.020635,0.018801 -0.051817,0.071076 -0.06007,0.1320649 -0.00825,0.060989 0.00642,0.1306874 0.025679,0.1838802 0.01926,0.053193 0.043104,0.089876 0.065574,0.1095954 0.02247,0.019719 0.043561,0.022472 0.060987,0.023849 0.017425,0.00138 0.031182,0.00138 0.039896,-0.00229 0.00871,-0.00367 0.012381,-0.011006 0.014214,-0.014674 0.00183,-0.00367 0.00184,-0.00367 -0.00229,-0.00551 z"
       id="path583"
       transform="translate(0.05502668,-0.02751334)" />
    <path
       style="fill:#e11800;stroke:none;stroke-width:0.188237;stroke-dasharray:none"
       d="M 4.4950698,4.6749553 C 4.4583854,4.6162602 4.3850166,4.49887 4.3428293,4.4034896 4.300642,4.3081092 4.2896369,4.2347419 4.2566201,4.1971408 c -0.033017,-0.037601 -0.088042,-0.039434 -0.1201408,0.013759 -0.032099,0.053194 -0.04127,0.1614111 -0.03485,0.2402831 0.00642,0.078872 0.02843,0.1283949 0.07337,0.1678311 0.044939,0.039436 0.1128038,0.068783 0.1632457,0.090794 0.050442,0.022011 0.083457,0.036684 0.1128044,0.039435 0.029348,0.00275 0.055026,-0.00642 0.067866,-0.011005 0.012839,-0.00459 0.012839,-0.00459 -0.023845,-0.063283 z"
       id="path585" />
    <path
       style="fill:#e11800;stroke:none;stroke-width:0.188237;stroke-dasharray:none"
       d="m 4.5922836,4.7336504 c 0,0 0,0 0,0 0.051358,-0.078872 0.1027165,-0.157743 0.1513238,-0.2283612 0.048607,-0.070618 0.094462,-0.1329806 0.1384837,-0.1485713 0.044022,-0.015591 0.086208,0.015591 0.083456,0.086209 -0.00275,0.070619 -0.05044,0.1806694 -0.1008825,0.2485361 -0.050442,0.067867 -0.103633,0.093545 -0.1430693,0.1082185 -0.039436,0.014674 -0.065115,0.018341 -0.092628,0.01559 -0.027513,-0.00275 -0.056861,-0.011922 -0.063281,-0.026596 -0.00642,-0.014673 0.010088,-0.03485 0.018342,-0.044938 0.00825,-0.010088 0.00825,-0.010087 0.00825,-0.010087 z"
       id="path587" />
  </g>
  <g
     id="g597"
     transform="matrix(-1.0624885,0,0,1.0624885,25.664535,-0.26453462)">
    <rect
       style="fill:#bdca31;fill-opacity:0;stroke:none;stroke-width:0.497953"
       id="rect591"
       width="7.9687138"
       height="7.9687138"
       x="0.24897645"
       y="0.24897645" />
    <path
       style="fill:none;stroke:#457b47;stroke-width:0.2;stroke-dasharray:none"
       d="M 4.2994791,7.2098957 C 4.3049911,7.1272138 4.310503,7.0445322 4.3117557,6.9791254 4.3130084,6.9137187 4.3100018,6.8655901 4.2884724,6.6354071 4.266943,6.4052241 4.226891,5.9929889 4.2035897,5.753159 4.1802884,5.5133291 4.1737379,5.4459061 4.1621944,5.3074636 4.1506509,5.169021 4.1341144,4.9595593 4.1175779,4.7500976"
       id="path591"
       transform="matrix(-0.94118667,0,0,0.94118667,8.2176902,0.24897645)" />
    <ellipse
       style="fill:#a0bf43;stroke:none;stroke-width:0.49405;stroke-dasharray:none"
       id="ellipse591"
       cx="-4.4455352"
       cy="4.4515786"
       rx="0.33189917"
       ry="0.38296062"
       transform="scale(-1,1)" />
    <path
       style="fill:#e11800;stroke:none;stroke-width:0.188237;stroke-dasharray:none"
       d="m 4.1182029,6.4779961 c -0.015591,0.040353 -0.031182,0.080706 -0.045398,0.1132638 -0.014215,0.032558 -0.027055,0.057319 -0.048607,0.075661 -0.021552,0.018342 -0.051816,0.030264 -0.082081,0.042187"
       id="path592"
       transform="matrix(1.3123043,0,0,1.3123043,-1.1426383,-3.7521771)" />
    <path
       style="fill:#e11800;stroke:none;stroke-width:0.188237;stroke-dasharray:none"
       d="m 4.2874109,6.535774 c 0.00138,0.016508 0.00413,0.049524 0.010551,0.090794 0.00642,0.041271 0.016509,0.090794 0.035769,0.1210587 0.01926,0.030265 0.04769,0.04127 0.055943,0.03806 0.00825,-0.00321 -0.00367,-0.020635 -0.018343,-0.0509 -0.014674,-0.030265 -0.032099,-0.073368 -0.045856,-0.1082188 -0.013757,-0.034851 -0.023845,-0.061446 -0.029806,-0.077955 -0.00596,-0.016509 -0.00779,-0.022928 -0.00871,-0.026137 -9.165e-4,-0.00321 -9.245e-4,-0.00321 4.522e-4,0.013297 z"
       id="path593"
       transform="matrix(1.3123043,0,0,1.3123043,-1.1606913,-3.7377348)" />
    <path
       style="fill:#e11800;stroke:none;stroke-width:0.188237;stroke-dasharray:none"
       d="m 4.5102019,4.7781303 c 4.584e-4,-0.00504 0.00137,-0.015132 0.014215,-0.090337 0.01284,-0.075205 0.037601,-0.21552 0.065573,-0.2888888 0.027972,-0.073369 0.059154,-0.079789 0.085292,-0.06328 0.026137,0.016509 0.047231,0.055944 0.039894,0.1261037 -0.00734,0.07016 -0.043104,0.1710403 -0.071993,0.231111 -0.028889,0.060071 -0.0509,0.07933 -0.071993,0.087583 -0.021093,0.00825 -0.04127,0.0055 -0.051358,0.00412 -0.010088,-0.00138 -0.010087,-0.00137 -0.00963,-0.00641 z"
       id="path594"
       transform="matrix(1.1599094,0,0,1.1599094,-0.66577957,-1.2610824)" />
    <path
       style="fill:#e11800;stroke:none;stroke-width:0.188237;stroke-dasharray:none"
       d="m 4.516619,4.7483232 c -0.00413,-0.00184 -0.01238,-0.0055 -0.024302,-0.048606 -0.011922,-0.043105 -0.027513,-0.1256429 -0.041269,-0.1935098 -0.013757,-0.067867 -0.025679,-0.121058 -0.036685,-0.1549915 -0.011006,-0.033933 -0.021094,-0.048607 -0.041729,-0.029805 -0.020635,0.018801 -0.051817,0.071076 -0.06007,0.1320649 -0.00825,0.060989 0.00642,0.1306874 0.025679,0.1838802 0.01926,0.053193 0.043104,0.089876 0.065574,0.1095954 0.02247,0.019719 0.043561,0.022472 0.060987,0.023849 0.017425,0.00138 0.031182,0.00138 0.039896,-0.00229 0.00871,-0.00367 0.012381,-0.011006 0.014214,-0.014674 0.00183,-0.00367 0.00184,-0.00367 -0.00229,-0.00551 z"
       id="path595"
       transform="matrix(1.1599094,0,0,1.1599094,-0.6019536,-1.2929953)" />
    <path
       style="fill:#e11800;stroke:none;stroke-width:0.188237;stroke-dasharray:none"
       d="M 4.4950698,4.6749553 C 4.4583854,4.6162602 4.3850166,4.49887 4.3428293,4.4034896 4.300642,4.3081092 4.2896369,4.2347419 4.2566201,4.1971408 c -0.033017,-0.037601 -0.088042,-0.039434 -0.1201408,0.013759 -0.032099,0.053194 -0.04127,0.1614111 -0.03485,0.2402831 0.00642,0.078872 0.02843,0.1283949 0.07337,0.1678311 0.044939,0.039436 0.1128038,0.068783 0.1632457,0.090794 0.050442,0.022011 0.083457,0.036684 0.1128044,0.039435 0.029348,0.00275 0.055026,-0.00642 0.067866,-0.011005 0.012839,-0.00459 0.012839,-0.00459 -0.023845,-0.063283 z"
       id="path596"
       transform="matrix(1.1599094,0,0,1.1599094,-0.66577957,-1.2610824)" />
    <path
       style="fill:#e11800;stroke:none;stroke-width:0.188237;stroke-dasharray:none"
       d="m 4.5922836,4.7336504 c 0,0 0,0 0,0 0.051358,-0.078872 0.1027165,-0.157743 0.1513238,-0.2283612 0.048607,-0.070618 0.094462,-0.1329806 0.1384837,-0.1485713 0.044022,-0.015591 0.086208,0.015591 0.083456,0.086209 -0.00275,0.070619 -0.05044,0.1806694 -0.1008825,0.2485361 -0.050442,0.067867 -0.103633,0.093545 -0.1430693,0.1082185 -0.039436,0.014674 -0.065115,0.018341 -0.092628,0.01559 -0.027513,-0.00275 -0.056861,-0.011922 -0.063281,-0.026596 -0.00642,-0.014673 0.010088,-0.03485 0.018342,-0.044938 0.00825,-0.010088 0.00825,-0.010087 0.00825,-0.010087 z"
       id="path597"
       transform="matrix(1.1599094,0,0,1.1599094,-0.66577957,-1.2610824)" />
    <path
       style="fill:#e11800;stroke:none;stroke-width:0.188237;stroke-dasharray:none"
       d="M 4.4110216,4.6782012 C 4.3241234,4.6717163 4.1503264,4.6587463 4.0271115,4.704142 3.9038966,4.7495377 3.8312664,4.8532951 3.8105149,4.9298181 c -0.020751,0.076523 0.010376,0.1258076 0.057068,0.129698 0.046692,0.00389 0.1089461,-0.037612 0.1647175,-0.08171 0.055771,-0.044098 0.1050559,-0.090789 0.1543422,-0.123214 0.049286,-0.032425 0.09857,-0.050582 0.1400748,-0.068741 0.041504,-0.018158 0.075225,-0.036316 0.1024617,-0.053177 0.027236,-0.016861 0.047989,-0.032425 0.058365,-0.040207 0.010376,-0.00778 0.010376,-0.00778 -0.076522,-0.014266 z"
       id="path646"
       transform="matrix(1.1599094,0,0,1.1599094,-0.66577957,-1.2610824)" />
    <path
       style="fill:#e11800;stroke:none;stroke-width:0.188237;stroke-dasharray:none"
       d="m 4.5549876,4.7119225 c 0.020752,-0.0013 0.044098,0.0013 0.079117,0.024642 0.035019,0.023346 0.081709,0.067442 0.1284011,0.1530451 0.046692,0.085603 0.093383,0.2127053 0.080413,0.2697732 -0.01297,0.057068 -0.0856,0.044099 -0.1296984,-0.00648 C 4.6691225,5.1023156 4.6535589,5.014122 4.6276188,4.942787 4.6016786,4.8714519 4.5653636,4.8169794 4.5420177,4.7832576 c -0.023346,-0.033722 -0.033722,-0.046691 -0.02983,-0.055771 0.00389,-0.00908 0.022048,-0.014267 0.0428,-0.015564 z"
       id="path649"
       transform="matrix(1.1599094,0,0,1.1599094,-0.66577957,-1.2610824)" />
    <path
       style="fill:#e11800;stroke:none;stroke-width:0.188237;stroke-dasharray:none"
       d="m 4.216473,4.6094607 c -0.055771,0.01297 -0.1673119,0.01297 -0.269775,0.059662 -0.1024632,0.046692 -0.1958449,0.1400742 -0.2555063,0.182875 -0.059661,0.042801 -0.085602,0.035018 -0.076522,-0.00519 0.00908,-0.040208 0.053176,-0.112837 0.098572,-0.1660142 0.045395,-0.053177 0.092086,-0.086898 0.1569361,-0.1089469 0.064851,-0.022049 0.1478564,-0.032425 0.2178947,-0.035019 0.070038,-0.00259 0.1271046,0.00259 0.1556382,0.018158 0.028534,0.015564 0.028533,0.041504 -0.027237,0.054474 z"
       id="path651"
       transform="matrix(1.1599094,0,0,1.1599094,-0.66577957,-1.2610824)" />
    <path
       style="fill:#e11800;stroke:none;stroke-width:0.188237;stroke-dasharray:none"
       d="m 4.81698,4.7586148 c 0.028534,0.029831 0.1115409,0.079116 0.1699059,0.1452638 0.058365,0.066147 0.092086,0.1491533 0.1296995,0.1854687 0.037613,0.036315 0.079116,0.02594 0.080413,-0.031129 0.0013,-0.057069 -0.037612,-0.1608257 -0.071335,-0.2217846 C 5.0919412,4.7754751 5.0634083,4.7573178 5.0167158,4.7430507 4.9700233,4.7287836 4.9051753,4.718408 4.8597803,4.718408 c -0.045395,1e-7 -0.071334,0.010376 -0.0428,0.040207 z"
       id="path654"
       transform="matrix(1.1599094,0,0,1.1599094,-0.74701675,-1.2881614)" />
  </g>
  <g
     id="g668"
     transform="matrix(-1.0624885,0,0,1.0624885,34.131201,-0.26453462)">
    <rect
       style="fill:#bdca31;fill-opacity:0;stroke:none;stroke-width:0.497953"
       id="rect658"
       width="7.9687138"
       height="7.9687138"
       x="0.24897645"
       y="0.24897645" />
    <path
       style="fill:none;stroke:#457b47;stroke-width:0.2;stroke-dasharray:none"
       d="M 4.2994791,7.2098957 C 4.3049911,7.1272138 4.310503,7.0445322 4.3117557,6.9791254 4.3130084,6.9137187 4.3100018,6.8655901 4.2884724,6.6354071 4.266943,6.4052241 4.226891,5.9929889 4.2035897,5.753159 4.1802884,5.5133291 4.1737379,5.445906 4.1671874,5.378483 c 0,0 -0.023832,-0.301867 -0.023832,-0.301867 0,0 -0.1125942,-0.9176968 -0.1125942,-0.9176968"
       id="path658"
       transform="matrix(-0.94118667,0,0,0.94118667,8.2176902,0.24897645)" />
    <ellipse
       style="fill:#a0bf43;stroke:none;stroke-width:0.53844;stroke-dasharray:none"
       id="ellipse658"
       cx="-4.5245376"
       cy="3.8919811"
       rx="0.3617202"
       ry="0.41736948"
       transform="scale(-1,1)" />
    <path
       style="fill:#e11800;stroke:none;stroke-width:0.188237;stroke-dasharray:none"
       d="m 4.1182029,6.4779961 c -0.015591,0.040353 -0.031182,0.080706 -0.045398,0.1132638 -0.014215,0.032558 -0.027055,0.057319 -0.048607,0.075661 -0.021552,0.018342 -0.051816,0.030264 -0.082081,0.042187"
       id="path659"
       transform="matrix(1.4302144,0,0,1.4302144,-1.5657313,-5.0488791)" />
    <path
       style="fill:#e11800;stroke:none;stroke-width:0.188237;stroke-dasharray:none"
       d="m 4.2874109,6.535774 c 0.00138,0.016508 0.00413,0.049524 0.010551,0.090794 0.00642,0.041271 0.016509,0.090794 0.035769,0.1210587 0.01926,0.030265 0.04769,0.04127 0.055943,0.03806 0.00825,-0.00321 -0.00367,-0.020635 -0.018343,-0.0509 -0.014674,-0.030265 -0.032099,-0.073368 -0.045856,-0.1082188 -0.013757,-0.034851 -0.023845,-0.061446 -0.029806,-0.077955 -0.00596,-0.016509 -0.00779,-0.022928 -0.00871,-0.026137 -9.165e-4,-0.00321 -9.245e-4,-0.00321 4.522e-4,0.013297 z"
       id="path660"
       transform="matrix(1.4302144,0,0,1.4302144,-1.5854063,-5.0331391)" />
    <path
       style="fill:#e11800;stroke:none;stroke-width:0.188237;stroke-dasharray:none"
       d="m 4.5102019,4.7781303 c 4.584e-4,-0.00504 0.00137,-0.015132 0.014215,-0.090337 0.01284,-0.075205 0.037601,-0.21552 0.065573,-0.2888888 0.027972,-0.073369 0.059154,-0.079789 0.085292,-0.06328 0.026137,0.016509 0.047231,0.055944 0.039894,0.1261037 -0.00734,0.07016 -0.043104,0.1710403 -0.071993,0.231111 -0.028889,0.060071 -0.0509,0.07933 -0.071993,0.087583 -0.021093,0.00825 -0.04127,0.0055 -0.051358,0.00412 -0.010088,-0.00138 -0.010087,-0.00137 -0.00963,-0.00641 z"
       id="path661"
       transform="matrix(1.2641269,0,0,1.2641269,-1.046027,-2.3339604)" />
    <path
       style="fill:#e11800;stroke:none;stroke-width:0.188237;stroke-dasharray:none"
       d="m 4.516619,4.7483232 c -0.00413,-0.00184 -0.01238,-0.0055 -0.024302,-0.048606 -0.011922,-0.043105 -0.027513,-0.1256429 -0.041269,-0.1935098 -0.013757,-0.067867 -0.025679,-0.121058 -0.036685,-0.1549915 -0.011006,-0.033933 -0.021094,-0.048607 -0.041729,-0.029805 -0.020635,0.018801 -0.051817,0.071076 -0.06007,0.1320649 -0.00825,0.060989 0.00642,0.1306874 0.025679,0.1838802 0.01926,0.053193 0.043104,0.089876 0.065574,0.1095954 0.02247,0.019719 0.043561,0.022472 0.060987,0.023849 0.017425,0.00138 0.031182,0.00138 0.039896,-0.00229 0.00871,-0.00367 0.012381,-0.011006 0.014214,-0.014674 0.00183,-0.00367 0.00184,-0.00367 -0.00229,-0.00551 z"
       id="path662"
       transform="matrix(1.2641269,0,0,1.2641269,-0.97646626,-2.3687406)" />
    <path
       style="fill:#e11800;stroke:none;stroke-width:0.188237;stroke-dasharray:none"
       d="M 4.4950698,4.6749553 C 4.4583854,4.6162602 4.3850166,4.49887 4.3428293,4.4034896 4.300642,4.3081092 4.2896369,4.2347419 4.2566201,4.1971408 c -0.033017,-0.037601 -0.088042,-0.039434 -0.1201408,0.013759 -0.032099,0.053194 -0.04127,0.1614111 -0.03485,0.2402831 0.00642,0.078872 0.02843,0.1283949 0.07337,0.1678311 0.044939,0.039436 0.1128038,0.068783 0.1632457,0.090794 0.050442,0.022011 0.083457,0.036684 0.1128044,0.039435 0.029348,0.00275 0.055026,-0.00642 0.067866,-0.011005 0.012839,-0.00459 0.012839,-0.00459 -0.023845,-0.063283 z"
       id="path663"
       transform="matrix(1.2641269,0,0,1.2641269,-1.046027,-2.3339604)" />
    <path
       style="fill:#e11800;stroke:none;stroke-width:0.188237;stroke-dasharray:none"
       d="m 4.5922836,4.7336504 c 0,0 0,0 0,0 0.051358,-0.078872 0.1027165,-0.157743 0.1513238,-0.2283612 0.048607,-0.070618 0.094462,-0.1329806 0.1384837,-0.1485713 0.044022,-0.015591 0.086208,0.015591 0.083456,0.086209 -0.00275,0.070619 -0.05044,0.1806694 -0.1008825,0.2485361 -0.050442,0.067867 -0.103633,0.093545 -0.1430693,0.1082185 -0.039436,0.014674 -0.065115,0.018341 -0.092628,0.01559 -0.027513,-0.00275 -0.056861,-0.011922 -0.063281,-0.026596 -0.00642,-0.014673 0.010088,-0.03485 0.018342,-0.044938 0.00825,-0.010088 0.00825,-0.010087 0.00825,-0.010087 z"
       id="path664"
       transform="matrix(1.2641269,0,0,1.2641269,-1.046027,-2.3339604)" />
    <path
       style="fill:#e11800;stroke:none;stroke-width:0.188237;stroke-dasharray:none"
       d="M 4.4110216,4.6782012 C 4.3241234,4.6717163 4.1503264,4.6587463 4.0271115,4.704142 3.9038966,4.7495377 3.8312664,4.8532951 3.8105149,4.9298181 c -0.020751,0.076523 0.010376,0.1258076 0.057068,0.129698 0.046692,0.00389 0.1089461,-0.037612 0.1647175,-0.08171 0.055771,-0.044098 0.1050559,-0.090789 0.1543422,-0.123214 0.049286,-0.032425 0.09857,-0.050582 0.1400748,-0.068741 0.041504,-0.018158 0.075225,-0.036316 0.1024617,-0.053177 0.027236,-0.016861 0.047989,-0.032425 0.058365,-0.040207 0.010376,-0.00778 0.010376,-0.00778 -0.076522,-0.014266 z"
       id="path665"
       transform="matrix(1.2641269,0,0,1.2641269,-1.046027,-2.3339604)" />
    <path
       style="fill:#e11800;stroke:none;stroke-width:0.188237;stroke-dasharray:none"
       d="m 4.5549876,4.7119225 c 0.020752,-0.0013 0.044098,0.0013 0.079117,0.024642 0.035019,0.023346 0.081709,0.067442 0.1284011,0.1530451 0.046692,0.085603 0.093383,0.2127053 0.080413,0.2697732 -0.01297,0.057068 -0.0856,0.044099 -0.1296984,-0.00648 C 4.6691225,5.1023156 4.6535589,5.014122 4.6276188,4.942787 4.6016786,4.8714519 4.5653636,4.8169794 4.5420177,4.7832576 c -0.023346,-0.033722 -0.033722,-0.046691 -0.02983,-0.055771 0.00389,-0.00908 0.022048,-0.014267 0.0428,-0.015564 z"
       id="path666"
       transform="matrix(1.2641269,0,0,1.2641269,-1.046027,-2.3339604)" />
    <path
       style="fill:#e11800;stroke:none;stroke-width:0.188237;stroke-dasharray:none"
       d="m 4.216473,4.6094607 c -0.055771,0.01297 -0.1673119,0.01297 -0.269775,0.059662 -0.1024632,0.046692 -0.1958449,0.1400742 -0.2555063,0.182875 -0.059661,0.042801 -0.085602,0.035018 -0.076522,-0.00519 0.00908,-0.040208 0.053176,-0.112837 0.098572,-0.1660142 0.045395,-0.053177 0.092086,-0.086898 0.1569361,-0.1089469 0.064851,-0.022049 0.1478564,-0.032425 0.2178947,-0.035019 0.070038,-0.00259 0.1271046,0.00259 0.1556382,0.018158 0.028534,0.015564 0.028533,0.041504 -0.027237,0.054474 z"
       id="path667"
       transform="matrix(1.2641269,0,0,1.2641269,-1.046027,-2.3339604)" />
    <path
       style="fill:#e11800;stroke:none;stroke-width:0.188237;stroke-dasharray:none"
       d="m 4.81698,4.7586148 c 0.028534,0.029831 0.1115409,0.079116 0.1699059,0.1452638 0.058365,0.066147 0.092086,0.1491533 0.1296995,0.1854687 0.037613,0.036315 0.079116,0.02594 0.080413,-0.031129 0.0013,-0.057069 -0.037612,-0.1608257 -0.071335,-0.2217846 C 5.0919412,4.7754751 5.0634083,4.7573178 5.0167158,4.7430507 4.9700233,4.7287836 4.9051753,4.718408 4.8597803,4.718408 c -0.045395,1e-7 -0.071334,0.010376 -0.0428,0.040207 z"
       id="path668"
       transform="matrix(1.2641269,0,0,1.2641269,-1.1345633,-2.3634724)" />
    <path
       style="fill:#e11800;stroke:none;stroke-width:0.188237;stroke-dasharray:none"
       d="M 4.5186709,3.7923565 C 4.4019419,3.9350256 4.1503263,4.220363 4.0115478,4.4019427 3.8727693,4.5835225 3.8468301,4.66134 3.818296,4.625023 3.7897618,4.5887059 3.7586347,4.4382579 3.774199,4.3098549 3.7897634,4.181452 3.8520181,4.0751003 3.9467,3.9882011 4.0413819,3.9013019 4.1684832,3.8338603 4.2605701,3.7845744 c 0.092087,-0.049286 0.1491538,-0.080413 0.199737,-0.099868 0.050583,-0.019455 0.094681,-0.027237 0.1258062,-0.031128 0.031126,-0.00389 0.049287,-0.00389 -0.067442,0.1387782 z"
       id="path741" />
    <path
       style="fill:#e11800;stroke:none;stroke-width:0.188237;stroke-dasharray:none"
       d="m 4.6782013,3.8312661 c 0.016861,0.153045 0.089492,0.4643225 0.1478577,0.596615 0.058365,0.1322926 0.1024621,0.085602 0.1193227,-0.00519 0.01686,-0.090791 0.00648,-0.225674 -0.019455,-0.3449985 -0.02594,-0.1193246 -0.067443,-0.2230815 -0.1011649,-0.2853373 -0.033722,-0.062256 -0.059661,-0.083007 -0.092086,-0.095977 -0.032425,-0.01297 -0.071335,-0.018158 -0.054474,0.134887 z"
       id="path745"
       transform="translate(-0.06225558,-0.03112779)" />
    <path
       style="fill:#e11800;stroke:none;stroke-width:0.188237;stroke-dasharray:none"
       d="m 4.9479903,3.7450043 c 0.045855,0.045855 0.1375667,0.1375672 0.190759,0.265964 0.053192,0.1283968 0.067866,0.2934742 0.084375,0.4053637 0.016509,0.1118895 0.034849,0.1705802 0.048606,0.1531551 0.013757,-0.017425 0.022929,-0.1109709 0.011006,-0.2155225 C 5.2708133,4.2494131 5.2377977,4.1338597 5.2176202,4.0623232 5.1974427,3.9907867 5.1901065,3.9632788 5.1644264,3.9174218 5.1387463,3.8715648 5.094726,3.8073685 5.0580418,3.770684 c -0.036684,-0.036685 -0.066033,-0.045856 -0.090791,-0.053192 -0.024759,-0.00734 -0.044942,-0.01284 -0.05503,-0.015592 -0.010088,-0.00275 -0.010086,-0.00275 0.03577,0.043104 z"
       id="path749" />
    <path
       style="fill:#e11800;stroke:none;stroke-width:0.188237;stroke-dasharray:none"
       d="m 4.2574015,3.3836611 c -0.00642,-0.00184 -0.019255,-0.0055 -0.077034,-0.013756 -0.057779,-0.00825 -0.1604935,-0.021093 -0.250371,-0.01559 -0.089877,0.0055 -0.1669143,0.029348 -0.2494552,0.104552 -0.082541,0.075204 -0.1705815,0.2017626 -0.229277,0.3008115 -0.058695,0.099049 -0.088042,0.1705824 -0.074285,0.1320623 0.013757,-0.03852 0.070617,-0.1870887 0.1155558,-0.294391 0.044939,-0.1073024 0.077955,-0.1733334 0.1357335,-0.2283607 0.057779,-0.055027 0.1403175,-0.099048 0.211853,-0.1247272 0.071535,-0.025679 0.1320621,-0.033016 0.1806703,-0.031182 0.048608,0.00183 0.085291,0.012839 0.1155589,0.027516 0.030268,0.014677 0.054105,0.033013 0.074282,0.057776 0.020177,0.024763 0.036685,0.055944 0.044939,0.071534 0.00825,0.01559 0.00825,0.015591 0.00183,0.013755 z"
       id="path751" />
    <path
       style="fill:#e11800;stroke:none;stroke-width:0.188237;stroke-dasharray:none"
       d="m 5.0653799,3.5854246 c 0.016509,-0.012837 0.053193,-0.029345 0.1614142,-0.048604 0.1082214,-0.01926 0.2879707,-0.04127 0.3888536,0.079791 0.1008828,0.1210612 0.1228934,0.3851839 0.1183077,0.5392592 -0.00459,0.1540753 -0.035767,0.1980966 -0.044021,0.169665 -0.00825,-0.028432 0.00642,-0.1293128 0.00825,-0.2118536 0.00183,-0.082541 -0.00917,-0.1467374 -0.035768,-0.203599 -0.026597,-0.056862 -0.068782,-0.1063837 -0.1082185,-0.1449026 -0.039436,-0.038519 -0.07612,-0.066031 -0.1494907,-0.08896 -0.073371,-0.022928 -0.183421,-0.04127 -0.247624,-0.050441 -0.064203,-0.00917 -0.082533,-0.00917 -0.093538,-0.013755 -0.011005,-0.00458 -0.014678,-0.013764 0.00183,-0.026601 z"
       id="path753"
       transform="translate(-0.06052934,-0.016508)" />
    <path
       style="fill:#e11800;stroke:none;stroke-width:0.188237;stroke-dasharray:none"
       d="m 5.1286634,3.528564 c 0.00642,-0.0055 0.019257,-0.016506 0.077954,-0.054108 0.058697,-0.037602 0.1632444,-0.1017981 0.2503713,-0.2650465 0.087127,-0.1632485 0.156826,-0.4255372 0.2072673,-0.5447616 0.050441,-0.1192243 0.081622,-0.09538 0.072451,0.020179 -0.00917,0.1155584 -0.058694,0.3228214 -0.1155561,0.4768971 -0.056862,0.1540758 -0.121058,0.2549557 -0.1815882,0.3090654 -0.06053,0.05411 -0.1173914,0.061447 -0.1696661,0.064199 -0.052275,0.00275 -0.099966,9.184e-4 -0.1238105,1.8e-6 -0.023845,-9.167e-4 -0.023845,-9.202e-4 -0.017422,-0.00643 z"
       id="path755" />
    <path
       style="fill:#e11800;stroke:none;stroke-width:0.188237;stroke-dasharray:none"
       d="m 4.280334,3.2708577 c -0.0055,-0.00459 -0.01651,-0.013758 -0.098134,-0.1173924 C 4.1005767,3.0498304 3.9483398,2.8517381 3.8722199,2.7105021 3.7961,2.5692661 3.7961,2.4848937 3.7777571,2.5041543 c -0.018343,0.01926 -0.055027,0.1421506 -0.043104,0.2687136 0.011923,0.126563 0.072452,0.2567899 0.1247274,0.3310761 0.052276,0.074286 0.096296,0.092628 0.1467379,0.1063848 0.050442,0.013757 0.1073012,0.022928 0.1485718,0.03485 0.041271,0.011922 0.066949,0.026596 0.086214,0.032097 0.019264,0.0055 0.032095,0.00184 0.038515,2.1e-6 0.00642,-0.00183 0.00642,-0.00183 9.155e-4,-0.00642 z"
       id="path765" />
    <path
       style="fill:#e11800;stroke:none;stroke-width:0.188237;stroke-dasharray:none"
       d="m 5.1685536,3.4217234 c 0.00779,-0.00229 0.023389,-0.00688 0.060532,-0.056404 0.037143,-0.049525 0.095837,-0.1439853 0.1343562,-0.2214833 0.038519,-0.077498 0.056861,-0.1380231 0.058695,-0.099503 0.00183,0.03852 -0.012839,0.1760845 -0.043563,0.2609174 -0.030724,0.084833 -0.077495,0.116931 -0.1141805,0.1320641 -0.036685,0.015133 -0.06328,0.0133 -0.078873,0.00826 -0.015593,-0.00504 -0.020178,-0.013289 -0.022476,-0.017421 -0.0023,-0.00413 -0.00229,-0.00413 0.00551,-0.00643 z"
       id="path773"
       transform="translate(-0.06603201,0.07703735)" />
    <path
       style="fill:#e11800;stroke:none;stroke-width:0.188237;stroke-dasharray:none"
       d="m 4.0107029,3.1846492 c -0.011006,-0.0055 -0.033016,-0.016508 -0.080706,-0.05732 C 3.8823063,3.0865176 3.8089392,3.0159015 3.7543702,2.9544541 3.6998012,2.8930067 3.6640348,2.8407336 3.6599078,2.8434853 c -0.00413,0.00275 0.023386,0.060529 0.050442,0.1132633 0.027055,0.052734 0.053651,0.1004226 0.091252,0.1366486 0.037602,0.036226 0.086208,0.060987 0.1183056,0.073827 0.032098,0.012839 0.047692,0.013756 0.061912,0.015592 0.01422,0.00184 0.027048,0.00459 0.033469,0.00596 0.00642,0.00138 0.00642,0.00137 -0.00459,-0.00413 z"
       id="path784"
       transform="translate(0.03301601,0.04677267)" />
  </g>
</svg>
