<?xml version="1.0" encoding="UTF-8" standalone="no"?>
<!-- Created with Inkscape (http://www.inkscape.org/) -->

<svg
   width="64.000008"
   height="64.000008"
   viewBox="0 0 16.933335 16.933335"
   version="1.1"
   id="svg1"
   xmlns="http://www.w3.org/2000/svg"
   xmlns:svg="http://www.w3.org/2000/svg">
  <defs
     id="defs1" />
  <g
     id="g32"
     transform="translate(-8.478902,-11.801772)">
    <rect
       style="fill:none;fill-opacity:0.921569;stroke:none;stroke-width:4.36359"
       id="rect225"
       width="15.937428"
       height="15.937428"
       x="7.7312517"
       y="11.356647"
       transform="matrix(1.0624885,0,0,1.0624885,0.26453492,-0.26453461)" />
    <path
       style="fill:none;stroke:#457b47;stroke-width:0.2;stroke-dasharray:none;stroke-opacity:1"
       d="m 16.977392,28.71811 c 0.124726,-0.904261 0.249452,-1.808522 0.280633,-2.728384 0.03118,-0.919863 -0.03118,-1.855288 -0.296228,-2.712785 -0.265047,-0.857498 -0.732759,-1.637018 -1.044575,-2.182696 -0.311816,-0.545679 -0.46772,-0.857487 -0.623628,-1.169302"
       id="path785" />
    <path
       style="fill:#e11800;stroke:none;stroke-width:0.2;stroke-dasharray:none;stroke-opacity:1"
       d="m 15.365126,19.948481 c 0.08544,0.02205 0.256316,0.06615 0.402389,0.157098 0.146073,0.09095 0.267338,0.228752 0.366557,0.35002 0.09922,0.121268 0.176388,0.225998 0.225998,0.212217 0.04961,-0.01378 0.07166,-0.146071 0.04686,-0.270096 -0.0248,-0.124024 -0.09646,-0.239777 -0.234267,-0.374826 -0.137806,-0.135049 -0.341751,-0.289387 -0.498848,-0.369314 -0.157097,-0.07993 -0.267339,-0.08544 -0.33624,-0.04686 -0.0689,0.03858 -0.09646,0.121268 -0.09922,0.181903 -0.0028,0.06064 0.01929,0.09922 0.03032,0.118509 0.01103,0.01929 0.01102,0.0193 0.09645,0.04134 z"
       id="path786"
       transform="matrix(1.389162,0,0,1.389162,-5.343968,-7.0742919)" />
    <path
       style="fill:#e11800;stroke:none;stroke-width:0.2;stroke-dasharray:none;stroke-opacity:1"
       d="m 15.281064,19.900251 c -0.03997,0.03996 -0.119888,0.119888 -0.190169,0.310061 -0.07028,0.190172 -0.130912,0.490578 -0.205329,0.631137 -0.07442,0.140559 -0.162605,0.121267 -0.238398,0.02342 -0.07579,-0.09784 -0.139181,-0.274228 -0.106107,-0.434082 0.03307,-0.159854 0.162607,-0.303167 0.256314,-0.413411 0.09371,-0.110243 0.151584,-0.187413 0.225997,-0.225998 0.07441,-0.03858 0.165365,-0.03858 0.217731,-0.02067 0.05236,0.01792 0.06615,0.05374 0.07303,0.07166 0.0069,0.01791 0.0069,0.01792 -0.03307,0.05788 z"
       id="path787"
       transform="matrix(1.389162,0,0,1.389162,-5.343968,-7.0742919)" />
    <path
       style="fill:#e11800;stroke:none;stroke-width:0.2;stroke-dasharray:none;stroke-opacity:1"
       d="m 15.281066,19.792764 c 0.0096,-0.03445 0.02894,-0.103352 0.139186,-0.173634 0.110246,-0.07028 0.311435,-0.141938 0.511253,-0.01653 0.199817,0.125404 0.398251,0.447859 0.498853,0.588418 0.100602,0.14056 0.103368,0.09922 0.0703,-0.05926 -0.03307,-0.158479 -0.101969,-0.434082 -0.208079,-0.635277 -0.106111,-0.201195 -0.249424,-0.327972 -0.401009,-0.35691 -0.151586,-0.02894 -0.311436,0.03996 -0.429948,0.13367 -0.118511,0.09371 -0.195681,0.212217 -0.220485,0.308682 -0.0248,0.09647 0.0028,0.170874 0.01653,0.208082 0.01378,0.03721 0.01375,0.03721 0.02339,0.0028 z"
       id="path788"
       transform="matrix(1.389162,0,0,1.389162,-5.343968,-7.0742919)" />
    <path
       style="fill:#e11800;stroke:none;stroke-width:0.2;stroke-dasharray:none;stroke-opacity:1"
       d="m 15.210785,19.825835 c -0.05236,-0.01791 -0.157097,-0.05374 -0.271474,-0.02894 -0.114378,0.02481 -0.238399,0.110243 -0.337619,0.217732 -0.09922,0.107489 -0.173632,0.23702 -0.243914,0.316947 -0.07028,0.07993 -0.136423,0.110242 -0.157094,0.0055 -0.02067,-0.104733 0.0041,-0.344507 0.09508,-0.487823 0.09095,-0.143316 0.248046,-0.190169 0.36518,-0.225998 0.117134,-0.03583 0.194303,-0.06063 0.276986,-0.03169 0.08268,0.02894 0.170875,0.111621 0.225996,0.162608 0.05512,0.05099 0.07717,0.07028 0.0882,0.07993 0.01103,0.0096 0.01103,0.0096 -0.04134,-0.0083 z"
       id="path789"
       transform="matrix(1.389162,0,0,1.389162,-5.343968,-7.0742919)" />
    <path
       style="fill:#e11800;stroke:none;stroke-width:0.2;stroke-dasharray:none;stroke-opacity:1"
       d="m 15.250749,19.927815 c 0.0124,0.0014 0.0372,0.0042 0.09646,0.06479 0.05926,0.06064 0.15296,0.179148 0.190166,0.323843 0.03721,0.144696 0.01791,0.31557 -0.0014,0.416167 -0.01929,0.100598 -0.03858,0.130908 0.0041,0.111618 0.04272,-0.01929 0.147448,-0.08819 0.203949,-0.219108 0.0565,-0.130916 0.06477,-0.323836 0.0083,-0.438214 -0.0565,-0.114378 -0.177766,-0.150206 -0.27285,-0.190169 -0.09508,-0.03996 -0.163984,-0.08406 -0.19982,-0.09646 -0.03584,-0.0124 -0.0386,0.0069 -0.03998,0.01653 -0.0014,0.0097 -0.0013,0.0096 0.01105,0.011 z"
       id="path790"
       transform="matrix(1.389162,0,0,1.389162,-5.343968,-7.0742919)" />
    <path
       style="fill:#e11800;stroke:none;stroke-width:0.2;stroke-dasharray:none;stroke-opacity:1"
       d="m 15.312761,19.926432 c 0,0 0,0 0,0 -0.03583,0.270096 -0.07166,0.540191 -0.07855,0.698664 -0.0069,0.158474 0.01516,0.205332 -0.01378,0.177769 -0.02894,-0.02756 -0.108864,-0.129536 -0.152962,-0.278367 -0.0441,-0.14883 -0.05237,-0.344507 -0.03308,-0.457506 0.01929,-0.112998 0.06615,-0.143316 0.104733,-0.158474 0.03859,-0.01516 0.0689,-0.01516 0.09646,-0.0096 0.02756,0.0055 0.05237,0.01654 0.06477,0.02205 0.0124,0.0055 0.01241,0.0055 0.01241,0.0055 z"
       id="path791"
       transform="matrix(1.389162,0,0,1.389162,-5.343968,-7.0742919)" />
    <path
       style="fill:#e11800;stroke:none;stroke-width:0.2;stroke-dasharray:none;stroke-opacity:1"
       d="m 15.178612,19.715445 c 0.0019,-0.02241 0.0058,-0.06724 0.05359,-0.190993 0.04775,-0.123752 0.139339,-0.326426 0.271862,-0.453101 0.132523,-0.126676 0.305967,-0.177344 0.46285,-0.177344 0.156883,1e-6 0.297196,0.05067 0.376125,0.152985 0.07893,0.102316 0.09647,0.256271 0.06821,0.307914 -0.02826,0.05164 -0.102312,9.76e-4 -0.205602,-0.06723 -0.10329,-0.06821 -0.235808,-0.153958 -0.377345,-0.167599 -0.141537,-0.01364 -0.292078,0.04482 -0.402189,0.159804 -0.110111,0.114983 -0.179781,0.286479 -0.214617,0.372229 -0.03484,0.08575 -0.03483,0.08575 -0.03289,0.06334 z"
       id="path792"
       transform="matrix(1.389162,0,0,1.389162,-5.3602115,-6.9443437)" />
    <path
       style="fill:#e11800;stroke:none;stroke-width:0.2;stroke-dasharray:none;stroke-opacity:1"
       d="m 15.233181,19.780728 c -0.0078,-0.02728 -0.02338,-0.08185 -0.07113,-0.143238 -0.04775,-0.06139 -0.127649,-0.129599 -0.218271,-0.173448 -0.09062,-0.04385 -0.19196,-0.06334 -0.287455,-0.03898 -0.09549,0.02436 -0.185138,0.09257 -0.262117,0.160777 -0.07698,0.06821 -0.141291,0.136419 -0.179294,0.214373 -0.038,0.07795 -0.0497,0.165651 -0.05846,0.233857 -0.0088,0.06821 -0.01462,0.116932 -0.03508,0.02436 -0.02046,-0.09257 -0.05554,-0.326427 -0.05164,-0.471618 0.0039,-0.145191 0.04677,-0.201703 0.119853,-0.241655 0.07308,-0.03995 0.176368,-0.06334 0.290377,-0.07308 0.114009,-0.0097 0.238732,-0.0058 0.326429,0.0097 0.0877,0.01559 0.138369,0.04287 0.185141,0.09744 0.04677,0.05457 0.08965,0.136418 0.130573,0.212424 0.04093,0.07601 0.0799,0.14616 0.09939,0.18124 0.01949,0.03508 0.01949,0.03509 0.01169,0.0078 z"
       id="path793"
       transform="matrix(1.389162,0,0,1.389162,-5.3358462,-6.9524655)" />
    <path
       style="fill:none;stroke:#e11800;stroke-width:0.05;stroke-dasharray:none;stroke-opacity:1"
       d="m 15.153278,19.737855 c -0.105238,-0.179294 -0.210475,-0.358587 -0.360538,-0.502802 -0.150062,-0.144216 -0.344942,-0.253349 -0.48331,-0.294275 -0.138368,-0.04093 -0.22022,-0.01364 -0.30207,0.01364"
       id="path794"
       transform="matrix(1.389162,0,0,1.389162,-5.343968,-7.0742919)" />
    <path
       style="fill:none;stroke:#e11800;stroke-width:0.0499999;stroke-dasharray:none;stroke-opacity:1"
       d="m 15.153278,19.702776 c -0.01559,-0.01949 -0.03118,-0.03898 -0.04872,-0.169556 -0.01754,-0.130575 -0.03702,-0.372227 0.002,-0.539827 0.03898,-0.167601 0.136419,-0.261144 0.224116,-0.341045 0.0877,-0.0799 0.165652,-0.146165 0.270891,-0.179295 0.105238,-0.03313 0.237757,-0.03313 0.370278,-0.03313"
       id="path795"
       transform="matrix(1.389162,0,0,1.389162,-5.343968,-7.0742919)" />
    <path
       style="fill:none;stroke:#e11800;stroke-width:0.0499999;stroke-dasharray:none;stroke-opacity:1"
       d="m 15.305287,19.79632 c -0.02728,-0.237759 -0.05457,-0.475517 -0.03898,-0.625578 0.01559,-0.150062 0.07406,-0.212424 0.208528,-0.276736 0.134471,-0.06431 0.344942,-0.130571 0.4989,-0.179291 0.153957,-0.04872 0.251401,-0.0799 0.348843,-0.111081"
       id="path797"
       transform="matrix(1.389162,0,0,1.389162,-5.3554539,-6.9938906)" />
    <path
       style="fill:none;stroke:#e11800;stroke-width:0.0499999;stroke-dasharray:none;stroke-opacity:1"
       d="m 15.129892,19.749548 c -0.08575,-0.155908 -0.171498,-0.311815 -0.263093,-0.399512 -0.09159,-0.0877 -0.189039,-0.107184 -0.294277,-0.120825 -0.105238,-0.01364 -0.218268,-0.02144 -0.31961,-0.0039 -0.101342,0.01754 -0.190985,0.06041 -0.272836,0.120827 -0.08185,0.06041 -0.155907,0.138367 -0.229963,0.216321"
       id="path799"
       transform="matrix(1.389162,0,0,1.389162,-5.343968,-7.0742919)" />
    <path
       style="fill:none;stroke:#e11800;stroke-width:0.0499999;stroke-dasharray:none;stroke-opacity:1"
       d="m 15.118199,19.737855 c -0.01949,-0.03508 -0.03898,-0.07016 -0.07405,-0.202684 -0.03508,-0.132522 -0.08575,-0.36248 -0.109134,-0.537877 -0.02339,-0.175397 -0.01949,-0.296223 0.02144,-0.417053 0.04093,-0.12083 0.118877,-0.241654 0.177343,-0.311814 0.05847,-0.07016 0.09744,-0.08965 0.136418,-0.109138"
       id="path803"
       transform="matrix(1.389162,0,0,1.389162,-5.2865384,-7.0168624)" />
  </g>
</svg>
