<?xml version="1.0" encoding="UTF-8" standalone="no"?>
<!-- Created with Inkscape (http://www.inkscape.org/) -->

<svg
   width="127.99999"
   height="32.000004"
   viewBox="0 0 33.866664 8.4666677"
   version="1.1"
   id="svg1"
   xmlns="http://www.w3.org/2000/svg"
   xmlns:svg="http://www.w3.org/2000/svg">
  <defs
     id="defs1" />
  <g
     id="g75"
     transform="matrix(-1.0624885,0,0,1.0624885,8.7312013,-0.26453462)">
    <rect
       style="fill:#bdca31;fill-opacity:0;stroke:none;stroke-width:0.497953"
       id="rect74"
       width="7.9687138"
       height="7.9687138"
       x="0.24897645"
       y="0.24897645" />
    <path
       style="fill:none;stroke:#457b47;stroke-width:0.5;stroke-dasharray:none"
       d="m -3.9522133,8.0532551 c 0.016536,-0.022048 0.033073,-0.044097 0.055121,-0.1185126 0.022049,-0.074415 0.049609,-0.2011927 0.00827,-0.3279733 -0.041342,-0.1267806 -0.1515832,-0.2535578 -0.1515821,-0.4547541 1.2e-6,-0.2011964 0.110242,-0.4767985 0.220485,-0.752406"
       id="path27"
       transform="matrix(-0.94118667,0,0,0.94118667,0.24897672,0.24897645)" />
    <ellipse
       style="fill:#86a336;stroke:#86a336;stroke-width:0.499999;stroke-dasharray:none"
       id="path39"
       cx="-3.8713009"
       cy="5.7178974"
       rx="0.29232603"
       ry="0.71327555"
       transform="matrix(-0.94118667,0,0,0.94118667,0.24897672,0.24897645)" />
  </g>
  <g
     id="g40"
     transform="matrix(-1.0624885,0,0,1.0624885,17.197868,-0.26453462)">
    <rect
       style="fill:#bdca31;fill-opacity:0;stroke:none;stroke-width:0.497953"
       id="rect39"
       width="7.9687138"
       height="7.9687138"
       x="0.24897645"
       y="0.24897645" />
    <path
       style="fill:none;stroke:#457b47;stroke-width:0.5;stroke-dasharray:none"
       d="m -3.9522133,8.0532551 c 0.016536,-0.022048 0.033073,-0.044097 0.055121,-0.1185126 0.022049,-0.074415 0.049609,-0.2011927 0.00827,-0.3279733 -0.041342,-0.1267806 -0.1515832,-0.2535578 -0.1710709,-0.5327094 -0.019488,-0.2791515 0.051777,-0.7106577 0.1230434,-1.1421724"
       id="path40"
       transform="matrix(-0.94118667,0,0,0.94118667,0.24897672,0.24897645)" />
    <ellipse
       style="fill:#86a336;stroke:#86a336;stroke-width:0.470592;stroke-dasharray:none"
       id="ellipse40"
       cx="-3.936615"
       cy="5.1243401"
       rx="0.27513337"
       ry="0.67132545"
       transform="scale(-1,1)" />
    <path
       style="fill:#754030;stroke:none;stroke-width:0.470592;stroke-dasharray:none"
       d="m 4.2242545,4.6068665 c 0.027236,-0.03891 0.02983,-0.093383 0.014266,-0.1841738 -0.015564,-0.09079 -0.049285,-0.217893 -0.083007,-0.3009009 -0.033722,-0.083008 -0.067443,-0.1219169 -0.1465606,-0.080412 -0.079118,0.041505 -0.2036264,0.1634197 -0.265882,0.2736647 -0.062256,0.1102451 -0.062256,0.2088148 -0.027236,0.2723676 0.035019,0.063553 0.1050557,0.092086 0.1737969,0.1037587 0.068741,0.011673 0.1361834,0.00648 0.1958455,-0.00778 0.059662,-0.014267 0.1115408,-0.037612 0.1387772,-0.076522 z"
       id="path116"
       transform="translate(0.08560142,0.00778195)" />
    <path
       style="fill:#ffec8c;stroke:none;stroke-width:0.470592;stroke-dasharray:none"
       d="M 4.1555144,4.7650996 C 4.1710787,4.7417535 4.1866421,4.7365657 4.2450077,4.5601715 4.3033733,4.3837774 4.4045365,4.0361905 4.5316432,3.8247802 4.6587498,3.6133699 4.8117917,3.538146 4.9635412,3.5394438 5.1152907,3.5407416 5.2657387,3.6185595 5.261846,3.8351605 5.2579534,4.0517616 5.0997237,4.4071301 4.9842908,4.6392926 4.8688578,4.8714551 4.7962278,4.9804001 4.674309,5.05822 4.5523902,5.13604 4.3811906,5.1827307 4.278728,5.1464138 4.1762653,5.1100969 4.1425442,4.9907762 4.1334655,4.9103621 4.1243867,4.829948 4.1399501,4.7884458 4.1555144,4.7650996 Z"
       id="path89"
       transform="translate(-0.10894726,-0.03890973)" />
    <path
       style="fill:#ffec8c;stroke:none;stroke-width:0.470592;stroke-dasharray:none"
       d="M 4.1555144,4.7650996 C 4.1710787,4.7417535 4.1866421,4.7365657 4.2450077,4.5601715 4.3033733,4.3837774 4.4045365,4.0361905 4.5316432,3.8247802 4.6587498,3.6133699 4.8117917,3.538146 4.9635412,3.5394438 5.1152907,3.5407416 5.2657387,3.6185595 5.261846,3.8351605 5.2579534,4.0517616 5.0997237,4.4071301 4.9842908,4.6392926 4.8688578,4.8714551 4.7962278,4.9804001 4.674309,5.05822 4.5523902,5.13604 4.3811906,5.1827307 4.278728,5.1464138 4.1762653,5.1100969 4.1425442,4.9907762 4.1334655,4.9103621 4.1243867,4.829948 4.1399501,4.7884458 4.1555144,4.7650996 Z"
       id="path105"
       transform="matrix(-1,0,0,1,8.3421336,-0.03112778)" />
  </g>
  <g
     id="g126"
     transform="matrix(-1.0624885,0,0,1.0624885,25.664535,-0.26453462)">
    <rect
       style="fill:#bdca31;fill-opacity:0;stroke:none;stroke-width:0.497953"
       id="rect123"
       width="7.9687138"
       height="7.9687138"
       x="0.24897645"
       y="0.24897645" />
    <path
       style="fill:none;stroke:#457b47;stroke-width:0.5;stroke-dasharray:none"
       d="m -3.9522133,8.0532551 c 0.016536,-0.022048 0.033073,-0.044097 0.055121,-0.1185126 0.022049,-0.074415 0.049609,-0.2011927 0.00827,-0.3279733 -0.041342,-0.1267806 -0.151581,-0.2535552 -0.1770057,-0.4967661 -0.025425,-0.2432108 0.033969,-0.6028381 0.063401,-0.9522638 0.029432,-0.3494257 0.028902,-0.6886473 0.028372,-1.0278701"
       id="path123"
       transform="matrix(-0.94118667,0,0,0.94118667,0.24897672,0.24897645)" />
    <ellipse
       style="fill:#86a336;stroke:#86a336;stroke-width:0.470592;stroke-dasharray:none"
       id="ellipse123"
       cx="-3.9586256"
       cy="4.4860306"
       rx="0.27513337"
       ry="0.67132545"
       transform="scale(-1,1)" />
    <path
       style="fill:#ffec8c;stroke:none;stroke-width:0.470592;stroke-dasharray:none"
       d="M 4.1555144,4.7650996 C 4.1710787,4.7417535 4.1866421,4.7365657 4.2450077,4.5601715 4.3033733,4.3837774 4.4045365,4.0361905 4.5316432,3.8247802 4.6587498,3.6133699 4.8117917,3.538146 4.9635412,3.5394438 5.1152907,3.5407416 5.2657387,3.6185595 5.261846,3.8351605 5.2579534,4.0517616 5.0997237,4.4071301 4.9842908,4.6392926 4.8688578,4.8714551 4.7962278,4.9804001 4.674309,5.05822 4.5523902,5.13604 4.3811906,5.1827307 4.278728,5.1464138 4.1762653,5.1100969 4.1425442,4.9907762 4.1334655,4.9103621 4.1243867,4.829948 4.1399501,4.7884458 4.1555144,4.7650996 Z"
       id="path125"
       transform="translate(-0.08693659,-0.67721915)" />
    <path
       style="fill:#ffec8c;stroke:none;stroke-width:0.470592;stroke-dasharray:none"
       d="M 4.1555144,4.7650996 C 4.1710787,4.7417535 4.1866421,4.7365657 4.2450077,4.5601715 4.3033733,4.3837774 4.4045365,4.0361905 4.5316432,3.8247802 4.6587498,3.6133699 4.8117917,3.538146 4.9635412,3.5394438 5.1152907,3.5407416 5.2657387,3.6185595 5.261846,3.8351605 5.2579534,4.0517616 5.0997237,4.4071301 4.9842908,4.6392926 4.8688578,4.8714551 4.7962278,4.9804001 4.674309,5.05822 4.5523902,5.13604 4.3811906,5.1827307 4.278728,5.1464138 4.1762653,5.1100969 4.1425442,4.9907762 4.1334655,4.9103621 4.1243867,4.829948 4.1399501,4.7884458 4.1555144,4.7650996 Z"
       id="path126"
       transform="matrix(-1,0,0,1,8.3641443,-0.6694372)" />
    <path
       style="fill:#ffec8c;stroke:none;stroke-width:0.470592;stroke-dasharray:none"
       d="M 4.1555144,4.7650996 C 4.1710787,4.7417535 4.1866421,4.7365657 4.2450077,4.5601715 4.3033733,4.3837774 4.4045365,4.0361905 4.5316432,3.8247802 4.6587498,3.6133699 4.8117917,3.538146 4.9635412,3.5394438 5.1152907,3.5407416 5.2657387,3.6185595 5.261846,3.8351605 5.2579534,4.0517616 5.0997237,4.4071301 4.9842908,4.6392926 4.8688578,4.8714551 4.7962278,4.9804001 4.674309,5.05822 4.5523902,5.13604 4.3811906,5.1827307 4.278728,5.1464138 4.1762653,5.1100969 4.1425442,4.9907762 4.1334655,4.9103621 4.1243867,4.829948 4.1399501,4.7884458 4.1555144,4.7650996 Z"
       id="path153"
       transform="matrix(-0.89183432,0.45236218,0.45236218,0.89183432,5.5252137,-2.0718336)" />
    <path
       style="fill:#ffec8c;stroke:none;stroke-width:0.470592;stroke-dasharray:none"
       d="M 4.1555144,4.7650996 C 4.1710787,4.7417535 4.1866421,4.7365657 4.2450077,4.5601715 4.3033733,4.3837774 4.4045365,4.0361905 4.5316432,3.8247802 4.6587498,3.6133699 4.8117917,3.538146 4.9635412,3.5394438 5.1152907,3.5407416 5.2657387,3.6185595 5.261846,3.8351605 5.2579534,4.0517616 5.0997237,4.4071301 4.9842908,4.6392926 4.8688578,4.8714551 4.7962278,4.9804001 4.674309,5.05822 4.5523902,5.13604 4.3811906,5.1827307 4.278728,5.1464138 4.1762653,5.1100969 4.1425442,4.9907762 4.1334655,4.9103621 4.1243867,4.829948 4.1399501,4.7884458 4.1555144,4.7650996 Z"
       id="path178"
       transform="matrix(-0.39131066,0.92025864,0.92025864,0.39131066,1.1398245,-1.634468)" />
    <path
       style="fill:#ffec8c;stroke:none;stroke-width:0.470592;stroke-dasharray:none"
       d="M 4.1555144,4.7650996 C 4.1710787,4.7417535 4.1866421,4.7365657 4.2450077,4.5601715 4.3033733,4.3837774 4.4045365,4.0361905 4.5316432,3.8247802 4.6587498,3.6133699 4.8117917,3.538146 4.9635412,3.5394438 5.1152907,3.5407416 5.2657387,3.6185595 5.261846,3.8351605 5.2579534,4.0517616 5.0997237,4.4071301 4.9842908,4.6392926 4.8688578,4.8714551 4.7962278,4.9804001 4.674309,5.05822 4.5523902,5.13604 4.3811906,5.1827307 4.278728,5.1464138 4.1762653,5.1100969 4.1425442,4.9907762 4.1334655,4.9103621 4.1243867,4.829948 4.1399501,4.7884458 4.1555144,4.7650996 Z"
       id="path185"
       transform="matrix(0.36169697,0.93229572,0.93229572,-0.36169697,-2.2109215,1.9694378)" />
    <path
       style="fill:#ffec8c;stroke:none;stroke-width:0.470592;stroke-dasharray:none"
       d="M 4.1555144,4.7650996 C 4.1710787,4.7417535 4.1866421,4.7365657 4.2450077,4.5601715 4.3033733,4.3837774 4.4045365,4.0361905 4.5316432,3.8247802 4.6587498,3.6133699 4.8117917,3.538146 4.9635412,3.5394438 5.1152907,3.5407416 5.2657387,3.6185595 5.261846,3.8351605 5.2579534,4.0517616 5.0997237,4.4071301 4.9842908,4.6392926 4.8688578,4.8714551 4.7962278,4.9804001 4.674309,5.05822 4.5523902,5.13604 4.3811906,5.1827307 4.278728,5.1464138 4.1762653,5.1100969 4.1425442,4.9907762 4.1334655,4.9103621 4.1243867,4.829948 4.1399501,4.7884458 4.1555144,4.7650996 Z"
       id="path191"
       transform="matrix(0.75947922,0.65053157,0.65053157,-0.75947922,-2.2708512,5.1418165)" />
    <path
       style="fill:#ffec8c;stroke:none;stroke-width:0.470592;stroke-dasharray:none"
       d="M 4.1555144,4.7650996 C 4.1710787,4.7417535 4.1866421,4.7365657 4.2450077,4.5601715 4.3033733,4.3837774 4.4045365,4.0361905 4.5316432,3.8247802 4.6587498,3.6133699 4.8117917,3.538146 4.9635412,3.5394438 5.1152907,3.5407416 5.2657387,3.6185595 5.261846,3.8351605 5.2579534,4.0517616 5.0997237,4.4071301 4.9842908,4.6392926 4.8688578,4.8714551 4.7962278,4.9804001 4.674309,5.05822 4.5523902,5.13604 4.3811906,5.1827307 4.278728,5.1464138 4.1762653,5.1100969 4.1425442,4.9907762 4.1334655,4.9103621 4.1243867,4.829948 4.1399501,4.7884458 4.1555144,4.7650996 Z"
       id="path201"
       transform="matrix(0.99999007,-0.00445677,-0.00445677,-0.99999007,-0.00307081,9.2274493)" />
    <path
       style="fill:#ffec8c;stroke:none;stroke-width:0.470592;stroke-dasharray:none"
       d="M 4.1555144,4.7650996 C 4.1710787,4.7417535 4.1866421,4.7365657 4.2450077,4.5601715 4.3033733,4.3837774 4.4045365,4.0361905 4.5316432,3.8247802 4.6587498,3.6133699 4.8117917,3.538146 4.9635412,3.5394438 5.1152907,3.5407416 5.2657387,3.6185595 5.261846,3.8351605 5.2579534,4.0517616 5.0997237,4.4071301 4.9842908,4.6392926 4.8688578,4.8714551 4.7962278,4.9804001 4.674309,5.05822 4.5523902,5.13604 4.3811906,5.1827307 4.278728,5.1464138 4.1762653,5.1100969 4.1425442,4.9907762 4.1334655,4.9103621 4.1243867,4.829948 4.1399501,4.7884458 4.1555144,4.7650996 Z"
       id="path204"
       transform="matrix(0.69319468,-0.7207504,-0.7207504,-0.69319468,4.8330784,10.883629)" />
    <path
       style="fill:#ffec8c;stroke:none;stroke-width:0.470592;stroke-dasharray:none"
       d="M 4.1555144,4.7650996 C 4.1710787,4.7417535 4.1866421,4.7365657 4.2450077,4.5601715 4.3033733,4.3837774 4.4045365,4.0361905 4.5316432,3.8247802 4.6587498,3.6133699 4.8117917,3.538146 4.9635412,3.5394438 5.1152907,3.5407416 5.2657387,3.6185595 5.261846,3.8351605 5.2579534,4.0517616 5.0997237,4.4071301 4.9842908,4.6392926 4.8688578,4.8714551 4.7962278,4.9804001 4.674309,5.05822 4.5523902,5.13604 4.3811906,5.1827307 4.278728,5.1464138 4.1762653,5.1100969 4.1425442,4.9907762 4.1334655,4.9103621 4.1243867,4.829948 4.1399501,4.7884458 4.1555144,4.7650996 Z"
       id="path208"
       transform="matrix(0.19481597,-0.98083981,-0.98083981,-0.19481597,8.4170491,9.3898835)" />
    <path
       style="fill:#ffec8c;stroke:none;stroke-width:0.470592;stroke-dasharray:none"
       d="M 4.1555144,4.7650996 C 4.1710787,4.7417535 4.1866421,4.7365657 4.2450077,4.5601715 4.3033733,4.3837774 4.4045365,4.0361905 4.5316432,3.8247802 4.6587498,3.6133699 4.8117917,3.538146 4.9635412,3.5394438 5.1152907,3.5407416 5.2657387,3.6185595 5.261846,3.8351605 5.2579534,4.0517616 5.0997237,4.4071301 4.9842908,4.6392926 4.8688578,4.8714551 4.7962278,4.9804001 4.674309,5.05822 4.5523902,5.13604 4.3811906,5.1827307 4.278728,5.1464138 4.1762653,5.1100969 4.1425442,4.9907762 4.1334655,4.9103621 4.1243867,4.829948 4.1399501,4.7884458 4.1555144,4.7650996 Z"
       id="path228"
       transform="matrix(-0.77562189,-0.63119781,-0.63119781,0.77562189,10.573534,2.9061024)" />
    <path
       style="fill:#63342f;stroke:none;stroke-width:0.470592;stroke-dasharray:none"
       d="m 4.2501942,4.5951937 c 0.0013,-0.027237 0.00389,-0.08171 0.012545,-0.1552528 0.00866,-0.073543 0.023372,-0.1661532 0.00651,-0.2297058 -0.016861,-0.063553 -0.065298,-0.098046 -0.106378,-0.1347485 -0.04108,-0.036702 -0.074801,-0.075611 -0.1529942,-0.079745 -0.078193,-0.00413 -0.2008526,0.026507 -0.2631085,0.087466 -0.062256,0.060959 -0.064106,0.1522334 -0.065031,0.2471574 -9.25e-4,0.094924 -9.25e-4,0.1934946 0.034095,0.2570474 0.035019,0.063553 0.1050557,0.092086 0.1737969,0.1037587 0.068741,0.011673 0.1361834,0.00648 0.1958455,-0.00778 0.059662,-0.014267 0.1115408,-0.037612 0.1374805,-0.049285 0.02594,-0.011673 0.025941,-0.011673 0.027238,-0.03891 z"
       id="path124"
       transform="matrix(1.4451956,0,0,1.4451956,-1.6046235,-2.0565222)" />
  </g>
  <g
     id="g243"
     transform="matrix(-1.0624885,0,0,1.0624885,34.131201,-0.26453462)">
    <rect
       style="fill:#bdca31;fill-opacity:0;stroke:none;stroke-width:0.497953"
       id="rect232"
       width="7.9687138"
       height="7.9687138"
       x="0.24897645"
       y="0.24897645" />
    <path
       style="fill:none;stroke:#457b47;stroke-width:0.5;stroke-dasharray:none"
       d="m -3.9522133,8.0532551 c 0.016536,-0.022048 0.033073,-0.044097 0.055121,-0.1185126 0.022049,-0.074415 0.049609,-0.2011927 0.00827,-0.3279733 -0.041342,-0.1267806 -0.151581,-0.2535552 -0.1770057,-0.4967661 -0.025425,-0.2432108 0.033969,-0.6028381 0.063401,-0.9522638 0.029432,-0.3494257 0.028902,-0.6886473 0.028372,-1.0278701"
       id="path232"
       transform="matrix(-0.94118667,0,0,0.94118667,0.24897672,0.24897645)" />
    <ellipse
       style="fill:#86a336;stroke:#86a336;stroke-width:0.470592;stroke-dasharray:none"
       id="ellipse232"
       cx="-3.9586256"
       cy="4.4860306"
       rx="0.27513337"
       ry="0.67132545"
       transform="scale(-1,1)" />
    <path
       style="fill:#ffec8c;stroke:none;stroke-width:0.470592;stroke-dasharray:none"
       d="M 4.1555144,4.7650996 C 4.1710787,4.7417535 4.1866421,4.7365657 4.2450077,4.5601715 4.3033733,4.3837774 4.4045365,4.0361905 4.5316432,3.8247802 4.6587498,3.6133699 4.8117917,3.538146 4.9635412,3.5394438 5.1152907,3.5407416 5.2657387,3.6185595 5.261846,3.8351605 5.2579534,4.0517616 5.0997237,4.4071301 4.9842908,4.6392926 4.8688578,4.8714551 4.7962278,4.9804001 4.674309,5.05822 4.5523902,5.13604 4.3811906,5.1827307 4.278728,5.1464138 4.1762653,5.1100969 4.1425442,4.9907762 4.1334655,4.9103621 4.1243867,4.829948 4.1399501,4.7884458 4.1555144,4.7650996 Z"
       id="path233"
       transform="matrix(1.1167527,0,0,1.0781479,-0.56921577,-1.0803792)" />
    <path
       style="fill:#ffec8c;stroke:none;stroke-width:0.470592;stroke-dasharray:none"
       d="M 4.1555144,4.7650996 C 4.1710787,4.7417535 4.1866421,4.7365657 4.2450077,4.5601715 4.3033733,4.3837774 4.4045365,4.0361905 4.5316432,3.8247802 4.6587498,3.6133699 4.8117917,3.538146 4.9635412,3.5394438 5.1152907,3.5407416 5.2657387,3.6185595 5.261846,3.8351605 5.2579534,4.0517616 5.0997237,4.4071301 4.9842908,4.6392926 4.8688578,4.8714551 4.7962278,4.9804001 4.674309,5.05822 4.5523902,5.13604 4.3811906,5.1827307 4.278728,5.1464138 4.1762653,5.1100969 4.1425442,4.9907762 4.1334655,4.9103621 4.1243867,4.829948 4.1399501,4.7884458 4.1555144,4.7650996 Z"
       id="path234"
       transform="matrix(-1.1994525,0,0,1.0883411,9.1880379,-1.1251833)" />
    <path
       style="fill:#ffec8c;stroke:none;stroke-width:0.470592;stroke-dasharray:none"
       d="M 4.1555144,4.7650996 C 4.1710787,4.7417535 4.1866421,4.7365657 4.2450077,4.5601715 4.3033733,4.3837774 4.4045365,4.0361905 4.5316432,3.8247802 4.6587498,3.6133699 4.8117917,3.538146 4.9635412,3.5394438 5.1152907,3.5407416 5.2657387,3.6185595 5.261846,3.8351605 5.2579534,4.0517616 5.0997237,4.4071301 4.9842908,4.6392926 4.8688578,4.8714551 4.7962278,4.9804001 4.674309,5.05822 4.5523902,5.13604 4.3811906,5.1827307 4.278728,5.1464138 4.1762653,5.1100969 4.1425442,4.9907762 4.1334655,4.9103621 4.1243867,4.829948 4.1399501,4.7884458 4.1555144,4.7650996 Z"
       id="path235"
       transform="matrix(-1.0049564,0.52465274,0.5097407,1.0343555,5.7075841,-3.1311353)" />
    <path
       style="fill:#ffec8c;stroke:none;stroke-width:0.470592;stroke-dasharray:none"
       d="M 4.1555144,4.7650996 C 4.1710787,4.7417535 4.1866421,4.7365657 4.2450077,4.5601715 4.3033733,4.3837774 4.4045365,4.0361905 4.5316432,3.8247802 4.6587498,3.6133699 4.8117917,3.538146 4.9635412,3.5394438 5.1152907,3.5407416 5.2657387,3.6185595 5.261846,3.8351605 5.2579534,4.0517616 5.0997237,4.4071301 4.9842908,4.6392926 4.8688578,4.8714551 4.7962278,4.9804001 4.674309,5.05822 4.5523902,5.13604 4.3811906,5.1827307 4.278728,5.1464138 4.1762653,5.1100969 4.1425442,4.9907762 4.1334655,4.9103621 4.1243867,4.829948 4.1399501,4.7884458 4.1555144,4.7650996 Z"
       id="path236"
       transform="matrix(-0.4458275,0.92025864,1.0484678,0.39131066,0.71322438,-1.634468)" />
    <path
       style="fill:#ffec8c;stroke:none;stroke-width:0.470592;stroke-dasharray:none"
       d="M 4.1555144,4.7650996 C 4.1710787,4.7417535 4.1866421,4.7365657 4.2450077,4.5601715 4.3033733,4.3837774 4.4045365,4.0361905 4.5316432,3.8247802 4.6587498,3.6133699 4.8117917,3.538146 4.9635412,3.5394438 5.1152907,3.5407416 5.2657387,3.6185595 5.261846,3.8351605 5.2579534,4.0517616 5.0997237,4.4071301 4.9842908,4.6392926 4.8688578,4.8714551 4.7962278,4.9804001 4.674309,5.05822 4.5523902,5.13604 4.3811906,5.1827307 4.278728,5.1464138 4.1762653,5.1100969 4.1425442,4.9907762 4.1334655,4.9103621 4.1243867,4.829948 4.1399501,4.7884458 4.1555144,4.7650996 Z"
       id="path237"
       transform="matrix(0.38962152,0.98070343,1.0042729,-0.38047741,-2.7065147,1.8623448)" />
    <path
       style="fill:#ffec8c;stroke:none;stroke-width:0.470592;stroke-dasharray:none"
       d="M 4.1555144,4.7650996 C 4.1710787,4.7417535 4.1866421,4.7365657 4.2450077,4.5601715 4.3033733,4.3837774 4.4045365,4.0361905 4.5316432,3.8247802 4.6587498,3.6133699 4.8117917,3.538146 4.9635412,3.5394438 5.1152907,3.5407416 5.2657387,3.6185595 5.261846,3.8351605 5.2579534,4.0517616 5.0997237,4.4071301 4.9842908,4.6392926 4.8688578,4.8714551 4.7962278,4.9804001 4.674309,5.05822 4.5523902,5.13604 4.3811906,5.1827307 4.278728,5.1464138 4.1762653,5.1100969 4.1425442,4.9907762 4.1334655,4.9103621 4.1243867,4.829948 4.1399501,4.7884458 4.1555144,4.7650996 Z"
       id="path238"
       transform="matrix(0.84339525,0.73385094,0.7224098,-0.85675249,-3.0292634,5.2873956)" />
    <path
       style="fill:#ffec8c;stroke:none;stroke-width:0.470592;stroke-dasharray:none"
       d="M 4.1555144,4.7650996 C 4.1710787,4.7417535 4.1866421,4.7365657 4.2450077,4.5601715 4.3033733,4.3837774 4.4045365,4.0361905 4.5316432,3.8247802 4.6587498,3.6133699 4.8117917,3.538146 4.9635412,3.5394438 5.1152907,3.5407416 5.2657387,3.6185595 5.261846,3.8351605 5.2579534,4.0517616 5.0997237,4.4071301 4.9842908,4.6392926 4.8688578,4.8714551 4.7962278,4.9804001 4.674309,5.05822 4.5523902,5.13604 4.3811906,5.1827307 4.278728,5.1464138 4.1762653,5.1100969 4.1425442,4.9907762 4.1334655,4.9103621 4.1243867,4.829948 4.1399501,4.7884458 4.1555144,4.7650996 Z"
       id="path239"
       transform="matrix(1.1065765,-0.0047753,-0.00493181,-1.0714598,-0.44104367,9.5975468)" />
    <path
       style="fill:#ffec8c;stroke:none;stroke-width:0.470592;stroke-dasharray:none"
       d="M 4.1555144,4.7650996 C 4.1710787,4.7417535 4.1866421,4.7365657 4.2450077,4.5601715 4.3033733,4.3837774 4.4045365,4.0361905 4.5316432,3.8247802 4.6587498,3.6133699 4.8117917,3.538146 4.9635412,3.5394438 5.1152907,3.5407416 5.2657387,3.6185595 5.261846,3.8351605 5.2579534,4.0517616 5.0997237,4.4071301 4.9842908,4.6392926 4.8688578,4.8714551 4.7962278,4.9804001 4.674309,5.05822 4.5523902,5.13604 4.3811906,5.1827307 4.278728,5.1464138 4.1762653,5.1100969 4.1425442,4.9907762 4.1334655,4.9103621 4.1243867,4.829948 4.1399501,4.7884458 4.1555144,4.7650996 Z"
       id="path240"
       transform="matrix(0.73255511,-0.77261952,-0.76167547,-0.74308074,4.8761553,11.379509)" />
    <path
       style="fill:#ffec8c;stroke:none;stroke-width:0.470592;stroke-dasharray:none"
       d="M 4.1555144,4.7650996 C 4.1710787,4.7417535 4.1866421,4.7365657 4.2450077,4.5601715 4.3033733,4.3837774 4.4045365,4.0361905 4.5316432,3.8247802 4.6587498,3.6133699 4.8117917,3.538146 4.9635412,3.5394438 5.1152907,3.5407416 5.2657387,3.6185595 5.261846,3.8351605 5.2579534,4.0517616 5.0997237,4.4071301 4.9842908,4.6392926 4.8688578,4.8714551 4.7962278,4.9804001 4.674309,5.05822 4.5523902,5.13604 4.3811906,5.1827307 4.278728,5.1464138 4.1762653,5.1100969 4.1425442,4.9907762 4.1334655,4.9103621 4.1243867,4.829948 4.1399501,4.7884458 4.1555144,4.7650996 Z"
       id="path241"
       transform="matrix(0.19481597,-0.98083981,-0.98083981,-0.19481597,8.4170491,9.3898835)" />
    <path
       style="fill:#ffec8c;stroke:none;stroke-width:0.470592;stroke-dasharray:none"
       d="M 4.1555144,4.7650996 C 4.1710787,4.7417535 4.1866421,4.7365657 4.2450077,4.5601715 4.3033733,4.3837774 4.4045365,4.0361905 4.5316432,3.8247802 4.6587498,3.6133699 4.8117917,3.538146 4.9635412,3.5394438 5.1152907,3.5407416 5.2657387,3.6185595 5.261846,3.8351605 5.2579534,4.0517616 5.0997237,4.4071301 4.9842908,4.6392926 4.8688578,4.8714551 4.7962278,4.9804001 4.674309,5.05822 4.5523902,5.13604 4.3811906,5.1827307 4.278728,5.1464138 4.1762653,5.1100969 4.1425442,4.9907762 4.1334655,4.9103621 4.1243867,4.829948 4.1399501,4.7884458 4.1555144,4.7650996 Z"
       id="path242"
       transform="matrix(-0.77562189,-0.7117627,-0.63119781,0.8746208,10.573534,2.7400549)" />
    <ellipse
       style="fill:#f04816;stroke:none;stroke-width:0.63695;stroke-dasharray:none"
       id="path268"
       cx="1.4212233"
       cy="5.7539296"
       transform="matrix(-0.47355304,0.8807653,0.90649524,0.42221603,0,0)"
       rx="0.28865203"
       ry="0.17756806" />
    <ellipse
       style="fill:#f04816;stroke:none;stroke-width:0.703254;stroke-dasharray:none"
       id="ellipse269"
       cx="-2.5876372"
       cy="5.0684977"
       transform="matrix(-0.977116,0.21270711,0.4452621,0.89540028,0,0)"
       rx="0.38321298"
       ry="0.16304734" />
    <ellipse
       style="fill:#f04816;stroke:none;stroke-width:0.70483;stroke-dasharray:none"
       id="ellipse270"
       cx="-5.7728047"
       cy="3.7011535"
       transform="matrix(-0.99036529,-0.1384796,-0.25031422,0.96816465,0,0)"
       rx="0.37626985"
       ry="0.16680098" />
    <ellipse
       style="fill:#f04816;stroke:none;stroke-width:0.805591;stroke-dasharray:none"
       id="ellipse271"
       cx="-6.6987605"
       cy="-0.45713925"
       transform="matrix(-0.63997193,-0.76839829,-0.70465961,0.70954551,0,0)"
       rx="0.37455812"
       ry="0.2188966" />
    <ellipse
       style="fill:#f04816;stroke:none;stroke-width:0.740349;stroke-dasharray:none"
       id="ellipse272"
       cx="-3.6827977"
       cy="-4.7856841"
       transform="matrix(0.15561594,-0.98781763,-0.96357103,-0.26745257,0,0)"
       rx="0.39006621"
       ry="0.17752701" />
    <ellipse
       style="fill:#f04816;stroke:none;stroke-width:0.732979;stroke-dasharray:none"
       id="ellipse273"
       cx="-0.70648372"
       cy="-5.9100032"
       transform="matrix(0.77101556,-0.6368163,-0.70003986,-0.71410377,0,0)"
       rx="0.34091434"
       ry="0.19909842" />
    <ellipse
       style="fill:#f04816;stroke:none;stroke-width:0.659415;stroke-dasharray:none"
       id="ellipse274"
       cx="2.7503231"
       cy="-4.5503492"
       transform="matrix(0.99606298,-0.08864839,-0.17930269,-0.98379395,0,0)"
       rx="0.36298937"
       ry="0.15133981" />
    <ellipse
       style="fill:#f04816;stroke:none;stroke-width:0.648596;stroke-dasharray:none"
       id="ellipse275"
       cx="4.9015307"
       cy="-2.6086297"
       transform="matrix(0.95290623,0.30326509,0.37955897,-0.92516755,0,0)"
       rx="0.31530619"
       ry="0.16855627" />
    <ellipse
       style="fill:#f04816;stroke:none;stroke-width:0.629452;stroke-dasharray:none"
       id="ellipse276"
       cx="5.3261104"
       cy="-0.0066121458"
       transform="matrix(0.7302564,0.68317318,0.58706441,-0.80954023,0,0)"
       rx="0.28793457"
       ry="0.17384441" />
    <ellipse
       style="fill:#f04816;stroke:none;stroke-width:0.543704;stroke-dasharray:none"
       id="ellipse277"
       cx="3.7387285"
       cy="4.1562262"
       transform="matrix(0.02031593,0.99979361,0.99934548,-0.0361747,0,0)"
       rx="0.29077545"
       ry="0.12843899" />
    <path
       style="fill:#63342f;stroke:none;stroke-width:0.470592;stroke-dasharray:none"
       d="m 4.2501942,4.5951937 c 0.0013,-0.027237 0.00389,-0.08171 0.012545,-0.1552528 0.00866,-0.073543 0.023372,-0.1661532 0.00651,-0.2297058 -0.016861,-0.063553 -0.065298,-0.098046 -0.106378,-0.1347485 -0.04108,-0.036702 -0.074801,-0.075611 -0.1529942,-0.079745 -0.078193,-0.00413 -0.2008526,0.026507 -0.2631085,0.087466 -0.062256,0.060959 -0.064106,0.1522334 -0.065031,0.2471574 -9.25e-4,0.094924 -9.25e-4,0.1934946 0.034095,0.2570474 0.035019,0.063553 0.1050557,0.092086 0.1737969,0.1037587 0.068741,0.011673 0.1361834,0.00648 0.1958455,-0.00778 0.059662,-0.014267 0.1115408,-0.037612 0.1374805,-0.049285 0.02594,-0.011673 0.025941,-0.011673 0.027238,-0.03891 z"
       id="path243"
       transform="matrix(1.4451956,0,0,1.4451956,-1.6046235,-2.0565222)" />
  </g>
</svg>
