<?xml version="1.0" encoding="UTF-8" standalone="no"?>
<!-- Created with Inkscape (http://www.inkscape.org/) -->

<svg
   width="64.000008"
   height="64.000008"
   viewBox="0 0 16.933335 16.933335"
   version="1.1"
   id="svg1"
   xmlns="http://www.w3.org/2000/svg"
   xmlns:svg="http://www.w3.org/2000/svg">
  <defs
     id="defs1" />
  <g
     id="g32"
     transform="translate(-8.478902,-11.801772)">
    <rect
       style="fill:none;fill-opacity:0.921569;stroke:none;stroke-width:4.36359"
       id="rect225"
       width="15.937428"
       height="15.937428"
       x="7.7312517"
       y="11.356647"
       transform="matrix(1.0624885,0,0,1.0624885,0.26453492,-0.26453461)" />
  </g>
  <g
     id="g243"
     transform="matrix(-1.0624885,0,0,1.0624885,17.185633,-12.066307)">
    <g
       id="g323"
       transform="translate(0.04402134,3.1695364)">
      <path
         style="fill:#457b47;fill-opacity:1;stroke:none;stroke-width:0.470592;stroke-dasharray:none"
         d="m 8.7191529,19.368911 c 0.058696,-0.0073 0.1760853,-0.02201 0.6346487,-0.102717 0.4585635,-0.08071 1.2582684,-0.227441 1.7681844,-0.22744 0.509916,10e-7 0.730018,0.146736 0.71901,0.293475 -0.01101,0.14674 -0.25312,0.293474 -0.660323,0.370512 -0.407203,0.07704 -0.979469,0.08437 -1.4123487,0.05869 -0.4328795,-0.02568 -0.7263486,-0.08437 -0.8877609,-0.154076 -0.1614123,-0.0697 -0.1907587,-0.150405 -0.2054325,-0.190757 -0.014674,-0.04035 -0.014674,-0.04035 0.044022,-0.04769 z"
         id="path322"
         transform="translate(-0.13206402,-0.06603201)" />
      <path
         style="fill:none;fill-opacity:1;stroke:#86a336;stroke-width:0.470592;stroke-dasharray:none"
         d="M 9.694959,21.159113 C 9.5702316,21.144439 9.4455046,21.129765 9.2400688,20.953676 9.0346329,20.777587 8.7485001,20.440097 8.6201048,19.669712 8.4917096,18.899326 8.5210566,17.6961 8.4586916,16.973414 8.3963265,16.250728 8.242255,16.008616 8.2019016,15.843537 8.1615482,15.678457 8.2349182,15.590413 8.3082872,15.50237"
         id="path320"
         transform="translate(-0.02201067,0.57227741)" />
      <g
         id="g279">
        <path
           style="fill:#ffec8c;fill-opacity:1;stroke:none;stroke-width:0.470592;stroke-dasharray:none"
           d="m 9.7222002,14.536631 c 0.072631,-0.06226 0.2178945,-0.186767 0.4565438,-0.643315 0.23865,-0.456549 0.570673,-1.245104 0.700372,-1.805407 0.129698,-0.560303 0.05707,-0.892327 -0.08301,-1.073906 -0.140077,-0.181578 -0.347593,-0.212705 -0.622558,-0.05706 -0.2749646,0.155643 -0.6173635,0.498042 -0.8508232,0.918272 -0.2334598,0.42023 -0.3579685,0.918265 -0.4098478,1.296989 -0.051879,0.378724 -0.031128,0.638117 0.031129,0.845637 0.062257,0.20752 0.1660138,0.363156 0.2905262,0.451352 0.1245124,0.0882 0.2697719,0.10895 0.3424039,0.119326 0.072632,0.01038 0.072632,0.01037 0.1452632,-0.05189 z"
           id="path277"
           transform="rotate(9.1301614,13.408274,12.250184)" />
        <path
           style="fill:#e96c2a;fill-opacity:1;stroke:none;stroke-width:0.470592;stroke-dasharray:none"
           d="m 10.072387,13.194247 c 0.03372,-0.0428 0.101166,-0.128404 0.207521,-0.285342 0.106355,-0.156938 0.251615,-0.385204 0.299603,-0.582349 0.04799,-0.197145 -0.0013,-0.363156 -0.09987,-0.496747 -0.09857,-0.133591 -0.246427,-0.234754 -0.448761,-0.289228 -0.2023333,-0.05448 -0.4591316,-0.06226 -0.6523846,-0.0078 -0.193253,0.05447 -0.3229497,0.171201 -0.4124426,0.321654 -0.089493,0.150453 -0.1387776,0.334622 -0.1400741,0.5175 -0.0013,0.182877 0.045394,0.364452 0.1815807,0.503231 0.1361865,0.138779 0.3618583,0.234755 0.5252796,0.306089 0.1634213,0.07133 0.2645844,0.118026 0.344933,0.118221 0.080349,1.96e-4 0.132217,-0.04015 0.146554,-0.0513 0.01434,-0.01115 0.01434,-0.01115 0.04806,-0.05395 z"
           id="path279"
           transform="translate(-0.01556389,0.05447363)" />
      </g>
      <g
         id="g281"
         transform="rotate(-13.250999,5.478554,17.240801)">
        <path
           style="fill:#ffec8c;fill-opacity:1;stroke:none;stroke-width:0.470592;stroke-dasharray:none"
           d="m 9.7222002,14.536631 c 0.072631,-0.06226 0.2178945,-0.186767 0.4565438,-0.643315 0.23865,-0.456549 0.570673,-1.245104 0.700372,-1.805407 0.129698,-0.560303 0.05707,-0.892327 -0.08301,-1.073906 -0.140077,-0.181578 -0.347593,-0.212705 -0.622558,-0.05706 -0.2749646,0.155643 -0.6173635,0.498042 -0.8508232,0.918272 -0.2334598,0.42023 -0.3579685,0.918265 -0.4098478,1.296989 -0.051879,0.378724 -0.031128,0.638117 0.031129,0.845637 0.062257,0.20752 0.1660138,0.363156 0.2905262,0.451352 0.1245124,0.0882 0.2697719,0.10895 0.3424039,0.119326 0.072632,0.01038 0.072632,0.01037 0.1452632,-0.05189 z"
           id="path280"
           transform="rotate(9.1301614,13.408274,12.250184)" />
        <path
           style="fill:#e96c2a;fill-opacity:1;stroke:none;stroke-width:0.470592;stroke-dasharray:none"
           d="m 10.072387,13.194247 c 0.03372,-0.0428 0.101166,-0.128404 0.207521,-0.285342 0.106355,-0.156938 0.251615,-0.385204 0.299603,-0.582349 0.04799,-0.197145 -0.0013,-0.363156 -0.09987,-0.496747 -0.09857,-0.133591 -0.246427,-0.234754 -0.448761,-0.289228 -0.2023333,-0.05448 -0.4591316,-0.06226 -0.6523846,-0.0078 -0.193253,0.05447 -0.3229497,0.171201 -0.4124426,0.321654 -0.089493,0.150453 -0.1387776,0.334622 -0.1400741,0.5175 -0.0013,0.182877 0.045394,0.364452 0.1815807,0.503231 0.1361865,0.138779 0.3618583,0.234755 0.5252796,0.306089 0.1634213,0.07133 0.2645844,0.118026 0.344933,0.118221 0.080349,1.96e-4 0.132217,-0.04015 0.146554,-0.0513 0.01434,-0.01115 0.01434,-0.01115 0.04806,-0.05395 z"
           id="path281"
           transform="translate(-0.01556389,0.05447363)" />
      </g>
      <g
         id="g285"
         transform="rotate(-48.562459,8.2995878,14.919531)">
        <path
           style="fill:#ffec8c;fill-opacity:1;stroke:none;stroke-width:0.470592;stroke-dasharray:none"
           d="m 9.7222002,14.536631 c 0.072631,-0.06226 0.2178945,-0.186767 0.4565438,-0.643315 0.23865,-0.456549 0.570673,-1.245104 0.700372,-1.805407 0.129698,-0.560303 0.05707,-0.892327 -0.08301,-1.073906 -0.140077,-0.181578 -0.347593,-0.212705 -0.622558,-0.05706 -0.2749646,0.155643 -0.6173635,0.498042 -0.8508232,0.918272 -0.2334598,0.42023 -0.3579685,0.918265 -0.4098478,1.296989 -0.051879,0.378724 -0.031128,0.638117 0.031129,0.845637 0.062257,0.20752 0.1660138,0.363156 0.2905262,0.451352 0.1245124,0.0882 0.2697719,0.10895 0.3424039,0.119326 0.072632,0.01038 0.072632,0.01037 0.1452632,-0.05189 z"
           id="path284"
           transform="rotate(9.1301614,13.408274,12.250184)" />
        <path
           style="fill:#e96c2a;fill-opacity:1;stroke:none;stroke-width:0.470592;stroke-dasharray:none"
           d="m 10.072387,13.194247 c 0.03372,-0.0428 0.101166,-0.128404 0.207521,-0.285342 0.106355,-0.156938 0.251615,-0.385204 0.299603,-0.582349 0.04799,-0.197145 -0.0013,-0.363156 -0.09987,-0.496747 -0.09857,-0.133591 -0.246427,-0.234754 -0.448761,-0.289228 -0.2023333,-0.05448 -0.4591316,-0.06226 -0.6523846,-0.0078 -0.193253,0.05447 -0.3229497,0.171201 -0.4124426,0.321654 -0.089493,0.150453 -0.1387776,0.334622 -0.1400741,0.5175 -0.0013,0.182877 0.045394,0.364452 0.1815807,0.503231 0.1361865,0.138779 0.3618583,0.234755 0.5252796,0.306089 0.1634213,0.07133 0.2645844,0.118026 0.344933,0.118221 0.080349,1.96e-4 0.132217,-0.04015 0.146554,-0.0513 0.01434,-0.01115 0.01434,-0.01115 0.04806,-0.05395 z"
           id="path285"
           transform="translate(-0.01556389,0.05447363)" />
      </g>
      <g
         id="g289"
         transform="rotate(-67.426241,8.5819769,14.975712)">
        <path
           style="fill:#ffec8c;fill-opacity:1;stroke:none;stroke-width:0.470592;stroke-dasharray:none"
           d="m 9.7222002,14.536631 c 0.072631,-0.06226 0.2178945,-0.186767 0.4565438,-0.643315 0.23865,-0.456549 0.570673,-1.245104 0.700372,-1.805407 0.129698,-0.560303 0.05707,-0.892327 -0.08301,-1.073906 -0.140077,-0.181578 -0.347593,-0.212705 -0.622558,-0.05706 -0.2749646,0.155643 -0.6173635,0.498042 -0.8508232,0.918272 -0.2334598,0.42023 -0.3579685,0.918265 -0.4098478,1.296989 -0.051879,0.378724 -0.031128,0.638117 0.031129,0.845637 0.062257,0.20752 0.1660138,0.363156 0.2905262,0.451352 0.1245124,0.0882 0.2697719,0.10895 0.3424039,0.119326 0.072632,0.01038 0.072632,0.01037 0.1452632,-0.05189 z"
           id="path288"
           transform="rotate(9.1301614,13.408274,12.250184)" />
        <path
           style="fill:#e96c2a;fill-opacity:1;stroke:none;stroke-width:0.470592;stroke-dasharray:none"
           d="m 10.072387,13.194247 c 0.03372,-0.0428 0.101166,-0.128404 0.207521,-0.285342 0.106355,-0.156938 0.251615,-0.385204 0.299603,-0.582349 0.04799,-0.197145 -0.0013,-0.363156 -0.09987,-0.496747 -0.09857,-0.133591 -0.246427,-0.234754 -0.448761,-0.289228 -0.2023333,-0.05448 -0.4591316,-0.06226 -0.6523846,-0.0078 -0.193253,0.05447 -0.3229497,0.171201 -0.4124426,0.321654 -0.089493,0.150453 -0.1387776,0.334622 -0.1400741,0.5175 -0.0013,0.182877 0.045394,0.364452 0.1815807,0.503231 0.1361865,0.138779 0.3618583,0.234755 0.5252796,0.306089 0.1634213,0.07133 0.2645844,0.118026 0.344933,0.118221 0.080349,1.96e-4 0.132217,-0.04015 0.146554,-0.0513 0.01434,-0.01115 0.01434,-0.01115 0.04806,-0.05395 z"
           id="path289"
           transform="translate(-0.01556389,0.05447363)" />
      </g>
      <g
         id="g293"
         transform="rotate(-87.385671,8.8999313,14.913653)">
        <path
           style="fill:#ffec8c;fill-opacity:1;stroke:none;stroke-width:0.470592;stroke-dasharray:none"
           d="m 9.7222002,14.536631 c 0.072631,-0.06226 0.2178945,-0.186767 0.4565438,-0.643315 0.23865,-0.456549 0.570673,-1.245104 0.700372,-1.805407 0.129698,-0.560303 0.05707,-0.892327 -0.08301,-1.073906 -0.140077,-0.181578 -0.347593,-0.212705 -0.622558,-0.05706 -0.2749646,0.155643 -0.6173635,0.498042 -0.8508232,0.918272 -0.2334598,0.42023 -0.3579685,0.918265 -0.4098478,1.296989 -0.051879,0.378724 -0.031128,0.638117 0.031129,0.845637 0.062257,0.20752 0.1660138,0.363156 0.2905262,0.451352 0.1245124,0.0882 0.2697719,0.10895 0.3424039,0.119326 0.072632,0.01038 0.072632,0.01037 0.1452632,-0.05189 z"
           id="path292"
           transform="rotate(9.1301614,13.408274,12.250184)" />
        <path
           style="fill:#e96c2a;fill-opacity:1;stroke:none;stroke-width:0.470592;stroke-dasharray:none"
           d="m 10.072387,13.194247 c 0.03372,-0.0428 0.101166,-0.128404 0.207521,-0.285342 0.106355,-0.156938 0.251615,-0.385204 0.299603,-0.582349 0.04799,-0.197145 -0.0013,-0.363156 -0.09987,-0.496747 -0.09857,-0.133591 -0.246427,-0.234754 -0.448761,-0.289228 -0.2023333,-0.05448 -0.4591316,-0.06226 -0.6523846,-0.0078 -0.193253,0.05447 -0.3229497,0.171201 -0.4124426,0.321654 -0.089493,0.150453 -0.1387776,0.334622 -0.1400741,0.5175 -0.0013,0.182877 0.045394,0.364452 0.1815807,0.503231 0.1361865,0.138779 0.3618583,0.234755 0.5252796,0.306089 0.1634213,0.07133 0.2645844,0.118026 0.344933,0.118221 0.080349,1.96e-4 0.132217,-0.04015 0.146554,-0.0513 0.01434,-0.01115 0.01434,-0.01115 0.04806,-0.05395 z"
           id="path293"
           transform="translate(-0.01556389,0.05447363)" />
      </g>
      <g
         id="g297"
         transform="rotate(-137.41195,8.85775,14.313851)">
        <path
           style="fill:#ffec8c;fill-opacity:1;stroke:none;stroke-width:0.470592;stroke-dasharray:none"
           d="m 9.7222002,14.536631 c 0.072631,-0.06226 0.2178945,-0.186767 0.4565438,-0.643315 0.23865,-0.456549 0.570673,-1.245104 0.700372,-1.805407 0.129698,-0.560303 0.05707,-0.892327 -0.08301,-1.073906 -0.140077,-0.181578 -0.347593,-0.212705 -0.622558,-0.05706 -0.2749646,0.155643 -0.6173635,0.498042 -0.8508232,0.918272 -0.2334598,0.42023 -0.3579685,0.918265 -0.4098478,1.296989 -0.051879,0.378724 -0.031128,0.638117 0.031129,0.845637 0.062257,0.20752 0.1660138,0.363156 0.2905262,0.451352 0.1245124,0.0882 0.2697719,0.10895 0.3424039,0.119326 0.072632,0.01038 0.072632,0.01037 0.1452632,-0.05189 z"
           id="path296"
           transform="rotate(9.1301614,13.408274,12.250184)" />
        <path
           style="fill:#e96c2a;fill-opacity:1;stroke:none;stroke-width:0.470592;stroke-dasharray:none"
           d="m 10.072387,13.194247 c 0.03372,-0.0428 0.101166,-0.128404 0.207521,-0.285342 0.106355,-0.156938 0.251615,-0.385204 0.299603,-0.582349 0.04799,-0.197145 -0.0013,-0.363156 -0.09987,-0.496747 -0.09857,-0.133591 -0.246427,-0.234754 -0.448761,-0.289228 -0.2023333,-0.05448 -0.4591316,-0.06226 -0.6523846,-0.0078 -0.193253,0.05447 -0.3229497,0.171201 -0.4124426,0.321654 -0.089493,0.150453 -0.1387776,0.334622 -0.1400741,0.5175 -0.0013,0.182877 0.045394,0.364452 0.1815807,0.503231 0.1361865,0.138779 0.3618583,0.234755 0.5252796,0.306089 0.1634213,0.07133 0.2645844,0.118026 0.344933,0.118221 0.080349,1.96e-4 0.132217,-0.04015 0.146554,-0.0513 0.01434,-0.01115 0.01434,-0.01115 0.04806,-0.05395 z"
           id="path297"
           transform="translate(-0.01556389,0.05447363)" />
      </g>
      <g
         id="g301"
         transform="rotate(177.36906,8.6701634,14.046101)">
        <path
           style="fill:#ffec8c;fill-opacity:1;stroke:none;stroke-width:0.470592;stroke-dasharray:none"
           d="m 9.7222002,14.536631 c 0.072631,-0.06226 0.2178945,-0.186767 0.4565438,-0.643315 0.23865,-0.456549 0.570673,-1.245104 0.700372,-1.805407 0.129698,-0.560303 0.05707,-0.892327 -0.08301,-1.073906 -0.140077,-0.181578 -0.347593,-0.212705 -0.622558,-0.05706 -0.2749646,0.155643 -0.6173635,0.498042 -0.8508232,0.918272 -0.2334598,0.42023 -0.3579685,0.918265 -0.4098478,1.296989 -0.051879,0.378724 -0.031128,0.638117 0.031129,0.845637 0.062257,0.20752 0.1660138,0.363156 0.2905262,0.451352 0.1245124,0.0882 0.2697719,0.10895 0.3424039,0.119326 0.072632,0.01038 0.072632,0.01037 0.1452632,-0.05189 z"
           id="path300"
           transform="rotate(9.1301614,13.408274,12.250184)" />
        <path
           style="fill:#e96c2a;fill-opacity:1;stroke:none;stroke-width:0.470592;stroke-dasharray:none"
           d="m 10.072387,13.194247 c 0.03372,-0.0428 0.101166,-0.128404 0.207521,-0.285342 0.106355,-0.156938 0.251615,-0.385204 0.299603,-0.582349 0.04799,-0.197145 -0.0013,-0.363156 -0.09987,-0.496747 -0.09857,-0.133591 -0.246427,-0.234754 -0.448761,-0.289228 -0.2023333,-0.05448 -0.4591316,-0.06226 -0.6523846,-0.0078 -0.193253,0.05447 -0.3229497,0.171201 -0.4124426,0.321654 -0.089493,0.150453 -0.1387776,0.334622 -0.1400741,0.5175 -0.0013,0.182877 0.045394,0.364452 0.1815807,0.503231 0.1361865,0.138779 0.3618583,0.234755 0.5252796,0.306089 0.1634213,0.07133 0.2645844,0.118026 0.344933,0.118221 0.080349,1.96e-4 0.132217,-0.04015 0.146554,-0.0513 0.01434,-0.01115 0.01434,-0.01115 0.04806,-0.05395 z"
           id="path301"
           transform="translate(-0.01556389,0.05447363)" />
      </g>
      <g
         id="g305"
         transform="rotate(142.89902,8.7018332,14.080263)">
        <path
           style="fill:#ffec8c;fill-opacity:1;stroke:none;stroke-width:0.470592;stroke-dasharray:none"
           d="m 9.7222002,14.536631 c 0.072631,-0.06226 0.2178945,-0.186767 0.4565438,-0.643315 0.23865,-0.456549 0.570673,-1.245104 0.700372,-1.805407 0.129698,-0.560303 0.05707,-0.892327 -0.08301,-1.073906 -0.140077,-0.181578 -0.347593,-0.212705 -0.622558,-0.05706 -0.2749646,0.155643 -0.6173635,0.498042 -0.8508232,0.918272 -0.2334598,0.42023 -0.3579685,0.918265 -0.4098478,1.296989 -0.051879,0.378724 -0.031128,0.638117 0.031129,0.845637 0.062257,0.20752 0.1660138,0.363156 0.2905262,0.451352 0.1245124,0.0882 0.2697719,0.10895 0.3424039,0.119326 0.072632,0.01038 0.072632,0.01037 0.1452632,-0.05189 z"
           id="path304"
           transform="rotate(9.1301614,13.408274,12.250184)" />
        <path
           style="fill:#e96c2a;fill-opacity:1;stroke:none;stroke-width:0.470592;stroke-dasharray:none"
           d="m 10.072387,13.194247 c 0.03372,-0.0428 0.101166,-0.128404 0.207521,-0.285342 0.106355,-0.156938 0.251615,-0.385204 0.299603,-0.582349 0.04799,-0.197145 -0.0013,-0.363156 -0.09987,-0.496747 -0.09857,-0.133591 -0.246427,-0.234754 -0.448761,-0.289228 -0.2023333,-0.05448 -0.4591316,-0.06226 -0.6523846,-0.0078 -0.193253,0.05447 -0.3229497,0.171201 -0.4124426,0.321654 -0.089493,0.150453 -0.1387776,0.334622 -0.1400741,0.5175 -0.0013,0.182877 0.045394,0.364452 0.1815807,0.503231 0.1361865,0.138779 0.3618583,0.234755 0.5252796,0.306089 0.1634213,0.07133 0.2645844,0.118026 0.344933,0.118221 0.080349,1.96e-4 0.132217,-0.04015 0.146554,-0.0513 0.01434,-0.01115 0.01434,-0.01115 0.04806,-0.05395 z"
           id="path305"
           transform="translate(-0.01556389,0.05447363)" />
      </g>
      <g
         id="g309"
         transform="rotate(107.90699,8.7010222,13.794217)">
        <path
           style="fill:#ffec8c;fill-opacity:1;stroke:none;stroke-width:0.470592;stroke-dasharray:none"
           d="m 9.7222002,14.536631 c 0.072631,-0.06226 0.2178945,-0.186767 0.4565438,-0.643315 0.23865,-0.456549 0.570673,-1.245104 0.700372,-1.805407 0.129698,-0.560303 0.05707,-0.892327 -0.08301,-1.073906 -0.140077,-0.181578 -0.347593,-0.212705 -0.622558,-0.05706 -0.2749646,0.155643 -0.6173635,0.498042 -0.8508232,0.918272 -0.2334598,0.42023 -0.3579685,0.918265 -0.4098478,1.296989 -0.051879,0.378724 -0.031128,0.638117 0.031129,0.845637 0.062257,0.20752 0.1660138,0.363156 0.2905262,0.451352 0.1245124,0.0882 0.2697719,0.10895 0.3424039,0.119326 0.072632,0.01038 0.072632,0.01037 0.1452632,-0.05189 z"
           id="path308"
           transform="rotate(9.1301614,13.408274,12.250184)" />
        <path
           style="fill:#e96c2a;fill-opacity:1;stroke:none;stroke-width:0.470592;stroke-dasharray:none"
           d="m 10.072387,13.194247 c 0.03372,-0.0428 0.101166,-0.128404 0.207521,-0.285342 0.106355,-0.156938 0.251615,-0.385204 0.299603,-0.582349 0.04799,-0.197145 -0.0013,-0.363156 -0.09987,-0.496747 -0.09857,-0.133591 -0.246427,-0.234754 -0.448761,-0.289228 -0.2023333,-0.05448 -0.4591316,-0.06226 -0.6523846,-0.0078 -0.193253,0.05447 -0.3229497,0.171201 -0.4124426,0.321654 -0.089493,0.150453 -0.1387776,0.334622 -0.1400741,0.5175 -0.0013,0.182877 0.045394,0.364452 0.1815807,0.503231 0.1361865,0.138779 0.3618583,0.234755 0.5252796,0.306089 0.1634213,0.07133 0.2645844,0.118026 0.344933,0.118221 0.080349,1.96e-4 0.132217,-0.04015 0.146554,-0.0513 0.01434,-0.01115 0.01434,-0.01115 0.04806,-0.05395 z"
           id="path309"
           transform="translate(-0.01556389,0.05447363)" />
      </g>
      <g
         id="g313"
         transform="rotate(60.64649,8.6093291,13.828976)">
        <path
           style="fill:#ffec8c;fill-opacity:1;stroke:none;stroke-width:0.470592;stroke-dasharray:none"
           d="m 9.7222002,14.536631 c 0.072631,-0.06226 0.2178945,-0.186767 0.4565438,-0.643315 0.23865,-0.456549 0.570673,-1.245104 0.700372,-1.805407 0.129698,-0.560303 0.05707,-0.892327 -0.08301,-1.073906 -0.140077,-0.181578 -0.347593,-0.212705 -0.622558,-0.05706 -0.2749646,0.155643 -0.6173635,0.498042 -0.8508232,0.918272 -0.2334598,0.42023 -0.3579685,0.918265 -0.4098478,1.296989 -0.051879,0.378724 -0.031128,0.638117 0.031129,0.845637 0.062257,0.20752 0.1660138,0.363156 0.2905262,0.451352 0.1245124,0.0882 0.2697719,0.10895 0.3424039,0.119326 0.072632,0.01038 0.072632,0.01037 0.1452632,-0.05189 z"
           id="path312"
           transform="rotate(9.1301614,13.408274,12.250184)" />
        <path
           style="fill:#e96c2a;fill-opacity:1;stroke:none;stroke-width:0.470592;stroke-dasharray:none"
           d="m 10.072387,13.194247 c 0.03372,-0.0428 0.101166,-0.128404 0.207521,-0.285342 0.106355,-0.156938 0.251615,-0.385204 0.299603,-0.582349 0.04799,-0.197145 -0.0013,-0.363156 -0.09987,-0.496747 -0.09857,-0.133591 -0.246427,-0.234754 -0.448761,-0.289228 -0.2023333,-0.05448 -0.4591316,-0.06226 -0.6523846,-0.0078 -0.193253,0.05447 -0.3229497,0.171201 -0.4124426,0.321654 -0.089493,0.150453 -0.1387776,0.334622 -0.1400741,0.5175 -0.0013,0.182877 0.045394,0.364452 0.1815807,0.503231 0.1361865,0.138779 0.3618583,0.234755 0.5252796,0.306089 0.1634213,0.07133 0.2645844,0.118026 0.344933,0.118221 0.080349,1.96e-4 0.132217,-0.04015 0.146554,-0.0513 0.01434,-0.01115 0.01434,-0.01115 0.04806,-0.05395 z"
           id="path313"
           transform="translate(-0.01556389,0.05447363)" />
      </g>
      <g
         id="g317"
         transform="rotate(27.779222,9.4876303,13.578644)">
        <path
           style="fill:#ffec8c;fill-opacity:1;stroke:none;stroke-width:0.470592;stroke-dasharray:none"
           d="m 9.7222002,14.536631 c 0.072631,-0.06226 0.2178945,-0.186767 0.4565438,-0.643315 0.23865,-0.456549 0.570673,-1.245104 0.700372,-1.805407 0.129698,-0.560303 0.05707,-0.892327 -0.08301,-1.073906 -0.140077,-0.181578 -0.347593,-0.212705 -0.622558,-0.05706 -0.2749646,0.155643 -0.6173635,0.498042 -0.8508232,0.918272 -0.2334598,0.42023 -0.3579685,0.918265 -0.4098478,1.296989 -0.051879,0.378724 -0.031128,0.638117 0.031129,0.845637 0.062257,0.20752 0.1660138,0.363156 0.2905262,0.451352 0.1245124,0.0882 0.2697719,0.10895 0.3424039,0.119326 0.072632,0.01038 0.072632,0.01037 0.1452632,-0.05189 z"
           id="path316"
           transform="rotate(9.1301614,13.408274,12.250184)" />
        <path
           style="fill:#e96c2a;fill-opacity:1;stroke:none;stroke-width:0.470592;stroke-dasharray:none"
           d="m 10.072387,13.194247 c 0.03372,-0.0428 0.101166,-0.128404 0.207521,-0.285342 0.106355,-0.156938 0.251615,-0.385204 0.299603,-0.582349 0.04799,-0.197145 -0.0013,-0.363156 -0.09987,-0.496747 -0.09857,-0.133591 -0.246427,-0.234754 -0.448761,-0.289228 -0.2023333,-0.05448 -0.4591316,-0.06226 -0.6523846,-0.0078 -0.193253,0.05447 -0.3229497,0.171201 -0.4124426,0.321654 -0.089493,0.150453 -0.1387776,0.334622 -0.1400741,0.5175 -0.0013,0.182877 0.045394,0.364452 0.1815807,0.503231 0.1361865,0.138779 0.3618583,0.234755 0.5252796,0.306089 0.1634213,0.07133 0.2645844,0.118026 0.344933,0.118221 0.080349,1.96e-4 0.132217,-0.04015 0.146554,-0.0513 0.01434,-0.01115 0.01434,-0.01115 0.04806,-0.05395 z"
           id="path317"
           transform="translate(-0.01556389,0.05447363)" />
      </g>
      <ellipse
         style="fill:#63342f;fill-opacity:1;stroke:none;stroke-width:0.470592;stroke-dasharray:none"
         id="path278"
         cx="-8.482276"
         cy="13.960767"
         transform="scale(-1,1)"
         rx="1.5408255"
         ry="1.6030811" />
      <path
         style="fill:#457b47;fill-opacity:1;stroke:none;stroke-width:0.470592;stroke-dasharray:none"
         d="m 8.2422548,18.385768 c 0,0 0,0 0,0 C 7.4718816,18.114303 6.701508,17.842838 5.9384638,17.67042 5.1754196,17.498003 4.4197341,17.424636 4.3170236,17.608062 c -0.1027105,0.183427 0.4475441,0.623631 1.0088228,0.902435 0.5612788,0.278803 1.1335445,0.396191 1.7278383,0.458554 0.5942939,0.06236 1.2105806,0.0697 1.4123432,-0.03669 C 8.6677904,18.825978 8.4550243,18.605875 8.3486396,18.495822 8.2422548,18.385769 8.2422548,18.385768 8.2422548,18.385768 Z"
         id="path321" />
    </g>
  </g>
</svg>
