<?xml version="1.0" encoding="UTF-8" standalone="no"?>
<!-- Created with Inkscape (http://www.inkscape.org/) -->

<svg
   width="64.000008"
   height="64.000008"
   viewBox="0 0 16.933335 16.933335"
   version="1.1"
   id="svg1"
   xmlns="http://www.w3.org/2000/svg"
   xmlns:svg="http://www.w3.org/2000/svg">
  <defs
     id="defs1" />
  <g
     id="g32"
     transform="translate(-8.478902,-11.801772)">
    <rect
       style="fill:none;fill-opacity:0.921569;stroke:none;stroke-width:4.36359"
       id="rect225"
       width="15.937428"
       height="15.937428"
       x="7.7312517"
       y="11.356647"
       transform="matrix(1.0624885,0,0,1.0624885,0.26453492,-0.26453461)" />
    <path
       style="fill:none;stroke:#86a336;stroke-width:0.2"
       d="m 16.649987,27.735895 c 0.06236,-0.857488 0.124726,-1.714979 0.109134,-2.681615 -0.01559,-0.966635 -0.109134,-2.042374 -0.327407,-2.977825 -0.218274,-0.935451 -0.561263,-1.730562 -0.904259,-2.525689"
       id="path450" />
    <path
       style="fill:#c1759b;stroke:none;stroke-width:0.2"
       d="m 15.492376,18.089137 c 0,-0.02339 0,-0.07015 0.0955,-0.140317 0.0955,-0.07016 0.286477,-0.163704 0.419,-0.206577 0.132523,-0.04287 0.206575,-0.03508 0.329354,0.0916 0.122778,0.126678 0.294273,0.372227 0.374175,0.623629 0.0799,0.251403 0.06821,0.508645 -0.0039,0.65091 -0.07211,0.142266 -0.204629,0.169549 -0.401463,0.194884 -0.196835,0.02533 -0.457975,0.04872 -0.590496,0.04872 -0.132521,-10e-7 -0.136417,-0.02338 -0.185141,-0.01559 -0.04872,0.0078 -0.142261,0.04677 -0.265039,0.09744 -0.122778,0.05067 -0.274786,0.113033 -0.473571,0.02923 -0.198784,-0.0838 -0.444333,-0.313761 -0.596343,-0.563215 -0.15201,-0.249455 -0.210474,-0.518389 -0.150058,-0.695734 0.06042,-0.177346 0.239705,-0.263093 0.444336,-0.313763 0.20463,-0.05067 0.434589,-0.06626 0.600242,-0.03702 0.165653,0.02923 0.266989,0.103288 0.323505,0.153956 0.05652,0.05067 0.06821,0.07796 0.07406,0.0916 0.0058,0.01364 0.0058,0.01364 0.0058,-0.0097 z"
       id="path458"
       transform="translate(-0.04677217,0.23386084)" />
    <path
       style="fill:#9f6093;stroke:none;stroke-width:0.2"
       d="m 15.240976,19.381217 c 0.0058,-0.06431 0.01754,-0.192935 0.05067,-0.270889 0.03313,-0.07795 0.0877,-0.105237 0.136419,-0.07016 0.04872,0.03508 0.09159,0.132522 0.07795,0.206579 -0.01364,0.07406 -0.0838,0.124724 -0.138368,0.153958 -0.05457,0.02923 -0.09354,0.03703 -0.113029,0.04093 -0.01949,0.0039 -0.01949,0.0039 -0.01364,-0.06042 z"
       id="path466" />
    <path
       style="fill:#e084a8;stroke:none;stroke-width:0.2"
       d="m 15.492376,19.071351 c 0,0 0,0 0,0 0.105237,0.03118 0.210475,0.06236 0.341048,0.126672 0.130573,0.06431 0.286478,0.161752 0.364432,0.272837 0.07795,0.111085 0.07795,0.235808 0.02728,0.302069 -0.05067,0.06626 -0.152008,0.07406 -0.241655,0.04872 -0.08965,-0.02533 -0.1676,-0.0838 -0.241657,-0.175396 -0.07406,-0.0916 -0.144214,-0.216321 -0.179293,-0.288428 -0.03508,-0.07211 -0.03508,-0.0916 -0.04093,-0.130578 -0.0058,-0.03898 -0.01754,-0.09744 -0.02339,-0.126673 -0.0058,-0.02923 -0.0058,-0.02923 -0.0058,-0.02923 z"
       id="path470" />
    <path
       style="fill:none;stroke:#86a336;stroke-width:0.2"
       d="m 16.649987,27.735895 c 0.06236,-0.857488 0.124726,-1.714979 0.109134,-2.681615 -0.01559,-0.966635 -0.109134,-2.042374 -0.327407,-2.977825 -0.218274,-0.935451 -0.561263,-1.730562 -0.904259,-2.525689"
       id="path474"
       transform="matrix(-0.72637769,0,0,0.72637769,28.900914,7.3927069)" />
    <path
       style="fill:#c1759b;stroke:none;stroke-width:0.2"
       d="m 15.492376,18.089137 c 0,-0.02339 0,-0.07015 0.0955,-0.140317 0.0955,-0.07016 0.286477,-0.163704 0.419,-0.206577 0.132523,-0.04287 0.206575,-0.03508 0.329354,0.0916 0.122778,0.126678 0.294273,0.372227 0.374175,0.623629 0.0799,0.251403 0.06821,0.508645 -0.0039,0.65091 -0.07211,0.142266 -0.204629,0.169549 -0.401463,0.194884 -0.196835,0.02533 -0.457975,0.04872 -0.590496,0.04872 -0.132521,-10e-7 -0.136417,-0.02338 -0.185141,-0.01559 -0.04872,0.0078 -0.142261,0.04677 -0.265039,0.09744 -0.122778,0.05067 -0.274786,0.113033 -0.473571,0.02923 -0.198784,-0.0838 -0.444333,-0.313761 -0.596343,-0.563215 -0.15201,-0.249455 -0.210474,-0.518389 -0.150058,-0.695734 0.06042,-0.177346 0.239705,-0.263093 0.444336,-0.313763 0.20463,-0.05067 0.434589,-0.06626 0.600242,-0.03702 0.165653,0.02923 0.266989,0.103288 0.323505,0.153956 0.05652,0.05067 0.06821,0.07796 0.07406,0.0916 0.0058,0.01364 0.0058,0.01364 0.0058,-0.0097 z"
       id="path475"
       transform="matrix(-0.72637769,0,0,0.72637769,28.934888,7.5625782)" />
    <path
       style="fill:#9f6093;stroke:none;stroke-width:0.2"
       d="m 15.240976,19.381217 c 0.0058,-0.06431 0.01754,-0.192935 0.05067,-0.270889 0.03313,-0.07795 0.0877,-0.105237 0.136419,-0.07016 0.04872,0.03508 0.09159,0.132522 0.07795,0.206579 -0.01364,0.07406 -0.0838,0.124724 -0.138368,0.153958 -0.05457,0.02923 -0.09354,0.03703 -0.113029,0.04093 -0.01949,0.0039 -0.01949,0.0039 -0.01364,-0.06042 z"
       id="path476"
       transform="matrix(-0.72637769,0,0,0.72637769,28.900914,7.3927069)" />
    <path
       style="fill:#e084a8;stroke:none;stroke-width:0.2"
       d="m 15.492376,19.071351 c 0,0 0,0 0,0 0.105237,0.03118 0.210475,0.06236 0.341048,0.126672 0.130573,0.06431 0.286478,0.161752 0.364432,0.272837 0.07795,0.111085 0.07795,0.235808 0.02728,0.302069 -0.05067,0.06626 -0.152008,0.07406 -0.241655,0.04872 -0.08965,-0.02533 -0.1676,-0.0838 -0.241657,-0.175396 -0.07406,-0.0916 -0.144214,-0.216321 -0.179293,-0.288428 -0.03508,-0.07211 -0.03508,-0.0916 -0.04093,-0.130578 -0.0058,-0.03898 -0.01754,-0.09744 -0.02339,-0.126673 -0.0058,-0.02923 -0.0058,-0.02923 -0.0058,-0.02923 z"
       id="path477"
       transform="matrix(-0.72637769,0,0,0.72637769,28.900914,7.3927069)" />
  </g>
</svg>
