<?xml version="1.0" encoding="UTF-8" standalone="no"?>
<!-- Created with Inkscape (http://www.inkscape.org/) -->

<svg
   width="127.99999"
   height="32.000004"
   viewBox="0 0 33.866664 8.4666677"
   version="1.1"
   id="svg1"
   xmlns="http://www.w3.org/2000/svg"
   xmlns:svg="http://www.w3.org/2000/svg">
  <defs
     id="defs1" />
  <g
     id="g75"
     transform="matrix(-1.0624885,0,0,1.0624885,8.7312013,-0.26453462)">
    <rect
       style="fill:#bdca31;fill-opacity:0;stroke:none;stroke-width:0.497953"
       id="rect74"
       width="7.9687138"
       height="7.9687138"
       x="0.24897645"
       y="0.24897645" />
    <path
       style="fill:none;stroke:#d6d753;stroke-width:0.2;stroke-dasharray:none"
       d="m 4.2994791,7.2098957 c 0.00551,-0.082682 0.011024,-0.1653646 0.011024,-0.2508036 -1e-7,-0.085439 -0.00551,-0.1736323 -0.019293,-0.2563155 -0.013781,-0.082683 -0.035829,-0.1598514 -0.057877,-0.2370215"
       id="path1"
       transform="matrix(-0.94118667,0,0,0.94118667,8.2176902,0.24897645)" />
    <ellipse
       style="fill:#a0bf43;stroke:none;stroke-width:0.4;stroke-dasharray:none"
       id="path136"
       cx="4.2126627"
       cy="6.3541341"
       rx="0.26871744"
       ry="0.31005859"
       transform="matrix(-0.94118667,0,0,0.94118667,8.2176902,0.24897645)" />
    <path
       style="fill:#ffffff;stroke:#a0bf43;stroke-width:0.188237"
       d="m 4.3328069,6.4229694 c 0,0 0,0 0,0 0.036685,0.049524 0.073369,0.099048 0.1100534,0.1485719"
       id="path2" />
    <path
       style="fill:#ffffff;stroke:#a0bf43;stroke-width:0.188237"
       d="m 4.085187,6.4229694 c -0.038519,0.038518 -0.077038,0.077037 -0.115556,0.1155561"
       id="path143" />
  </g>
  <g
     id="g238"
     transform="matrix(-1.0624885,0,0,1.0624885,17.197868,-0.26453462)">
    <rect
       style="fill:#bdca31;fill-opacity:0;stroke:none;stroke-width:0.497953"
       id="rect236"
       width="7.9687138"
       height="7.9687138"
       x="0.24897645"
       y="0.24897645" />
    <path
       style="fill:none;stroke:#d6d753;stroke-width:0.2;stroke-dasharray:none"
       d="m 4.2994791,7.2098957 c 0.00551,-0.082682 0.011024,-0.1653646 0.011024,-0.2508036 -1e-7,-0.085439 -0.00551,-0.1736304 -0.013468,-0.2359293 -0.00796,-0.062299 -0.018357,-0.0987 -0.059009,-0.3016157 C 4.1973739,6.2186311 4.1264706,5.8492026 4.0555662,5.4797688"
       id="path236"
       transform="matrix(-0.94118667,0,0,0.94118667,8.2176902,0.24897645)" />
    <ellipse
       style="fill:#a0bf43;stroke:none;stroke-width:0.376475;stroke-dasharray:none"
       id="ellipse236"
       cx="-4.4233708"
       cy="5.1783934"
       rx="0.25291327"
       ry="0.29182303"
       transform="scale(-1,1)" />
    <path
       style="fill:#ffffff;stroke:#a0bf43;stroke-width:0.188237"
       d="m 4.3328069,6.4229694 c 0,0 0,0 0,0 0.036685,0.049524 0.073369,0.099048 0.1100534,0.1485719"
       id="path237"
       transform="translate(0.17058269,-1.0510095)" />
    <path
       style="fill:#ffffff;stroke:#a0bf43;stroke-width:0.188237"
       d="m 4.085187,6.4229694 c -0.038519,0.038518 -0.077038,0.077037 -0.115556,0.1155561"
       id="path238"
       transform="translate(0.17058269,-1.0510095)" />
    <path
       style="fill:#e084a8;stroke:#e084a8;stroke-width:0.188237"
       d="m 4.5251568,5.0997232 c 0.027237,-0.016861 0.08171,-0.050582 0.1536939,-0.08625 0.071984,-0.035668 0.1614746,-0.07328 0.2023298,-0.071982 0.040855,0.0013 0.033073,0.041504 0.00778,0.083656 -0.025292,0.042153 -0.068091,0.086249 -0.118026,0.1160798 -0.049935,0.029831 -0.1070015,0.045395 -0.1491542,0.053177 -0.042153,0.00778 -0.069389,0.00778 -0.086897,0.00778 -0.017508,0 -0.025292,0 -0.029831,-0.014267 -0.00454,-0.014267 -0.00584,-0.0428 -0.00648,-0.057067 -6.483e-4,-0.014267 -6.493e-4,-0.014268 0.026588,-0.031129 z"
       id="path281" />
  </g>
  <g
     id="g292"
     transform="matrix(-1.0624885,0,0,1.0624885,25.664535,-0.26453462)">
    <rect
       style="fill:#bdca31;fill-opacity:0;stroke:none;stroke-width:0.497953"
       id="rect289"
       width="7.9687138"
       height="7.9687138"
       x="0.24897645"
       y="0.24897645" />
    <path
       style="fill:none;stroke:#d6d753;stroke-width:0.2;stroke-dasharray:none"
       d="m 4.2994791,7.2098957 c 0.00551,-0.082682 0.011024,-0.1653646 0.011024,-0.2508036 -1e-7,-0.085439 -0.00551,-0.1736304 -0.013468,-0.2359293 C 4.2890785,6.6608639 4.2786783,6.6244637 4.2478494,6.4727297 4.2170205,6.3209958 4.1657634,6.0539305 4.1020533,5.6918708 4.0383433,5.3298111 3.9621803,4.8727574 3.8860171,4.415702"
       id="path289"
       transform="matrix(-0.94118667,0,0,0.94118667,8.2176902,0.24897645)" />
    <ellipse
       style="fill:#a0bf43;stroke:none;stroke-width:0.376475;stroke-dasharray:none"
       id="ellipse289"
       cx="-4.5994563"
       cy="4.2649508"
       rx="0.25291327"
       ry="0.29182303"
       transform="scale(-1,1)" />
    <path
       style="fill:#ffffff;stroke:#a0bf43;stroke-width:0.188237"
       d="m 4.3328069,6.4229694 c 0,0 0,0 0,0 0.036685,0.049524 0.073369,0.099048 0.1100534,0.1485719"
       id="path290"
       transform="translate(0.34666805,-1.9644523)" />
    <path
       style="fill:#ffffff;stroke:#a0bf43;stroke-width:0.188237"
       d="m 4.085187,6.4229694 c -0.038519,0.038518 -0.077038,0.077037 -0.115556,0.1155561"
       id="path291"
       transform="translate(0.34666805,-1.9644523)" />
    <path
       style="fill:#9f6093;stroke:none;stroke-width:0.188237"
       d="m 4.749961,3.9990445 c 0.030265,-0.030264 0.090794,-0.090794 0.1320645,-0.1228929 0.04127,-0.032099 0.063281,-0.035767 0.1109715,-0.041269 0.047691,-0.0055 0.1210575,-0.012839 0.1825043,-0.00825 0.061447,0.00459 0.11097,0.021093 0.1394006,0.068784 0.028431,0.047691 0.035767,0.1265606 0.029348,0.2045155 -0.00642,0.077955 -0.026596,0.1549909 -0.081624,0.2265263 -0.055027,0.071535 -0.1449026,0.1375661 -0.2127693,0.1659964 -0.067867,0.02843 -0.1137215,0.019259 -0.163246,-0.00825 C 4.8370861,4.4566826 4.7838949,4.4108281 4.7417074,4.3420438 4.6995199,4.2732595 4.6683388,4.1815503 4.6665047,4.1256064 c -0.00183,-0.055944 0.025679,-0.07612 0.039436,-0.086208 0.013757,-0.010088 0.013756,-0.010089 0.044021,-0.040354 z"
       id="path356" />
    <path
       style="fill:#e084a8;stroke:#e084a8;stroke-width:0.188237"
       d="m 4.5251568,5.0997232 c 0.027237,-0.016861 0.08171,-0.050582 0.1536939,-0.08625 0.071984,-0.035668 0.1614746,-0.07328 0.2023298,-0.071982 0.040855,0.0013 0.033073,0.041504 0.00778,0.083656 -0.025292,0.042153 -0.068091,0.086249 -0.118026,0.1160798 -0.049935,0.029831 -0.1070015,0.045395 -0.1491542,0.053177 -0.042153,0.00778 -0.069389,0.00778 -0.086897,0.00778 -0.017508,0 -0.025292,0 -0.029831,-0.014267 -0.00454,-0.014267 -0.00584,-0.0428 -0.00648,-0.057067 -6.483e-4,-0.014267 -6.493e-4,-0.014268 0.026588,-0.031129 z"
       id="path292"
       transform="matrix(1.1417534,0,0,0.41819768,-0.49072761,2.0024944)" />
    <path
       style="fill:#9f6093;stroke:none;stroke-width:0.188237"
       d="M 4.7499613,4.0467339 C 4.74721,4.0256403 4.7417075,3.9834534 4.7105252,3.9330117 4.6793429,3.8825699 4.6224832,3.823876 4.5353565,3.7917772 4.4482298,3.7596783 4.3308419,3.7541759 4.2547213,3.8055353 c -0.076121,0.051359 -0.1109701,0.1595764 -0.119224,0.2732994 -0.00825,0.113723 0.010088,0.2329451 0.049524,0.3017287 0.039436,0.068784 0.099964,0.087125 0.1696654,0.07612 0.069701,-0.011006 0.1485714,-0.051358 0.208184,-0.1137222 0.059613,-0.062364 0.099965,-0.146737 0.1210579,-0.1990123 0.021093,-0.052275 0.022926,-0.072452 0.03118,-0.079789 0.00825,-0.00734 0.022927,-0.00183 0.030264,9.175e-4 0.00734,0.00275 0.00734,0.00275 0.00459,-0.018344 z"
       id="path352" />
  </g>
  <g
     id="g367"
     transform="matrix(-1.0624885,0,0,1.0624885,34.131201,-0.26453462)">
    <rect
       style="fill:#bdca31;fill-opacity:0;stroke:none;stroke-width:0.497953"
       id="rect361"
       width="7.9687138"
       height="7.9687138"
       x="0.24897645"
       y="0.24897645" />
    <path
       style="fill:none;stroke:#d6d753;stroke-width:0.2;stroke-dasharray:none"
       d="m 4.2994791,7.2098957 c 0.00551,-0.082682 0.011024,-0.1653646 0.011024,-0.2508036 -1e-7,-0.085439 -0.00551,-0.1736304 -0.013468,-0.2359293 C 4.2890785,6.6608639 4.2786783,6.6244637 4.2478494,6.4727297 4.2170205,6.3209958 4.1657632,6.0539294 4.1077736,5.7261981 4.049784,5.3984668 3.9850618,5.010069 3.8397941,4.6977415 3.6945263,4.385414 3.4687131,4.1491576 3.2428998,3.9129012"
       id="path361"
       transform="matrix(-0.94118667,0,0,0.94118667,8.2176902,0.24897645)" />
    <ellipse
       style="fill:#a0bf43;stroke:none;stroke-width:0.448213;stroke-dasharray:none"
       id="ellipse361"
       cx="-5.9640431"
       cy="2.1530328"
       rx="0.30110636"
       ry="0.34743047"
       transform="matrix(-0.95634032,-0.29225534,-0.29225534,0.95634032,0,0)" />
    <path
       style="fill:#ffffff;stroke:#a0bf43;stroke-width:0.188237"
       d="m 4.3328069,6.4229694 c 0,0 0,0 0,0 0.036685,0.049524 0.073369,0.099048 0.1100534,0.1485719"
       id="path362"
       transform="matrix(1.1385728,0.34794515,-0.34794515,1.1385728,2.3998009,-4.7703108)" />
    <path
       style="fill:#ffffff;stroke:#a0bf43;stroke-width:0.188237"
       d="m 4.085187,6.4229694 c -0.038519,0.038518 -0.077038,0.077037 -0.115556,0.1155561"
       id="path363"
       transform="matrix(1.1385728,0.34794515,-0.34794515,1.1385728,2.3998009,-4.7703108)" />
    <path
       style="fill:#9f6093;stroke:none;stroke-width:0.188237"
       d="m 4.749961,3.9990445 c 0.030265,-0.030264 0.090794,-0.090794 0.1320645,-0.1228929 0.04127,-0.032099 0.063281,-0.035767 0.1109715,-0.041269 0.047691,-0.0055 0.1210575,-0.012839 0.1825043,-0.00825 0.061447,0.00459 0.11097,0.021093 0.1394006,0.068784 0.028431,0.047691 0.035767,0.1265606 0.029348,0.2045155 -0.00642,0.077955 -0.026596,0.1549909 -0.081624,0.2265263 -0.055027,0.071535 -0.1449026,0.1375661 -0.2127693,0.1659964 -0.067867,0.02843 -0.1137215,0.019259 -0.163246,-0.00825 C 4.8370861,4.4566826 4.7838949,4.4108281 4.7417074,4.3420438 4.6995199,4.2732595 4.6683388,4.1815503 4.6665047,4.1256064 c -0.00183,-0.055944 0.025679,-0.07612 0.039436,-0.086208 0.013757,-0.010088 0.013756,-0.010089 0.044021,-0.040354 z"
       id="path364"
       transform="matrix(1.1385728,0.34794515,-0.34794515,1.1385728,1.3215724,-2.6542602)" />
    <path
       style="fill:#e084a8;stroke:#e084a8;stroke-width:0.188237"
       d="m 4.5251568,5.0997232 c 0.027237,-0.016861 0.08171,-0.050582 0.1536939,-0.08625 0.071984,-0.035668 0.1614746,-0.07328 0.2023298,-0.071982 0.040855,0.0013 0.033073,0.041504 0.00778,0.083656 -0.025292,0.042153 -0.068091,0.086249 -0.118026,0.1160798 -0.049935,0.029831 -0.1070015,0.045395 -0.1491542,0.053177 -0.042153,0.00778 -0.069389,0.00778 -0.086897,0.00778 -0.017508,0 -0.025292,0 -0.029831,-0.014267 -0.00454,-0.014267 -0.00584,-0.0428 -0.00648,-0.057067 -6.483e-4,-0.014267 -6.493e-4,-0.014268 0.026588,-0.031129 z"
       id="path366"
       transform="matrix(1.2999694,0.39726756,-0.14550986,0.47614851,0.06608511,-0.54502081)" />
    <path
       style="fill:#9f6093;stroke:none;stroke-width:0.188237"
       d="M 4.7499613,4.0467339 C 4.74721,4.0256403 4.7417075,3.9834534 4.7105252,3.9330117 4.6793429,3.8825699 4.6224832,3.823876 4.5353565,3.7917772 4.4482298,3.7596783 4.3308419,3.7541759 4.2547213,3.8055353 c -0.076121,0.051359 -0.1109701,0.1595764 -0.119224,0.2732994 -0.00825,0.113723 0.010088,0.2329451 0.049524,0.3017287 0.039436,0.068784 0.099964,0.087125 0.1696654,0.07612 0.069701,-0.011006 0.1485714,-0.051358 0.208184,-0.1137222 0.059613,-0.062364 0.099965,-0.146737 0.1210579,-0.1990123 0.021093,-0.052275 0.022926,-0.072452 0.03118,-0.079789 0.00825,-0.00734 0.022927,-0.00183 0.030264,9.175e-4 0.00734,0.00275 0.00734,0.00275 0.00459,-0.018344 z"
       id="path367"
       transform="matrix(1.1385728,0.34794515,-0.34794515,1.1385728,1.3215724,-2.6542602)" />
  </g>
</svg>
