<?xml version="1.0" encoding="UTF-8" standalone="no"?>
<!-- Created with Inkscape (http://www.inkscape.org/) -->

<svg
   width="127.99999"
   height="32.000004"
   viewBox="0 0 33.866664 8.4666677"
   version="1.1"
   id="svg1"
   xmlns="http://www.w3.org/2000/svg"
   xmlns:svg="http://www.w3.org/2000/svg">
  <defs
     id="defs1" />
  <g
     id="g75"
     transform="matrix(-1.0624885,0,0,1.0624885,8.7312013,-0.26453462)">
    <rect
       style="fill:#bdca31;fill-opacity:0;stroke:none;stroke-width:0.497953"
       id="rect74"
       width="7.9687138"
       height="7.9687138"
       x="0.24897645"
       y="0.24897645" />
    <path
       style="fill:#ffec8c;fill-opacity:1;stroke:#6e9202;stroke-width:0.188237;stroke-dasharray:none"
       d="M 4.2333334,7.4083676 C 4.2022056,7.1489693 4.1710778,6.8895712 4.13995,6.6301729"
       id="path808"
       transform="translate(0.04669168,0.21789451)" />
    <ellipse
       style="fill:#6e9202;fill-opacity:1;stroke:#6e9202;stroke-width:0.188237;stroke-dasharray:none"
       id="path809"
       cx="-4.2034941"
       cy="6.7036057"
       transform="scale(-1,1)"
       rx="0.15682603"
       ry="0.22010669" />
  </g>
  <g
     id="g810"
     transform="matrix(-1.0624885,0,0,1.0624885,17.197868,-0.26453462)">
    <rect
       style="fill:#bdca31;fill-opacity:0;stroke:none;stroke-width:0.497953"
       id="rect809"
       width="7.9687138"
       height="7.9687138"
       x="0.24897645"
       y="0.24897645" />
    <path
       style="fill:none;fill-opacity:1;stroke:#6e9202;stroke-width:0.188237;stroke-dasharray:none"
       d="M 4.2333334,7.4083676 C 4.2076063,7.1939753 4.1818793,6.9795832 4.1633071,6.6619371 4.144735,6.3442911 4.1333177,5.9233913 4.1812,5.6311141 4.2290823,5.3388369 4.3362641,5.1751824 4.4434459,5.0115279"
       id="path810"
       transform="translate(0.04669168,0.21789451)" />
    <ellipse
       style="fill:#6e9202;fill-opacity:1;stroke:#6e9202;stroke-width:0.188237;stroke-dasharray:none"
       id="ellipse810"
       cx="-4.5330062"
       cy="5.1278758"
       transform="scale(-1,1)"
       rx="0.15682603"
       ry="0.22010669" />
  </g>
  <g
     id="g811"
     transform="matrix(-1.0624885,0,0,1.0624885,25.664535,-0.26453462)">
    <rect
       style="fill:#bdca31;fill-opacity:0;stroke:none;stroke-width:0.497953"
       id="rect811"
       width="7.9687138"
       height="7.9687138"
       x="0.24897645"
       y="0.24897645" />
    <path
       style="fill:none;fill-opacity:1;stroke:#6e9202;stroke-width:0.188237;stroke-dasharray:none"
       d="M 4.2333334,7.4083676 C 4.2076063,7.1939753 4.1818793,6.9795832 4.1633071,6.6619371 4.144735,6.3442911 4.1333177,5.9233913 4.2564031,5.4678683 4.3794885,5.0123454 4.6370766,4.5221992 4.8946646,4.0320531"
       id="path811"
       transform="translate(0.04669168,0.21789451)" />
    <ellipse
       style="fill:#6e9202;fill-opacity:1;stroke:#6e9202;stroke-width:0.188237;stroke-dasharray:none"
       id="ellipse811"
       cx="-5.0502567"
       cy="4.0713634"
       transform="scale(-1,1)"
       rx="0.15682603"
       ry="0.22010669" />
    <path
       style="fill:#e11800;fill-opacity:1;stroke:none;stroke-width:0.188237;stroke-dasharray:none"
       d="m 5.2479536,3.9724485 c 0.029348,0.011006 0.047689,0.025679 0.1375678,0.1027172 C 5.4754,4.1522045 5.6368083,4.2916026 5.7358565,4.4053251 5.8349048,4.5190476 5.8715888,4.607089 5.8385716,4.6804585 5.8055545,4.753828 5.70284,4.812522 5.6221336,4.8290297 5.5414272,4.8455375 5.4827333,4.8198589 5.3910209,4.7208092 5.2993085,4.6217595 5.1745838,4.449346 5.1268944,4.3081097 5.0792049,4.1668734 5.1085519,4.0568223 5.1434029,4.0054642 5.178254,3.9541061 5.2186057,3.9614428 5.2479536,3.9724485 Z"
       id="path813" />
    <path
       style="fill:#e11800;fill-opacity:1;stroke:none;stroke-width:0.188237;stroke-dasharray:none"
       d="m 5.2479536,3.9724485 c 0.029348,0.011006 0.047689,0.025679 0.1375678,0.1027172 C 5.4754,4.1522045 5.6368083,4.2916026 5.7358565,4.4053251 5.8349048,4.5190476 5.8715888,4.607089 5.8385716,4.6804585 5.8055545,4.753828 5.70284,4.812522 5.6221336,4.8290297 5.5414272,4.8455375 5.4827333,4.8198589 5.3910209,4.7208092 5.2993085,4.6217595 5.1745838,4.449346 5.1268944,4.3081097 5.0792049,4.1668734 5.1085519,4.0568223 5.1434029,4.0054642 5.178254,3.9541061 5.2186057,3.9614428 5.2479536,3.9724485 Z"
       id="path814"
       transform="matrix(-1,0,0,1,10.402105,-0.01100533)" />
    <path
       style="fill:#e11800;fill-opacity:1;stroke:none;stroke-width:0.188237;stroke-dasharray:none"
       d="m 5.2479536,3.9724485 c 0.029348,0.011006 0.047689,0.025679 0.1375678,0.1027172 C 5.4754,4.1522045 5.6368083,4.2916026 5.7358565,4.4053251 5.8349048,4.5190476 5.8715888,4.607089 5.8385716,4.6804585 5.8055545,4.753828 5.70284,4.812522 5.6221336,4.8290297 5.5414272,4.8455375 5.4827333,4.8198589 5.3910209,4.7208092 5.2993085,4.6217595 5.1745838,4.449346 5.1268944,4.3081097 5.0792049,4.1668734 5.1085519,4.0568223 5.1434029,4.0054642 5.178254,3.9541061 5.2186057,3.9614428 5.2479536,3.9724485 Z"
       id="path826"
       transform="matrix(0.69120413,0,0,0.69120413,9.0701007,2.2257094)" />
  </g>
  <g
     id="g818"
     transform="matrix(-1.0624885,0,0,1.0624885,34.131201,-0.26453462)">
    <ellipse
       style="fill:#ffec8c;fill-opacity:1;stroke:none;stroke-width:0.188237;stroke-dasharray:none"
       id="path823"
       cx="-5.1833987"
       cy="4.6262646"
       transform="scale(-1,1)"
       rx="0.147857"
       ry="0.32489628" />
    <rect
       style="fill:#bdca31;fill-opacity:0;stroke:none;stroke-width:0.497953"
       id="rect816"
       width="7.9687138"
       height="7.9687138"
       x="0.24897645"
       y="0.24897645" />
    <path
       style="fill:none;fill-opacity:1;stroke:#6e9202;stroke-width:0.188237;stroke-dasharray:none"
       d="M 4.2333334,7.4083676 C 4.2076063,7.1939753 4.1818793,6.9795832 4.1633071,6.6619371 4.144735,6.3442911 4.1333177,5.9233913 4.2564031,5.4678683 4.3794885,5.0123454 4.6370766,4.5221992 4.8946646,4.0320531"
       id="path816"
       transform="translate(0.04669168,0.21789451)" />
    <ellipse
       style="fill:#6e9202;fill-opacity:1;stroke:#6e9202;stroke-width:0.188237;stroke-dasharray:none"
       id="ellipse816"
       cx="-5.0502567"
       cy="4.0713634"
       transform="scale(-1,1)"
       rx="0.15682603"
       ry="0.22010669" />
    <path
       style="fill:#e11800;fill-opacity:1;stroke:none;stroke-width:0.188237;stroke-dasharray:none"
       d="m 5.2479536,3.9724485 c 0.029348,0.011006 0.047689,0.025679 0.1375678,0.1027172 C 5.4754,4.1522045 5.6368083,4.2916026 5.7358565,4.4053251 5.8349048,4.5190476 5.8715888,4.607089 5.8385716,4.6804585 5.8055545,4.753828 5.70284,4.812522 5.6221336,4.8290297 5.5414272,4.8455375 5.4827333,4.8198589 5.3910209,4.7208092 5.2993085,4.6217595 5.1745838,4.449346 5.1268944,4.3081097 5.0792049,4.1668734 5.1085519,4.0568223 5.1434029,4.0054642 5.178254,3.9541061 5.2186057,3.9614428 5.2479536,3.9724485 Z"
       id="path817" />
    <path
       style="fill:#e11800;fill-opacity:1;stroke:none;stroke-width:0.188237;stroke-dasharray:none"
       d="m 5.2479536,3.9724485 c 0.029348,0.011006 0.047689,0.025679 0.1375678,0.1027172 C 5.4754,4.1522045 5.6368083,4.2916026 5.7358565,4.4053251 5.8349048,4.5190476 5.8715888,4.607089 5.8385716,4.6804585 5.8055545,4.753828 5.70284,4.812522 5.6221336,4.8290297 5.5414272,4.8455375 5.4827333,4.8198589 5.3910209,4.7208092 5.2993085,4.6217595 5.1745838,4.449346 5.1268944,4.3081097 5.0792049,4.1668734 5.1085519,4.0568223 5.1434029,4.0054642 5.178254,3.9541061 5.2186057,3.9614428 5.2479536,3.9724485 Z"
       id="path818"
       transform="matrix(-1,0,0,1,10.402105,-0.01100533)" />
    <path
       style="fill:none;fill-opacity:1;stroke:#ffcc5d;stroke-width:0.0470593;stroke-dasharray:none"
       d="m 5.2983271,4.7666663 c 0.014668,0.00917 0.029347,0.018342 0.077038,0.077956 0.047691,0.059614 0.1283948,0.1696645 0.1705822,0.2467018 0.042187,0.077037 0.045856,0.1210601 0.049525,0.1650801"
       id="path824" />
    <path
       style="fill:none;fill-opacity:1;stroke:#ffcc5d;stroke-width:0.0470593;stroke-dasharray:none"
       d="M 5.11674,4.7996824 C 5.0617134,4.8693819 5.006686,4.9390825 4.9709179,5.0078673 4.9351499,5.0766521 4.9186428,5.1445162 4.9021351,5.2123824"
       id="path825" />
  </g>
</svg>
