<?xml version="1.0" encoding="UTF-8" standalone="no"?>
<!-- Created with Inkscape (http://www.inkscape.org/) -->

<svg
   width="64.000008"
   height="64.000008"
   viewBox="0 0 16.933335 16.933335"
   version="1.1"
   id="svg1"
   xmlns="http://www.w3.org/2000/svg"
   xmlns:svg="http://www.w3.org/2000/svg">
  <defs
     id="defs1" />
  <g
     id="g32"
     transform="translate(-8.478902,-11.801772)">
    <rect
       style="fill:none;fill-opacity:0.921569;stroke:none;stroke-width:4.36359"
       id="rect225"
       width="15.937428"
       height="15.937428"
       x="7.7312517"
       y="11.356647"
       transform="matrix(1.0624885,0,0,1.0624885,0.26453492,-0.26453461)" />
    <g
       id="g851"
       transform="translate(0.32740517,2.9934187)">
      <path
         style="fill:none;fill-opacity:1;stroke:#a0bf43;stroke-width:0.2;stroke-dasharray:none"
         d="m 18.754736,23.10545 c 0.09354,-0.265041 0.187088,-0.530083 0.506703,-1.863115 0.319615,-1.333031 0.865279,-3.733954 0.974411,-5.347602 0.109131,-1.613648 -0.218267,-2.43994 -1.239477,-2.938845 -1.021209,-0.498904 -2.736154,-0.670399 -3.741758,-0.350781 -1.005605,0.319618 -1.301823,1.130319 -1.44214,1.574653 -0.140318,0.444334 -0.124727,0.522291 -0.109137,0.600245"
         id="path827" />
      <path
         style="fill:#e96c2a;fill-opacity:1;stroke:none;stroke-width:0.0499999;stroke-dasharray:none"
         d="m 13.580562,14.742977 c -0.01754,0.0097 -0.05262,0.02923 -0.09355,0.109133 -0.04092,0.0799 -0.0877,0.220215 -0.140315,0.31376 -0.05262,0.09355 -0.111081,0.140315 -0.196833,0.200731 -0.08575,0.06042 -0.198781,0.13447 -0.309866,0.300124 -0.111085,0.165654 -0.220218,0.422895 -0.265041,0.592444 -0.04482,0.169548 -0.02533,0.251401 0.05847,0.261145 0.0838,0.0097 0.231912,-0.05262 0.344945,-0.105237 0.113032,-0.05262 0.190986,-0.09549 0.294277,-0.07795 0.103291,0.01754 0.23191,0.09549 0.329351,0.150058 0.09744,0.05457 0.163704,0.08575 0.216323,0.03313 0.05262,-0.05262 0.09159,-0.189036 0.07211,-0.319609 -0.01949,-0.130572 -0.09744,-0.255298 -0.120828,-0.393667 -0.02339,-0.138369 0.0078,-0.290376 0.03313,-0.448234 0.02533,-0.157857 0.04482,-0.321558 0.04092,-0.413151 -0.0039,-0.09159 -0.03119,-0.111085 -0.07601,-0.134468 -0.04482,-0.02338 -0.107185,-0.05067 -0.138366,-0.06431 -0.03118,-0.01364 -0.03118,-0.01364 -0.04872,-0.0039 z"
         id="path828"
         transform="rotate(19.183456,14.104073,14.745648)" />
      <path
         style="fill:#e96c2a;fill-opacity:1;stroke:none;stroke-width:0.0499999;stroke-dasharray:none"
         d="m 13.580562,14.742977 c -0.01754,0.0097 -0.05262,0.02923 -0.09355,0.109133 -0.04092,0.0799 -0.0877,0.220215 -0.140315,0.31376 -0.05262,0.09355 -0.111081,0.140315 -0.196833,0.200731 -0.08575,0.06042 -0.198781,0.13447 -0.309866,0.300124 -0.111085,0.165654 -0.220218,0.422895 -0.265041,0.592444 -0.04482,0.169548 -0.02533,0.251401 0.05847,0.261145 0.0838,0.0097 0.231912,-0.05262 0.344945,-0.105237 0.113032,-0.05262 0.190986,-0.09549 0.294277,-0.07795 0.103291,0.01754 0.23191,0.09549 0.329351,0.150058 0.09744,0.05457 0.163704,0.08575 0.216323,0.03313 0.05262,-0.05262 0.09159,-0.189036 0.07211,-0.319609 -0.01949,-0.130572 -0.09744,-0.255298 -0.120828,-0.393667 -0.02339,-0.138369 0.0078,-0.290376 0.03313,-0.448234 0.02533,-0.157857 0.04482,-0.321558 0.04092,-0.413151 -0.0039,-0.09159 -0.03119,-0.111085 -0.07601,-0.134468 -0.04482,-0.02338 -0.107185,-0.05067 -0.138366,-0.06431 -0.03118,-0.01364 -0.03118,-0.01364 -0.04872,-0.0039 z"
         id="path829"
         transform="rotate(-32.350986,13.355468,14.548951)" />
      <path
         style="fill:#e96c2a;fill-opacity:1;stroke:none;stroke-width:0.0499999;stroke-dasharray:none"
         d="m 13.580562,14.742977 c -0.01754,0.0097 -0.05262,0.02923 -0.09355,0.109133 -0.04092,0.0799 -0.0877,0.220215 -0.140315,0.31376 -0.05262,0.09355 -0.111081,0.140315 -0.196833,0.200731 -0.08575,0.06042 -0.198781,0.13447 -0.309866,0.300124 -0.111085,0.165654 -0.220218,0.422895 -0.265041,0.592444 -0.04482,0.169548 -0.02533,0.251401 0.05847,0.261145 0.0838,0.0097 0.231912,-0.05262 0.344945,-0.105237 0.113032,-0.05262 0.190986,-0.09549 0.294277,-0.07795 0.103291,0.01754 0.23191,0.09549 0.329351,0.150058 0.09744,0.05457 0.163704,0.08575 0.216323,0.03313 0.05262,-0.05262 0.09159,-0.189036 0.07211,-0.319609 -0.01949,-0.130572 -0.09744,-0.255298 -0.120828,-0.393667 -0.02339,-0.138369 0.0078,-0.290376 0.03313,-0.448234 0.02533,-0.157857 0.04482,-0.321558 0.04092,-0.413151 -0.0039,-0.09159 -0.03119,-0.111085 -0.07601,-0.134468 -0.04482,-0.02338 -0.107185,-0.05067 -0.138366,-0.06431 -0.03118,-0.01364 -0.03118,-0.01364 -0.04872,-0.0039 z"
         id="path831"
         transform="rotate(-61.220907,13.357747,14.550346)" />
      <path
         style="fill:#ffec8c;fill-opacity:1;stroke:none;stroke-width:0.2;stroke-dasharray:none"
         d="m 12.432696,15.766118 c -0.02534,0.0097 -0.07601,0.02923 -0.135446,0.076 -0.05944,0.04677 -0.127647,0.120826 -0.164675,0.192932 -0.03703,0.07211 -0.04287,0.142266 0.01657,0.159805 0.05944,0.01754 0.184165,-0.01754 0.262118,-0.01754 0.07795,1e-6 0.109133,0.03508 0.140313,0.08867 0.03118,0.05359 0.06236,0.125699 0.13739,0.161752 0.07503,0.03605 0.193907,0.03605 0.270887,-0.0097 0.07698,-0.0458 0.112058,-0.137392 0.120827,-0.248477 0.0088,-0.111085 -0.0088,-0.241655 -0.07698,-0.325455 -0.06821,-0.0838 -0.187088,-0.120828 -0.286482,-0.127648 -0.09939,-0.0068 -0.179288,0.01656 -0.21924,0.02826 -0.03995,0.01169 -0.03994,0.0117 -0.06528,0.02144 z"
         id="path833" />
      <path
         style="fill:#ffec8c;fill-opacity:1;stroke:none;stroke-width:0.2;stroke-dasharray:none"
         d="m 13.937201,16.443339 c 0,-0.02631 0,-0.07893 0.01267,-0.162729 0.01267,-0.0838 0.038,-0.198779 0.111088,-0.248475 0.07308,-0.0497 0.193909,-0.03411 0.266019,-0.03996 0.07211,-0.0059 0.09549,-0.03313 0.119855,-0.04092 0.02436,-0.0078 0.04969,0.0039 0.08282,0.08185 0.03313,0.07795 0.07405,0.222165 0.09159,0.320579 0.01754,0.09841 0.01169,0.151037 -0.07113,0.190988 -0.08283,0.03995 -0.242631,0.06724 -0.348844,0.05164 -0.106213,-0.01559 -0.158828,-0.07405 -0.193911,-0.102319 -0.03508,-0.02827 -0.05262,-0.02633 -0.06139,-0.02537 -0.0088,9.66e-4 -0.0088,0.001 -0.0088,-0.0253 z"
         id="path834" />
      <path
         style="fill:#ffec8c;fill-opacity:1;stroke:none;stroke-width:0.2;stroke-dasharray:none"
         d="m 14.855106,15.766119 c -0.0058,-0.0078 -0.01754,-0.02339 -0.04288,-0.0838 -0.02534,-0.06041 -0.06431,-0.165648 -0.08088,-0.244574 -0.01657,-0.07893 -0.01072,-0.13155 0.02826,-0.177348 0.03898,-0.0458 0.11108,-0.08477 0.208524,-0.08965 0.09744,-0.0049 0.22022,0.02436 0.296224,0.05554 0.076,0.03118 0.105236,0.06431 0.0838,0.09549 -0.02144,0.03118 -0.09354,0.06042 -0.151033,0.09062 -0.05749,0.03021 -0.100366,0.06139 -0.124726,0.1218 -0.02436,0.06041 -0.03021,0.150059 -0.0497,0.206576 -0.01949,0.05652 -0.05262,0.0799 -0.08185,0.0799 -0.02924,-10e-7 -0.05457,-0.02338 -0.06724,-0.03508 -0.01267,-0.01169 -0.01267,-0.0117 -0.01851,-0.01949 z"
         id="path835"
         transform="translate(-0.02338608,-0.04092565)" />
      <path
         style="fill:#ffec8c;fill-opacity:1;stroke:none;stroke-width:0.2;stroke-dasharray:none"
         d="m 12.417106,16.083779 c -0.0097,0.0058 -0.01949,0.01169 -0.06626,0.0838 -0.04677,0.07211 -0.130571,0.210473 -0.183189,0.318633 -0.05262,0.108159 -0.07405,0.186114 -0.09549,0.264069"
         id="path836" />
      <path
         style="fill:#ffec8c;fill-opacity:1;stroke:none;stroke-width:0.2;stroke-dasharray:none"
         d="m 12.715279,16.323486 c -0.0039,0.155907 -0.0078,0.311815 -0.02046,0.419004 -0.01267,0.107188 -0.0341,0.16565 -0.05554,0.224113"
         id="path837" />
      <path
         style="fill:#ffec8c;fill-opacity:1;stroke:none;stroke-width:0.2;stroke-dasharray:none"
         d="m 14.25876,16.440416 c 0,0.02144 0,0.04288 -0.01364,0.145192 -0.01364,0.102312 -0.04092,0.2855 -0.038,0.405355 0.0029,0.119855 0.03605,0.176369 0.06918,0.232885"
         id="path838" />
      <path
         style="fill:#ffec8c;fill-opacity:1;stroke:none;stroke-width:0.2;stroke-dasharray:none"
         d="m 14.492621,16.428723 c 0.06236,0.08965 0.124726,0.179294 0.164678,0.268942 0.03995,0.08965 0.05749,0.179292 0.07503,0.268938"
         id="path839" />
      <path
         style="fill:#ffec8c;fill-opacity:1;stroke:none;stroke-width:0.2;stroke-dasharray:none"
         d="m 14.983729,15.51082 c 0.05262,0.08965 0.105237,0.179293 0.154933,0.24458 0.0497,0.06529 0.09646,0.106209 0.143239,0.147137"
         id="path840" />
      <path
         style="fill:#ffec8c;fill-opacity:1;stroke:none;stroke-width:0.2;stroke-dasharray:none"
         d="m 15.164971,15.341271 c 0.08575,0.06431 0.171498,0.128623 0.225092,0.180269 0.05359,0.05165 0.07503,0.09061 0.09647,0.129596"
         id="path841" />
      <ellipse
         style="fill:#ffec8c;fill-opacity:1;stroke:none;stroke-width:0.2;stroke-dasharray:none"
         id="path842"
         cx="12.075748"
         cy="16.807243"
         rx="0.053743489"
         ry="0.11782227" />
      <ellipse
         style="fill:#ffec8c;fill-opacity:1;stroke:none;stroke-width:0.2;stroke-dasharray:none"
         id="path843"
         cx="12.64419"
         cy="16.993279"
         rx="0.055810545"
         ry="0.10128581" />
      <ellipse
         style="fill:#ffec8c;fill-opacity:1;stroke:none;stroke-width:0.2;stroke-dasharray:none"
         id="path844"
         cx="14.283366"
         cy="17.245459"
         rx="0.070279948"
         ry="0.072347008" />
      <ellipse
         style="fill:#ffec8c;fill-opacity:1;stroke:none;stroke-width:0.2;stroke-dasharray:none"
         id="path845"
         cx="14.700912"
         cy="16.927132"
         rx="0.070279948"
         ry="0.059944659" />
      <ellipse
         style="fill:#ffec8c;fill-opacity:1;stroke:none;stroke-width:0.2;stroke-dasharray:none"
         id="path846"
         cx="15.256949"
         cy="15.926676"
         rx="0.08061523"
         ry="0.072347008" />
      <ellipse
         style="fill:#ffec8c;fill-opacity:1;stroke:none;stroke-width:0.2;stroke-dasharray:none"
         id="path847"
         cx="15.480192"
         cy="15.626953"
         rx="0.047542319"
         ry="0.07441406" />
      <path
         style="fill:#a0bf43;fill-opacity:1;stroke:none;stroke-width:0.2;stroke-dasharray:none"
         d="m 20.081896,16.867212 c -0.01754,-0.0058 -0.05262,-0.01754 -0.222173,-0.153961 -0.169551,-0.136421 -0.473565,-0.397561 -0.740558,-0.502798 -0.266994,-0.105237 -0.496951,-0.05457 -0.584648,0.05067 -0.0877,0.105239 -0.03313,0.265041 0.113035,0.420949 0.146165,0.155909 0.383919,0.307916 0.572957,0.403409 0.189039,0.09549 0.329351,0.134469 0.444335,0.144214 0.114985,0.0097 0.204627,-0.0097 0.272837,-0.05261 0.06821,-0.04287 0.114981,-0.109133 0.138367,-0.163704 0.02339,-0.05457 0.02339,-0.09744 0.02339,-0.118878 0,-0.02144 0,-0.02144 -0.01754,-0.02729 z"
         id="path848" />
      <path
         style="fill:#a0bf43;fill-opacity:1;stroke:none;stroke-width:0.2;stroke-dasharray:none"
         d="m 20.311858,15.19316 c 0.01364,-0.03118 0.04093,-0.09355 0.101341,-0.192939 0.06042,-0.09939 0.153956,-0.235806 0.288427,-0.290374 0.134471,-0.05457 0.309865,-0.02728 0.381971,0.126675 0.07211,0.153961 0.04093,0.434588 -0.04482,0.613883 -0.08575,0.179295 -0.226062,0.257245 -0.358584,0.212421 -0.132522,-0.04483 -0.257246,-0.212423 -0.319608,-0.305968 -0.06236,-0.09355 -0.06236,-0.113035 -0.06236,-0.122775 0,-0.0097 -2e-6,-0.0097 0.01364,-0.04092 z"
         id="path849" />
      <path
         style="fill:#a0bf43;fill-opacity:1;stroke:none;stroke-width:0.2;stroke-dasharray:none"
         d="m 19.614995,20.177235 c 0.151584,-0.01378 0.454754,-0.04134 0.722095,0.0083 0.267342,0.04961 0.498847,0.176388 0.534674,0.275608 0.03583,0.09922 -0.12402,0.170876 -0.341754,0.198436 -0.217733,0.02756 -0.493334,0.01103 -0.689017,-0.03307 -0.195683,-0.0441 -0.311436,-0.115754 -0.361045,-0.192923 -0.04961,-0.07717 -0.03307,-0.159852 -0.0248,-0.201194 0.0083,-0.04134 0.0083,-0.04134 0.159851,-0.05512 z"
         id="path850" />
    </g>
  </g>
</svg>
