<?xml version="1.0" encoding="UTF-8" standalone="no"?>
<!-- Created with Inkscape (http://www.inkscape.org/) -->

<svg
   width="127.99999"
   height="32.000004"
   viewBox="0 0 33.866664 8.4666677"
   version="1.1"
   id="svg1"
   xmlns="http://www.w3.org/2000/svg"
   xmlns:svg="http://www.w3.org/2000/svg">
  <defs
     id="defs1" />
  <g
     id="g75"
     transform="matrix(-1.0624885,0,0,1.0624885,8.7312013,-0.26453462)">
    <rect
       style="fill:#bdca31;fill-opacity:0;stroke:none;stroke-width:0.497953"
       id="rect74"
       width="7.9687138"
       height="7.9687138"
       x="0.24897645"
       y="0.24897645" />
    <path
       style="fill:none;stroke:#457b47;stroke-width:0.2;stroke-dasharray:none"
       d="m 4.2994791,7.2098957 c 0.00551,-0.082682 0.011024,-0.1653646 0.011024,-0.2508036 -1e-7,-0.085439 -0.00551,-0.1736323 -0.019293,-0.2563155 -0.013781,-0.082683 -0.035829,-0.1598514 -0.057877,-0.2370215"
       id="path1"
       transform="matrix(-0.94118667,0,0,0.94118667,8.2176902,0.24897645)" />
    <ellipse
       style="fill:#a0bf43;stroke:none;stroke-width:0.268873;stroke-dasharray:none"
       id="ellipse310"
       cx="-12.190703"
       cy="6.2815166"
       rx="0.20817119"
       ry="0.18083946"
       transform="matrix(-1,0,0,1,-7.9687137,-1.0255013e-8)" />
    <path
       style="fill:#457b47;stroke:none;stroke-width:0.376474;stroke-dasharray:none"
       d="m 4.2060973,6.6742701 c 0.014267,-0.015564 0.024641,-0.025939 0.073928,-0.032424 0.049287,-0.00649 0.1374809,-0.00908 0.1984396,0.0013 0.060959,0.010376 0.094681,0.033722 0.1154323,0.062256 0.020752,0.028533 0.028534,0.062256 -0.00519,0.092086 -0.033722,0.029831 -0.1089469,0.05577 -0.1699058,0.064849 -0.060959,0.00908 -0.1076493,0.0013 -0.1491536,-0.023346 -0.041504,-0.024643 -0.077819,-0.066146 -0.086898,-0.097275 -0.00908,-0.031128 0.00908,-0.05188 0.023346,-0.067444 z"
       id="path1194" />
    <path
       style="fill:#457b47;stroke:none;stroke-width:0.376474;stroke-dasharray:none"
       d="m 4.2060973,6.6742701 c 0.014267,-0.015564 0.024641,-0.025939 0.073928,-0.032424 0.049287,-0.00649 0.1374809,-0.00908 0.1984396,0.0013 0.060959,0.010376 0.094681,0.033722 0.1154323,0.062256 0.020752,0.028533 0.028534,0.062256 -0.00519,0.092086 -0.033722,0.029831 -0.1089469,0.05577 -0.1699058,0.064849 -0.060959,0.00908 -0.1076493,0.0013 -0.1491536,-0.023346 -0.041504,-0.024643 -0.077819,-0.066146 -0.086898,-0.097275 -0.00908,-0.031128 0.00908,-0.05188 0.023346,-0.067444 z"
       id="path1196"
       transform="translate(-0.46691682,-0.14007505)" />
  </g>
  <g
     id="g1202"
     transform="matrix(-1.0624885,0,0,1.0624885,17.197868,-0.26453462)">
    <rect
       style="fill:#bdca31;fill-opacity:0;stroke:none;stroke-width:0.497953"
       id="rect1200"
       width="7.9687138"
       height="7.9687138"
       x="0.24897645"
       y="0.24897645" />
    <path
       style="fill:#c1759b;stroke:#457b47;stroke-width:0.2;stroke-dasharray:none"
       d="m 4.2994791,7.2098957 c 0.00551,-0.082682 0.011024,-0.1653646 0.011024,-0.2508036 -1e-7,-0.085439 -0.00551,-0.1736323 -0.013446,-0.4239203 C 4.2891232,6.2848837 4.2787678,5.872524 4.2684122,5.4601535"
       id="path1200"
       transform="matrix(-0.94118667,0,0,0.94118667,8.2176902,0.24897645)" />
    <ellipse
       style="fill:#a0bf43;stroke:none;stroke-width:0.268873;stroke-dasharray:none"
       id="ellipse1200"
       cx="-4.2219896"
       cy="5.3790789"
       rx="0.20817119"
       ry="0.18083946"
       transform="scale(-1,1)" />
    <path
       style="fill:#457b47;stroke:none;stroke-width:0.376474;stroke-dasharray:none"
       d="m 4.2060973,6.6742701 c 0.014267,-0.015564 0.024641,-0.025939 0.073928,-0.032424 0.049287,-0.00649 0.1374809,-0.00908 0.1984396,0.0013 0.060959,0.010376 0.094681,0.033722 0.1154323,0.062256 0.020752,0.028533 0.028534,0.062256 -0.00519,0.092086 -0.033722,0.029831 -0.1089469,0.05577 -0.1699058,0.064849 -0.060959,0.00908 -0.1076493,0.0013 -0.1491536,-0.023346 -0.041504,-0.024643 -0.077819,-0.066146 -0.086898,-0.097275 -0.00908,-0.031128 0.00908,-0.05188 0.023346,-0.067444 z"
       id="path1201"
       transform="translate(0,-0.71534677)" />
    <path
       style="fill:#457b47;stroke:none;stroke-width:0.376474;stroke-dasharray:none"
       d="m 4.2060973,6.6742701 c 0.014267,-0.015564 0.024641,-0.025939 0.073928,-0.032424 0.049287,-0.00649 0.1374809,-0.00908 0.1984396,0.0013 0.060959,0.010376 0.094681,0.033722 0.1154323,0.062256 0.020752,0.028533 0.028534,0.062256 -0.00519,0.092086 -0.033722,0.029831 -0.1089469,0.05577 -0.1699058,0.064849 -0.060959,0.00908 -0.1076493,0.0013 -0.1491536,-0.023346 -0.041504,-0.024643 -0.077819,-0.066146 -0.086898,-0.097275 -0.00908,-0.031128 0.00908,-0.05188 0.023346,-0.067444 z"
       id="path1202"
       transform="translate(-0.46691682,-0.85542182)" />
    <path
       style="fill:#c1759b;stroke:none;stroke-width:0.376474;stroke-dasharray:none"
       d="m 4.2048043,5.2967549 c 4.585e-4,-0.00367 0.00137,-0.011005 0.00596,-0.068325 0.00459,-0.05732 0.01284,-0.1646192 0.00459,-0.2301933 -0.00825,-0.065574 -0.033015,-0.089418 -0.057778,-0.1045505 -0.024762,-0.015132 -0.049524,-0.021552 -0.081164,0.010548 -0.031641,0.0321 -0.070159,0.1027158 -0.076578,0.1609532 -0.00642,0.058237 0.019259,0.1040913 0.051358,0.1476545 0.032099,0.043563 0.070617,0.084832 0.095379,0.108677 0.024762,0.023845 0.035768,0.030265 0.043105,0.023845 0.00734,-0.00642 0.011005,-0.02568 0.012838,-0.03531 0.00183,-0.00963 0.00184,-0.00963 0.00229,-0.013299 z"
       id="path1212"
       transform="translate(0.01375667,-0.01925934)" />
    <path
       style="fill:#c1759b;stroke:none;stroke-width:0.376474;stroke-dasharray:none"
       d="m 4.2387367,5.2930887 c 0.00137,-0.00459 0.00413,-0.013758 0.013296,-0.055487 0.00917,-0.041729 0.024761,-0.116013 0.049524,-0.1724157 0.024762,-0.056403 0.058695,-0.09492 0.093087,-0.088042 0.034392,0.00688 0.069241,0.059153 0.074744,0.1137214 0.0055,0.054569 -0.018342,0.1114284 -0.055485,0.1549915 -0.037143,0.043563 -0.087584,0.073827 -0.1242677,0.08896 -0.036684,0.015132 -0.059613,0.015132 -0.066032,0.00642 -0.00642,-0.00871 0.00367,-0.026137 0.00871,-0.03485 0.00504,-0.00871 0.00505,-0.00871 0.00642,-0.013298 z"
       id="path1214"
       transform="translate(-0.024762,-0.033016)" />
    <path
       style="fill:#c1759b;stroke:none;stroke-width:0.376474;stroke-dasharray:none"
       d="m 4.1814182,5.3004257 c -0.00367,-0.0055 -0.011006,-0.016508 -0.043105,-0.049983 -0.0321,-0.033475 -0.088959,-0.089418 -0.1242683,-0.1325222 -0.035309,-0.043104 -0.049065,-0.073368 -0.069701,-0.07612 -0.020636,-0.00275 -0.048148,0.02201 -0.055485,0.060071 -0.00734,0.03806 0.0055,0.089418 0.024763,0.1274783 0.01926,0.038061 0.044938,0.062821 0.087126,0.07933 0.042188,0.016508 0.1008815,0.024763 0.1329791,0.02889 0.032097,0.00413 0.037602,0.00413 0.041729,-0.00183 0.00413,-0.00596 0.00688,-0.017882 0.00825,-0.023844 0.00138,-0.00596 0.00138,-0.00596 -0.00229,-0.011465 z"
       id="path1215" />
    <path
       style="fill:#c1759b;stroke:none;stroke-width:0.376474;stroke-dasharray:none"
       d="m 4.2295665,5.3082206 c 0.00321,-4.584e-4 0.00963,-0.00138 0.037144,-0.02201 0.027513,-0.020635 0.076119,-0.060987 0.1155553,-0.089876 0.039436,-0.028889 0.0697,-0.046314 0.094462,-0.058236 0.024762,-0.011922 0.044022,-0.018342 0.048149,0.00184 0.00413,0.020177 -0.00688,0.066948 -0.027514,0.099506 -0.020635,0.032558 -0.050899,0.050899 -0.084832,0.064656 -0.033933,0.013757 -0.071535,0.022927 -0.099049,0.025679 -0.027514,0.00275 -0.044938,-9.163e-4 -0.057779,-0.0055 -0.012841,-0.00459 -0.021092,-0.010086 -0.025219,-0.012838 -0.00413,-0.00275 -0.00413,-0.00275 -9.156e-4,-0.00321 z"
       id="path1216" />
    <path
       style="fill:#c1759b;stroke:none;stroke-width:0.376474;stroke-dasharray:none"
       d="m 4.2373618,5.2761244 c 0,-0.00229 0,-0.00688 0.01284,-0.060532 0.01284,-0.053652 0.038518,-0.1563668 0.052275,-0.2324876 0.013756,-0.076121 0.015589,-0.1256437 9.15e-4,-0.1371074 -0.014675,-0.011464 -0.045856,0.015132 -0.061905,0.06053 -0.01605,0.045398 -0.016966,0.1095946 -0.017424,0.1563674 -4.583e-4,0.046773 -4.583e-4,0.07612 -4.583e-4,0.099506 0,0.023386 0,0.040812 0.00229,0.059154 0.00229,0.018343 0.00688,0.037601 0.00917,0.047231 0.00229,0.00963 0.0023,0.00963 0.0023,0.00734 z"
       id="path1217" />
  </g>
  <g
     id="g1225"
     transform="matrix(-1.0624885,0,0,1.0624885,25.664535,-0.26453462)">
    <rect
       style="fill:#bdca31;fill-opacity:0;stroke:none;stroke-width:0.497953"
       id="rect1218"
       width="7.9687138"
       height="7.9687138"
       x="0.24897645"
       y="0.24897645" />
    <path
       style="fill:#c1759b;stroke:#457b47;stroke-width:0.2;stroke-dasharray:none"
       d="M 4.2994791,7.2098957 C 4.3049911,7.1272138 4.3105031,7.0445311 4.3105031,6.9590921 4.310503,6.873653 4.3049911,6.7854598 4.299006,6.4104426 4.293021,6.0354254 4.2865632,5.3736208 4.2801052,4.7117988"
       id="path1218"
       transform="matrix(-0.94118667,0,0,0.94118667,8.2176902,0.24897645)" />
    <ellipse
       style="fill:#a0bf43;stroke:none;stroke-width:0.349396;stroke-dasharray:none"
       id="ellipse1218"
       cx="-4.2025576"
       cy="4.5325365"
       rx="0.27051502"
       ry="0.23499788"
       transform="scale(-1,1)" />
    <path
       style="fill:#457b47;stroke:none;stroke-width:0.376474;stroke-dasharray:none"
       d="m 4.2060973,6.6742701 c 0.014267,-0.015564 0.024641,-0.025939 0.073928,-0.032424 0.049287,-0.00649 0.1374809,-0.00908 0.1984396,0.0013 0.060959,0.010376 0.094681,0.033722 0.1154323,0.062256 0.020752,0.028533 0.028534,0.062256 -0.00519,0.092086 -0.033722,0.029831 -0.1089469,0.05577 -0.1699058,0.064849 -0.060959,0.00908 -0.1076493,0.0013 -0.1491536,-0.023346 -0.041504,-0.024643 -0.077819,-0.066146 -0.086898,-0.097275 -0.00908,-0.031128 0.00908,-0.05188 0.023346,-0.067444 z"
       id="path1219"
       transform="matrix(1.3741277,0.793353,-0.793353,1.3741277,3.8048611,-7.3464057)" />
    <path
       style="fill:#457b47;stroke:none;stroke-width:0.376474;stroke-dasharray:none"
       d="m 4.2060973,6.6742701 c 0.014267,-0.015564 0.024641,-0.025939 0.073928,-0.032424 0.049287,-0.00649 0.1374809,-0.00908 0.1984396,0.0013 0.060959,0.010376 0.094681,0.033722 0.1154323,0.062256 0.020752,0.028533 0.028534,0.062256 -0.00519,0.092086 -0.033722,0.029831 -0.1089469,0.05577 -0.1699058,0.064849 -0.060959,0.00908 -0.1076493,0.0013 -0.1491536,-0.023346 -0.041504,-0.024643 -0.077819,-0.066146 -0.086898,-0.097275 -0.00908,-0.031128 0.00908,-0.05188 0.023346,-0.067444 z"
       id="path1220"
       transform="matrix(1.3881614,-0.59468392,0.59468392,1.3881614,-6.2210609,-1.5184019)" />
    <path
       style="fill:#c1759b;stroke:none;stroke-width:0.376474;stroke-dasharray:none"
       d="m 4.2048043,5.2967549 c 4.585e-4,-0.00367 0.00137,-0.011005 0.00596,-0.068325 0.00459,-0.05732 0.01284,-0.1646192 0.00459,-0.2301933 -0.00825,-0.065574 -0.033015,-0.089418 -0.057778,-0.1045505 -0.024762,-0.015132 -0.049524,-0.021552 -0.081164,0.010548 -0.031641,0.0321 -0.070159,0.1027158 -0.076578,0.1609532 -0.00642,0.058237 0.019259,0.1040913 0.051358,0.1476545 0.032099,0.043563 0.070617,0.084832 0.095379,0.108677 0.024762,0.023845 0.035768,0.030265 0.043105,0.023845 0.00734,-0.00642 0.011005,-0.02568 0.012838,-0.03531 0.00183,-0.00963 0.00184,-0.00963 0.00229,-0.013299 z"
       id="path1221"
       transform="matrix(1.2994834,0,0,1.2994834,-1.2659712,-2.4825148)" />
    <path
       style="fill:#c1759b;stroke:none;stroke-width:0.376474;stroke-dasharray:none"
       d="m 4.2387367,5.2930887 c 0.00137,-0.00459 0.00413,-0.013758 0.013296,-0.055487 0.00917,-0.041729 0.024761,-0.116013 0.049524,-0.1724157 0.024762,-0.056403 0.058695,-0.09492 0.093087,-0.088042 0.034392,0.00688 0.069241,0.059153 0.074744,0.1137214 0.0055,0.054569 -0.018342,0.1114284 -0.055485,0.1549915 -0.037143,0.043563 -0.087584,0.073827 -0.1242677,0.08896 -0.036684,0.015132 -0.059613,0.015132 -0.066032,0.00642 -0.00642,-0.00871 0.00367,-0.026137 0.00871,-0.03485 0.00504,-0.00871 0.00505,-0.00871 0.00642,-0.013298 z"
       id="path1222"
       transform="matrix(1.2994834,0,0,1.2994834,-1.3160256,-2.5003914)" />
    <path
       style="fill:#c1759b;stroke:none;stroke-width:0.376474;stroke-dasharray:none"
       d="m 4.1814182,5.3004257 c -0.00367,-0.0055 -0.011006,-0.016508 -0.043105,-0.049983 -0.0321,-0.033475 -0.088959,-0.089418 -0.1242683,-0.1325222 -0.035309,-0.043104 -0.049065,-0.073368 -0.069701,-0.07612 -0.020636,-0.00275 -0.048148,0.02201 -0.055485,0.060071 -0.00734,0.03806 0.0055,0.089418 0.024763,0.1274783 0.01926,0.038061 0.044938,0.062821 0.087126,0.07933 0.042188,0.016508 0.1008815,0.024763 0.1329791,0.02889 0.032097,0.00413 0.037602,0.00413 0.041729,-0.00183 0.00413,-0.00596 0.00688,-0.017882 0.00825,-0.023844 0.00138,-0.00596 0.00138,-0.00596 -0.00229,-0.011465 z"
       id="path1223"
       transform="matrix(1.2994834,0,0,1.2994834,-1.2838477,-2.4574876)" />
    <path
       style="fill:#c1759b;stroke:none;stroke-width:0.376474;stroke-dasharray:none"
       d="m 4.2295665,5.3082206 c 0.00321,-4.584e-4 0.00963,-0.00138 0.037144,-0.02201 0.027513,-0.020635 0.076119,-0.060987 0.1155553,-0.089876 0.039436,-0.028889 0.0697,-0.046314 0.094462,-0.058236 0.024762,-0.011922 0.044022,-0.018342 0.048149,0.00184 0.00413,0.020177 -0.00688,0.066948 -0.027514,0.099506 -0.020635,0.032558 -0.050899,0.050899 -0.084832,0.064656 -0.033933,0.013757 -0.071535,0.022927 -0.099049,0.025679 -0.027514,0.00275 -0.044938,-9.163e-4 -0.057779,-0.0055 -0.012841,-0.00459 -0.021092,-0.010086 -0.025219,-0.012838 -0.00413,-0.00275 -0.00413,-0.00275 -9.156e-4,-0.00321 z"
       id="path1224"
       transform="matrix(1.2994834,0,0,1.2994834,-1.2838477,-2.4574876)" />
    <path
       style="fill:#c1759b;stroke:none;stroke-width:0.376474;stroke-dasharray:none"
       d="m 4.2373618,5.2761244 c 0,-0.00229 0,-0.00688 0.01284,-0.060532 0.01284,-0.053652 0.038518,-0.1563668 0.052275,-0.2324876 0.013756,-0.076121 0.015589,-0.1256437 9.15e-4,-0.1371074 -0.014675,-0.011464 -0.045856,0.015132 -0.061905,0.06053 -0.01605,0.045398 -0.016966,0.1095946 -0.017424,0.1563674 -4.583e-4,0.046773 -4.583e-4,0.07612 -4.583e-4,0.099506 0,0.023386 0,0.040812 0.00229,0.059154 0.00229,0.018343 0.00688,0.037601 0.00917,0.047231 0.00229,0.00963 0.0023,0.00963 0.0023,0.00734 z"
       id="path1225"
       transform="matrix(1.2994834,0,0,1.2994834,-1.2838477,-2.4574876)" />
    <path
       style="fill:#c1759b;stroke:none;stroke-width:0.376474;stroke-dasharray:none"
       d="m 4.1510876,4.3998219 c -0.014674,0.00367 -0.036684,0.036684 -0.1063859,0.017424 C 3.975,4.3979862 3.8576121,4.326453 3.7594804,4.2310723 3.6613488,4.1356916 3.5824788,4.0164695 3.513695,3.9632772 3.4449113,3.9100849 3.386217,3.9229243 3.3944717,4.0164714 c 0.00825,0.093547 0.083456,0.2677948 0.1669143,0.3806001 0.083458,0.1128052 0.1751674,0.1641624 0.264128,0.1806701 0.088961,0.016508 0.1751673,-0.00183 0.2338627,-0.029348 0.058695,-0.027514 0.089877,-0.064198 0.1017991,-0.09538 0.011922,-0.031182 0.00459,-0.05686 -0.010088,-0.053192 z"
       id="path1240" />
    <path
       style="fill:#c1759b;stroke:none;stroke-width:0.376474;stroke-dasharray:none"
       d="m 4.2877371,4.4053243 c 0.00825,-0.00734 0.04127,-0.00183 0.095381,-0.033017 0.054111,-0.031183 0.1293119,-0.099047 0.1962615,-0.1568258 0.06695,-0.057778 0.1256437,-0.1054675 0.1907593,-0.1494893 0.065116,-0.044022 0.1366489,-0.084374 0.177919,-0.040351 0.04127,0.044023 0.052275,0.1724158 0.010087,0.2567903 -0.042188,0.084375 -0.1375659,0.1247267 -0.231112,0.1504059 -0.093546,0.025679 -0.1852557,0.036684 -0.2540395,0.037601 -0.068784,9.171e-4 -0.1146383,-0.00825 -0.1458201,-0.022927 -0.031182,-0.014674 -0.04769,-0.03485 -0.039436,-0.042187 z"
       id="path1241"
       transform="translate(-0.14306935,0.033016)" />
    <path
       style="fill:#c1759b;stroke:none;stroke-width:0.376474;stroke-dasharray:none"
       d="m 4.1822691,4.4410917 c 0.00183,0.00459 0.0055,0.013759 -0.0055,0.056863 -0.011006,0.043104 -0.036685,0.1201397 -0.077956,0.1669126 -0.041271,0.046773 -0.09813,0.063281 -0.1742512,0.066949 C 3.8484378,4.7354848 3.75306,4.7263137 3.6430055,4.6850429 3.5329511,4.6437722 3.4082263,4.5704046 3.3412771,4.469521 3.2743279,4.3686375 3.2651571,4.2402445 3.305511,4.1806324 c 0.040354,-0.059612 0.1302288,-0.050441 0.1925926,-0.020176 0.062364,0.030265 0.097213,0.081622 0.1623291,0.1183069 0.065116,0.036685 0.1604936,0.058695 0.2292777,0.073369 0.068784,0.014674 0.1109698,0.022011 0.1494891,0.029348 0.038519,0.00734 0.073369,0.014674 0.096297,0.023845 0.022928,0.00917 0.033933,0.020177 0.039436,0.025679 0.0055,0.0055 0.0055,0.0055 0.00734,0.010087 z"
       id="path1242" />
    <path
       style="fill:#c1759b;stroke:none;stroke-width:0.376474;stroke-dasharray:none"
       d="m 4.3106651,4.408076 c 0.053192,0.010088 0.1595774,0.030264 0.2714661,-0.014675 0.1118887,-0.044939 0.2292766,-0.1549907 0.3246568,-0.186172 0.09538,-0.031181 0.1687476,0.016508 0.1825039,0.085292 0.013756,0.068784 -0.032098,0.1586594 -0.1375676,0.2301946 C 4.8462549,4.5942505 4.6811779,4.6474419 4.5536986,4.6694525 4.4262192,4.6914631 4.336344,4.6822923 4.272146,4.6556958 4.2079481,4.6290994 4.1694299,4.5850785 4.1547562,4.541057 c -0.014674,-0.044022 -0.0055,-0.088043 0.015591,-0.1118874 0.021094,-0.023844 0.054109,-0.027512 0.070617,-0.029346 0.016508,-0.00183 0.016508,-0.00184 0.0697,0.00825 z"
       id="path1243"
       transform="translate(-0.12656135,0.04402134)" />
    <path
       style="fill:#e11800;stroke:none;stroke-width:0.376474;stroke-dasharray:none"
       d="M 4.2006118,4.2521669 C 4.1877722,4.2384102 4.1620932,4.210897 4.1254082,4.1494496 4.0887232,4.0880021 4.0410343,3.9926245 3.9997637,3.9348462 3.958493,3.8770678 3.9236441,3.8568921 3.884208,3.8688149 3.844772,3.8807377 3.800751,3.9247587 3.776906,3.9788687 c -0.023845,0.05411 -0.027514,0.1183065 -0.013757,0.1650797 0.013757,0.046773 0.044938,0.07612 0.1036334,0.093545 0.058696,0.017425 0.1449025,0.022928 0.196261,0.023845 0.051359,9.173e-4 0.067867,-0.00275 0.087126,-0.00275 0.019259,1e-7 0.04127,0.00367 0.052275,0.0055 0.011005,0.00183 0.011007,0.00183 -0.00183,-0.011923 z"
       id="path1244"
       transform="translate(-0.03851867,-0.04952401)" />
    <path
       style="fill:#e11800;stroke:none;stroke-width:0.376474;stroke-dasharray:none"
       d="m 4.0483715,4.1375282 c 0.016508,-0.00734 0.049524,-0.022011 0.075203,-0.072452 0.025679,-0.050442 0.044021,-0.1366488 0.08254,-0.181587 0.038519,-0.044938 0.097214,-0.048606 0.1173896,-0.00458 0.020176,0.044023 0.00183,0.1357315 -0.027514,0.2035983 -0.029348,0.067867 -0.0697,0.1118874 -0.1128048,0.1320639 -0.043104,0.020177 -0.088959,0.016509 -0.1146385,9.179e-4 -0.025679,-0.015591 -0.031182,-0.043104 -0.033933,-0.056861 -0.00275,-0.013757 -0.00275,-0.013759 0.013758,-0.021096 z"
       id="path1245" />
  </g>
  <g
     id="g1259"
     transform="matrix(-1.0624885,0,0,1.0624885,34.131201,-0.26453462)">
    <rect
       style="fill:#bdca31;fill-opacity:0;stroke:none;stroke-width:0.497953"
       id="rect1246"
       width="7.9687138"
       height="7.9687138"
       x="0.24897645"
       y="0.24897645" />
    <path
       style="fill:#c1759b;stroke:#457b47;stroke-width:0.2;stroke-dasharray:none"
       d="M 4.2994791,7.2098957 C 4.3049911,7.1272138 4.3105031,7.0445311 4.3105031,6.9590921 4.310503,6.873653 4.3049911,6.7854598 4.299006,6.4104426 4.293021,6.0354254 4.2865632,5.3736208 4.2801052,4.7117988"
       id="path1246"
       transform="matrix(-0.94118667,0,0,0.94118667,8.2176902,0.24897645)" />
    <ellipse
       style="fill:#a0bf43;stroke:none;stroke-width:0.398649;stroke-dasharray:none"
       id="ellipse1246"
       cx="-4.2246857"
       cy="4.4771113"
       rx="0.30864856"
       ry="0.2681247"
       transform="scale(-1,1)" />
    <path
       style="fill:#457b47;stroke:none;stroke-width:0.376474;stroke-dasharray:none"
       d="m 4.2060973,6.6742701 c 0.014267,-0.015564 0.024641,-0.025939 0.073928,-0.032424 0.049287,-0.00649 0.1374809,-0.00908 0.1984396,0.0013 0.060959,0.010376 0.094681,0.033722 0.1154323,0.062256 0.020752,0.028533 0.028534,0.062256 -0.00519,0.092086 -0.033722,0.029831 -0.1089469,0.05577 -0.1699058,0.064849 -0.060959,0.00908 -0.1076493,0.0013 -0.1491536,-0.023346 -0.041504,-0.024643 -0.077819,-0.066146 -0.086898,-0.097275 -0.00908,-0.031128 0.00908,-0.05188 0.023346,-0.067444 z"
       id="path1247"
       transform="matrix(1.8205702,1.1559758,-1.0511067,2.0022088,3.6842603,-13.203831)" />
    <path
       style="fill:#457b47;stroke:none;stroke-width:0.376474;stroke-dasharray:none"
       d="m 4.2060973,6.6742701 c 0.014267,-0.015564 0.024641,-0.025939 0.073928,-0.032424 0.049287,-0.00649 0.1374809,-0.00908 0.1984396,0.0013 0.060959,0.010376 0.094681,0.033722 0.1154323,0.062256 0.020752,0.028533 0.028534,0.062256 -0.00519,0.092086 -0.033722,0.029831 -0.1089469,0.05577 -0.1699058,0.064849 -0.060959,0.00908 -0.1076493,0.0013 -0.1491536,-0.023346 -0.041504,-0.024643 -0.077819,-0.066146 -0.086898,-0.097275 -0.00908,-0.031128 0.00908,-0.05188 0.023346,-0.067444 z"
       id="path1248"
       transform="matrix(1.887356,-1.1819368,0.80853732,2.7589766,-9.9772408,-8.1395127)" />
    <path
       style="fill:#c1759b;stroke:none;stroke-width:0.376474;stroke-dasharray:none"
       d="m 4.2048043,5.2967549 c 4.585e-4,-0.00367 0.00137,-0.011005 0.00596,-0.068325 0.00459,-0.05732 0.01284,-0.1646192 0.00459,-0.2301933 -0.00825,-0.065574 -0.033015,-0.089418 -0.057778,-0.1045505 -0.024762,-0.015132 -0.049524,-0.021552 -0.081164,0.010548 -0.031641,0.0321 -0.070159,0.1027158 -0.076578,0.1609532 -0.00642,0.058237 0.019259,0.1040913 0.051358,0.1476545 0.032099,0.043563 0.070617,0.084832 0.095379,0.108677 0.024762,0.023845 0.035768,0.030265 0.043105,0.023845 0.00734,-0.00642 0.011005,-0.02568 0.012838,-0.03531 0.00183,-0.00963 0.00184,-0.00963 0.00229,-0.013299 z"
       id="path1249"
       transform="matrix(1.2994834,0,0,1.2994834,-1.2219499,-2.4825148)" />
    <path
       style="fill:#c1759b;stroke:none;stroke-width:0.376474;stroke-dasharray:none"
       d="m 4.2387367,5.2930887 c 0.00137,-0.00459 0.00413,-0.013758 0.013296,-0.055487 0.00917,-0.041729 0.024761,-0.116013 0.049524,-0.1724157 0.024762,-0.056403 0.058695,-0.09492 0.093087,-0.088042 0.034392,0.00688 0.069241,0.059153 0.074744,0.1137214 0.0055,0.054569 -0.018342,0.1114284 -0.055485,0.1549915 -0.037143,0.043563 -0.087584,0.073827 -0.1242677,0.08896 -0.036684,0.015132 -0.059613,0.015132 -0.066032,0.00642 -0.00642,-0.00871 0.00367,-0.026137 0.00871,-0.03485 0.00504,-0.00871 0.00505,-0.00871 0.00642,-0.013298 z"
       id="path1250"
       transform="matrix(1.4826669,0,0,1.4826669,-2.0718323,-3.5472232)" />
    <path
       style="fill:#c1759b;stroke:none;stroke-width:0.376474;stroke-dasharray:none"
       d="m 4.1814182,5.3004257 c -0.00367,-0.0055 -0.011006,-0.016508 -0.043105,-0.049983 -0.0321,-0.033475 -0.088959,-0.089418 -0.1242683,-0.1325222 -0.035309,-0.043104 -0.049065,-0.073368 -0.069701,-0.07612 -0.020636,-0.00275 -0.048148,0.02201 -0.055485,0.060071 -0.00734,0.03806 0.0055,0.089418 0.024763,0.1274783 0.01926,0.038061 0.044938,0.062821 0.087126,0.07933 0.042188,0.016508 0.1008815,0.024763 0.1329791,0.02889 0.032097,0.00413 0.037602,0.00413 0.041729,-0.00183 0.00413,-0.00596 0.00688,-0.017882 0.00825,-0.023844 0.00138,-0.00596 0.00138,-0.00596 -0.00229,-0.011465 z"
       id="path1251"
       transform="matrix(1.4826669,0,0,1.4826669,-2.0351184,-3.4982714)" />
    <path
       style="fill:#c1759b;stroke:none;stroke-width:0.376474;stroke-dasharray:none"
       d="m 4.2295665,5.3082206 c 0.00321,-4.584e-4 0.00963,-0.00138 0.037144,-0.02201 0.027513,-0.020635 0.076119,-0.060987 0.1155553,-0.089876 0.039436,-0.028889 0.0697,-0.046314 0.094462,-0.058236 0.024762,-0.011922 0.044022,-0.018342 0.048149,0.00184 0.00413,0.020177 -0.00688,0.066948 -0.027514,0.099506 -0.020635,0.032558 -0.050899,0.050899 -0.084832,0.064656 -0.033933,0.013757 -0.071535,0.022927 -0.099049,0.025679 -0.027514,0.00275 -0.044938,-9.163e-4 -0.057779,-0.0055 -0.012841,-0.00459 -0.021092,-0.010086 -0.025219,-0.012838 -0.00413,-0.00275 -0.00413,-0.00275 -9.156e-4,-0.00321 z"
       id="path1252"
       transform="matrix(1.4826669,0,0,1.4826669,-2.0351184,-3.4982714)" />
    <path
       style="fill:#c1759b;stroke:none;stroke-width:0.376474;stroke-dasharray:none"
       d="m 4.2373618,5.2761244 c 0,-0.00229 0,-0.00688 0.01284,-0.060532 0.01284,-0.053652 0.038518,-0.1563668 0.052275,-0.2324876 0.013756,-0.076121 0.015589,-0.1256437 9.15e-4,-0.1371074 -0.014675,-0.011464 -0.045856,0.015132 -0.061905,0.06053 -0.01605,0.045398 -0.016966,0.1095946 -0.017424,0.1563674 -4.583e-4,0.046773 -4.583e-4,0.07612 -4.583e-4,0.099506 0,0.023386 0,0.040812 0.00229,0.059154 0.00229,0.018343 0.00688,0.037601 0.00917,0.047231 0.00229,0.00963 0.0023,0.00963 0.0023,0.00734 z"
       id="path1253"
       transform="matrix(1.2994834,0,0,1.2994834,-1.2398264,-2.4574876)" />
    <path
       style="fill:#c1759b;stroke:none;stroke-width:0.376474;stroke-dasharray:none"
       d="m 4.1510876,4.3998219 c -0.014674,0.00367 -0.036684,0.036684 -0.1063859,0.017424 C 3.975,4.3979862 3.8576121,4.326453 3.7594804,4.2310723 3.6613488,4.1356916 3.5824788,4.0164695 3.513695,3.9632772 3.4449113,3.9100849 3.386217,3.9229243 3.3944717,4.0164714 c 0.00825,0.093547 0.083456,0.2677948 0.1669143,0.3806001 0.083458,0.1128052 0.1751674,0.1641624 0.264128,0.1806701 0.088961,0.016508 0.1751673,-0.00183 0.2338627,-0.029348 0.058695,-0.027514 0.089877,-0.064198 0.1017991,-0.09538 0.011922,-0.031182 0.00459,-0.05686 -0.010088,-0.053192 z"
       id="path1254"
       transform="matrix(1.1409664,0,0,1.1409664,-0.57029123,-0.69436065)" />
    <path
       style="fill:#c1759b;stroke:none;stroke-width:0.376474;stroke-dasharray:none"
       d="m 4.2877371,4.4053243 c 0.00825,-0.00734 0.04127,-0.00183 0.095381,-0.033017 0.054111,-0.031183 0.1293119,-0.099047 0.1962615,-0.1568258 0.06695,-0.057778 0.1256437,-0.1054675 0.1907593,-0.1494893 0.065116,-0.044022 0.1366489,-0.084374 0.177919,-0.040351 0.04127,0.044023 0.052275,0.1724158 0.010087,0.2567903 -0.042188,0.084375 -0.1375659,0.1247267 -0.231112,0.1504059 -0.093546,0.025679 -0.1852557,0.036684 -0.2540395,0.037601 -0.068784,9.171e-4 -0.1146383,-0.00825 -0.1458201,-0.022927 -0.031182,-0.014674 -0.04769,-0.03485 -0.039436,-0.042187 z"
       id="path1255"
       transform="matrix(1.1409664,0,0,1.1409664,-0.73352856,-0.6566905)" />
    <path
       style="fill:#c1759b;stroke:none;stroke-width:0.376474;stroke-dasharray:none"
       d="m 4.1822691,4.4410917 c 0.00183,0.00459 0.0055,0.013759 -0.0055,0.056863 -0.011006,0.043104 -0.036685,0.1201397 -0.077956,0.1669126 -0.041271,0.046773 -0.09813,0.063281 -0.1742512,0.066949 C 3.8484378,4.7354848 3.75306,4.7263137 3.6430055,4.6850429 3.5329511,4.6437722 3.4082263,4.5704046 3.3412771,4.469521 3.2743279,4.3686375 3.2651571,4.2402445 3.305511,4.1806324 c 0.040354,-0.059612 0.1302288,-0.050441 0.1925926,-0.020176 0.062364,0.030265 0.097213,0.081622 0.1623291,0.1183069 0.065116,0.036685 0.1604936,0.058695 0.2292777,0.073369 0.068784,0.014674 0.1109698,0.022011 0.1494891,0.029348 0.038519,0.00734 0.073369,0.014674 0.096297,0.023845 0.022928,0.00917 0.033933,0.020177 0.039436,0.025679 0.0055,0.0055 0.0055,0.0055 0.00734,0.010087 z"
       id="path1256"
       transform="matrix(1.1409664,0,0,1.1409664,-0.57029123,-0.69436065)" />
    <path
       style="fill:#c1759b;stroke:none;stroke-width:0.376474;stroke-dasharray:none"
       d="m 4.3106651,4.408076 c 0.053192,0.010088 0.1595774,0.030264 0.2714661,-0.014675 0.1118887,-0.044939 0.2292766,-0.1549907 0.3246568,-0.186172 0.09538,-0.031181 0.1687476,0.016508 0.1825039,0.085292 0.013756,0.068784 -0.032098,0.1586594 -0.1375676,0.2301946 C 4.8462549,4.5942505 4.6811779,4.6474419 4.5536986,4.6694525 4.4262192,4.6914631 4.336344,4.6822923 4.272146,4.6556958 4.2079481,4.6290994 4.1694299,4.5850785 4.1547562,4.541057 c -0.014674,-0.044022 -0.0055,-0.088043 0.015591,-0.1118874 0.021094,-0.023844 0.054109,-0.027512 0.070617,-0.029346 0.016508,-0.00183 0.016508,-0.00184 0.0697,0.00825 z"
       id="path1257"
       transform="matrix(1.1409664,0,0,1.1409664,-0.71469348,-0.64413378)" />
    <path
       style="fill:#e11800;stroke:none;stroke-width:0.376474;stroke-dasharray:none"
       d="M 4.2006118,4.2521669 C 4.1877722,4.2384102 4.1620932,4.210897 4.1254082,4.1494496 4.0887232,4.0880021 4.0410343,3.9926245 3.9997637,3.9348462 3.958493,3.8770678 3.9236441,3.8568921 3.884208,3.8688149 3.844772,3.8807377 3.800751,3.9247587 3.776906,3.9788687 c -0.023845,0.05411 -0.027514,0.1183065 -0.013757,0.1650797 0.013757,0.046773 0.044938,0.07612 0.1036334,0.093545 0.058696,0.017425 0.1449025,0.022928 0.196261,0.023845 0.051359,9.173e-4 0.067867,-0.00275 0.087126,-0.00275 0.019259,1e-7 0.04127,0.00367 0.052275,0.0055 0.011005,0.00183 0.011007,0.00183 -0.00183,-0.011923 z"
       id="path1258"
       transform="translate(0.016508,-0.05502668)" />
    <path
       style="fill:#e11800;stroke:none;stroke-width:0.376474;stroke-dasharray:none"
       d="m 4.0483715,4.1375282 c 0.016508,-0.00734 0.049524,-0.022011 0.075203,-0.072452 0.025679,-0.050442 0.044021,-0.1366488 0.08254,-0.181587 0.038519,-0.044938 0.097214,-0.048606 0.1173896,-0.00458 0.020176,0.044023 0.00183,0.1357315 -0.027514,0.2035983 -0.029348,0.067867 -0.0697,0.1118874 -0.1128048,0.1320639 -0.043104,0.020177 -0.088959,0.016509 -0.1146385,9.179e-4 -0.025679,-0.015591 -0.031182,-0.043104 -0.033933,-0.056861 -0.00275,-0.013757 -0.00275,-0.013759 0.013758,-0.021096 z"
       id="path1259"
       transform="translate(0.09354535,-0.05502667)" />
    <path
       style="fill:#e11800;stroke:none;stroke-width:0.376474;stroke-dasharray:none"
       d="m 4.0699125,4.1088221 c 0,0 0,0 0,0 0.036316,-0.09468 0.072632,-0.1893609 0.1018133,-0.2062228 0.029182,-0.016862 0.051231,0.044099 0.062901,0.090141 0.011671,0.046042 0.012964,0.077172 -0.013626,0.1031118 -0.02659,0.025939 -0.081064,0.046691 -0.1108944,0.047989 -0.029831,0.0013 -0.03502,-0.016864 -0.037613,-0.025942 -0.00259,-0.00908 -0.00258,-0.00908 -0.00258,-0.00908 z"
       id="path1286" />
    <path
       style="fill:#e11800;stroke:none;stroke-width:0.376474;stroke-dasharray:none"
       d="m 4.118922,3.9807018 c 0.00734,-0.017425 0.00734,-0.033933 -0.00642,-0.060529 -0.013757,-0.026597 -0.041269,-0.063281 -0.055025,-0.049523 -0.013756,0.013757 -0.013756,0.077954 -0.00733,0.1137242 0.00642,0.03577 0.019255,0.043102 0.033009,0.037601 0.013754,-0.0055 0.028431,-0.023848 0.035768,-0.041272 z"
       id="path1287" />
    <path
       style="fill:#e11800;stroke:none;stroke-width:0.376474;stroke-dasharray:none"
       d="M 3.940086,4.0430657 C 3.9189926,4.029309 3.8768057,4.0017956 3.8272806,3.9641931 3.7777555,3.9265905 3.720896,3.878902 3.6860427,3.8523047 c -0.034853,-0.026597 -0.047686,-0.032097 -0.053189,0.00275 -0.0055,0.03485 -0.00367,0.1100535 0.023844,0.1632464 0.027513,0.053193 0.080705,0.084374 0.1338984,0.102716 0.053193,0.018342 0.1063848,0.023845 0.1348147,0.011006 0.02843,-0.012839 0.032099,-0.044024 0.033934,-0.059613 0.00183,-0.01559 0.00184,-0.01559 -0.019258,-0.029347 z"
       id="path1288" />
    <path
       style="fill:#e11800;stroke:none;stroke-width:0.376474;stroke-dasharray:none"
       d="m 4.1867914,4.0971753 c 0.011007,0.00183 0.033014,0.0055 0.079787,-0.011007 0.046774,-0.016509 0.1183055,-0.053192 0.1880069,-0.095379 0.069701,-0.042188 0.1375667,-0.089877 0.1696653,-0.084374 0.032099,0.0055 0.02843,0.064198 -0.014675,0.1201421 -0.043105,0.055944 -0.1256433,0.1091359 -0.2017646,0.137566 -0.076121,0.02843 -0.1458202,0.032098 -0.1880056,0.022928 -0.042185,-0.00917 -0.056861,-0.031183 -0.059614,-0.048606 -0.00275,-0.017423 0.00642,-0.030272 0.011009,-0.03669 0.00458,-0.00642 0.00458,-0.00641 0.015591,-0.00458 z"
       id="path1289"
       transform="translate(-0.02751334)" />
  </g>
</svg>
