<?xml version="1.0" encoding="UTF-8" standalone="no"?>
<!-- Created with Inkscape (http://www.inkscape.org/) -->

<svg
   width="64.000008"
   height="64.000008"
   viewBox="0 0 16.933335 16.933335"
   version="1.1"
   id="svg1"
   xmlns="http://www.w3.org/2000/svg"
   xmlns:svg="http://www.w3.org/2000/svg">
  <defs
     id="defs1" />
  <g
     id="g32"
     transform="translate(-8.478902,-11.801772)">
    <rect
       style="fill:none;fill-opacity:0.921569;stroke:none;stroke-width:4.36359"
       id="rect225"
       width="15.937428"
       height="15.937428"
       x="7.7312517"
       y="11.356647"
       transform="matrix(1.0624885,0,0,1.0624885,0.26453492,-0.26453461)" />
    <path
       style="fill:none;stroke:#457b47;stroke-width:0.4;stroke-dasharray:none"
       d="m 17.264062,28.475781 c 0.176389,-1.896182 0.352778,-3.792361 0.330727,-5.253091 -0.02205,-1.460731 -0.242532,-2.485972 -0.451996,-3.28524 -0.209464,-0.799267 -0.407897,-1.37252 -0.606335,-1.945784"
       id="path1290"
       transform="matrix(0.82821698,0,0,0.82821698,2.6259276,3.8693017)" />
    <path
       style="fill:#457b47;stroke:#457b47;stroke-width:0.4;stroke-dasharray:none"
       d="m 16.955382,23.569965 c -0.363802,-0.198438 -1.135503,-0.341753 -1.763893,-0.363801 -0.628391,-0.02205 -1.113451,0.07717 -1.449694,0.264585 -0.336243,0.187416 -0.523653,0.463018 -0.49609,0.733116 0.02756,0.270099 0.270093,0.534677 0.733121,0.644919 0.463028,0.110243 1.146521,0.06615 1.725302,-0.05512 0.578781,-0.121269 1.052816,-0.319702 1.311888,-0.545703 0.259072,-0.226001 0.303168,-0.479555 -0.06063,-0.677993 z"
       id="path1291"
       transform="matrix(0.85605741,0,0,0.35624818,2.4210187,15.573387)" />
    <path
       style="fill:#457b47;stroke:#457b47;stroke-width:0.4;stroke-dasharray:none"
       d="m 16.955382,23.569965 c -0.363802,-0.198438 -1.135503,-0.341753 -1.763893,-0.363801 -0.628391,-0.02205 -1.113451,0.07717 -1.449694,0.264585 -0.336243,0.187416 -0.523653,0.463018 -0.49609,0.733116 0.02756,0.270099 0.270093,0.534677 0.733121,0.644919 0.463028,0.110243 1.146521,0.06615 1.725302,-0.05512 0.578781,-0.121269 1.052816,-0.319702 1.311888,-0.545703 0.259072,-0.226001 0.303168,-0.479555 -0.06063,-0.677993 z"
       id="path1292"
       transform="matrix(-0.65744313,0,0,0.51827727,28.582288,9.9427004)" />
    <path
       style="fill:#e6757c;stroke:#e6757c;stroke-width:0.4;stroke-dasharray:none"
       d="m 15.82539,16.883724 c -0.04961,0.04961 -0.148828,0.148828 -0.231511,0.490588 -0.08268,0.341759 -0.148827,0.926035 -0.06614,1.378035 0.08268,0.452 0.31419,0.771698 0.628387,0.964624 0.314196,0.192926 0.711063,0.25907 1.014234,0.154336 0.30317,-0.104733 0.512628,-0.380335 0.551212,-0.760679 0.03858,-0.380343 -0.0937,-0.865403 -0.259072,-1.306379 -0.165367,-0.440976 -0.3638,-0.837843 -0.573265,-1.080379 -0.209464,-0.242535 -0.429945,-0.330728 -0.584287,-0.336238 -0.154342,-0.0055 -0.242533,0.07166 -0.303167,0.159851 -0.06063,0.08819 -0.09371,0.187414 -0.110244,0.237022 -0.01654,0.04961 -0.01653,0.04961 -0.06614,0.09922 z"
       id="path1294"
       transform="matrix(0.3337804,0,0,0.63232173,10.609813,7.6389846)" />
    <path
       style="fill:#e6757c;stroke:#e6757c;stroke-width:0.4;stroke-dasharray:none"
       d="m 15.82539,16.883724 c -0.04961,0.04961 -0.148828,0.148828 -0.231511,0.490588 -0.08268,0.341759 -0.148827,0.926035 -0.06614,1.378035 0.08268,0.452 0.31419,0.771698 0.628387,0.964624 0.314196,0.192926 0.711063,0.25907 1.014234,0.154336 0.30317,-0.104733 0.512628,-0.380335 0.551212,-0.760679 0.03858,-0.380343 -0.0937,-0.865403 -0.259072,-1.306379 -0.165367,-0.440976 -0.3638,-0.837843 -0.573265,-1.080379 -0.209464,-0.242535 -0.429945,-0.330728 -0.584287,-0.336238 -0.154342,-0.0055 -0.242533,0.07166 -0.303167,0.159851 -0.06063,0.08819 -0.09371,0.187414 -0.110244,0.237022 -0.01654,0.04961 -0.01653,0.04961 -0.06614,0.09922 z"
       id="path1295"
       transform="matrix(0.32535241,-0.07453303,0.14119717,0.61635553,8.694545,9.0244365)" />
    <path
       style="fill:#e6757c;stroke:#e6757c;stroke-width:0.4;stroke-dasharray:none"
       d="m 15.82539,16.883724 c -0.04961,0.04961 -0.148828,0.148828 -0.231511,0.490588 -0.08268,0.341759 -0.148827,0.926035 -0.06614,1.378035 0.08268,0.452 0.31419,0.771698 0.628387,0.964624 0.314196,0.192926 0.711063,0.25907 1.014234,0.154336 0.30317,-0.104733 0.512628,-0.380335 0.551212,-0.760679 0.03858,-0.380343 -0.0937,-0.865403 -0.259072,-1.306379 -0.165367,-0.440976 -0.3638,-0.837843 -0.573265,-1.080379 -0.209464,-0.242535 -0.429945,-0.330728 -0.584287,-0.336238 -0.154342,-0.0055 -0.242533,0.07166 -0.303167,0.159851 -0.06063,0.08819 -0.09371,0.187414 -0.110244,0.237022 -0.01654,0.04961 -0.01653,0.04961 -0.06614,0.09922 z"
       id="path1297"
       transform="matrix(0.28608245,-0.17194823,0.3257429,0.54196156,6.3485766,11.815588)" />
    <path
       style="fill:#e6757c;stroke:#e6757c;stroke-width:0.4;stroke-dasharray:none"
       d="m 15.82539,16.883724 c -0.04961,0.04961 -0.148828,0.148828 -0.231511,0.490588 -0.08268,0.341759 -0.148827,0.926035 -0.06614,1.378035 0.08268,0.452 0.31419,0.771698 0.628387,0.964624 0.314196,0.192926 0.711063,0.25907 1.014234,0.154336 0.30317,-0.104733 0.512628,-0.380335 0.551212,-0.760679 0.03858,-0.380343 -0.0937,-0.865403 -0.259072,-1.306379 -0.165367,-0.440976 -0.3638,-0.837843 -0.573265,-1.080379 -0.209464,-0.242535 -0.429945,-0.330728 -0.584287,-0.336238 -0.154342,-0.0055 -0.242533,0.07166 -0.303167,0.159851 -0.06063,0.08819 -0.09371,0.187414 -0.110244,0.237022 -0.01654,0.04961 -0.01653,0.04961 -0.06614,0.09922 z"
       id="path1298"
       transform="matrix(0.24046286,-0.2314886,0.43853765,0.45553871,5.4207251,13.989713)" />
    <path
       style="fill:#e6757c;stroke:#e6757c;stroke-width:0.4;stroke-dasharray:none"
       d="m 15.82539,16.883724 c -0.04961,0.04961 -0.148828,0.148828 -0.231511,0.490588 -0.08268,0.341759 -0.148827,0.926035 -0.06614,1.378035 0.08268,0.452 0.31419,0.771698 0.628387,0.964624 0.314196,0.192926 0.711063,0.25907 1.014234,0.154336 0.30317,-0.104733 0.512628,-0.380335 0.551212,-0.760679 0.03858,-0.380343 -0.0937,-0.865403 -0.259072,-1.306379 -0.165367,-0.440976 -0.3638,-0.837843 -0.573265,-1.080379 -0.209464,-0.242535 -0.429945,-0.330728 -0.584287,-0.336238 -0.154342,-0.0055 -0.242533,0.07166 -0.303167,0.159851 -0.06063,0.08819 -0.09371,0.187414 -0.110244,0.237022 -0.01654,0.04961 -0.01653,0.04961 -0.06614,0.09922 z"
       id="path1301"
       transform="matrix(0.26104897,-0.2079971,0.39403478,0.49453752,6.059297,12.649947)" />
    <path
       style="fill:#e6757c;stroke:#e6757c;stroke-width:0.4;stroke-dasharray:none"
       d="m 15.82539,16.883724 c -0.04961,0.04961 -0.148828,0.148828 -0.231511,0.490588 -0.08268,0.341759 -0.148827,0.926035 -0.06614,1.378035 0.08268,0.452 0.31419,0.771698 0.628387,0.964624 0.314196,0.192926 0.711063,0.25907 1.014234,0.154336 0.30317,-0.104733 0.512628,-0.380335 0.551212,-0.760679 0.03858,-0.380343 -0.0937,-0.865403 -0.259072,-1.306379 -0.165367,-0.440976 -0.3638,-0.837843 -0.573265,-1.080379 -0.209464,-0.242535 -0.429945,-0.330728 -0.584287,-0.336238 -0.154342,-0.0055 -0.242533,0.07166 -0.303167,0.159851 -0.06063,0.08819 -0.09371,0.187414 -0.110244,0.237022 -0.01654,0.04961 -0.01653,0.04961 -0.06614,0.09922 z"
       id="path1302"
       transform="matrix(0.20801178,-0.26103727,0.49451537,0.39406259,5.4247215,14.927017)" />
    <path
       style="fill:#e6757c;stroke:#e6757c;stroke-width:0.4;stroke-dasharray:none"
       d="m 15.82539,16.883724 c -0.04961,0.04961 -0.148828,0.148828 -0.231511,0.490588 -0.08268,0.341759 -0.148827,0.926035 -0.06614,1.378035 0.08268,0.452 0.31419,0.771698 0.628387,0.964624 0.314196,0.192926 0.711063,0.25907 1.014234,0.154336 0.30317,-0.104733 0.512628,-0.380335 0.551212,-0.760679 0.03858,-0.380343 -0.0937,-0.865403 -0.259072,-1.306379 -0.165367,-0.440976 -0.3638,-0.837843 -0.573265,-1.080379 -0.209464,-0.242535 -0.429945,-0.330728 -0.584287,-0.336238 -0.154342,-0.0055 -0.242533,0.07166 -0.303167,0.159851 -0.06063,0.08819 -0.09371,0.187414 -0.110244,0.237022 -0.01654,0.04961 -0.01653,0.04961 -0.06614,0.09922 z"
       id="path1303"
       transform="matrix(0.11659401,-0.31275421,0.59248919,0.22087852,5.3292658,18.571873)" />
    <path
       style="fill:#e6757c;stroke:#e6757c;stroke-width:0.4;stroke-dasharray:none"
       d="m 15.82539,16.883724 c -0.04961,0.04961 -0.148828,0.148828 -0.231511,0.490588 -0.08268,0.341759 -0.148827,0.926035 -0.06614,1.378035 0.08268,0.452 0.31419,0.771698 0.628387,0.964624 0.314196,0.192926 0.711063,0.25907 1.014234,0.154336 0.30317,-0.104733 0.512628,-0.380335 0.551212,-0.760679 0.03858,-0.380343 -0.0937,-0.865403 -0.259072,-1.306379 -0.165367,-0.440976 -0.3638,-0.837843 -0.573265,-1.080379 -0.209464,-0.242535 -0.429945,-0.330728 -0.584287,-0.336238 -0.154342,-0.0055 -0.242533,0.07166 -0.303167,0.159851 -0.06063,0.08819 -0.09371,0.187414 -0.110244,0.237022 -0.01654,0.04961 -0.01653,0.04961 -0.06614,0.09922 z"
       id="path1304"
       transform="matrix(0.04381211,-0.33089252,0.62685083,0.08299873,5.9584131,20.850448)" />
    <path
       style="fill:#e6757c;stroke:#e6757c;stroke-width:0.4;stroke-dasharray:none"
       d="m 15.82539,16.883724 c -0.04961,0.04961 -0.148828,0.148828 -0.231511,0.490588 -0.08268,0.341759 -0.148827,0.926035 -0.06614,1.378035 0.08268,0.452 0.31419,0.771698 0.628387,0.964624 0.314196,0.192926 0.711063,0.25907 1.014234,0.154336 0.30317,-0.104733 0.512628,-0.380335 0.551212,-0.760679 0.03858,-0.380343 -0.0937,-0.865403 -0.259072,-1.306379 -0.165367,-0.440976 -0.3638,-0.837843 -0.573265,-1.080379 -0.209464,-0.242535 -0.429945,-0.330728 -0.584287,-0.336238 -0.154342,-0.0055 -0.242533,0.07166 -0.303167,0.159851 -0.06063,0.08819 -0.09371,0.187414 -0.110244,0.237022 -0.01654,0.04961 -0.01653,0.04961 -0.06614,0.09922 z"
       id="path1311"
       transform="matrix(-0.08182231,0.32359615,-0.61302847,-0.15500618,26.561177,14.086118)" />
    <path
       style="fill:#e6757c;stroke:#e6757c;stroke-width:0.4;stroke-dasharray:none"
       d="m 15.82539,16.883724 c -0.04961,0.04961 -0.148828,0.148828 -0.231511,0.490588 -0.08268,0.341759 -0.148827,0.926035 -0.06614,1.378035 0.08268,0.452 0.31419,0.771698 0.628387,0.964624 0.314196,0.192926 0.711063,0.25907 1.014234,0.154336 0.30317,-0.104733 0.512628,-0.380335 0.551212,-0.760679 0.03858,-0.380343 -0.0937,-0.865403 -0.259072,-1.306379 -0.165367,-0.440976 -0.3638,-0.837843 -0.573265,-1.080379 -0.209464,-0.242535 -0.429945,-0.330728 -0.584287,-0.336238 -0.154342,-0.0055 -0.242533,0.07166 -0.303167,0.159851 -0.06063,0.08819 -0.09371,0.187414 -0.110244,0.237022 -0.01654,0.04961 -0.01653,0.04961 -0.06614,0.09922 z"
       id="path1312"
       transform="matrix(-0.00749739,0.3336962,-0.63216222,-0.01420326,25.687504,11.889662)" />
    <path
       style="fill:#e6757c;stroke:#e6757c;stroke-width:0.4;stroke-dasharray:none"
       d="m 15.82539,16.883724 c -0.04961,0.04961 -0.148828,0.148828 -0.231511,0.490588 -0.08268,0.341759 -0.148827,0.926035 -0.06614,1.378035 0.08268,0.452 0.31419,0.771698 0.628387,0.964624 0.314196,0.192926 0.711063,0.25907 1.014234,0.154336 0.30317,-0.104733 0.512628,-0.380335 0.551212,-0.760679 0.03858,-0.380343 -0.0937,-0.865403 -0.259072,-1.306379 -0.165367,-0.440976 -0.3638,-0.837843 -0.573265,-1.080379 -0.209464,-0.242535 -0.429945,-0.330728 -0.584287,-0.336238 -0.154342,-0.0055 -0.242533,0.07166 -0.303167,0.159851 -0.06063,0.08819 -0.09371,0.187414 -0.110244,0.237022 -0.01654,0.04961 -0.01653,0.04961 -0.06614,0.09922 z"
       id="path1313"
       transform="matrix(0.09657205,0.31950462,-0.60527731,0.18294844,23.556601,8.9310551)" />
    <path
       style="fill:#e6757c;stroke:#e6757c;stroke-width:0.4;stroke-dasharray:none"
       d="m 15.82539,16.883724 c -0.04961,0.04961 -0.148828,0.148828 -0.231511,0.490588 -0.08268,0.341759 -0.148827,0.926035 -0.06614,1.378035 0.08268,0.452 0.31419,0.771698 0.628387,0.964624 0.314196,0.192926 0.711063,0.25907 1.014234,0.154336 0.30317,-0.104733 0.512628,-0.380335 0.551212,-0.760679 0.03858,-0.380343 -0.0937,-0.865403 -0.259072,-1.306379 -0.165367,-0.440976 -0.3638,-0.837843 -0.573265,-1.080379 -0.209464,-0.242535 -0.429945,-0.330728 -0.584287,-0.336238 -0.154342,-0.0055 -0.242533,0.07166 -0.303167,0.159851 -0.06063,0.08819 -0.09371,0.187414 -0.110244,0.237022 -0.01654,0.04961 -0.01653,0.04961 -0.06614,0.09922 z"
       id="path1314"
       transform="matrix(0.16547884,0.28987258,-0.54914169,0.31348714,21.676264,7.4985535)" />
    <path
       style="fill:#e6757c;stroke:#e6757c;stroke-width:0.4;stroke-dasharray:none"
       d="m 15.82539,16.883724 c -0.04961,0.04961 -0.148828,0.148828 -0.231511,0.490588 -0.08268,0.341759 -0.148827,0.926035 -0.06614,1.378035 0.08268,0.452 0.31419,0.771698 0.628387,0.964624 0.314196,0.192926 0.711063,0.25907 1.014234,0.154336 0.30317,-0.104733 0.512628,-0.380335 0.551212,-0.760679 0.03858,-0.380343 -0.0937,-0.865403 -0.259072,-1.306379 -0.165367,-0.440976 -0.3638,-0.837843 -0.573265,-1.080379 -0.209464,-0.242535 -0.429945,-0.330728 -0.584287,-0.336238 -0.154342,-0.0055 -0.242533,0.07166 -0.303167,0.159851 -0.06063,0.08819 -0.09371,0.187414 -0.110244,0.237022 -0.01654,0.04961 -0.01653,0.04961 -0.06614,0.09922 z"
       id="path1315"
       transform="matrix(0.13765767,0.30407191,-0.57604122,0.26078205,22.818614,8.4460686)" />
    <path
       style="fill:#e6757c;stroke:#e6757c;stroke-width:0.4;stroke-dasharray:none"
       d="m 15.82539,16.883724 c -0.04961,0.04961 -0.148828,0.148828 -0.231511,0.490588 -0.08268,0.341759 -0.148827,0.926035 -0.06614,1.378035 0.08268,0.452 0.31419,0.771698 0.628387,0.964624 0.314196,0.192926 0.711063,0.25907 1.014234,0.154336 0.30317,-0.104733 0.512628,-0.380335 0.551212,-0.760679 0.03858,-0.380343 -0.0937,-0.865403 -0.259072,-1.306379 -0.165367,-0.440976 -0.3638,-0.837843 -0.573265,-1.080379 -0.209464,-0.242535 -0.429945,-0.330728 -0.584287,-0.336238 -0.154342,-0.0055 -0.242533,0.07166 -0.303167,0.159851 -0.06063,0.08819 -0.09371,0.187414 -0.110244,0.237022 -0.01654,0.04961 -0.01653,0.04961 -0.06614,0.09922 z"
       id="path1316"
       transform="matrix(0.20208093,0.26565516,-0.50326358,0.38282703,20.76658,7.2726584)" />
    <path
       style="fill:#e6757c;stroke:#e6757c;stroke-width:0.4;stroke-dasharray:none"
       d="m 15.82539,16.883724 c -0.04961,0.04961 -0.148828,0.148828 -0.231511,0.490588 -0.08268,0.341759 -0.148827,0.926035 -0.06614,1.378035 0.08268,0.452 0.31419,0.771698 0.628387,0.964624 0.314196,0.192926 0.711063,0.25907 1.014234,0.154336 0.30317,-0.104733 0.512628,-0.380335 0.551212,-0.760679 0.03858,-0.380343 -0.0937,-0.865403 -0.259072,-1.306379 -0.165367,-0.440976 -0.3638,-0.837843 -0.573265,-1.080379 -0.209464,-0.242535 -0.429945,-0.330728 -0.584287,-0.336238 -0.154342,-0.0055 -0.242533,0.07166 -0.303167,0.159851 -0.06063,0.08819 -0.09371,0.187414 -0.110244,0.237022 -0.01654,0.04961 -0.01653,0.04961 -0.06614,0.09922 z"
       id="path1317"
       transform="matrix(0.27462988,0.1897045,-0.35938082,0.52026553,17.256333,6.2866217)" />
    <path
       style="fill:#e6757c;stroke:#e6757c;stroke-width:0.4;stroke-dasharray:none"
       d="m 15.82539,16.883724 c -0.04961,0.04961 -0.148828,0.148828 -0.231511,0.490588 -0.08268,0.341759 -0.148827,0.926035 -0.06614,1.378035 0.08268,0.452 0.31419,0.771698 0.628387,0.964624 0.314196,0.192926 0.711063,0.25907 1.014234,0.154336 0.30317,-0.104733 0.512628,-0.380335 0.551212,-0.760679 0.03858,-0.380343 -0.0937,-0.865403 -0.259072,-1.306379 -0.165367,-0.440976 -0.3638,-0.837843 -0.573265,-1.080379 -0.209464,-0.242535 -0.429945,-0.330728 -0.584287,-0.336238 -0.154342,-0.0055 -0.242533,0.07166 -0.303167,0.159851 -0.06063,0.08819 -0.09371,0.187414 -0.110244,0.237022 -0.01654,0.04961 -0.01653,0.04961 -0.06614,0.09922 z"
       id="path1318"
       transform="matrix(0.31005636,0.12358969,-0.23413134,0.58737832,14.893055,6.3380073)" />
    <path
       style="fill:#e6757c;stroke:#e6757c;stroke-width:0.4;stroke-dasharray:none"
       d="m 15.82539,16.883724 c -0.04961,0.04961 -0.148828,0.148828 -0.231511,0.490588 -0.08268,0.341759 -0.148827,0.926035 -0.06614,1.378035 0.08268,0.452 0.31419,0.771698 0.628387,0.964624 0.314196,0.192926 0.711063,0.25907 1.014234,0.154336 0.30317,-0.104733 0.512628,-0.380335 0.551212,-0.760679 0.03858,-0.380343 -0.0937,-0.865403 -0.259072,-1.306379 -0.165367,-0.440976 -0.3638,-0.837843 -0.573265,-1.080379 -0.209464,-0.242535 -0.429945,-0.330728 -0.584287,-0.336238 -0.154342,-0.0055 -0.242533,0.07166 -0.303167,0.159851 -0.06063,0.08819 -0.09371,0.187414 -0.110244,0.237022 -0.01654,0.04961 -0.01653,0.04961 -0.06614,0.09922 z"
       id="path1333"
       transform="matrix(-0.32959822,-0.05267233,0.09978374,-0.62439896,19.71306,26.981557)" />
    <path
       style="fill:#e6757c;stroke:#e6757c;stroke-width:0.4;stroke-dasharray:none"
       d="m 15.82539,16.883724 c -0.04961,0.04961 -0.148828,0.148828 -0.231511,0.490588 -0.08268,0.341759 -0.148827,0.926035 -0.06614,1.378035 0.08268,0.452 0.31419,0.771698 0.628387,0.964624 0.314196,0.192926 0.711063,0.25907 1.014234,0.154336 0.30317,-0.104733 0.512628,-0.380335 0.551212,-0.760679 0.03858,-0.380343 -0.0937,-0.865403 -0.259072,-1.306379 -0.165367,-0.440976 -0.3638,-0.837843 -0.573265,-1.080379 -0.209464,-0.242535 -0.429945,-0.330728 -0.584287,-0.336238 -0.154342,-0.0055 -0.242533,0.07166 -0.303167,0.159851 -0.06063,0.08819 -0.09371,0.187414 -0.110244,0.237022 -0.01654,0.04961 -0.01653,0.04961 -0.06614,0.09922 z"
       id="path1334"
       transform="matrix(-0.33303753,0.02225681,-0.04216383,-0.6309144,21.822962,25.915705)" />
    <path
       style="fill:#e6757c;stroke:#e6757c;stroke-width:0.4;stroke-dasharray:none"
       d="m 15.82539,16.883724 c -0.04961,0.04961 -0.148828,0.148828 -0.231511,0.490588 -0.08268,0.341759 -0.148827,0.926035 -0.06614,1.378035 0.08268,0.452 0.31419,0.771698 0.628387,0.964624 0.314196,0.192926 0.711063,0.25907 1.014234,0.154336 0.30317,-0.104733 0.512628,-0.380335 0.551212,-0.760679 0.03858,-0.380343 -0.0937,-0.865403 -0.259072,-1.306379 -0.165367,-0.440976 -0.3638,-0.837843 -0.573265,-1.080379 -0.209464,-0.242535 -0.429945,-0.330728 -0.584287,-0.336238 -0.154342,-0.0055 -0.242533,0.07166 -0.303167,0.159851 -0.06063,0.08819 -0.09371,0.187414 -0.110244,0.237022 -0.01654,0.04961 -0.01653,0.04961 -0.06614,0.09922 z"
       id="path1335"
       transform="matrix(-0.30963226,0.12464844,-0.23613701,-0.58657486,24.579994,23.529731)" />
    <path
       style="fill:#e6757c;stroke:#e6757c;stroke-width:0.4;stroke-dasharray:none"
       d="m 15.82539,16.883724 c -0.04961,0.04961 -0.148828,0.148828 -0.231511,0.490588 -0.08268,0.341759 -0.148827,0.926035 -0.06614,1.378035 0.08268,0.452 0.31419,0.771698 0.628387,0.964624 0.314196,0.192926 0.711063,0.25907 1.014234,0.154336 0.30317,-0.104733 0.512628,-0.380335 0.551212,-0.760679 0.03858,-0.380343 -0.0937,-0.865403 -0.259072,-1.306379 -0.165367,-0.440976 -0.3638,-0.837843 -0.573265,-1.080379 -0.209464,-0.242535 -0.429945,-0.330728 -0.584287,-0.336238 -0.154342,-0.0055 -0.242533,0.07166 -0.303167,0.159851 -0.06063,0.08819 -0.09371,0.187414 -0.110244,0.237022 -0.01654,0.04961 -0.01653,0.04961 -0.06614,0.09922 z"
       id="path1336"
       transform="matrix(-0.27398005,0.19064179,-0.36115645,-0.5190345,25.839307,21.529268)" />
    <path
       style="fill:#e6757c;stroke:#e6757c;stroke-width:0.4;stroke-dasharray:none"
       d="m 15.82539,16.883724 c -0.04961,0.04961 -0.148828,0.148828 -0.231511,0.490588 -0.08268,0.341759 -0.148827,0.926035 -0.06614,1.378035 0.08268,0.452 0.31419,0.771698 0.628387,0.964624 0.314196,0.192926 0.711063,0.25907 1.014234,0.154336 0.30317,-0.104733 0.512628,-0.380335 0.551212,-0.760679 0.03858,-0.380343 -0.0937,-0.865403 -0.259072,-1.306379 -0.165367,-0.440976 -0.3638,-0.837843 -0.573265,-1.080379 -0.209464,-0.242535 -0.429945,-0.330728 -0.584287,-0.336238 -0.154342,-0.0055 -0.242533,0.07166 -0.303167,0.159851 -0.06063,0.08819 -0.09371,0.187414 -0.110244,0.237022 -0.01654,0.04961 -0.01653,0.04961 -0.06614,0.09922 z"
       id="path1337"
       transform="matrix(-0.29060114,0.16419603,-0.31105697,-0.55052186,24.997316,22.751477)" />
    <path
       style="fill:#e6757c;stroke:#e6757c;stroke-width:0.4;stroke-dasharray:none"
       d="m 15.82539,16.883724 c -0.04961,0.04961 -0.148828,0.148828 -0.231511,0.490588 -0.08268,0.341759 -0.148827,0.926035 -0.06614,1.378035 0.08268,0.452 0.31419,0.771698 0.628387,0.964624 0.314196,0.192926 0.711063,0.25907 1.014234,0.154336 0.30317,-0.104733 0.512628,-0.380335 0.551212,-0.760679 0.03858,-0.380343 -0.0937,-0.865403 -0.259072,-1.306379 -0.165367,-0.440976 -0.3638,-0.837843 -0.573265,-1.080379 -0.209464,-0.242535 -0.429945,-0.330728 -0.584287,-0.336238 -0.154342,-0.0055 -0.242533,0.07166 -0.303167,0.159851 -0.06063,0.08819 -0.09371,0.187414 -0.110244,0.237022 -0.01654,0.04961 -0.01653,0.04961 -0.06614,0.09922 z"
       id="path1338"
       transform="matrix(-0.24659852,0.22494117,-0.42613404,-0.46716222,25.983274,20.603077)" />
    <path
       style="fill:#e6757c;stroke:#e6757c;stroke-width:0.4;stroke-dasharray:none"
       d="m 15.82539,16.883724 c -0.04961,0.04961 -0.148828,0.148828 -0.231511,0.490588 -0.08268,0.341759 -0.148827,0.926035 -0.06614,1.378035 0.08268,0.452 0.31419,0.771698 0.628387,0.964624 0.314196,0.192926 0.711063,0.25907 1.014234,0.154336 0.30317,-0.104733 0.512628,-0.380335 0.551212,-0.760679 0.03858,-0.380343 -0.0937,-0.865403 -0.259072,-1.306379 -0.165367,-0.440976 -0.3638,-0.837843 -0.573265,-1.080379 -0.209464,-0.242535 -0.429945,-0.330728 -0.584287,-0.336238 -0.154342,-0.0055 -0.242533,0.07166 -0.303167,0.159851 -0.06063,0.08819 -0.09371,0.187414 -0.110244,0.237022 -0.01654,0.04961 -0.01653,0.04961 -0.06614,0.09922 z"
       id="path1339"
       transform="matrix(-0.16448739,0.29043633,-0.55020966,-0.31160894,26.652712,17.018953)" />
    <path
       style="fill:#e6757c;stroke:#e6757c;stroke-width:0.4;stroke-dasharray:none"
       d="m 15.82539,16.883724 c -0.04961,0.04961 -0.148828,0.148828 -0.231511,0.490588 -0.08268,0.341759 -0.148827,0.926035 -0.06614,1.378035 0.08268,0.452 0.31419,0.771698 0.628387,0.964624 0.314196,0.192926 0.711063,0.25907 1.014234,0.154336 0.30317,-0.104733 0.512628,-0.380335 0.551212,-0.760679 0.03858,-0.380343 -0.0937,-0.865403 -0.259072,-1.306379 -0.165367,-0.440976 -0.3638,-0.837843 -0.573265,-1.080379 -0.209464,-0.242535 -0.429945,-0.330728 -0.584287,-0.336238 -0.154342,-0.0055 -0.242533,0.07166 -0.303167,0.159851 -0.06063,0.08819 -0.09371,0.187414 -0.110244,0.237022 -0.01654,0.04961 -0.01653,0.04961 -0.06614,0.09922 z"
       id="path1340"
       transform="matrix(-0.09547975,0.31983273,-0.60589895,-0.18087918,26.391018,14.669646)" />
    <path
       style="fill:#e6757c;stroke:#e6757c;stroke-width:0.4;stroke-dasharray:none"
       d="m 15.82539,16.883724 c -0.04961,0.04961 -0.148828,0.148828 -0.231511,0.490588 -0.08268,0.341759 -0.148827,0.926035 -0.06614,1.378035 0.08268,0.452 0.31419,0.771698 0.628387,0.964624 0.314196,0.192926 0.711063,0.25907 1.014234,0.154336 0.30317,-0.104733 0.512628,-0.380335 0.551212,-0.760679 0.03858,-0.380343 -0.0937,-0.865403 -0.259072,-1.306379 -0.165367,-0.440976 -0.3638,-0.837843 -0.573265,-1.080379 -0.209464,-0.242535 -0.429945,-0.330728 -0.584287,-0.336238 -0.154342,-0.0055 -0.242533,0.07166 -0.303167,0.159851 -0.06063,0.08819 -0.09371,0.187414 -0.110244,0.237022 -0.01654,0.04961 -0.01653,0.04961 -0.06614,0.09922 z"
       id="path1355"
       transform="matrix(0.01500047,-0.33344317,0.63168291,0.02841723,6.4286437,21.78168)" />
    <path
       style="fill:#e6757c;stroke:#e6757c;stroke-width:0.4;stroke-dasharray:none"
       d="m 15.82539,16.883724 c -0.04961,0.04961 -0.148828,0.148828 -0.231511,0.490588 -0.08268,0.341759 -0.148827,0.926035 -0.06614,1.378035 0.08268,0.452 0.31419,0.771698 0.628387,0.964624 0.314196,0.192926 0.711063,0.25907 1.014234,0.154336 0.30317,-0.104733 0.512628,-0.380335 0.551212,-0.760679 0.03858,-0.380343 -0.0937,-0.865403 -0.259072,-1.306379 -0.165367,-0.440976 -0.3638,-0.837843 -0.573265,-1.080379 -0.209464,-0.242535 -0.429945,-0.330728 -0.584287,-0.336238 -0.154342,-0.0055 -0.242533,0.07166 -0.303167,0.159851 -0.06063,0.08819 -0.09371,0.187414 -0.110244,0.237022 -0.01654,0.04961 -0.01653,0.04961 -0.06614,0.09922 z"
       id="path1356"
       transform="matrix(-0.05983603,-0.32837328,0.62207831,-0.11335482,7.7266214,23.757276)" />
    <path
       style="fill:#e6757c;stroke:#e6757c;stroke-width:0.4;stroke-dasharray:none"
       d="m 15.82539,16.883724 c -0.04961,0.04961 -0.148828,0.148828 -0.231511,0.490588 -0.08268,0.341759 -0.148827,0.926035 -0.06614,1.378035 0.08268,0.452 0.31419,0.771698 0.628387,0.964624 0.314196,0.192926 0.711063,0.25907 1.014234,0.154336 0.30317,-0.104733 0.512628,-0.380335 0.551212,-0.760679 0.03858,-0.380343 -0.0937,-0.865403 -0.259072,-1.306379 -0.165367,-0.440976 -0.3638,-0.837843 -0.573265,-1.080379 -0.209464,-0.242535 -0.429945,-0.330728 -0.584287,-0.336238 -0.154342,-0.0055 -0.242533,0.07166 -0.303167,0.159851 -0.06063,0.08819 -0.09371,0.187414 -0.110244,0.237022 -0.01654,0.04961 -0.01653,0.04961 -0.06614,0.09922 z"
       id="path1357"
       transform="matrix(-0.15891765,-0.29352094,0.55605321,-0.30105744,10.409523,26.22631)" />
    <path
       style="fill:#e6757c;stroke:#e6757c;stroke-width:0.4;stroke-dasharray:none"
       d="m 15.82539,16.883724 c -0.04961,0.04961 -0.148828,0.148828 -0.231511,0.490588 -0.08268,0.341759 -0.148827,0.926035 -0.06614,1.378035 0.08268,0.452 0.31419,0.771698 0.628387,0.964624 0.314196,0.192926 0.711063,0.25907 1.014234,0.154336 0.30317,-0.104733 0.512628,-0.380335 0.551212,-0.760679 0.03858,-0.380343 -0.0937,-0.865403 -0.259072,-1.306379 -0.165367,-0.440976 -0.3638,-0.837843 -0.573265,-1.080379 -0.209464,-0.242535 -0.429945,-0.330728 -0.584287,-0.336238 -0.154342,-0.0055 -0.242533,0.07166 -0.303167,0.159851 -0.06063,0.08819 -0.09371,0.187414 -0.110244,0.237022 -0.01654,0.04961 -0.01653,0.04961 -0.06614,0.09922 z"
       id="path1358"
       transform="matrix(-0.22044805,-0.25062326,0.47478681,-0.41762215,12.539751,27.250932)" />
    <path
       style="fill:#e6757c;stroke:#e6757c;stroke-width:0.4;stroke-dasharray:none"
       d="m 15.82539,16.883724 c -0.04961,0.04961 -0.148828,0.148828 -0.231511,0.490588 -0.08268,0.341759 -0.148827,0.926035 -0.06614,1.378035 0.08268,0.452 0.31419,0.771698 0.628387,0.964624 0.314196,0.192926 0.711063,0.25907 1.014234,0.154336 0.30317,-0.104733 0.512628,-0.380335 0.551212,-0.760679 0.03858,-0.380343 -0.0937,-0.865403 -0.259072,-1.306379 -0.165367,-0.440976 -0.3638,-0.837843 -0.573265,-1.080379 -0.209464,-0.242535 -0.429945,-0.330728 -0.584287,-0.336238 -0.154342,-0.0055 -0.242533,0.07166 -0.303167,0.159851 -0.06063,0.08819 -0.09371,0.187414 -0.110244,0.237022 -0.01654,0.04961 -0.01653,0.04961 -0.06614,0.09922 z"
       id="path1359"
       transform="matrix(-0.19605511,-0.27013283,0.5117462,-0.3714116,11.230038,26.552795)" />
    <path
       style="fill:#e6757c;stroke:#e6757c;stroke-width:0.4;stroke-dasharray:none"
       d="m 15.82539,16.883724 c -0.04961,0.04961 -0.148828,0.148828 -0.231511,0.490588 -0.08268,0.341759 -0.148827,0.926035 -0.06614,1.378035 0.08268,0.452 0.31419,0.771698 0.628387,0.964624 0.314196,0.192926 0.711063,0.25907 1.014234,0.154336 0.30317,-0.104733 0.512628,-0.380335 0.551212,-0.760679 0.03858,-0.380343 -0.0937,-0.865403 -0.259072,-1.306379 -0.165367,-0.440976 -0.3638,-0.837843 -0.573265,-1.080379 -0.209464,-0.242535 -0.429945,-0.330728 -0.584287,-0.336238 -0.154342,-0.0055 -0.242533,0.07166 -0.303167,0.159851 -0.06063,0.08819 -0.09371,0.187414 -0.110244,0.237022 -0.01654,0.04961 -0.01653,0.04961 -0.06614,0.09922 z"
       id="path1360"
       transform="matrix(-0.25142525,-0.21953292,0.4158885,-0.47630612,13.476289,27.289064)" />
    <path
       style="fill:#e6757c;stroke:#e6757c;stroke-width:0.4;stroke-dasharray:none"
       d="m 15.82539,16.883724 c -0.04961,0.04961 -0.148828,0.148828 -0.231511,0.490588 -0.08268,0.341759 -0.148827,0.926035 -0.06614,1.378035 0.08268,0.452 0.31419,0.771698 0.628387,0.964624 0.314196,0.192926 0.711063,0.25907 1.014234,0.154336 0.30317,-0.104733 0.512628,-0.380335 0.551212,-0.760679 0.03858,-0.380343 -0.0937,-0.865403 -0.259072,-1.306379 -0.165367,-0.440976 -0.3638,-0.837843 -0.573265,-1.080379 -0.209464,-0.242535 -0.429945,-0.330728 -0.584287,-0.336238 -0.154342,-0.0055 -0.242533,0.07166 -0.303167,0.159851 -0.06063,0.08819 -0.09371,0.187414 -0.110244,0.237022 -0.01654,0.04961 -0.01653,0.04961 -0.06614,0.09922 z"
       id="path1361"
       transform="matrix(-0.30719837,-0.13053173,0.2472825,-0.58196407,17.113173,27.548227)" />
    <path
       style="fill:#e6757c;stroke:#e6757c;stroke-width:0.4;stroke-dasharray:none"
       d="m 15.82539,16.883724 c -0.04961,0.04961 -0.148828,0.148828 -0.231511,0.490588 -0.08268,0.341759 -0.148827,0.926035 -0.06614,1.378035 0.08268,0.452 0.31419,0.771698 0.628387,0.964624 0.314196,0.192926 0.711063,0.25907 1.014234,0.154336 0.30317,-0.104733 0.512628,-0.380335 0.551212,-0.760679 0.03858,-0.380343 -0.0937,-0.865403 -0.259072,-1.306379 -0.165367,-0.440976 -0.3638,-0.837843 -0.573265,-1.080379 -0.209464,-0.242535 -0.429945,-0.330728 -0.584287,-0.336238 -0.154342,-0.0055 -0.242533,0.07166 -0.303167,0.159851 -0.06063,0.08819 -0.09371,0.187414 -0.110244,0.237022 -0.01654,0.04961 -0.01653,0.04961 -0.06614,0.09922 z"
       id="path1362"
       transform="matrix(-0.32858923,-0.05863852,0.11108625,-0.62248749,19.41772,27.022117)" />
    <path
       style="fill:#457b47;stroke:#457b47;stroke-width:0.4;stroke-dasharray:none"
       d="m 16.955382,23.569965 c -0.363802,-0.198438 -1.135503,-0.341753 -1.763893,-0.363801 -0.628391,-0.02205 -1.113451,0.07717 -1.449694,0.264585 -0.336243,0.187416 -0.523653,0.463018 -0.49609,0.733116 0.02756,0.270099 0.270093,0.534677 0.733121,0.644919 0.463028,0.110243 1.146521,0.06615 1.725302,-0.05512 0.578781,-0.121269 1.052816,-0.319702 1.311888,-0.545703 0.259072,-0.226001 0.303168,-0.479555 -0.06063,-0.677993 z"
       id="path1378"
       transform="matrix(0.68457448,0,0,0.36952088,5.3684446,14.089925)" />
    <path
       style="fill:#457b47;stroke:#457b47;stroke-width:0.4;stroke-dasharray:none"
       d="m 16.955382,23.569965 c -0.363802,-0.198438 -1.135503,-0.341753 -1.763893,-0.363801 -0.628391,-0.02205 -1.113451,0.07717 -1.449694,0.264585 -0.336243,0.187416 -0.523653,0.463018 -0.49609,0.733116 0.02756,0.270099 0.270093,0.534677 0.733121,0.644919 0.463028,0.110243 1.146521,0.06615 1.725302,-0.05512 0.578781,-0.121269 1.052816,-0.319702 1.311888,-0.545703 0.259072,-0.226001 0.303168,-0.479555 -0.06063,-0.677993 z"
       id="path1380"
       transform="matrix(-0.74837546,0,0,0.5097252,30.008378,12.956084)" />
    <path
       style="fill:#e11800;stroke:#e6757c;stroke-width:0.4;stroke-dasharray:none"
       d="m 17.398342,15.773914 c 0,0.03508 0,0.105237 -0.07406,0.339102 -0.07406,0.233864 -0.222167,0.63142 -0.522293,0.8341 -0.300126,0.20268 -0.752248,0.210476 -1.099144,-0.05067 -0.346896,-0.261149 -0.588547,-0.791223 -0.736659,-1.192687 -0.148113,-0.401464 -0.202679,-0.674296 -0.07015,-0.892568 0.132524,-0.218272 0.452128,-0.381971 0.760047,-0.495004 0.307919,-0.113034 0.604138,-0.175395 0.884773,-0.113031 0.280636,0.06236 0.545673,0.24945 0.682093,0.475518 0.13642,0.226068 0.144216,0.491105 0.152013,0.674297 0.0078,0.183192 0.01559,0.28453 0.01949,0.3352 0.0039,0.05067 0.0039,0.05067 0.0039,0.08575 z"
       id="path1383"
       transform="matrix(0.82821698,0,0,0.82821698,2.6259276,3.9080392)" />
  </g>
</svg>
